<?xml version="1.0" encoding="UTF-8" standalone="no"?>
<!-- Created with Inkscape (http://www.inkscape.org/) -->

<svg
   width="7.8724761mm"
   height="18.864103mm"
   viewBox="0 0 7.8724761 18.864103"
   version="1.1"
   id="svg1"
   xml:space="preserve"
   inkscape:version="1.3.2 (091e20e, 2023-11-25, custom)"
   sodipodi:docname="Figure 2.svg"
   xmlns:inkscape="http://www.inkscape.org/namespaces/inkscape"
   xmlns:sodipodi="http://sodipodi.sourceforge.net/DTD/sodipodi-0.dtd"
   xmlns="http://www.w3.org/2000/svg"
   xmlns:svg="http://www.w3.org/2000/svg"><sodipodi:namedview
     id="namedview1"
     pagecolor="#ffffff"
     bordercolor="#000000"
     borderopacity="0.25"
     inkscape:showpageshadow="2"
     inkscape:pageopacity="0.0"
     inkscape:pagecheckerboard="0"
     inkscape:deskcolor="#d1d1d1"
     inkscape:document-units="mm"
     inkscape:zoom="1.0636785"
     inkscape:cx="464.42605"
     inkscape:cy="-486.51919"
     inkscape:window-width="1920"
     inkscape:window-height="1009"
     inkscape:window-x="1912"
     inkscape:window-y="-8"
     inkscape:window-maximized="1"
     inkscape:current-layer="layer1" /><defs
     id="defs1" /><g
     inkscape:label="Layer 1"
     inkscape:groupmode="layer"
     id="layer1"
     transform="translate(-103.62537,100.65638)"><path
       style="fill:#000000;stroke-width:0.517571"
       d="m 111.21197,-81.829506 c 0.0691,-0.08465 0.12868,-0.381869 0.16621,-0.829202 0.0339,-0.404243 0.032,-0.559877 -0.0143,-1.141771 -0.092,-1.157692 -0.1084,-1.268106 -0.25409,-1.70964 -0.0741,-0.22445 -0.1589,-0.499906 -0.18853,-0.612131 -0.0296,-0.11222 -0.0723,-0.260545 -0.0948,-0.329605 -0.0225,-0.06906 -0.0706,-0.22682 -0.10685,-0.350576 -0.0362,-0.123757 -0.0783,-0.229698 -0.0936,-0.235433 -0.0777,-0.02924 -0.69952,-1.210215 -0.92819,-1.762894 -0.31101,-0.751668 -0.58163,-1.799558 -0.58194,-2.253379 l -1e-4,-0.144744 0.24915,-0.113891 c 0.28508,-0.130314 1.01394,-0.288432 1.19484,-0.25921 0.17701,0.02862 0.70115,0.20722 0.75739,0.258118 0.0463,0.04192 0.0585,0.03804 0.118,-0.03763 0.0774,-0.09839 0.0787,-0.108602 0.0281,-0.219564 -0.0271,-0.05956 -0.10589,-0.114699 -0.27179,-0.1903 -0.23843,-0.108654 -0.63499,-0.402339 -0.6952,-0.514849 -0.0412,-0.07697 -0.24527,-0.208337 -0.41884,-0.269618 -0.0714,-0.0252 -0.35584,-0.075 -0.63208,-0.110636 -0.56349,-0.0727 -0.76315,-0.134366 -0.94839,-0.292924 -0.28711,-0.245758 -0.97708,-1.472608 -1.27135,-2.260625 -0.21631,-0.57925 -0.44268,-1.370041 -0.48075,-1.679424 -0.0209,-0.169934 -0.16782,-0.482568 -0.3614,-0.769085 -0.0467,-0.06906 -0.18124,-0.312784 -0.29906,-0.541612 -0.15497,-0.300962 -0.26889,-0.475943 -0.41186,-0.632585 -0.10869,-0.119099 -0.28917,-0.332721 -0.40104,-0.474716 -0.35782,-0.454169 -0.63269,-0.721938 -1.13126,-1.102028 -0.22409,-0.17084 -0.36481,-0.24691 -0.45677,-0.24691 -0.0611,0 -0.0659,0.0127 -0.051,0.13341 0.009,0.0734 0.0324,0.2178 0.0518,0.32095 0.0274,0.1455 0.0266,0.203931 -0.004,0.260704 -0.0315,0.05888 -0.0311,0.09275 0.002,0.173463 0.0228,0.05516 0.0671,0.192112 0.0986,0.304332 0.11677,0.416862 0.42091,1.163064 0.70412,1.727532 0.23451,0.467393 0.30134,0.631908 0.34001,0.836908 0.0265,0.140339 0.0701,0.297696 0.097,0.349681 0.0269,0.05199 0.0643,0.212162 0.0832,0.355949 0.0669,0.510159 0.11843,0.804936 0.15544,0.889259 0.0152,0.03452 0.0578,0.189917 0.0948,0.345302 0.0818,0.343704 0.13451,0.506594 0.23558,0.72757 0.0425,0.09291 0.0773,0.17924 0.0773,0.191828 0,0.01258 0.0636,0.14745 0.14126,0.299694 0.0844,0.165286 0.14126,0.319238 0.14126,0.382128 0,0.08168 0.0216,0.120692 0.0962,0.1738 0.0651,0.04637 0.0898,0.08497 0.0766,0.119548 -0.0256,0.06662 0.0392,0.434667 0.0965,0.548636 0.0246,0.04886 0.0447,0.123539 0.0447,0.165907 0,0.04239 0.0212,0.109332 0.047,0.148802 0.0459,0.06997 0.0404,0.07638 -0.22063,0.257869 -0.42149,0.293085 -0.52922,0.342456 -1.11343,0.510294 -0.30214,0.0868 -0.58812,0.172599 -0.63553,0.190662 -0.0844,0.03214 -0.24641,0.252296 -0.35803,0.486367 -0.0551,0.115522 -0.0549,0.116971 0.0497,0.330816 0.0121,0.02474 0.0422,0.0543 0.067,0.06568 0.0247,0.01139 0.0733,0.0369 0.10778,0.0567 0.27785,0.159381 0.31044,0.169758 0.47869,0.152394 0.0925,-0.0096 0.26282,-0.05196 0.37843,-0.09424 0.8303,-0.303675 0.69066,-0.275084 1.29676,-0.265524 0.53748,0.0085 0.54591,0.0097 0.5557,0.07855 0.005,0.03846 0.0501,0.107821 0.0991,0.154112 0.0491,0.04627 0.0819,0.103064 0.0731,0.126163 -0.009,0.02308 0.0277,0.09197 0.0814,0.153046 0.0536,0.06107 0.0975,0.132187 0.0975,0.158025 0,0.02583 0.0226,0.05564 0.0502,0.06622 0.0508,0.01951 0.1696,0.25997 0.1696,0.343398 0,0.025 0.0234,0.09801 0.0521,0.162201 0.0623,0.139496 0.0572,0.125377 0.0863,0.24227 0.0129,0.0518 0.036,0.122426 0.0513,0.156958 0.0332,0.07485 0.15372,0.413334 0.17884,0.502258 0.01,0.03452 0.0635,0.133414 0.11934,0.21974 0.0559,0.08633 0.14535,0.257755 0.19882,0.380958 0.12302,0.283452 0.30656,0.60975 0.54173,0.96307 0.1013,0.152202 0.18418,0.288902 0.18418,0.303783 0,0.01491 0.0345,0.05421 0.0767,0.08738 0.0422,0.03318 0.0862,0.101304 0.0978,0.151389 0.0203,0.08753 0.0613,0.161182 0.24387,0.438052 0.0462,0.06999 0.0839,0.139506 0.0839,0.154479 0,0.01496 0.0186,0.04953 0.0414,0.07679 0.0228,0.02728 0.0646,0.127255 0.0929,0.222209 0.0283,0.09496 0.0957,0.320976 0.14964,0.502261 0.091,0.305615 0.28982,0.822021 0.34448,0.894647 0.013,0.01729 0.07,0.144397 0.12658,0.282521 0.0566,0.138119 0.12655,0.281874 0.15537,0.31945 0.0288,0.03758 0.0778,0.136457 0.10884,0.219735 0.0311,0.08328 0.0907,0.197567 0.1327,0.253961 0.042,0.0564 0.10312,0.163226 0.13593,0.237389 0.0328,0.07416 0.0899,0.162212 0.12694,0.195668 0.0644,0.05819 0.3404,0.503209 0.38334,0.618027 0.0242,0.06461 0.0649,0.07045 0.10964,0.01568 z"
       id="path5" /></g></svg>
