<?xml version="1.0" encoding="UTF-8" standalone="no"?>
<!-- Created with Inkscape (http://www.inkscape.org/) -->

<svg
   width="62mm"
   height="88mm"
   viewBox="0 0 62 88"
   version="1.1"
   id="svg2374"
   inkscape:version="1.1 (c4e8f9e, 2021-05-24)"
   sodipodi:docname="Aloe silicicola.svg"
   xmlns:inkscape="http://www.inkscape.org/namespaces/inkscape"
   xmlns:sodipodi="http://sodipodi.sourceforge.net/DTD/sodipodi-0.dtd"
   xmlns="http://www.w3.org/2000/svg"
   xmlns:svg="http://www.w3.org/2000/svg">
  <sodipodi:namedview
     id="namedview2376"
     pagecolor="#ffffff"
     bordercolor="#666666"
     borderopacity="1.0"
     inkscape:pageshadow="2"
     inkscape:pageopacity="0.0"
     inkscape:pagecheckerboard="0"
     inkscape:document-units="mm"
     showgrid="false"
     units="mm"
     inkscape:zoom="0.77682379"
     inkscape:cx="396.48631"
     inkscape:cy="46.342556"
     inkscape:window-width="1920"
     inkscape:window-height="1052"
     inkscape:window-x="0"
     inkscape:window-y="28"
     inkscape:window-maximized="0"
     inkscape:current-layer="layer1" />
  <defs
     id="defs2371" />
  <g
     inkscape:label="Layer 1"
     inkscape:groupmode="layer"
     id="layer1">
    <g
       id="g55"
       transform="matrix(0.25766306,0,0,-0.25766306,25.312512,74.132034)">
      <path
         d="m 0,0 c -0.935,1.869 -4.03,2.407 -5.387,3.887 -1.585,1.731 -2.634,4.558 -3.807,6.587 -1.827,3.161 -3.563,6.338 -5.271,9.565 -4.181,7.901 -8.423,15.767 -12.684,23.626 -4.829,8.905 -9.46,17.927 -14.304,26.819 -2.87,5.27 -6.202,10.325 -9.358,15.426 -2.096,3.391 -4.703,6.319 -7.109,9.495 -5.297,6.992 -9.875,13.947 -16.475,19.865 -1.908,1.71 -3.743,3.291 -5.215,5.39 -0.344,0.49 -1.386,1.617 -0.951,2.279 0.423,0.643 2.008,0.507 2.605,0.307 1.913,-0.643 4.108,-2.82 5.694,-3.987 1.395,-1.028 2.678,-2.075 3.983,-3.214 7.418,-6.474 14.701,-12.96 21.275,-20.323 6.064,-6.792 10.868,-15.109 16.003,-22.588 0.277,-0.405 0.537,-0.938 0.884,-1.288 1.093,-1.104 0.879,-0.516 1.413,-2.033 0.74,-2.101 2.593,-4.527 3.915,-6.324 0.145,-0.199 0.295,-0.427 0.407,-0.647 0.048,-0.093 0.47,-0.019 0.516,-0.114 0.109,-0.229 -0.216,-0.672 -0.1,-0.897 0.42,-0.813 1.025,-1.661 1.566,-2.457 0.831,-1.222 1.59,-2.613 2.545,-3.741 0.587,-0.695 1.139,-0.904 1.487,-1.438 0.375,-0.574 0.479,-1.612 0.844,-2.287 0.778,-1.443 1.761,-2.809 2.632,-4.199 0.362,-0.576 1.087,-1.343 1.356,-1.779 0.268,-0.436 0.481,-1.307 0.808,-1.95 2.043,-4.001 5.368,-7.424 7.573,-11.4 1.085,-1.955 2.051,-3.98 3.438,-5.737 -1.304,7.542 -3.1,14.982 -4.66,22.475 -1.502,7.218 -2.344,14.541 -3.478,21.828 -2.325,14.935 -4.632,29.841 -6.085,44.891 -0.787,8.152 -2.213,16.035 -3.837,24.076 -1.322,6.542 -1.572,13.471 -2.57,20.096 -2.159,14.331 -3.207,28.672 -4.674,43.074 -1.417,13.906 -5.241,27.339 -6.969,41.167 -0.196,1.562 -0.01,2.941 0.165,4.515 2.458,-1.135 3.547,-2.649 4.926,-4.939 1.656,-2.749 3.954,-5.672 5.013,-8.716 0.774,-2.223 1.033,-4.796 1.554,-7.093 0.91,-4.013 1.831,-8.024 2.755,-12.033 2.408,-10.455 5.18,-20.87 7.328,-31.347 0.295,-1.436 0.608,-2.869 0.885,-4.309 0.097,-0.513 0.087,-1.147 0.286,-1.62 0.235,-0.558 0.766,-0.883 0.947,-1.387 0.338,-0.939 0.27,-2.736 0.52,-3.779 0.342,-1.428 0.721,-2.852 1.028,-4.288 0.647,-3.023 1.159,-6.081 1.737,-9.118 0.286,-1.505 0.427,-3.175 0.884,-4.641 0.285,-0.913 0.779,-1.671 0.922,-2.567 0.449,-2.833 0.746,-5.833 1.259,-8.723 0.451,-2.544 1.528,-4.628 1.721,-7.178 0.11,-1.431 0.02,-3.043 0.338,-4.443 0.135,-0.592 0.411,-1.353 0.709,-1.88 0.098,-0.174 1.211,-1.354 1.185,-1.27 0.213,-0.658 -0.437,-3.042 -0.349,-3.907 0.14,-1.363 0.286,-3.063 0.763,-4.336 0.381,-1.023 1.711,-2.111 1.71,-3.132 0,-0.86 -0.593,-1.396 -0.5,-2.426 0.059,-0.662 0.264,-1.332 0.399,-1.98 0.335,-1.6 0.554,-3.27 1.202,-4.782 0.685,-1.592 1.315,-1.972 1.218,-3.644 -0.176,-3.048 -0.083,-5.589 1.317,-8.433 0.27,-0.55 1.167,-1.376 1.244,-1.803 0.103,-0.575 -0.267,-1.397 -0.308,-2.015 -0.117,-1.744 0.098,-3.099 0.601,-4.75 0.39,4.296 0.161,8.379 0.292,12.667 0.066,2.19 -0.035,4.575 0.094,6.606 0.131,2.051 0.275,4.195 0.214,6.31 -0.011,0.42 -0.188,0.534 -0.162,1.029 0.019,0.337 0.274,0.679 0.336,1.016 0.224,1.201 0.081,2.591 0.117,3.81 0.03,0.977 0.039,1.793 -0.125,2.743 -0.082,0.475 -0.437,1.152 -0.406,1.639 0.025,0.395 0.521,0.714 0.587,1.118 0.325,1.977 0.208,4.72 -0.062,6.69 -0.105,0.765 -0.364,1.426 -0.352,2.166 0.015,0.94 0.456,1.916 0.528,2.876 0.665,8.793 -0.286,17.945 -0.718,26.747 -0.417,8.487 -1.459,16.983 -1.459,25.475 0,9.385 -1.051,19.686 2.404,28.569 1.084,-3.931 1.746,-7.597 2.124,-11.656 0.366,-3.932 1.637,-7.741 2.61,-11.561 1.719,-6.744 4.051,-13.352 5.533,-20.148 3.532,-16.182 7.748,-32.214 9.861,-48.665 0.214,-1.659 0.242,-3.326 0.316,-4.999 0.05,-1.117 -0.053,-2.363 0.153,-3.463 0.075,-0.397 0.504,-0.771 0.522,-1.154 0.023,-0.526 -0.409,-1.088 -0.462,-1.615 -0.186,-1.861 0.316,-4.6 0.801,-6.424 0.247,-0.931 0.697,-1.495 0.643,-2.431 -0.087,-1.5 -0.295,-1.723 0.219,-3.266 1.09,5.507 2.083,11 2.99,16.539 0.396,2.41 1.082,4.74 1.704,7.102 0.638,2.423 0.925,4.875 2.518,6.835 2.783,-2.783 0.707,-9.932 0.356,-13.394 -0.453,-4.459 -1.018,-8.905 -1.551,-13.356 -0.958,-8.008 -1.784,-16.127 -2.223,-24.182 -0.15,-2.771 -0.151,-5.589 -0.443,-8.348 -0.269,-2.539 -0.822,-4.545 -0.432,-7.082 1.225,2.638 3.354,5.706 4.121,8.5 0.48,1.746 0.218,3.509 0.976,5.198 0.651,1.452 1.27,2.471 1.689,4.019 0.403,1.485 0.954,2.973 1.065,4.506 0.06,0.837 -0.078,1.387 0.216,2.121 0.279,0.691 0.864,1.299 1.197,1.979 1.532,3.128 2.063,6.669 2.903,10.02 0.647,2.576 1.683,5.02 2.253,7.616 0.399,1.816 0.983,3.676 1.214,5.522 0.054,0.435 0.043,0.93 0.102,1.346 0.176,1.227 0.158,1.135 0.747,2.315 1.127,2.253 2.084,5.544 2.494,8.023 0.139,0.843 -0.166,1.854 0.079,2.668 0.207,0.692 0.83,1.269 1.173,1.915 0.637,1.2 0.957,2.545 1.365,3.85 0.426,1.361 1.425,3.261 1.407,4.703 -0.009,0.668 -0.854,1.711 -0.708,2.295 0.159,0.639 1.539,0.865 2.024,1.452 0.836,1.014 1.07,3.185 1.442,4.416 0.443,1.469 1.045,3.006 1.291,4.513 0.08,0.492 0.003,1.14 0.109,1.591 0.173,0.735 0.444,0.784 0.828,1.489 0.704,1.29 1.065,2.962 1.561,4.34 0.489,1.362 0.882,2.591 1.096,3.935 0.152,0.954 -0.162,0.796 0.256,1.653 0.307,0.627 0.833,1.142 1.156,1.808 0.6,1.243 1.546,2.941 1.769,4.318 0.091,0.556 -0.443,1.672 -0.172,2.146 0.227,0.395 1.074,0.54 1.39,0.953 0.805,1.049 1.142,2.981 1.609,4.201 0.758,1.981 1.517,3.962 2.276,5.943 2.203,5.753 4.669,11.429 7.115,17.083 1.07,2.472 2.199,4.952 3.458,7.333 1.404,2.657 2.695,5.762 4.365,8.26 0.659,0.988 1.69,2.169 2.643,2.875 0.445,0.33 1.562,1.027 2.119,0.943 1.036,-0.156 0.865,-0.411 0.844,-1.619 -0.057,-3.23 -1.591,-6.529 -2.53,-9.577 C 87.353,199.623 82.45,188.417 78.755,176.791 75.469,166.452 71.597,156.119 69.053,145.575 66.198,133.747 63.558,121.837 60.376,110.09 56.97,97.51 53.607,85.165 51.168,72.37 50.082,66.672 49,60.975 47.955,55.269 47.436,52.428 47.124,49.467 46.515,46.653 46.19,45.159 45.546,43.68 45.072,42.226 44.84,41.512 44.271,40.481 44.26,39.729 c -0.01,-0.635 0.538,-1.043 0.559,-1.64 0.027,-0.77 -1.127,-2.058 -1.259,-3.108 -0.217,-1.721 -0.087,-2.778 0.567,-4.333 1.99,1.369 2.063,3.172 3.19,5.26 0.814,1.509 1.774,2.887 2.557,4.479 0.392,0.796 0.907,1.616 1.206,2.452 0.124,0.347 -0.147,0.866 0,1.202 0.188,0.426 0.795,0.77 1.081,1.145 0.96,1.253 2.201,3.556 2.44,5.123 0.217,1.433 -0.326,0.905 0.541,2.246 0.523,0.809 0.952,1.564 1.376,2.459 0.424,0.897 0.505,1.614 0.825,2.502 0.324,0.904 0.882,1.555 1.418,2.397 0.54,0.85 1.252,1.885 1.523,2.851 0.464,1.646 0.228,1.24 1.385,2.538 1.042,1.169 1.717,2.929 2.481,4.296 4.247,7.591 8.841,15.001 11.496,23.31 2.547,7.973 6.182,15.657 9.384,23.389 3.187,7.695 6.201,16.033 11.035,22.866 1.907,-1.847 -0.881,-8.288 -1.421,-10.252 -0.902,-3.281 -1.9,-6.536 -2.86,-9.801 -1.704,-5.792 -3.531,-11.545 -5.29,-17.32 -0.765,-2.509 -1.529,-5.018 -2.293,-7.526 -0.381,-1.25 -1.354,-3.029 -1.013,-4.379 0.861,0.795 0.282,1.523 0.773,2.318 0.394,0.638 2.054,1.592 2.633,2.168 1.566,1.56 2.64,3.458 3.859,5.295 1.022,1.54 2.525,2.571 3.798,4 1.496,1.678 3.006,3.345 4.488,5.034 5.384,6.135 10.627,12.924 17.223,17.84 1.642,1.223 3.41,2.522 5.32,3.269 0.755,0.294 1.841,0.868 2.127,0.082 0.223,-0.613 -0.625,-1.283 -0.954,-1.704 -2.667,-3.413 -5.261,-6.876 -8.103,-10.144 -2.73,-3.138 -5.731,-6.155 -8.191,-9.51 -3.061,-4.176 -5.925,-8.516 -8.873,-12.774 C 92.645,89.053 88.239,82.314 84.146,75.266 80.572,69.111 76.792,63.257 73.989,56.711 70.171,47.795 66.605,38.717 62.518,29.921 60.659,25.921 58.539,22.027 56.563,18.083 54.702,14.372 53.135,11.195 50.274,8.129 47.7,5.37 44.95,2.119 41.916,-0.11 40.295,-1.302 38.188,-2.819 36.427,-3.775 35.108,-4.49 33.905,-4.387 32.339,-4.469 27.584,-4.718 22.444,-5.592 17.697,-5.236 15.893,-5.101 13.99,-4.439 12.228,-4.051 9.729,-3.499 6.936,-3.178 4.539,-2.264 2.99,-1.673 1.523,-0.714 0,0"
         style="fill:#231f20;fill-opacity:1;fill-rule:nonzero;stroke:none"
         id="path57" />
    </g>
  </g>
</svg>
