<?xml version="1.0" encoding="UTF-8" standalone="no"?>
<!-- Created with Inkscape (http://www.inkscape.org/) -->

<svg
   xmlns:svg="http://www.w3.org/2000/svg"
   xmlns="http://www.w3.org/2000/svg"
   version="1.1"
   width="100%"
   height="100%"
   viewBox="0 0 841.9 595.3"
   id="Calque_2"
   xml:space="preserve"><defs
   id="defs7" />
<path
   d="m 764.8,356 -1,-1.3 -1.6,-1.4 -1.8,-0.8 -1.1,-1.6 -2.1,-2.1 -3,-2.5 -5.6,-3.1 -6,-2.1 -9.4,-2 -9.1,-1.5 -2.6,-1.3 -2.5,-1.1 -6,-2.4 -8.3,-4.5 -11.4,-5.5 -9,-4 -3.8,-2.8 -5.6,-3.3 -9.5,-4.3 -0.9,-2.6 -1.1,-2.5 -5,-3.6 -11.8,-6.5 -10.9,-4.8 -9.9,-3.8 -9.1,-5.1 -8.5,-5.6 -8.5,-5.1 -7.4,-5.3 -6.5,-6 -10.3,-8.9 -7.3,-5.1 -10,-5.8 -7.8,-5.3 -11.6,-8.9 -12.3,-8.9 -16.3,-8.5 -22.1,-8.9 -9.9,-3.9 -10.3,-3.3 -10.4,-2.8 -9.5,-3.2 -8.6,-4 -11,-3.8 -8.1,-1.5 -9.9,0.3 -6.4,1.3 -0.6,-1.8 -2.6,-11.4 -1.6,-9.6 -0.8,-6.1 -0.4,-5.8 0.4,-4.8 0.4,-3.7 0.6,-4.4 0.6,-4.5 v -3.9 l -1.3,-7 -2,-5.7 -3,-6 -5.3,-7 -6.3,-5 -6,-2.7 -8.7,-1.7 H 358 l -9.7,1.3 -8.7,2.3 -8,3.7 -5.7,4 -5.7,5.3 -3,5 -3,6.3 -3.2,6.9 -4.7,5.3 -11.7,7 -11.3,6 -15.3,7 -13,5.3 -16.9,5.7 -18.5,5.3 -27.3,8 -21.3,5 -9,2.7 -5.7,2 -2.3,1.7 v 0.9 l 1.3,0.4 1.8,0.3 3.1,0.3 5.4,-0.8 12.8,-2.5 21.1,-4.1 19.1,-3.9 16.3,-3.5 16.5,-3.5 16.6,-4.3 16,-3.9 9.9,-2 10.3,-1.9 6.9,-0.5 7.5,0.1 2.9,0.9 3,1.9 2.9,2.3 2.6,2.5 0.9,2.6 -0.9,2.7 -1.1,3 -1.6,2.3 -2.8,2.1 -2.5,2 -1.9,2 -1,2.3 0.1,1.6 1.1,-2.1 1.5,-1.1 -0.9,1.9 -0.1,1.6 -0.6,2.6 -2.8,4.9 -2.8,6.1 -3.3,8.5 -1.3,11.5 0.4,11.6 1.8,9.9 3.8,10.4 5.4,7 7.8,11.4 5.4,9.4 6.4,7.8 5.8,7 5.9,5.4 5.3,6.3 8,10.4 8.6,9.9 8.9,7.1 5.9,4.6 11.6,7.1 8.5,3.4 12.6,3.3 9,2.3 7.5,1.9 6.5,3.4 3.9,4.5 3.4,6 4,5.9 4.6,6 2.5,9.8 3.1,11.4 1.5,12.9 v 6.3 l -1.6,4.6 -1.4,2.8 -0.1,3.1 0.8,2.4 v 2.3 l 1.3,4.1 -0.4,6.5 -0.9,13.4 -0.9,12.3 -1.3,13.1 -1.5,10.1 -2.3,12.9 -2.3,10 -2.9,8.1 -2.6,4.9 -3.9,2.8 -8.1,2.4 -10.9,2.6 -9.8,0.9 -15.3,0.1 -9.5,-0.3 -5.5,-0.5 -3.9,0.3 -2.6,1.4 -2.1,0.8 -2,1.3 -0.5,1.4 3.3,-0.5 1.8,0.9 6.5,0.8 23.6,-0.5 14.9,0.6 20.6,0.8 h 7.1 l 6,-1.6 2.5,-2 1.5,-2.5 1.1,-3.9 1,-1.4 h 1.8 l 3,2.6 3.5,3.3 3.4,1.9 2,-0.8 0.4,-2 v -1.6 l -1.1,-1.4 -3.9,-3.1 -5,-4.3 -2.3,-2.6 -0.4,-1.8 0.3,-9.1 4.8,-10.5 c 0,0 -1.4,1.1 -1.6,5 -0.1,0.9 0.1,3.8 0.1,3.8 0,0 0.4,1.5 0.9,1.9 0.5,0.4 1,0.6 1.6,0.6 0.7,-0.1 2.1,-1.7 2.6,-2.2 1,-1 2.4,-4.1 2.4,-4.1 l -0.1,3.1 0.6,2.4 c 0,0 0.6,0.4 0.9,0.3 1,-0.3 1.6,-3.4 1.6,-3.4 l 1.9,-11.8 v 4.3 c 0,0 -0.1,2.4 0.1,3.1 0.1,0.4 0.3,1.3 0.5,1.7 0.2,0.4 1,1.1 1.4,1.2 0.6,0.1 1.7,-0.6 2.1,-1 1.7,-2 4.9,-9.3 4.9,-9.3 l 2.9,-8 2,-8.5 0.9,-7.6 1.1,-11.5 1,-1.4 1,0.4 2.6,4.3 3.6,4.4 4.6,4.9 2.4,1.5 0.8,-1 0.1,-1.6 -0.6,-2 -1.8,-2.4 -3.5,-5.1 -2,-3.8 -1.4,-3.5 V 452 l 1.6,-4.3 3.1,-3.9 8.9,-9.1 10.5,-10.4 15.3,-14.5 17.1,-15.8 3.8,-3.6 3,-4.3 3.5,-5.6 1.4,-2.6 0.5,-3 0.1,-3.1 -0.1,-1.6 -1.6,-2.5 -4,-3.3 -9.1,-7.6 8.6,2.1 27.9,3 23.8,0.6 25.8,-0.3 h 8.1 l 16.1,-1.1 10.1,0.6 10.4,0.4 8.9,0.1 3.5,1.8 11.5,3.8 8.6,1 h 5 l 4,-0.9 0.9,-1.4 v -1.3 l -1.3,-1.1 6,-0.6 0.9,-1 V 361 l -2.3,-1.5 22.8,0.9 h 3 l 1.5,-0.6 V 358 l -0.9,-2 z m -206.9,21.1 -0.8,3.4 -2.5,4.5 -3.4,3.9 -12.9,13.4 -10.9,10.9 -12.6,13.3 -10.9,10.5 -12.9,9.3 -2.5,1.6 -1.9,2.4 -1.5,2.9 -1.8,4.5 -1.6,5.9 -2.3,6.8 -2.9,6.5 -1.9,3.4 0.8,-8.5 1.4,-13.3 2,-12 2.1,-7.5 1.6,-3.9 0.4,-3.5 1,-2.6 0.4,-4.9 -0.3,-4.4 -1.8,-5.6 -3.4,-8.9 -2.4,-7.5 -2,-7.6 -1.5,-5.3 -0.4,-3.9 0.3,-4.9 0.1,-4 -0.3,-4.4 0.8,-2.1 1.1,-3.9 1.7,-3.8 7.4,1.3 h 7.4 l 11.3,-1.1 5.9,-1.1 5.5,-1 h 10.3 8.1 4.6 l 6.8,1 5.9,4.3 5,5 2.8,4 0.6,3.4 v 3.5 z"
   id="path3" />
</svg>