<?xml version="1.0" encoding="utf-8"?>
<!-- Generator: Adobe Illustrator 27.4.1, SVG Export Plug-In . SVG Version: 6.00 Build 0)  -->
<svg version="1.1" baseProfile="tiny" id="Layer_1" xmlns="http://www.w3.org/2000/svg" xmlns:xlink="http://www.w3.org/1999/xlink"
	 x="0px" y="0px" viewBox="0 0 2000 4439" overflow="visible" xml:space="preserve">
<g id="loytDB_00000042721999595632991710000000556163590125886903_">
	<g>
		<path fill="#FFFFFF" d="M0,4431C0,2954,0,1477,0,0c551.5,0,1102.8,0,1654,0c-0.2,3.6,0.2,7.5-0.8,10.9
			c-3.1,10.5-5.2,21.3-7.7,31.9c-3.2,13.6-6.4,27.1-9.6,40.7c-0.1,0.3,0,0.7-0.1,1c-2.7,13.3-5.5,26.7-8.2,40
			c-0.1,0.6-0.5,1.3-0.6,1.9c-1.1,4.8-2.3,9.7-3.4,14.5c-0.6,2.9-0.8,6-1.8,8.8c-4.6,12.6-3.8,26.4-9.1,38.8c-0.4,0.9-0.3,2-0.4,3
			c-2.5,12.7-5,25.4-7.5,38.1c-0.4,1.9-1.2,3.8-2,5.6c-5.3,12.2-10.5,24.4-15.9,36.6c-4,9.1-8.2,18.2-12.4,27.2
			c-5,10.8-10.2,21.6-15.1,32.5c-6.9,15.1-13.4,30.4-20.4,45.5c-4.5,9.7-8,19.7-10.5,30c-0.5,1.9-1.1,3.8-1.7,5.7
			c-2.9,8.8-6,17.6-8.7,26.5c-4.9,15.9-9.5,31.9-14.3,47.8c-0.5,1.6-1.2,3.1-1.9,4.6c-5.5,10.6-10.9,21.3-16.6,31.8
			c-1.8,3.4-4.2,6.6-6.8,10.6c-1.1-1.9-2.1-2.9-2.2-4c-0.2-2.6-0.4-5.4,0.3-7.9c3.1-12.2,5.1-24.7,7.7-37.1c1.4-6.8,3-13.6,3.8-20.6
			c0.5-4.2,1.5-8.5,2.7-12.6c2.1-6.8,2.6-13.7,2.3-20.7c0-1.1-1-2.2-2-4.1c-1.2,2-2.3,3-2.4,4.1c-0.8,6.7-3.4,12.8-5.1,19.2
			c-2.5,9.6-5,19.2-7.6,28.8c-3.1,11.5-5.3,23.3-7.9,35c-0.4,1.9-1.3,3.8-2.4,5.4c-0.8,1.2-2.3,2-4,3.4c-1.2-2.1-2.2-3.4-2.7-4.9
			c-0.8-2.5-1.3-5.2-2.1-7.7c-0.5-1.6-1.3-3.1-4.1-2.4c-0.6,1.9-1.5,4-1.8,6.2c-1.8,13.9-3.4,27.7-5.2,41.6
			c-0.5,3.6-0.9,7.4-2.6,10.5c-7.9,14.3-16.2,28.3-24.3,42.4c-10.9,19-21.8,38.1-32.6,57.1c-0.5,0.9-1,1.7-1.6,2.5
			c-0.7,0.9-3.1,0.7-3.4-0.5c-0.4-1.6-1-3.2-0.8-4.8c1-12.3,1.8-24.6,3.5-36.8c1-6.9,3.6-13.5,5.6-20.2c2.9-9.2,5.9-18.3,8.9-27.5
			c1.8-5.3,4-10.6,5.3-16c3.7-15.2,9.6-29.6,16.6-43.6c2.7-5.3,5.1-10.8,7.5-16.2c4.5-10.3,8.4-20.9,13.6-30.9
			c5.7-10.9,10.3-22.2,14.9-33.5c0.9-2.1,1.4-4.6,2.9-6.3c3.4-4.2,4-9,4.4-14c2.7-0.9,4.4-2.8,5.2-5.5c0.7-2.2,1-4.7,2.4-6.4
			c3.2-4.2,3.9-9,4.6-13.9c2.8-1.2,4.3-3.4,4.9-6.4c0.3-1.8,0.9-3.6,1.3-5.5c2.4-1.8,4.4-3.8,4.1-7.1c-0.1-1.2,0.1-2.7-2.5-2.5
			c-1.7,3-1.5,6.4-1.4,9.9c-3.4,0.5-5.3,2.5-5.7,5.9c-0.2,2-0.3,4-0.4,5.9c-2.7,0.9-4.5,2.7-5.4,5.4c-0.9,2.5-1.6,5.2-3.1,7.2
			c-2.9,4-3.7,8.4-3.6,13.2c-1.4,0.8-3.8,1.2-4.2,2.3c-2.1,5.9-6.4,9.9-10.5,14.2c-1.3,1.4-2.4,3.3-2.9,5.2
			c-3.2,10.8-6.9,21.4-12.2,31.5c-2.1,4.1-4.1,8.3-6.1,12.5c-2.9,6-5.6,12-8.5,18c-4.9,9.8-10,19.5-14.8,29.3
			c-2.3,4.8-4.3,9.7-6.2,14.6c-3,7.7-5.5,15.6-8.6,23.4c-5,12.7-10.2,25.3-15.2,37.9c-6.6,16.7-13,33.5-19.8,50.1
			c-4.8,11.7-10.4,23-15.2,34.7c-6.9,16.9-13.3,34-20.3,50.8c-1.9,4.6-4.5,8.9-5.5,13.8c-0.1,0.6-0.7,1.1-1.1,1.6
			c-0.6,0.9-3.1,0.7-3.4-0.4c-0.5-1.6-1.1-3.2-1.1-4.8c0.3-13.3,0.6-26.6,1.2-40c0.1-3.3,1.4-6.5,2.1-9.7c1.2-5.5,2.4-11,3.5-16.6
			c1.1-5.9,1.5-12,3.2-17.6c2.6-8.6,3.6-17.6,7.8-25.7c0.9-1.7,0.8-3.9,1.3-5.8c0.7-2.6,1.5-5.1,2.3-7.6c1-3.2,2-6.3,3-9.5
			c1-3.2,2-6.3,3-9.5c1-3.2,2.2-6.3,2.9-9.5c0.8-3.9,1.5-7.8,3.6-11.4c1.1-1.9,1.6-4.4,2-6.6c0.7-4,1.5-7.7,3.5-11.3
			c2.3-4.1,2.7-8.5,1-14c-1.2,1.5-2.1,2.2-2.2,3c-0.7,5.3-1.9,10.5-5.1,15c-0.9,1.3-1.3,3.1-1.6,4.7c-1.6,8.5-7.2,15.7-8.1,24.5
			c-0.1,0.6-0.5,1.3-0.9,1.8c-2.5,3.3-3.2,7.2-4.1,11.2c-0.4,1.9-0.8,4-1.8,5.7c-4.1,6.9-5.3,14.9-8.7,22.2
			c-4.6,9.8-8.5,20.3-8,31.6c0,1-0.1,2-0.4,3c-3.8,10.5-3.9,21.6-5,32.5c-0.3,3.3-0.7,6.7-1.4,9.9c-2.7,11.1-3.3,22.4-4.4,33.7
			c-1.3,13.3-3.2,26.4-5.1,39.6c-0.5,3.2-1.7,6.4-2.9,9.5c-4.8,12.4-9.8,24.7-14.7,37.1c-2.1,5.2-4.6,10.4-5.9,15.9
			c-1.4,5.6-4.1,10.5-6.7,15.5c-0.5,1-1.7,1.6-2.6,2.4c-2.9-2.9-2.2-6-2.2-8.9c0-7.7,0.4-15.3,0.3-23c-0.1-19.3,0.7-38.6,2.7-57.9
			c1.2-11.3,1.8-22.6,2.3-33.9c0.8-16.6,1.6-33.2,5.1-49.6c3.3-15.6,5.3-31.5,7.9-47.2c0.2-1,0.4-2,0.7-2.9
			c2.7-7.6,3.7-15.5,4.7-23.5c0.4-3.6,1.3-7.2,2-10.8c2.8-13.7,5.7-27.4,8.5-41c0.1-0.7,0.2-1.3,0.3-2c2.7-15.1,5.4-30.2,8.2-45.2
			c3-16,6.8-31.9,9.2-48c3.6-24,7-48.1,7.6-72.5c0.2-7.3,1.3-14.6,2-21.9c1.1-11.3,2.2-22.5,3.2-33.8c0.8-8.9,1.2-18,2.5-26.8
			c2.8-18.2,3-36.5,2.1-54.8c-0.1-1,0.4-2.9-2.1-2.6c-0.4,1.1-1,2.4-1.1,3.6c-1.4,13.9-1.6,28-6.2,41.4c-0.7,19.4-3.9,38.4-6.9,57.5
			c-0.1,0.7-0.1,1.3-0.2,2c-0.7,11.3-1.6,22.6-4.5,33.6c-0.8,2.9-0.8,5.9-1.1,8.9c-2.6,20.8-5.2,41.6-7.9,62.4
			c-0.3,2-0.8,3.9-1.2,5.9c-3,16-6,32.1-9,48.1c-1.5,8.2-3,16.4-4.4,24.6c-2.4,14.1-4.3,28.3-7.2,42.3c-1.8,8.8-3.3,17.7-4.8,26.5
			c-2.5,14.1-4.5,28.3-7.5,42.3c-1.3,6.2-2.5,12.4-3.8,18.6c-0.9,4.6-1.9,9.1-2.8,13.7c-0.6,3.3-0.7,6.7-1.8,9.8
			c-3.5,9.6-4,19.5-4.2,29.5c-0.1,5-0.5,10-0.7,15c-1.5,27.3-3.1,54.6-4.4,81.8c-1.5,30.6-2.4,61.3-4.1,91.9
			c-0.4,6.5-2.6,13-4.3,19.4c-0.7,2.5-2.3,4.8-3.3,7.3c-3.5,9-6.9,17.9-10.4,26.9c-2.6,6.8-5.4,13.6-8,20.4
			c-2.7,7.1-5.1,14.4-8,21.5c-4.4,10.4-8.7,20.8-10.9,32c-0.3,1.6-1.1,3.1-1.6,4.7c-1.2,3.8-2.4,7.6-3.6,11.4
			c-1,3.2-1.9,6.4-2.9,9.5c-1,3.2-1.9,6.4-2.9,9.5c-1.1,3.5-2.1,7-3.2,10.5c-0.8,2.5-1.7,5-2.5,7.6c-2.7,9.6-5.3,19.2-8.2,28.8
			c-3.4,11.5-7,22.9-10.4,34.4c-2.7,8.9-5.4,17.8-7.9,26.8c-3.1,10.9-6.1,21.8-9,32.7c-2.8,10.6-5.2,21.3-7.9,32
			c-3.5,13.9-7.2,27.7-10.8,41.5c-2.7,10.3-5.2,20.7-7.9,31c-2.9,10.9-6,21.8-8.8,32.8c-2.9,11.3-5.4,22.6-8.3,33.9
			c-3.5,13.9-7.2,27.7-10.7,41.5c-2.5,9.7-4.9,19.4-7.5,29c-3,10.9-6.1,21.8-9.2,32.7c-2,7-4.1,14.1-5.9,21.1
			c-2.7,10.3-5.1,20.7-7.8,31c-0.5,1.9-1.5,3.7-2.1,5.6c-0.8,2.5-1.5,5.1-2.2,7.7c-2.7,10.3-5.2,20.6-8,30.9
			c-3.5,13.2-7.2,26.3-10.8,39.5c-2.4,8.7-4.7,17.3-7.1,26c-2.1,7.7-4.3,15.4-6.5,23c-3.1,10.9-6.3,21.7-9.2,32.6
			c-2.9,10.6-5.4,21.3-8.2,31.9c-1.5,5.8-3.2,11.5-4.9,17.3c-0.6,1.9-1.1,3.8-1.9,5.7c-1,2.4-2.9,3.6-5.5,3.5
			c-1.7-0.1-3.3-0.8-4.9-0.7c-7,0.5-12.5,3.9-9.7,12.2c0.8,2.5,1.9,5,2.7,7.5c2.2,7,4.5,14.1,3.4,21.5c-1.4,9.2-3.1,18.4-4.7,27.5
			c-0.7,3.9-1.4,7.9-2,11.8c-0.7,4.3-0.7,8.7-1.9,12.8c-4.3,15.1-3.9,31.1-8.8,46.1c-0.5,1.6-0.4,3.3-0.7,4.9
			c-2.6,14.8-5.1,29.5-7.7,44.3c-0.2,1.2-0.5,2.7-3.1,2.3c-0.3-1.2-1-2.7-1.1-4.2c-0.3-5.7-0.5-11.3-0.5-17c0-13.7,0.2-27.3,0.2-41
			c0-4.3,0.3-8.8-2.3-12.6c-3.6-5.2-3-10.5-1.7-16.3c3.8-17.2,7.3-34.5,10.9-51.8c2.3-11.1,4.5-22.2,6.8-33.3c0.3-1.6,1-3.2,1.4-4.8
			c1-4.5,2-9.1,2.9-13.7c2.6-13.1,5.1-26.1,7.7-39.2c0.1-0.6,0.5-1.3,0.6-1.9c1.3-5.5,2.6-11,3.8-16.5c0.9-3.9,1.5-7.8,2.4-11.7
			c3-13.7,6.2-27.3,9-41c2.8-13.4,5.2-26.8,7.8-40.2c0.2-1,0.5-1.9,0.7-2.9c1.5-6.8,3-13.6,4.5-20.5c0.6-2.9,1.2-5.9,1.8-8.8
			c1.2-5.9,2.5-11.7,3.6-17.6c0.5-2.6,0.5-5.4,1.5-7.8c2.9-7.6,3.9-15.5,5-23.4c0.4-2.6,1.1-5.2,1.7-7.8c1.2-5.5,2.4-11,3.6-16.6
			c0.5-2.6,0.5-5.4,1.5-7.8c3-7.9,3.6-16.2,5.4-24.3c2.5-11.4,5.3-22.7,6.6-34.3c0.1-1.3,0.7-2.6,0.9-3.9c1-5.6,2-11.1,2.9-16.7
			c1.2-7.6,2.3-15.1,3.5-22.7c0.8-5.2,2.1-10.4,2.6-15.7c0.6-6.7,1.7-13.1,3.4-19.6c1.3-5.1,1.4-10.5,1.8-15.8c0.1-1-1-2.2-1.8-3.8
			c-5.7,5.7-8,12-8.8,19.1c-0.7,6.6-0.9,13.4-2.7,19.8c-4.2,14.4-3.4,29.8-8.9,44c-0.6,1.5-0.5,3.3-0.8,4.9
			c-2.6,13.1-5.1,26.1-7.7,39.1c-0.1,0.6-0.4,1.3-0.6,1.9c-1.4,6.2-2.8,12.3-4.1,18.5c-0.7,3.3-1.1,6.6-1.9,9.8
			c-3,12.9-6.1,25.9-9.1,38.8c-0.2,0.6-0.2,1.3-0.3,2c-1.4,6.5-2.9,13-4.3,19.5c-0.7,3.3-1.3,6.5-2,9.8c-1,4.6-2,9.1-3,13.6
			c-2.9,13.3-5.9,26.6-8.8,40c-2.7,12.7-5.1,25.4-7.7,38.2c-0.2,1-0.6,1.9-0.9,2.9c-1.2,5.2-2.4,10.4-3.6,15.5
			c-0.6,2.9-1,5.9-1.7,8.8c-2.9,12.6-6.1,25.2-8.8,37.9c-2.9,13.7-5.5,27.4-8.3,41.1c-0.3,1.3-0.6,2.6-0.9,3.9
			c-3.3,15-6.7,29.9-9.8,44.9c-2.8,13.3-5.4,26.7-8.1,40.1c-1.5,7.2-2.9,14.3-4.5,21.5c-0.6,2.9-1.5,5.8-2.2,8.7
			c-0.7,2.6-1.4,5.1-2,7.7c-4.2,20.9-6.3,42.1-11.6,62.8c-0.3,1.3-0.4,2.6-0.6,4c-2.5,17.8-5,35.6-7.5,53.4
			c-0.4,2.6-1.2,5.2-1.7,7.8c-1,5.2-2.1,10.4-2.7,15.7c-0.7,5.7-1.5,11.2-4.2,16.3c-1.1,2-1.6,4.4-2.3,6.6
			c-2.8,8.1-5.6,16.3-8.6,24.4c-2.6,7.2-5.6,14.2-8.2,21.3c-0.7,1.8-0.9,3.9-1.2,5.9c-2.3,13.1-4.6,26.2-7,39.3
			c-0.2,1.3-0.7,2.6-0.9,3.9c-3.2,17-6.4,34-9.6,51c-0.1,0.3-0.1,0.7-0.1,1c-0.9,4.6-1.9,9.1-2.9,13.7c-1,4.6-2,9.1-3.1,13.6
			c-1.1,4.9-2.3,9.7-3.4,14.6c-0.8,3.2-1.5,6.5-2.3,9.7c-1.1,4.9-2,9.8-3.3,14.6c-3,11.6-5.2,23.4-7.8,35
			c-3.7,16.2-5.3,32.8-7.9,49.3c-0.2,1.3-0.4,2.6-0.6,3.9c-1.6,9.5-3.2,19-4.7,28.6c-2.4,15.8-4.7,31.6-7.1,47.4
			c-0.2,1.3-0.6,2.6-0.8,3.9c-1.3,7.5-2.5,15.1-3.7,22.7c-1.1,6.6-2,13.2-3.1,19.7c-0.7,4.3-1.8,8.5-2,12.8
			c-1.1,21.6-2.9,43.2-5.6,64.7c-0.3,2.3-0.3,4.7-0.4,7c-0.7,12.3-1.2,24.6-2.1,36.9c-1.2,14.9-2.8,29.8-4.1,44.8
			c-0.7,8.6-0.9,17.3-1.6,25.9c-1.2,14.5-6,27.9-13.3,40.4c-4.4,7.4-9.5,14.5-13.8,22c-3.3,5.7-7.2,11.1-9,17.7
			c-1.8,6.7-4.4,13.2-6.7,19.8c-2.8,8.2-5.8,16.3-8.6,24.5c-3.1,9.1-5.5,18.5-9,27.5c-2.5,6.4-3.6,12.7-3.7,19.5
			c-0.3,28.3-0.8,56.6-1.1,85c-0.1,9-0.5,17.9-3,26.7c-1,3.5-1.1,7.2-1.6,10.9c-0.7,5-1.4,9.9-1.8,14.9c-0.7,7.5-4.3,13.3-10.4,17.4
			c-3.2,2.2-5.3,4.8-6.9,8.3c-2.8,6-5.9,11.9-9.1,17.7c-4.7,8.8-9.6,17.5-14.5,26.2c-5.8,10.1-11.4,20.3-17.6,30.1
			c-5.4,8.4-11.5,16.3-17.3,24.4c-17.2,24.1-34.5,48.1-51.5,72.4c-15.1,21.5-30.3,42.9-44.3,65.2c-12.6,20-25.8,39.5-38.7,59.3
			c-8.4,12.8-17.1,25.4-24.8,38.5c-12.4,21.2-24,42.9-36,64.4c-9.2,16.6-18.4,33.1-27.5,49.7c-6.9,12.5-13.7,25.1-20.7,37.5
			c-5.9,10.4-11.8,20.8-17.9,31.1c-4.4,7.5-9.3,14.6-13.4,22.2c-13.1,23.9-26.1,47.9-39,71.9c-9.3,17.3-18.3,34.7-27.5,52
			c-4.7,8.8-9.5,17.6-13.9,26.5c-5,10.1-9.6,20.5-14.5,30.7c-7.5,15.6-15,31.2-22.5,46.7c-5.1,10.5-10.3,20.9-15.2,31.4
			c-5.2,11.1-10.3,22.4-15.3,33.6c-2.8,6.4-5.4,12.9-7.9,19.4c-4.7,11.7-9.3,23.5-13.9,35.3c-5.1,13-10.1,26-15.3,39
			c-2.2,5.5-4.4,11.2-7.3,16.3c-7.4,12.7-13.9,25.8-19.8,39.2c-5,11.2-10.2,22.4-15.2,33.6c-4.5,10-8.9,20.1-13.3,30.2
			c-7.3,16.8-14.6,33.6-21.8,50.4c-5.1,11.9-10.1,23.9-15,35.9c-4.7,11.7-9.2,23.5-13.8,35.3c-4.8,12.4-9.7,24.7-14.5,37.1
			c-5.1,13-9.8,26.2-15.2,39.1c-6,14.5-10.6,29.4-15.1,44.4c-2.6,8.6-4.9,17.3-7.6,25.9c-5.5,17.8-11,35.6-16.7,53.4
			c-3.5,11.1-7.2,22.2-10.7,33.3C3.5,4428.3,2.7,4430.4,0,4431z M1354.8,542.7c-3.2,4-3.3,4.2-0.2,8.6
			C1355.7,548.2,1356.4,545.6,1354.8,542.7z M1491.1,358.3c-2.8,3.1-2.8,3.1-0.3,5.5c0.4-0.9,0.9-1.8,1-2.7
			C1491.8,360.3,1491.3,359.4,1491.1,358.3z M1497.5,348c-0.5-0.5-0.9-0.9-1.3-1.2c-0.1-0.1-0.7,0.2-0.7,0.4
			c-0.3,0.9-0.6,1.8-0.6,2.7c0,0.4,0.7,0.8,1.1,1.1c0.1,0.1,0.7-0.2,0.7-0.4C1497,349.7,1497.2,348.8,1497.5,348z M1503.1,335.4
			c-0.1-0.3-0.1-0.6-0.2-0.8c-0.5,0.2-0.9,0.3-1.4,0.6c-0.1,0,0.1,0.5,0.2,0.8C1502.2,335.7,1502.7,335.5,1503.1,335.4z"/>
		<path fill="#FFFFFF" d="M2000,615.9c0,1274.2,0,2548.3,0,3823.1c-651.3,0-1302.7,0-1954,0c3.7-12.1,7.2-24.2,11-36.3
			c3.1-9.8,6.3-19.6,9.8-29.3c4.4-12.2,9.1-24.3,13.6-36.5c5-13.7,9.9-27.5,15-41.3c5.1-13.7,10.3-27.4,15.5-41.1
			c4.8-12.8,9.6-25.5,14.4-38.3c5.2-13.7,10.4-27.4,15.6-41.1c4.4-11.5,8.7-23.1,13.6-34.4c6.9-15.9,14.2-31.5,21.5-47.2
			c7.4-16,14.9-32,22.6-47.9c3.7-7.8,8.3-15.2,11.7-23.2c7-16.2,13.8-32.5,18.6-49.5c2.2-7.7,5-15.2,8.3-22.4
			c8.7-19.4,17.9-38.6,26.9-57.9c11.9-25.6,23.8-51.3,35.7-76.9c10.8-23.2,21.4-46.5,32.2-69.8c9.3-19.9,19.7-39.2,30.2-58.5
			c2.4-4.4,4.5-9.1,7.8-12.7c5.8-6.3,9.1-13.9,13.1-21.1c9.4-17.2,18.5-34.6,27.7-51.9c6.5-12.3,13.7-24.4,19.3-37.1
			c5.1-11.6,11.2-22.6,17-33.8c6.7-13,13.3-26,20.3-38.9c6.6-12.3,13.2-24.6,20.4-36.5c12.9-21.3,26.4-42.3,39.6-63.4
			c8.3-13.2,16.6-26.5,25-39.7c11.1-17.4,22.3-34.7,33.4-52c11-17.1,21.6-34.3,33-51.1c10.1-14.9,21-29.1,31.4-43.7
			c21.6-30.3,44-60.2,67.3-89.2c5.6-7,11.6-13.7,19.1-18.8c8.8-6,17.3-12.4,26-18.5c5.1-3.6,8.1-7.9,6.2-14.4
			c-1.8-6.2,0.7-10.8,4.8-15.3c5.8-6.4,11.3-13.1,16.6-20c12.7-16.2,25.3-32.6,37.8-49c3.4-4.5,6.8-9,9-14.3
			c3-7.4,6.6-14.5,9.8-21.8c2.4-5.5,4.9-10.9,8.9-15.5c9.1-10.6,18.1-21.3,27.3-31.8c3.3-3.7,6.7-7.2,11.8-8.8
			c5.4-1.7,10.5-4.2,15.7-6.4c16.5-7,33-14.3,49.7-20.9c6-2.4,11.2-5.9,16.3-9.5c4.1-2.9,7.9-6.1,11.9-9
			c8.2-5.8,15.6-12.4,22.1-20.1c11.5-13.4,23.3-26.5,34.9-39.8c7.9-9,15.6-18.1,22.2-28.2c6.5-10,13.4-19.9,20.8-29.3
			c13.2-16.7,26.9-33,40.6-49.3c16.4-19.7,32.9-39.2,46.2-61.3c7.7-12.7,15.6-25.6,27-35.6c1.7-1.5,3.1-3.5,4.5-5.4
			c0.3-0.4,0.2-1.2,0.3-2.2c-1.6-1.3-3.3-2.7-4.8-3.9c-0.6-3.7,1.3-6.2,2.9-8.7c1.2-2,2.6-3.8,3.8-5.8
			c13.2-21.9,26.6-43.7,39.5-65.8c7.7-13.2,16.6-25.7,22.4-39.9c2.5-6.1,6-11.9,10.3-17c2.8-3.3,5.5-6.7,8.2-10.1
			c8.3-10.4,17-20.5,24.5-31.5c7.3-10.7,13.3-22.2,19.8-33.5c2.8-4.9,5.5-9.9,8.1-14.9c0.9-1.7,1.7-3.7-0.5-6
			c-1.6,0.3-3.5,0.5-5.3,1.2c-4.9,2.2-9.6,4.6-14.4,6.8c-2.9,1.3-5.7,1.8-8.2-1.5c1.4-4.4,2.6-8.8,4.2-13.1c5-13,10.2-26,15.3-39
			c2.2-5.6,4.3-11.2,6.4-16.8c4.6-12.5,9-25,13.7-37.5c4.8-12.7,10.1-25.3,15-38c5-13,9.7-26.2,14.5-39.3c2.3-6.2,4.8-12.4,7.1-18.6
			c3-8.1,6-16.2,8.9-24.3c3-8.4,5.9-16.9,8.9-25.4c2.7-7.5,5.7-14.9,8.4-22.4c4.9-13.8,9.4-27.7,14.4-41.4
			c4.1-11.2,8.7-22.3,11.1-34.1c0.3-1.6,1-3.2,1.5-4.8c2.8-8.9,5.8-17.7,8.5-26.6c3.5-11.4,6.9-22.9,10.4-34.4
			c2.6-8.6,5.3-17.2,7.8-25.8c2.8-9.6,5-19.3,8.1-28.8c4.1-12.6,8.4-25.2,11-38.3c0.4-1.9,1.3-3.8,1.8-5.7c1.1-3.8,2.2-7.7,3.2-11.5
			c0.9-3.2,1.7-6.4,2.5-9.7c3.1-11.6,6.1-23.1,9.5-34.6c2.5-8.6,5.2-17.2,8.5-25.5c2.7-6.8,6.3-13.1,9.6-19.7
			c4.5-9.2,9-18.5,13.6-27.7c5.1-10.1,10.4-20.1,15.4-30.2c4.9-9.8,9.4-19.8,14.3-29.6c5.4-11,10.9-22,16.4-33
			c4.9-9.8,9.9-19.6,14.8-29.4c4.6-9.2,9.2-18.4,13.7-27.7c5-10.1,9.8-20.3,14.8-30.4c7.2-14.6,14.5-29.2,21.7-43.8
			c4.5-9.2,9-18.5,13.6-27.7c5.2-10.4,10.6-20.7,15.8-31.1c5.2-10.4,10.4-20.8,15.5-31.3c4.6-9.5,9.3-19.1,13.7-28.7
			c3-6.6,5.6-13.5,8.4-20.2c4.7-11,9.5-21.9,14-32.9c0.7-1.6,1.4-3.9-1.7-5.3c-1.3,2.5-2.3,5.3-4,7.6c-6.6,9.2-11,19.6-16.4,29.5
			c-5.1,9.3-9.3,19-14.2,28.5c-5,9.8-10.4,19.3-15.3,29.1c-6.8,13.7-13.1,27.6-19.9,41.2c-6.9,14-14.4,27.7-21.3,41.6
			c-8.8,17.8-17.3,35.9-26.1,53.7c-6.9,14-14.4,27.7-21.3,41.7c-10.8,21.7-21.2,43.5-31.9,65.2c-9.7,19.6-19.7,39.1-29.7,58.6
			c-0.3,0.6-1.5,0.8-2.4,1.3c-1.9-3.6-1.3-6.8,0-9.9c4.7-11.8,6.1-24.5,9.5-36.7c3.4-11.8,5.6-23.9,8.4-35.9
			c1.4-6.2,3-12.3,4.6-18.4c0.8-2.9,1.7-5.8,2.9-8.5c4.6-10.3,9.4-20.6,14-30.9c4.7-10.6,9.2-21.3,14.1-31.9
			c4.9-10.6,10.2-20.9,15.1-31.5c4.8-10.6,9.3-21.3,14-31.9c2.3-5.2,4.6-10.3,7-15.4c3.1-6.6,6.3-13.1,9.4-19.8
			c4.8-10.6,9.4-21.3,14.3-31.8c4.9-10.6,10-21,14.8-31.6c5-10.9,9.6-21.9,14.5-32.8c9.5-20.9,19-41.7,28.6-62.6
			c2.3-5.1,4.4-10.4,7.2-15.3c6.3-10.9,13-21.6,19.5-32.5c8.5-14.3,17.1-28.4,25.4-42.8c9-15.5,17.5-31.3,26.4-46.9
			c8.9-15.6,18.1-30.9,26.9-46.5c8.8-15.6,17-31.6,26.3-46.9c5.6-9.1,9.6-18.9,14.3-28.4c2.4-4.7,4.1-9.8,5.9-14.8
			c0.7-1.8,1-3.9,1-5.9c0-1.1-0.7-2.2-1.4-4.2c-1.6,1.7-2.6,2.4-3.2,3.5c-1.7,2.8-3.3,5.7-4.8,8.7c-2.7,5-5.3,9.9-7.9,14.9
			c-4.7,9.1-9.1,18.4-14.2,27.3c-12.7,21.8-25.7,43.4-38.5,65.1c-9.3,15.7-18.3,31.6-27.5,47.4c-9,15.5-18.2,30.9-27.3,46.4
			c-11,18.6-21.2,37.6-34,55.1c-4.3,5.9-8.6,12-11.6,18.6c-7,15.4-13.2,31.2-19.8,46.8c-2.4,5.8-4.9,11.6-7.4,17.4
			c-5.4,12.5-10.9,25-16.3,37.5c-4.6,10.7-9.2,21.4-13.8,32.1c-4.8,10.9-9.8,21.8-14.4,32.8c-6.3,15-12.3,30.1-19.7,44.5
			c-0.6,1.1-1.1,2.5-3.1,1.5c-1-3.8-0.2-7.7,0.5-11.6c1.2-6.2,2.4-12.4,3.3-18.7c0.6-4,1.7-7.8,4.2-11.1c7.1-9.6,10.1-20.9,13.4-32
			c2.9-10.2,5.1-20.7,7.7-31c0.6-2.6,1.7-5,2.4-7.6c0.9-2.9,1.7-5.7,2.4-8.6c2.6-12,5.1-24.1,7.7-36.1c0.3-1.6,0.9-3.2,1.3-4.8
			c1.1-4.5,2.1-9.1,3.1-13.6c3-13.7,5.9-27.3,8.9-41c1-4.5,2-9.1,3-13.6c1.1-5.2,2.2-10.4,3.4-15.6c0.7-2.9,1.5-5.8,2.1-8.7
			c2.7-13,5.2-26.1,7.9-39.1c1.7-8.5,3.6-16.9,5.4-25.4c0.3-1.6,0.8-3.2,1.3-4.8c1.3-5.2,2.3-10.4,4.1-15.4
			c2.2-6.6,4.1-13.6,7.7-19.4c13.5-21.8,27.6-43.1,41.5-64.6c19.2-29.6,38.4-59.1,57.6-88.7c16.6-25.7,33.1-51.5,49.7-77.1
			c19-29.3,38.1-58.4,57.1-87.6c10.5-16.2,20.6-32.5,31.1-48.7c12.8-19.7,26-39.3,38.8-59c11.7-18.1,23-36.3,34.6-54.5
			c1.5-2.4,1.9-4.9,1.6-7.6c1.2-0.4,3-0.5,3.6-1.3c2.6-3.7,4.8-7.6,7-11.5c0.2-0.4-0.7-1.3-1.3-2.3c-2,2.8-3.9,5-5.4,7.5
			c-1.5,2.5-2.4,5.3-3.6,7.9c-1.3,0.9-3,1.6-3.9,2.8c-4.3,5.9-8.5,11.8-12.6,17.9c-12.6,18.7-25.2,37.3-37.7,56
			c-10.4,15.4-20.7,30.9-31,46.3c-13.2,19.5-26.4,39-39.6,58.5c-11.2,16.5-22.3,33.1-33.4,49.6c-10.4,15.4-20.8,30.8-31.2,46.3
			c-14.6,21.8-29.1,43.7-43.7,65.5c-17.6,26.2-35.1,52.5-52.8,78.6c-2.3,3.4-4.2,7.3-8.1,9.7c-2-6-2.1-6-0.6-9.8
			c1.1-2.8,2.6-5.4,3.5-8.2c2.7-8.2,5.1-16.5,7.8-24.7c2-6,4-12,6.3-17.8c2.9-7.1,6.2-14,9.2-21c2.4-5.5,4.6-11,6.8-16.6
			c3.3-8,6.6-15.9,9.9-23.9c2.8-6.8,5.5-13.5,8.2-20.3c2.7-6.8,5.4-13.6,8.2-20.3c5.1-12.3,10.4-24.5,15.5-36.7
			c4.7-11.4,9.2-22.8,14-34.1c4.9-11.6,9.9-23.2,14.9-34.8c2.2-5.2,4.3-10.4,6.5-15.7c2.9-7.1,5.6-14.2,8.7-21.2
			c2.2-5.2,4.4-10.5,7.3-15.3c9.5-15.6,19-31.2,29-46.5c7.3-11.1,14-22.6,19.5-34.7c4.8-10.5,9.1-21.3,13.8-31.9
			c2.7-6.1,5.8-11.9,8.5-17.9c2.8-6,5.4-12.1,8.1-18.2c5.1-11.4,10.4-22.9,15.4-34.3c0.9-2.1,1.4-4.4,1.7-6.7
			c0.2-1.2-0.1-2.7-2.7-2.8c-1.1,2.6-2.2,5.6-3.7,8.4c-3.1,5.9-6.4,11.5-9.5,17.4c-5.9,11.5-11.6,23.1-17.4,34.6
			c-2.4,4.7-4.8,9.4-7,14.3c-2.8,6-5.1,12.2-8,18.1c-6,12.1-12.3,24.1-18.5,36.2c-0.2,0.4-1.2,0.4-2.2,0.7c-2-3.2-0.6-6.2,0.6-9.2
			c3.3-8,6.7-15.9,9.7-24c4.7-12.4,9.2-24.9,13.8-37.4c2.2-5.9,4.5-11.8,6.8-17.6c2.9-7.4,6-14.8,8.8-22.2
			c4.8-12.7,8.8-25.8,14.3-38.3c5.5-12.5,9.4-25.5,14.8-38c4.2-9.7,7.3-19.9,11.8-29.5c5.2-11.1,9.5-22.6,14.2-34
			c2.2-5.2,4.4-10.4,6.7-15.5c3.3-7.6,6.7-15.1,10-22.7c2.8-6.4,5.4-12.8,8.2-19.2c2.9-6.7,6-13.2,9-19.9
			c3.5-7.9,6.9-15.8,10.3-23.7c2.7-6.4,5.3-12.8,8-19.2c2.8-6.7,5.7-13.3,7.1-20.5c0.1-0.3,0.5-0.5,0.7-0.7c0,106.6,0,213.3,0,319.9
			C1998.5,611.9,1998.4,613.9,2000,615.9z M1916,547.9c4.1-2,3.8-4.2,3.4-6.4c-0.1-0.4-0.9-1-1.3-1c-0.5,0-1.4,0.5-1.4,0.9
			C1916.3,543.2,1916.3,545,1916,547.9z M1853.3,974.6c-0.5-0.2-1.1-0.6-1.3-0.5c-0.4,0.3-0.6,1-0.6,1.4c0,0.2,0.8,0.4,1.3,0.6
			C1852.9,975.6,1853.1,975.1,1853.3,974.6z"/>
		<path d="M1985.7,633.7c0.3,2.7,0,5.2-1.6,7.6c-11.5,18.1-22.9,36.4-34.6,54.5c-12.8,19.8-26,39.3-38.8,59
			c-10.5,16.1-20.7,32.5-31.1,48.7c-19,29.3-38.1,58.4-57.1,87.6c-16.6,25.7-33.1,51.4-49.7,77.1c-19.1,29.6-38.4,59.1-57.6,88.7
			c-13.9,21.5-28,42.9-41.5,64.6c-3.6,5.8-5.5,12.8-7.7,19.4c-1.7,5-2.7,10.3-4.1,15.4c-0.4,1.6-0.9,3.2-1.3,4.8
			c-1.8,8.5-3.6,16.9-5.4,25.4c-2.7,13-5.2,26.1-7.9,39.1c-0.6,2.9-1.4,5.8-2.1,8.7c-1.2,5.2-2.3,10.4-3.4,15.6c-1,4.5-2,9.1-3,13.6
			c-3,13.7-5.9,27.3-8.9,41c-1,4.5-2,9.1-3.1,13.6c-0.4,1.6-1,3.2-1.3,4.8c-2.6,12-5.1,24.1-7.7,36.1c-0.6,2.9-1.5,5.8-2.4,8.6
			c-0.8,2.5-1.8,5-2.4,7.6c-2.6,10.3-4.7,20.8-7.7,31c-3.2,11.1-6.2,22.5-13.4,32c-2.5,3.3-3.6,7.1-4.2,11.1
			c-0.9,6.2-2.1,12.5-3.3,18.7c-0.7,3.9-1.5,7.8-0.5,11.6c2.1,1,2.5-0.4,3.1-1.5c7.5-14.4,13.4-29.6,19.7-44.5
			c4.6-11,9.7-21.8,14.4-32.8c4.7-10.7,9.2-21.4,13.8-32.1c5.4-12.5,10.9-25,16.3-37.5c2.5-5.8,5-11.6,7.4-17.4
			c6.6-15.6,12.8-31.4,19.8-46.8c3-6.6,7.3-12.7,11.6-18.6c12.8-17.5,23-36.6,34-55.1c9.2-15.4,18.3-30.9,27.3-46.4
			c9.2-15.8,18.2-31.7,27.5-47.4c12.8-21.7,25.9-43.3,38.5-65.1c5.1-8.9,9.5-18.2,14.2-27.3c2.6-5,5.2-10,7.9-14.9
			c1.6-2.9,3.1-5.8,4.8-8.7c0.6-1,1.6-1.8,3.2-3.5c0.7,2,1.5,3.1,1.4,4.2c-0.1,2-0.4,4-1,5.9c-1.8,5-3.5,10-5.9,14.8
			c-4.8,9.5-8.8,19.2-14.3,28.4c-9.3,15.3-17.4,31.3-26.3,46.9c-8.8,15.6-18.1,31-26.9,46.5c-8.9,15.6-17.4,31.4-26.4,46.9
			c-8.3,14.4-16.9,28.6-25.4,42.8c-6.5,10.8-13.2,21.5-19.5,32.5c-2.8,4.9-4.9,10.2-7.2,15.3c-9.5,20.9-19.1,41.7-28.6,62.6
			c-4.9,10.9-9.5,21.9-14.5,32.8c-4.8,10.6-10,21-14.8,31.6c-4.9,10.6-9.5,21.3-14.3,31.8c-3,6.6-6.3,13.2-9.4,19.8
			c-2.4,5.1-4.7,10.3-7,15.4c-4.7,10.6-9.1,21.4-14,31.9c-4.9,10.6-10.2,20.9-15.1,31.5c-4.9,10.6-9.3,21.3-14.1,31.9
			c-4.6,10.3-9.4,20.6-14,30.9c-1.2,2.7-2.1,5.6-2.9,8.5c-1.6,6.1-3.2,12.2-4.6,18.4c-2.8,12-5.1,24.1-8.4,35.9
			c-3.4,12.2-4.8,24.8-9.5,36.7c-1.2,3.1-1.9,6.4,0,9.9c0.9-0.5,2-0.7,2.4-1.3c10-19.5,19.9-39,29.7-58.6
			c10.8-21.7,21.2-43.5,31.9-65.2c6.9-14,14.4-27.7,21.3-41.7c8.8-17.8,17.3-35.9,26.1-53.7c6.9-14,14.3-27.7,21.3-41.6
			c6.8-13.7,13.1-27.6,19.9-41.2c4.9-9.8,10.3-19.3,15.3-29.1c4.8-9.4,9.1-19.2,14.2-28.5c5.4-9.9,9.7-20.3,16.4-29.5
			c1.7-2.3,2.7-5.1,4-7.6c3.1,1.5,2.4,3.7,1.7,5.3c-4.6,11-9.4,21.9-14,32.9c-2.9,6.7-5.4,13.6-8.4,20.2c-4.4,9.7-9,19.2-13.7,28.7
			c-5.1,10.5-10.2,20.9-15.5,31.3c-5.2,10.4-10.6,20.7-15.8,31.1c-4.6,9.2-9,18.5-13.6,27.7c-7.2,14.6-14.5,29.2-21.7,43.8
			c-5,10.1-9.8,20.3-14.8,30.4c-4.5,9.2-9.1,18.5-13.7,27.7c-4.9,9.8-9.9,19.6-14.8,29.4c-5.5,11-11,21.9-16.4,33
			c-4.8,9.8-9.4,19.8-14.3,29.6c-5,10.1-10.3,20.1-15.4,30.2c-4.6,9.2-9.1,18.5-13.6,27.7c-3.2,6.6-6.9,12.9-9.6,19.7
			c-3.3,8.3-6,16.9-8.5,25.5c-3.4,11.5-6.4,23.1-9.5,34.6c-0.9,3.2-1.7,6.4-2.5,9.7c-1,3.8-2.1,7.7-3.2,11.5
			c-0.6,1.9-1.4,3.8-1.8,5.7c-2.7,13.1-6.9,25.7-11,38.3c-3.1,9.5-5.3,19.2-8.1,28.8c-2.5,8.6-5.2,17.2-7.8,25.8
			c-3.5,11.5-6.8,22.9-10.4,34.4c-2.7,8.9-5.7,17.7-8.5,26.6c-0.5,1.6-1.2,3.1-1.5,4.8c-2.4,11.8-6.9,22.9-11.1,34.1
			c-5.1,13.7-9.6,27.7-14.4,41.4c-2.7,7.5-5.6,14.9-8.4,22.4c-3,8.4-5.9,16.9-8.9,25.4c-2.9,8.1-5.9,16.2-8.9,24.3
			c-2.3,6.2-4.8,12.4-7.1,18.6c-4.9,13.1-9.5,26.3-14.5,39.3c-4.9,12.7-10.2,25.3-15,38c-4.7,12.4-9.1,25-13.7,37.5
			c-2.1,5.6-4.2,11.2-6.4,16.8c-5.1,13-10.3,26-15.3,39c-1.7,4.3-2.9,8.8-4.2,13.1c2.5,3.3,5.3,2.9,8.2,1.5
			c4.8-2.2,9.6-4.7,14.4-6.8c1.7-0.8,3.7-0.9,5.3-1.2c2.2,2.2,1.4,4.3,0.5,6c-2.6,5-5.3,10-8.1,14.9c-6.5,11.2-12.5,22.8-19.8,33.5
			c-7.5,11-16.3,21-24.5,31.5c-2.7,3.4-5.4,6.8-8.2,10.1c-4.3,5.1-7.8,10.8-10.3,17c-5.8,14.3-14.8,26.8-22.4,39.9
			c-12.9,22.1-26.3,43.9-39.5,65.8c-1.2,2-2.6,3.8-3.8,5.8c-1.5,2.5-3.4,5-2.9,8.7c1.5,1.2,3.2,2.6,4.8,3.9c-0.1,1,0,1.8-0.3,2.2
			c-1.4,1.9-2.7,3.8-4.5,5.4c-11.4,10.1-19.2,22.9-27,35.6c-13.4,22-29.8,41.6-46.2,61.3c-13.7,16.3-27.3,32.6-40.6,49.3
			c-7.4,9.4-14.3,19.3-20.8,29.3c-6.6,10.1-14.3,19.2-22.2,28.2c-11.6,13.3-23.4,26.5-34.9,39.8c-6.6,7.6-14,14.2-22.1,20.1
			c-4.1,2.9-7.9,6.1-11.9,9c-5.1,3.6-10.3,7.1-16.3,9.5c-16.7,6.6-33.1,13.9-49.7,20.9c-5.2,2.2-10.3,4.8-15.7,6.4
			c-5.1,1.6-8.6,5.1-11.8,8.8c-9.2,10.5-18.2,21.2-27.3,31.8c-4,4.6-6.5,10-8.9,15.5c-3.2,7.3-6.8,14.4-9.8,21.8
			c-2.2,5.3-5.6,9.8-9,14.3c-12.5,16.4-25.1,32.7-37.8,49c-5.3,6.8-10.7,13.6-16.6,20c-4.2,4.5-6.6,9.1-4.8,15.3
			c1.9,6.5-1.1,10.8-6.2,14.4c-8.7,6.1-17.2,12.5-26,18.5c-7.5,5.2-13.5,11.8-19.1,18.8c-23.4,29-45.7,58.9-67.3,89.2
			c-10.4,14.6-21.4,28.9-31.4,43.7c-11.4,16.8-22,34.1-33,51.1c-11.1,17.3-22.3,34.7-33.4,52c-8.4,13.2-16.7,26.4-25,39.7
			c-13.2,21.1-26.7,42.1-39.6,63.4c-7.2,11.9-13.8,24.2-20.4,36.5c-6.9,12.9-13.5,25.9-20.3,38.9c-5.8,11.2-11.9,22.2-17,33.8
			c-5.6,12.7-12.8,24.8-19.3,37.1c-9.2,17.3-18.3,34.7-27.7,51.9c-4,7.2-7.3,14.9-13.1,21.1c-3.3,3.6-5.4,8.3-7.8,12.7
			c-10.6,19.2-21,38.6-30.2,58.5c-10.8,23.2-21.4,46.5-32.2,69.8c-11.9,25.7-23.8,51.3-35.7,76.9c-9,19.3-18.1,38.5-26.9,57.9
			c-3.3,7.3-6.2,14.8-8.3,22.4c-4.8,17.1-11.6,33.3-18.6,49.5c-3.4,7.9-7.9,15.4-11.7,23.2c-7.6,15.9-15.1,31.9-22.6,47.9
			c-7.3,15.7-14.6,31.4-21.5,47.2c-4.9,11.3-9.1,22.9-13.6,34.4c-5.3,13.7-10.4,27.4-15.6,41.1c-4.8,12.8-9.6,25.5-14.4,38.3
			c-5.2,13.7-10.4,27.4-15.5,41.1c-5.1,13.7-9.9,27.5-15,41.3c-4.5,12.2-9.2,24.3-13.6,36.5c-3.5,9.7-6.7,19.5-9.8,29.3
			c-3.8,12.1-7.4,24.2-11,36.3c-15.3,0-30.7,0-46,0c0-2.7,0-5.3,0-8c2.7-0.6,3.5-2.7,4.3-5c3.6-11.1,7.2-22.2,10.7-33.3
			c5.6-17.8,11.2-35.6,16.7-53.4c2.6-8.6,5-17.3,7.6-25.9c4.5-15,9.1-29.9,15.1-44.4c5.4-12.9,10.1-26.1,15.2-39.1
			c4.8-12.4,9.7-24.8,14.5-37.1c4.6-11.8,9.1-23.6,13.8-35.3c4.9-12,9.9-24,15-35.9c7.2-16.8,14.5-33.6,21.8-50.4
			c4.4-10.1,8.8-20.1,13.3-30.2c5-11.2,10.2-22.4,15.2-33.6c6-13.4,12.5-26.5,19.8-39.2c3-5.1,5.1-10.8,7.3-16.3
			c5.2-13,10.2-26,15.3-39c4.6-11.8,9.2-23.5,13.9-35.3c2.6-6.5,5.1-13,7.9-19.4c5-11.3,10-22.5,15.3-33.6
			c4.9-10.5,10.2-20.9,15.2-31.4c7.5-15.6,15.1-31.1,22.5-46.7c4.9-10.2,9.4-20.5,14.5-30.7c4.4-8.9,9.3-17.7,13.9-26.5
			c9.2-17.4,18.2-34.8,27.5-52c12.9-24,25.9-48,39-71.9c4.2-7.6,9.1-14.7,13.4-22.2c6.1-10.3,12-20.7,17.9-31.1
			c7-12.5,13.8-25,20.7-37.5c9.2-16.6,18.3-33.2,27.5-49.7c11.9-21.5,23.6-43.2,36-64.4c7.7-13.2,16.5-25.7,24.8-38.5
			c12.9-19.8,26.2-39.3,38.7-59.3c14-22.3,29.2-43.7,44.3-65.2c17-24.2,34.3-48.3,51.5-72.4c5.8-8.1,12-16,17.3-24.4
			c6.2-9.8,11.9-20,17.6-30.1c4.9-8.7,9.8-17.4,14.5-26.2c3.2-5.8,6.3-11.7,9.1-17.7c1.6-3.4,3.7-6.1,6.9-8.3
			c6.1-4.1,9.7-9.9,10.4-17.4c0.5-5,1.2-9.9,1.8-14.9c0.5-3.6,0.6-7.4,1.6-10.9c2.4-8.8,2.9-17.7,3-26.7c0.3-28.3,0.8-56.6,1.1-85
			c0.1-6.8,1.2-13.1,3.7-19.5c3.5-9,5.9-18.3,9-27.5c2.7-8.2,5.7-16.3,8.6-24.5c2.3-6.6,4.8-13.1,6.7-19.8c1.8-6.6,5.7-12,9-17.7
			c4.3-7.5,9.4-14.5,13.8-22c7.4-12.5,12.2-25.9,13.3-40.4c0.7-8.6,0.9-17.3,1.6-25.9c1.3-14.9,2.9-29.8,4.1-44.8
			c1-12.3,1.4-24.6,2.1-36.9c0.1-2.3,0.1-4.7,0.4-7c2.7-21.5,4.5-43.1,5.6-64.7c0.2-4.3,1.3-8.6,2-12.8c1-6.6,2-13.2,3.1-19.7
			c1.2-7.6,2.5-15.1,3.7-22.7c0.2-1.3,0.6-2.6,0.8-3.9c2.4-15.8,4.6-31.6,7.1-47.4c1.5-9.5,3.1-19.1,4.7-28.6
			c0.2-1.3,0.4-2.6,0.6-3.9c2.5-16.5,4.1-33.1,7.9-49.3c2.7-11.7,4.8-23.4,7.8-35c1.3-4.8,2.2-9.7,3.3-14.6c0.7-3.2,1.5-6.5,2.3-9.7
			c1.1-4.9,2.3-9.7,3.4-14.6c1.1-4.5,2.1-9.1,3.1-13.6c1-4.5,1.9-9.1,2.9-13.7c0.1-0.3,0.1-0.7,0.1-1c3.2-17,6.4-34,9.6-51
			c0.2-1.3,0.7-2.6,0.9-3.9c2.3-13.1,4.6-26.2,7-39.3c0.3-2,0.5-4,1.2-5.9c2.7-7.1,5.6-14.2,8.2-21.3c3-8.1,5.7-16.3,8.6-24.4
			c0.8-2.2,1.3-4.5,2.3-6.6c2.7-5.2,3.5-10.7,4.2-16.3c0.7-5.3,1.8-10.5,2.7-15.7c0.5-2.6,1.3-5.2,1.7-7.8c2.6-17.8,5-35.6,7.5-53.4
			c0.2-1.3,0.3-2.7,0.6-4c5.3-20.7,7.4-41.9,11.6-62.8c0.5-2.6,1.3-5.2,2-7.7c0.8-2.9,1.6-5.8,2.2-8.7c1.5-7.2,3-14.3,4.5-21.5
			c2.7-13.4,5.3-26.8,8.1-40.1c3.2-15,6.5-29.9,9.8-44.9c0.3-1.3,0.7-2.6,0.9-3.9c2.7-13.7,5.3-27.5,8.3-41.1
			c2.7-12.7,5.9-25.2,8.8-37.9c0.7-2.9,1-5.9,1.7-8.8c1.1-5.2,2.4-10.4,3.6-15.5c0.2-1,0.7-1.9,0.9-2.9c2.6-12.7,5-25.5,7.7-38.2
			c2.8-13.3,5.8-26.7,8.8-40c1-4.5,2-9.1,3-13.6c0.7-3.3,1.3-6.5,2-9.8c1.4-6.5,2.8-13,4.3-19.5c0.1-0.6,0.2-1.3,0.3-2
			c3-12.9,6.1-25.9,9.1-38.8c0.8-3.2,1.2-6.5,1.9-9.8c1.3-6.2,2.7-12.3,4.1-18.5c0.1-0.6,0.4-1.3,0.6-1.9c2.6-13,5.2-26.1,7.7-39.1
			c0.3-1.6,0.2-3.4,0.8-4.9c5.5-14.1,4.7-29.5,8.9-44c1.9-6.3,2-13.1,2.7-19.8c0.8-7.1,3.2-13.4,8.8-19.1c0.8,1.6,1.9,2.8,1.8,3.8
			c-0.4,5.3-0.5,10.7-1.8,15.8c-1.7,6.5-2.8,13-3.4,19.6c-0.5,5.3-1.8,10.5-2.6,15.7c-1.2,7.6-2.3,15.1-3.5,22.7
			c-0.9,5.6-1.9,11.1-2.9,16.7c-0.2,1.3-0.8,2.6-0.9,3.9c-1.3,11.6-4.1,22.9-6.6,34.3c-1.8,8.1-2.4,16.5-5.4,24.3
			c-0.9,2.4-0.9,5.2-1.5,7.8c-1.1,5.5-2.4,11-3.6,16.6c-0.6,2.6-1.3,5.2-1.7,7.8c-1.2,7.9-2.1,15.8-5,23.4c-0.9,2.4-0.9,5.2-1.5,7.8
			c-1.2,5.9-2.4,11.7-3.6,17.6c-0.6,2.9-1.2,5.9-1.8,8.8c-1.5,6.8-3,13.6-4.5,20.5c-0.2,1-0.6,1.9-0.7,2.9
			c-2.6,13.4-5,26.8-7.8,40.2c-2.8,13.7-6,27.3-9,41c-0.9,3.9-1.5,7.8-2.4,11.7c-1.2,5.5-2.5,11-3.8,16.5c-0.1,0.6-0.5,1.3-0.6,1.9
			c-2.6,13.1-5.1,26.1-7.7,39.2c-0.9,4.6-1.9,9.1-2.9,13.7c-0.4,1.6-1,3.2-1.4,4.8c-2.3,11.1-4.5,22.2-6.8,33.3
			c-3.6,17.3-7.1,34.5-10.9,51.8c-1.3,5.7-1.9,11.1,1.7,16.3c2.6,3.8,2.3,8.2,2.3,12.6c0,13.7-0.2,27.3-0.2,41
			c0,5.7,0.2,11.3,0.5,17c0.1,1.5,0.8,3,1.1,4.2c2.6,0.5,2.9-1.1,3.1-2.3c2.6-14.8,5.2-29.5,7.7-44.3c0.3-1.6,0.2-3.4,0.7-4.9
			c4.9-15,4.5-31,8.8-46.1c1.2-4.1,1.3-8.6,1.9-12.8c0.6-3.9,1.3-7.9,2-11.8c1.6-9.2,3.3-18.3,4.7-27.5c1.1-7.5-1.2-14.5-3.4-21.5
			c-0.8-2.5-1.9-5-2.7-7.5c-2.8-8.3,2.7-11.7,9.7-12.2c1.6-0.1,3.3,0.6,4.9,0.7c2.6,0.2,4.5-1.1,5.5-3.5c0.8-1.8,1.4-3.7,1.9-5.7
			c1.7-5.7,3.4-11.5,4.9-17.3c2.8-10.6,5.4-21.3,8.2-31.9c3-10.9,6.2-21.7,9.2-32.6c2.2-7.7,4.3-15.4,6.5-23
			c2.4-8.7,4.7-17.3,7.1-26c3.6-13.2,7.3-26.3,10.8-39.5c2.8-10.3,5.3-20.6,8-30.9c0.7-2.6,1.4-5.1,2.2-7.7c0.6-1.9,1.6-3.7,2.1-5.6
			c2.6-10.3,5.1-20.7,7.8-31c1.8-7.1,3.9-14.1,5.9-21.1c3.1-10.9,6.2-21.8,9.2-32.7c2.6-9.6,5-19.3,7.5-29
			c3.6-13.8,7.2-27.7,10.7-41.5c2.8-11.3,5.4-22.6,8.3-33.9c2.8-11,5.9-21.8,8.8-32.8c2.7-10.3,5.2-20.7,7.9-31
			c3.6-13.8,7.3-27.7,10.8-41.5c2.7-10.6,5.1-21.3,7.9-32c2.8-10.9,5.9-21.8,9-32.7c2.5-9,5.2-17.9,7.9-26.8
			c3.4-11.5,7-22.9,10.4-34.4c2.8-9.6,5.4-19.2,8.2-28.8c0.7-2.6,1.7-5,2.5-7.6c1.1-3.5,2.1-7,3.2-10.5c1-3.2,1.9-6.4,2.9-9.5
			c1-3.2,1.9-6.4,2.9-9.5c1.2-3.8,2.4-7.6,3.6-11.4c0.5-1.6,1.3-3.1,1.6-4.7c2.2-11.2,6.5-21.6,10.9-32c3-7,5.3-14.3,8-21.5
			c2.6-6.8,5.3-13.6,8-20.4c3.5-9,6.9-18,10.4-26.9c1-2.5,2.6-4.7,3.3-7.3c1.7-6.4,3.9-12.9,4.3-19.4c1.7-30.6,2.6-61.2,4.1-91.9
			c1.3-27.3,2.9-54.6,4.4-81.8c0.3-5,0.6-10,0.7-15c0.2-10,0.8-19.9,4.2-29.5c1.1-3.1,1.2-6.5,1.8-9.8c0.9-4.6,1.8-9.1,2.8-13.7
			c1.3-6.2,2.4-12.4,3.8-18.6c3-14,5-28.2,7.5-42.3c1.6-8.8,3-17.7,4.8-26.5c2.9-14,4.8-28.2,7.2-42.3c1.4-8.2,2.9-16.4,4.4-24.6
			c3-16,6-32.1,9-48.1c0.4-2,0.9-3.9,1.2-5.9c2.7-20.8,5.3-41.6,7.9-62.4c0.4-3,0.4-6,1.1-8.9c2.9-11,3.8-22.3,4.5-33.6
			c0-0.7,0.1-1.3,0.2-2c3-19.1,6.2-38.1,6.9-57.5c4.6-13.4,4.9-27.5,6.2-41.4c0.1-1.3,0.7-2.5,1.1-3.6c2.5-0.3,2.1,1.6,2.1,2.6
			c0.9,18.3,0.7,36.6-2.1,54.8c-1.4,8.9-1.7,17.9-2.5,26.8c-1,11.3-2.1,22.5-3.2,33.8c-0.7,7.3-1.8,14.6-2,21.9
			c-0.6,24.4-4,48.5-7.6,72.5c-2.4,16.1-6.2,32-9.2,48c-2.8,15-5.5,30.1-8.2,45.2c-0.1,0.7-0.2,1.3-0.3,2c-2.8,13.7-5.7,27.4-8.5,41
			c-0.7,3.6-1.6,7.2-2,10.8c-1,8-1.9,15.9-4.7,23.5c-0.3,0.9-0.5,1.9-0.7,2.9c-2.6,15.8-4.6,31.6-7.9,47.2
			c-3.5,16.4-4.3,33-5.1,49.6c-0.6,11.3-1.1,22.6-2.3,33.9c-2,19.3-2.9,38.5-2.7,57.9c0.1,7.7-0.3,15.3-0.3,23
			c0,2.9-0.7,6.1,2.2,8.9c0.9-0.8,2.1-1.4,2.6-2.4c2.6-5,5.3-9.9,6.7-15.5c1.3-5.4,3.8-10.6,5.9-15.9c4.9-12.4,9.9-24.7,14.7-37.1
			c1.2-3.1,2.5-6.3,2.9-9.5c1.9-13.2,3.8-26.4,5.1-39.6c1.1-11.3,1.7-22.6,4.4-33.7c0.8-3.2,1.1-6.6,1.4-9.9c1.1-10.9,1.2-22,5-32.5
			c0.3-0.9,0.5-2,0.4-3c-0.5-11.3,3.4-21.8,8-31.6c3.4-7.3,4.6-15.2,8.7-22.2c1-1.7,1.4-3.7,1.8-5.7c0.9-3.9,1.6-7.8,4.1-11.2
			c0.4-0.5,0.8-1.2,0.9-1.8c0.9-8.7,6.5-16,8.1-24.5c0.3-1.6,0.7-3.4,1.6-4.7c3.2-4.5,4.3-9.7,5.1-15c0.1-0.8,1-1.4,2.2-3
			c1.8,5.5,1.3,9.9-1,14c-2.1,3.6-2.9,7.4-3.5,11.3c-0.4,2.3-0.8,4.7-2,6.6c-2.1,3.6-2.7,7.4-3.6,11.4c-0.7,3.2-1.9,6.3-2.9,9.5
			c-1,3.2-2,6.3-3,9.5c-1,3.2-2,6.3-3,9.5c-0.8,2.5-1.7,5-2.3,7.6c-0.5,1.9-0.4,4.1-1.3,5.8c-4.2,8.1-5.2,17.2-7.8,25.7
			c-1.7,5.7-2.1,11.8-3.2,17.6c-1.1,5.5-2.3,11-3.5,16.6c-0.7,3.2-1.9,6.5-2.1,9.7c-0.6,13.3-0.9,26.6-1.2,40c0,1.6,0.6,3.2,1.1,4.8
			c0.3,1.1,2.8,1.3,3.4,0.4c0.4-0.5,0.9-1,1.1-1.6c1.1-4.9,3.6-9.2,5.5-13.8c7-16.8,13.4-34,20.3-50.8c4.8-11.7,10.4-23,15.2-34.7
			c6.8-16.6,13.2-33.4,19.8-50.1c5-12.7,10.3-25.3,15.2-37.9c3-7.7,5.6-15.6,8.6-23.4c1.9-4.9,3.9-9.9,6.2-14.6
			c4.8-9.8,9.9-19.5,14.8-29.3c2.9-5.9,5.7-12,8.5-18c2-4.2,4-8.4,6.1-12.5c5.2-10,9-20.6,12.2-31.5c0.5-1.9,1.6-3.8,2.9-5.2
			c4.1-4.3,8.4-8.4,10.5-14.2c0.4-1.1,2.7-1.6,4.2-2.3c0,0-0.3-0.2-0.3-0.2c-0.4,5-1,9.9-4.4,14c-1.4,1.7-2,4.2-2.9,6.3
			c-4.7,11.3-9.2,22.6-14.9,33.5c-5.2,9.9-9.1,20.6-13.6,30.9c-2.4,5.5-4.8,10.9-7.5,16.2c-7.1,14-12.9,28.4-16.6,43.6
			c-1.3,5.4-3.6,10.7-5.3,16c-3,9.2-6.1,18.3-8.9,27.5c-2.1,6.7-4.7,13.3-5.6,20.2c-1.7,12.2-2.5,24.5-3.5,36.8
			c-0.1,1.6,0.4,3.2,0.8,4.8c0.3,1.1,2.7,1.4,3.4,0.5c0.6-0.8,1.1-1.6,1.6-2.5c10.9-19,21.7-38.1,32.6-57.1
			c8.1-14.1,16.4-28.1,24.3-42.4c1.7-3.1,2.1-6.9,2.6-10.5c1.8-13.9,3.4-27.7,5.2-41.6c0.3-2.2,1.2-4.3,1.8-6.2
			c2.8-0.7,3.6,0.8,4.1,2.4c0.8,2.5,1.2,5.2,2.1,7.7c0.5,1.5,1.5,2.8,2.7,4.9c1.7-1.4,3.2-2.2,4-3.4c1.1-1.6,1.9-3.5,2.4-5.4
			c2.7-11.7,4.8-23.4,7.9-35c2.6-9.6,5.1-19.2,7.6-28.8c1.7-6.4,4.3-12.5,5.1-19.2c0.1-1.1,1.2-2.1,2.4-4.1c1,2,1.9,3,2,4.1
			c0.3,7-0.3,13.9-2.3,20.7c-1.2,4.1-2.3,8.3-2.7,12.6c-0.8,7-2.4,13.7-3.8,20.6c-2.6,12.3-4.6,24.8-7.7,37.1
			c-0.6,2.5-0.5,5.3-0.3,7.9c0.1,1.1,1.1,2.1,2.2,4c2.6-4.1,5-7.2,6.8-10.6c5.6-10.5,11.1-21.2,16.6-31.8c0.8-1.5,1.5-3,1.9-4.6
			c4.8-15.9,9.4-31.9,14.3-47.8c2.7-8.9,5.8-17.7,8.7-26.5c0.6-1.9,1.2-3.8,1.7-5.7c2.5-10.4,6-20.3,10.5-30
			c7-15.1,13.5-30.4,20.4-45.5c4.9-10.9,10.1-21.6,15.1-32.5c4.2-9,8.3-18.1,12.4-27.2c5.4-12.2,10.6-24.4,15.9-36.6
			c0.8-1.8,1.6-3.7,2-5.6c2.6-12.7,5-25.4,7.5-38.1c0.2-1,0.1-2.1,0.4-3c5.3-12.4,4.5-26.2,9.1-38.8c1-2.8,1.2-5.9,1.8-8.8
			c1.1-4.9,2.2-9.7,3.4-14.5c0.2-0.6,0.5-1.3,0.6-1.9c2.8-13.3,5.5-26.7,8.2-40c0.1-0.3,0-0.7,0.1-1c3.2-13.6,6.4-27.1,9.6-40.7
			c2.5-10.6,4.6-21.4,7.7-31.9c1-3.4,0.6-7.2,0.8-10.9c2.7,0,5.3,0,8,0c-2.5,12.4-3.1,25.1-7.3,37.2c-1.1,3.1-0.7,6.6-1.2,9.9
			c-0.4,2.9-0.8,6-1.9,8.7c-2,5-2.9,10.2-3.5,15.5c-0.5,4-1.4,7.9-2.1,11.8c-1.3,6.9-2.7,13.7-4.1,20.5c-0.5,2.6-0.6,5.4-1.6,7.8
			c-2.7,6.9-3.7,14.1-4.6,21.4c-0.4,3.3-1.2,6.6-2.1,9.8c-3.5,12.5-4.1,25.7-8.5,38c-0.3,0.9-0.4,2-0.5,3
			c-0.7,7.7-2.2,15.1-4.5,22.5c-1.3,4.1-2.3,8.5-1,12.8c2,6.3,0,11.7-3.3,17c-1.4,2.2-3,4.5-3.6,7c-2.3,9-4.2,18.1-6.3,27.2
			c-0.7,2.9-1.4,5.8-2,8.7c-1.6,7.8-3.2,15.6-4.8,23.5c-0.2,1-0.3,2.1,0.1,2.9c0.3,0.8,1.2,1.5,2,1.9c0.4,0.2,1.4,0,1.9-0.3
			c0.8-0.5,1.6-1.2,2.1-2c8.2-12.1,16.2-24.3,24.5-36.4c14.6-21.4,29.2-42.7,43.9-64.1c13.3-19.4,26.8-38.7,40.1-58
			c2.3-3.3,4.5-6.5,6.9-9.8c0.3-0.4,1.1-0.5,2.4-0.9c0,1.4,0.4,2.8-0.1,3.7c-2.3,4-4.9,7.9-7.4,11.8c-6.6,10.3-13.2,20.6-19.8,31
			c-7.3,11.5-14.5,23-21.7,34.5c-6.9,10.9-13.8,21.9-20.8,32.7c-9,13.9-18.2,27.8-27.4,41.6c-7.3,11-14.8,22-22.2,33
			c-0.6,0.9-0.6,2.2-1.1,3.9c4.2-1.8,7-3.8,9.7-6.4c9.6-9.7,19.6-18.9,29.5-28.2c1.6-1.5,3.9-2.3,5.9-3.4c0,0-0.3-0.2-0.3-0.2
			c0.8,2.4,0.3,4.6-1.3,6.5c-2.5,3.1-4.9,6.3-7.5,9.4c-15.5,18.3-30.9,36.7-46.5,54.8c-3.6,4.2-5.9,8.9-7.2,14.1
			c-1.1,4.5-1.7,9.2-2.6,13.7c-0.8,3.9-1.6,7.8-2.5,11.7c-0.3,1.2-1.1,2.5,0.8,3.5c2.7-0.9,5.1-2.3,6.9-5
			c12.1-17.9,24.3-35.7,36.6-53.5c9.7-13.9,19.2-28,29.5-41.5c11.9-15.6,24.5-30.6,37.2-45.6c4.1-4.9,7.9-10.3,13.9-14.3
			c0.3,1.5,0.8,2.6,0.5,3.2c-2.3,4-4.7,8-7.3,11.8c-19.3,27.8-38.7,55.6-58.2,83.4c-22.3,31.9-44.8,63.6-67.1,95.5
			c-2.8,4.1-5.2,8.5-7.2,13.1c-3.6,7.9-6.8,15.9-10.1,23.8c-4.7,11.4-10,22.5-12.4,34.7c-0.7,3.6-1.3,7.2-1.6,10.8
			c-0.2,1.6,0.2,3.4,2.8,3.8c0.7-0.8,1.6-1.7,2.3-2.8c8.6-13,17.1-26.2,25.7-39.1c10.9-16.3,22-32.4,32.8-48.8
			c16.5-24.9,32.8-50,49.3-74.9c2.1-3.2,5-5.8,8.2-8.2c0.6,1.2,1.2,1.9,1,2.4c-1.6,5-3.2,10.1-5.2,15c-3.7,8.9-7.6,17.7-11.5,26.5
			c-2.8,6.4-5.8,12.7-8.5,19.1c-4.6,10.7-9.2,21.4-13.8,32.1c-5.1,11.9-10.2,23.8-15.2,35.7c-3.6,8.6-7.3,17.1-10.6,25.8
			c-1,2.7-1.8,5.9-1.5,8.7c1.1,9.9,2.8,19.8,4.3,29.6c0.2,1.6,0.7,3.3,2.9,3.4c5.6-5.8,5.5-5.9,7.2-10.5c3.1-8.1,6.3-16,9.6-24
			c2.9-7.1,5.8-14.1,8.7-21.2c4.3-10.5,8.5-21,12.8-31.4c1-2.5,3-3.5,5.6-3.2c2.5,0.3,4.3,1.7,4.7,4.4c0.4,2.6,0.5,5.3,0.5,7.9
			c0.1,10.3,0,20.7,0.1,31c0,2.6,0.2,5.3,0.6,7.9c0.1,0.8,1.2,1.8,2,1.9c0.7,0.1,2-0.5,2.4-1.2c2.2-4.1,4.2-8.3,6.1-12.5
			c4.8-10.5,9.5-21.2,14.4-31.6c1.7-3.6,4-6.9,6.1-10.2c0.3-0.4,1.1-0.5,1.7-0.8c1.1,4.8,1.3,4.9,0.2,6.4c-2.3,3.4-3.3,7.2-4,11.2
			c-0.3,1.9-1.2,3.8-1.9,5.6c-3,8.1-6.1,16.1-9.1,24.2c-2.8,7.5-4.9,15.2-8.3,22.4c-2.7,5.7-3.5,11.3-3.6,17.4
			c-0.7,29.6-1.6,59.3-2.4,88.9c0,1.3-0.2,2.7-0.2,4c0,4.2,1,6.4,3,6.7c2.7,0.4,4.2-1.5,5.8-3.2c16.7-16.7,33.4-33.5,50.1-50.2
			c8.2-8.2,16.8-16.2,23.8-25.6c18.3-24.5,36.8-48.9,55.2-73.3c16.1-21.5,32.2-43.1,49.4-63.8c0.5-0.6,1.4-0.7,3.3-1.5
			c-0.9,2.3-1.2,3.5-1.8,4.5c-9.3,14.5-18.4,29.2-28.1,43.4c-20.6,30.2-41.6,60.1-62.5,90.1c-1.7,2.5-3.4,5-4.8,7.6
			c-0.5,0.9,0.1,2.2,0.2,4.6c6-3.7,11-6.9,16.1-10c5.1-3.1,10.3-6.1,15.3-9.3c4.8-3,9.4-6.2,14.2-9.2c5.1-3.1,10.3-6,15.4-9.1
			c9.3-5.8,11-6.5,15.6-6.3c-0.1,0.3,0,0.8-0.2,0.9c-17,13.8-35,26.3-52.8,39c-16.2,11.6-32.4,23.3-48.5,35
			c-6.2,4.5-12.4,9-18.5,13.6c-4.1,3.1-6.6,6.9-6.5,12.7c0.2,11.7-0.5,23.3-0.8,35c-0.1,2.7,0,5.3,0.2,8c0.5,5.2,2.3,6.4,7.2,5.3
			c1.9-0.4,3.8-1.2,5.8-1.4c4-0.5,7.4,4.1,5,7.3c-3.7,4.9-5.3,10.6-7.7,16.1c-5.4,12.5-10.9,24.9-16.5,37.4
			c-3,6.7-6.3,13.2-9.2,19.9c-5.1,11.6-10,23.2-14.8,34.9c-3.3,8-6.3,16.1-9.2,24.2c-0.5,1.3,0,3,0.1,4.6c1.6,0,2.8,0.4,3.5-0.1
			c12.1-6.9,24.1-14.1,36.3-20.9c4-2.2,5.2-5.4,6-9.6c3.9-21.6,5-43.7,10.3-65.1c0.3-1.3,0.3-2.6,0.5-4c2.3-15.8,4.5-31.6,6.8-47.4
			c0.5-3.3,1-6.6,1.6-9.9c0.2-1.1,1-2.1,1.9-3.9c3.2,4.2,2.9,8.2,2.9,12.1c0.1,16,1,32-4.1,47.6c-0.3,0.9-0.4,2-0.5,3
			c-1.4,14.9-2.4,29.9-6,44.5c-0.4,1.7,0.4,3.6,0.7,6c5.2-1.5,7.8-4.8,10.3-8.3c21.4-31.2,43-62.4,64.4-93.7
			c6.8-9.9,13.2-19.9,20-29.8c4.3-6.2,9.7-11.8,11-19.7c0.2-1.2,1.3-2.3,1.9-3.5c1.2-2.7,2.4-5.4,3.5-8.1c0.8-1.8,1.1-3.9,2.3-5.4
			c2.1-2.7,3.2-5.7,3.8-9.1c0.2-1.3,0.7-2.7,1.5-3.6c2.6-3.2,4.2-6.7,4.7-10.8c0.4-3.4,2.9-5,6.1-5.7l-0.1-0.2
			c-3,8.4-5.2,17.2-9.3,25c-3.9,7.4-5.2,15.6-9.2,23c-3.4,6.3-4.3,13.9-7.3,20.5c-4.5,10-8.3,20.3-12.1,30.6
			c-5.6,15.3-11.6,30.4-17.4,45.6c-2.1,5.6-4.1,11.2-6.3,16.8c-5,12.6-10.2,25.2-15,37.9c-6.8,18-13.4,36.1-20.1,54.2
			c-2.4,6.5-5.1,13-7.7,19.4c-2.8,7.1-5.7,14.2-8.5,21.2c-1.6,4-3.1,8-4.5,12.1c-0.7,2.2-1.5,4.5-1.5,6.7c-0.2,5-0.1,10,0.2,15
			c0,1,1.1,1.9,2,3.3c3-6.4,5.5-12.1,8.1-17.7c0.3-0.6,0.4-1.3,0.6-1.9c3.5-12.5,9.4-24.1,14.5-36c6.5-14.9,13.5-29.6,20.1-44.5
			c6.8-15.5,13.2-31.2,20-46.6c8.4-19.1,18-37.8,24.1-57.9c1.8-6,4-12,6.2-17.9c3-8.1,6.1-16.1,9.1-24.2c3.5-9.7,6.6-19.5,10.3-29.1
			c4.2-10.9,8.8-21.5,13.3-32.3c7.8-18.7,15.6-37.3,23.3-56.1c6.8-16.6,13.4-33.2,20.1-49.8c2.4-5.8,4.8-11.6,7.3-17.4
			c3-7,6.2-13.9,9.2-20.9c2.7-6.4,5.2-12.9,8.1-19.3c4.9-10.9,10.2-21.6,15.1-32.4c2.4-5.1,4.4-10.3,6.6-15.5
			c2.8-6.7,5.6-13.4,8.6-20c2.8-6.3,6.2-12.4,8.8-18.9c5-12.6,11.2-24.7,16.4-37.2c3-7.3,7.6-14,9.2-22c0.3-1.6,1.4-3,2-4.5
			c1.1-2.7,2.1-5.5,3.1-8.3c0.7-1.8,1.3-3.7,2-5.5c0,6,0,12,0,18c-0.2,0.2-0.7,0.4-0.7,0.7c-1.4,7.2-4.3,13.8-7.1,20.5
			c-2.7,6.4-5.3,12.9-8,19.2c-3.4,7.9-6.8,15.8-10.3,23.7c-2.9,6.7-6.1,13.2-9,19.9c-2.8,6.4-5.4,12.8-8.2,19.2
			c-3.3,7.6-6.7,15.1-10,22.7c-2.3,5.2-4.5,10.3-6.7,15.5c-4.7,11.3-9,22.9-14.2,34c-4.5,9.7-7.5,19.9-11.8,29.5
			c-5.4,12.5-9.3,25.5-14.8,38c-5.5,12.4-9.5,25.5-14.3,38.3c-2.8,7.5-5.9,14.8-8.8,22.2c-2.3,5.9-4.6,11.7-6.8,17.6
			c-4.6,12.4-9.1,24.9-13.8,37.4c-3.1,8.1-6.4,16-9.7,24c-1.2,3-2.6,6-0.6,9.2c1-0.3,2-0.3,2.2-0.7c6.2-12,12.5-24,18.5-36.2
			c2.9-5.9,5.3-12.1,8-18.1c2.2-4.8,4.6-9.5,7-14.3c5.8-11.5,11.5-23.1,17.4-34.6c3-5.9,6.4-11.6,9.5-17.4c1.5-2.8,2.6-5.8,3.7-8.4
			c2.6,0.1,2.9,1.6,2.7,2.8c-0.3,2.3-0.8,4.6-1.7,6.7c-5.1,11.5-10.3,22.9-15.4,34.3c-2.7,6.1-5.3,12.2-8.1,18.2
			c-2.8,6-5.8,11.9-8.5,17.9c-4.7,10.6-9,21.3-13.8,31.9c-5.5,12.1-12.2,23.5-19.5,34.7c-10,15.3-19.5,30.9-29,46.5
			c-2.9,4.8-5,10.1-7.3,15.3c-3,7-5.8,14.2-8.7,21.2c-2.1,5.2-4.3,10.5-6.5,15.7c-4.9,11.6-10,23.2-14.9,34.8
			c-4.7,11.3-9.3,22.8-14,34.1c-5.1,12.3-10.4,24.5-15.5,36.7c-2.8,6.7-5.5,13.5-8.2,20.3c-2.7,6.8-5.5,13.5-8.2,20.3
			c-3.3,8-6.6,15.9-9.9,23.9c-2.3,5.5-4.5,11.1-6.8,16.6c-3,7-6.3,13.9-9.2,21c-2.4,5.8-4.4,11.8-6.3,17.8
			c-2.7,8.2-5.1,16.5-7.8,24.7c-0.9,2.8-2.4,5.5-3.5,8.2c-1.5,3.8-1.4,3.9,0.6,9.8c3.9-2.4,5.8-6.4,8.1-9.7
			c17.7-26.1,35.3-52.4,52.8-78.6c14.6-21.8,29.1-43.7,43.7-65.5c10.3-15.5,20.8-30.9,31.2-46.3c11.1-16.5,22.2-33.1,33.4-49.6
			c13.2-19.5,26.4-39,39.6-58.5c10.4-15.4,20.7-30.9,31-46.3c12.6-18.7,25.1-37.4,37.7-56c4.1-6,8.3-12,12.6-17.9
			c0.9-1.2,2.6-1.9,3.9-2.8L1985.7,633.7z M1228.6,997c-2.5,4.4-5.5,8.1-7.1,12.4c-2.7,7.1-4.4,14.6-6.7,21.8
			c-2.7,8.6-5.5,17.1-8.2,25.6c-3.1,9.5-6.2,18.9-9.2,28.4c-1.9,6-3.8,12-5.4,18.1c-2.8,10.9-5.3,21.9-8.2,32.9
			c-3.6,13.8-7.5,27.6-11.2,41.4c-2.6,9.6-5.1,19.3-7.8,28.9c-2.8,10.3-5.9,20.4-8.7,30.7c-2.8,10.6-5.2,21.3-7.9,31.9
			c-0.3,1.3-0.8,2.5-1.2,3.8c-1.3,5.2-2.6,10.3-3.9,15.5c-0.6,2.6-1.1,5.2-1.8,7.8c-3,11.2-6.1,22.4-9,33.7
			c-3,11.6-5.7,23.3-8.5,34.9c-2,8.1-3.9,16.2-6.1,24.2c-3.1,11.6-6.4,23.1-9.3,34.7c-2.9,11.6-5.4,23.3-8.3,34.9
			c-3.7,14.8-7.5,29.7-11.3,44.5c-2.6,10-5,20-8,29.9c-1.9,6.3-2.4,12.3-1,18.7c1,4.9,1.4,9.9,1.7,14.8c0.4,6.3,0.3,12.7,0.6,19
			c0.1,1.9,0.7,3.9,1.6,5.7c0.3,0.5,2.5,0.7,3.3,0.2c0.9-0.7,1.5-2.2,1.8-3.4c0.9-3.6,1.2-7.3,2.3-10.7c4.2-12.6,7.8-25.4,10.9-38.3
			c0.4-1.6,1-3.2,1.5-4.7c1.3-4.4,2.6-8.9,3.9-13.4c0.8-2.9,1.6-5.8,2.4-8.6c2.8-9.6,5.8-19.1,8.5-28.7c2.8-9.9,4.9-20.1,8.3-29.8
			c5.4-15.5,7.2-31.8,10.2-47.8c2.7-14.7,4.9-29.5,7.4-44.3c0.3-2,1.1-3.8,1.7-5.7c0.8-2.9,1.6-5.8,2.2-8.7c2.7-13,5.2-26.1,8-39.1
			c2.1-9.8,4.5-19.4,6.8-29.2c3-13,6.1-25.9,8.9-38.9c2.8-13,5.4-26.1,8.1-39.1c0.3-1.6,1-3.2,1.4-4.8c1-3.9,1.8-7.8,2.8-11.6
			c1.3-5.5,2.5-11,4.1-16.4c2.7-9.2,5.5-18.4,8.5-27.6c2.5-7.9,5.2-15.8,7.8-23.7c3-8.8,6.1-17.6,9-26.4c3.3-9.8,6.5-19.5,9.5-29.4
			c1.3-4.1,2.1-8.4,2.8-12.6c1.4-8.5,2.6-17.1,3.7-25.7c0.9-6.9,1.6-13.9,2.2-20.8C1232.3,1000,1232.1,997.9,1228.6,997z
			 M884.2,2263.5c2.9-2.1,3.1-4.9,3.3-7.4c0.6-6.7,2-13.1,4.2-19.5c1.2-3.4,1.5-7.2,2.2-10.7c0.7-3.3,1.3-6.5,2-9.8
			c3.4-14.6,6.9-29.1,10.3-43.7c0.5-2.3,0.9-4.6,1.5-6.8c4.6-17,9-34.1,10.8-51.7c0.2-1.7,0.6-3.3,0.9-4.9c3-15.4,6.3-30.6,8.7-46.1
			c1.4-9.2,1.6-18.6,1.8-27.9c0.4-16.3,0.9-32.6,3.3-48.8c0.6-3.9,0.4-8,0.4-12c0-1.1,0.4-2.9-2.3-2.9c-1,6.4-3.1,12.6-6,18.5
			c-0.8,1.7-1,3.9-1,5.9c-0.1,9.1-1.7,17.9-4.2,26.5c-0.9,2.8-1.4,5.9-1.5,8.9c-0.3,14.1-6.1,27.3-7,41.3c-0.2,2.2-1.4,4.4-2.1,6.6
			c-2.8,8.2-5.9,16.3-8.5,24.5c-3.2,9.8-6.2,19.6-9,29.5c-1.4,5.1-2.5,10.3-3.4,15.5c-2.6,15.4-5,30.8-7.6,46.3
			c-0.3,1.6-0.9,3.2-1.4,4.8c-5.4,18.7-4.2,37.6-0.5,56.4C879.6,2258.8,880.4,2261.8,884.2,2263.5z M1059.3,1629.6
			c-4.1,2.2-3.8,5.2-4.4,7.6c-1.1,4.2-2,8.4-3.1,12.6c-1.1,4.2-2.3,8.3-3.4,12.5c-0.8,2.9-1.4,5.8-2.2,8.7
			c-2.9,9.6-5.9,19.1-8.8,28.6c-4.7,15.6-9.2,31.3-14,46.8c-4.8,15.6-9.8,31.1-14.6,46.6c-0.9,2.9-1.6,5.8-2,8.8
			c-0.3,2.2-0.4,4.8,0.5,6.8c2.2,5.1,4.9,10,8.1,16.2c1.3-2.8,2.4-4.4,2.8-6.1c2.6-8.9,4.2-18.2,7.7-26.7
			c4.5-10.8,6.6-22.3,10.7-33.2c2.9-7.8,4.8-15.9,7.9-23.7c5.8-14.4,9.1-29.1,10-44.6c0.5-8.3,1.8-16.5,3.3-24.7
			c2-10.2,2.6-20.5,2.6-30.8C1060.3,1633.6,1059.8,1632,1059.3,1629.6z M1758.9,761.7c-0.9,5.6-3.8,9.8-5.8,14.3
			c-5.2,11.8-10.6,23.6-15.8,35.5c-2.9,6.7-5.4,13.6-8.2,20.3c-5,12-10.6,23.7-15.1,35.8c-4.5,12-10.5,22.9-19.6,32
			c-2.6,2.6-5,5.3-7.4,8.1c-0.7,0.7-1.3,1.5-1.6,2.4c-0.2,0.5-0.1,1.4,0.2,1.9c0.3,0.5,1.1,1,1.6,0.9c1.9-0.4,4-0.8,5.6-1.7
			c5.2-2.9,10.2-6.3,15.5-9c5.4-2.7,8.8-6.7,11-12.3c5.3-14,10.9-27.9,16.3-41.8c2.1-5.2,4.1-10.5,6.1-15.8
			c4.7-13.1,9.2-26.3,14.2-39.3c4.8-12.7,10.2-25.2,15.1-38c5.8-15.2,11.3-30.4,16.9-45.7c0.2-0.4-0.5-1.1-0.9-2.1
			c-4.1,0.1-6.1,2.8-8.1,6c-4.7,8-9.6,15.9-14.4,23.9c-3.6,6-7.4,11.9-10.9,17.9c-0.5,0.8-0.3,1.9-0.4,3
			C1754.9,759.2,1756.5,760.2,1758.9,761.7z M1542.5,1248c2.9-1.8,5.4-3.2,7.7-5c6.4-4.8,12.4-10,19-14.6
			c6.1-4.2,11.4-9.2,16.3-14.6c3.6-3.9,7-8.1,10.6-11.9c4.8-5,7.4-11.1,8.7-17.7c2.3-11.7,4.5-23.5,6.6-35.3c0.5-2.9,0.7-6,1-8.9
			c0.1-1,0.3-2.1-0.1-3c-0.5-1.1-1.3-2.3-2.3-2.8c-0.6-0.3-2.2,0.1-2.7,0.7c-2.2,2.8-4.5,5.7-6.3,8.8c-2.8,4.9-5,10.1-8,14.9
			c-4.3,6.7-9,13.2-13.7,19.6c-14.2,19.4-25,40.8-37.4,61.2C1540.5,1241.7,1539.6,1244.3,1542.5,1248z M1302.4,819.7
			c0,2.9-0.1,4.2,0,5.5c0.2,1.7,0.8,3.5,2.8,3.4c1.1-0.1,2.1-1.3,3.1-2.1c0.2-0.2,0.3-0.6,0.4-0.9c6.7-15.5,13.1-31.2,20.1-46.6
			c8.7-19.4,17.8-38.6,26.6-57.9c1.1-2.4,1.8-5.1,2.1-7.7c1-8.9,1.8-17.9,2.6-26.8c0.2-2.8-1.3-4.7-3.8-4.8c-2.3-0.1-3.9,1-4.4,3.2
			c-3.1,13-9.9,24.6-13.8,37.3c-1.7,5.7-4.3,11.1-6.6,16.7c-3.1,7.7-6.3,15.3-9.4,23c-2.1,5.2-4.1,10.5-6.2,15.7
			c-3.1,8-5.9,16.2-9.4,24.1C1303.9,808.1,1302.7,814.6,1302.4,819.7z M1501.2,1616.2c5.1,3.9,7,4,9.3,0.4
			c7.8-12.4,15.9-24.5,23-37.2c7-12.8,12.9-26.2,19.3-39.3c2-4.2,4.6-8.2,5.8-12.6c2.3-8.3,3.8-16.8,5.5-25.3
			c0.5-2.6,0.4-5.3,0.3-7.9c-0.1-1.1-0.9-2.2-2-4.5c-2.8,4.6-5.2,8-7.1,11.7C1535.1,1538.7,1518.8,1577.8,1501.2,1616.2z
			 M1543.7,575.5c1.6-2.3,2.7-3.5,3.4-4.9c8.3-15.5,16.7-31,24.8-46.7c11.1-21.5,22.1-43.1,33-64.7c0.7-1.4,1-3.2,1-4.8
			c0-1-1.1-1.9-2.1-3.5c-3.4,4.8-6.2,8.8-9,12.9c-16.1,23.6-31.1,47.9-45.6,72.4c-3,5.1-6.2,10.3-8.8,15.7c-1.2,2.6-2.3,5.9-1.7,8.6
			C1539.6,565.1,1539.1,570.5,1543.7,575.5z M1341.8,851.1c-4.5,2.5-5.8,6.7-7.3,10.8c-1,2.8-1.5,5.8-2.6,8.6
			c-5.1,13.6-10.9,27-12.1,41.8c-0.2,2.3-1.1,4.5-1.5,6.8c-0.8,4.9-1.7,9.8-2.3,14.7c-0.3,2.5-1,5.4,1.6,7.3
			c1.9,1.4,5.2-0.3,8.1-4.1c0.2-0.3,0.4-0.6,0.5-0.8c5.2-7.7,10.3-15.4,15.7-22.9c2.4-3.4,3.9-7,3.9-11c0.1-14.3,0-28.5-0.1-42.8
			C1345.9,856.3,1345.4,853.4,1341.8,851.1z M1426.1,646.4c-4.5,5.1-8.1,8.8-9.4,14.1c-0.6,2.6-1.4,5.1-2.3,7.6
			c-4.9,13-10.1,25.9-14.9,39c-5,13.4-9.1,27.1-14.8,40.1c-4.3,9.8-2.1,18.1,2.7,26.4c0.4,0.7,1.6,1.3,2.4,1.2
			c0.8-0.1,1.9-1,2.1-1.7c4-11.9,8-23.9,11.7-35.9c2.8-9.2,4.9-18.6,8-27.7c5.5-16.4,10.3-32.9,14.4-49.7
			C1427,656.1,1428.1,652.2,1426.1,646.4z M1287.1,947.1c0-2.6,0.1-5.3-0.1-7.9c-0.1-0.7-1.1-1.8-1.9-2c-0.8-0.2-1.9,0.4-2.7,0.8
			c-0.5,0.3-0.9,1-1.2,1.6c-4.2,11.5-8.5,23-12.6,34.6c-3.1,8.8-5.9,17.6-8.9,26.4c-3.7,11-7.4,22.1-11.3,33
			c-2.1,5.9-1.9,11.7-0.6,17.7c0.8,3.4,2.3,5.2,4.1,4.8c2.4-0.5,2.8-2.6,3.4-4.4c2.9-9.2,5.6-18.4,8.7-27.5c2.8-8.5,6.1-16.8,9-25.3
			c2.9-8.5,4.9-17.3,8.3-25.5C1285.1,964.8,1286.8,956.2,1287.1,947.1z M1681.6,998.7c-1.1,0.6-1.9,0.8-2.3,1.2
			c-13.5,19.1-23.1,40.1-31.1,61.9c-1.2,3.4-2.5,7.1-2.5,10.6c0.1,7.9,0.9,15.9,1.7,23.8c0.1,1.6,0.8,3.3,3.5,3.7
			c0.6-1.1,1.6-2.4,2.1-3.8c1-2.8,1.4-5.8,2.6-8.6c6.5-15.3,11.3-31.1,16.2-47c3-9.8,6.5-19.5,9.6-29.3c1-3.1,1.5-6.4,1.9-9.7
			C1683.4,1000.7,1682.2,999.7,1681.6,998.7z M1039.1,1785.9c-0.6,4.4-2.6,8-5.1,11.6c-1.7,2.3-2.6,5.4-3.2,8.2
			c-0.9,4.3-2.3,8.2-3.9,12.2c-2.9,7.4-5.2,15-7.5,22.6c-0.7,2.2-1.2,4.7-0.8,6.9c1.3,8.5,2.8,17,4.5,25.4c0.3,1.6,2.2,2.9,3.3,4.3
			c1.1-0.7,1.7-0.9,2.2-1.4c0.5-0.5,0.9-1.1,1-1.7c2.5-10.3,6-20.2,6.4-31.1c0.5-15.2,2.1-30.4,3.1-45.7
			C1039.3,1793.6,1039.1,1789.7,1039.1,1785.9z M1343.4,792.2c-0.9,0.2-1.4,0.2-1.5,0.4c-11.1,25.8-21,52-29.4,78.8
			c-0.3,0.9,0,1.9,0,4.6c2.7-4.6,6.4-6.2,7.8-10.2c2.6-7.1,5.3-14.2,8.3-21.2c4.9-11.2,10.2-22.2,14.9-33.5
			C1346,805,1346.6,798.5,1343.4,792.2z M1597.7,1372c-6.8,6.2-6.8,6.3-8.8,11.1c-1.3,3-2.7,6-4.1,9c-3.6,8.1-7.3,16.3-10.9,24.4
			c-0.4,1-0.1,2.3-0.1,4.5c2.9-1.5,5.3-2.2,6.7-3.7c5.9-6.4,10.3-13.8,13.1-22c2-5.9,3-12.2,4.2-18.4
			C1598.2,1375.6,1597.8,1374,1597.7,1372z M1277,902.8c8-9.1,8.3-18.4,8-27.7c0-0.7-1.2-1.7-2-1.9c-0.8-0.2-2.2,0.1-2.7,0.7
			c-1.6,2.1-3.9,4.2-4.2,6.6C1275.2,887.3,1274.4,894.2,1277,902.8z M1717,953.7c-0.7-0.1-1.4-0.2-2-0.3c-1.5,2.5-3,5.1-4.6,7.5
			c-2.2,3.2-2.7,6.7-2.4,10.4c0.1,1.5,0.8,2.4,3.2,1.7c1.2-5,2.8-10.3,6-15C1717.8,957.1,1717.1,955.2,1717,953.7z M1705.4,984.2
			c-0.3-0.5-0.5-1-0.8-1.6c-0.5,0.3-1.3,0.5-1.4,0.9c-0.3,0.8-0.4,1.8-0.3,2.7c0,0.4,0.8,1.1,1.1,1c0.5-0.1,0.9-0.7,1.1-1.2
			C1705.4,985.5,1705.3,984.8,1705.4,984.2z M1609.2,446c-0.2,0.1-0.5,0.3-0.7,0.4c0.3,0.4,0.5,0.7,0.8,1.1c0.1-0.3,0.4-0.5,0.4-0.8
			C1609.6,446.5,1609.3,446.3,1609.2,446z"/>
		<path fill="#FFFFFF" d="M1850.8,577c-3.2,0.7-5.7,2.3-6.1,5.7c-0.5,4.1-2.1,7.6-4.7,10.8c-0.8,1-1.3,2.4-1.5,3.6
			c-0.6,3.3-1.7,6.3-3.8,9.1c-1.2,1.5-1.5,3.6-2.3,5.4c-1.1,2.7-2.3,5.4-3.5,8.1c-0.5,1.2-1.7,2.3-1.9,3.5c-1.2,8-6.7,13.5-11,19.7
			c-6.8,9.9-13.3,19.9-20,29.8c-21.4,31.2-43,62.4-64.4,93.7c-2.5,3.6-5,6.8-10.3,8.3c-0.3-2.4-1.1-4.4-0.7-6
			c3.6-14.6,4.6-29.6,6-44.5c0.1-1,0.2-2,0.5-3c5.1-15.5,4.2-31.6,4.1-47.6c0-3.8,0.3-7.9-2.9-12.1c-0.9,1.8-1.7,2.8-1.9,3.9
			c-0.7,3.3-1.2,6.6-1.6,9.9c-2.3,15.8-4.5,31.6-6.8,47.4c-0.2,1.3-0.2,2.7-0.5,4c-5.3,21.4-6.4,43.5-10.3,65.1
			c-0.8,4.2-2,7.4-6,9.6c-12.2,6.8-24.2,14-36.3,20.9c-0.7,0.4-1.9,0.1-3.5,0.1c-0.1-1.6-0.6-3.3-0.1-4.6c2.9-8.1,6-16.2,9.2-24.2
			c4.8-11.7,9.8-23.3,14.8-34.9c2.9-6.7,6.2-13.2,9.2-19.9c5.6-12.4,11.1-24.9,16.5-37.4c2.3-5.5,4-11.1,7.7-16.1
			c2.4-3.2-1-7.8-5-7.3c-2,0.2-3.9,1-5.8,1.4c-4.9,1.1-6.7-0.1-7.2-5.3c-0.3-2.6-0.3-5.3-0.2-8c0.3-11.7,0.9-23.3,0.8-35
			c-0.1-5.7,2.4-9.5,6.5-12.7c6.1-4.6,12.3-9.1,18.5-13.6c16.2-11.7,32.3-23.4,48.5-35c17.8-12.7,35.7-25.3,52.8-39
			c0.2-0.2,0.1-0.6,0.2-0.9c-4.7-0.3-6.3,0.5-15.6,6.3c-5.1,3.1-10.3,6-15.4,9.1c-4.8,3-9.4,6.2-14.2,9.2
			c-5.1,3.2-10.2,6.2-15.3,9.3c-5.1,3.1-10.1,6.2-16.1,10c-0.2-2.3-0.7-3.7-0.2-4.6c1.4-2.6,3.1-5.2,4.8-7.6
			c20.8-30,41.8-60,62.5-90.1c9.7-14.2,18.8-28.9,28.1-43.4c0.7-1,0.9-2.3,1.8-4.5c-1.8,0.8-2.8,1-3.3,1.5
			c-17.2,20.7-33.3,42.3-49.4,63.8c-18.4,24.5-36.9,48.8-55.2,73.3c-7,9.4-15.6,17.3-23.8,25.6c-16.7,16.7-33.4,33.5-50.1,50.2
			c-1.7,1.7-3.1,3.6-5.8,3.2c-2-0.3-3-2.5-3-6.7c0-1.3,0.1-2.7,0.2-4c0.8-29.6,1.7-59.3,2.4-88.9c0.2-6,0.9-11.7,3.6-17.4
			c3.4-7.2,5.6-14.9,8.3-22.4c3-8.1,6.1-16.1,9.1-24.2c0.7-1.9,1.6-3.7,1.9-5.6c0.7-4,1.7-7.8,4-11.2c1-1.5,0.9-1.6-0.2-6.4
			c-0.6,0.2-1.4,0.3-1.7,0.8c-2.1,3.4-4.4,6.6-6.1,10.2c-4.9,10.5-9.6,21.1-14.4,31.6c-1.9,4.2-4,8.4-6.1,12.5
			c-0.4,0.7-1.7,1.4-2.4,1.2c-0.8-0.1-1.9-1.1-2-1.9c-0.4-2.6-0.6-5.3-0.6-7.9c-0.1-10.3,0-20.7-0.1-31c0-2.7-0.1-5.3-0.5-7.9
			c-0.4-2.7-2.2-4.1-4.7-4.4c-2.6-0.3-4.6,0.7-5.6,3.2c-4.3,10.5-8.5,20.9-12.8,31.4c-2.9,7.1-5.9,14.1-8.7,21.2
			c-3.2,8-6.5,16-9.6,24c-1.7,4.6-1.6,4.7-7.2,10.5c-2.2-0.1-2.6-1.8-2.9-3.4c-1.5-9.9-3.1-19.7-4.3-29.6c-0.3-2.8,0.4-6,1.5-8.7
			c3.3-8.7,7-17.2,10.6-25.8c5-11.9,10.1-23.8,15.2-35.7c4.6-10.7,9.2-21.4,13.8-32.1c2.8-6.4,5.7-12.7,8.5-19.1
			c3.9-8.8,7.9-17.6,11.5-26.5c2-4.9,3.6-9.9,5.2-15c0.1-0.4-0.5-1.1-1-2.4c-3.2,2.4-6.1,5-8.2,8.2c-16.5,24.9-32.8,50-49.3,74.9
			c-10.8,16.3-22,32.5-32.8,48.8c-8.7,13-17.1,26.1-25.7,39.1c-0.7,1.1-1.6,2-2.3,2.8c-2.6-0.5-3-2.2-2.8-3.8
			c0.4-3.6,0.9-7.3,1.6-10.8c2.4-12.2,7.7-23.4,12.4-34.7c3.3-8,6.6-16,10.1-23.8c2.1-4.5,4.4-9,7.2-13.1
			c22.3-31.9,44.7-63.7,67.1-95.5c19.4-27.7,38.8-55.6,58.2-83.4c2.6-3.8,5-7.8,7.3-11.8c0.3-0.6-0.2-1.7-0.5-3.2
			c-6.1,3.9-9.8,9.4-13.9,14.3c-12.7,15-25.3,30.1-37.2,45.6c-10.3,13.4-19.8,27.5-29.5,41.5c-12.3,17.7-24.5,35.6-36.6,53.5
			c-1.8,2.7-4.2,4.1-6.9,5c-1.9-1-1-2.3-0.8-3.5c0.8-3.9,1.7-7.8,2.5-11.7c0.9-4.6,1.5-9.2,2.6-13.7c1.3-5.2,3.6-9.9,7.2-14.1
			c15.6-18.1,31-36.5,46.5-54.8c2.6-3.1,5-6.3,7.5-9.4c1.6-2,2.1-4.1,1.3-6.5c1.2-0.2,2.5-0.4,3.6-0.8c0.3-0.1,0.3-1,0.4-1.6
			c-0.5-0.1-1.3-0.5-1.5-0.3c-0.9,0.9-1.5,2-2.3,3c-2,1.1-4.3,1.9-5.9,3.4c-10,9.3-19.9,18.6-29.5,28.2c-2.7,2.7-5.5,4.6-9.7,6.4
			c0.5-1.7,0.5-3,1.1-3.9c7.4-11,14.9-22,22.2-33c9.2-13.8,18.3-27.7,27.4-41.6c7-10.8,13.9-21.8,20.8-32.7
			c7.3-11.5,14.4-23,21.7-34.5c6.5-10.3,13.2-20.6,19.8-31c2.5-3.9,5.1-7.8,7.4-11.8c0.5-0.9,0.1-2.3,0.1-3.7
			c-1.3,0.5-2.1,0.5-2.4,0.9c-2.3,3.2-4.6,6.5-6.9,9.8c-13.4,19.3-26.8,38.6-40.1,58c-14.7,21.3-29.3,42.7-43.9,64.1
			c-8.2,12.1-16.3,24.2-24.5,36.4c-0.5,0.8-1.3,1.5-2.1,2c-0.5,0.3-1.4,0.6-1.9,0.3c-0.8-0.4-1.7-1.1-2-1.9c-0.3-0.9-0.3-2-0.1-2.9
			c1.6-7.8,3.2-15.6,4.8-23.5c0.6-2.9,1.4-5.8,2-8.7c2.1-9.1,4-18.2,6.3-27.2c0.6-2.5,2.2-4.8,3.6-7c3.3-5.3,5.3-10.7,3.3-17
			c-1.4-4.3-0.3-8.6,1-12.8c2.3-7.3,3.8-14.8,4.5-22.5c0.1-1,0.1-2,0.5-3c4.4-12.3,5-25.5,8.5-38c0.9-3.2,1.7-6.5,2.1-9.8
			c0.9-7.3,2-14.5,4.6-21.4c0.9-2.4,1-5.2,1.6-7.8c1.4-6.8,2.7-13.7,4.1-20.5c0.8-3.9,1.7-7.8,2.1-11.8c0.6-5.3,1.5-10.5,3.5-15.5
			c1.1-2.7,1.4-5.8,1.9-8.7c0.5-3.3,0.1-6.8,1.2-9.9c4.2-12.1,4.7-24.8,7.3-37.2c112.5,0,225,0,338,0c0,90.6,0,181.3,0,271.9
			c-0.6,1.8-1.3,3.7-2,5.5c-1,2.8-2,5.5-3.1,8.3c-0.6,1.5-1.7,3-2,4.5c-1.5,8-6.2,14.6-9.2,22c-5.1,12.5-11.4,24.6-16.4,37.2
			c-2.6,6.4-6,12.5-8.8,18.9c-3,6.6-5.7,13.4-8.6,20c-2.2,5.2-4.3,10.4-6.6,15.5c-5,10.8-10.2,21.6-15.1,32.4
			c-2.9,6.3-5.3,12.9-8.1,19.3c-3,7-6.2,13.9-9.2,20.9c-2.5,5.8-5,11.6-7.3,17.4c-6.7,16.6-13.3,33.3-20.1,49.8
			c-7.7,18.7-15.5,37.4-23.3,56.1c-4.5,10.7-9.1,21.4-13.3,32.3c-3.7,9.6-6.8,19.4-10.3,29.1c-2.9,8.1-6.1,16.1-9.1,24.2
			c-2.2,5.9-4.4,11.8-6.2,17.9c-6.1,20.1-15.7,38.8-24.1,57.9c-6.8,15.5-13.2,31.2-20,46.6c-6.6,14.9-13.6,29.6-20.1,44.5
			c-5.2,11.9-11,23.5-14.5,36c-0.2,0.6-0.3,1.3-0.6,1.9c-2.6,5.7-5.2,11.3-8.1,17.7c-0.9-1.4-2-2.3-2-3.3c-0.2-5-0.4-10-0.2-15
			c0.1-2.3,0.8-4.6,1.5-6.7c1.4-4.1,2.9-8.1,4.5-12.1c2.8-7.1,5.6-14.2,8.5-21.2c2.6-6.5,5.2-12.9,7.7-19.4
			c6.7-18,13.3-36.2,20.1-54.2c4.8-12.7,10.1-25.2,15-37.9c2.2-5.6,4.2-11.2,6.3-16.8c5.8-15.2,11.8-30.3,17.4-45.6
			c3.7-10.3,7.6-20.5,12.1-30.6c3-6.6,3.9-14.2,7.3-20.5c4-7.4,5.3-15.6,9.2-23c4.1-7.8,6.3-16.7,9.3-25.1c1-3.4,5.6-6,1.9-10.8
			C1849.5,569.5,1850.5,573.3,1850.8,577z M1860,550.3c-3.1,5.1-3.1,5.1-0.5,7.9C1859.6,555.6,1859.8,553.5,1860,550.3z
			 M1871.3,523.7c-2.5,1.2-2.7,2.6-2.4,4.2c0.1,0.4,0.8,1.1,1.1,1.1c0.5-0.1,1.2-0.7,1.2-1.1
			C1871.4,526.7,1871.3,525.5,1871.3,523.7z M1863.7,537.9c-0.2,1.5-0.4,2.7-0.4,3.8c0,0.1,1.5,0.5,1.5,0.4c0.3-0.9,0.7-1.8,0.7-2.7
			C1865.5,539,1864.7,538.7,1863.7,537.9z M1745.5,99.7c-0.5,0.9-1,1.6-1.2,2.4c-0.1,0.4,0.6,0.9,1,1.3c0.5-0.7,1.2-1.4,1.5-2.1
			C1747,101,1746.2,100.4,1745.5,99.7z M1735.8,119.9c-0.7-1.1-0.9-1.8-1.3-2.1c-1-0.5-2.3,0.9-2.1,2.4c0.1,0.5,0.6,1,0.9,1.5
			C1734.2,121.1,1735,120.5,1735.8,119.9z M1730.1,128c-0.7-1-1-1.9-1.4-2c-1.7-0.2-2.2,1-2.2,2.4c0,0.5,0.6,1,0.9,1.5
			C1728.4,129.3,1729.2,128.6,1730.1,128z M1739.8,108c-0.5,0.8-1.2,1.5-1.2,2.2c0,0.5,1.1,1,1.7,1.5c0.4-0.8,0.9-1.6,1-2.4
			C1741.3,109,1740.5,108.6,1739.8,108z M1877.1,511.5c-0.3-0.4-0.6-0.8-0.8-1.2c-0.3,0.4-0.6,0.8-0.8,1.3c-0.1,0.1,0.4,0.7,0.4,0.6
			C1876.3,512,1876.7,511.7,1877.1,511.5z M1852.4,417.3c-0.2,0.1-0.5,0.2-0.7,0.3c0.3,0.2,0.7,0.3,1,0.5
			C1852.5,417.8,1852.5,417.5,1852.4,417.3z M1751.3,91.1c-0.1,0.3-0.2,0.5-0.4,0.8c0.4-0.1,0.7-0.3,1.1-0.4
			C1751.8,91.4,1751.6,91.2,1751.3,91.1z"/>
		<path d="M2000,615.9c-1.6-2-1.5-4,0-6C2000,611.9,2000,613.9,2000,615.9z"/>
		<path d="M1476,392.1c-0.7,4.9-1.3,9.7-4.6,13.9c-1.3,1.7-1.7,4.2-2.4,6.4c-0.8,2.7-2.5,4.6-5.2,5.5c0,0,0.3,0.2,0.3,0.3
			c-0.1-4.7,0.7-9.1,3.6-13.2c1.5-2.1,2.2-4.8,3.1-7.2c1-2.7,2.8-4.5,5.4-5.4L1476,392.1z"/>
		<path d="M1476.3,392.4c0.1-2,0.2-4,0.4-5.9c0.4-3.4,2.3-5.4,5.7-5.9l-0.2-0.3c-0.4,1.8-1,3.6-1.3,5.4c-0.5,3-2,5.2-4.9,6.4
			C1476,392.1,1476.3,392.4,1476.3,392.4z"/>
		<path d="M1354.8,542.7c1.6,2.9,0.9,5.5-0.2,8.6C1351.5,547,1351.5,546.7,1354.8,542.7z"/>
		<path d="M1482.4,380.5c-0.1-3.5-0.3-7,1.4-9.9c2.6-0.2,2.4,1.3,2.5,2.5c0.3,3.3-1.7,5.4-4.1,7.1
			C1482.2,380.3,1482.4,380.5,1482.4,380.5z"/>
		<path d="M1491.1,358.3c0.3,1,0.7,1.9,0.7,2.8c-0.1,0.9-0.6,1.7-1,2.7C1488.2,361.4,1488.2,361.4,1491.1,358.3z"/>
		<path d="M1497.5,348c-0.3,0.8-0.5,1.7-0.8,2.6c-0.1,0.2-0.6,0.5-0.7,0.4c-0.4-0.3-1.1-0.8-1.1-1.1c0-0.9,0.3-1.8,0.6-2.7
			c0.1-0.2,0.6-0.5,0.7-0.4C1496.6,347.1,1497,347.5,1497.5,348z"/>
		<path d="M1503.1,335.4c-0.5,0.2-0.9,0.3-1.4,0.5c-0.1-0.3-0.2-0.8-0.2-0.8c0.4-0.2,0.9-0.4,1.4-0.6
			C1503,334.8,1503,335.1,1503.1,335.4z"/>
		<path d="M1986,634c1.2-2.6,2.2-5.4,3.6-7.9c1.4-2.5,3.4-4.7,5.4-7.5c0.6,1,1.5,1.9,1.3,2.3c-2.2,3.9-4.5,7.8-7,11.5
			c-0.6,0.9-2.3,0.9-3.6,1.3C1985.7,633.7,1986,634,1986,634z"/>
		<path d="M1916,547.9c0.3-2.9,0.3-4.7,0.6-6.5c0.1-0.4,0.9-0.9,1.4-0.9c0.5,0,1.2,0.5,1.3,1C1919.8,543.7,1920.1,545.9,1916,547.9z
			"/>
		<path d="M1853.3,974.6c-0.2,0.5-0.4,1-0.6,1.5c-0.5-0.2-1.3-0.3-1.3-0.6c-0.1-0.5,0.2-1.1,0.6-1.4
			C1852.1,974,1852.8,974.4,1853.3,974.6z"/>
		<path fill="#FFFFFF" d="M1228.6,997c3.5,0.8,3.7,3,3.5,4.9c-0.6,7-1.3,13.9-2.2,20.8c-1.1,8.6-2.3,17.1-3.7,25.7
			c-0.7,4.2-1.5,8.5-2.8,12.6c-3,9.8-6.3,19.6-9.5,29.4c-2.9,8.8-6.1,17.6-9,26.4c-2.7,7.9-5.3,15.8-7.8,23.7
			c-2.9,9.2-5.8,18.4-8.5,27.6c-1.6,5.4-2.8,10.9-4.1,16.4c-0.9,3.9-1.8,7.8-2.8,11.6c-0.4,1.6-1,3.2-1.4,4.8
			c-2.7,13-5.3,26.1-8.1,39.1c-2.8,13-5.9,25.9-8.9,38.9c-2.3,9.7-4.7,19.4-6.8,29.2c-2.8,13-5.3,26.1-8,39.1
			c-0.6,2.9-1.5,5.8-2.2,8.7c-0.5,1.9-1.3,3.8-1.7,5.7c-2.5,14.8-4.7,29.6-7.4,44.3c-3,16-4.8,32.2-10.2,47.8
			c-3.4,9.7-5.4,19.9-8.3,29.8c-2.7,9.6-5.7,19.1-8.5,28.7c-0.8,2.9-1.6,5.8-2.4,8.6c-1.3,4.5-2.6,8.9-3.9,13.4
			c-0.5,1.6-1.1,3.1-1.5,4.7c-3.1,12.9-6.7,25.7-10.9,38.3c-1.2,3.4-1.4,7.2-2.3,10.7c-0.3,1.2-0.9,2.7-1.8,3.4
			c-0.7,0.5-3,0.3-3.3-0.2c-0.9-1.7-1.5-3.7-1.6-5.7c-0.3-6.3-0.2-12.7-0.6-19c-0.3-5-0.7-10-1.7-14.8c-1.3-6.4-0.9-12.4,1-18.7
			c3-9.8,5.4-19.9,8-29.9c3.8-14.8,7.6-29.6,11.3-44.5c2.9-11.6,5.4-23.3,8.3-34.9c2.9-11.6,6.3-23.1,9.3-34.7
			c2.1-8,4.1-16.1,6.1-24.2c2.9-11.6,5.5-23.3,8.5-34.9c2.9-11.3,6-22.5,9-33.7c0.7-2.6,1.1-5.2,1.8-7.8c1.3-5.2,2.6-10.3,3.9-15.5
			c0.3-1.3,0.8-2.5,1.2-3.8c2.6-10.6,5.1-21.3,7.9-31.9c2.7-10.3,5.8-20.5,8.7-30.7c2.7-9.6,5.2-19.3,7.8-28.9
			c3.7-13.8,7.6-27.6,11.2-41.4c2.9-10.9,5.3-21.9,8.2-32.9c1.6-6.1,3.5-12.1,5.4-18.1c3-9.5,6.1-19,9.2-28.4
			c2.8-8.5,5.5-17.1,8.2-25.6c2.3-7.3,4-14.7,6.7-21.8C1223.2,1005.2,1226.1,1001.4,1228.6,997z"/>
		<path fill="#FFFFFF" d="M884.2,2263.5c-3.8-1.6-4.6-4.7-5.1-7.5c-3.7-18.8-4.9-37.6,0.5-56.4c0.5-1.6,1.1-3.2,1.4-4.8
			c2.5-15.4,5-30.9,7.6-46.3c0.9-5.2,1.9-10.5,3.4-15.5c2.8-9.9,5.8-19.8,9-29.5c2.7-8.2,5.7-16.3,8.5-24.5c0.8-2.2,2-4.4,2.1-6.6
			c1-14,6.7-27.2,7-41.3c0.1-3,0.6-6,1.5-8.9c2.6-8.7,4.1-17.5,4.2-26.5c0-2,0.2-4.1,1-5.9c2.9-5.9,5-12.1,6-18.5
			c2.7,0.1,2.3,1.8,2.3,2.9c0,4,0.2,8-0.4,12c-2.4,16.2-2.9,32.5-3.3,48.8c-0.2,9.3-0.4,18.7-1.8,27.9c-2.4,15.4-5.8,30.7-8.7,46.1
			c-0.3,1.6-0.7,3.3-0.9,4.9c-1.8,17.6-6.2,34.7-10.8,51.7c-0.6,2.2-1,4.6-1.5,6.8c-3.4,14.6-6.9,29.1-10.3,43.7
			c-0.8,3.2-1.4,6.5-2,9.8c-0.7,3.6-1,7.3-2.2,10.7c-2.2,6.4-3.6,12.8-4.2,19.5C887.3,2258.6,887.2,2261.4,884.2,2263.5z"/>
		<path fill="#FFFFFF" d="M1059.3,1629.6c0.5,2.4,1,4,1.1,5.5c0,10.3-0.6,20.6-2.6,30.8c-1.6,8.2-2.9,16.4-3.3,24.7
			c-0.9,15.5-4.2,30.2-10,44.6c-3.1,7.7-5,15.9-7.9,23.7c-4.1,10.9-6.1,22.4-10.7,33.2c-3.6,8.5-5.1,17.8-7.7,26.7
			c-0.5,1.7-1.5,3.3-2.8,6.1c-3.1-6.2-5.9-11.1-8.1-16.2c-0.8-2-0.7-4.6-0.5-6.8c0.3-3,1.1-5.9,2-8.8c4.8-15.5,9.9-31,14.6-46.6
			c4.8-15.6,9.3-31.2,14-46.8c2.9-9.6,5.9-19.1,8.8-28.6c0.9-2.9,1.5-5.8,2.2-8.7c1.1-4.2,2.3-8.3,3.4-12.5c1.1-4.2,2-8.4,3.1-12.6
			C1055.5,1634.8,1055.2,1631.9,1059.3,1629.6z"/>
		<path fill="#FFFFFF" d="M1758.9,761.7c-2.4-1.5-4.1-2.6-5.8-3.6c0.1-1.1,0-2.2,0.4-3c3.6-6,7.3-11.9,10.9-17.9
			c4.8-7.9,9.7-15.8,14.4-23.9c1.9-3.3,4-6,8.1-6c0.4,0.9,1,1.6,0.9,2.1c-5.6,15.2-11.1,30.5-16.9,45.7c-4.9,12.7-10.2,25.2-15.1,38
			c-4.9,13-9.4,26.2-14.2,39.3c-1.9,5.3-4,10.5-6.1,15.8c-5.4,13.9-11,27.8-16.3,41.8c-2.1,5.6-5.6,9.6-11,12.3
			c-5.3,2.7-10.3,6.1-15.5,9c-1.7,0.9-3.7,1.3-5.6,1.7c-0.5,0.1-1.3-0.4-1.6-0.9c-0.3-0.5-0.4-1.3-0.2-1.9c0.4-0.9,1-1.7,1.6-2.4
			c2.4-2.7,4.9-5.5,7.4-8.1c9.1-9.1,15.1-20,19.6-32c4.5-12.1,10.1-23.9,15.1-35.8c2.8-6.7,5.3-13.6,8.2-20.3
			c5.2-11.9,10.6-23.6,15.8-35.5C1755.1,771.5,1758.1,767.4,1758.9,761.7z"/>
		<path fill="#FFFFFF" d="M1542.5,1248c-3-3.8-2-6.3-0.6-8.6c12.4-20.4,23.2-41.9,37.4-61.2c4.7-6.4,9.4-12.9,13.7-19.6
			c3-4.7,5.2-10,8-14.9c1.8-3.1,4.1-6,6.3-8.8c0.5-0.6,2.1-1,2.7-0.7c1,0.6,1.8,1.7,2.3,2.8c0.4,0.8,0.2,2,0.1,3c-0.3,3-0.4,6-1,8.9
			c-2.1,11.8-4.2,23.6-6.6,35.3c-1.3,6.6-3.9,12.7-8.7,17.7c-3.7,3.9-7,8-10.6,11.9c-5,5.4-10.2,10.4-16.3,14.6
			c-6.5,4.5-12.6,9.8-19,14.6C1548,1244.8,1545.4,1246.2,1542.5,1248z"/>
		<path fill="#FFFFFF" d="M1302.4,819.7c0.4-5.1,1.5-11.6,4.2-17.8c3.5-7.9,6.3-16.1,9.4-24.1c2-5.3,4.1-10.5,6.2-15.7
			c3.1-7.7,6.3-15.3,9.4-23c2.2-5.5,4.8-11,6.6-16.7c3.9-12.7,10.6-24.3,13.8-37.3c0.5-2.2,2.1-3.3,4.4-3.2c2.5,0.1,4.1,2,3.8,4.8
			c-0.8,8.9-1.6,17.9-2.6,26.8c-0.3,2.6-1.1,5.3-2.1,7.7c-8.8,19.3-17.9,38.5-26.6,57.9c-6.9,15.4-13.4,31.1-20.1,46.6
			c-0.1,0.3-0.2,0.7-0.4,0.9c-1,0.8-2,2-3.1,2.1c-2,0.1-2.6-1.7-2.8-3.4C1302.2,823.9,1302.4,822.6,1302.4,819.7z"/>
		<path fill="#FFFFFF" d="M1501.2,1616.2c17.6-38.4,33.9-77.5,54-114.8c2-3.6,4.3-7.1,7.1-11.7c1.1,2.3,1.9,3.4,2,4.5
			c0.1,2.6,0.2,5.4-0.3,7.9c-1.6,8.5-3.2,17-5.5,25.3c-1.2,4.4-3.8,8.5-5.8,12.6c-6.4,13.1-12.2,26.5-19.3,39.3
			c-7,12.8-15.2,24.9-23,37.2C1508.2,1620.2,1506.3,1620.1,1501.2,1616.2z"/>
		<path fill="#FFFFFF" d="M1543.7,575.5c-4.6-5-4.1-10.4-5-15.1c-0.5-2.7,0.5-6,1.7-8.6c2.6-5.4,5.7-10.5,8.8-15.7
			c14.5-24.6,29.5-48.9,45.6-72.4c2.8-4.1,5.7-8.1,9-12.9c1,1.6,2,2.5,2.1,3.5c0,1.6-0.3,3.4-1,4.8c-10.9,21.6-21.9,43.2-33,64.7
			c-8.1,15.6-16.5,31.1-24.8,46.7C1546.4,572,1545.3,573.2,1543.7,575.5z"/>
		<path fill="#FFFFFF" d="M1341.8,851.1c3.6,2.3,4.1,5.3,4.1,8.2c0.1,14.3,0.1,28.5,0.1,42.8c0,4.1-1.5,7.7-3.9,11
			c-5.4,7.5-10.5,15.3-15.7,22.9c-0.2,0.3-0.3,0.6-0.5,0.8c-2.9,3.8-6.2,5.6-8.1,4.1c-2.6-1.9-1.9-4.8-1.6-7.3
			c0.6-4.9,1.4-9.8,2.3-14.7c0.4-2.3,1.3-4.5,1.5-6.8c1.2-14.8,7-28.2,12.1-41.8c1.1-2.8,1.6-5.8,2.6-8.6
			C1336,857.8,1337.3,853.6,1341.8,851.1z"/>
		<path fill="#FFFFFF" d="M1426.1,646.4c2,5.8,0.9,9.6-0.1,13.5c-4.2,16.7-9,33.3-14.4,49.7c-3,9.1-5.1,18.5-8,27.7
			c-3.7,12-7.7,24-11.7,35.9c-0.3,0.8-1.3,1.6-2.1,1.7c-0.8,0.1-2-0.5-2.4-1.2c-4.9-8.4-7-16.6-2.7-26.4
			c5.7-13.1,9.8-26.8,14.8-40.1c4.9-13,10-26,14.9-39c0.9-2.5,1.7-5,2.3-7.6C1418,655.2,1421.6,651.5,1426.1,646.4z"/>
		<path fill="#FFFFFF" d="M1287.1,947.1c-0.3,9.1-2,17.7-5.6,26.2c-3.5,8.2-5.5,17.1-8.3,25.5c-2.9,8.5-6.2,16.8-9,25.3
			c-3.1,9.1-5.8,18.3-8.7,27.5c-0.6,1.9-1,3.9-3.4,4.4c-1.8,0.4-3.3-1.4-4.1-4.8c-1.3-5.9-1.6-11.8,0.6-17.7
			c3.9-10.9,7.6-22,11.3-33c3-8.8,5.8-17.7,8.9-26.4c4.1-11.6,8.4-23.1,12.6-34.6c0.2-0.6,0.6-1.3,1.2-1.6c0.8-0.5,1.9-1,2.7-0.8
			c0.8,0.2,1.8,1.2,1.9,2C1287.2,941.8,1287.1,944.5,1287.1,947.1z"/>
		<path fill="#FFFFFF" d="M1681.6,998.7c0.6,1,1.8,2,1.7,3c-0.4,3.3-0.9,6.6-1.9,9.7c-3.1,9.8-6.5,19.5-9.6,29.3
			c-4.9,15.8-9.7,31.7-16.2,47c-1.2,2.7-1.6,5.8-2.6,8.6c-0.5,1.4-1.5,2.7-2.1,3.8c-2.7-0.4-3.4-2.1-3.5-3.7
			c-0.7-7.9-1.6-15.9-1.7-23.8c0-3.5,1.3-7.2,2.5-10.6c8-21.8,17.6-42.9,31.1-61.9C1679.7,999.5,1680.5,999.3,1681.6,998.7z"/>
		<path fill="#FFFFFF" d="M1039.1,1785.9c0,3.8,0.2,7.7,0,11.5c-1,15.2-2.6,30.4-3.1,45.7c-0.4,10.8-3.8,20.8-6.4,31.1
			c-0.1,0.6-0.6,1.2-1,1.7c-0.4,0.4-1.1,0.7-2.2,1.4c-1.1-1.4-3-2.7-3.3-4.3c-1.7-8.4-3.2-16.9-4.5-25.4c-0.3-2.2,0.2-4.7,0.8-6.9
			c2.3-7.6,4.5-15.2,7.5-22.6c1.6-4,3-8,3.9-12.2c0.6-2.9,1.5-5.9,3.2-8.2C1036.6,1793.9,1038.5,1790.3,1039.1,1785.9z"/>
		<path fill="#FFFFFF" d="M1343.4,792.2c3.2,6.3,2.6,12.8,0,18.9c-4.7,11.3-10.1,22.3-14.9,33.5c-3,7-5.7,14.1-8.3,21.2
			c-1.4,3.9-5.1,5.5-7.8,10.2c0-2.8-0.2-3.8,0-4.6c8.4-26.8,18.4-53,29.4-78.8C1342,792.4,1342.5,792.4,1343.4,792.2z"/>
		<path fill="#FFFFFF" d="M1597.7,1372c0.1,2,0.5,3.6,0.2,5c-1.3,6.2-2.2,12.5-4.2,18.4c-2.8,8.2-7.2,15.6-13.1,22
			c-1.4,1.5-3.8,2.2-6.7,3.7c0-2.2-0.4-3.5,0.1-4.5c3.5-8.2,7.2-16.3,10.9-24.4c1.4-3,2.8-6,4.1-9
			C1590.9,1378.2,1590.9,1378.2,1597.7,1372z"/>
		<path fill="#FFFFFF" d="M1277,902.8c-2.6-8.7-1.8-15.6-0.9-22.3c0.3-2.4,2.6-4.5,4.2-6.6c0.5-0.6,1.9-0.9,2.7-0.7
			c0.8,0.2,1.9,1.2,2,1.9C1285.3,884.5,1285.1,893.7,1277,902.8z"/>
		<path fill="#FFFFFF" d="M1717,953.7c0.1,1.5,0.8,3.4,0.1,4.4c-3.2,4.7-4.8,10-6,15c-2.4,0.7-3.1-0.2-3.2-1.7
			c-0.2-3.7,0.3-7.2,2.4-10.4c1.7-2.4,3.1-5,4.6-7.5C1715.7,953.5,1716.4,953.6,1717,953.7z"/>
		<path fill="#FFFFFF" d="M1705.4,984.2c-0.1,0.6,0,1.3-0.2,1.8c-0.2,0.5-0.7,1.1-1.1,1.2c-0.3,0.1-1.1-0.6-1.1-1
			c-0.1-0.9,0-1.9,0.3-2.7c0.1-0.4,0.9-0.6,1.4-0.9C1704.9,983.1,1705.1,983.7,1705.4,984.2z"/>
		<path fill="#FFFFFF" d="M1609.2,446c0.2,0.2,0.4,0.5,0.4,0.7c0,0.2-0.2,0.5-0.4,0.8c-0.3-0.4-0.5-0.7-0.8-1.1
			C1608.7,446.3,1608.9,446.2,1609.2,446z"/>
		<path d="M1850.8,577c-0.4-3.7-1.3-7.6,1.7-11c3.7,4.7-0.9,7.4-1.9,10.8C1850.7,576.8,1850.8,577,1850.8,577z"/>
		<path d="M1860,550.3c-0.2,3.3-0.4,5.3-0.5,7.9C1856.9,555.4,1856.9,555.4,1860,550.3z"/>
		<path d="M1871.3,523.7c0,1.8,0.1,3-0.1,4.2c-0.1,0.5-0.7,1.1-1.2,1.1c-0.3,0.1-1.1-0.6-1.1-1.1
			C1868.6,526.3,1868.8,524.9,1871.3,523.7z"/>
		<path d="M1863.7,537.9c1,0.8,1.9,1.2,1.9,1.5c0,0.9-0.4,1.8-0.7,2.7c0,0.1-1.5-0.2-1.5-0.4
			C1863.3,540.6,1863.5,539.4,1863.7,537.9z"/>
		<path d="M1745.5,99.7c0.6,0.7,1.4,1.3,1.3,1.6c-0.3,0.8-1,1.4-1.5,2.1c-0.4-0.4-1.1-1-1-1.3
			C1744.5,101.3,1745.1,100.6,1745.5,99.7z"/>
		<path d="M1735.8,119.9c-0.8,0.6-1.6,1.2-2.5,1.8c-0.3-0.5-0.9-1-0.9-1.5c-0.2-1.5,1.2-3,2.1-2.4
			C1735,118,1735.2,118.8,1735.8,119.9z"/>
		<path d="M1730.1,128c-0.9,0.6-1.7,1.3-2.6,2c-0.3-0.5-0.9-1-0.9-1.5c-0.1-1.4,0.5-2.6,2.2-2.4C1729.1,126,1729.4,126.9,1730.1,128
			z"/>
		<path d="M1739.8,108c0.7,0.6,1.5,1,1.5,1.3c-0.2,0.8-0.7,1.6-1,2.4c-0.6-0.5-1.7-1-1.7-1.5C1738.5,109.5,1739.3,108.8,1739.8,108z
			"/>
		<path d="M1877.1,511.5c-0.4,0.3-0.8,0.5-1.2,0.8c0,0-0.5-0.5-0.4-0.6c0.2-0.5,0.5-0.9,0.8-1.3
			C1876.5,510.7,1876.8,511.1,1877.1,511.5z"/>
		<path d="M1647.7,289.8c0.7-1,1.4-2.1,2.3-3c0.2-0.2,1,0.2,1.5,0.3c-0.1,0.6-0.1,1.5-0.4,1.6c-1.1,0.4-2.4,0.6-3.6,0.8
			C1647.5,289.6,1647.7,289.8,1647.7,289.8z"/>
		<path d="M1852.4,417.3c0.1,0.2,0.2,0.5,0.2,0.7c-0.3-0.2-0.7-0.3-1-0.5C1851.9,417.4,1852.1,417.4,1852.4,417.3z"/>
		<path d="M1751.3,91.1c0.2,0.1,0.5,0.2,0.7,0.3c-0.4,0.1-0.7,0.3-1.1,0.4C1751.1,91.6,1751.2,91.4,1751.3,91.1z"/>
	</g>
</g>
</svg>
