<svg xmlns="http://www.w3.org/2000/svg" width="1085" height="973" viewBox="0 0 1085 973" version="1.1">
	<path d="M 172 5.190 C 151.632 10.397, 125.747 18.904, 117.155 23.214 C 110.663 26.469, 106.164 31.078, 102.474 38.250 C 101.413 40.313, 100.198 42, 99.773 42 C 99.348 42, 98.992 42.563, 98.982 43.250 C 98.972 43.938, 97.734 46.342, 96.232 48.593 C 94.729 50.845, 91.925 55.286, 90 58.462 C 82.084 71.525, 72.368 82.286, 56.500 95.565 C 52.650 98.787, 48.150 102.676, 46.500 104.207 C 44.850 105.738, 43.168 106.993, 42.761 106.995 C 42.355 106.998, 41.230 107.647, 40.261 108.438 C 33.594 113.882, 26.662 119.112, 21.593 122.524 C 11.934 129.025, 3.543 137.988, 2.020 143.430 C 0.377 149.298, 1.548 150.997, 5.467 148.430 C 8.052 146.736, 8.307 146.750, 12.610 148.841 C 20.152 152.505, 34.328 154.058, 50.751 153.019 C 58.589 152.523, 65.440 151.846, 65.976 151.515 C 67.719 150.438, 99.631 150.845, 106.154 152.028 C 109.644 152.661, 115.875 154.279, 120 155.624 C 133.430 160.004, 134.355 160.268, 137.949 160.740 C 139.902 160.997, 143.300 161.829, 145.500 162.589 C 147.700 163.349, 150.332 163.977, 151.350 163.985 C 154.774 164.012, 159.558 170.193, 162.922 178.937 C 168.404 193.181, 167.076 199.506, 153.151 225.500 C 150.204 231, 146.323 238.650, 144.525 242.500 C 142.727 246.350, 139.677 252.875, 137.748 257 C 133.514 266.051, 129.967 273.943, 127.413 280 C 124.974 285.784, 109.079 317.093, 107.719 318.792 C 107.151 319.502, 105.707 321.977, 104.512 324.292 C 103.316 326.606, 101.286 330.300, 100.001 332.500 C 98.715 334.700, 96.621 338.423, 95.347 340.774 C 94.073 343.125, 91.530 347.400, 89.696 350.274 C 81.102 363.744, 72.577 382.400, 67.658 398.500 C 63.698 411.463, 63.047 417.166, 63.430 435.500 C 63.846 455.374, 64.020 457.009, 67.406 472.725 C 72.491 496.334, 85.562 520.830, 107.336 547.563 C 121.508 564.963, 141.579 584.418, 156.309 595.034 C 158.954 596.940, 163.229 600.087, 165.809 602.027 C 170.999 605.930, 187.533 616.610, 193 619.591 C 194.925 620.641, 196.725 621.749, 197 622.053 C 197.275 622.357, 200.425 624.607, 204 627.053 C 207.575 629.499, 210.725 631.748, 211 632.052 C 212.178 633.351, 221.187 639, 222.082 639 C 222.621 639, 223.321 639.672, 223.636 640.494 C 223.952 641.316, 224.560 641.772, 224.987 641.508 C 225.415 641.244, 226.901 641.921, 228.290 643.014 C 229.679 644.106, 231.532 645, 232.408 645 C 233.283 645, 234 645.370, 234 645.823 C 234 646.990, 262.559 661, 264.939 661 C 265.561 661, 267.156 661.711, 268.483 662.581 C 269.810 663.450, 271.482 664.275, 272.198 664.413 C 272.914 664.551, 276.143 665.864, 279.374 667.332 C 282.605 668.799, 286.453 670, 287.924 670 C 289.396 670, 291.027 670.384, 291.550 670.853 C 292.596 671.791, 300.075 673.943, 304.004 674.435 C 305.377 674.607, 310.325 675.696, 315 676.854 C 327.345 679.913, 331.888 680.842, 337.500 681.456 C 340.250 681.757, 344.750 682.249, 347.500 682.550 C 357.749 683.672, 360.803 685.052, 362.518 689.336 C 363.546 691.906, 363.853 694.495, 363.412 696.875 C 361.933 704.852, 362.776 719.502, 365.491 733 C 370.707 758.933, 368.583 781.210, 357.673 815 C 354.745 824.067, 346.055 845.826, 344.305 848.473 C 343.587 849.557, 343 851.245, 343 852.223 C 343 853.200, 342.657 854, 342.237 854 C 341.818 854, 341.030 854.826, 340.487 855.836 C 336.337 863.556, 334.031 869.325, 333.125 874.254 C 331.880 881.024, 330.935 883.016, 326.187 888.889 C 322.419 893.549, 310.322 901.818, 300.695 906.315 C 297.502 907.806, 287.827 911.315, 279.195 914.112 C 270.563 916.909, 262.600 919.566, 261.500 920.015 C 257.796 921.530, 249.554 923.159, 241.237 924.022 C 236.279 924.537, 230.879 925.834, 227.737 927.265 L 222.500 929.651 229.662 929.575 C 233.600 929.534, 237.161 929.836, 237.574 930.246 C 239.510 932.169, 235.898 935.817, 229.340 938.560 C 219.980 942.475, 213.903 945.899, 211.875 948.400 C 209.640 951.156, 210.214 951.551, 213.681 949.644 C 215.231 948.791, 220.325 947.205, 225 946.119 C 235.748 943.624, 254.204 942.852, 310.782 942.533 L 354.063 942.289 356.532 939.970 C 357.889 938.695, 359 936.695, 359 935.526 C 359 934.357, 359.404 932.972, 359.899 932.450 C 360.393 931.927, 361.100 927.225, 361.471 922 C 361.842 916.775, 362.678 911.375, 363.329 910 C 364.993 906.490, 370.034 906.071, 373.029 909.193 C 376.439 912.749, 378.992 917.266, 378.996 919.750 C 379.001 922.764, 381.536 922.638, 383.578 919.521 C 386.062 915.730, 384.082 903.094, 379.517 893.602 C 373.530 881.155, 374.314 870.449, 383.222 843 C 388.396 827.058, 396.842 805.301, 404.086 789.261 C 405.139 786.929, 406 784.787, 406 784.500 C 406 784.213, 406.850 782.071, 407.889 779.739 C 408.929 777.408, 410.526 773.523, 411.438 771.107 C 413.533 765.562, 428.430 736.622, 433.627 728 C 435.782 724.425, 439.335 717.581, 441.522 712.790 C 445.323 704.468, 447 702.236, 447 705.500 C 447 706.325, 447.389 707, 447.864 707 C 448.339 707, 449.534 709.138, 450.520 711.750 C 452.454 716.880, 456.229 725.504, 458.860 730.805 C 459.762 732.623, 462.179 736.223, 464.232 738.805 C 466.284 741.387, 468.415 744.524, 468.967 745.776 C 470.748 749.816, 474.011 771.102, 474.590 782.458 C 474.899 788.531, 475.305 793.999, 475.491 794.609 C 476.265 797.149, 473.734 837.507, 472.518 842 C 472.295 842.825, 471.634 848.450, 471.050 854.500 C 470.466 860.550, 469.754 866.625, 469.467 868 C 469.181 869.375, 468.719 872.660, 468.441 875.300 C 467.691 882.420, 460.253 896.567, 453.537 903.647 C 452.416 904.827, 449.925 907.701, 448 910.032 C 437.800 922.383, 420.159 932.514, 403.500 935.585 C 402.950 935.686, 402.275 935.835, 402 935.915 C 401.725 935.996, 398.350 936.260, 394.500 936.503 C 384.837 937.112, 371.641 938.986, 370.038 939.976 C 367.978 941.250, 369.639 944, 372.469 944 C 375.824 944, 375.668 944.697, 371.489 948.394 C 367.944 951.529, 365.531 958, 367.906 958 C 368.542 958, 369.321 957.328, 369.636 956.506 C 369.952 955.684, 370.632 955.273, 371.149 955.592 C 371.665 955.911, 372.644 955.711, 373.324 955.146 C 375.824 953.071, 385.351 953.544, 390.818 956.014 C 396.669 958.659, 397.139 960.114, 394.375 967.021 C 392.416 971.917, 393.176 973.122, 396.345 970.146 C 398.258 968.349, 400.570 967.776, 409.091 966.986 C 421.911 965.799, 438.487 963.435, 439.834 962.603 C 440.384 962.263, 444.584 961.300, 449.167 960.464 C 457.478 958.948, 464.815 957.585, 470.500 956.500 C 472.150 956.186, 474.850 955.524, 476.500 955.030 C 480.943 953.699, 489.703 952.122, 496.464 951.436 C 508.515 950.212, 511.222 947.004, 511.429 933.707 C 511.629 920.836, 513.948 917.419, 520.313 920.614 C 522.066 921.493, 525.851 924.501, 528.725 927.298 C 531.599 930.095, 534.232 932.102, 534.575 931.758 C 535.875 930.458, 532.518 923.364, 526.372 914.425 C 522.867 909.328, 520 904.854, 520 904.483 C 520 904.112, 519.159 902.614, 518.131 901.154 C 517.103 899.694, 515.925 897.375, 515.512 896 C 515.099 894.625, 513.847 891.475, 512.729 889 C 508.395 879.408, 506.827 871.039, 506.281 854.593 C 505.236 823.100, 509.130 792.399, 519.420 751 C 520.719 745.775, 522.517 738.315, 523.415 734.423 C 525.961 723.391, 526.111 722.749, 527.136 718.500 C 527.667 716.300, 528.485 712.475, 528.954 710 C 529.423 707.525, 530.947 701, 532.341 695.500 C 533.734 690, 536.526 678.975, 538.545 671 C 540.564 663.025, 542.505 656.204, 542.858 655.843 C 543.211 655.482, 545.075 654.963, 547 654.690 C 552.306 653.937, 587.148 647.656, 596 645.858 C 604.853 644.059, 640.136 633.984, 644.500 632.009 C 646.700 631.013, 653.225 628.088, 659 625.508 C 664.775 622.929, 671.075 620.075, 673 619.167 C 674.925 618.259, 676.725 617.510, 677 617.503 C 677.275 617.496, 685.825 612.993, 696 607.495 C 706.175 601.998, 716.413 596.872, 718.750 596.104 C 721.087 595.337, 723 594.324, 723 593.854 C 723 593.384, 723.943 593, 725.096 593 C 726.248 593, 728.386 592.387, 729.846 591.639 C 735.786 588.592, 740.097 587.785, 752.500 587.399 C 778.921 586.577, 782.316 586.235, 789.715 583.657 C 797.965 580.782, 811.718 573.539, 820.500 567.443 C 828.572 561.841, 836.159 558.099, 843.990 555.860 C 853.425 553.162, 859.982 553.465, 870 557.062 C 886.683 563.053, 898.763 566.864, 917 571.891 C 927.175 574.695, 937.750 577.645, 940.500 578.445 C 945.376 579.864, 952.137 581.079, 964.677 582.790 C 968.075 583.254, 974.150 583.280, 978.177 582.849 C 982.205 582.418, 987.975 581.838, 991 581.561 C 997.864 580.932, 1007.337 578.489, 1007.754 577.239 C 1007.926 576.723, 1010.239 576.509, 1012.895 576.764 C 1018.320 577.285, 1021.783 575.642, 1024.004 571.493 C 1025.178 569.298, 1026.005 568.997, 1030.919 568.976 C 1037.081 568.950, 1043.960 567.622, 1044.896 566.279 C 1045.228 565.802, 1050.675 565.432, 1057 565.456 C 1071.461 565.511, 1079.186 563.474, 1081.502 558.996 C 1083.030 556.041, 1083.029 556.039, 1079.265 554.418 C 1075.587 552.833, 1066.560 550.303, 1054.500 547.477 C 1051.200 546.704, 1041.975 543.999, 1034 541.467 C 1026.025 538.935, 1017.700 536.377, 1015.500 535.783 C 1013.300 535.190, 1010.150 534.133, 1008.500 533.436 C 1006.850 532.739, 1002.350 530.922, 998.500 529.400 C 991.648 526.690, 973.939 517.830, 965 512.639 C 962.525 511.202, 959.825 509.720, 959 509.347 C 957.417 508.630, 950.653 503.536, 947.917 501 C 940.134 493.785, 929.465 484.349, 928.356 483.697 C 927.604 483.256, 925.754 481.747, 924.245 480.345 C 922.735 478.942, 919.813 476.931, 917.750 475.877 C 913.138 473.519, 912.949 472.022, 917.250 471.933 C 919.038 471.895, 921.850 471.715, 923.500 471.531 C 925.150 471.347, 929.875 470.933, 934 470.610 C 938.125 470.288, 945.775 469.686, 951 469.274 C 962.974 468.328, 985.047 468.294, 995.500 469.205 C 999.900 469.589, 1010.121 471.050, 1018.214 472.451 C 1035.673 475.476, 1037 475.538, 1037 473.335 C 1037 471.661, 1025.890 460, 1024.295 460 C 1023.825 460, 1022.793 459.100, 1022 458 C 1021.207 456.900, 1020.020 456, 1019.363 456 C 1018.705 456, 1018.017 455.642, 1017.833 455.204 C 1017.237 453.781, 1007.751 447, 1006.356 447 C 1005.610 447, 1005 446.540, 1005 445.979 C 1005 445.417, 1003.762 444.413, 1002.250 443.749 C 1000.737 443.084, 999.275 442.307, 999 442.020 C 997.642 440.608, 972.818 429, 971.154 429 C 970.519 429, 970 428.550, 970 428 C 970 427.450, 969.334 427, 968.520 427 C 966.825 427, 955.860 422.792, 948.554 419.338 C 945.833 418.052, 943.048 417, 942.365 417 C 941.015 417, 925.743 412.372, 922.500 410.979 C 921.400 410.507, 915.775 408.734, 910 407.039 C 904.225 405.344, 898.150 403.243, 896.500 402.369 C 894.850 401.495, 891.250 400.430, 888.500 400.002 C 885.750 399.574, 880.125 398.241, 876 397.041 C 858.785 392.030, 827.969 384.037, 808 379.404 C 780.746 373.079, 760.882 369.017, 757.168 369.008 C 755.335 369.004, 750.638 367.597, 746.731 365.882 C 733.703 360.164, 724.032 357.396, 696.786 351.589 C 690.343 350.216, 682.649 347.947, 679.689 346.546 C 676.729 345.146, 674.057 344, 673.752 344 C 673.446 344, 669.440 342.258, 664.848 340.128 C 660.257 337.999, 652 334.582, 646.500 332.536 C 641 330.490, 635.150 328.228, 633.500 327.510 C 628.526 325.345, 614.767 321.124, 610.500 320.454 C 601.377 319.023, 594.364 318.329, 591.393 318.565 C 588.792 318.771, 588.318 318.500, 588.703 317.026 C 589.868 312.573, 577.142 307.025, 565.500 306.911 C 561.650 306.873, 559.063 306.615, 559.750 306.338 C 561.567 305.605, 561.281 303.215, 559.250 302.167 C 556.428 300.710, 549.897 299.732, 544.262 299.924 C 539.828 300.074, 539.118 299.856, 539.638 298.500 C 540.699 295.737, 536.119 292.201, 528.109 289.597 C 518.831 286.582, 503.794 284, 495.516 284 L 489.384 284 488.442 279.835 C 486.915 273.083, 483.826 271.500, 472.178 271.500 C 466.855 271.500, 460.391 271.825, 457.813 272.222 C 453.581 272.874, 453.160 272.764, 453.484 271.082 C 454.106 267.855, 451.150 265.100, 445.203 263.363 C 440.190 261.900, 438.229 261.845, 429 262.916 C 423.225 263.586, 416.424 264.794, 413.887 265.602 C 410.437 266.700, 408.168 266.830, 404.887 266.117 C 394.484 263.858, 376.151 268.714, 357.865 278.573 C 353.349 281.008, 349.336 283, 348.949 283 C 348.562 283, 347.685 282.325, 347 281.500 C 346.315 280.675, 344.308 280, 342.538 280 C 338.757 280, 335.822 282.877, 328.763 293.500 C 326.205 297.350, 323.524 301.199, 322.806 302.053 C 320.473 304.828, 312.660 309.580, 305.507 312.573 C 299.426 315.119, 297.266 315.500, 288.933 315.500 C 280.041 315.500, 279.032 315.291, 274.925 312.597 C 265.905 306.681, 262.149 300.730, 258.452 286.500 C 256.137 277.588, 256.154 260.718, 258.486 252.695 C 259.383 249.610, 260.315 246.055, 260.558 244.793 C 261.645 239.146, 270.136 212.691, 272.122 208.764 C 272.605 207.809, 273 206.527, 273 205.915 C 273 205.303, 273.667 203.384, 274.481 201.651 C 275.898 198.638, 279.668 182.366, 280.656 175 C 281.415 169.342, 281.454 142.944, 280.711 137.410 C 278.126 118.158, 273.246 100.969, 265.828 85 C 263.657 80.325, 261.570 76.017, 261.190 75.427 C 254.623 65.217, 244.093 50.350, 241.470 47.585 C 240.904 46.988, 236.487 41.458, 231.655 35.297 C 226.823 29.135, 221.965 23.806, 220.859 23.455 C 219.754 23.104, 219.068 22.599, 219.335 22.332 C 219.926 21.740, 214.048 16, 212.852 16 C 212.383 16, 211.997 15.438, 211.994 14.750 C 211.987 13.355, 207.780 10.620, 201 7.601 C 198.525 6.499, 196.187 5.139, 195.804 4.577 C 194.570 2.768, 180.006 3.142, 172 5.190" stroke="none" fill="black" fill-rule="evenodd"/>
</svg>