<?xml version="1.0" encoding="UTF-8" standalone="no"?>
<!-- Created with Inkscape (http://www.inkscape.org/) -->

<svg
   xmlns:svg="http://www.w3.org/2000/svg"
   xmlns="http://www.w3.org/2000/svg"
   version="1.1"
   width="100%"
   height="100%"
   viewBox="0 0 110.5 88.1"
   id="Layer_1"
   xml:space="preserve"><defs
   id="defs7" />
<path
   d="M 105,17.5 C 102.9,15.4 102.1,14.4 99.1,14.2 97,14 95.1,13.8 93,14 c -4.7,0.4 -9.4,1.6 -13.9,3 -9.2,3 -18.4,5.7 -27.8,8.1 0.1,-0.5 0.2,-0.9 0.3,-1.4 -0.4,0.2 -0.8,0.3 -1.2,0.3 0,-0.3 0,-0.7 0,-1 -0.5,0.2 -0.9,0.5 -1.4,0.7 0.2,-0.7 0.3,-1.5 0.5,-2.2 -0.6,0.5 -1.2,0.9 -1.9,1.2 0.1,-0.7 -0.1,-1.4 -0.3,-2.1 -0.3,0.5 -0.6,1 -0.9,1.5 -0.3,-0.3 -0.6,-0.6 -0.9,-1 -0.1,0.3 -0.2,0.7 -0.3,1 -0.3,-0.3 -0.6,-0.7 -0.9,-1 -0.1,0.5 -0.1,0.9 -0.2,1.4 -0.4,-0.5 -0.7,-1.1 -0.9,-1.7 -0.3,0.5 -0.6,1 -0.9,1.5 -0.3,-0.2 -0.5,-0.4 -0.7,-0.7 -0.1,0.3 -0.2,0.7 -0.3,1 -0.3,-0.2 -0.6,-0.5 -0.9,-0.7 -0.1,0.3 -0.1,0.6 0,0.9 -0.2,-0.3 -0.4,-0.6 -0.7,-0.9 -0.1,0.3 -0.1,0.6 -0.2,0.9 -0.2,-0.3 -0.3,-0.5 -0.3,-0.9 -0.1,0.3 -0.1,0.6 -0.2,0.9 -0.1,-0.2 -0.2,-0.5 -0.3,-0.7 -0.1,0.2 -0.2,0.5 -0.3,0.7 -0.1,-0.2 -0.2,-0.3 -0.3,-0.5 -0.2,0.3 -0.3,0.7 -0.5,1 -0.2,-0.3 -0.3,-0.7 -0.5,-1 -0.1,0.4 -0.1,0.8 -0.2,1.2 -0.1,-0.2 -0.2,-0.3 -0.3,-0.5 0,0.3 -0.2,0.5 -0.3,0.7 -0.2,-0.2 -0.4,-0.4 -0.5,-0.7 -0.1,0.2 -0.2,0.3 -0.3,0.5 -0.1,-0.5 -0.4,-0.8 -0.9,-1 -0.1,0.4 -0.1,0.8 -0.2,1.2 -0.1,-0.2 -0.1,-0.5 -0.2,-0.7 -0.1,0.3 -0.2,0.7 -0.3,1 -0.3,-0.3 -0.6,-0.6 -0.9,-0.9 0.1,0.3 0,0.6 0,0.9 -0.1,-0.2 -0.2,-0.5 -0.3,-0.7 0,0.6 -1.3,1.3 -2.2,1 0,0.2 0,0.5 0,0.7 -0.3,-0.1 -0.6,-0.3 -0.9,-0.3 0,0.2 0,0.5 0,0.7 -0.8,-0.8 -0.9,0.7 -1.7,-0.2 0,0.2 0,0.5 0,0.7 -0.2,-0.2 -0.5,-0.3 -0.7,-0.5 -0.1,0.5 -0.1,0.9 -0.2,1.4 -0.2,-0.2 -0.3,-0.5 -0.5,-0.7 0,0.7 -0.6,0.4 -1,0.2 0.1,0.2 0.2,0.4 0.2,0.7 -0.3,-0.1 -0.6,-0.3 -0.9,-0.5 0.1,0.3 0.2,0.6 0.2,0.9 -0.3,-0.1 -0.7,-0.2 -1,-0.3 0.1,0.4 0.4,0.6 0.7,0.9 -0.6,0 -0.5,-0.3 -0.5,0.5 -0.2,-0.2 -0.4,-0.4 -0.5,-0.7 -0.1,0.3 -0.1,0.6 -0.2,0.9 -0.1,-0.3 -0.2,-0.6 -0.3,-0.9 0,0.3 -0.1,0.6 -0.2,0.9 -0.2,-0.2 -0.3,-0.5 -0.5,-0.7 0.1,0.8 -0.8,1 -0.5,1.7 -0.2,-0.2 -0.4,-0.4 -0.5,-0.7 0,0.2 0,0.5 0,0.7 -0.2,-0.2 -0.3,-0.4 -0.3,-0.7 0,0.8 -0.2,0.2 -0.5,0.2 0,0.2 0,0.5 0,0.7 -0.1,-0.1 -0.3,-0.2 -0.5,-0.2 0.1,0.2 0.2,0.4 0.2,0.7 -0.7,0 -0.6,0.1 -0.9,0.3 -0.2,-0.2 -0.5,-0.3 -0.7,-0.5 0,0.2 0,0.5 0.2,0.7 -0.3,-0.2 -0.5,-0.4 -0.9,-0.5 0.4,1.2 -0.7,0.8 0.3,1.9 -1.3,0.2 -1.2,0.6 -0.9,1.9 -1,0 -0.8,0.9 -1.9,0.3 0.1,0.2 0.2,0.4 0.2,0.7 -1.1,0 -0.7,0.6 -0.7,1.5 -0.1,-0.1 -0.2,-0.1 -0.3,-0.2 0.1,0.3 0.2,0.7 0.2,1 -0.9,-0.3 -7.3,-8.5 -6.4,-4.1 0.2,0.8 5.5,5.8 5.5,5.8 -0.8,0 -4.9,-4 -5.5,-4.6 -0.9,-0.8 -5,-6.6 -6.5,-6.1 -1.8,0.6 4,5.4 4.6,5.9 0.6,0.5 7.1,5.3 5.7,5.6 0.5,0 0.7,0.3 0.2,0.3 0.4,0 1.3,0.5 0.5,0.5 0.2,0.1 0.5,0.1 0.7,0.2 -0.3,0.2 -0.6,0.5 -0.9,0.7 0.8,0 0.3,0.5 0.2,0.9 0.2,0.1 0.5,0.1 0.7,0.2 -0.4,0.4 -0.4,0.5 0.2,0.5 -0.3,0.2 -0.6,0.4 -0.9,0.7 0.6,0 1.2,0.3 0.3,0.3 0.6,0 0.5,0.3 0.2,0.7 0.4,-0.1 0.8,-0.1 1.2,-0.2 -0.3,0.2 -0.5,0.4 -0.7,0.7 0.3,-0.1 0.6,-0.2 0.9,-0.2 -0.1,0.2 -0.2,0.5 -0.3,0.7 0.6,0 0.2,0.4 0.2,0.9 0.2,-0.1 0.3,-0.1 0.5,-0.2 -0.1,0.3 -0.3,0.6 -0.5,0.9 0.2,-0.1 0.4,-0.2 0.7,-0.2 -0.1,0.2 -0.2,0.5 -0.3,0.7 0.1,0 0.2,-0.1 0.3,-0.2 -0.1,0.2 -0.2,0.5 -0.3,0.7 0.2,-0.1 0.3,-0.2 0.5,-0.3 -0.1,0.3 -0.2,0.6 -0.3,0.9 0.3,-0.1 0.7,-0.2 1,-0.3 -0.1,0.3 -0.2,0.7 -0.3,1 0.2,-0.1 0.3,-0.1 0.5,-0.2 -0.2,0.4 -0.3,0.8 -0.5,1.2 0.6,-0.6 0.5,0.1 0.5,0.5 0.1,-0.1 0.2,-0.2 0.3,-0.2 0,0.1 0,1.7 0,1 0,0.8 0.1,1.5 0.3,2.2 0.1,-0.2 0.3,-0.4 0.3,-0.7 0,1 1,-0.5 1,-0.9 0,0.5 0.1,1 0.3,1.5 0.1,-0.3 0.2,-0.6 0.3,-0.9 0.1,0.3 0.1,0.6 0.2,0.9 0,-0.7 0.3,-0.5 0.3,0.2 0.3,-0.3 0.7,0 0.7,-0.7 0.1,0.2 0.2,0.3 0.3,0.5 0,-0.4 0.2,-0.8 0.5,-1 0.5,2.9 2.6,4.1 2.6,0.2 1,1 1.7,2.4 3.1,3.1 -0.1,-0.2 -0.1,-0.5 -0.2,-0.7 0.1,0.3 0.3,0.5 0.5,0.7 0,-0.3 0,-0.6 0,-0.9 0,0.5 0.3,0.6 0.3,0 0.1,0.2 0.1,0.3 0.2,0.5 0,-0.7 0.3,0 0.5,0 0,-1.5 4,-1.8 2.7,2.1 0.6,0 0.2,0.2 0.2,0.7 0.2,-0.1 0.3,-0.2 0.5,-0.3 -0.1,0.4 -0.4,0.6 -0.7,0.9 0.2,-0.1 0.5,-0.2 0.7,-0.3 -0.1,0.3 -0.2,0.6 -0.5,0.9 0.2,-0.1 0.3,-0.1 0.5,-0.2 -0.1,0.1 0.1,2.4 0,2.9 0.9,-0.9 1.1,3.5 1.7,4.1 1.1,-1.1 3.6,-0.5 2.2,-3.3 0.3,0.1 0.6,0.2 0.9,0.2 -0.1,-0.4 -0.2,-0.8 -0.5,-1.2 0.3,0.1 0.6,0.3 0.9,0.3 0,-0.2 0,-0.5 0,-0.7 0.2,0.1 0.5,0.2 0.7,0.3 -0.1,-0.4 -0.3,-0.8 -0.3,-1.2 0.3,0.1 0.7,0.1 1,0.2 -0.1,-0.3 -0.2,-0.6 -0.3,-0.9 0.3,0.1 0.6,0.3 0.9,0.3 -0.2,-0.4 -0.4,-0.8 -0.7,-1.2 0.2,0 0.5,0 0.7,0 -0.1,-0.5 -0.3,-0.9 -0.5,-1.4 0.4,0.2 0.8,0.3 1.2,0.3 -0.4,-0.5 -0.6,-1 -0.9,-1.5 0.3,0 0.6,-0.1 0.9,-0.2 -0.2,-0.2 -0.3,-0.3 -0.5,-0.5 0.3,0 0.7,0 1,0 -0.2,-0.3 -0.5,-0.7 -0.7,-1 0.3,0 0.7,0 1,0 -0.5,-0.3 -0.9,-0.7 -1.4,-1 0.2,-0.1 0.5,-0.1 0.7,-0.2 -0.7,-1.1 -0.8,-2.3 -0.3,-3.6 0.6,0.8 2,3 2.2,3.9 0,-0.8 0.4,-0.3 0.7,0 0,-0.7 0.3,0.2 0.3,-0.7 0.1,0.2 0.3,0.3 0.5,0.3 0,-0.2 0,-0.5 0,-0.7 0.7,0.3 1.5,0.6 2.2,0.9 -0.1,-0.4 -0.2,-1 -0.2,-1.6 0.5,0.3 0.9,0.6 1.4,0.9 0,-0.2 0,-0.5 0,-0.7 0,0 0.3,-0.1 0.3,-0.7 0.5,0.8 1.8,0.2 2.4,0.2 -0.6,-0.3 -1.1,-0.7 -1.7,-1 0.3,0 0.7,0 1,0 -0.3,-0.3 -0.6,-0.7 -0.9,-1 0.9,0.2 2.4,-1 3.3,-0.3 0.9,0.7 -0.1,3 1.4,3.8 0,-0.3 0,-0.6 0,-0.9 0,0.3 0.2,0.5 0.3,0.7 0,-0.6 0.1,-1.1 0.5,-1.5 0,0.5 0,1 0,1.5 0.2,-0.3 0.3,-0.7 0.5,-1 0.1,0.3 0.1,0.7 0.2,1 0,-0.1 0.3,-0.7 0.3,-0.7 0.2,0.2 0.3,0.4 0.3,0.7 0.1,-0.3 0.1,-0.7 0.2,-1 0.4,0.6 0.6,1.2 0.9,1.9 0.1,-0.1 0.2,-0.2 0.3,-0.3 0,0.3 0.1,0.6 0.3,0.9 0,-0.1 0.1,-0.2 0.2,-0.3 0.1,0.5 0.1,1 0.2,1.5 0.1,-0.3 0.3,-0.5 0.5,-0.7 0,0.4 0,0.8 0.2,1.2 0.1,-0.1 0.1,-0.2 0.2,-0.3 0.1,0.5 0.2,0.9 0.3,1.4 0.2,-0.2 0.5,-0.3 0.7,-0.5 0.2,0.2 0.9,2.6 0.9,1.2 0.1,0.2 0.1,0.5 0.2,0.7 0.2,-0.2 0.4,-0.4 0.5,-0.7 0,0.5 0.7,0.9 0.7,0.2 0.1,0.8 0.2,1.5 0.5,2.2 0.1,-0.2 0.1,-0.3 0.2,-0.5 0.2,0.3 0.3,0.7 0.5,1 0.2,-0.2 0.3,-0.3 0.5,-0.5 0,3.7 5.3,5.4 7.2,7.6 0.2,0.3 2.1,5.1 3.2,1.2 0.3,-1.2 -3.5,-3.5 -4.5,-3.9 0.8,0 0.1,-0.4 0.9,-0.7 -0.3,-0.5 -0.7,-0.9 -1.1,-1.3 -0.5,-0.5 -0.4,-0.7 0.4,-0.6 -0.2,-0.5 0.1,-1 -0.5,-1 1.3,0 -0.5,-1.1 -0.9,-1.2 1.1,0 -0.5,-0.9 0.3,-0.9 -0.5,-0.8 -1.7,-0.3 -2.1,-1.2 0.2,0 0.3,0 0.5,0 -0.2,-0.2 -0.3,-0.5 -0.5,-0.7 0.1,0 0.2,0 0.3,0 -0.2,-0.2 -0.5,-0.7 0,-0.7 -0.8,-0.4 -1.4,-0.8 -2.1,-1.4 0.2,-0.1 0.5,-0.1 0.7,-0.2 -0.2,-0.2 -0.5,-0.5 0,-0.5 C 63.4,55 62.6,54.5 61.7,54 61.9,54 62,54 62.2,54 61.9,53.7 61.1,53.3 62,53.3 61.8,53.2 61.5,53.1 61.3,53 61.5,52.9 61.8,52.9 62,52.8 61.3,52.5 60.8,52 60.1,51.6 c 1,-0.6 -0.1,-1.9 1.4,-2.4 -0.2,-0.3 -0.4,-0.6 -0.7,-0.9 0.6,0.1 1.2,0.2 1.7,0.5 0,-0.2 0,-0.5 0,-0.7 0.3,0.5 1.7,0.4 2.2,0.7 -0.1,-0.5 0,-0.9 0.3,-1.2 0.4,0.5 2.3,4.2 1.7,4.8 0.2,-0.3 0.3,-0.7 0.3,-1 0.1,0.8 0.4,1.5 0.7,2.2 0.1,-0.3 0.1,-0.6 0.2,-0.9 0.2,0.2 0.4,0.5 0.5,0.9 -0.1,-0.6 0,-1.2 0.3,-1.7 0.2,0.5 0.3,1 0.3,1.5 0,-1.3 0.5,0.6 0.5,1 0.7,-0.7 1.5,2 1.9,2.6 0,-0.3 0.1,-0.7 0.2,-1 0.1,0.5 0.3,0.9 0.5,1.4 0,-0.2 0,-0.3 0,-0.5 0.1,0.6 0.1,1.3 0.2,1.9 0,-1.4 0.6,1.1 0.9,1.4 0,-0.2 0.1,-0.5 0.2,-0.7 0.1,0.4 0.2,0.8 0.2,1.2 0.1,-0.2 0.2,-0.4 0.3,-0.5 0.4,0.4 0.1,0.9 0.7,0.3 0,0.4 0,0.8 0,1.2 0.1,-0.2 0.2,-0.3 0.3,-0.5 0.1,0.2 0.1,0.5 0.2,0.7 0,-1.1 3.4,2.8 3.8,3.3 1.4,1.5 3.5,3.1 4.4,5.1 0,-0.5 0.3,-0.3 0.3,0 0.1,-0.3 0.1,-0.6 0,-0.9 0.2,0.2 0.3,0.4 0.3,0.7 0.2,-0.2 0.3,-0.3 0.5,-0.5 0.6,1.6 1.1,2.3 1.7,3.3 0.4,0.8 0.6,2.7 1.9,2.7 0.8,0 -0.2,-5.4 -0.7,-6.2 0.2,0.1 0.3,0.2 0.5,0.3 0,-0.3 0,-0.6 0,-0.9 0.4,0.2 0.8,0.5 1.2,0.7 -0.1,-0.3 -0.1,-0.6 -0.2,-0.9 0.3,0.1 0.7,0.2 1,0.3 -0.1,-0.2 -0.1,-0.3 -0.2,-0.5 0.3,0.3 0.6,0.6 0.9,0.9 0,-0.3 0,-0.7 0,-1 0.3,0.2 0.6,0.5 0.9,0.7 -0.4,-1.2 0.6,-1 0,-2.2 0.3,0.1 0.6,0.2 0.9,0.2 -0.3,-0.5 -0.7,-1 -1,-1.5 0.3,0 0.7,0 1,0 -0.6,-0.5 -1.3,-1 -1.9,-1.5 0.3,-0.1 0.6,-0.1 0.9,-0.2 -0.4,-0.3 -0.8,-0.7 -1.2,-1 0.2,-0.1 0.5,-0.1 0.7,-0.2 -0.2,-0.3 -0.5,-0.6 -0.9,-0.9 0.3,0 0.6,0 0.9,0 -0.2,-0.3 -0.4,-0.6 -0.7,-0.9 0.9,0.2 1.7,0.3 2.6,0.5 -0.4,-0.4 -0.8,-0.8 -1.2,-1.2 0.3,0 0.6,0 0.9,0 -0.7,-0.7 -1.4,-1.2 -2.2,-1.7 0.6,0.1 1.3,0.2 1.9,0.3 -0.3,-0.5 -0.7,-0.9 -1,-1.4 0.5,0.1 1,0.1 1.5,0.2 -0.7,-0.5 -1.4,-0.9 -2.1,-1.4 0.4,-0.1 0.8,-0.1 1.2,-0.2 -0.4,-0.3 -0.8,-0.7 -1.2,-1 0.2,-0.1 0.5,-0.1 0.7,-0.2 -2.2,-1.2 -4.5,-2.2 -6.9,-2.9 0.6,0 1.3,0 1.9,-0.2 -0.3,0 -0.6,-0.1 -0.9,-0.3 0,-0.2 2.3,-0.2 2.6,-0.2 -0.3,-0.1 -0.6,-0.3 -0.9,-0.5 0.4,-0.1 0.8,-0.1 1.2,-0.2 -0.4,-0.2 -0.8,-0.3 -1.2,-0.5 0.3,-0.1 0.7,-0.2 1,-0.3 -0.2,-0.2 -0.4,-0.4 -0.7,-0.5 0.9,0.4 2.7,1 3.6,1.4 1.3,0.5 1.8,0.6 3,0.5 1.1,-0.1 2.9,-0.2 3.9,-1.1 2.2,-2 1.5,-6.8 1.5,-9.5 0,-0.5 -0.1,-1 0.3,-1 -0.4,-0.4 -0.5,-0.9 0.2,-0.9 -0.2,-0.2 -0.3,-0.3 -0.5,-0.5 0.2,-0.2 0.5,-0.3 0.7,-0.5 -0.3,-0.2 -0.6,-0.3 -0.9,-0.5 2.1,-1 -5.6,-6.8 -7.4,-7.2 1.9,-0.2 3.9,-0.2 5.8,-0.4 3.7,-0.4 2.5,-1.1 4,-3.2 1.1,-1.7 2,-1.9 2.5,-4 0.9,-1.8 0.9,-3.3 1,-4.7 z"
   id="path3" />
</svg>