<svg xmlns="http://www.w3.org/2000/svg" width="2048" height="2048" viewBox="0 0 2048 2048" version="1.1">
	<path d="M 671.422 703.449 C 643.935 707.190, 622.385 716.039, 602.886 731.591 C 599.249 734.492, 591.571 742.183, 585.825 748.683 C 572.930 763.267, 567.012 767.656, 559.167 768.452 C 556.050 768.768, 549.900 769.509, 545.500 770.099 C 541.100 770.688, 532.325 771.772, 526 772.507 C 496.277 775.961, 446.417 789.026, 431.823 797.185 C 427.376 799.671, 425.081 802.413, 426.366 803.702 C 426.804 804.141, 439.613 805.015, 454.831 805.644 C 474.536 806.458, 484.515 807.290, 489.500 808.533 C 495.334 809.989, 501.580 810.298, 527 810.390 L 557.500 810.500 574 816.141 C 600.626 825.243, 608.910 830.875, 616.500 845.037 L 620.500 852.500 620.455 867 C 620.414 880.443, 620.146 882.492, 616.771 895.106 C 614.770 902.589, 612.833 911.589, 612.468 915.106 C 612.102 918.622, 611.172 925.271, 610.402 929.881 C 608.608 940.603, 608.635 947.053, 610.529 960.543 C 613.834 984.090, 621.864 1005.319, 635.406 1026.310 C 638.411 1030.968, 644.659 1041.691, 649.292 1050.139 C 659.319 1068.427, 668.077 1082.999, 672.347 1088.500 C 674.054 1090.700, 681.143 1098.800, 688.099 1106.500 C 707.820 1128.331, 731.860 1151.132, 756 1170.902 C 762.875 1176.532, 771.957 1184.012, 776.183 1187.524 C 794.254 1202.543, 824.481 1221.322, 842.500 1228.723 C 863.098 1237.185, 890.993 1247.918, 900 1250.848 C 908.800 1253.711, 925.119 1258.015, 927.143 1258.007 C 929.452 1257.997, 929.997 1260.050, 930.020 1268.832 C 930.030 1273.049, 930.702 1281.450, 931.511 1287.500 C 932.321 1293.550, 932.987 1298.822, 932.992 1299.215 C 932.996 1299.609, 931.538 1301.597, 929.750 1303.634 C 926.824 1306.968, 926.538 1307.844, 926.884 1312.419 C 927.658 1322.665, 927.386 1327.692, 925.584 1336.500 C 922.014 1353.948, 918.998 1365.255, 916.328 1371.205 L 913.629 1377.218 909.564 1376.624 C 907.329 1376.298, 901.450 1375.188, 896.500 1374.158 C 890.628 1372.936, 886.882 1372.600, 885.722 1373.192 C 884.745 1373.691, 880.133 1373.791, 875.474 1373.413 C 867.464 1372.763, 866.800 1372.864, 863.252 1375.282 C 861.188 1376.688, 854.624 1379.234, 848.664 1380.938 C 834.731 1384.923, 832 1386.335, 832 1389.550 C 832 1393.674, 835.190 1394.118, 863.958 1393.994 C 891.390 1393.876, 907.132 1394.892, 917.500 1397.449 C 925.282 1399.368, 931.687 1399.374, 937.091 1397.468 C 939.479 1396.625, 942.614 1396.195, 944.057 1396.513 C 947.773 1397.329, 949.398 1395.005, 948.708 1389.860 L 948.155 1385.740 966.828 1386.444 C 977.097 1386.831, 986.495 1387.384, 987.711 1387.673 C 989.337 1388.058, 990.792 1387.274, 993.211 1384.708 C 995.020 1382.789, 997.507 1380.707, 998.738 1380.081 C 1002.577 1378.128, 1002.576 1374.729, 998.732 1367.778 C 990.337 1352.596, 990.158 1345.356, 997.578 1321 C 1001.662 1307.594, 1002.347 1304.081, 1002.646 1295 C 1002.836 1289.225, 1003.498 1283.263, 1004.117 1281.750 C 1005.110 1279.324, 1005.773 1279, 1009.746 1279 C 1012.222 1279, 1019.705 1280.077, 1026.374 1281.393 C 1033.043 1282.709, 1043.279 1284.051, 1049.119 1284.375 C 1054.959 1284.700, 1062.098 1285.471, 1064.981 1286.089 C 1071.435 1287.473, 1084.383 1286.448, 1086.066 1284.420 C 1086.974 1283.326, 1086.959 1282.655, 1086 1281.500 C 1085.315 1280.675, 1085.190 1280, 1085.721 1280 C 1087.562 1280, 1125.538 1273.990, 1133.500 1272.438 C 1148.911 1269.435, 1152.124 1268.959, 1153.058 1269.536 C 1153.576 1269.856, 1154 1269.589, 1154 1268.942 C 1154 1268.266, 1154.835 1267.985, 1155.966 1268.281 C 1157.069 1268.569, 1157.837 1268.326, 1157.716 1267.726 C 1157.459 1266.453, 1162.932 1264.944, 1187.750 1259.446 C 1194.112 1258.036, 1195 1257.566, 1195 1255.601 C 1195 1253.624, 1196.135 1253.045, 1204.750 1250.628 C 1210.112 1249.124, 1216.329 1247.017, 1218.565 1245.947 C 1220.801 1244.876, 1225.301 1243.533, 1228.565 1242.962 C 1231.829 1242.391, 1235.400 1241.539, 1236.500 1241.068 C 1241.041 1239.124, 1262.337 1232.883, 1274 1230.079 C 1293.528 1225.383, 1307.902 1221.326, 1309.392 1220.090 C 1310.240 1219.386, 1317.318 1218.790, 1328.127 1218.513 C 1337.682 1218.269, 1348.200 1217.606, 1351.500 1217.041 C 1356.853 1216.125, 1368.529 1214.909, 1399.821 1212.006 C 1405.144 1211.512, 1418.950 1210.200, 1430.500 1209.090 C 1442.050 1207.980, 1459.375 1206.358, 1469 1205.487 C 1478.625 1204.615, 1490.775 1203.290, 1496 1202.541 C 1501.225 1201.793, 1508.650 1200.888, 1512.500 1200.530 C 1516.350 1200.173, 1523.325 1199.248, 1528 1198.476 C 1539.303 1196.609, 1562.250 1193.381, 1573.850 1192.027 C 1582.431 1191.025, 1595.385 1189.040, 1626 1184.038 C 1632.325 1183.005, 1644.925 1180.740, 1654 1179.006 C 1663.075 1177.271, 1674.550 1175.203, 1679.500 1174.411 C 1688.602 1172.954, 1692.924 1172.153, 1741.500 1162.932 C 1802.326 1151.384, 1831.590 1144.696, 1852.588 1137.544 C 1874.230 1130.173, 1875.578 1129.652, 1880.135 1126.903 C 1889.327 1121.357, 1890.616 1120.240, 1892.993 1115.758 C 1895.351 1111.313, 1895.393 1110.965, 1893.767 1109.338 C 1891.414 1106.986, 1877.304 1106.375, 1862.704 1107.993 C 1846.983 1109.736, 1803.335 1109.498, 1781.557 1107.551 C 1771.688 1106.669, 1763.423 1105.756, 1763.189 1105.522 C 1762.955 1105.289, 1763.830 1104.857, 1765.132 1104.562 C 1782.322 1100.679, 1794.009 1097.550, 1801 1094.959 C 1805.675 1093.226, 1815.350 1090.492, 1822.500 1088.883 C 1838.495 1085.283, 1850.056 1081.531, 1853.502 1078.820 C 1856.944 1076.113, 1856.497 1072.900, 1852.532 1071.845 C 1845.730 1070.037, 1807.052 1068.899, 1735.500 1068.402 C 1666.604 1067.924, 1658.281 1067.691, 1646.463 1065.903 C 1639.293 1064.819, 1630.968 1063.242, 1627.963 1062.400 C 1624.136 1061.327, 1614.265 1060.603, 1595 1059.981 C 1579.875 1059.494, 1565.250 1058.855, 1562.500 1058.562 C 1559.750 1058.269, 1540.850 1057.775, 1520.500 1057.463 C 1485.107 1056.921, 1465.050 1055.805, 1431 1052.484 C 1422.475 1051.652, 1408.075 1050.290, 1399 1049.456 C 1380.907 1047.794, 1304.144 1045.435, 1289 1046.076 C 1283.775 1046.297, 1275.450 1046.483, 1270.500 1046.489 C 1261.605 1046.500, 1261.407 1046.446, 1253.500 1041.867 C 1240.269 1034.206, 1143.270 987.151, 1124.808 979.439 C 1092.547 965.962, 1071.685 956.098, 1062.500 949.980 C 1050.668 942.097, 1025.056 928.292, 1007 920.065 C 971.063 903.690, 918.982 884.751, 890 877.517 C 884.225 876.075, 874.550 873.384, 868.500 871.535 C 862.450 869.687, 855.025 867.864, 852 867.484 C 846.911 866.844, 835.956 864.376, 835.499 863.765 C 835.389 863.619, 834.761 858.100, 834.102 851.500 C 833.443 844.900, 832.045 832.975, 830.995 825 C 829.946 817.025, 828.684 804.629, 828.191 797.453 C 827.402 785.957, 826.927 783.638, 824.199 777.953 C 815.097 758.990, 799.393 741.664, 779.081 728.175 C 761.876 716.751, 743.151 709.019, 721.500 704.400 C 711.556 702.279, 683.881 701.753, 671.422 703.449 M 963.500 1283.454 C 961.850 1284.815, 959.964 1285.944, 959.309 1285.964 C 957.081 1286.031, 956.582 1288.476, 955.931 1302.493 C 955.313 1315.806, 955.023 1317.293, 950.081 1332.500 C 944.353 1350.125, 940.006 1365.542, 940.003 1368.250 C 939.998 1371.287, 945.711 1370.056, 952.295 1365.602 C 954.507 1364.105, 955.551 1363.934, 957.295 1364.780 C 958.508 1365.368, 960.625 1366.050, 962 1366.296 C 963.375 1366.542, 965.253 1367.061, 966.173 1367.449 C 968.511 1368.436, 969.612 1365.960, 971.532 1355.395 C 972.421 1350.503, 974.015 1342.804, 975.074 1338.286 C 976.133 1333.769, 977 1328.680, 977 1326.978 C 977 1322.902, 973.246 1304.895, 971.301 1299.641 C 970.458 1297.363, 969.676 1292.350, 969.563 1288.500 C 969.327 1280.452, 968.238 1279.546, 963.500 1283.454" stroke="none" fill="black" fill-rule="evenodd"/>
</svg>