<svg xmlns="http://www.w3.org/2000/svg" width="1000" height="1000" viewBox="0 0 1000 1000" version="1.1">
	<path d="M 463 71.381 C 463 73.826, 456.421 78, 452.567 78 C 446.867 78, 445.375 80.333, 444.521 90.585 C 443.984 97.035, 444.103 99.534, 444.960 99.820 C 447.968 100.823, 450.900 104.786, 451.501 108.664 L 452.147 112.828 445.823 115.841 C 437.292 119.906, 430.786 121.491, 428.236 120.127 C 425.890 118.871, 423 113.173, 423 109.805 C 423 108.394, 421.357 105.650, 419 103.122 C 416.260 100.183, 415 97.929, 415 95.963 C 415 91.539, 412.962 88.012, 410.079 87.448 C 408.660 87.170, 406.150 86.467, 404.500 85.886 C 402.850 85.304, 400.720 84.591, 399.766 84.302 C 396.514 83.314, 393.007 85.029, 390.632 88.769 C 388.869 91.546, 386.981 92.947, 383.254 94.248 C 377.986 96.086, 376.852 97.651, 375.464 105 C 375.101 106.925, 374.173 109.497, 373.402 110.715 C 370.646 115.069, 371.557 117.373, 376.768 119.224 C 379.390 120.155, 383.002 122.351, 384.795 124.104 C 387.746 126.989, 394 135.445, 394 136.550 C 394 136.798, 392.155 137, 389.900 137 C 386.778 137, 383.432 138.329, 375.883 142.566 C 363.083 149.750, 360.445 150.208, 355.726 146.064 C 353.754 144.333, 350.968 140.915, 349.534 138.468 C 346.644 133.536, 344.177 132.445, 337.841 133.294 C 333.557 133.869, 328.830 137.394, 329.612 139.432 C 329.870 140.105, 327.820 142.056, 325.040 143.784 C 320.740 146.457, 320 147.374, 320 150.024 C 320 156.510, 323.230 158.934, 328.526 156.421 C 331.706 154.912, 332.251 154.966, 339.685 157.520 C 350.428 161.213, 350.078 160.926, 348.479 164.719 C 347.191 167.777, 346.966 167.884, 344.016 166.856 C 341.452 165.962, 340.576 166.074, 339.005 167.495 C 337.200 169.129, 336.778 169.109, 330.857 167.109 C 322.433 164.264, 317.958 164.352, 315.078 167.417 C 313.412 169.190, 313.055 170.277, 313.739 171.497 C 314.383 172.649, 314.088 174.336, 312.780 176.981 C 311.011 180.555, 310.992 181.046, 312.483 184.614 C 313.359 186.711, 314.777 189.201, 315.633 190.147 C 316.490 191.093, 317.779 193.585, 318.499 195.684 C 319.963 199.955, 321.787 200.745, 326.079 198.967 C 329.833 197.412, 329.808 194.962, 326 191.154 C 322.824 187.978, 322.061 183.623, 324.035 179.934 C 325.430 177.329, 325.839 177.416, 333.150 181.865 C 338.876 185.351, 339.465 186.014, 339.146 188.615 C 338.759 191.765, 336.528 196.618, 335.218 197.160 C 334.765 197.347, 332.686 200.332, 330.598 203.794 C 327.780 208.467, 326.576 211.816, 325.925 216.794 C 325.442 220.482, 324.589 226.200, 324.030 229.500 C 322.541 238.275, 322.776 252.693, 324.554 261.662 C 325.408 265.973, 326.371 274.722, 326.694 281.104 C 327.369 294.452, 327.361 294.466, 319.334 294.278 L 314.124 294.157 313.463 299.446 C 312.551 306.748, 313.031 308.443, 316.110 308.802 C 318.268 309.054, 318.624 309.514, 318.235 311.552 C 317.977 312.898, 318.239 314, 318.816 314 C 319.393 314, 320.120 314.803, 320.431 315.784 C 321.450 318.992, 326.351 321, 333.167 321 C 338.802 321, 339.638 321.256, 340.513 323.250 C 341.333 325.120, 342.266 325.492, 346.031 325.451 L 350.562 325.402 352.396 331.191 C 354.666 338.360, 355.893 348.584, 355.973 361 C 356.007 366.225, 356.759 373.650, 357.643 377.500 C 358.528 381.350, 359.467 386.188, 359.731 388.250 C 359.994 390.313, 360.725 392, 361.355 392 C 362.930 392.001, 370.462 405.765, 373.507 414.209 C 375.781 420.512, 375.872 421.344, 374.505 423.296 C 372.576 426.050, 372.607 428.107, 374.639 432.369 C 376.052 435.332, 379.448 438, 381.808 438 C 383.532 438, 406.101 461.074, 409.684 466.500 C 419.802 481.820, 420.205 482.926, 420.963 497.472 C 421.523 508.206, 422.066 511.513, 423.818 514.875 C 425.882 518.835, 425.962 519.998, 425.556 540.154 L 425.130 561.283 421.595 564.902 C 419.651 566.893, 417.433 570.317, 416.665 572.511 C 415.042 577.153, 414.158 577.288, 403.934 574.453 L 397.368 572.632 389.475 576.480 C 379.972 581.112, 365.696 594.390, 364.564 599.648 C 364.151 601.564, 363.125 602.996, 361.943 603.305 C 360.874 603.584, 359.996 604.642, 359.992 605.656 C 359.987 606.763, 357.105 609.700, 352.786 613 C 348.826 616.025, 344.501 619.625, 343.175 621 C 338.460 625.885, 327.772 640.495, 322.376 649.431 C 315.040 661.579, 311.610 666.244, 309.369 667.125 C 308.341 667.529, 304.327 667.891, 300.450 667.930 C 296.572 667.968, 292.972 668.401, 292.450 668.892 C 291.927 669.382, 288.478 670.459, 284.784 671.285 C 279.050 672.567, 277.899 672.583, 276.911 671.393 C 275.001 669.091, 270.308 669.740, 267.103 672.750 C 265.493 674.262, 261.410 678.611, 258.030 682.414 L 251.885 689.328 252.167 695.606 C 252.443 701.747, 252.334 702.048, 247.119 709.516 C 241.062 718.193, 239.016 725.332, 242.877 724.322 C 244.162 723.986, 245 722.965, 245 721.735 C 245 719.926, 253.557 703, 254.471 703 C 255.662 703, 259 710.230, 259 712.809 C 259 714.499, 259.393 716.125, 259.874 716.422 C 262.147 717.827, 257.156 733, 254.422 733 C 252.840 733, 244.912 739.364, 244.147 741.247 C 243.953 741.725, 244.532 742.930, 245.433 743.926 C 246.795 745.431, 247.108 748.588, 247.286 762.618 C 247.519 780.999, 245.785 795, 243.275 795 C 242.524 795, 240.749 796.160, 239.332 797.577 C 236.819 800.090, 236.771 800.385, 237.432 809.327 C 237.805 814.372, 238.327 819.245, 238.593 820.157 C 239.111 821.935, 244.727 824.637, 252 826.608 C 254.475 827.278, 257.469 828.132, 258.654 828.505 C 260.335 829.034, 260.966 828.682, 261.532 826.900 C 261.930 825.645, 263.521 823.265, 265.066 821.611 L 267.876 818.605 267.290 826.552 C 266.967 830.924, 266.317 834.651, 265.845 834.835 C 264.786 835.250, 265.767 837, 267.059 837 C 267.577 837, 268 835.950, 268 834.667 C 268 833.384, 268.512 829.784, 269.138 826.667 C 270.047 822.143, 270.663 821, 272.194 821 C 275.059 821, 278.127 813.076, 279.147 803.041 C 280.885 785.939, 281.763 784.401, 284.619 793.460 C 286.046 797.988, 286.140 799.588, 285.170 802.826 C 283.481 808.465, 283.729 814.019, 285.849 818.015 C 286.867 819.932, 287.504 822.063, 287.266 822.751 C 286.990 823.547, 287.408 823.781, 288.416 823.394 C 290.403 822.631, 290.454 820.621, 288.526 819.022 C 287.716 818.349, 286.766 816.269, 286.415 814.400 C 285.732 810.759, 286.631 803.992, 287.795 804.012 C 288.183 804.019, 289.747 807.106, 291.271 810.872 C 295.831 822.139, 294.832 833.590, 288.969 837.252 C 284.901 839.792, 287.729 849.465, 292.347 848.807 C 293.697 848.614, 294.619 847.661, 294.820 846.250 C 294.995 845.013, 295.783 844, 296.570 844 C 298.812 844, 298.427 852.787, 296.011 856.750 C 294.921 858.538, 294.440 860, 294.942 860 C 296.558 860, 300 854.805, 300 852.365 C 300 849.680, 301.187 849.315, 302.962 851.455 C 303.626 852.255, 306.157 854.074, 308.585 855.497 C 311.459 857.181, 313 858.779, 313 860.074 C 313 862.956, 310.244 869.111, 307.778 871.736 C 306.608 872.981, 306.080 874, 306.603 874 C 308.888 874, 311.881 870.704, 313.938 865.922 C 315.160 863.082, 316.510 861.151, 316.939 861.630 C 317.368 862.108, 319.341 864.337, 321.323 866.582 L 324.928 870.663 322.964 874.328 C 320.046 879.772, 320.443 882.264, 324.863 886.257 C 326.988 888.177, 329.514 890.188, 330.477 890.727 C 332.064 891.615, 331.742 892.608, 327.029 901.350 C 324.170 906.654, 322.019 911.556, 322.248 912.244 C 322.494 912.983, 323.191 912.474, 323.951 910.997 C 327.813 903.501, 335.348 893.196, 336.614 893.682 C 338.988 894.593, 338.180 897, 335.500 897 C 333.457 897, 333 897.489, 333 899.671 C 333 901.140, 333.676 903.089, 334.502 904.002 C 335.856 905.498, 335.599 906.248, 331.904 911.581 C 326.971 918.703, 320.591 925.550, 316.500 928.113 L 313.500 929.993 316.579 929.996 C 321.630 930.002, 328.021 924.926, 333.492 916.563 C 337.282 910.769, 339.743 908.209, 344.113 905.511 C 347.242 903.580, 350.289 902, 350.884 902 C 352.120 902, 357 911.149, 357 913.467 C 357 914.310, 357.480 915, 358.067 915 C 358.654 915, 358.913 914.212, 358.642 913.250 C 357.167 908.013, 356.916 905, 357.954 905 C 359.571 905, 363.529 897.866, 363.151 895.634 C 362.881 894.040, 363.286 893.823, 365.665 894.283 C 367.458 894.631, 369.120 894.276, 370.186 893.319 C 371.731 891.932, 371.932 892.120, 372.575 895.547 C 372.961 897.605, 372.765 901.508, 372.138 904.221 C 370.215 912.552, 371.067 913.887, 373.593 906.500 C 375.393 901.233, 375.851 898.240, 375.441 894.410 C 374.902 889.374, 374.930 889.309, 378.095 888.402 C 380.764 887.636, 382.138 885.973, 386.397 878.353 C 392.612 867.233, 393.400 866.278, 397.907 864.394 C 399.868 863.575, 402.451 861.985, 403.647 860.862 C 404.843 859.738, 406.555 858.972, 407.452 859.159 C 408.825 859.446, 408.613 860.239, 406.105 864.185 C 404.467 866.762, 401.861 869.556, 400.313 870.395 C 397.938 871.682, 397.816 871.926, 399.527 871.960 C 400.643 871.982, 402.602 871.267, 403.882 870.370 C 406.959 868.215, 412 860.177, 412 857.427 C 412 854.121, 413.961 853.076, 418.577 853.921 C 423.714 854.862, 424.899 855.605, 426.037 858.597 C 426.661 860.238, 427.733 861, 429.416 861 C 430.772 861, 432.135 861.409, 432.444 861.909 C 433.200 863.133, 427.807 867.557, 421.928 870.536 C 417.726 872.666, 414.847 875, 416.423 875 C 417.824 875, 433.807 867.122, 434.421 866.129 C 435.511 864.364, 437 864.804, 437 866.892 C 437 868.120, 436.038 869.025, 434.256 869.472 C 430.272 870.472, 428.858 871.964, 429.596 874.391 C 431.027 879.101, 432.869 880, 441.082 880 C 448.064 880, 449.044 879.759, 450.715 877.635 C 453.298 874.352, 456.586 873.438, 457.829 875.659 C 459.130 877.983, 461.073 876.383, 463.507 870.984 C 465.259 867.100, 468.602 865.018, 470.854 866.410 C 472.161 867.217, 481.810 862.373, 485.371 859.121 L 488.242 856.500 486.620 859.703 C 484.369 864.147, 478.270 869.916, 473.500 872.113 C 470.364 873.558, 469.997 873.961, 471.800 873.978 C 476.914 874.027, 485.969 867.616, 489.645 861.344 C 491.045 858.955, 492.606 857, 493.115 857 C 493.624 857, 495.831 855.869, 498.020 854.487 C 502.399 851.723, 503.304 848.106, 500.532 844.441 C 499.724 843.374, 499.049 842.163, 499.032 841.750 C 498.976 840.440, 503.541 840.942, 505.559 842.468 C 508.369 844.594, 512.635 844.360, 514.295 841.989 L 515.703 839.979 518.352 842.062 C 522.837 845.590, 521.793 849.225, 513.862 857.690 C 510.201 861.598, 509 863.648, 509 865.990 C 509 867.700, 508.281 870.489, 507.403 872.188 C 506.429 874.071, 506.033 876.417, 506.389 878.197 C 506.840 880.448, 506.414 881.677, 504.532 883.559 C 502.362 885.729, 501.225 886, 494.295 886.003 C 488.972 886.006, 483.646 886.815, 477.500 888.554 C 472.550 889.956, 466.250 891.704, 463.500 892.440 C 446.789 896.912, 443.167 898.290, 436.086 902.867 C 426.167 909.279, 423.738 909.829, 420.339 906.430 C 417.989 904.080, 417.473 903.944, 415.299 905.108 C 413.396 906.126, 412.464 906.146, 410.952 905.202 C 406.656 902.519, 404 904.893, 404 911.415 C 404 914.403, 403.589 915.065, 401.394 915.616 C 398.968 916.225, 398.833 916.554, 399.441 920.359 C 400.452 926.679, 402.228 928, 409.712 928 C 413.233 928, 418.082 928.495, 420.486 929.101 C 426.888 930.713, 430.571 929.118, 436.806 922.035 C 442.297 915.797, 445.916 914.017, 453.128 914.006 C 455.123 914.003, 457.298 913.346, 457.961 912.547 C 459.513 910.677, 468.639 908.011, 477.232 906.917 C 480.934 906.445, 485.753 905.146, 487.942 904.030 C 492.195 901.860, 495.522 901.346, 494.488 903.020 C 493.186 905.126, 496.198 911.063, 499.817 913.521 C 504.331 916.589, 510.021 916.768, 514.526 913.984 C 518.216 911.703, 519.202 909.865, 524.923 894.605 C 527.169 888.612, 530.258 881.637, 531.786 879.105 C 536.651 871.045, 538.300 866.413, 537.612 862.746 C 537.034 859.666, 537.486 858.803, 542.684 853.059 C 546.370 848.987, 549.005 844.939, 550.125 841.631 C 551.599 837.276, 552.316 836.415, 554.904 835.886 C 558.718 835.106, 562.609 832.599, 563.978 830.040 C 564.555 828.963, 565.307 825.925, 565.648 823.290 C 565.990 820.656, 566.924 817.745, 567.725 816.822 C 569.737 814.501, 568.640 811.811, 563.954 807.578 C 560.816 804.742, 559.172 804, 556.032 804 C 551.297 804, 550 802.202, 548.877 794.087 C 547.813 786.397, 544.951 783.769, 537.016 783.195 C 532.003 782.832, 531.022 782.471, 531.398 781.128 C 531.649 780.232, 532.167 777.497, 532.549 775.048 C 533 772.157, 534.057 769.956, 535.563 768.772 C 536.838 767.769, 538.148 766.108, 538.474 765.081 C 538.800 764.055, 540.349 762.684, 541.916 762.035 C 545.248 760.655, 549.513 756.357, 550.387 753.500 C 550.723 752.400, 552.686 750.535, 554.749 749.356 C 556.812 748.177, 560.525 745.430, 563 743.251 C 565.475 741.072, 568.870 739.091, 570.545 738.848 L 573.589 738.407 572.868 743.453 C 572.017 749.402, 571.789 757.544, 572.492 756.841 C 572.763 756.570, 573.685 752.333, 574.541 747.424 C 576.210 737.856, 578.005 734, 580.791 734 C 581.751 734, 584.215 732.859, 586.268 731.464 L 590 728.928 590 732.964 C 590 737.420, 592.641 741, 595.929 741 C 599.773 741, 602.621 746.327, 598.918 746.593 C 598.138 746.650, 597.014 746.764, 596.420 746.848 C 594.590 747.106, 589.335 755.213, 586.583 762.025 C 585.144 765.586, 583.035 769.773, 581.895 771.329 C 579.045 775.221, 580.216 775.785, 584.820 772.738 L 588.681 770.182 586.849 777.841 C 585.840 782.054, 585.012 787.092, 585.008 789.039 C 585.004 790.985, 584.149 794.247, 583.108 796.289 C 582.067 798.330, 581.607 800, 582.085 800 C 583.777 800, 585.869 795.422, 586.954 789.348 C 587.558 785.964, 589.166 779.923, 590.526 775.923 C 591.887 771.923, 593 767.878, 593 766.936 C 593 765.993, 593.845 764.178, 594.877 762.903 C 596.449 760.962, 597.135 760.755, 599.093 761.628 L 601.431 762.672 598.715 764.451 C 595.979 766.244, 595.002 770.265, 597.002 771.501 C 598.311 772.310, 597.195 779.811, 595.319 782.811 C 593.149 786.282, 594.098 787.325, 599.733 787.661 L 604.848 787.966 606.561 783.479 C 607.941 779.867, 608.140 777.331, 607.582 770.464 L 606.890 761.934 609.452 762.577 C 612.525 763.348, 615.942 761.359, 621.194 755.740 C 624.099 752.632, 625.233 750.264, 626.504 744.644 C 627.393 740.715, 628.762 736.513, 629.547 735.306 C 630.415 733.970, 630.742 731.958, 630.382 730.159 C 629.851 727.506, 630.094 727.138, 632.770 726.551 C 636.327 725.769, 639.494 722.531, 640.385 718.762 C 640.741 717.257, 640.521 708.493, 639.897 699.289 C 638.835 683.644, 638.877 682.486, 640.531 681.527 C 641.504 680.962, 644.981 678.306, 648.258 675.624 C 654.065 670.871, 654.310 670.776, 657.974 671.874 C 663.498 673.529, 670.942 673.210, 675.541 671.120 C 680.258 668.978, 684.092 664.725, 687.666 657.673 C 689.071 654.900, 691.734 650.431, 693.584 647.742 C 697.976 641.356, 698.986 637.396, 699.001 626.500 C 699.013 617.544, 699.027 617.492, 702.024 615.787 C 705.250 613.950, 705.518 613.470, 706.454 607.820 C 706.812 605.664, 708.697 602.164, 711.007 599.369 C 715.181 594.318, 717.971 587.658, 718.044 582.572 C 718.068 580.882, 718.671 577.290, 719.382 574.588 C 720.625 569.870, 720.863 569.629, 725.418 568.473 C 728.026 567.810, 730.777 566.646, 731.532 565.884 C 734.412 562.977, 739.936 550.902, 739.832 547.737 C 739.701 543.703, 741.951 538.785, 746.496 533.172 C 749.458 529.514, 750 528.070, 750 523.842 C 750 517.679, 754.475 504.691, 759.401 496.559 C 763.813 489.276, 764.099 483.732, 760.578 473.757 C 758.154 466.889, 753.774 458.597, 751.988 457.493 C 751.445 457.157, 751 456.024, 751 454.976 C 751 453.928, 750.133 452.606, 749.073 452.039 C 747.273 451.076, 746.821 449.645, 744.357 437.098 C 744.098 435.776, 742.602 433.496, 741.032 432.030 C 739.463 430.564, 737.440 427.596, 736.537 425.433 C 734.250 419.960, 730.291 416.145, 726.075 415.355 C 720.854 414.376, 710.101 403.923, 710.761 400.469 C 711.141 398.483, 710.219 396.995, 706.202 393.102 C 703.433 390.419, 700.375 386.710, 699.408 384.862 C 696.923 380.114, 697.059 372.649, 699.683 369.769 C 705.132 363.788, 705.422 359.221, 700.521 356.581 C 698.608 355.551, 696.782 353.889, 696.464 352.888 C 696.147 351.887, 697.324 346.890, 699.080 341.784 C 701.031 336.114, 702.398 329.970, 702.593 326 C 703.374 310.061, 705.290 304.416, 713.354 294.297 C 718.041 288.416, 721.328 287.540, 725.727 291 C 728.708 293.345, 731.079 293.513, 734.800 291.643 C 736.285 290.896, 739.032 289.994, 740.905 289.637 C 745.668 288.729, 746.999 287.310, 747.006 283.128 C 747.012 280.148, 747.547 279.196, 750.006 277.797 C 753.838 275.616, 754.080 271.363, 750.560 268.056 C 747.943 265.598, 739.861 263.592, 736.663 264.607 C 735.591 264.947, 733.012 264.664, 730.933 263.978 C 727.443 262.826, 727.076 262.338, 726.161 257.615 C 724.562 249.365, 721.963 240.679, 720.339 238.155 C 718.951 235.999, 719.003 235.626, 720.982 233.520 C 722.672 231.720, 722.997 230.501, 722.497 227.836 C 721.975 225.056, 722.327 223.939, 724.445 221.654 C 728.349 217.442, 730.663 218.393, 736.864 226.762 C 744.697 237.330, 748.989 237.875, 751.073 228.564 C 752.762 221.016, 751.116 213.535, 746.701 208.701 C 744.941 206.773, 742.881 204.435, 742.124 203.505 C 741.167 202.330, 739.949 202.005, 738.124 202.439 C 731.821 203.938, 726.605 204.199, 723.182 203.187 C 721.157 202.589, 718.353 201.866, 716.952 201.581 C 714.500 201.083, 712.960 199.074, 707.446 189.184 C 706.191 186.932, 703.581 184.512, 700.732 182.958 C 694.652 179.642, 691.486 176.592, 689.489 172.129 C 688.596 170.133, 687.362 167.474, 686.748 166.220 C 685.853 164.395, 685.955 163.616, 687.258 162.313 C 688.762 160.809, 689.217 160.811, 693.227 162.342 C 699.246 164.641, 699.974 164.501, 704.066 160.250 C 706.051 158.188, 709.211 155.594, 711.088 154.487 C 715.661 151.789, 716.130 147.164, 712.548 140.095 C 708.366 131.841, 704.655 130.623, 696.500 134.827 C 694.781 135.713, 690.700 136.418, 686.944 136.478 C 679.865 136.591, 677.378 137.728, 665.907 146.099 L 660.313 150.180 652.069 146.035 L 643.826 141.890 649.575 137.863 C 654.667 134.296, 655.583 133.974, 657.594 135.051 C 663.042 137.966, 665.159 131.355, 660.537 125.861 C 658.413 123.337, 658.231 122.586, 659.221 120.414 C 660.157 118.360, 660.042 117.341, 658.600 114.900 C 656.974 112.147, 656.959 111.712, 658.416 109.488 C 660.795 105.857, 660.545 96.545, 658 94 C 655.566 91.566, 650.417 91.390, 643.319 93.498 C 636.708 95.461, 633.479 98.121, 630.450 104.099 C 629.084 106.794, 627.411 108.992, 626.733 108.983 C 626.055 108.973, 624.440 107.848, 623.145 106.483 C 621.850 105.117, 619.801 104, 618.591 104 C 617.382 104, 614.904 102.464, 613.085 100.588 C 606.562 93.857, 604.649 95.439, 605.701 106.697 C 606.391 114.089, 605.166 117.275, 600.961 119.016 C 596.410 120.901, 593.669 119.967, 592.918 116.275 C 592.558 114.501, 591.477 111.850, 590.515 110.383 C 589.554 108.917, 588.791 106.027, 588.820 103.962 C 588.864 100.786, 587.969 99.164, 583.010 93.429 C 575.883 85.187, 574.013 84.081, 567.122 84.035 C 562.908 84.008, 560.581 84.665, 556.373 87.073 C 551.489 89.867, 550.860 90.003, 549.430 88.573 C 548.565 87.708, 547.392 87, 546.824 87 C 546.201 87, 545.976 85.311, 546.258 82.750 C 546.515 80.412, 546.244 76.588, 545.655 74.250 C 544.784 70.791, 544.157 70, 542.284 70 C 540.086 70, 540.011 70.244, 540.622 75.439 C 541.178 80.172, 540.921 81.460, 538.639 85.352 C 535.880 90.060, 531.512 93.370, 526.500 94.551 C 524.850 94.940, 522.267 96.404, 520.760 97.806 C 519.254 99.207, 517.904 100.162, 517.760 99.927 C 517.617 99.692, 516.347 97.288, 514.938 94.585 C 511.507 88.005, 507.647 85.993, 498.516 86.024 C 492.317 86.046, 489.439 86.440, 480.250 88.527 C 478.284 88.974, 478 88.640, 478 85.884 C 478 84.150, 477.472 79.866, 476.827 76.365 L 475.654 70 469.327 70 C 464.611 70, 463 70.352, 463 71.381 M 347.444 650.500 C 340.567 653.784, 336.237 656.794, 329.444 663.009 C 324.525 667.511, 318.791 672.071, 316.701 673.142 C 314.612 674.214, 312.699 675.745, 312.451 676.545 C 312.203 677.345, 311.713 678.788, 311.361 679.750 C 311.010 680.712, 310.673 686.314, 310.611 692.197 C 310.545 698.544, 310.049 703.346, 309.391 704.006 C 308.579 704.820, 308.408 703.813, 308.751 700.244 C 309.008 697.564, 308.681 692.780, 308.023 689.612 C 306.941 684.400, 306.697 684.026, 305.446 685.677 C 303.596 688.116, 303.647 691.504, 305.562 693.419 C 306.978 694.835, 306.962 695.255, 305.394 697.910 C 303.767 700.664, 303.765 700.992, 305.355 703.419 C 307.229 706.280, 310.113 706.773, 311.959 704.550 C 312.960 703.343, 320.315 690.171, 324.308 682.434 C 324.895 681.297, 328.623 678.041, 332.592 675.198 C 338.207 671.177, 341.813 667.360, 348.826 658.014 C 353.785 651.406, 357.541 646.040, 357.171 646.088 C 356.802 646.136, 352.425 648.122, 347.444 650.500 M 287.500 689 C 287.160 689.550, 285.799 690, 284.476 690 C 280.806 690, 279.518 693.374, 279.749 702.382 C 280.060 714.486, 278.368 715.131, 277.517 703.233 C 277.119 697.683, 277.092 692.660, 277.456 692.071 C 277.820 691.482, 277.754 691.007, 277.309 691.015 C 275.315 691.053, 274.017 692.942, 272.018 698.719 C 269.880 704.897, 269.879 704.938, 271.800 709.211 C 274.668 715.590, 278.035 718.242, 283.559 718.472 C 286.669 718.602, 288.885 718.104, 290.298 716.960 C 292.253 715.377, 292.309 714.967, 291.083 711.252 C 289.653 706.918, 290.358 703.307, 294.081 695.896 C 295.710 692.655, 295.741 692.075, 294.389 690.146 C 292.841 687.935, 288.595 687.229, 287.500 689 M 262.079 720.583 C 262.127 721.748, 262.364 721.985, 262.683 721.188 C 262.972 720.466, 262.936 719.603, 262.604 719.271 C 262.272 718.939, 262.036 719.529, 262.079 720.583 M 600.158 776 C 600.158 777.375, 600.385 777.938, 600.662 777.250 C 600.940 776.563, 600.940 775.438, 600.662 774.750 C 600.385 774.063, 600.158 774.625, 600.158 776 M 287.504 789.150 C 288.512 793.927, 289.457 794.477, 291.444 791.444 C 293.310 788.598, 292.863 787.637, 289.149 786.513 C 286.924 785.839, 286.835 785.981, 287.504 789.150 M 293.692 794.803 C 290.193 798.386, 290.008 798.882, 290.789 802.565 C 291.570 806.247, 291.666 806.334, 292.289 803.915 C 292.787 801.983, 293.986 801.021, 297.031 800.109 C 302.146 798.576, 303.001 796.547, 299.855 793.401 L 297.430 790.975 293.692 794.803 M 275.053 802.900 C 274.284 804.338, 274.397 804.938, 275.518 805.369 C 276.581 805.776, 277 805.239, 277 803.469 C 277 800.509, 276.423 800.341, 275.053 802.900" stroke="none" fill="black" fill-rule="evenodd"/>
</svg>