<svg xmlns="http://www.w3.org/2000/svg" width="2160" height="1620" viewBox="0 0 2160 1620" version="1.1">
	<path d="M 1173.926 48.807 C 1163.013 60.584, 1154.444 70.399, 1152.161 73.736 C 1146.807 81.563, 1140.345 101.533, 1138.122 117.120 C 1137.543 121.179, 1136.372 137.550, 1135.521 153.500 C 1134.649 169.851, 1133.283 185.771, 1132.390 190 C 1130.317 199.810, 1125.897 209.005, 1121.323 213.021 C 1117.891 216.035, 1117.296 216.207, 1112.159 215.677 C 1105.044 214.943, 1095.196 210.066, 1090.637 205.020 C 1084.634 198.375, 1080.760 189.564, 1080.218 181.320 C 1079.792 174.834, 1080.048 173.494, 1082.873 167.458 C 1084.593 163.782, 1086 160.376, 1086 159.888 C 1086 158.008, 1081.125 159.128, 1077.400 161.864 C 1069.051 167.996, 1064.708 175.553, 1062.924 187.050 C 1060.471 202.863, 1063.024 208.907, 1079.292 225.796 C 1093.251 240.290, 1095.975 245.067, 1095.990 255.075 C 1096.001 262.509, 1093.617 276.867, 1088.364 301 C 1083.979 321.142, 1081.453 337.798, 1079.831 357.254 C 1077.844 381.087, 1080.126 394.599, 1089.159 412.500 C 1099.025 432.050, 1107.898 443.839, 1124.649 459.657 C 1131.910 466.513, 1133.561 469.837, 1129.396 469.218 C 1124.546 468.497, 1107.530 463.555, 1098.534 460.255 C 1088.455 456.557, 1080.066 455.440, 1079.285 457.691 C 1079.058 458.347, 1080.139 459.543, 1081.686 460.349 C 1083.234 461.156, 1089.450 466.179, 1095.500 471.512 C 1111.215 485.363, 1113.236 486.159, 1135.428 487.236 C 1156.072 488.237, 1160.277 489.307, 1173.815 497.001 C 1178.592 499.716, 1186.775 503.785, 1192 506.045 C 1206.358 512.255, 1218.896 519.508, 1228.684 527.266 C 1240.830 536.893, 1263.826 552.038, 1273.700 556.913 C 1278.210 559.139, 1284.445 562.589, 1287.555 564.578 C 1290.665 566.568, 1300.204 571.751, 1308.753 576.097 C 1331.280 587.549, 1339.265 594.835, 1345.277 609.428 C 1348.503 617.257, 1350.269 632.098, 1348.132 633.418 C 1347.349 633.903, 1347 632.624, 1347 629.269 C 1347 623.479, 1344.664 613.944, 1341.973 608.747 C 1339.161 603.317, 1329.985 591.921, 1328.643 592.192 C 1328.015 592.318, 1325.857 590.752, 1323.850 588.711 C 1321.842 586.670, 1319.795 585, 1319.300 585 C 1318.805 585, 1317.829 587.765, 1317.131 591.145 C 1316.433 594.525, 1313.822 602.508, 1311.328 608.885 C 1306.248 621.879, 1304.043 630.921, 1304.017 638.867 C 1304.001 643.953, 1303.882 644.200, 1301.750 643.590 C 1300.513 643.236, 1296.528 642.673, 1292.896 642.340 C 1282.208 641.360, 1271.674 644.180, 1247.838 654.406 C 1232.012 661.194, 1221.426 664.458, 1202.205 668.476 C 1182.616 672.570, 1172.318 675.396, 1156.500 681.018 C 1150.450 683.168, 1138.525 686.813, 1130 689.119 C 1111.085 694.234, 1104.415 696.971, 1067.500 714.768 C 1031.583 732.084, 1004.301 743.072, 984.966 748.009 C 980.625 749.117, 969.519 751.115, 960.286 752.448 C 951.054 753.782, 937.200 756.258, 929.500 757.951 C 916.111 760.895, 888.528 766.783, 858.500 773.106 C 845.607 775.821, 841.972 776.131, 812.536 777.026 C 772.498 778.242, 763.157 779.342, 753.500 783.973 C 752.400 784.501, 748.908 786.050, 745.739 787.416 C 739.191 790.239, 724.524 798.284, 708.753 807.705 C 699.133 813.451, 688.399 821.011, 679.338 828.421 L 676.176 831.007 672.398 825.861 C 668.551 820.620, 661.025 815, 657.854 815 C 656.889 815, 655.704 815.707, 655.221 816.570 C 654.442 817.961, 653.804 817.879, 649.619 815.845 C 646.015 814.095, 644.713 813.846, 644.126 814.796 C 643.096 816.462, 635.850 811.248, 633.377 807.061 C 632.382 805.377, 631.221 804, 630.796 804 C 628.888 804, 626 807.690, 626 810.129 C 626 812.206, 625.599 812.708, 624.227 812.349 C 622.920 812.007, 621.898 813.030, 620.337 816.242 C 618.524 819.975, 618.268 822.024, 618.553 830.549 C 618.871 840.088, 619.074 840.873, 623.449 849.498 C 625.958 854.447, 627.559 858.647, 627.006 858.831 C 626.453 859.016, 626 859.767, 626 860.500 C 626 862.132, 640.879 876, 642.631 876 C 643.478 876, 642.911 878.358, 640.887 883.250 C 629.108 911.718, 628.079 941.806, 637.375 986 C 639.284 995.075, 642.264 1009.250, 643.997 1017.500 C 645.730 1025.750, 648.934 1040.150, 651.118 1049.500 C 656.511 1072.592, 657.821 1079.491, 659.473 1093.500 C 660.843 1105.123, 660.850 1128.189, 659.488 1144.500 C 656.419 1181.245, 646.372 1213.260, 623.627 1258.779 C 607.042 1291.969, 604.018 1302.407, 604.007 1326.501 C 604.001 1339.300, 604.617 1346.606, 607.081 1363.001 C 609.738 1380.672, 610.278 1387.777, 610.999 1414.500 C 611.459 1431.550, 612.379 1452.820, 613.043 1461.766 C 615.390 1493.382, 613.923 1503.571, 600.490 1548.966 C 592.663 1575.419, 589.422 1589.051, 590.372 1591.528 C 591.303 1593.954, 594.346 1593.222, 600.879 1589 C 604.283 1586.800, 607.423 1585, 607.857 1585 C 608.292 1585, 610.771 1588.109, 613.367 1591.908 C 616.401 1596.348, 620.066 1600.179, 623.625 1602.630 C 628.420 1605.933, 630.058 1606.494, 635.853 1606.822 C 646.164 1607.404, 654.405 1604.285, 656.116 1599.152 C 656.428 1598.216, 657.299 1598.303, 659.723 1599.512 C 664.017 1601.654, 669.608 1600.546, 673.340 1596.813 C 675.928 1594.226, 676.151 1593.492, 675.556 1589.524 C 675.192 1587.098, 672.960 1580.249, 670.596 1574.306 C 668.231 1568.363, 665.340 1560.575, 664.172 1557 C 661.327 1548.301, 655.415 1523.656, 653.496 1512.500 C 651.134 1498.768, 648.600 1456.260, 648.578 1430 C 648.556 1402.947, 648.838 1400.981, 658.047 1363.893 C 668.179 1323.089, 675.105 1305.098, 695.071 1267.720 C 707.701 1244.077, 713.578 1234.226, 730.999 1207.500 C 755.208 1170.361, 766.829 1149.665, 774.958 1129.218 C 778.101 1121.312, 781.268 1117.441, 782.289 1120.258 C 782.646 1121.245, 783.175 1121.242, 784.864 1120.245 C 786.678 1119.174, 787.284 1119.284, 788.995 1120.995 C 791.232 1123.232, 792.565 1123.513, 793.530 1121.951 C 793.973 1121.235, 794.624 1121.273, 795.589 1122.074 C 796.672 1122.973, 797.354 1122.951, 798.524 1121.980 C 801.046 1119.887, 801.446 1121.668, 800.278 1129.778 C 799.666 1134.024, 799.375 1137.708, 799.631 1137.964 C 800.453 1138.787, 803.442 1136.400, 805.500 1133.277 C 810.213 1126.124, 810.129 1126.192, 809.527 1130 C 809.222 1131.925, 808.304 1134, 807.487 1134.610 C 806.669 1135.221, 806 1136.458, 806 1137.360 C 806 1139.150, 808.506 1139.608, 809.500 1138 C 809.840 1137.450, 810.611 1137, 811.214 1137 C 811.817 1137, 811.565 1137.823, 810.655 1138.829 C 807.184 1142.664, 809.329 1145.520, 813.527 1142.653 C 818.157 1139.493, 821.410 1137.733, 820.250 1139.017 C 818.688 1140.745, 818.626 1143, 820.140 1143 C 820.767 1143, 821.877 1142.213, 822.608 1141.250 C 823.419 1140.181, 823.949 1139.987, 823.968 1140.750 C 823.986 1141.438, 825.095 1142, 826.434 1142 C 828.343 1142, 828.935 1142.591, 829.184 1144.741 C 829.589 1148.255, 832.127 1148.758, 835.899 1146.072 C 839.744 1143.334, 840.063 1143.435, 839.319 1147.157 L 838.687 1150.315 843.370 1149.673 C 847.765 1149.070, 847.991 1149.149, 847.027 1150.950 C 844.614 1155.458, 847.106 1156.334, 852.632 1152.918 C 856.028 1150.819, 856.875 1151.497, 855.070 1154.870 C 854.558 1155.826, 854.514 1157.213, 854.971 1157.952 C 855.468 1158.758, 855.078 1160.986, 853.997 1163.506 C 853.005 1165.821, 849.025 1177.152, 845.152 1188.687 C 834.238 1221.193, 830.107 1229.841, 810.134 1261.992 C 785.784 1301.188, 785.067 1305.588, 793.575 1363.500 C 794.949 1372.850, 796.485 1384.775, 796.989 1390 C 797.493 1395.225, 798.577 1404.688, 799.399 1411.030 C 802.276 1433.234, 804.153 1473.718, 802.981 1488.275 C 801.650 1504.795, 799.611 1520.409, 797.010 1533.998 C 793.662 1551.487, 793.888 1552.481, 803.670 1563.178 C 807.426 1567.286, 811.010 1571.515, 811.634 1572.574 C 812.741 1574.454, 812.874 1574.443, 817.204 1572.119 L 821.640 1569.739 830.070 1574.619 C 837.969 1579.193, 838.941 1579.500, 845.500 1579.500 C 850.203 1579.500, 853.617 1578.926, 855.904 1577.750 C 857.776 1576.787, 861.059 1576, 863.199 1576 C 868.839 1576, 872 1572.573, 872 1566.458 C 872 1560.928, 865.977 1545.214, 857.163 1527.744 C 851.555 1516.629, 849.847 1511.328, 845.939 1492.906 C 843.899 1483.295, 846.055 1403.632, 849.467 1362.500 C 851.169 1341.981, 852.427 1335.644, 857.703 1321 C 864.925 1300.953, 873.658 1287.191, 899.901 1254.500 C 921.623 1227.440, 934.923 1208.196, 942.057 1193.500 C 946.725 1183.885, 951 1170.913, 951 1166.366 C 951 1164.305, 951.557 1164.162, 961.750 1163.614 C 1001.001 1161.504, 1018.689 1157.688, 1038.647 1147.024 C 1043.749 1144.298, 1048.131 1142.402, 1048.384 1142.812 C 1049.121 1144.005, 1052.768 1158.938, 1053.956 1165.629 C 1054.554 1168.999, 1055.466 1182.274, 1055.983 1195.129 C 1056.560 1209.516, 1057.932 1225.996, 1059.550 1238 C 1062.496 1259.856, 1062.470 1274.852, 1059.429 1307 C 1057.788 1324.344, 1058.102 1336.349, 1060.499 1348 C 1064.504 1367.467, 1064.498 1381.395, 1060.472 1408 C 1059.681 1413.225, 1058.332 1423.125, 1057.473 1430 C 1056.007 1441.733, 1055.001 1447.618, 1051.318 1466 C 1048.973 1477.702, 1037.290 1521.102, 1034.349 1529.037 C 1032.894 1532.964, 1031.078 1536.417, 1030.314 1536.710 C 1028.086 1537.565, 1026.086 1542.377, 1024.489 1550.723 C 1022.014 1563.657, 1022.835 1568.269, 1026.951 1564.545 C 1027.954 1563.636, 1031.137 1561.996, 1034.023 1560.899 C 1039.267 1558.907, 1039.272 1558.907, 1041.399 1560.905 C 1044.680 1563.987, 1049.950 1565.810, 1058.598 1566.852 C 1068.024 1567.988, 1072.108 1567.480, 1074.968 1564.815 C 1076.728 1563.176, 1077.360 1563.054, 1078.632 1564.109 C 1080.812 1565.919, 1088.911 1565.660, 1092.733 1563.659 C 1096.464 1561.705, 1099 1557.423, 1099 1553.076 C 1099 1551.413, 1097.706 1546.778, 1096.124 1542.776 C 1088.655 1523.879, 1084.258 1487.993, 1086.043 1460.500 C 1088.202 1427.264, 1092.111 1407.934, 1103.131 1376 C 1111.452 1351.887, 1111.137 1354.338, 1112.065 1306.500 C 1113.937 1209.978, 1115.047 1162.340, 1115.489 1159.500 C 1115.746 1157.850, 1116.658 1150.200, 1117.516 1142.500 C 1119.979 1120.389, 1119.284 1122.363, 1124.843 1121.705 C 1127.485 1121.392, 1131.298 1120.349, 1133.316 1119.386 C 1136.879 1117.687, 1137.050 1117.696, 1139.242 1119.683 C 1140.484 1120.809, 1143.654 1122.968, 1146.286 1124.481 L 1151.073 1127.233 1150.473 1133.366 C 1150.142 1136.740, 1149.456 1142.650, 1148.948 1146.500 C 1148.440 1150.350, 1147.537 1159.575, 1146.940 1167 C 1146.344 1174.425, 1144.806 1189.725, 1143.523 1201 C 1141.351 1220.083, 1141.225 1224.195, 1141.706 1260.500 L 1142.222 1299.500 1139.494 1312.500 C 1135.937 1329.453, 1135.317 1342.563, 1137.309 1358.743 C 1141.054 1389.160, 1141.495 1394.077, 1141.413 1404.500 C 1141.353 1412.117, 1140.361 1420.883, 1138.187 1433 C 1136.461 1442.625, 1134.340 1456.350, 1133.475 1463.500 C 1130.465 1488.355, 1127.622 1503.811, 1123.397 1518.282 C 1120.444 1528.397, 1120.179 1534.100, 1122.415 1539.450 C 1123.669 1542.452, 1124.413 1543.125, 1126.011 1542.707 C 1128.610 1542.028, 1129.571 1543.872, 1131.052 1552.379 C 1132.650 1561.551, 1135.177 1564.375, 1144.337 1567.221 C 1155.639 1570.733, 1166.527 1570.378, 1189.250 1565.755 C 1202.024 1563.157, 1201.787 1563.685, 1196.500 1549.568 C 1194.575 1544.428, 1192.999 1539.836, 1192.998 1539.362 C 1192.997 1538.888, 1190.706 1532.425, 1187.907 1525 C 1174.237 1488.735, 1173.675 1485.450, 1174.579 1447.029 C 1175.258 1418.155, 1176.251 1407.162, 1180.398 1382.565 C 1183.246 1365.681, 1184.463 1353.092, 1185.965 1325 C 1189.306 1262.529, 1189.801 1256.588, 1193.108 1239.281 C 1196.390 1222.103, 1204.024 1199.762, 1220.458 1159.239 C 1224.756 1148.642, 1228.274 1137.845, 1230.558 1128.239 C 1235.557 1107.221, 1240.681 1097.018, 1253.527 1082.500 C 1260.642 1074.460, 1268 1064.249, 1268 1062.418 C 1268 1061.730, 1267.605 1061.017, 1267.122 1060.833 C 1266.091 1060.442, 1267.559 1055.998, 1268.718 1056.004 C 1270.420 1056.012, 1276.103 1060.113, 1276.689 1061.756 C 1277.884 1065.109, 1279.153 1066.118, 1280.633 1064.890 C 1282.612 1063.247, 1282.312 1058.531, 1279.930 1053.863 C 1278.792 1051.632, 1278.073 1049.593, 1278.333 1049.333 C 1278.920 1048.747, 1286.894 1052.701, 1289.187 1054.714 C 1291.306 1056.575, 1293.190 1055.504, 1292.798 1052.661 C 1292.541 1050.797, 1293.501 1050.157, 1299.776 1048.006 L 1307.052 1045.512 1310.765 1047.506 C 1312.807 1048.603, 1315.069 1050.737, 1315.793 1052.250 C 1317.325 1055.452, 1319.498 1055.807, 1320.950 1053.093 C 1321.746 1051.607, 1321.194 1049.481, 1318.451 1043.461 C 1316.514 1039.212, 1315.080 1035.586, 1315.264 1035.403 C 1315.768 1034.899, 1337.983 1041.632, 1343.056 1043.828 C 1345.500 1044.885, 1348.784 1046.954, 1350.354 1048.424 C 1351.924 1049.894, 1353.724 1050.928, 1354.354 1050.721 C 1357.334 1049.744, 1355.226 1035.283, 1350.854 1026.713 C 1349.757 1024.564, 1349.035 1022.631, 1349.249 1022.417 C 1349.463 1022.204, 1353.677 1023.811, 1358.614 1025.990 C 1363.551 1028.169, 1368.695 1030.075, 1370.045 1030.226 C 1372.270 1030.474, 1372.480 1030.173, 1372.283 1027 C 1371.240 1010.186, 1372.041 1007.704, 1387.430 980.069 C 1400.665 956.302, 1404.107 947.140, 1407.059 927.816 C 1408.593 917.777, 1409.676 913.639, 1411.461 911 C 1413.175 908.467, 1414.249 904.599, 1415.346 897 C 1416.180 891.225, 1418.217 881.679, 1419.872 875.787 C 1423.056 864.455, 1424.962 850.852, 1425.058 838.789 C 1425.140 828.356, 1427.680 819.970, 1434.433 807.832 C 1441.363 795.377, 1439.060 796.361, 1463.500 795.412 L 1479.500 794.790 1490 798.215 C 1498.914 801.123, 1500.550 801.984, 1500.832 803.915 C 1501.078 805.602, 1501.660 806.061, 1503.082 805.689 C 1504.137 805.413, 1505 805.595, 1505 806.094 C 1505 806.592, 1507.730 807, 1511.066 807 C 1518.331 807, 1521.031 808.166, 1520.293 810.987 C 1519.695 813.276, 1521.842 813.758, 1523.821 811.779 C 1525.526 810.074, 1540 810.044, 1540 811.747 C 1540 813.326, 1542.447 813.363, 1544.915 811.821 C 1546.435 810.872, 1547.334 810.989, 1549.514 812.418 L 1552.225 814.194 1558.599 807.661 C 1563.405 802.735, 1565.282 799.975, 1566.227 796.440 C 1566.917 793.862, 1568.160 791.508, 1568.990 791.208 C 1573.780 789.480, 1579.038 784.615, 1581.369 779.754 C 1584.073 774.115, 1586.598 758.580, 1586.331 749.228 C 1586.166 743.468, 1583.338 738.184, 1576.244 730.382 C 1569.577 723.049, 1547.729 704.427, 1539 698.637 C 1534.325 695.536, 1528.475 691.450, 1526 689.556 C 1523.525 687.663, 1515.686 683.051, 1508.579 679.307 C 1490.753 669.916, 1489.049 668.100, 1486.546 655.827 C 1485.537 650.880, 1481.489 647.549, 1470.329 642.484 C 1453.919 635.035, 1449.778 632.260, 1442.740 624 C 1439.225 619.875, 1435.146 615.861, 1433.675 615.081 C 1429.089 612.648, 1430.498 611.285, 1439.874 609.083 C 1456.383 605.207, 1478.513 606.920, 1497.788 613.564 C 1502.029 615.026, 1514.950 620.695, 1526.500 626.161 C 1558.457 641.286, 1556.090 640.507, 1570 640.466 C 1582.912 640.428, 1589 638.712, 1589 635.110 C 1589 634.014, 1588.550 632.840, 1588 632.500 C 1585.906 631.206, 1587.162 629.320, 1591.532 627.196 C 1596.721 624.676, 1597.790 622.845, 1596.014 619.526 C 1594.903 617.450, 1595.169 616.527, 1598.381 611.324 C 1602.430 604.764, 1602.651 603.785, 1600.487 601.989 C 1599.252 600.965, 1597.914 601.148, 1593.237 602.983 C 1589.226 604.556, 1584.491 605.392, 1577.502 605.762 L 1567.504 606.291 1571.198 602.202 C 1574.644 598.389, 1577.873 590.540, 1576.544 589.211 C 1576.221 588.888, 1571.466 588.744, 1565.978 588.891 C 1559.997 589.052, 1556 588.770, 1556 588.187 C 1556 586.541, 1559.052 585.885, 1571 584.964 C 1589.251 583.556, 1598.122 579.723, 1609.767 568.217 C 1617.402 560.673, 1620.030 555.946, 1617.969 553.463 C 1616.883 552.154, 1614.650 552.028, 1602.847 552.613 C 1594.294 553.036, 1589 552.935, 1589 552.349 C 1589 551.827, 1591.416 548.904, 1594.370 545.855 C 1600.184 539.853, 1603.756 532.225, 1604.230 524.803 C 1604.641 518.373, 1602.460 518.922, 1593.633 527.467 C 1585.054 535.772, 1581.525 537.015, 1578.557 532.777 C 1576.092 529.259, 1576.706 523.915, 1580.938 512.052 C 1587.321 494.158, 1587.326 488.645, 1580.958 490.865 C 1572.221 493.910, 1567.344 491.192, 1562.478 480.565 L 1559.244 473.500 1558.607 479.500 C 1556.932 495.300, 1545.248 523.270, 1532.290 542.500 C 1516.985 565.214, 1507.980 570.927, 1484.304 572.946 C 1452.385 575.667, 1447.048 576.341, 1439.075 578.651 C 1434.382 580.011, 1426.933 582.718, 1422.521 584.666 C 1412.763 588.976, 1407.299 589.574, 1391.185 588.100 C 1375.350 586.652, 1368.561 583.487, 1364.155 575.500 C 1361.900 571.413, 1362.008 549.208, 1364.325 540.289 C 1366.160 533.226, 1372.262 520.577, 1378.454 511 C 1382.699 504.435, 1396.544 491.047, 1405 485.331 C 1447.320 456.725, 1459.567 450.149, 1497.500 435.662 C 1509.144 431.215, 1518.925 422.563, 1524.665 411.635 C 1526.581 407.989, 1525.004 405.782, 1522.258 408.266 C 1521.274 409.157, 1517.369 411.336, 1513.580 413.110 C 1504.770 417.232, 1498.032 417.407, 1489.835 413.728 C 1482.342 410.365, 1481.731 409.040, 1483.703 400.426 C 1485.089 394.370, 1485.127 391.930, 1484.010 381 C 1482.144 362.753, 1480.041 359.841, 1478.189 372.938 C 1476.308 386.239, 1471.583 395.678, 1459.468 410.332 C 1450.559 421.110, 1435.126 429.519, 1428.723 427.085 C 1424.881 425.624, 1424.425 421.168, 1426.915 409.423 C 1429.575 396.877, 1431.414 373.907, 1430.611 363.259 C 1429.854 353.223, 1426.420 335.020, 1425.020 333.620 C 1422.799 331.399, 1421.854 335.292, 1420.467 352.393 C 1418.920 371.465, 1417.801 376.933, 1412.396 391.842 C 1410.470 397.154, 1407.593 406.754, 1406.002 413.175 C 1404.411 419.597, 1401.903 427.247, 1400.429 430.175 C 1396.380 438.221, 1384.610 455.383, 1372.983 470.197 C 1363.925 481.736, 1356.965 493.003, 1352.717 503 C 1347.634 514.961, 1338.822 544.536, 1337.446 554.250 C 1336.484 561.038, 1337.156 561.273, 1318.894 547.774 C 1298.462 532.671, 1289.728 527.057, 1243.500 499.307 C 1227 489.403, 1207.200 478.014, 1199.500 473.999 C 1170.441 458.847, 1164.747 454.729, 1148.652 437.215 C 1132.002 419.099, 1121.699 402.064, 1114.953 381.500 C 1108.915 363.092, 1109.803 338.105, 1117.601 307 C 1122.397 287.868, 1138.532 259.995, 1152.911 246 C 1156.019 242.975, 1162.976 235.234, 1168.370 228.798 C 1184.415 209.653, 1195.978 199.521, 1209.500 192.757 C 1216.583 189.214, 1223.235 187.501, 1241.500 184.516 C 1250.300 183.078, 1264.700 180.160, 1273.500 178.033 C 1304.551 170.526, 1318 164.922, 1318 159.491 C 1318 155.778, 1315.972 155.516, 1306.746 158.033 C 1296.663 160.784, 1278.016 161.015, 1262.500 158.581 C 1257 157.718, 1246.298 157.009, 1238.718 157.006 C 1223.086 156.999, 1219.048 155.928, 1216.566 151.128 C 1211.726 141.769, 1216.436 134.813, 1239.905 116.658 C 1253.615 106.051, 1263.829 95.459, 1270.536 84.892 C 1275.726 76.715, 1277.141 73, 1275.066 73 C 1274.552 73, 1270.923 75.414, 1267.001 78.364 C 1263.079 81.315, 1255.062 86.543, 1249.185 89.983 C 1224.829 104.240, 1212.910 111.781, 1209.119 115.333 C 1203.565 120.535, 1198.323 129.526, 1194.963 139.612 C 1193.155 145.038, 1190.373 150.979, 1188.474 153.466 C 1184.864 158.196, 1177.314 165.465, 1173.127 168.243 C 1170.463 170.011, 1164.368 170.577, 1162.451 169.235 C 1159.386 167.087, 1157.541 153.280, 1157.543 132.500 C 1157.545 107.253, 1161.573 90.061, 1174.634 59.565 C 1178.152 51.351, 1180.653 44.253, 1180.191 43.791 C 1179.729 43.329, 1176.910 45.586, 1173.926 48.807 M 1366.667 105.667 C 1364.399 107.935, 1367.499 113.891, 1378.713 128.805 C 1387.312 140.243, 1388.214 141.899, 1391.510 152.305 C 1395.490 164.868, 1404.833 207.290, 1405.649 216.500 C 1407.169 233.670, 1393.114 239.853, 1379.954 227.803 C 1374.430 222.745, 1352.383 208.591, 1341.500 203.116 C 1328.726 196.690, 1315.104 192.261, 1304.363 191.040 C 1296.611 190.159, 1275.631 190.493, 1270.250 191.582 C 1267.846 192.069, 1267.229 194.405, 1269.185 195.615 C 1270.567 196.469, 1283.838 200.438, 1292.500 202.588 C 1311.310 207.257, 1330.669 216.001, 1342.648 225.239 C 1350.666 231.423, 1362.852 243.700, 1368.997 251.786 C 1375.439 260.263, 1384.484 278.503, 1386.459 287 C 1389.015 297.995, 1388.493 305.712, 1384.349 318.187 C 1382.341 324.232, 1378.689 333.076, 1376.233 337.839 C 1361.528 366.362, 1344.408 416.028, 1340.981 440.109 C 1339.562 450.080, 1336.908 478.903, 1336.132 492.789 C 1335.659 501.234, 1335.122 504.311, 1334 505.006 C 1333.175 505.516, 1328 507.032, 1322.500 508.374 C 1310.041 511.415, 1285.802 518.860, 1284.615 520.011 C 1284.114 520.498, 1287.426 523.278, 1292.269 526.435 L 1300.807 532 1313.153 532.021 C 1319.944 532.032, 1328.425 532.660, 1332 533.415 C 1335.575 534.170, 1338.551 534.723, 1338.614 534.644 C 1338.676 534.565, 1340.196 530, 1341.990 524.500 C 1346.239 511.478, 1353.302 495.175, 1358.070 487.385 C 1365.980 474.462, 1366.125 473.984, 1365.883 461.688 C 1365.441 439.281, 1367.709 426.005, 1375.834 403.450 C 1378.003 397.428, 1381.222 389.350, 1382.988 385.500 C 1384.753 381.650, 1389.781 369.725, 1394.161 359 C 1403.041 337.259, 1404.319 334.796, 1417.777 313.500 C 1429.801 294.473, 1442.790 278.397, 1458.300 263.347 C 1472.475 249.592, 1482.803 242.362, 1499.433 234.550 C 1527.970 221.147, 1539.657 212.644, 1544.913 201.463 C 1547.978 194.940, 1548.738 187.858, 1546.566 186.054 C 1545.145 184.875, 1544.399 184.916, 1541.418 186.338 C 1539.501 187.252, 1536.392 188, 1534.509 188 C 1530.822 188, 1529.810 187.013, 1522.223 176.008 C 1516.963 168.378, 1515.718 168.445, 1513.546 176.469 C 1512.570 180.074, 1511.442 183.227, 1511.040 183.475 C 1509.801 184.241, 1506.355 175.435, 1498.917 152.500 C 1489.377 123.086, 1484.026 109, 1482.390 109 C 1481.607 109, 1480.165 111.939, 1478.894 116.122 C 1476.200 124.993, 1476.677 134.550, 1480.436 147 C 1482.111 152.547, 1483.360 160.008, 1484.031 168.474 C 1485.047 181.277, 1484.732 186.304, 1482.762 188.750 C 1481.106 190.806, 1475.704 190.175, 1469.929 187.250 C 1465.401 184.957, 1463.613 183.172, 1459.155 176.500 C 1450.699 163.843, 1449.136 162.011, 1447.375 162.686 C 1445.099 163.560, 1446.130 168.620, 1451.113 181.040 C 1454.412 189.263, 1455.346 193.006, 1455.761 199.655 C 1456.545 212.211, 1452.669 221, 1446.349 221 C 1442.686 221, 1436.987 217.674, 1432.355 212.833 C 1425.915 206.102, 1423.915 201.310, 1417.606 177.500 C 1414.173 164.542, 1405.906 144, 1399.448 132.379 C 1395.894 125.983, 1388.333 118.347, 1377.237 109.947 C 1371.078 105.285, 1368.210 104.123, 1366.667 105.667 M 1644.616 379.527 C 1643.301 380.842, 1643 383.460, 1643 393.571 L 1643 406 1639.979 406 C 1634.919 406, 1634.196 409.286, 1636.832 420.302 C 1638.042 425.361, 1639.025 431.945, 1639.016 434.934 C 1638.999 440.812, 1636.279 452, 1634.868 452 C 1634.391 452, 1634 447.079, 1634 441.065 C 1634 428.545, 1632.548 420.663, 1626.969 402.908 C 1622.924 390.031, 1619.556 383.500, 1616.960 383.500 C 1614.805 383.500, 1614.668 387.804, 1616.573 395.614 C 1618.768 404.612, 1619.663 434.432, 1618.092 446.237 C 1616.922 455.026, 1614.207 464.542, 1614.070 460.332 C 1613.942 456.391, 1612.868 455, 1609.952 455 C 1607.738 455, 1605.162 456.913, 1598.172 463.750 C 1589.443 472.286, 1583 477.116, 1583 475.122 C 1583 474.577, 1583.696 470.839, 1584.547 466.815 C 1586.420 457.956, 1588.972 431.448, 1588.988 420.684 C 1589.005 409.311, 1586.229 405.532, 1582.792 412.250 C 1580.332 417.058, 1575 429.699, 1575 430.722 C 1575 432.508, 1569.055 440.918, 1566.704 442.459 C 1562.178 445.424, 1560.487 443.141, 1556.515 428.711 C 1553.673 418.387, 1548.452 416.440, 1544.953 424.399 C 1542.456 430.080, 1539.343 442.869, 1537.992 453 C 1535.971 468.153, 1531.329 488.339, 1528.218 495.504 C 1526.548 499.352, 1523.367 506.680, 1521.151 511.789 C 1513.737 528.874, 1504.460 539.265, 1487.405 549.583 C 1475.161 556.991, 1465.203 560.909, 1455.187 562.260 C 1441.717 564.076, 1435.499 561.506, 1420.312 547.843 C 1416.015 543.978, 1407.180 536.740, 1400.677 531.759 C 1394.175 526.778, 1386.998 520.547, 1384.728 517.912 L 1380.602 513.122 1378.176 516.692 C 1374.043 522.774, 1368.223 536.378, 1366.919 543.004 L 1365.676 549.325 1368.588 551.714 C 1378.602 559.931, 1382.878 564.217, 1389.129 572.305 C 1392.991 577.303, 1396.795 582.637, 1397.582 584.158 C 1398.983 586.867, 1399.150 586.912, 1405.756 586.332 C 1410.246 585.938, 1415.508 584.482, 1421.500 581.975 C 1437.028 575.477, 1443.124 574.092, 1465.500 571.982 C 1477.050 570.892, 1489.619 569.538, 1493.431 568.972 C 1502.085 567.689, 1510.981 563.299, 1517.352 557.169 C 1522.629 552.091, 1536.534 532.123, 1539.781 524.959 C 1553.228 495.288, 1554.835 490.625, 1555.673 478.825 C 1556.661 464.917, 1558.013 464.903, 1564.526 478.732 C 1566.962 483.903, 1568.348 485.804, 1569.390 485.404 C 1570.257 485.071, 1571.322 485.733, 1572.022 487.041 C 1573.019 488.903, 1573.802 489.156, 1577.176 488.703 C 1579.365 488.410, 1581.943 487.456, 1582.906 486.585 C 1585.111 484.590, 1587.399 484.518, 1586.651 486.468 C 1586.341 487.275, 1586.518 488.202, 1587.044 488.527 C 1589.005 489.739, 1587.989 500.420, 1585.143 508.500 C 1583.593 512.900, 1582.511 517.054, 1582.739 517.730 C 1582.967 518.407, 1582.405 521.534, 1581.491 524.681 C 1579.916 530.098, 1579.921 530.469, 1581.601 531.698 C 1584.029 533.473, 1585.917 532.122, 1594 522.830 C 1597.575 518.720, 1609.950 505.457, 1621.500 493.357 C 1633.263 481.034, 1643.976 468.870, 1645.856 465.705 C 1647.701 462.597, 1651.052 455.204, 1653.302 449.277 C 1657.373 438.554, 1657.395 438.418, 1657.781 422.358 C 1658.065 410.526, 1657.751 404.004, 1656.606 397.934 C 1654.031 384.281, 1648.442 375.701, 1644.616 379.527 M 1590.667 621.667 C 1589.452 622.881, 1589.976 623.947, 1591.500 623.362 C 1592.325 623.045, 1593 622.384, 1593 621.893 C 1593 620.845, 1591.622 620.711, 1590.667 621.667 M 1582 635 C 1580.707 635.835, 1580.734 635.971, 1582.191 635.985 C 1583.121 635.993, 1584.160 635.550, 1584.500 635 C 1585.282 633.734, 1583.958 633.734, 1582 635 M 932 1204 C 931.411 1205.100, 931.155 1206, 931.430 1206 C 931.705 1206, 932.411 1205.100, 933 1204 C 933.589 1202.900, 933.845 1202, 933.570 1202 C 933.295 1202, 932.589 1202.900, 932 1204" stroke="none" fill="black" fill-rule="evenodd"/>
</svg>