<svg xmlns="http://www.w3.org/2000/svg" width="100" height="150" viewBox="0 0 100 150" version="1.1">
	<path d="M 40.500 3.102 C 38.300 4.217, 35.375 5.769, 34 6.550 C 32.625 7.331, 30.685 7.977, 29.690 7.985 C 24.231 8.030, 14.156 18.229, 8.462 29.475 C 2.363 41.524, 0.017 63.365, 2.822 82 C 5.637 100.707, 7.541 105.457, 16.861 117.022 C 21.782 123.129, 28.939 129, 31.463 129 C 33.271 129, 37.497 134.079, 39.368 138.500 C 43.276 147.736, 43.027 147.521, 49.565 147.290 C 59.210 146.949, 59.687 146.673, 61.701 140.255 C 63.594 134.222, 66.104 131.244, 77.659 121.318 C 82.573 117.098, 84.547 114.409, 88.304 106.818 C 96.617 90.023, 100.120 70.470, 97.588 55 C 96.476 48.207, 93.894 37.629, 93.072 36.500 C 92.672 35.950, 91.564 33.387, 90.611 30.805 C 88.297 24.540, 77.221 12.558, 72.219 10.908 C 70.173 10.234, 67.150 8.925, 65.500 8 C 63.850 7.075, 60.769 5.747, 58.653 5.049 C 56.538 4.352, 53.613 3.158, 52.153 2.397 C 48.525 0.504, 45.230 0.703, 40.500 3.102" stroke="none" fill="black" fill-rule="evenodd"/>
</svg>