<?xml version="1.0" encoding="UTF-8" standalone="no"?>
<!-- Created with Inkscape (http://www.inkscape.org/) -->

<svg
   width="62mm"
   height="88mm"
   viewBox="0 0 62 88"
   version="1.1"
   id="svg2374"
   inkscape:version="1.1 (c4e8f9e, 2021-05-24)"
   sodipodi:docname="Podocarpus chinensis.svg"
   xmlns:inkscape="http://www.inkscape.org/namespaces/inkscape"
   xmlns:sodipodi="http://sodipodi.sourceforge.net/DTD/sodipodi-0.dtd"
   xmlns="http://www.w3.org/2000/svg"
   xmlns:svg="http://www.w3.org/2000/svg">
  <sodipodi:namedview
     id="namedview2376"
     pagecolor="#ffffff"
     bordercolor="#666666"
     borderopacity="1.0"
     inkscape:pageshadow="2"
     inkscape:pageopacity="0.0"
     inkscape:pagecheckerboard="0"
     inkscape:document-units="mm"
     showgrid="false"
     units="mm"
     inkscape:zoom="0.77682379"
     inkscape:cx="396.48631"
     inkscape:cy="46.342556"
     inkscape:window-width="1920"
     inkscape:window-height="1052"
     inkscape:window-x="0"
     inkscape:window-y="28"
     inkscape:window-maximized="0"
     inkscape:current-layer="layer1" />
  <defs
     id="defs2371" />
  <g
     inkscape:label="Layer 1"
     inkscape:groupmode="layer"
     id="layer1">
    <g
       id="g47"
       transform="matrix(0.26581299,0,0,-0.26581299,36.102303,59.67556)">
      <path
         d="m 0,0 c -5.07,0.42 -9.314,1.372 -14.215,2.73 1.871,0.737 3.734,1.495 5.585,2.279 1.142,0.484 3.308,2.006 4.558,1.94 C -1.396,6.808 0.276,2.292 1.695,0.452 1.13,0.301 0.565,0.15 0,0 m -17.164,57.79 c 2.747,2.967 5.174,5.873 7.363,9.273 1.948,3.026 4.65,5.232 7.289,7.625 C -2.97,71.52 -3.48,68.355 -3.882,65.18 -4.231,62.417 -4.219,59.23 -5.51,56.7 -8.186,51.458 -12.403,46.437 -15.643,41.496 c -1.139,3.645 -2.215,7.316 -3.516,10.902 -1.126,3.105 -0.43,3.34 1.995,5.392 m 5.215,-24.768 c -0.806,2.647 -1.942,4.117 -0.183,6.192 1.813,2.138 3.2,4.366 4.708,6.745 -0.91,-4.813 -2.445,-8.516 -4.525,-12.937 m 35.63,-43.668 c 5.443,0 10.971,-0.199 16.371,-0.925 4.468,-0.603 9.462,-3.646 13.827,-1.899 -5.262,3.826 -11.869,4.863 -18.156,5.752 -3.432,0.486 -6.76,0.615 -10.219,0.6 C 21.856,-7.134 20.497,-7.305 18.032,-9.994 14.095,-4.307 9.638,0.991 5.214,6.3 c 6.432,1.892 12.575,4.284 19.345,4.671 4.12,0.235 12.271,-3.013 15.416,0.76 -3.064,1.885 -4.845,1.794 -8.339,1.739 -4.04,-0.065 -8.081,0.176 -12.1,-0.356 C 15.589,12.592 11.655,11.637 7.845,10.491 6.066,9.957 1.673,7.525 1.279,11.254 c -0.251,2.37 4.388,4.899 5.825,6.302 2.133,2.082 3.822,5.074 6.436,6.543 6.738,3.786 13.597,2.818 21.003,2.406 -0.875,1.46 -0.994,2.027 -2.582,2.587 -1.339,0.471 -3.024,0.578 -4.439,0.615 -3.485,0.091 -7.447,0.057 -10.773,-1.072 -3.468,-1.178 -5.648,-3.929 -8.185,-6.406 -3,-2.927 -6.42,-5.443 -9.651,-8.108 -1.323,1.875 -2.801,2.972 -1.974,5.214 0.722,1.955 2.513,3.477 3.917,4.936 3.781,3.924 7.616,7.508 10.887,11.892 6.692,8.966 16.628,14.956 26.493,19.889 -2.49,1.162 -3.359,1.41 -6.079,0.494 -2.266,-0.764 -4.214,-1.743 -6.223,-3.04 C 21.673,50.756 17.448,47.651 13.807,44.114 6.481,36.999 0.459,28.496 -5.432,20.205 c -1.014,2.092 -3.998,5.867 -2.874,8.107 1.157,2.303 4.978,4.279 6.99,5.673 6.747,4.674 10.879,11.055 16.303,17.099 5.512,6.141 11.506,11.79 17.693,17.241 3.135,2.763 6.164,6.055 9.651,8.371 2.424,1.61 5.547,1.762 6.552,4.775 -3.25,-0.482 -5.782,-0.766 -8.68,-2.462 -2.881,-1.687 -5.618,-3.641 -7.995,-5.99 -2.181,-2.156 -4.086,-4.58 -6.354,-6.648 C 23.298,64.039 20.32,62.221 17.662,60.013 12.483,55.711 8.346,49.658 4.342,44.288 2.45,41.75 0.705,38.989 -1.496,36.703 c -2.579,-2.677 -5.673,-4.962 -8.498,-7.374 4.223,6.56 6.052,13.653 7.091,21.399 1.029,7.676 6.943,13.876 11.621,19.709 9.952,12.409 20.635,26.143 26.477,41.015 -3.32,-3.319 -6.642,-6.345 -9.359,-10.208 C 22.899,97.07 20.117,92.791 17.176,88.617 11.102,79.997 5.232,71.196 -1.026,62.71 c 0.439,2.894 0.772,5.804 1.12,8.711 0.205,1.721 -0.084,4.614 0.93,6 1.095,1.495 4.02,2.981 5.558,4.034 2.358,1.613 2.325,2.459 2.977,5.231 -2.556,-1.61 -5.082,-3.275 -7.747,-4.702 2.7,8.37 6.29,16.295 8.834,24.689 C 9.002,104.736 7.078,103.028 5.602,100.952 4.03,98.744 3.069,96.073 1.985,93.599 0.923,91.175 -0.304,88.654 -0.861,86.053 -1.296,84.024 -0.8,81.76 -1.947,79.942 c -1.09,-1.727 -3.506,-2.963 -4.99,-4.342 -1.831,-1.703 -3.517,-3.562 -5.218,-5.391 -3.748,-4.029 -6.192,-8.109 -8.919,-12.854 -1.056,4.373 -2.004,6.535 1.187,10.052 2.535,2.796 5.453,5.253 7.931,8.103 4.697,5.403 8.029,13.758 9.131,20.734 -4.469,-4.469 -6.977,-9.31 -9.846,-14.862 -1.353,-2.619 -3.289,-4.486 -5.284,-6.611 -2.185,-2.325 -3.797,-4.964 -5.509,-7.639 -0.28,2.24 -1.167,4.244 0.051,6.344 1.083,1.867 3.064,3.52 4.421,5.208 3.355,4.173 5.793,8.768 8.703,13.232 2.959,4.538 6.139,8.646 9.895,12.547 3.358,3.486 7.762,7.312 10.238,11.489 2.353,3.969 -3.902,1.423 -5.387,0.366 -4.123,-2.931 -7.723,-8.061 -10.915,-11.946 -7.393,-8.995 -12.465,-19.399 -18.31,-29.419 0.507,4.433 0.696,9.14 2.733,13.218 2.08,4.162 5.522,8.018 8.152,11.86 5.302,7.745 10.094,16.497 16.956,22.969 1.284,1.211 2.55,2.709 4.174,3.469 1.202,0.563 3.208,0.43 4.161,1.455 2.658,2.855 -2.579,1.686 -3.804,1.34 -8.385,-2.373 -12.893,-10.277 -18.684,-16.29 1.911,11.465 8.251,21.939 12.868,32.464 2.274,5.185 4.555,10.378 7.361,15.303 2.975,5.222 6.335,10.212 8.883,15.671 -4.068,1.357 -7.261,-3.891 -8.942,-6.713 -2.925,-4.915 -5.966,-9.759 -8.91,-14.66 -5.884,-9.797 -9.317,-21.062 -14.085,-31.42 -0.15,4.642 -0.449,9.278 -0.868,13.904 -3.536,-8.836 -4.346,-18.271 -5.876,-27.615 -0.732,-4.47 -1.131,-9.086 -2.14,-13.499 -1.079,-4.722 -3.311,-9.127 -5.021,-13.635 -1.627,4.881 -0.516,10.224 1.179,14.929 1.246,3.456 3.722,7.796 1.212,11.143 -1.585,-4.205 -3.227,-8.394 -4.755,-12.619 -1.386,-3.829 -1.514,-7.71 -1.98,-11.714 -1.703,6.812 -3.813,13.436 -5.952,20.12 -0.84,2.621 -1.455,4.988 -3.219,7.181 -1.701,2.115 -3.777,3.892 -5.522,5.966 -3.912,4.652 -5.784,10.675 -8.812,15.884 -2.335,4.016 -6.34,8.725 -11.039,9.508 2.685,-4.835 6.188,-9.085 8.451,-14.169 2.449,-5.505 4.637,-11.097 7.182,-16.566 5.127,-11.019 10.77,-21.777 16.086,-32.705 -5.084,5.741 -11.432,11.097 -15.566,17.562 -3.894,6.091 -7.496,11.945 -11.993,17.657 -4.628,5.879 -9.095,11.756 -12.757,18.271 -3.519,6.259 -10.569,11.179 -15.736,16.033 4.03,-7.91 8.042,-15.903 12.551,-23.555 4.392,-7.453 10.539,-14.228 15.779,-21.115 5.357,-7.043 11.208,-13.476 17.387,-19.799 6.188,-6.331 11.213,-13.188 16.202,-20.478 -10.785,5.991 -20.643,13.446 -30.634,20.639 6.438,-9.657 15.915,-14.823 25.597,-20.679 9.375,-5.67 10.94,-17.28 14.366,-26.985 -3.842,5.458 -9.202,10.524 -14.268,14.863 -4.986,4.272 -11.192,9.497 -17.439,11.727 3.455,-4.518 6.661,-8.435 11.039,-12.125 4.025,-3.394 8.286,-6.565 12.21,-10.069 3.93,-3.51 6.387,-8.23 9.205,-12.612 0.765,-1.19 3.109,-3.527 3.154,-4.919 0.03,-0.921 -0.837,-1.581 -0.813,-2.487 0.03,-1.149 1.193,-2.236 1.704,-3.194 -2.818,0.845 -5.534,1.276 -8.008,2.977 -2.787,1.917 -5.341,4.47 -7.669,6.911 -4.54,4.759 -9.05,9.404 -13.811,13.953 -9.209,8.798 -17.483,19.947 -29.823,24.389 2.153,-5.382 4.366,-9.697 8.176,-14.12 3.493,-4.055 7.385,-7.756 11.256,-11.443 3.724,-3.548 7.21,-7.571 11.228,-10.782 4.383,-3.501 9.403,-6.225 14.095,-9.279 -2.634,0.659 -5.429,1.156 -7.808,2.534 -2.623,1.521 -4.082,2.742 -7.119,3.533 -5.988,1.56 -11.962,1.989 -18.096,2.624 7.937,-6.879 18.645,-9.515 28.009,-13.916 4.606,-2.165 9.024,-2.73 14.036,-3.218 2.468,-0.239 4.992,-0.387 7.442,-0.755 3.101,-0.466 4.3,-1.638 6.564,-3.619 -5.65,-1.413 -12.097,-3.773 -17.984,-2.785 -6.24,1.047 -12.369,2.604 -18.704,3.046 -2.612,0.181 -5.565,0.383 -8.107,-0.422 -2.599,-0.824 -1.827,-1.984 -0.148,-3.647 3.512,-3.481 10.533,-3.227 15.113,-3.96 -2.363,-1.3 -6.522,-3.128 -7.32,-5.92 5.863,0.838 11.412,2.207 17.141,3.532 4.794,1.108 10.753,-0.996 15.699,-1.181 3.211,-0.12 6.281,0.436 9.412,1.092 2.156,0.45 3.785,1.388 5.451,-0.395 3.657,-3.914 6.811,-8.647 10.191,-12.826 1.391,-1.722 1.905,-2.143 -0.025,-3.49 -1.764,-1.234 -3.655,-2.401 -5.508,-3.504 -4.942,-2.946 -10.414,-3.898 -16.01,-4.827 -5.665,-0.942 -11.188,-2.349 -16.684,-4.012 -5.59,-1.691 -11.302,-2.844 -16.625,-5.239 0.972,-1.166 1.404,-2.326 2.957,-2.761 1.644,-0.46 4.007,-0.192 5.708,-0.062 4.286,0.328 9.047,0.672 13.138,1.998 7.594,2.46 15.832,3.941 22.781,8.027 3.652,2.146 7.072,4.777 10.408,7.377 0.692,0.539 1.73,1.83 2.524,2.003 1.082,0.234 1.375,-0.678 2.192,-1.654 1.427,-1.7 2.894,-3.365 4.356,-5.034 6.347,-7.239 12.41,-14.744 18.493,-22.206 0.844,0.775 3.284,1.933 3.469,3.197 0.149,1.009 -1.738,2.416 -2.347,3.143 -3.35,3.997 -5.873,8.689 -9.412,12.492 -3.473,3.733 -5.933,8.229 -9.386,11.915 -2.715,2.898 -5.904,5.561 -0.573,7.201"
         style="fill:#231f20;fill-opacity:1;fill-rule:nonzero;stroke:none"
         id="path49" />
    </g>
  </g>
</svg>
