<?xml version="1.0" encoding="UTF-8"?><svg id="Layer_1" xmlns="http://www.w3.org/2000/svg" viewBox="0 0 1024 1024"><path d="M374.78,323.01c-1.13,8.38-3.56,16.02-12.08,21.62,2.44-8.17,4.74-15.22,2.39-23.05l-12.08,13.21c-.32-8.44,4.92-15.68,1.29-24.75l-7.83,13.86-1.02-.57-2.14-11.23-1.66-.14-8.16,24.04-1.75-.34c-1.99-4.67.44-10.82-4.44-14.94-2.57,9.95-4.44,19.85-13.95,25.9l3.91-22.49-1.67-1-8.62,7.9-1.3-.36,4.77-19.8c-10.11,7.39-14.06,16.6-16,27l-1.31.23-3.51-12.44c-2.15,4.7-4.33,8.25-5.38,12.1-1.06,3.88-.99,8.06-1.54,13.21-6.35-8.07-5.97-16.23-5.83-25.18l-11.54,13.23c-1.03-13.95,6.16-23.4,12.74-33.08l-1.02-1.19-10.78,6.42-1.32-.58,8.41-18.22c-8.36,1.5-13.48,10.84-16.2,28.42l-5.93-12.62c-4.18,11.97,2.52,20.74,5.8,31.08l-12.28-8.13c1.2,11.97,6.95,20.57,16.34,27.13l-.98,1.56-15.51-4.27c1.05,10.63,10.22,16.17,16.04,25.19-10.39-1.8-17.17-7.15-23.69-14.99l-.52,10.65-1.87.56-10.22-22.83c-2.07,2.72-2.52,7.51-.68,16.01,1.21,5.58,2.99,11.04,4.52,16.56l-1.12.9c-2.95-3.92-6.32-7.6-8.74-11.83-2.41-4.21-3.87-8.97-6.04-14.21-4.95,7.5-4.03,15.16-3.96,23.84-7.57-7.91-6.75-17.65-9.75-26.88l-5.42,11.33c-4.44-11.13,1.58-20.7.52-31.05-7.08,4.41-8.04,11.4-10.65,18.57-4.01-5.16-3.6-10.52-2.54-15.37,1.4-6.43,3.98-12.6,6.03-18.88.59-1.79,1.12-3.61,1.86-6.02-9.21,4.88-13.47,11.94-16.24,26-3.28-3.41-4.4-7.66-3.27-15.01.8-5.15,2.19-10.21,3.5-16.18l-18.74,11.05,11.22-29.03-1.97-1.45-13.19,10.58c1.61-11.39,10.38-17.24,16.4-25.59l-17.16,8.3c2.66-8.92,10.1-14.28,15.31-21.33h-14.23l23.44-14.66-.19-1.03-12.58,1.72-.61-.92,17.63-11.79c-10.34,1.04-19.38,4.7-26.83,12,2.37-9.02,9.05-14.01,17.65-19.04l-13.11-1.2-.34-1.13,22.03-9.33-12.9-2.61-.08-1.57,28.28-5.94.16-1.53-19.53-3.91c10.14-6.18,20.23-2.53,30.51-3.46-3.2-3.72-6.79-4.38-10.6-4.44-3.53-.05-7.07-.01-11.01-.01,5.28-6.76,13.43-6.75,20.3-9.36l.2-1.44-16.67-4.44c12.37-6.47,26.03-2.39,38.74-6.21-8.3-1.45-15.63-4.35-21.08-11.97l18.81,3.31.61-1.61c-5.5-4.72-12.42-8.35-13.76-17.63,8.16,5.94,15.61,11.73,26.56,8.99-4.57-6.16-12.79-8.27-13.96-16.72,7.31,3.85,13.28,11.04,22.13,7.37l1.05-1.98-13.66-11.25.62-.99,11.33,2.85-4.12-11.21,1.11-.98c5.7,5.88,11.66,11.16,21.47,9.27l-11.91-12.76.78-1.39,21.51,10.77c-1.4-8.4-6.82-13.34-13.13-17.9,10.53-2.17,17.79,4.48,26.44,9.95v-15.75l1.35-.58c5.4,8.87,8.68,19.63,19.26,23.87l1.14-.88-10.34-13.21,11.72,3.73c-8.04-8.89-17.04-16.64-17.35-30.66,5.65,6.14,10.2,12.43,18.78,13.71-1.72-6.55-5.1-12.73-.7-19.95,3.5,12.37,10.87,20.93,20.78,27.41l1.3-.89-7.13-10.69.6-1,10.99,5.72c-3.17-7.25-8.33-12.86-6.55-21.87,5.62,11.41,16.71,14.19,26.3,20.69-3.11-10.15-11.58-15.2-17.62-22.88,10.98.72,17.94,8.01,26.21,12.97-2.16-10.3-9.42-16.44-18.66-22.19,8.71-1.59,13.84,3.5,20.63,7.3l-.89-10.91c7.44,1.92,8.46,10.31,14.88,14.33l-2.6-13.18,1-.54,13.23,19.98c6.88-9.38,1.91-17.09-2.3-25,7.3,1.11,10.97,4.81,19.2,18.81l4.24-2.2v14.56q4.21-5.33-2.81-30.35c7.16,3.51,9.96,10.14,14.82,15.73v-15.13l1.29-.63,8.9,19.4,5.57-9.86,4.06,19.32,1.57-.2,1.89-8.06,1.52.05,5.08,19.22c5.82-5.4,3.79-10.94,2.45-15.85-1.39-5.13-4-9.92-5.54-15.28,8.09,2.83,11.83,10.12,16.99,16.21,2.69-11.98-5.77-19.7-11.19-28.53l1.19-1.2,14.59,9.6,2.39-7.65,1.07-.35,4.48,14.75c4.98-7.96,4.56-15.6,4.73-23.82,6.42,4.99,5.55,12.14,8.17,18.77l4.81-7.5,5.85,21.01,1.55-.21c3-7.54,3.61-16.42,11.75-21.3-1.26,8.63-4.27,17.06-1.39,27.32l8.52-16.72,1.71.28c0,3.98.18,7.97-.05,11.94-.22,3.88-.85,7.73-1.45,12.94,11-9.26,8.26-21.69,11.8-32.51l4.08,9.67c7.1-3.95,7.88-11.03,8.9-19.1,6.98,8.5,1.82,16.74,1.22,25.84,11.47-5.08,20.36-11.52,26.44-23.33,2.13,13.56-7.83,21-10.83,31.46l19.98-19.65c.69,9.13-4.69,15.71-8.37,22.86l1.32,1.06c2.34-2.28,5.19-4.24,6.93-6.91,6.02-9.25,14-15.91,24.27-19.85.86-.33,1.84-.37,3.98-.78l-15.02,18.9,1.09,1.31c9.07-2.66,16.8-8.12,25.95-13.82-3.44,9.2-10.94,13.35-17.24,20.02l20.21-2.54.3,1.63c-8.39,7.46-21.13,9.4-27.09,19.94l.73,1.18,7.78-3.57-1.31,9.87.94.34,11.13-17.33,1.47.66v8.61c7.63-7.28,13.99-15.61,25.78-17.52-5.85,8.48-13.22,15.28-15.61,26.64,10.23-9.72,19.79-17.87,32.89-20.34-6.27,6.39-14.3,11.18-16.81,22.3l20.06-11.8c-2.81,9.66-12.63,12.42-17.87,19.21l.84,1.43,25.3-12.09.92.65-7.81,11.13c12.13-3.24,20.37-10.59,28.33-18.4l1.2.79c-1.31,3.42-2.21,7.09-4.06,10.2-1.82,3.06-4.59,5.55-6.67,8.63,10.1-2.87,16.55-10.51,23.35-18.76.3,9.03-4.88,14.57-9.7,20.53l31.24-8.38.95,1.74-11.16,9.93.56,1.11,25.33-3.8.82,2.35-17.99,9.53.27,1.52c7.85,1.31,16.51-.51,23.97,6.16-9.54.38-18.88-.19-26.98,7.09l21.82,2.55.11,1.8-13.11,3.64c8.42,4.79,20.53,3.12,43.32-5.72-.95,5.85-6.02,8.69-21.17,16.16,13.41,2.22,25.05.73,36.74-7.45-2.06,8.91-9.68,10.67-13.72,15.36l18.13,5.12-.38,2.34h-22.13l-.13,1.56,17.57,3.84.2,1.16-19.21,6.6c9.41,6.07,18.42,2.51,27.25,1.4l.56,1.15-10.43,6.35.12,1.21c4.3,0,8.65.44,12.87-.12,4.33-.58,8.52-2.15,13.76-3.56-2.68,7.33-9.54,8.38-15.03,12.37l15.53,6.98-.06.92h-14.5l-.18,1.34,17.73,6.43.07,1.47-8.89,3.06c6.47,7.06,13.74,11.98,23.27,13.6-7.53,4.9-15.6,4.84-23.85,3.57l-.54,1.15c1.76,1.08,3.49,2.24,5.29,3.24,8,4.42,15.28,9.52,18.25,18.81.23.73.37,1.5.9,3.65l-14.06-8.67-.91,1.11c3.85,12.09,9.69,22.35,24.38,24.35q-2.81,3.37-15.48,3.97c5.35,8.87,12.3,17.17,8.87,29.95-5.54-11-10.77-20.85-23.29-23,6.02,6.23,11.93,12.46,13.9,21.84l-15.11-9.08-1.03,1.34c5.21,8.52,16.24,12.73,18.74,24.67l-10.37-6.11-1.02.98c3.59,6.44,8.15,12.58,6.89,21.45-5.37-7.07-9.73-14.43-20.09-16.15,8.05,10.15,14.12,19.9,14.89,33.16l-14.5-12.87-2.01,1.22,5.26,27.97-2.05,1.01-10.34-13.85c.98,9.91,3.84,17.69,7.76,26.03-2.64-1.18-5.46-2.09-7.89-3.61-2.6-1.63-4.85-3.83-7.22-5.76-.91,7.1-1.72,13.92-2.73,20.71-.18,1.22-1.19,2.31-2,3.8l-10.8-25.19-1.68.53c.99,12.42,3.29,24.95-2.95,37.78l-5.68-22.52-1.61.07c-.75,5.28-1.08,10.67-2.38,15.82-1.32,5.24-3.6,10.25-5.46,15.36l-1.83.08-3.56-16.45c-2.23,11.34-5.4,20.91-13.06,29.51l-.78-9.61-14.89,11.33-1.19-.98c3.68-7.22,7.62-14.38,6.7-23.75-5.6,6.46-8.98,14.22-18.08,16.67l2.65-9.84c-7.7,4.09-14.33,8.35-22.46,6.04l16.31-17.17-1.2-1.52-17.68,5.11c.21-5.3,4.94-5.96,7.42-8.4,2.77-2.73,5.91-5.07,8.89-7.58l-.49-1.24-12.79-.61c6.38-5.07,13.69-7.27,17.05-15.9l-9.86,4.58c2.56-6.75,8.96-12.3,2.96-20.04-4.19,8.26-10.15,13.41-19.84,12.77,5.64-5.53,10.85-11.17,12.16-20.25l-16.77,10.7-.9-1.15c3.85-7.33,10.43-13.63,8.9-23.28-5.38,8.09-11.38,15.1-22.9,16.47,7.3-7.26,12.77-14.54,12.05-24.94l-8.06,9.05-1.4-.81,3.3-14.74-1.87-.7c-6.26,5.83-6.94,14.37-10.44,22.25l-2.63-14.63c-5.8,5.27-8.93,12.98-18.03,14.84,6.66-8.94,10.39-17.72,6.51-28.67l-7.17,13.62-1-.52-2.69-15.89c-14.76,2.69-26.3,9.18-36.52,18.21-16.47,14.55-25.75,33.56-32.65,53.88-7.96,23.43-13.78,47.44-16,72.1-2.21,24.47-4.54,49.02-4.81,73.55-.57,52.52,7.26,104.08,21.12,154.73,10.94,39.97,24.87,78.88,40.93,117.08,7,16.64,17.84,28.64,34.57,35.84,10.31,4.44,20.23,9.98,29.79,15.89,4.16,2.57,7.73,6.89,10.23,11.19,4.15,7.13,2.67,13.66-3.25,19.34-8.78,8.43-19.91,12.5-31.22,15.79-21.05,6.13-42.64,9.73-64.51,11.11-30.02,1.89-60.07,3.99-90.13,4.47-24.24.39-48.58-.63-72.75-2.55-25.42-2.02-50.77-5.3-75.99-9.05-17.85-2.66-35.28-7.59-51.48-15.96-3.22-1.67-6.25-3.8-9.16-5.98-10.17-7.61-11.27-19.28-3.04-29.04,7.29-8.64,16.96-13.73,26.87-18.49,5.97-2.87,12.05-5.5,18.04-8.35,11.11-5.29,16.26-14.58,16.1-26.44-.33-25.78-2.08-51.57-1.6-77.32.47-25.38,2.46-50.78,4.69-76.09,6.56-74.25,24.77-146.07,45.69-217.34,5.91-20.13,11.16-40.59,14.75-61.25,4.22-24.27,2.26-48.2-13.63-68.74-4.05-5.23-9.55-9.34-14.38-13.97l-1.52,1.13Z"/></svg>