<svg xmlns="http://www.w3.org/2000/svg" width="2048" height="2048" viewBox="0 0 2048 2048" version="1.1">
	<path d="M 1021.526 460.750 C 1021.148 461.712, 1020.414 471.050, 1019.896 481.500 C 1019.378 491.950, 1018.388 506.600, 1017.696 514.055 L 1016.437 527.610 1012.146 531.487 C 1002.051 540.608, 997.946 558.798, 1000.974 581 C 1003.414 598.886, 1003.999 604.434, 1005.142 620.500 C 1006.833 644.261, 1006.636 682.333, 1004.682 709.500 C 1003.772 722.150, 1002.771 736.325, 1002.458 741 C 1000.837 765.206, 993.292 807.868, 986.865 829.172 C 982.836 842.527, 971.759 854.546, 954.194 864.618 C 942.707 871.206, 939.133 872.104, 916.500 874.092 C 888.919 876.514, 835.708 876.707, 816 874.456 C 760.962 868.170, 730.164 862.257, 674.500 847.291 C 657.610 842.749, 640.373 839.464, 622.707 837.419 C 598.827 834.654, 588.465 836.364, 561.431 847.530 C 541.325 855.836, 519.146 863.574, 509.753 865.561 C 505.764 866.405, 493.275 868.447, 482 870.099 C 470.725 871.751, 459.025 873.743, 456 874.524 C 445.486 877.241, 420.402 885.776, 404 892.218 C 394.925 895.782, 379.625 901.759, 370 905.501 C 338.379 917.794, 314.947 929.548, 294.874 943.188 C 287.083 948.482, 276.459 958.924, 271.757 965.910 C 269.802 968.813, 269.458 972.547, 271.053 973.533 C 272.123 974.194, 298.548 968.321, 309.500 964.987 C 312.800 963.983, 322.025 961.291, 330 959.006 C 337.975 956.720, 346.608 953.984, 349.185 952.925 C 357.544 949.491, 355.699 950.875, 343.977 956.833 C 330.454 963.707, 295.667 984.835, 285.611 992.283 C 267.675 1005.567, 253.370 1019.632, 249.177 1028.107 C 246.776 1032.961, 247.181 1034.661, 250.935 1035.486 C 254.505 1036.270, 274.226 1031.830, 282.303 1028.423 C 296.311 1022.516, 315.388 1015.055, 315.697 1015.363 C 315.878 1015.545, 311.408 1019.531, 305.763 1024.222 C 294.394 1033.670, 280.668 1047.532, 274.241 1056.057 C 269.250 1062.676, 262.341 1077.013, 261.447 1082.604 C 260.280 1089.906, 263.917 1090.817, 277.121 1086.529 C 292.348 1081.585, 317.564 1067.925, 344.249 1050.166 C 349.887 1046.413, 355.175 1042.969, 356 1042.510 C 357.600 1041.622, 357.575 1041.652, 345.932 1055.052 C 338.947 1063.090, 335.476 1067.347, 323.665 1082.356 C 313.256 1095.585, 299.694 1121.613, 297.743 1132.108 C 296.694 1137.746, 296.758 1138.350, 298.532 1139.647 C 303.652 1143.391, 317.585 1135.528, 342.137 1115.039 C 345.787 1111.992, 351.679 1107.168, 355.231 1104.318 C 358.783 1101.467, 367.681 1093.367, 375.006 1086.318 C 388.230 1073.589, 388.948 1073.352, 382.165 1083.956 C 365.963 1109.283, 353.343 1138.514, 354.190 1148.749 C 354.481 1152.272, 354.682 1152.479, 357.492 1152.147 C 361.570 1151.665, 366.554 1149.025, 379.500 1140.489 C 389.872 1133.651, 396.044 1128.016, 405.656 1116.610 C 409.381 1112.190, 409.840 1111.920, 410.436 1113.798 C 411.244 1116.345, 417.072 1118.436, 421.110 1117.628 C 426.774 1116.495, 438.584 1110.243, 446.699 1104.081 L 454.898 1097.855 457.784 1101.084 C 461.136 1104.836, 464.100 1105.110, 472.294 1102.426 C 477.868 1100.601, 487.273 1096.083, 490.424 1093.717 C 492.129 1092.437, 492.737 1092.502, 495.772 1094.293 C 500.763 1097.238, 506.657 1096.833, 513.736 1093.060 L 519.594 1089.937 525.609 1091.478 C 530.240 1092.665, 532.819 1092.793, 536.812 1092.036 C 542.038 1091.045, 547.404 1088.774, 548.426 1087.120 C 548.735 1086.620, 550.728 1086.829, 552.950 1087.595 C 558.410 1089.476, 565.214 1088.057, 574.789 1083.039 C 580.884 1079.845, 582.657 1079.301, 583.820 1080.266 C 584.665 1080.967, 588.645 1081.497, 593.384 1081.540 C 600.139 1081.602, 602.484 1082.087, 607.368 1084.434 C 612.461 1086.882, 614.069 1087.188, 619.540 1086.749 C 623.006 1086.471, 626.216 1086.597, 626.671 1087.031 C 628.107 1088.395, 638.204 1091, 642.059 1091 C 644.092 1091, 646.301 1091.658, 646.969 1092.462 C 648.951 1094.851, 658.699 1098, 664.109 1098 C 667.585 1098, 670.438 1098.740, 673.322 1100.389 C 678.843 1103.546, 683.415 1104.930, 691.675 1105.944 C 695.429 1106.404, 701.386 1108.003, 704.913 1109.496 C 713.029 1112.932, 723.908 1113.796, 732.650 1111.699 C 738.659 1110.258, 738.894 1110.280, 742.854 1112.641 C 749.597 1116.662, 761.153 1119.196, 774 1119.470 C 783.224 1119.666, 786.588 1120.159, 791 1121.959 C 795.094 1123.629, 798.162 1124.144, 803 1123.972 C 818.226 1123.429, 836.775 1124.602, 843.500 1126.532 C 847.374 1127.643, 852.555 1127.845, 866.500 1127.428 C 889.446 1126.742, 888.926 1126.740, 899.091 1127.550 C 904.362 1127.970, 909.700 1127.801, 912.906 1127.113 C 918.666 1125.878, 919.140 1126.066, 933.405 1135.213 C 936.653 1137.296, 940.502 1139, 941.959 1139 C 943.673 1139, 945.804 1140.235, 948 1142.500 C 949.866 1144.425, 952.298 1146, 953.406 1146 C 954.520 1146, 957.306 1148.055, 959.642 1150.600 C 963.687 1155.006, 963.951 1155.693, 965.884 1166.850 C 966.993 1173.258, 968.397 1183.900, 969.003 1190.500 C 973.079 1234.909, 973.762 1239.924, 978.080 1257.168 C 981.829 1272.136, 985.521 1278, 991.196 1278 C 993.011 1278, 996.017 1279.126, 998.151 1280.604 C 1001.219 1282.731, 1002.004 1283.970, 1002.429 1287.354 C 1004.235 1301.751, 1007.554 1376.768, 1007.435 1400.500 C 1007.391 1409.137, 1006.768 1416.185, 1005.577 1421.500 C 1003.557 1430.512, 1003.854 1445.699, 1006.177 1452.208 C 1007.196 1455.066, 1007.286 1458.243, 1006.569 1466.054 C 1005.867 1473.701, 1005.953 1477.212, 1006.919 1480.346 C 1007.624 1482.631, 1008.429 1486.445, 1008.707 1488.822 C 1009.728 1497.544, 1015.718 1494.310, 1016.990 1484.351 C 1017.666 1479.064, 1017.750 1479.518, 1017.869 1489.050 C 1018.008 1500.279, 1018.662 1502, 1022.788 1502 C 1025.009 1502, 1025.130 1502.272, 1024.517 1505.897 C 1024.075 1508.518, 1024.259 1510.042, 1025.081 1510.550 C 1028.739 1512.811, 1031.477 1499.668, 1030.195 1486 C 1029.705 1480.775, 1029.461 1476.313, 1029.652 1476.083 C 1030.403 1475.184, 1031.193 1477.017, 1031.708 1480.858 C 1032.005 1483.071, 1032.866 1485.118, 1033.622 1485.408 C 1035.594 1486.165, 1038.041 1481.898, 1037.923 1477.908 C 1037.868 1476.033, 1038.490 1467.300, 1039.306 1458.500 C 1040.426 1446.414, 1041.335 1441.292, 1043.024 1437.563 C 1044.946 1433.318, 1045.186 1431.470, 1044.743 1424.364 C 1044.387 1418.662, 1043.526 1414.653, 1041.964 1411.426 C 1039.815 1406.987, 1039.735 1406.010, 1040.377 1392.125 C 1040.749 1384.081, 1041.482 1365.350, 1042.005 1350.500 C 1042.948 1323.781, 1044.549 1295.371, 1045.566 1287.354 C 1045.994 1283.973, 1046.784 1282.729, 1049.849 1280.604 C 1051.983 1279.126, 1054.989 1278, 1056.804 1278 C 1062.479 1278, 1066.171 1272.136, 1069.920 1257.168 C 1074.238 1239.924, 1074.921 1234.909, 1078.997 1190.500 C 1079.603 1183.900, 1081.007 1173.258, 1082.116 1166.850 C 1084.049 1155.693, 1084.313 1155.006, 1088.358 1150.600 C 1090.694 1148.055, 1093.480 1146, 1094.594 1146 C 1095.702 1146, 1098.134 1144.425, 1100 1142.500 C 1102.196 1140.235, 1104.327 1139, 1106.041 1139 C 1107.498 1139, 1111.347 1137.296, 1114.595 1135.213 C 1128.860 1126.066, 1129.334 1125.878, 1135.094 1127.113 C 1138.300 1127.801, 1143.638 1127.970, 1148.909 1127.550 C 1159.074 1126.740, 1158.554 1126.742, 1181.500 1127.428 C 1195.445 1127.845, 1200.626 1127.643, 1204.500 1126.532 C 1211.225 1124.602, 1229.774 1123.429, 1245 1123.972 C 1249.838 1124.144, 1252.906 1123.629, 1257 1121.959 C 1261.412 1120.159, 1264.776 1119.666, 1274 1119.470 C 1286.847 1119.196, 1298.403 1116.662, 1305.146 1112.641 C 1309.106 1110.280, 1309.341 1110.258, 1315.350 1111.699 C 1324.092 1113.796, 1334.971 1112.932, 1343.087 1109.496 C 1346.614 1108.003, 1352.571 1106.404, 1356.325 1105.944 C 1364.585 1104.930, 1369.157 1103.546, 1374.678 1100.389 C 1377.562 1098.740, 1380.415 1098, 1383.891 1098 C 1389.301 1098, 1399.049 1094.851, 1401.031 1092.462 C 1401.699 1091.658, 1403.908 1091, 1405.941 1091 C 1409.796 1091, 1419.893 1088.395, 1421.329 1087.031 C 1421.784 1086.597, 1424.994 1086.471, 1428.460 1086.749 C 1433.931 1087.188, 1435.539 1086.882, 1440.632 1084.434 C 1445.516 1082.087, 1447.861 1081.602, 1454.616 1081.540 C 1459.355 1081.497, 1463.335 1080.967, 1464.180 1080.266 C 1465.343 1079.301, 1467.116 1079.845, 1473.211 1083.039 C 1482.786 1088.057, 1489.590 1089.476, 1495.050 1087.595 C 1497.272 1086.829, 1499.265 1086.620, 1499.574 1087.120 C 1500.596 1088.774, 1505.962 1091.045, 1511.188 1092.036 C 1515.181 1092.793, 1517.760 1092.665, 1522.391 1091.478 L 1528.406 1089.937 1534.264 1093.060 C 1541.343 1096.833, 1547.237 1097.238, 1552.228 1094.293 C 1555.263 1092.502, 1555.871 1092.437, 1557.576 1093.717 C 1560.727 1096.083, 1570.132 1100.601, 1575.706 1102.426 C 1583.900 1105.110, 1586.864 1104.836, 1590.216 1101.084 L 1593.102 1097.855 1601.301 1104.081 C 1609.416 1110.243, 1621.226 1116.495, 1626.890 1117.628 C 1630.928 1118.436, 1636.756 1116.345, 1637.564 1113.798 C 1638.160 1111.920, 1638.619 1112.190, 1642.344 1116.610 C 1651.956 1128.016, 1658.128 1133.651, 1668.500 1140.489 C 1681.446 1149.025, 1686.430 1151.665, 1690.508 1152.147 C 1693.318 1152.479, 1693.519 1152.272, 1693.810 1148.749 C 1694.657 1138.514, 1682.037 1109.283, 1665.835 1083.956 C 1659.052 1073.352, 1659.770 1073.589, 1672.994 1086.318 C 1680.319 1093.367, 1689.217 1101.467, 1692.769 1104.318 C 1696.321 1107.168, 1702.213 1111.992, 1705.863 1115.039 C 1730.415 1135.528, 1744.348 1143.391, 1749.468 1139.647 C 1751.242 1138.350, 1751.306 1137.746, 1750.257 1132.108 C 1748.306 1121.613, 1734.744 1095.585, 1724.335 1082.356 C 1712.524 1067.347, 1709.053 1063.090, 1702.068 1055.052 C 1690.425 1041.652, 1690.400 1041.622, 1692 1042.510 C 1692.825 1042.969, 1698.113 1046.413, 1703.751 1050.166 C 1730.436 1067.925, 1755.652 1081.585, 1770.879 1086.529 C 1784.083 1090.817, 1787.720 1089.906, 1786.553 1082.604 C 1785.659 1077.013, 1778.750 1062.676, 1773.759 1056.057 C 1767.332 1047.532, 1753.606 1033.670, 1742.237 1024.222 C 1736.592 1019.531, 1732.122 1015.545, 1732.303 1015.363 C 1732.612 1015.055, 1751.689 1022.516, 1765.697 1028.423 C 1773.774 1031.830, 1793.495 1036.270, 1797.065 1035.486 C 1800.819 1034.661, 1801.224 1032.961, 1798.823 1028.107 C 1794.630 1019.632, 1780.325 1005.567, 1762.389 992.283 C 1752.333 984.835, 1717.546 963.707, 1704.023 956.833 C 1692.301 950.875, 1690.456 949.491, 1698.815 952.925 C 1701.392 953.984, 1710.025 956.720, 1718 959.006 C 1725.975 961.291, 1735.200 963.983, 1738.500 964.987 C 1749.452 968.321, 1775.877 974.194, 1776.947 973.533 C 1778.542 972.547, 1778.198 968.813, 1776.243 965.910 C 1762.684 945.765, 1730.213 925.799, 1678 905.501 C 1668.375 901.759, 1653.075 895.782, 1644 892.218 C 1627.598 885.776, 1602.514 877.241, 1592 874.524 C 1588.975 873.743, 1577.275 871.751, 1566 870.099 C 1554.725 868.447, 1542.236 866.405, 1538.247 865.561 C 1528.854 863.574, 1506.675 855.836, 1486.569 847.530 C 1459.535 836.364, 1449.173 834.654, 1425.293 837.419 C 1407.627 839.464, 1390.390 842.749, 1373.500 847.291 C 1317.836 862.257, 1287.038 868.170, 1232 874.456 C 1212.292 876.707, 1159.081 876.514, 1131.500 874.092 C 1108.867 872.104, 1105.293 871.206, 1093.806 864.618 C 1076.241 854.546, 1065.164 842.527, 1061.135 829.172 C 1054.708 807.868, 1047.163 765.206, 1045.542 741 C 1045.229 736.325, 1044.228 722.150, 1043.318 709.500 C 1041.364 682.333, 1041.167 644.261, 1042.858 620.500 C 1044.001 604.434, 1044.586 598.886, 1047.026 581 C 1048.700 568.726, 1048.354 558.892, 1045.946 550.282 C 1043.063 539.976, 1041.003 536.139, 1035.854 531.487 L 1031.563 527.610 1030.304 514.055 C 1029.612 506.600, 1028.622 491.950, 1028.104 481.500 C 1027.586 471.050, 1026.852 461.712, 1026.474 460.750 C 1026.096 459.788, 1024.982 459, 1024 459 C 1023.018 459, 1021.904 459.788, 1021.526 460.750 M 1015.010 1316.424 C 1015.027 1355.145, 1019.432 1405.345, 1023.223 1410.027 C 1024.228 1411.268, 1025.252 1412.081, 1025.500 1411.834 C 1025.747 1411.586, 1026.846 1405.096, 1027.942 1397.410 C 1030.690 1378.135, 1033 1341.015, 1033 1316.134 L 1033 1295.348 1024 1295.348 L 1015 1295.348 1015.010 1316.424" stroke="none" fill="black" fill-rule="evenodd"/>
</svg>