<svg xmlns="http://www.w3.org/2000/svg" width="5000" height="2544" viewBox="0 0 5000 2544" version="1.1">
	<path d="M 3966.877 58.863 C 3960.137 63.138, 3943.708 79.258, 3936.945 88.234 C 3930.297 97.057, 3925.576 106.314, 3917.943 125.500 C 3915.098 132.650, 3911.503 141.015, 3909.953 144.088 C 3904.515 154.870, 3889.707 165.162, 3875.500 168.033 C 3867.837 169.582, 3856.856 168.693, 3842.500 165.363 C 3836.450 163.959, 3825.732 161.754, 3818.683 160.462 C 3802.505 157.498, 3798.435 155.527, 3791.219 147.163 C 3779.011 133.013, 3776.169 130.713, 3765.131 126.055 C 3759.440 123.654, 3753.463 120.578, 3751.848 119.219 C 3747.808 115.819, 3745.239 110.379, 3743.361 101.244 C 3741.482 92.100, 3739.761 88.376, 3737.011 87.503 C 3729.237 85.036, 3725.511 95.083, 3724.442 121.393 C 3723.705 139.518, 3722.659 144.274, 3718.493 148.440 C 3714.611 152.322, 3708.840 153.997, 3699.307 154.008 C 3685.003 154.023, 3674.564 156.912, 3662.335 164.238 C 3634.822 180.719, 3621 202.710, 3621 230 C 3621 242.054, 3622.859 249.575, 3630.914 270.120 C 3635.498 281.811, 3638.525 287.843, 3642.955 294.118 C 3659.053 316.919, 3668.980 332.201, 3670.083 335.881 C 3672.725 344.701, 3668.664 349.191, 3656.449 350.956 C 3638.901 353.492, 3632.132 352.055, 3620.632 343.351 C 3611.805 336.670, 3605.961 334.302, 3588.767 330.440 C 3567.469 325.656, 3555.652 324.216, 3532 323.523 C 3497.314 322.507, 3490.660 321.410, 3474.742 314.084 C 3465.054 309.624, 3457.738 308.196, 3438.500 307.007 C 3429.150 306.429, 3415.401 305.516, 3407.948 304.978 C 3400.494 304.440, 3390.819 303.991, 3386.448 303.980 C 3374.048 303.949, 3366.896 302.509, 3357.005 298.056 C 3341.214 290.945, 3338.488 290.558, 3304 290.527 C 3275.867 290.502, 3272.587 290.683, 3261.732 292.862 C 3243.989 296.423, 3239.357 295.874, 3224.623 288.469 L 3212.745 282.500 3178.623 282.500 L 3144.500 282.500 3130.578 287.393 C 3113.123 293.527, 3108.647 293.755, 3099.703 288.960 C 3096.292 287.131, 3090.379 284.029, 3086.564 282.067 L 3079.627 278.500 3060.646 278.139 C 3027.539 277.509, 3009.313 280.156, 2989.500 288.472 C 2983.450 291.012, 2975.575 293.585, 2972 294.191 C 2966.224 295.170, 2964.553 295.037, 2957 292.999 C 2940.945 288.667, 2936.595 288.042, 2922.500 288.040 C 2907.651 288.039, 2891.516 289.776, 2880.924 292.517 C 2877.391 293.432, 2868.103 297.077, 2860.284 300.618 C 2841.890 308.947, 2838.454 309.570, 2822.756 307.422 C 2803.440 304.780, 2787.505 305.761, 2768 310.796 C 2759.475 312.996, 2748.225 316.671, 2743 318.962 C 2713.221 332.017, 2711.471 332.353, 2692.404 328.663 C 2676.882 325.659, 2671.897 325.461, 2661 327.414 C 2648.551 329.645, 2625.006 336.833, 2616.500 341 C 2612.100 343.155, 2604.459 347.833, 2599.519 351.395 C 2587.232 360.256, 2584.254 361.048, 2564 360.839 C 2545.180 360.645, 2542.285 361.205, 2522 368.966 C 2503.051 376.215, 2496.821 379.289, 2485.392 387.026 C 2479.632 390.927, 2473.024 394.788, 2470.709 395.609 C 2468.394 396.429, 2460.314 397.541, 2452.754 398.081 C 2437.025 399.204, 2427.967 401.497, 2411.421 408.543 C 2394.408 415.788, 2383.311 421.855, 2375.073 428.417 C 2365.986 435.655, 2361.652 438, 2357.361 438 C 2353.726 438, 2350 434.234, 2350 430.561 C 2350 424.370, 2362.502 411.634, 2378.299 401.733 C 2392.248 392.990, 2394.679 389.268, 2389.250 384.966 C 2382.088 379.291, 2360.159 386.867, 2328.662 405.899 C 2322.150 409.833, 2313.453 415.544, 2309.334 418.590 C 2296.178 428.320, 2271.730 444.171, 2264.528 447.641 C 2247.707 455.745, 2233.164 449.342, 2220.847 428.408 C 2211.140 411.911, 2203.785 390.892, 2201.809 374.001 C 2200.755 364.992, 2200.863 363.645, 2203.882 348 C 2205.633 338.925, 2207.726 328.407, 2208.533 324.627 C 2211.618 310.174, 2209.879 305.411, 2201.581 305.591 C 2196.625 305.699, 2188.125 309.422, 2182.500 313.947 C 2173.652 321.066, 2164.041 339.425, 2161.301 354.439 C 2159.554 364.009, 2160.133 388.936, 2162.452 404 C 2164.164 415.118, 2163.386 420.394, 2159.548 423.705 C 2153.462 428.957, 2144.414 427.637, 2127.125 418.978 C 2112.758 411.782, 2100.954 403.099, 2092.758 393.697 C 2082.484 381.912, 2063.695 362.933, 2060.800 361.416 C 2055.055 358.404, 2049.447 360.301, 2046.342 366.305 C 2044.128 370.588, 2043.399 385.922, 2044.944 395.754 C 2046.592 406.248, 2049.298 411.797, 2060.849 428.366 C 2072.187 444.629, 2073 446.026, 2073 449.234 C 2073 455.584, 2068.470 455.435, 2050.426 448.488 C 2033.683 442.043, 2028.691 441.074, 2024.198 443.398 C 2022.472 444.290, 2020.596 445.886, 2020.030 446.945 C 2018.132 450.491, 2018.928 459.498, 2022.080 470.120 C 2027.808 489.429, 2031.895 494.699, 2050.500 506.771 C 2064.546 515.885, 2085.795 532.616, 2088.076 536.358 C 2091.682 542.271, 2090.226 549.610, 2084.339 555.192 C 2077.296 561.871, 2054.804 578.018, 2042.680 585.100 C 2039.478 586.970, 2032.278 592.921, 2026.680 598.325 C 2006.495 617.806, 2001.954 619.270, 1985.839 611.492 C 1971.580 604.609, 1965.869 603.756, 1937.500 604.268 C 1909.983 604.764, 1907.564 605.250, 1893.963 613.018 C 1879.356 621.361, 1877.041 621.331, 1855 612.512 C 1840.077 606.542, 1832.907 604.567, 1810 600.119 C 1784.526 595.173, 1768.567 593.750, 1744.045 594.242 C 1720.625 594.711, 1718.692 595.088, 1705.443 601.776 C 1693.091 608.011, 1691.149 608.246, 1655.646 607.788 C 1618.177 607.305, 1618.192 607.308, 1600.229 596.523 C 1587.942 589.146, 1574.240 584.167, 1556.044 580.469 C 1549.546 579.148, 1539.716 576.515, 1534.201 574.617 C 1528.685 572.720, 1520.560 570.430, 1516.144 569.529 C 1511.728 568.629, 1503.549 566.339, 1497.968 564.441 C 1486.492 560.539, 1462.082 557, 1446.639 557 C 1427.005 557, 1420.073 554.043, 1409.862 541.313 C 1399.687 528.626, 1391.786 521.453, 1383.708 517.568 C 1372.194 512.030, 1366.119 510.992, 1339.245 509.972 C 1325.905 509.465, 1307.005 508.096, 1297.245 506.928 C 1287.485 505.761, 1270.725 504.572, 1260 504.286 C 1240.997 503.780, 1235.474 504.093, 1200 507.687 C 1188.082 508.895, 1165.553 509.420, 1102.500 509.962 C 1023.195 510.642, 1020.106 510.740, 1008.500 512.921 C 992.104 516.003, 988.800 515.515, 972 507.531 C 964.575 504.003, 954.900 499.788, 950.500 498.165 C 946.100 496.542, 936.425 492.524, 929 489.234 C 905.908 479.005, 894.529 476.063, 877.881 476.020 C 857.913 475.968, 831.337 484.831, 813.500 497.490 C 801.593 505.941, 787.455 522.791, 776.993 541 C 774.623 545.125, 766.527 558.175, 759.001 570 C 740.372 599.273, 738.097 603.283, 730.477 620.257 C 725.053 632.341, 723.498 637.026, 721.891 646.124 C 720.812 652.234, 719.335 658.644, 718.610 660.367 C 716.274 665.914, 704.020 683.983, 699.850 688.030 C 693.892 693.812, 679.698 701.688, 670 704.594 C 665.325 705.994, 659.424 707.800, 656.886 708.605 C 652.099 710.125, 625.618 724.936, 616 731.473 C 608.011 736.903, 601.887 739.818, 589.500 744.088 C 583.450 746.174, 574.675 749.231, 570 750.883 C 560.967 754.074, 556.415 754.646, 517.500 757.473 C 506.500 758.273, 495.250 759.604, 492.500 760.432 C 489.750 761.260, 480.075 766.264, 471 771.551 C 444.287 787.116, 445.064 786.823, 419.579 790.961 C 409.427 792.609, 395.581 795.084, 388.810 796.461 C 368.444 800.602, 314.326 803.243, 295 801.038 C 289.225 800.379, 279.253 799.597, 272.839 799.300 C 260.056 798.708, 261.639 798.382, 230.500 808.012 C 211.462 813.900, 200.994 815.749, 177 817.464 C 143.671 819.846, 139.100 821.446, 116 838.824 C 92.735 856.326, 77.143 870.318, 63.357 886.065 C 36.131 917.163, 33.500 922.665, 33.500 948.500 C 33.500 960.391, 33.853 963.623, 35.842 969.957 C 40.926 986.147, 51.367 1001.573, 67.682 1017 C 76.936 1025.750, 80.694 1028.073, 97 1035.121 C 113.603 1042.298, 141.079 1054.524, 153.888 1060.437 C 171.430 1068.533, 204.781 1077.159, 237.500 1082.062 C 245.200 1083.216, 257.125 1085.451, 264 1087.028 C 270.875 1088.606, 282.125 1090.847, 289 1092.009 C 295.875 1093.171, 312.975 1096.598, 327 1099.623 C 364.569 1107.728, 408.491 1116.611, 425 1119.443 C 432.975 1120.811, 453.225 1124.655, 470 1127.984 C 510.782 1136.079, 534.336 1140.107, 572.051 1145.437 C 606.883 1150.360, 618.749 1151.482, 652 1153 C 664.375 1153.564, 681.250 1154.921, 689.500 1156.014 C 712.795 1159.100, 732.546 1160.870, 756.500 1162.020 C 768.600 1162.601, 782.728 1163.513, 787.897 1164.046 C 793.065 1164.579, 808.845 1165.458, 822.963 1165.999 C 850.824 1167.066, 860.298 1168.320, 875.258 1172.926 C 888.861 1177.113, 899.478 1178.386, 909.757 1177.062 C 914.291 1176.478, 921.647 1175.530, 926.105 1174.956 C 932.164 1174.175, 942.173 1174.310, 965.755 1175.489 C 983.104 1176.357, 997.629 1177.271, 998.033 1177.520 C 998.787 1177.986, 1038.191 1180.209, 1078 1182.031 C 1090.375 1182.597, 1106.125 1183.834, 1113 1184.780 C 1130.015 1187.121, 1209.829 1186.759, 1238 1184.213 C 1248.175 1183.293, 1261.675 1182.569, 1268 1182.603 C 1278.908 1182.662, 1280.082 1182.878, 1290.811 1186.795 C 1312.604 1194.750, 1330.401 1199.640, 1368 1208.005 C 1382.223 1211.169, 1397.422 1212.276, 1418.723 1211.699 C 1432.907 1211.314, 1440.338 1210.671, 1445 1209.424 C 1450.495 1207.955, 1456.757 1207.659, 1485.500 1207.509 C 1511.221 1207.375, 1521.813 1206.945, 1529 1205.743 C 1534.225 1204.870, 1542.100 1203.868, 1546.500 1203.516 C 1550.900 1203.165, 1559.225 1201.976, 1565 1200.873 C 1570.809 1199.764, 1583.413 1198.488, 1593.213 1198.016 C 1602.955 1197.547, 1611.449 1196.841, 1612.088 1196.445 C 1612.728 1196.050, 1622.757 1195.364, 1634.375 1194.920 C 1648.622 1194.376, 1657.454 1193.577, 1661.500 1192.467 C 1665.654 1191.328, 1674.270 1190.587, 1689.500 1190.058 C 1708.612 1189.394, 1712.878 1188.938, 1722 1186.583 C 1731.053 1184.246, 1735.600 1183.751, 1755 1182.994 C 1774.223 1182.243, 1778.876 1181.743, 1786.947 1179.558 C 1798.665 1176.385, 1802.316 1176.380, 1825 1179.500 C 1847.584 1182.607, 1851.063 1182.608, 1863.502 1179.512 C 1872.929 1177.166, 1875.100 1177.021, 1901.500 1176.977 C 1921.929 1176.942, 1931.258 1176.543, 1936 1175.500 C 1940.583 1174.492, 1949.444 1174.060, 1966.040 1174.035 C 1993.984 1173.993, 1997.918 1173.255, 2009.043 1165.964 C 2017.576 1160.371, 2021.852 1158.763, 2034.067 1156.554 C 2038.779 1155.701, 2046.395 1153.878, 2050.993 1152.502 C 2061.263 1149.428, 2067.927 1149.302, 2073.651 1152.073 C 2081.896 1156.064, 2091.580 1169.092, 2102.396 1190.743 C 2104.935 1195.827, 2108.817 1202.933, 2111.021 1206.534 C 2113.225 1210.135, 2118.400 1219.813, 2122.521 1228.042 C 2127.955 1238.892, 2132.643 1246.460, 2139.586 1255.587 C 2144.851 1262.509, 2152.101 1272.746, 2155.697 1278.336 C 2159.293 1283.926, 2164.320 1291.548, 2166.868 1295.272 C 2174.938 1307.072, 2176.952 1311.169, 2176.977 1315.846 C 2177.024 1324.581, 2171.582 1328.235, 2155.879 1330.014 C 2150.856 1330.583, 2141.291 1331.919, 2134.623 1332.983 C 2127.956 1334.047, 2115.750 1335.383, 2107.500 1335.952 C 2099.250 1336.521, 2084.400 1338.088, 2074.500 1339.432 C 2046.462 1343.241, 1992.874 1355.240, 1974.469 1361.831 C 1968.436 1363.991, 1958.253 1367.158, 1951.840 1368.868 C 1936.240 1373.030, 1903.929 1386.146, 1889.322 1394.247 C 1882.820 1397.852, 1869.400 1404.844, 1859.500 1409.784 C 1839.446 1419.790, 1832.381 1424.228, 1819.976 1434.618 C 1815.314 1438.522, 1804.975 1446.072, 1797 1451.396 C 1789.025 1456.720, 1778.393 1463.872, 1773.374 1467.288 C 1729.407 1497.214, 1700.827 1511.554, 1671.238 1518.535 C 1665.332 1519.929, 1655.775 1522.592, 1650 1524.454 C 1644.225 1526.316, 1634.325 1528.807, 1628 1529.988 C 1609.949 1533.361, 1584.907 1539.904, 1580.352 1542.438 C 1576.426 1544.622, 1568.325 1550.354, 1551.097 1563.137 C 1536.423 1574.026, 1518.855 1594.756, 1513.610 1607.372 C 1512.724 1609.502, 1512 1613.204, 1512 1615.599 C 1512 1619.137, 1512.467 1620.260, 1514.493 1621.587 C 1517.810 1623.761, 1520.667 1622.940, 1529.230 1617.350 C 1541.041 1609.640, 1548.340 1606.706, 1556.923 1606.220 C 1563.576 1605.842, 1564.835 1606.055, 1567.250 1607.968 C 1571.225 1611.115, 1571.032 1615.936, 1566.750 1620.470 C 1564.963 1622.363, 1555.175 1628.690, 1545 1634.531 C 1517.827 1650.129, 1515.712 1651.941, 1503.588 1670 C 1500.449 1674.675, 1495.378 1682.100, 1492.320 1686.500 C 1485.204 1696.736, 1476.206 1715.219, 1475.370 1721.315 C 1474.855 1725.076, 1475.088 1726.440, 1476.517 1728.018 C 1479.891 1731.747, 1482.524 1730.793, 1493.932 1721.708 C 1498.094 1718.393, 1504.216 1714.405, 1507.536 1712.846 C 1513.441 1710.073, 1515.302 1709.727, 1539 1707 C 1549.630 1705.776, 1554.127 1704.016, 1569.500 1695.061 C 1582.497 1687.491, 1597.248 1680.163, 1608.500 1675.689 C 1624.398 1669.368, 1630.419 1669.002, 1634.246 1674.127 C 1637.159 1678.030, 1635.610 1681.442, 1626.588 1690.990 C 1620.087 1697.870, 1617.148 1702.094, 1611.610 1712.524 C 1603.445 1727.901, 1601.506 1730.825, 1592.057 1742 C 1577.585 1759.116, 1574.232 1772.830, 1579.469 1793.476 C 1582.252 1804.448, 1584.434 1808.825, 1588.163 1810.918 C 1592.052 1813.101, 1595.724 1811.037, 1602.319 1802.965 C 1605.813 1798.688, 1610.951 1794.010, 1615.719 1790.764 C 1626.822 1783.206, 1633.920 1776.220, 1645.096 1761.851 C 1656.629 1747.022, 1661.320 1742.091, 1673.500 1731.995 C 1678.450 1727.892, 1686.109 1721.152, 1690.519 1717.017 C 1707.044 1701.527, 1750.259 1670.593, 1765.382 1663.429 C 1788.638 1652.412, 1797.567 1652.245, 1802.209 1662.741 C 1804.138 1667.101, 1804.206 1668.517, 1803.519 1690.081 C 1802.561 1720.142, 1803.159 1723.055, 1815.263 1747.285 C 1825.745 1768.269, 1829.749 1773.306, 1835.558 1772.816 C 1838.295 1772.585, 1839.866 1771.737, 1841.401 1769.661 C 1843.330 1767.053, 1843.459 1765.877, 1843 1755.161 C 1841.908 1729.687, 1842.445 1717.199, 1845.200 1704 C 1846.635 1697.125, 1848.116 1688.800, 1848.490 1685.500 C 1849.310 1678.271, 1852.071 1671.567, 1854.840 1670.086 C 1863.673 1665.358, 1871.679 1674.498, 1877.540 1696 C 1885.104 1723.749, 1890.311 1732, 1900.262 1732 C 1904.160 1732, 1907.582 1729.245, 1909.558 1724.515 C 1910.294 1722.754, 1911.836 1710.669, 1912.986 1697.658 C 1914.722 1678.012, 1915.027 1668.029, 1914.788 1638.752 L 1914.500 1603.500 1917.262 1593.163 C 1920.897 1579.559, 1924.056 1573.125, 1929.619 1567.997 C 1935.029 1563.010, 1946.426 1557.509, 1955.794 1555.363 C 1959.482 1554.517, 1968.800 1552.098, 1976.500 1549.985 C 1984.200 1547.873, 1995.225 1545.425, 2001 1544.544 C 2006.775 1543.664, 2017.350 1541.300, 2024.500 1539.291 C 2038.609 1535.327, 2045.881 1534.821, 2063 1536.611 C 2075.198 1537.887, 2091.910 1536.543, 2106.746 1533.094 C 2113.761 1531.463, 2124 1529.616, 2129.500 1528.990 C 2135 1528.363, 2141.406 1527.434, 2143.736 1526.924 C 2146.067 1526.414, 2155.705 1525.317, 2165.156 1524.486 C 2180.572 1523.130, 2193.964 1521.329, 2225.458 1516.374 C 2239.445 1514.173, 2268.710 1505.987, 2281.891 1500.589 C 2288.002 1498.086, 2299.155 1494.197, 2306.675 1491.948 C 2314.195 1489.698, 2322.407 1486.798, 2324.924 1485.503 C 2330.598 1482.584, 2359.789 1458.200, 2366.823 1450.504 C 2370.349 1446.645, 2373.780 1441.135, 2377.525 1433.316 C 2380.556 1426.986, 2385.505 1418.653, 2388.521 1414.798 C 2394.951 1406.580, 2396.498 1401.972, 2398.017 1386.500 C 2398.611 1380.450, 2399.822 1372.800, 2400.708 1369.500 C 2403.393 1359.499, 2402.813 1351.049, 2398.632 1339.233 C 2396.593 1333.470, 2394.138 1323.600, 2393.035 1316.733 C 2391 1304.067, 2389.705 1299.697, 2383.493 1284.542 C 2381.473 1279.615, 2378.979 1271.740, 2377.949 1267.042 C 2375.713 1256.829, 2374.168 1252.302, 2365.995 1232 C 2362.563 1223.475, 2358.434 1212.450, 2356.818 1207.500 C 2353.307 1196.742, 2351.112 1192.786, 2341.006 1179 C 2332.511 1167.412, 2318.476 1145.382, 2316.356 1140.309 C 2312.968 1132.201, 2316.061 1125.323, 2325.198 1120.651 C 2330.757 1117.808, 2331.190 1117.752, 2354.170 1116.925 C 2384.800 1115.822, 2393.881 1114.705, 2406.816 1110.453 C 2414.680 1107.867, 2421.195 1106.543, 2431.500 1105.439 C 2439.200 1104.613, 2451.350 1103.072, 2458.500 1102.014 C 2465.650 1100.956, 2479.600 1099.604, 2489.500 1099.011 C 2499.400 1098.418, 2514.250 1096.997, 2522.500 1095.853 C 2536.362 1093.930, 2538.730 1093.866, 2553.713 1095.007 C 2572.574 1096.442, 2579.201 1095.924, 2593.100 1091.924 C 2603.024 1089.067, 2603.794 1089, 2626.498 1089 C 2643.925 1089, 2651.959 1088.585, 2658.619 1087.339 C 2669.931 1085.224, 2685.131 1085.275, 2700.891 1087.482 C 2715.289 1089.498, 2730.219 1089.856, 2748.500 1088.623 C 2760.868 1087.789, 2762.278 1087.898, 2777.500 1090.861 C 2802.727 1095.772, 2817.556 1097.126, 2831.781 1095.818 C 2842.492 1094.833, 2845.072 1094.938, 2856.617 1096.832 C 2873.882 1099.663, 2898.502 1102.758, 2909.264 1103.450 C 2914.084 1103.760, 2922.369 1105.142, 2927.675 1106.520 C 2935.778 1108.626, 2939.495 1109.016, 2950.911 1108.960 C 2978.006 1108.828, 3009.887 1110.693, 3018.862 1112.935 C 3038.959 1117.954, 3049.755 1119.339, 3067.427 1119.164 C 3081.928 1119.021, 3086.223 1119.361, 3097.402 1121.541 C 3105.099 1123.042, 3117.228 1124.475, 3126.975 1125.035 C 3136.064 1125.557, 3147.550 1126.435, 3152.500 1126.985 C 3157.450 1127.536, 3167.575 1128.452, 3175 1129.021 C 3192.913 1130.393, 3197.425 1131.492, 3201.375 1135.441 C 3207.891 1141.957, 3210.529 1159.234, 3206.272 1167.500 C 3205.138 1169.700, 3199.393 1176.889, 3193.503 1183.475 C 3187.614 1190.062, 3179.152 1200.558, 3174.700 1206.801 C 3161.679 1225.057, 3154.029 1231.112, 3133.928 1239.073 C 3118.898 1245.026, 3096.446 1257.100, 3085.208 1265.271 C 3064.518 1280.316, 3061.074 1283.039, 3058.710 1286.216 C 3054.491 1291.886, 3032.238 1338.026, 3028.627 1348.592 C 3021.418 1369.683, 3018.626 1390.719, 3022.470 1394.967 C 3025.130 1397.906, 3029.342 1397.574, 3032.161 1394.204 C 3033.447 1392.666, 3037.418 1386.558, 3040.984 1380.631 C 3051.267 1363.541, 3057.880 1358.050, 3069.210 1357.196 C 3074.546 1356.794, 3075.126 1356.972, 3078.077 1359.923 C 3080.748 1362.594, 3081.135 1363.574, 3080.593 1366.290 C 3079.788 1370.326, 3068.271 1390.441, 3056.906 1407.659 C 3047.147 1422.446, 3045.707 1426.029, 3042.813 1442.730 C 3040.346 1456.973, 3039.114 1502.873, 3040.852 1515.789 C 3042.324 1526.725, 3044.908 1533.900, 3048.265 1536.375 C 3051.025 1538.409, 3051.035 1538.409, 3053.018 1536.426 C 3054.112 1535.333, 3055.929 1531.077, 3057.057 1526.969 C 3061.509 1510.753, 3067.866 1504.328, 3085.336 1498.386 C 3099.448 1493.586, 3107.227 1487.171, 3120.999 1468.975 C 3133.911 1451.915, 3141.937 1447.634, 3154.480 1451.116 C 3157.711 1452.013, 3162.249 1456.017, 3178.599 1472.394 C 3191.033 1484.849, 3199.607 1494.269, 3201.008 1497.015 C 3204.124 1503.124, 3207.339 1512.812, 3212.120 1530.500 C 3217.655 1550.981, 3220.919 1556.897, 3233.994 1570.143 C 3249.291 1585.639, 3257.839 1589.314, 3264.077 1583.077 C 3268.392 1578.762, 3268.023 1574.350, 3262.119 1559.652 C 3256.029 1544.489, 3255 1539.640, 3255 1526.111 C 3255 1507.748, 3260.108 1492.685, 3269.066 1484.631 C 3271.616 1482.338, 3278.382 1477.997, 3284.102 1474.984 C 3292.363 1470.632, 3295.836 1468.087, 3301 1462.599 C 3318.677 1443.812, 3321.420 1441.361, 3327.167 1439.210 C 3330.269 1438.050, 3336.788 1436.587, 3341.654 1435.961 C 3360.005 1433.597, 3368.866 1431.097, 3382.500 1424.439 C 3400.301 1415.744, 3406.859 1414.056, 3427 1412.985 C 3436.075 1412.503, 3445.975 1411.414, 3449 1410.566 C 3458.012 1408.039, 3464.584 1408.531, 3474.862 1412.500 C 3479.846 1414.425, 3485.512 1416, 3487.453 1416 C 3489.393 1416, 3495.823 1414.124, 3501.741 1411.831 C 3515.521 1406.491, 3523.721 1406.137, 3537.457 1410.291 C 3549.908 1414.057, 3556.614 1413.901, 3571.571 1409.500 C 3588.273 1404.585, 3591.304 1404.748, 3604.091 1411.241 C 3613.196 1415.865, 3615.267 1416.525, 3621.672 1416.849 C 3631.704 1417.355, 3640.302 1414.601, 3650.958 1407.468 C 3665.675 1397.618, 3670.838 1395.723, 3686.240 1394.522 C 3699.862 1393.460, 3703.705 1391.330, 3721.447 1375.015 C 3730.868 1366.351, 3734.145 1364.055, 3744.947 1358.551 C 3764.761 1348.456, 3768.175 1344.501, 3776.783 1321.669 C 3779.440 1314.623, 3782.755 1307.427, 3784.151 1305.678 C 3785.546 1303.929, 3789.692 1300.989, 3793.363 1299.144 C 3800.913 1295.350, 3803.639 1291.706, 3806.560 1281.500 C 3807.505 1278.200, 3811.588 1268.975, 3815.635 1261 C 3824.830 1242.876, 3827.977 1231.692, 3828.729 1214.466 C 3829.675 1192.772, 3826.801 1183.665, 3813.148 1165.098 C 3801.492 1149.247, 3791.056 1133.580, 3785.477 1123.559 C 3779.190 1112.265, 3766.386 1098.610, 3753.883 1089.866 C 3748.877 1086.365, 3742.018 1081.360, 3738.641 1078.744 C 3735.263 1076.129, 3729.063 1071.514, 3724.862 1068.490 C 3709.731 1057.596, 3706.875 1051.925, 3713.290 1045.510 C 3717.391 1041.409, 3728.199 1037.835, 3743.247 1035.604 C 3749.157 1034.727, 3756.132 1033.529, 3758.747 1032.941 C 3761.361 1032.354, 3770.708 1031.481, 3779.517 1031.002 C 3788.358 1030.522, 3799.783 1029.223, 3805.017 1028.103 C 3826.175 1023.578, 3837.877 1020.904, 3845 1018.966 C 3853.861 1016.555, 3871.731 1015.070, 3892.357 1015.029 C 3901.391 1015.011, 3910.601 1014.385, 3915.857 1013.430 C 3923.728 1012, 3925.125 1012.002, 3931.500 1013.446 C 3938.903 1015.124, 3948.283 1016.746, 3969.463 1020.012 C 3984.745 1022.369, 3990.763 1024.867, 4002.982 1033.927 C 4013.289 1041.569, 4016.386 1043.175, 4031.218 1048.573 C 4038.965 1051.393, 4047.436 1055.544, 4056.218 1060.825 C 4070.570 1069.455, 4089.293 1079.573, 4120 1095.291 C 4130.725 1100.781, 4145.023 1108.635, 4151.773 1112.745 C 4158.523 1116.854, 4169.548 1122.703, 4176.273 1125.741 C 4191.471 1132.608, 4195.593 1135.255, 4210 1147.395 C 4224.528 1159.636, 4232.833 1165.214, 4243.248 1169.724 C 4254.946 1174.789, 4257.178 1176.432, 4269.377 1188.954 C 4276.159 1195.915, 4283.672 1202.418, 4289.330 1206.222 C 4300.331 1213.619, 4313.755 1226.316, 4323.617 1238.652 C 4327.641 1243.686, 4334.862 1251.336, 4339.665 1255.652 C 4361.495 1275.273, 4368.848 1283.715, 4389.834 1313.248 C 4394.967 1320.473, 4402.687 1330.760, 4406.989 1336.108 C 4416.848 1348.365, 4421.398 1356.044, 4428.849 1373 C 4432.111 1380.425, 4436.883 1391, 4439.452 1396.500 C 4442.021 1402, 4446.124 1412.015, 4448.570 1418.756 C 4452.506 1429.607, 4453.115 1432.436, 4453.881 1443.436 C 4454.839 1457.203, 4455.811 1459.913, 4465.906 1477 C 4473.460 1489.784, 4474.201 1493.730, 4473.419 1517 C 4472.840 1534.258, 4473.008 1537.898, 4474.882 1548.661 C 4477.832 1565.599, 4477.653 1574.864, 4474.091 1589.525 C 4469.405 1608.819, 4468.796 1615.167, 4469.163 1640.874 L 4469.500 1664.500 4462.831 1678.500 C 4459.163 1686.200, 4453.861 1698.324, 4451.049 1705.442 C 4447.638 1714.073, 4443.801 1721.567, 4439.529 1727.942 C 4432.391 1738.591, 4430.999 1741.738, 4428.029 1753.937 C 4426.899 1758.578, 4424.932 1764.653, 4423.656 1767.437 C 4419.407 1776.713, 4409.907 1790.260, 4401.573 1798.929 C 4394.821 1805.951, 4392.271 1809.575, 4387.461 1818.983 C 4382.236 1829.204, 4380.530 1831.513, 4371.942 1839.983 C 4361.582 1850.201, 4356.087 1856.627, 4348.698 1867.161 C 4343.080 1875.171, 4337.341 1880.282, 4332.258 1881.803 C 4330.191 1882.421, 4324.429 1883.388, 4319.453 1883.950 C 4302.747 1885.840, 4295.338 1889.459, 4284.934 1900.813 C 4280.481 1905.673, 4277.341 1910.597, 4272.941 1919.621 C 4269.663 1926.344, 4265.168 1934.138, 4262.953 1936.940 C 4258.013 1943.189, 4247.340 1951.787, 4231.500 1962.275 C 4218.269 1971.036, 4212.779 1973.993, 4199.741 1979.379 C 4189.370 1983.664, 4177.406 1990.911, 4161.322 2002.651 C 4154.870 2007.360, 4147.321 2012.486, 4144.546 2014.041 C 4136.192 2018.722, 4105.833 2030.374, 4083.500 2037.470 C 4048.196 2048.689, 4042.743 2051.200, 4032.500 2060.964 C 4024.329 2068.752, 4017.093 2073.934, 4008.039 2078.479 C 3995.456 2084.795, 3972.839 2092.597, 3954.046 2097.102 C 3944.946 2099.284, 3931.240 2102.879, 3923.588 2105.092 C 3915.937 2107.304, 3903.292 2110.399, 3895.489 2111.969 C 3887.472 2113.582, 3876.779 2116.570, 3870.901 2118.840 C 3865.180 2121.049, 3853.525 2125.548, 3845 2128.836 C 3836.475 2132.125, 3823.425 2136.714, 3816 2139.034 C 3808.575 2141.354, 3799.575 2144.589, 3796 2146.222 C 3781.962 2152.636, 3777.176 2153.960, 3760.752 2155.973 C 3751.813 2157.069, 3740 2158.655, 3734.500 2159.498 C 3729 2160.342, 3715.725 2161.465, 3705 2161.994 C 3686.477 2162.908, 3672.590 2164.386, 3638.500 2169.074 C 3619.315 2171.713, 3613.779 2173.155, 3603.156 2178.280 L 3594.500 2182.457 3567 2182.513 C 3536.246 2182.575, 3502.283 2184.386, 3493.978 2186.408 C 3490.965 2187.141, 3484.488 2188.931, 3479.585 2190.386 C 3473.122 2192.303, 3464.867 2193.581, 3449.585 2195.029 C 3426.502 2197.217, 3421.729 2198.371, 3411.960 2204.126 C 3401.510 2210.282, 3397.310 2211.348, 3386.148 2210.681 C 3380.842 2210.363, 3373.125 2209.563, 3369 2208.903 C 3359.494 2207.381, 3285.918 2207.461, 3257 2209.025 C 3231.867 2210.384, 3226.877 2211.522, 3216.647 2218.235 C 3204.375 2226.287, 3200.004 2226.149, 3164 2216.576 C 3133.774 2208.539, 3110.446 2204.228, 3090.371 2202.969 C 3081.092 2202.387, 3067.748 2201.540, 3060.717 2201.085 C 3045.972 2200.131, 3035.807 2200.941, 3024.500 2203.971 C 3009.549 2207.977, 3001.015 2207.696, 2978 2202.442 C 2974.425 2201.626, 2963.625 2200.531, 2954 2200.009 C 2925.363 2198.455, 2906.845 2197.040, 2901 2195.961 C 2897.975 2195.402, 2885.600 2194.674, 2873.500 2194.343 C 2849.436 2193.684, 2838.204 2194.634, 2827.157 2198.260 C 2820.861 2200.327, 2818.447 2201.898, 2808.441 2210.443 C 2804.465 2213.838, 2803.023 2214.443, 2798.053 2214.803 C 2793.085 2215.162, 2789.305 2214.300, 2770.891 2208.613 C 2750.932 2202.449, 2720.736 2195.035, 2701 2191.453 C 2689.410 2189.350, 2664.672 2188.508, 2652.500 2189.802 C 2646.015 2190.492, 2640.040 2190.540, 2635.500 2189.941 C 2619.574 2187.838, 2600.882 2187.656, 2590.615 2189.505 C 2578.869 2191.620, 2573.061 2191.223, 2556.500 2187.173 C 2544.019 2184.120, 2538.505 2183.289, 2508.500 2179.935 C 2498.600 2178.828, 2486.450 2177.438, 2481.500 2176.845 C 2474.908 2176.055, 2466.747 2176.088, 2451 2176.967 C 2424.150 2178.465, 2416.506 2177.706, 2401.691 2172.073 C 2388.022 2166.875, 2379.403 2165.860, 2360.564 2167.230 C 2348.754 2168.089, 2344.332 2167.988, 2334.371 2166.632 C 2319.177 2164.563, 2300.215 2164.573, 2288 2166.656 C 2281.480 2167.768, 2271.128 2168.348, 2255 2168.504 C 2235.120 2168.698, 2229.674 2169.090, 2219.646 2171.054 L 2207.792 2173.376 2191.646 2171.687 C 2149.005 2167.226, 2136.187 2167.354, 2107.276 2172.527 C 2088.952 2175.805, 2081.053 2175.723, 2066.858 2172.105 C 2052.170 2168.362, 2052.316 2168.384, 2026.500 2166.041 C 2001.583 2163.780, 1997.092 2163.066, 1981.026 2158.809 C 1964.508 2154.433, 1958.895 2154.917, 1940.418 2162.313 C 1921.505 2169.883, 1918.504 2170.468, 1898.500 2170.485 C 1884.126 2170.498, 1879.723 2170.117, 1870 2168.021 C 1860.175 2165.903, 1855.878 2165.540, 1840.500 2165.533 C 1820.327 2165.523, 1815.276 2166.463, 1802 2172.703 C 1790.333 2178.186, 1785.046 2178.158, 1760.500 2172.487 C 1749.500 2169.945, 1732.850 2166.531, 1723.500 2164.900 C 1714.150 2163.269, 1702.675 2161.014, 1698 2159.890 C 1679.235 2155.377, 1669.150 2156.426, 1645.222 2165.377 C 1628.248 2171.726, 1622.010 2172.451, 1597.069 2170.973 C 1585.540 2170.289, 1565.952 2169.964, 1552.500 2170.231 C 1526.459 2170.750, 1524.922 2171.005, 1505.500 2178.050 L 1496.500 2181.314 1458 2179.607 C 1436.825 2178.668, 1418.150 2178.126, 1416.500 2178.403 C 1414.850 2178.680, 1403.799 2179.439, 1391.941 2180.091 C 1371.091 2181.236, 1370.025 2181.202, 1359.493 2179.045 C 1353.504 2177.818, 1345.655 2176.841, 1342.052 2176.874 C 1338.448 2176.906, 1314.800 2177.075, 1289.500 2177.249 C 1264.200 2177.422, 1242.825 2177.883, 1242 2178.272 C 1241.175 2178.661, 1228.350 2179.867, 1213.500 2180.951 C 1185.356 2183.007, 1182.428 2183.574, 1169.949 2189.381 C 1160.536 2193.762, 1151.819 2194.539, 1127.709 2193.147 C 1116.044 2192.474, 1098.850 2190.976, 1089.500 2189.818 C 1069.637 2187.358, 1051.074 2187.131, 1023 2189.004 C 1008.638 2189.963, 995.595 2190.079, 973.500 2189.446 C 957 2188.974, 937.200 2188.793, 929.500 2189.044 C 905.056 2189.840, 882.774 2189.472, 874.018 2188.126 C 863.759 2186.550, 851.480 2186.422, 847.811 2187.854 C 842.574 2189.899, 842.076 2195.365, 846.892 2197.942 C 847.907 2198.486, 854.759 2199.849, 862.119 2200.971 C 869.479 2202.094, 883.010 2205.034, 892.190 2207.504 C 901.369 2209.973, 912.169 2212.426, 916.190 2212.953 C 937.893 2215.798, 961.280 2217.973, 975.163 2218.436 C 989.829 2218.926, 1017.757 2222.515, 1038 2226.512 C 1056.384 2230.143, 1094.908 2235.047, 1112.500 2235.996 C 1131.053 2236.997, 1142.360 2238.086, 1154.500 2240.039 C 1157.800 2240.571, 1167.700 2241.693, 1176.500 2242.534 C 1185.300 2243.375, 1201.725 2244.954, 1213 2246.041 C 1224.275 2247.129, 1241.825 2248.678, 1252 2249.484 C 1264.387 2250.464, 1273.648 2251.771, 1280.026 2253.438 C 1294.872 2257.319, 1306.265 2258.310, 1323 2257.175 C 1331.776 2256.579, 1341.250 2256.538, 1347 2257.069 C 1369.316 2259.131, 1393.123 2259.954, 1433.500 2260.059 C 1494.858 2260.217, 1526.828 2261.750, 1546.500 2265.477 C 1551.670 2266.457, 1566.525 2267.360, 1588.500 2268.030 C 1607.200 2268.601, 1631.261 2269.952, 1641.970 2271.034 C 1652.678 2272.115, 1666.178 2273.004, 1671.970 2273.010 C 1687.986 2273.025, 1709.638 2274.779, 1728.500 2277.590 C 1738.885 2279.138, 1753.757 2280.474, 1766.720 2281.025 C 1778.391 2281.521, 1793.241 2282.589, 1799.720 2283.400 C 1806.199 2284.210, 1814.875 2285.156, 1819 2285.503 C 1831.718 2286.569, 1864.775 2290.946, 1879.500 2293.513 C 1887.200 2294.855, 1896.874 2296.428, 1900.997 2297.008 C 1911.365 2298.467, 1950.716 2300.944, 1979.500 2301.949 L 2003.500 2302.788 2016.068 2306.821 C 2026.245 2310.086, 2031.098 2311.054, 2041.568 2311.906 C 2053.769 2312.898, 2062.663 2314.771, 2073 2318.524 C 2076.202 2319.686, 2084.857 2320.559, 2103 2321.549 C 2134.136 2323.247, 2163.385 2326.228, 2175.712 2328.959 C 2180.778 2330.082, 2192.253 2331.455, 2201.212 2332.011 C 2210.170 2332.568, 2220.425 2333.477, 2224 2334.032 C 2227.575 2334.587, 2240.052 2335.470, 2251.727 2335.995 C 2263.402 2336.520, 2275.777 2337.419, 2279.227 2337.993 C 2282.677 2338.568, 2293.647 2339.690, 2303.604 2340.488 C 2319.718 2341.778, 2323.102 2342.381, 2334.402 2345.969 L 2347.097 2350 2364.298 2350.006 C 2374.694 2350.009, 2385.456 2350.618, 2391.500 2351.543 C 2414.732 2355.101, 2446.844 2358.972, 2465.500 2360.464 C 2505.609 2363.671, 2507.304 2363.883, 2517.246 2366.921 C 2529.101 2370.544, 2529.859 2370.627, 2573.500 2373.027 C 2627.567 2376, 2651.141 2377.885, 2667.925 2380.574 C 2676.408 2381.934, 2690.583 2383.477, 2699.425 2384.003 C 2708.266 2384.529, 2720.450 2385.613, 2726.500 2386.413 C 2742.953 2388.589, 2811.988 2392.006, 2839.500 2392.007 C 2851.591 2392.007, 2860.454 2392.533, 2866.500 2393.609 C 2875.987 2395.297, 2900.895 2396.250, 2980 2397.949 C 3084.251 2400.190, 3104.429 2401.155, 3133 2405.268 C 3146.876 2407.266, 3152.482 2407.500, 3186.500 2407.500 C 3216.794 2407.500, 3228.353 2407.109, 3243.500 2405.572 C 3259.030 2403.995, 3271.448 2403.606, 3311.500 2403.440 C 3348.947 2403.284, 3363.885 2402.854, 3374.857 2401.618 C 3383.962 2400.592, 3397.862 2399.989, 3412.857 2399.969 C 3437.237 2399.937, 3439.092 2399.786, 3467.186 2395.532 C 3476.364 2394.143, 3491.214 2392.340, 3500.186 2391.526 C 3509.159 2390.712, 3520.775 2389.539, 3526 2388.919 C 3538.467 2387.439, 3557.355 2388.362, 3567.500 2390.946 C 3577.524 2393.500, 3582.303 2393.510, 3595.215 2391.003 C 3600.872 2389.905, 3610.900 2388.306, 3617.500 2387.449 C 3630.470 2385.765, 3641.350 2383.253, 3649.910 2379.965 C 3658.418 2376.696, 3670.581 2374.116, 3687.700 2371.947 C 3696.390 2370.846, 3714.975 2367.656, 3729 2364.858 C 3752.560 2360.157, 3756.097 2359.706, 3775.500 2358.929 C 3787.050 2358.466, 3798.525 2357.653, 3801 2357.121 C 3803.475 2356.590, 3812.588 2355.214, 3821.250 2354.064 C 3831.201 2352.742, 3845.563 2349.790, 3860.250 2346.047 C 3873.038 2342.788, 3888.774 2338.950, 3895.219 2337.518 C 3901.665 2336.085, 3909.540 2334.011, 3912.719 2332.907 C 3925.636 2328.425, 3933.032 2326.933, 3947.363 2325.918 C 3963.511 2324.775, 3978.057 2321.573, 4017.500 2310.480 C 4049.424 2301.502, 4058.647 2299.174, 4073 2296.467 C 4093.924 2292.521, 4116.986 2285.050, 4136 2276.058 C 4145.075 2271.766, 4159.700 2265.852, 4168.500 2262.915 C 4184.331 2257.632, 4188.398 2255.704, 4249 2224.747 C 4258.017 2220.141, 4263.446 2218.151, 4274.148 2215.529 C 4291.362 2211.311, 4306.478 2204.943, 4320.335 2196.070 C 4326.294 2192.254, 4336.194 2187.040, 4342.335 2184.483 C 4348.476 2181.926, 4359.575 2176.327, 4367 2172.041 C 4386.835 2160.592, 4398.986 2154.751, 4413.618 2149.634 C 4428.978 2144.261, 4447.274 2136.165, 4454.498 2131.544 C 4465.286 2124.643, 4483.654 2110.410, 4494.848 2100.277 C 4510.360 2086.235, 4528.971 2072.440, 4542.757 2064.766 C 4559.617 2055.381, 4566.960 2050.396, 4584 2036.768 C 4599.034 2024.745, 4605.591 2018.214, 4638.357 1982.627 C 4643.778 1976.739, 4652.103 1968.691, 4656.857 1964.743 C 4674.730 1949.899, 4682.473 1940.822, 4692.467 1923 C 4698.786 1911.730, 4706.322 1901.763, 4716.990 1890.564 C 4722.986 1884.270, 4729.432 1875.753, 4737.379 1863.620 C 4749.898 1844.509, 4755.951 1837.374, 4765.441 1830.540 C 4773.114 1825.013, 4779.499 1818.361, 4790.433 1804.500 C 4801.516 1790.449, 4805.842 1781.875, 4807.133 1771.396 C 4810.168 1746.782, 4811.770 1742.259, 4824.719 1721.771 C 4833.904 1707.239, 4837.202 1703.540, 4849.308 1694.195 C 4865.908 1681.380, 4868.762 1675.642, 4868.059 1656.500 C 4866.844 1623.415, 4868.278 1598.680, 4871.886 1590.525 C 4874.375 1584.897, 4878.853 1581.994, 4891.152 1578.033 C 4905.127 1573.532, 4912.016 1567.875, 4915.480 1558.056 C 4917.615 1552.006, 4917.412 1540.545, 4915.036 1532.855 C 4912.552 1524.818, 4909.363 1519.841, 4899.206 1508.153 C 4894.739 1503.012, 4890.122 1496.818, 4888.946 1494.389 C 4884.202 1484.590, 4885.747 1470.656, 4892.329 1463.879 C 4894.186 1461.967, 4900.196 1457.413, 4905.684 1453.760 C 4911.171 1450.106, 4917.364 1445.232, 4919.446 1442.929 C 4929.233 1432.095, 4930.542 1420.175, 4923.562 1405.443 C 4920.168 1398.279, 4918.301 1396.030, 4904.524 1382.500 C 4888.389 1366.656, 4885.295 1362.285, 4884.306 1353.938 C 4883.437 1346.595, 4885.938 1341.291, 4895.272 1330.691 C 4900.067 1325.245, 4904.558 1318.929, 4906.405 1315.032 C 4909.153 1309.232, 4909.500 1307.490, 4909.500 1299.485 C 4909.500 1291.368, 4909.182 1289.823, 4906.305 1283.973 C 4901.972 1275.164, 4892.434 1264.305, 4879.558 1253.524 C 4864.113 1240.591, 4857.796 1231.048, 4857.643 1220.413 C 4857.581 1216.150, 4858.411 1213.579, 4862.419 1205.610 C 4870.956 1188.636, 4869.922 1180.013, 4856.276 1154.390 C 4848.177 1139.182, 4843.666 1134.224, 4828.666 1124.044 C 4816.853 1116.028, 4811.263 1109.830, 4807.928 1101.053 C 4805.239 1093.976, 4805.510 1088.828, 4809.117 1078.487 C 4811.804 1070.783, 4812.166 1068.579, 4811.743 1062.524 C 4810.815 1049.259, 4803.357 1035.578, 4788.765 1020.371 C 4778.796 1009.982, 4774.991 1007.280, 4759.880 999.860 C 4746.918 993.496, 4742.592 990.180, 4738.175 983.222 C 4733.747 976.249, 4732 969.090, 4732 957.924 C 4732 939.811, 4726.558 929.388, 4706.881 909.812 C 4695.147 898.138, 4688.410 894.108, 4671.345 888.553 C 4661.203 885.252, 4655.085 881.274, 4652.168 876.086 C 4650.108 872.420, 4649.943 871.005, 4650.209 859.291 C 4650.479 847.407, 4650.326 846.145, 4648.040 841.500 C 4644.784 834.882, 4625.242 815.455, 4613.488 807.151 C 4601.827 798.913, 4597.143 796.594, 4582.658 791.889 C 4571.224 788.175, 4565.665 785.182, 4561.681 780.594 C 4557.460 775.733, 4550.293 764.003, 4547.572 757.498 C 4543.053 746.696, 4538.613 740.390, 4527.621 729.159 C 4516.273 717.565, 4504.714 708.399, 4495.704 703.851 C 4492.205 702.084, 4484.821 699.776, 4478.147 698.363 C 4471.565 696.969, 4464.517 694.773, 4461.701 693.241 C 4454.037 689.069, 4445.777 679.282, 4439.805 667.296 C 4435.456 658.567, 4433.436 655.769, 4427.236 649.879 C 4410.567 634.045, 4385.609 622.102, 4369 622.010 C 4361.433 621.968, 4352.022 620.045, 4347.048 617.524 C 4340.797 614.357, 4336.888 609.723, 4331.586 599.195 C 4326.388 588.875, 4322.094 584.311, 4312.009 578.386 C 4293.403 567.457, 4283.202 564.781, 4259.500 564.612 C 4242.010 564.488, 4241.355 564.408, 4236.380 561.791 C 4229.731 558.294, 4226.806 554.690, 4221.615 543.598 C 4215.834 531.244, 4209.546 526.153, 4193.785 521.067 C 4188.039 519.213, 4184 514.906, 4184 510.634 C 4184 505.607, 4187.839 501.639, 4201.957 492.070 C 4217.234 481.716, 4220.846 477.564, 4225.963 464.477 C 4233.045 446.363, 4231.601 440.468, 4216.727 426.783 C 4208.909 419.590, 4206.765 416.899, 4202.689 409.161 C 4196.505 397.421, 4190.394 390.824, 4177.699 382.182 C 4165.392 373.805, 4161.101 369.762, 4153.513 359.389 C 4145.586 348.555, 4143.818 346.755, 4133.417 338.926 C 4124.095 331.909, 4121.898 329.306, 4115.681 317.916 C 4109.290 306.205, 4102.423 300.880, 4090 298.001 C 4081.752 296.089, 4076.129 292.867, 4066.711 284.656 C 4056.414 275.677, 4051.947 272.578, 4041.500 267.160 C 4037.100 264.879, 4030.125 260.045, 4026 256.418 C 4021.875 252.791, 4014.450 246.787, 4009.500 243.076 C 3999.104 235.283, 3995.234 231.220, 3988.009 220.514 C 3985.141 216.263, 3978.327 207.995, 3972.868 202.142 C 3967.408 196.289, 3961.843 189.250, 3960.501 186.500 C 3953.736 172.639, 3953.183 157.120, 3958.363 126.500 C 3962.251 103.511, 3964.695 96.314, 3974.488 79 C 3979.625 69.917, 3980.993 66.619, 3980.996 63.307 C 3981.003 55.790, 3974.801 53.838, 3966.877 58.863" stroke="none" fill="black" fill-rule="evenodd"/>
</svg>