<svg xmlns="http://www.w3.org/2000/svg" width="590" height="575" viewBox="0 0 590 575" version="1.1">
	<path d="M 487 1.003 C 484.525 1.408, 478 2.276, 472.500 2.932 C 462.352 4.142, 449.560 7.577, 447.584 9.623 C 434.870 22.786, 431 27.088, 431 28.059 C 431 28.741, 430.161 29.014, 429 28.710 C 427.424 28.298, 427 28.680, 427 30.510 C 427 31.788, 426.479 33.007, 425.843 33.219 C 425.207 33.431, 426.130 34.519, 427.895 35.637 C 430.660 37.387, 430.897 37.841, 429.604 38.914 C 428.779 39.599, 425.977 40.920, 423.378 41.850 C 420.780 42.779, 418.469 44.094, 418.243 44.771 C 417.985 45.544, 418.421 45.776, 419.416 45.394 C 420.287 45.059, 421 45.044, 421 45.359 C 421 46.174, 418.120 52.693, 415.355 58.135 C 414.060 60.685, 413 64.088, 413 65.698 C 413 67.629, 412.004 69.580, 410.075 71.428 C 408.467 72.969, 407.351 74.751, 407.595 75.388 C 407.840 76.025, 406.590 78.786, 404.817 81.523 C 401.675 86.376, 401.384 86.962, 401.125 88.967 C 401.056 89.498, 399.527 91.411, 397.726 93.217 C 395.925 95.022, 393.664 98.570, 392.701 101.099 C 389.613 109.210, 375.642 121.526, 363.372 126.954 C 360.828 128.079, 357.895 129, 356.854 129 C 355.814 129, 352.672 130.198, 349.872 131.662 C 346.160 133.603, 342.440 134.539, 336.140 135.117 C 327.705 135.892, 321.570 138.127, 314 143.184 C 312.625 144.102, 309.250 145.290, 306.500 145.824 C 303.750 146.357, 298.371 147.603, 294.546 148.591 C 287.872 150.316, 286.947 150.317, 271.546 148.623 C 257.912 147.124, 217.412 139.333, 206.007 136.016 C 199.776 134.204, 190.365 134.878, 177.869 138.033 C 166.432 140.921, 165.229 141.033, 152.771 140.375 C 142.834 139.851, 139.862 139.968, 140.415 140.863 C 141.535 142.674, 135.546 144.653, 126.602 145.427 C 121.859 145.837, 117.066 146.930, 114.602 148.163 C 110.127 150.402, 104 155.767, 103.999 157.446 C 103.998 159.339, 95.033 167.775, 92.291 168.463 C 90.821 168.832, 87.566 170.821, 85.059 172.882 C 82.551 174.943, 78.925 177.719, 77 179.051 C 73.710 181.327, 69.435 185.721, 67.753 188.553 C 67.212 189.464, 67.626 189.658, 69.253 189.257 L 71.500 188.704 69.375 191.102 C 68.206 192.421, 66.715 194.537, 66.061 195.804 C 64.129 199.548, 58.830 212.374, 58.544 214 C 58.398 214.825, 57.326 217.525, 56.162 220 C 54.997 222.475, 54.034 225.108, 54.022 225.850 C 54.010 226.593, 52.142 231.093, 49.872 235.850 C 47.043 241.779, 45.514 246.554, 45.012 251.028 C 44.610 254.618, 42.396 263.034, 40.093 269.731 C 37.789 276.427, 34.815 287.480, 33.483 294.292 C 30.499 309.553, 30.523 309.489, 25.724 315 C 21.099 320.312, 16.542 331.404, 8.059 358 C 2.188 376.408, -0.289 386.044, 0.616 386.949 C 0.877 387.211, 1.970 386.875, 3.045 386.204 C 4.120 385.532, 5 385.099, 4.999 385.242 C 4.999 385.384, 4.093 387.884, 2.985 390.798 C 0.917 396.240, -1.027 416.593, 0.912 412.500 C 1.774 410.680, 1.866 410.742, 1.930 413.191 C 2 415.893, 3.537 417.855, 4.165 416.044 C 4.349 415.512, 4.586 418.188, 4.691 421.993 C 4.795 425.797, 5.358 429.800, 5.941 430.889 C 6.523 431.978, 7 435.598, 7 438.934 C 7 444.517, 7.968 446.479, 9.500 444 C 10.620 442.188, 12 442.957, 12 445.395 C 12 446.712, 12.928 450.794, 14.062 454.466 C 15.721 459.837, 16.388 460.923, 17.472 460.023 C 18.539 459.137, 18.960 459.539, 19.490 461.952 C 19.858 463.628, 20.598 465, 21.135 465 C 21.672 465, 23.324 462.315, 24.805 459.033 C 26.287 455.751, 28.025 453.051, 28.667 453.033 C 29.308 453.015, 30.063 452.437, 30.343 451.750 C 31.234 449.563, 34.878 455.187, 35.592 459.851 C 36.045 462.815, 36.530 463.771, 37.113 462.851 C 37.746 461.852, 37.973 461.826, 37.985 462.750 C 38.019 465.527, 39.990 463.749, 40.989 460.042 C 42.453 454.606, 43.420 454.388, 45.512 459.027 C 47.566 463.581, 48.029 463.785, 49.815 460.924 C 50.795 459.355, 51.433 459.115, 52.429 459.941 C 54.165 461.382, 56.766 460.313, 57.552 457.835 C 57.918 456.683, 58.758 456.077, 59.563 456.386 C 60.324 456.678, 62.226 455.839, 63.790 454.523 C 65.354 453.207, 67.842 451.827, 69.317 451.457 C 71.919 450.804, 72 450.915, 72.015 455.142 C 72.023 457.539, 72.731 462.425, 73.589 466 C 78.690 487.260, 83.950 520.474, 83.980 531.616 C 83.998 537.938, 84.495 539.780, 88.438 548.116 C 90.989 553.510, 93.184 559.838, 93.600 563 C 94.158 567.237, 94.992 569.124, 97.234 571.218 C 100.947 574.687, 104.017 575.222, 117.512 574.747 C 129.694 574.319, 141.558 571.673, 147.353 568.091 C 152.292 565.038, 152.357 560.932, 147.566 554.654 C 145.677 552.180, 143.450 548.837, 142.617 547.226 C 139.937 542.043, 134.684 538.282, 129.041 537.506 L 123.912 536.800 119.821 528.650 L 115.730 520.500 115.626 498.500 C 115.538 480.053, 115.806 475.612, 117.281 471 C 118.249 467.975, 120.603 459.477, 122.513 452.115 C 125.691 439.867, 127.479 436.149, 130.250 436.032 C 130.662 436.014, 131 437.727, 131 439.839 C 131 442.429, 132.660 447.063, 136.104 454.089 C 138.911 459.815, 145.007 473.050, 149.649 483.500 C 156.673 499.310, 158.902 503.339, 162.921 507.500 C 165.578 510.250, 169.377 515.087, 171.363 518.250 C 174.603 523.407, 175.324 524, 178.362 524 C 180.225 524, 183.640 524.667, 185.951 525.483 C 189.406 526.702, 193.385 526.831, 208.327 526.208 L 226.500 525.451 232.681 521.626 C 236.081 519.522, 239.118 517.135, 239.430 516.321 C 240.123 514.516, 239.127 510.008, 237.614 508.098 C 237.003 507.327, 236.052 505.319, 235.501 503.635 C 234.591 500.853, 233.497 500.219, 223.500 496.680 C 213.114 493.003, 212.165 492.840, 206.500 493.763 C 203.200 494.301, 200.038 494.377, 199.473 493.933 C 197.127 492.088, 184.888 464.872, 182.831 456.925 L 180.611 448.351 184.329 440.522 C 188.728 431.259, 195.508 424.175, 213.063 410.500 C 224.891 401.286, 242 384.228, 242 381.649 C 242 379.726, 252.428 365.087, 255.815 362.255 C 257.900 360.512, 259.763 360.009, 264.152 360.005 C 269.566 360, 269.850 360.130, 270.876 363.075 C 271.466 364.766, 272.387 365.879, 272.923 365.547 C 273.459 365.216, 274.693 367.182, 275.664 369.917 C 277.055 373.832, 277.710 374.655, 278.751 373.792 C 279.825 372.900, 279.948 373.471, 279.408 376.848 C 278.941 379.772, 279.098 381, 279.940 381 C 280.680 381, 280.893 381.762, 280.500 383 C 279.736 385.407, 280.831 385.515, 285.636 383.508 C 288.803 382.184, 289.143 382.184, 288.635 383.508 C 287.905 385.411, 288.480 385.387, 291.535 383.385 C 294.292 381.579, 294.780 382.713, 292.798 386.316 C 289.866 391.644, 291.965 392.281, 301.571 388.976 L 307.455 386.951 309.090 389.119 C 309.990 390.312, 311.216 390.985, 311.815 390.614 C 312.425 390.237, 313.553 391.165, 314.375 392.720 C 315.681 395.188, 315.926 395.294, 316.562 393.666 C 317.627 390.940, 318.966 393.583, 318.985 398.450 C 318.997 401.522, 319.267 402.133, 320.200 401.200 C 322.012 399.388, 322.994 399.750, 323.052 402.250 L 323.105 404.500 324.674 402.250 C 327.228 398.590, 328 399.610, 328 406.640 C 328 411.165, 328.623 414.590, 329.957 417.390 C 334.171 426.241, 337 434.845, 337 438.814 C 337 442.951, 338.168 448.874, 340.488 456.500 C 341.157 458.700, 341.374 461.400, 340.970 462.500 C 340.459 463.889, 340.974 465.488, 342.656 467.734 C 345.870 472.027, 349.978 480.957, 349.990 483.679 C 349.996 484.877, 349.377 486.481, 348.615 487.243 C 347.434 488.423, 347.581 489.707, 349.607 495.922 C 350.915 499.933, 351.761 503.577, 351.488 504.019 C 351.215 504.461, 351.770 506.180, 352.722 507.838 C 354.144 510.316, 354.266 511.551, 353.407 514.769 C 352.541 518.013, 352.674 519.267, 354.181 522.077 C 355.491 524.520, 356 527.635, 356 533.214 C 356 545.521, 360.598 554.795, 367.698 556.808 C 369.789 557.401, 375.546 559.308, 380.490 561.046 C 391.456 564.900, 394.874 564.725, 419.804 559.024 C 430.147 556.659, 432.735 551.463, 427.660 543.250 C 424.978 538.910, 422.948 537.158, 415.944 533.142 C 411.285 530.471, 406.536 527.987, 405.390 527.624 C 403.098 526.896, 399.192 519.658, 396.419 511 C 395.069 506.787, 394.658 502.107, 394.661 491 C 394.665 477.189, 394.955 475.078, 400.771 446.597 C 404.602 427.835, 407.455 416.116, 408.429 415.142 C 412.299 411.273, 423 416.079, 423 421.687 C 423 423.261, 423.584 424, 424.829 424 C 426.083 424, 426.634 424.708, 426.579 426.250 C 426.523 427.848, 427.435 428.934, 429.728 430 C 431.504 430.825, 432.966 431.979, 432.978 432.565 C 433.017 434.447, 439.313 436.754, 443 436.236 L 446.500 435.745 444 438.516 L 441.500 441.288 444.969 440.625 C 447.696 440.104, 448.177 440.223, 447.219 441.181 C 445.324 443.076, 445.767 444, 448.567 444 C 450.756 444, 451.039 444.332, 450.483 446.250 C 450.125 447.488, 448.969 449.719, 447.916 451.210 C 445.581 454.511, 445.544 455, 447.622 455 C 448.927 455, 449.009 455.284, 448.040 456.452 C 446.395 458.434, 447.538 461.468, 450.426 462.784 C 452.446 463.705, 452.758 464.457, 452.456 467.686 C 452.159 470.867, 452.622 472.039, 455.246 474.750 C 457.682 477.266, 458.005 478, 456.676 478 C 455.080 478, 455.091 478.264, 456.824 481.750 C 457.850 483.813, 459.976 489.254, 461.550 493.842 C 463.458 499.408, 465.673 503.620, 468.205 506.496 C 472.451 511.319, 472.787 512.468, 470.250 513.493 C 468.714 514.114, 468.789 514.312, 470.864 515.110 C 472.653 515.798, 473.090 516.547, 472.662 518.184 C 472.351 519.375, 472.582 522.616, 473.177 525.387 C 474.130 529.834, 475.211 531.338, 482.379 538.187 C 487.548 543.127, 492.135 546.565, 495 547.647 C 497.475 548.581, 501.300 550.353, 503.500 551.585 C 507.294 553.708, 508.066 553.777, 518.500 552.910 C 533.504 551.664, 541.217 550.489, 543.930 549.038 C 546.076 547.889, 546.172 547.416, 545.520 541.158 C 544.107 527.599, 539.262 522.382, 527.122 521.352 C 516.638 520.462, 517.663 521.377, 505.790 502.321 L 501.318 495.142 500.688 481.299 C 499.650 458.485, 502.913 424.698, 509.118 394 C 510.730 386.025, 512.474 375.964, 512.993 371.641 C 514.238 361.282, 518.117 354.243, 522.232 354.876 C 523.053 355.002, 523.649 352.558, 524.353 346.172 C 524.881 341.389, 527.302 338, 530.190 338 C 531.772 338, 531.897 337.677, 530.980 335.962 C 529.463 333.128, 530.627 330.244, 533.988 328.506 C 537.919 326.473, 542.150 318.569, 546.546 305.044 C 550.300 293.494, 558.487 276.931, 560.261 277.300 C 561.710 277.602, 563.954 270.547, 565.604 260.500 C 567.684 247.836, 569.546 241.118, 574.473 228.500 C 576.835 222.450, 579.051 215.206, 579.398 212.403 C 580.235 205.636, 584.477 193.435, 585.883 193.750 C 586.498 193.888, 587.005 192.988, 587.011 191.750 C 587.017 190.513, 587.692 187.291, 588.511 184.591 C 591.371 175.162, 589.945 140.043, 586.511 135.346 C 585.496 133.957, 585.535 132.964, 586.717 130.135 C 587.520 128.212, 587.930 125.402, 587.628 123.890 C 587.326 122.378, 587.525 120.992, 588.071 120.810 C 588.708 120.597, 588.650 119.295, 587.910 117.171 C 587.157 115.012, 586.988 110.846, 587.423 105.181 C 587.789 100.407, 588.064 94.972, 588.034 93.103 C 587.963 88.770, 582.029 69.965, 578.594 63.186 C 577.149 60.334, 576.311 57.986, 576.733 57.968 C 577.155 57.951, 576.667 57.306, 575.650 56.535 C 574.632 55.764, 574.067 54.700, 574.394 54.171 C 574.721 53.642, 574.236 52.921, 573.317 52.568 C 571.798 51.985, 571.788 51.783, 573.215 50.357 C 574.641 48.930, 574.635 48.521, 573.142 45.874 C 571.691 43.301, 571.675 42.848, 573 41.981 C 574.316 41.120, 574.320 40.884, 573.029 40.055 C 571.781 39.252, 571.753 38.571, 572.846 35.550 C 574.282 31.579, 573.825 30.768, 568.594 28 C 567.035 27.175, 564.688 24.475, 563.379 22 C 562.070 19.525, 559.874 16.675, 558.499 15.667 C 557.125 14.658, 556 13.298, 556 12.644 C 556 11.990, 554.087 10.952, 551.750 10.337 C 545.344 8.651, 539.187 6.184, 536.187 4.100 C 534.054 2.619, 530.237 2.005, 517.670 1.124 C 506.446 0.338, 501.262 0.325, 499.850 1.081 C 498.439 1.836, 496.961 1.833, 494.780 1.073 C 493.087 0.483, 491.656 0.060, 491.601 0.134 C 491.545 0.207, 489.475 0.598, 487 1.003" stroke="none" fill="black" fill-rule="evenodd"/>
</svg>