<svg xmlns="http://www.w3.org/2000/svg" width="577" height="433" viewBox="0 0 577 433" version="1.1">
	<path d="M 489.681 214.201 C 486.474 218.439, 484.898 224.452, 485.090 231.723 C 485.173 234.900, 484.904 239.687, 484.491 242.360 C 483.858 246.453, 483.208 247.535, 480.370 249.209 C 476.467 251.512, 476.154 252.545, 479.124 253.322 C 482.021 254.080, 481.147 257.192, 475.903 264.791 C 471.856 270.655, 471.826 270.764, 473.414 273.834 C 475.130 277.151, 477.739 279.003, 479.704 278.297 C 482.653 277.237, 493.700 265.112, 495.464 261 C 496.525 258.525, 497.488 256.354, 497.604 256.176 C 497.719 255.998, 499.093 256.504, 500.657 257.300 C 506.963 260.509, 507.921 260.434, 509.520 256.606 C 512.335 249.869, 511.805 249, 504.883 249 C 499.001 249, 498.793 248.914, 499.461 246.750 C 501.983 238.576, 501.858 233.321, 498.862 221.500 C 498.304 219.300, 497.786 216.785, 497.710 215.912 C 497.577 214.388, 495 211.222, 495 212.583 C 495 212.947, 494.365 212.718, 493.588 212.073 C 492.455 211.133, 491.684 211.553, 489.681 214.201" stroke="none" fill="black" fill-rule="evenodd"/>
</svg>