<svg xmlns="http://www.w3.org/2000/svg" width="2048" height="2048" viewBox="0 0 2048 2048" version="1.1">
	<path d="M 1074.500 539.058 C 1067.350 539.552, 1054.300 540.416, 1045.500 540.978 C 1030.831 541.914, 1017.809 543.254, 998 545.866 C 993.875 546.410, 983.975 547.374, 976 548.008 C 968.025 548.642, 958.350 549.598, 954.500 550.132 C 943.367 551.676, 906.083 554.966, 899.500 554.986 C 887.056 555.023, 830.638 565.180, 789 574.879 C 778.513 577.322, 751.088 581.638, 737 583.062 C 731.225 583.646, 722.450 584.752, 717.500 585.521 C 704.805 587.492, 700.653 587.903, 682 589.035 C 672.925 589.585, 659.425 590.565, 652 591.211 C 638.803 592.360, 618.528 592.621, 600.500 591.873 C 595.550 591.668, 589.250 591.638, 586.500 591.807 C 580.174 592.195, 550.357 590.542, 538.500 589.146 C 520.435 587.019, 487.989 586.017, 469 586.998 C 446.654 588.154, 445.261 588.339, 434.779 591.552 C 430.225 592.948, 424.250 594.779, 421.500 595.622 C 407.494 599.915, 373.361 623.634, 355.605 641.412 C 343.621 653.410, 334.499 666.362, 332.418 674.331 C 331.614 677.411, 329.427 682.534, 327.559 685.716 C 325.691 688.897, 322.370 697.350, 320.179 704.500 C 313.113 727.555, 311.014 741.542, 311.174 764.500 C 311.287 780.741, 310.339 784.775, 304.830 791.508 C 303.483 793.153, 298.854 799.900, 294.544 806.500 C 286.250 819.199, 256.563 876.734, 253.515 886.017 C 252.525 889.033, 249.351 896.675, 246.461 903 C 243.572 909.325, 238.387 921.213, 234.938 929.417 C 230.580 939.784, 226.258 947.980, 220.770 956.287 C 212.258 969.170, 206.278 981.088, 202.349 993 C 200.988 997.125, 198.397 1002.750, 196.592 1005.500 C 189.054 1016.978, 188.054 1019.005, 187.588 1023.756 C 187.324 1026.452, 186.356 1030.648, 185.436 1033.079 C 182.339 1041.268, 179.104 1054.466, 179.052 1059.128 C 179.023 1061.673, 178.241 1065.498, 177.314 1067.628 C 176.387 1069.758, 175.546 1074.425, 175.445 1078 C 175.344 1081.575, 174.520 1089.450, 173.614 1095.500 C 170.368 1117.181, 171.312 1165.109, 175.603 1196.500 C 176.956 1206.400, 180.065 1226.650, 182.510 1241.500 C 184.956 1256.350, 187.671 1274.121, 188.543 1280.991 C 189.415 1287.861, 190.797 1296.636, 191.613 1300.491 C 195.192 1317.393, 197.950 1334.376, 198.922 1345.500 C 201.801 1378.439, 203.245 1408.150, 202.591 1421 C 202.213 1428.425, 201.510 1442.375, 201.029 1452 C 200.549 1461.625, 199.243 1475.350, 198.128 1482.500 C 189.592 1537.239, 188.823 1545.802, 189.558 1578 C 190.140 1603.493, 190.141 1603.503, 193.675 1615.500 C 198.323 1631.277, 201.502 1637.023, 210.710 1646.290 C 217.193 1652.816, 220.179 1654.910, 230.318 1660.039 C 246.506 1668.228, 256.587 1671.119, 265.094 1670.010 C 273.246 1668.948, 282.388 1666.089, 297.500 1659.874 C 310.351 1654.589, 317.196 1650.232, 321.487 1644.607 C 326.846 1637.580, 331.776 1617.743, 330.707 1607.507 C 329.610 1597.006, 321.567 1578.795, 313.921 1569.500 C 308.901 1563.397, 303.253 1559.450, 296.795 1557.532 C 294.116 1556.736, 290.748 1555.160, 289.311 1554.030 C 287.875 1552.900, 285.029 1551.708, 282.987 1551.382 C 277.207 1550.458, 277.075 1550.204, 278.620 1543 C 280.562 1533.949, 281.793 1524.253, 283.508 1504.500 C 284.320 1495.150, 285.668 1481.425, 286.504 1474 C 287.340 1466.575, 288.454 1452.850, 288.979 1443.500 C 289.904 1427.031, 291.400 1412.659, 294.427 1391.148 C 295.870 1380.900, 298.048 1350.227, 299.942 1313.500 C 300.902 1294.870, 301.551 1286.573, 306.553 1229 C 307.915 1213.325, 309.682 1191.690, 310.481 1180.921 C 312.134 1158.622, 317.999 1115.881, 320.476 1108.075 C 320.761 1107.176, 324.186 1103.754, 328.086 1100.471 C 331.987 1097.187, 337.900 1091.350, 341.228 1087.500 C 344.555 1083.650, 347.844 1080.165, 348.538 1079.757 C 349.232 1079.348, 352.151 1075.298, 355.027 1070.757 C 361.013 1061.302, 369.567 1052, 372.276 1052 C 374.710 1052, 384.411 1061.238, 386.418 1065.469 C 388.433 1069.714, 388.448 1078.852, 386.454 1086.540 C 384.512 1094.026, 376.050 1112.440, 366.482 1130 C 357.735 1146.054, 354.937 1153.990, 351.543 1172.365 C 347.661 1193.385, 348.418 1206.866, 353.614 1209.234 C 358.136 1211.294, 362.295 1209.299, 373.590 1199.650 C 379.591 1194.524, 388.744 1185.880, 393.930 1180.439 C 408.890 1164.747, 420.296 1155.790, 436.500 1147.010 C 440.900 1144.626, 445.742 1141.814, 447.259 1140.763 C 449.773 1139.021, 450.754 1138.945, 458.259 1139.915 C 462.792 1140.500, 469.561 1141.529, 473.301 1142.202 C 479.360 1143.290, 481.325 1143.185, 491.301 1141.235 C 497.461 1140.031, 504.975 1138.778, 508 1138.452 C 515.546 1137.637, 534.423 1132.602, 543.774 1128.910 C 553.074 1125.238, 570.966 1115.345, 578.810 1109.537 C 581.939 1107.220, 588.100 1102.032, 592.500 1098.010 C 604.258 1087.259, 604.787 1087.012, 614.529 1087.699 C 626.963 1088.577, 644.120 1084.520, 658.285 1077.352 L 663.069 1074.931 666.322 1078.380 C 668.390 1080.573, 670.945 1082.087, 673.334 1082.535 C 676.437 1083.117, 677.669 1084.134, 680.402 1088.370 C 682.223 1091.191, 685.558 1095.937, 687.813 1098.916 C 690.069 1101.895, 692.187 1105.720, 692.520 1107.416 C 694.224 1116.079, 698.404 1127.390, 700.991 1130.336 L 703.828 1133.568 699.911 1148.534 C 690.934 1182.837, 688.498 1199.935, 687.018 1239 C 686.021 1265.323, 682.802 1317.535, 681.038 1336 C 680.486 1341.775, 679.137 1355.950, 678.039 1367.500 C 676.038 1388.565, 674.815 1411.947, 672.941 1465 C 672.097 1488.891, 672.189 1496.249, 673.510 1510.500 C 676.267 1540.232, 676.744 1543.320, 679.967 1552.320 C 682.197 1558.547, 683.382 1564.135, 683.997 1571.320 C 685.224 1585.655, 687.538 1601.905, 690.087 1614.082 C 691.788 1622.213, 692.256 1627.792, 692.217 1639.500 C 692.171 1653.295, 691.925 1655.273, 689.161 1664.121 C 687.508 1669.412, 684.484 1677.062, 682.441 1681.121 C 676.274 1693.374, 672.265 1697.868, 643.305 1725 C 638.005 1729.965, 637.200 1731.278, 635.025 1738.500 C 633.701 1742.900, 631.557 1748.966, 630.262 1751.980 C 624.841 1764.593, 625.406 1768.811, 632.869 1771.468 C 635.416 1772.375, 638.175 1773.534, 639 1774.043 C 639.825 1774.552, 642.453 1776.167, 644.841 1777.632 C 647.228 1779.097, 650.378 1780.200, 651.841 1780.083 C 660.921 1779.353, 690.373 1779.407, 700.500 1780.171 C 707.100 1780.670, 723.525 1781.257, 737 1781.476 C 750.475 1781.695, 763.529 1782.330, 766.008 1782.887 C 772.909 1784.438, 808.688 1786.237, 810.748 1785.137 C 811.712 1784.623, 815.200 1783.888, 818.500 1783.503 C 834.164 1781.676, 845.543 1771.444, 846.700 1758.144 C 847.064 1753.956, 846.423 1749.405, 844.214 1740.500 C 840.448 1725.324, 836.173 1714.519, 826.185 1694.930 C 815.281 1673.544, 813.619 1666.364, 813.591 1640.500 C 813.579 1630.050, 814.139 1617.225, 814.834 1612 C 817.546 1591.626, 827.459 1545.866, 834.414 1521.614 C 845.204 1483.992, 848.920 1469.908, 852.138 1454.449 L 855.403 1438.762 857.668 1445.476 C 858.914 1449.169, 865.310 1463.510, 871.883 1477.345 C 887.836 1510.927, 892.320 1522.603, 895.945 1540 C 897.033 1545.225, 900.164 1558.050, 902.902 1568.500 C 906.772 1583.272, 908.973 1589.614, 912.792 1597 C 915.494 1602.225, 918.030 1607.838, 918.427 1609.472 C 918.825 1611.107, 921.624 1617.407, 924.649 1623.472 C 927.673 1629.538, 931.523 1637.803, 933.205 1641.841 C 934.886 1645.878, 938.003 1651.193, 940.131 1653.651 C 942.259 1656.110, 944 1658.727, 944 1659.466 C 944 1660.206, 945.575 1662.696, 947.500 1665 C 949.425 1667.304, 951 1669.516, 951 1669.916 C 951 1670.316, 950.266 1672.799, 949.368 1675.433 C 947.845 1679.902, 947.851 1680.465, 949.457 1683.832 C 950.794 1686.636, 950.892 1687.536, 949.896 1687.868 C 949.191 1688.103, 947.539 1689.370, 946.225 1690.684 C 944.220 1692.689, 943.941 1693.693, 944.488 1696.931 C 945.494 1702.881, 941.797 1709.064, 931.855 1718.060 C 927.260 1722.218, 921.025 1727.253, 918 1729.248 C 908.129 1735.759, 894.362 1752.729, 890.983 1762.550 C 887.147 1773.698, 889.435 1784.220, 895.298 1782.395 C 896.287 1782.087, 897.686 1782.324, 898.407 1782.923 C 899.128 1783.521, 902.369 1784.938, 905.609 1786.072 C 910.521 1787.791, 912.855 1788.025, 919.660 1787.484 C 926.153 1786.968, 928.302 1787.152, 930.182 1788.384 C 931.915 1789.519, 936.191 1790.058, 946.202 1790.403 C 956.094 1790.744, 962.566 1791.550, 969.679 1793.329 C 981.362 1796.249, 991.928 1798.456, 1001.500 1799.975 C 1005.350 1800.586, 1009.850 1801.303, 1011.500 1801.569 C 1013.150 1801.835, 1018.775 1801.594, 1024 1801.034 C 1053.494 1797.874, 1052.692 1797.906, 1060.066 1799.583 C 1066.614 1801.073, 1067.629 1801.064, 1074.308 1799.467 C 1083.755 1797.209, 1089.871 1793.844, 1094.419 1788.403 C 1102.675 1778.526, 1103.549 1771.711, 1099.148 1751.500 C 1097.950 1746, 1096.239 1738.125, 1095.346 1734 C 1094.453 1729.875, 1092.203 1722.298, 1090.347 1717.163 C 1086.997 1707.892, 1084.967 1703.395, 1071.993 1676.500 C 1061.752 1655.271, 1061.529 1654.039, 1061.508 1618.500 L 1061.490 1588.500 1057.761 1571 C 1055.711 1561.375, 1052.005 1545.625, 1049.526 1536 C 1047.048 1526.375, 1043.423 1509.092, 1041.472 1497.594 C 1039.521 1486.095, 1037.717 1476.351, 1037.463 1475.940 C 1036.199 1473.895, 1029.759 1437.933, 1028.471 1425.723 C 1026.695 1408.894, 1026.561 1387.252, 1028.119 1369 C 1029.268 1355.553, 1029.262 1355.470, 1026.621 1348.032 C 1025.111 1343.779, 1022.684 1339.238, 1020.985 1337.484 C 1019.343 1335.791, 1018 1334.104, 1018 1333.736 C 1018 1333.368, 1019.701 1330.436, 1021.780 1327.219 C 1029.490 1315.291, 1033.985 1304.969, 1034.975 1296.927 C 1036.059 1288.113, 1040.002 1273.876, 1042.972 1268.055 L 1045.041 1264 1052.770 1263.981 C 1063.970 1263.953, 1087.564 1267.676, 1102 1271.750 C 1108.875 1273.690, 1120.575 1276.975, 1128 1279.050 C 1152.938 1286.018, 1196.432 1298.855, 1204 1301.482 C 1213.725 1304.856, 1239.501 1311.958, 1258.500 1316.497 C 1266.750 1318.468, 1280.025 1321.860, 1288 1324.034 C 1308.472 1329.615, 1329.032 1332.098, 1356 1332.247 C 1367.825 1332.313, 1381.100 1331.853, 1385.500 1331.225 C 1433.958 1324.314, 1435.616 1324.323, 1460.609 1331.643 L 1472.717 1335.190 1471.745 1339.746 C 1470.467 1345.740, 1472.047 1350.956, 1476.262 1354.657 C 1479.432 1357.440, 1479.500 1357.678, 1479.518 1366 C 1479.542 1377.457, 1481.075 1381.976, 1487.308 1388.964 C 1490.164 1392.166, 1493.801 1396.903, 1495.392 1399.490 C 1497.347 1402.671, 1500.424 1405.578, 1504.892 1408.465 C 1508.526 1410.814, 1512.497 1413.820, 1513.716 1415.146 C 1517.144 1418.875, 1518.784 1424.734, 1518.233 1431.282 C 1517.882 1435.461, 1518.150 1437.539, 1519.202 1438.782 C 1522.578 1442.769, 1523.572 1460.449, 1520.964 1470.132 C 1520.330 1472.488, 1520.090 1476.164, 1520.432 1478.300 C 1521.359 1484.098, 1517.697 1495.820, 1511.152 1508 C 1504.384 1520.596, 1499.890 1530.564, 1495.821 1542 C 1491.892 1553.044, 1485.845 1565.093, 1478.087 1577.337 C 1474.659 1582.748, 1470.950 1589.273, 1469.845 1591.837 C 1467.836 1596.498, 1462.963 1613.571, 1456.384 1639 C 1443.930 1687.136, 1438.372 1700.691, 1415.774 1738.050 C 1404.748 1756.277, 1402.855 1760.091, 1399.027 1771.801 C 1395.066 1783.919, 1394.757 1785.605, 1395.267 1792.342 C 1396.010 1802.177, 1399.406 1810.434, 1404.341 1814.407 C 1408.166 1817.487, 1408.231 1817.500, 1420.341 1817.479 C 1427.387 1817.466, 1434.859 1816.866, 1438.111 1816.051 C 1443.580 1814.681, 1443.854 1814.714, 1448.901 1817.353 C 1458.638 1822.444, 1476.229 1821.682, 1488.428 1815.639 C 1493.208 1813.272, 1498.093 1811.768, 1503.500 1810.999 C 1507.900 1810.374, 1513.075 1809.438, 1515 1808.918 C 1526.219 1805.889, 1544.630 1803.748, 1562 1803.452 C 1590.809 1802.962, 1599.418 1801.636, 1607.189 1796.494 C 1613.737 1792.160, 1613.783 1791.883, 1613.258 1759.500 C 1612.424 1708.094, 1612.842 1691.484, 1615.469 1671.579 C 1622.752 1616.391, 1624.201 1606.451, 1626.559 1595.500 C 1627.980 1588.900, 1630.716 1579, 1632.640 1573.500 C 1634.564 1568, 1636.920 1560.706, 1637.876 1557.291 C 1639.165 1552.692, 1640.981 1549.467, 1644.883 1544.853 C 1651.366 1537.188, 1653.514 1533.079, 1654.867 1525.760 C 1656.056 1519.328, 1658.413 1514.303, 1664.250 1505.751 C 1668.651 1499.304, 1672.939 1489.768, 1672.976 1486.345 C 1672.989 1485.159, 1674.640 1482.234, 1676.645 1479.845 C 1680.965 1474.696, 1683 1470.235, 1683 1465.914 C 1683 1463.843, 1684.023 1461.599, 1685.986 1459.364 C 1687.628 1457.493, 1689.268 1454.734, 1689.632 1453.232 C 1689.995 1451.729, 1692.070 1448.550, 1694.243 1446.167 L 1698.193 1441.835 1697.584 1450.167 C 1697.250 1454.750, 1696.763 1471.325, 1696.503 1487 C 1696.243 1502.675, 1695.558 1518.200, 1694.981 1521.500 C 1691.760 1539.914, 1687.159 1588.408, 1684.971 1627 C 1682.588 1669.057, 1678.349 1692.842, 1669.860 1711.799 C 1667.754 1716.503, 1664.523 1720.717, 1657.099 1728.446 C 1646.028 1739.970, 1645.462 1740.861, 1640.469 1754.655 C 1632.692 1776.138, 1631.521 1785.733, 1636.083 1790.588 C 1640.652 1795.451, 1655.791 1799.387, 1670 1799.406 C 1704.395 1799.451, 1746.149 1798.724, 1754.500 1797.934 C 1760 1797.414, 1772.600 1796.544, 1782.500 1796 C 1792.400 1795.457, 1802.075 1794.574, 1804 1794.039 C 1805.925 1793.504, 1812.900 1792.387, 1819.500 1791.558 C 1834.354 1789.690, 1838.075 1788.649, 1842.145 1785.225 C 1846.272 1781.752, 1852.144 1769.129, 1855.043 1757.500 C 1857.149 1749.047, 1857.211 1747.861, 1856.049 1738 C 1854.672 1726.304, 1852.058 1717.554, 1845.299 1702.003 L 1840.736 1691.505 1841.600 1682.003 C 1843.144 1665.012, 1842.426 1642.986, 1839.611 1621 C 1838.168 1609.725, 1836.338 1597.764, 1835.545 1594.420 C 1832.716 1582.494, 1831.628 1566.595, 1831.752 1539 C 1831.916 1502.621, 1832.972 1490.574, 1837.443 1474.074 C 1839.407 1466.823, 1841.674 1456.528, 1842.481 1451.195 C 1843.287 1445.863, 1845.784 1436.100, 1848.030 1429.500 C 1856.140 1405.665, 1866.660 1367.969, 1871.471 1345.500 C 1873.709 1335.047, 1877.205 1319.116, 1883.867 1289 C 1885.510 1281.575, 1887.999 1270.775, 1889.398 1265 C 1891.814 1255.028, 1893.653 1242.998, 1895.983 1221.921 C 1897.907 1204.526, 1901.111 1187.613, 1905.535 1171.500 C 1910.787 1152.373, 1918.814 1128.227, 1921.980 1122.031 C 1923.236 1119.573, 1925.750 1113.566, 1927.566 1108.680 C 1930.842 1099.870, 1931.640 1098.280, 1932.388 1099.083 C 1932.601 1099.312, 1933.508 1107.600, 1934.403 1117.500 C 1937.121 1147.589, 1936.832 1145.317, 1942.034 1177.500 C 1943.101 1184.100, 1944.438 1194, 1945.004 1199.500 C 1948.407 1232.522, 1949.079 1240.414, 1950.032 1258.500 C 1951.730 1290.762, 1952.710 1302.374, 1955.431 1322.500 C 1956.844 1332.950, 1958 1345.337, 1958 1350.026 C 1958 1361.415, 1959.355 1371.579, 1963.988 1394.951 C 1966.119 1405.703, 1968.816 1421.475, 1969.981 1430 C 1971.145 1438.525, 1973.184 1450.450, 1974.511 1456.500 C 1985.429 1506.280, 1985.993 1509.759, 1986.409 1529.911 C 1986.751 1546.440, 1986.742 1546.525, 1983.782 1553.381 C 1980.583 1560.794, 1980.530 1564.303, 1983.470 1574 C 1984.220 1576.475, 1985.126 1580.239, 1985.484 1582.364 C 1985.922 1584.970, 1987.534 1587.738, 1990.435 1590.864 C 1992.801 1593.414, 1995.466 1596.931, 1996.357 1598.679 C 1998.416 1602.717, 2001.479 1603.782, 2004.132 1601.381 C 2006.096 1599.603, 2006.117 1599.651, 2005.888 1605.319 C 2005.760 1608.474, 2006.131 1611.531, 2006.712 1612.112 C 2008.453 1613.853, 2012.363 1612.673, 2013.710 1610 C 2014.415 1608.602, 2014.977 1608.168, 2014.985 1609.015 C 2014.993 1609.848, 2014.100 1612.209, 2013 1614.261 C 2010.588 1618.762, 2010.502 1620.342, 2012.577 1622.064 C 2013.892 1623.155, 2014.734 1623.059, 2017.659 1621.484 C 2022.300 1618.985, 2024.901 1613.615, 2026.041 1604.179 C 2029.672 1574.128, 2027.850 1563.209, 2014.997 1538 C 2011.917 1531.958, 2011.039 1528.954, 2010.483 1522.548 C 2010.102 1518.174, 2008.536 1509.399, 2007.001 1503.048 C 1998.907 1469.545, 1992.084 1422.096, 1989.955 1384.500 C 1984.893 1295.101, 1984.978 1273.968, 1990.737 1191 C 1993.757 1147.486, 1994.266 1107.093, 1992.115 1081.667 C 1989.354 1049.030, 1978.351 1003.003, 1960.520 949.500 C 1949.960 917.812, 1948.654 914.674, 1932.229 881.500 C 1920.543 857.900, 1918.022 851.899, 1914.383 839.037 C 1912.058 830.820, 1905.480 820.766, 1895.502 810.180 C 1891.189 805.603, 1886.636 799.649, 1885.385 796.948 C 1884.133 794.247, 1880.254 788.991, 1876.765 785.269 C 1873.275 781.546, 1868.907 776.250, 1867.056 773.500 C 1862.573 766.837, 1834.506 739.035, 1824.656 731.500 C 1820.342 728.200, 1813.724 723.009, 1809.948 719.965 C 1800.690 712.500, 1775.127 697.311, 1756.084 687.961 C 1712.284 666.454, 1680.885 652.263, 1647 638.660 C 1634.075 633.471, 1617.875 626.654, 1611 623.510 C 1604.125 620.367, 1590.625 614.960, 1581 611.496 C 1571.375 608.031, 1557.875 603.085, 1551 600.506 C 1544.125 597.926, 1531.300 593.878, 1522.500 591.509 C 1513.700 589.140, 1501.324 585.623, 1494.997 583.694 C 1474.517 577.447, 1450.958 572.194, 1436 570.541 C 1428.025 569.659, 1416.775 568.291, 1411 567.502 C 1405.225 566.712, 1394.200 565.349, 1386.500 564.472 C 1370.381 562.637, 1363.907 561.549, 1333 555.481 C 1300.032 549.009, 1291.820 548.069, 1242 545.066 C 1213.854 543.369, 1181.360 541.747, 1169.500 541.446 C 1163.450 541.292, 1155.575 540.673, 1152 540.070 C 1143.355 538.611, 1090.876 537.926, 1074.500 539.058" stroke="none" fill="black" fill-rule="evenodd"/>
</svg>