<svg xmlns="http://www.w3.org/2000/svg" width="1000" height="1000" viewBox="0 0 1000 1000" version="1.1">
	<path d="M 544.257 71.250 C 543.713 71.938, 542.833 73.850, 542.301 75.500 C 541.046 79.390, 539.836 79.304, 538.785 75.250 C 538.322 73.463, 537.506 72, 536.971 72 C 535.630 72, 535.751 80.436, 537.159 85.136 C 538.061 88.148, 538.027 90.275, 537.002 94.752 C 535.744 100.249, 535.651 100.369, 534.872 97.500 C 534.014 94.338, 528.484 87, 526.959 87 C 526.466 87, 526.350 87.787, 526.701 88.750 C 527.309 90.417, 527.244 90.417, 525.341 88.750 C 524.242 87.787, 523.032 87, 522.652 87 C 521.300 87, 523.227 92.635, 527.677 101.692 C 531.896 110.277, 532.116 111.118, 531.019 114.442 C 529.643 118.611, 528.291 119.007, 527.411 115.500 C 526.268 110.946, 525 112.906, 524.986 119.250 C 524.961 130.633, 524.776 130.696, 516.662 122.104 C 512.713 117.922, 508.690 113.375, 507.722 112 L 505.963 109.500 506.458 114.500 C 507.322 123.224, 507.645 124.326, 511.865 132.947 C 516.147 141.694, 516.928 146.429, 514.949 151.634 L 513.898 154.398 511.001 149.325 C 507.687 143.522, 498.518 133.182, 497.538 134.142 C 496.523 135.137, 499.232 140.814, 504.389 148.500 C 509.614 156.285, 510.315 158.188, 509.777 163.112 L 509.407 166.500 508.174 163.608 C 506.815 160.418, 493.812 147.008, 490.250 145.121 C 486.281 143.019, 487.571 146.327, 493.786 154.184 C 499.749 161.725, 506.007 172.006, 505.990 174.235 C 505.985 174.931, 504.263 172.800, 502.163 169.500 C 495.666 159.290, 492.155 158.038, 495.793 167.230 C 496.940 170.128, 499.021 175.200, 500.416 178.500 C 502.947 184.487, 503.540 189.761, 502.097 193.449 C 501.425 195.167, 501.202 195.019, 500.220 192.202 C 498.041 185.950, 483.822 170.327, 483.171 173.469 C 482.871 174.921, 484.518 178.256, 491.092 189.500 L 493.431 193.500 488.797 189.750 C 483.994 185.863, 482.134 185.266, 480.358 187.042 C 479.634 187.766, 478.923 187.612, 478.035 186.542 C 476.385 184.554, 475 184.571, 475 186.579 C 475 188.890, 483.054 204.692, 487.191 210.500 C 491.923 217.142, 494.017 221.405, 493.921 224.200 C 493.852 226.218, 493.710 226.133, 492.763 223.500 C 490.990 218.569, 485.461 212.091, 478.270 206.519 C 466.058 197.057, 462.646 198.267, 472.120 208.699 C 479.823 217.183, 488.350 227.765, 489.931 230.806 C 490.722 232.326, 490.893 235.011, 490.433 238.692 L 489.736 244.272 488.485 240.634 C 486.958 236.192, 483.461 231.460, 475.638 223.250 C 464.068 211.107, 463.855 216.946, 475.250 233.883 C 488.174 253.091, 487.257 251.084, 486.468 258.451 L 485.774 264.938 483.413 260.219 C 480.345 254.085, 466.953 240, 464.190 240 C 459.789 240, 460.716 242.104, 471.898 257.500 C 474.694 261.350, 477.688 265.768, 478.552 267.318 C 480.050 270.007, 480.035 270.089, 478.228 269.122 C 477.187 268.565, 475.810 267.476, 475.168 266.703 C 473.385 264.554, 460.128 258.737, 458.466 259.375 C 456.522 260.121, 456.611 261.625, 458.694 263.211 C 461.240 265.149, 472.711 276.937, 476.584 281.596 C 479.970 285.669, 482.198 292, 480.246 292 C 479.694 292, 478.646 290.560, 477.917 288.801 C 476.356 285.030, 462.605 271, 460.472 271 C 457.815 271, 458.657 272.643, 467.905 285.500 C 475.423 295.951, 476.373 297.898, 475.169 300.386 C 474.607 301.549, 473.980 303.124, 473.778 303.886 C 473.575 304.649, 471.881 302.751, 470.014 299.670 C 468.146 296.589, 466.029 293.841, 465.309 293.565 C 462.773 292.592, 464.030 296.441, 468.372 302.948 C 470.776 306.552, 473.058 310.625, 473.443 312 C 473.868 313.519, 473.065 312.735, 471.396 310 C 467.344 303.361, 461.954 297, 460.380 297 C 458.658 297, 458.654 297.504, 460.354 300.285 C 461.098 301.503, 463.169 305.200, 464.957 308.500 L 468.206 314.500 462.353 308.911 C 455.954 302.801, 451.185 299, 449.917 299 C 448.274 299, 451.167 304.718, 455.455 309.945 C 457.879 312.901, 460.148 316.485, 460.495 317.910 C 460.842 319.334, 462.927 324.429, 465.128 329.232 C 467.733 334.917, 469.020 339.047, 468.815 341.068 C 468.519 343.984, 468.107 343.562, 462 334.089 C 458.425 328.543, 455.163 324.004, 454.750 324.003 C 452.606 323.995, 454.686 330.298, 460.621 341.794 C 466.347 352.884, 467.144 355.068, 466.513 357.941 L 465.783 361.263 464.229 358.054 C 461.879 353.201, 447.810 338.690, 446.893 340.174 C 445.897 341.785, 448.377 347.608, 451.971 352.099 C 460.209 362.392, 464.996 369.284, 464.961 370.803 C 464.921 372.549, 457.123 364.585, 450.742 356.281 C 448.959 353.960, 447.113 352.048, 446.641 352.031 C 445.707 351.997, 446.239 357.451, 447.438 360.206 C 448.095 361.717, 447.800 361.803, 444.847 360.956 C 440.791 359.793, 441 359.794, 441 360.938 C 441 361.454, 443.674 363.591, 446.943 365.688 C 450.506 367.973, 453.735 371.001, 455.006 373.248 C 456.172 375.309, 458.229 378.307, 459.577 379.909 C 460.924 381.511, 462.735 384.549, 463.601 386.661 L 465.175 390.500 459.837 385.443 C 453.129 379.087, 443.407 371, 442.474 371 C 442.085 371, 441.972 372.072, 442.222 373.382 C 442.669 375.717, 442.613 375.736, 439.339 374.368 C 437.502 373.601, 436 373.220, 436 373.522 C 436 375.230, 439.723 379.177, 444.810 382.862 C 450.439 386.941, 458.751 395.675, 462.274 401.215 C 463.223 402.708, 463.963 405.408, 463.919 407.215 L 463.838 410.500 462.628 407.773 C 460.940 403.968, 456.456 399.443, 450 395.032 C 445.004 391.618, 432.818 385, 431.529 385 C 429.416 385, 432.364 388.770, 440.750 396.793 C 449.411 405.078, 450.030 405.890, 446.290 404.060 C 441.023 401.483, 440 401.480, 440 404.040 C 440 407.131, 443.659 413.692, 449.891 421.777 C 458.880 433.438, 460.002 435.177, 459.970 437.398 C 459.940 439.473, 459.925 439.474, 458.833 437.500 C 456.797 433.818, 453.551 430.805, 446.500 426.049 C 439.710 421.469, 435 419.383, 435 420.955 C 435 421.378, 440.400 427.101, 447 433.674 L 459 445.625 458.999 451.063 L 458.998 456.500 456.831 452.121 C 453.546 445.484, 435.813 432.854, 433.303 435.364 C 432.971 435.696, 437.689 441.118, 443.788 447.413 C 456.097 460.120, 457.451 462.177, 458.473 469.722 L 459.180 474.945 455.340 471.151 C 452.670 468.514, 448.082 465.933, 440.281 462.679 C 429.216 458.064, 425 457.047, 425 458.994 C 425 460.507, 432.415 465.555, 442.263 470.748 C 457.140 478.592, 466.773 491.421, 452.373 484.213 C 447.692 481.870, 444.748 481.168, 437.868 480.755 C 430.281 480.299, 425.595 480.982, 427.029 482.336 C 428.115 483.361, 437.280 486.001, 439.785 486.010 C 442.851 486.021, 452.369 490.170, 453.490 491.984 C 454.849 494.182, 452.425 495.295, 448.842 494.119 C 447.004 493.516, 443.299 492.905, 440.608 492.762 C 433.475 492.380, 433.517 494.514, 440.683 496.592 C 448.008 498.716, 459.668 504.345, 462.805 507.270 C 464.119 508.497, 466.046 511.160, 467.087 513.190 L 468.979 516.880 463.677 514.452 C 460.761 513.117, 456.940 511.738, 455.187 511.387 C 452.189 510.788, 452.003 510.920, 452.048 513.625 C 452.092 516.259, 452.943 516.920, 462.195 521.500 C 471.013 525.865, 472.621 527.064, 474.862 530.942 C 476.358 533.530, 476.818 534.991, 475.965 534.442 C 475.159 533.924, 466.737 533.275, 457.248 533 C 443.496 532.601, 439.997 532.764, 439.998 533.801 C 440.002 536.237, 447.138 538.092, 462.332 539.609 C 480.262 541.398, 485.860 542.775, 476 542.972 C 466.754 543.156, 448.618 548.027, 448.152 550.451 C 447.820 552.172, 448.374 552.254, 456.148 551.636 C 479.632 549.768, 487.501 549.691, 490.607 551.297 C 492.278 552.161, 494.230 553.573, 494.945 554.434 C 496.087 555.809, 495.773 556.001, 492.372 556.011 C 487.360 556.025, 480.222 558.215, 475.357 561.231 C 473.236 562.547, 469.925 564.230, 468 564.972 C 463.104 566.858, 462.475 567.648, 464.852 568.921 C 466.310 569.701, 468.250 569.728, 471.438 569.014 C 475.473 568.110, 476.542 568.287, 481.408 570.674 C 487.065 573.448, 489.544 577, 485.823 577 C 484.729 577, 483.983 577.346, 484.167 577.769 C 484.878 579.411, 494.833 587.849, 501.500 592.462 C 518.764 604.405, 521.137 606.730, 522.486 613.015 L 523.234 616.500 521.059 613.769 C 516.256 607.736, 493.443 589.608, 491.875 590.577 C 490.388 591.496, 490.882 592.796, 494.115 596.478 C 495.847 598.451, 496.513 599.750, 495.615 599.406 C 491.914 597.985, 494.262 602.957, 499.724 608.105 C 503.111 611.297, 505.334 614.197, 505.169 615.207 C 505.015 616.146, 505.831 617.496, 506.982 618.207 C 508.254 618.993, 509.670 621.658, 510.590 625 C 511.423 628.025, 513.222 633.681, 514.588 637.568 C 516.322 642.505, 516.818 645.318, 516.234 646.897 C 515.450 649.017, 515.207 648.852, 512.349 644.255 C 508.350 637.822, 497.099 623.975, 495.314 623.290 C 494.544 622.995, 493.687 622.979, 493.410 623.256 C 492.858 623.809, 504.889 648.272, 508.634 654.209 C 510.564 657.269, 510.862 658.727, 510.339 662.540 L 509.706 667.163 507.841 664.218 C 506.816 662.599, 503.321 659.410, 500.074 657.133 C 496.828 654.856, 493.037 651.644, 491.650 649.996 C 490.264 648.348, 488.511 647, 487.756 647 C 487 647, 485.509 646.339, 484.441 645.532 C 479.304 641.646, 479.883 645.864, 485.376 652.341 C 487.783 655.178, 491.357 660.993, 493.317 665.262 C 495.277 669.531, 497.752 674.256, 498.816 675.762 C 502.811 681.414, 505.272 688.736, 504.519 692.731 L 503.809 696.500 501.927 692.840 C 500.892 690.827, 499.016 688.352, 497.758 687.340 C 494.108 684.403, 487.405 675.877, 485.050 671.176 C 483.218 667.520, 482.651 667.045, 481.378 668.102 C 480.396 668.916, 480.080 670.248, 480.471 671.926 C 481.599 676.762, 485.309 685.496, 487.512 688.500 C 488.722 690.150, 490.002 692.513, 490.356 693.750 C 490.710 694.987, 491.246 696.870, 491.546 697.933 C 492.444 701.111, 479.038 691.692, 475.240 686.477 C 471.863 681.839, 469.393 680.571, 470.270 683.925 C 470.623 685.276, 470.360 685.692, 469.387 685.318 C 466.924 684.373, 467.862 688.258, 470.869 691.452 C 474.606 695.423, 481.791 708.425, 479.913 707.819 C 479.136 707.569, 476.099 704.019, 473.164 699.932 C 470.229 695.844, 467.192 692.355, 466.414 692.177 C 464.715 691.788, 464.557 694.705, 466.062 698.664 C 466.838 700.705, 466.816 701.561, 465.981 701.840 C 465.305 702.065, 465.907 703.337, 467.455 704.953 C 469.763 707.362, 474.723 718, 473.538 718 C 473.289 718, 471.898 715.975, 470.447 713.500 C 465.245 704.623, 462.806 710.136, 467.677 719.763 C 469.150 722.673, 471.863 726.816, 473.707 728.970 C 479.158 735.339, 482.011 742.739, 482.592 752.019 C 483.135 760.689, 482.112 761.922, 479.923 755.236 C 479.250 753.181, 477.267 748.350, 475.515 744.500 C 471.157 734.921, 466.756 731.421, 468.752 739.121 C 469.266 741.105, 469.220 744.197, 468.638 746.738 C 467.955 749.725, 468.018 752.565, 468.847 756.157 C 470.214 762.079, 469.811 763.044, 467.025 760.523 C 465.398 759.050, 464.762 758.953, 463.519 759.984 C 461.279 761.843, 461.618 763.024, 465.544 767.045 C 468.855 770.436, 469.149 771.269, 470.023 779.718 C 470.538 784.692, 471.448 790.047, 472.045 791.617 C 472.673 793.270, 473.003 799.374, 472.827 806.110 C 472.526 817.707, 472.518 817.737, 470.762 814.850 C 469.793 813.256, 469 811.582, 469 811.131 C 469 810.679, 468.174 809.562, 467.164 808.648 C 465.433 807.082, 465.257 807.141, 464.103 809.674 C 462.995 812.106, 463.335 813.270, 467.675 821.899 C 472.227 830.951, 472.498 831.946, 472.986 841.451 C 473.774 856.795, 472.276 878.071, 469.786 886.904 C 468.609 891.082, 467.449 896.745, 467.210 899.490 C 466.919 902.824, 465.983 905.420, 464.387 907.316 C 462.014 910.136, 461.078 916, 463 916 C 463.550 916, 464.010 914.987, 464.022 913.750 C 464.034 912.513, 464.852 910.450, 465.839 909.167 L 467.634 906.834 468.852 910.899 C 469.879 914.327, 469.820 915.448, 468.476 918.046 C 466.443 921.977, 466.870 927.364, 469.250 927.815 C 470.495 928.051, 471.021 927.476, 471.074 925.823 C 471.134 923.954, 471.489 924.271, 472.892 927.450 C 473.865 929.654, 474.931 930.920, 475.306 930.315 C 476.009 929.176, 474.375 923.353, 472.776 921.302 C 472.196 920.558, 472.206 919.455, 472.802 918.389 C 473.666 916.845, 473.832 916.895, 474.466 918.892 C 475.706 922.799, 477.500 920.591, 477.500 915.158 C 477.500 909.723, 477.963 909.046, 480.001 911.502 C 480.804 912.469, 481.085 914.959, 480.791 918.502 C 480.448 922.643, 480.664 924, 481.668 924 C 482.473 924, 483.060 922.715, 483.151 920.750 C 483.586 911.370, 481.928 908.373, 476 907.824 C 474.075 907.646, 472.169 907.050, 471.765 906.500 C 470.346 904.568, 471.066 897.417, 473.523 889.044 C 474.888 884.394, 475.741 879.759, 475.419 878.746 C 475.098 877.733, 475.359 876.272, 476 875.500 C 476.641 874.728, 476.863 873.143, 476.493 871.978 C 475.978 870.356, 476.310 869.732, 477.910 869.313 C 480.407 868.660, 480.552 867.703, 478.422 865.936 C 477.099 864.837, 476.913 862.684, 477.270 852.563 C 477.504 845.928, 478.042 839.488, 478.465 838.250 C 479.053 836.528, 478.854 836, 477.617 836 C 475.559 836, 475.468 829.239, 477.449 823.682 C 478.546 820.607, 478.570 819.399, 477.570 817.472 C 476.827 816.040, 476.465 812.458, 476.668 808.546 C 476.960 802.895, 477.512 801.294, 480.753 796.695 C 482.814 793.770, 487.273 788.930, 490.661 785.939 C 497.395 779.995, 499.102 776.258, 494.250 778.085 C 491.751 779.026, 491.888 778.724, 495.750 774.772 C 498.159 772.308, 500 769.466, 500 768.212 C 500 766.995, 499.703 766, 499.340 766 C 498.978 766, 494.703 768.725, 489.840 772.055 C 484.978 775.385, 481 777.735, 481 777.277 C 481 774.779, 485.045 771.850, 496.384 766.138 C 512.894 757.820, 513.192 755.777, 497.261 760.112 C 492.993 761.274, 488.927 762.688, 488.226 763.255 C 487.525 763.821, 486.698 764.032, 486.389 763.722 C 485.185 762.518, 490.997 759.984, 502.237 756.812 C 508.693 754.991, 513.981 753.100, 513.987 752.611 C 513.994 752.120, 509.960 751.953, 504.971 752.237 L 495.941 752.752 500.786 750.508 C 503.451 749.273, 507.234 746.855, 509.194 745.134 C 511.155 743.413, 514.271 741.369, 516.121 740.591 L 519.483 739.177 516.771 737.942 C 513.504 736.453, 509.436 737.795, 497.153 744.417 C 491.668 747.375, 489.346 748.217, 489.734 747.111 C 490.900 743.781, 494.443 741.036, 500.869 738.483 C 509.111 735.209, 516 731.266, 516 729.822 C 516 728.003, 507.996 729.637, 500.556 732.975 C 496.796 734.662, 494.172 735.470, 494.724 734.771 C 495.276 734.072, 495.714 732.034, 495.697 730.242 C 495.655 725.703, 498.997 722.535, 506.724 719.792 C 510.518 718.445, 513.605 716.676, 514.214 715.500 C 514.784 714.400, 516.170 712.489, 517.296 711.254 C 518.421 710.019, 519.057 708.723, 518.709 708.376 C 517.731 707.398, 508.969 709.873, 504.381 712.423 C 500.696 714.472, 500.312 714.524, 500.731 712.921 C 500.989 711.936, 501.973 710.429, 502.919 709.573 C 504.737 707.928, 513.116 706, 518.448 706 C 520.808 706, 522.186 705.239, 523.812 703.040 C 527.428 698.149, 526.875 697.692, 517.967 698.208 C 511.760 698.567, 509.259 699.172, 506.967 700.866 C 503.460 703.459, 503.064 702.178, 506.250 698.546 C 509.013 695.396, 529.998 686.140, 534.595 686.044 C 537.589 685.981, 540.609 682.439, 539.159 680.691 C 538.292 679.647, 538.709 678.852, 541.021 677.143 C 543.636 675.209, 545.204 671, 543.308 671 C 542.928 671, 539.570 672.810, 535.846 675.022 C 532.091 677.253, 525.810 679.860, 521.744 680.876 C 517.712 681.884, 513.308 683.298, 511.957 684.018 C 509.668 685.238, 509.599 685.208, 510.947 683.574 C 511.743 682.610, 516.794 679.612, 522.173 676.913 C 532.796 671.583, 542.196 665.912, 545.750 662.691 C 548.488 660.209, 548.820 657.440, 546.250 658.524 C 545.288 658.929, 540.675 660.714, 536 662.490 C 531.325 664.266, 524.308 667.245, 520.406 669.110 C 514.788 671.794, 513.403 672.154, 513.750 670.836 C 514.619 667.538, 518.706 665.036, 529.012 661.492 C 534.780 659.508, 540.746 656.991, 542.268 655.899 C 543.790 654.807, 547.053 653.049, 549.518 651.992 C 551.983 650.936, 554 649.459, 554 648.711 C 554 647.631, 551.884 647.846, 543.750 649.751 C 538.112 651.071, 530.688 652.965, 527.250 653.959 C 523.813 654.953, 521 655.584, 521 655.361 C 521 655.138, 523.138 653.598, 525.750 651.938 C 532.817 647.447, 540.140 645.587, 549.660 645.862 C 554.633 646.006, 558.079 645.681, 558.482 645.028 C 559.429 643.496, 552.870 641.006, 547.782 640.967 L 543.500 640.933 546 638.891 C 551.989 633.997, 553 632.928, 553 631.486 C 553 630.191, 552.418 630.256, 549.169 631.914 C 540.903 636.131, 525 642.844, 525 642.117 C 525 641.694, 528.162 638.908, 532.026 635.924 C 549.007 622.815, 552.501 619.882, 553.914 617.554 C 554.739 616.194, 555.116 614.782, 554.751 614.417 C 554.055 613.722, 538.552 622.637, 531.250 627.931 C 524.409 632.891, 525.935 628.885, 534.090 620.475 C 540.621 613.740, 541.587 613.108, 546.340 612.463 C 553.518 611.489, 561.234 608.444, 564.010 605.490 C 566.056 603.312, 566.126 603, 564.569 603 C 563.590 603, 560.094 603.698, 556.800 604.552 C 553.506 605.405, 550.421 605.968, 549.945 605.802 C 549.468 605.636, 550.410 603.520, 552.039 601.100 C 553.668 598.679, 555 596.317, 555 595.850 C 555 593.928, 551.875 595.247, 546.947 599.250 C 538.376 606.212, 537.622 606.702, 534.676 607.238 C 532.220 607.684, 532.765 606.917, 538.854 601.360 C 545.747 595.069, 550.803 588.470, 549.629 587.296 C 548.154 585.821, 529.806 599.630, 526.893 604.407 L 525.007 607.500 525.004 604.775 C 525.001 602.850, 528.154 597.909, 535.750 587.934 C 551.300 567.516, 555.650 560, 551.919 560 C 550.434 560, 530.141 581.258, 526.754 586.362 C 525.244 588.638, 523.989 591.400, 523.965 592.500 C 523.884 596.224, 521 587.975, 521 584.020 C 521 578.725, 528.242 569.749, 541.493 558.619 C 548.153 553.025, 551.623 549.282, 550.852 548.525 C 549.164 546.866, 529.478 558.816, 523.159 565.336 C 521.349 567.203, 519.275 570.704, 518.550 573.115 L 517.231 577.500 516.522 573.843 C 515.884 570.556, 516.680 568.512, 524.406 553.595 C 529.604 543.560, 533 535.817, 533 534.001 C 533 530.190, 531.910 530.190, 529.659 534 C 528.684 535.650, 527.461 537, 526.941 537 C 523.796 537, 511 554.875, 511 559.268 C 511 560.954, 510.773 562.107, 510.497 561.830 C 509.749 561.083, 506.346 544.405, 505.531 537.500 C 504.780 531.130, 502.232 519.185, 501.305 517.684 C 501 517.190, 500.363 517.397, 499.890 518.143 C 499.262 519.134, 499.026 518.893, 499.015 517.250 C 499.007 516.013, 498.434 515, 497.743 515 C 496.866 515, 496.594 513.637, 496.843 510.500 C 497.040 508.025, 496.819 506.001, 496.351 506.002 C 495.319 506.004, 490.786 513.274, 489.045 517.717 C 487.123 522.622, 485.686 523.359, 483.200 520.713 C 481.162 518.544, 481.134 518.208, 482.502 512.476 C 484.359 504.696, 484.437 494.608, 482.651 493.126 C 481.557 492.218, 480.761 493.986, 478.428 502.503 C 476.847 508.276, 475.204 513, 474.777 513 C 473.642 513, 473.612 513.121, 478.458 498.214 C 480.910 490.671, 483.234 483.163, 483.622 481.528 L 484.328 478.557 481.091 482.244 C 477.734 486.067, 470.813 498.663, 469.710 502.956 C 469.363 504.307, 468.808 505.141, 468.476 504.809 C 466.786 503.120, 468.258 497.246, 473.361 485.310 C 476.462 478.056, 479 471.670, 479 471.120 C 479 470.569, 481.264 468.210, 484.032 465.876 C 486.799 463.543, 489.949 460.200, 491.032 458.449 C 495.015 452.004, 493.812 452.359, 479.244 461.920 C 469.556 468.280, 466.643 470.753, 464.467 474.466 C 461.391 479.715, 460.250 479.803, 461.947 474.660 C 463.118 471.114, 467.718 466.486, 479.127 457.377 C 485.746 452.093, 491.509 443.592, 490.747 440.235 C 490.434 438.856, 489.445 439.439, 485.927 443.075 C 483.492 445.591, 478.575 449.707, 475 452.223 C 468.356 456.898, 464.127 460.943, 462.164 464.500 C 461.095 466.438, 461.060 466.440, 461.030 464.566 C 460.956 459.815, 465.123 454.226, 473.768 447.485 C 484.229 439.326, 494 430.052, 494 428.281 C 494 425.904, 491.164 426.976, 483.004 432.438 L 474.880 437.876 478.644 433.688 C 480.714 431.385, 485.631 427.700, 489.571 425.500 C 499.283 420.077, 502.471 417.571, 501.551 416.083 C 501.135 415.410, 500.059 415.165, 499.149 415.536 C 498.242 415.906, 496.320 416.564, 494.877 416.998 C 492.331 417.764, 492.285 417.704, 493.332 414.932 C 495.152 410.110, 493.194 410.380, 487.725 415.706 C 482.951 420.356, 475.613 425, 473.040 425 C 472.468 425, 472 424.063, 472 422.917 C 472 419.777, 469.555 421.180, 469.163 424.545 C 468.977 426.134, 467.485 428.962, 465.847 430.827 L 462.868 434.220 463.561 430.360 C 464.708 423.966, 466.743 420.048, 469.452 419.018 C 470.853 418.486, 472 417.641, 472 417.142 C 472 416.643, 474.813 414.385, 478.250 412.125 C 486.190 406.903, 496 397.797, 496 395.648 C 496 393.485, 495.938 393.499, 489.908 397.054 C 487.059 398.734, 482.108 401.431, 478.907 403.047 C 475.706 404.663, 471.384 407.451, 469.302 409.243 C 466.173 411.936, 465.786 412.083, 467.069 410.092 C 467.923 408.768, 475.024 404.010, 482.849 399.518 C 503.612 387.600, 505.298 385.203, 489.868 389.531 C 480.360 392.199, 471.926 395.874, 468.750 398.734 C 467.152 400.173, 467 400.163, 467 398.623 C 467 394.655, 470.405 389.895, 479.966 380.500 C 489.264 371.362, 493.864 365.531, 492.695 364.362 C 491.227 362.894, 471.805 376.709, 468.838 381.330 C 467.014 384.171, 466.864 384.241, 467.388 382 C 467.710 380.625, 467.985 378.825, 468 378 C 468.015 377.175, 470.519 373.575, 473.563 370 C 481.960 360.139, 490.265 345, 487.277 345 C 486.879 345, 483.645 347.812, 480.091 351.250 C 475.369 355.816, 474.351 356.508, 476.314 353.817 C 477.791 351.791, 479 349.694, 479 349.157 C 479 346.952, 487.455 337.701, 492.059 334.868 C 494.777 333.196, 497 331.417, 497 330.914 C 497 330.411, 497.675 330, 498.500 330 C 499.325 330, 500 329.566, 500 329.035 C 500 327.462, 496.391 326, 492.507 326 C 487.534 326, 488.784 324.673, 496.229 322.050 C 509.925 317.224, 512.647 314.979, 504.750 315.024 C 495.630 315.077, 486.111 318.645, 479.114 324.635 C 474.750 328.370, 473.690 327.935, 476.976 323.758 C 479.367 320.718, 493.333 314.816, 508.216 310.556 C 517.941 307.772, 516.998 304.896, 506.614 305.670 C 496.405 306.432, 490.795 308.038, 484.250 312.074 C 480.813 314.193, 478.008 315.381, 478.017 314.714 C 478.037 313.262, 485.518 305.315, 489.515 302.500 C 491.077 301.400, 494.118 299.038, 496.272 297.250 C 498.426 295.462, 500.640 294, 501.190 294 C 502.655 294, 508 290.022, 508 288.932 C 508 287.311, 505.390 287.902, 497.079 291.407 C 485.730 296.194, 486.686 293.933, 499.490 285.706 C 505.081 282.114, 506.292 279.571, 502.841 278.669 C 500.502 278.057, 497.070 280.160, 491.867 285.391 L 489.234 288.038 490.228 283.269 C 491.432 277.495, 492.757 275.893, 499.451 272.114 C 506.725 268.009, 520 257.268, 520 255.488 C 520 253.054, 518.030 253.682, 504.157 260.534 C 493.918 265.592, 490.486 267.795, 488.968 270.284 C 486.713 273.984, 486.359 272.471, 488.359 267.682 C 490.484 262.598, 504.666 256.131, 522.750 252 C 526.013 251.254, 528 250.271, 528 249.400 C 528 247.811, 525.258 247.526, 514 247.946 L 506.500 248.226 515.250 241.510 C 520.814 237.239, 524 234.103, 524 232.897 C 524 231.854, 523.609 231, 523.130 231 C 520.692 231, 499.682 242.528, 495.647 246.079 C 492.758 248.622, 491.245 249.477, 491.653 248.337 C 492.720 245.355, 494.047 244.051, 502.481 237.696 C 514.946 228.305, 525 219.034, 525 216.932 C 525 215.249, 524.700 215.173, 522.250 216.236 C 520.737 216.892, 517.821 218.458, 515.770 219.715 C 510.963 222.660, 510.629 222.603, 511.356 218.971 C 511.748 217.011, 514.440 213.497, 518.981 209.019 C 525.828 202.266, 527.605 199, 524.430 199 C 523.567 199, 520.924 200.332, 518.557 201.961 C 516.191 203.589, 513.972 204.639, 513.627 204.294 C 513.282 203.949, 511.261 205.429, 509.135 207.583 C 507.009 209.738, 503.597 212.985, 501.552 214.800 C 498.187 217.786, 497.900 217.881, 498.528 215.800 C 500.234 210.150, 502.404 207.218, 507.775 203.307 C 510.942 201.001, 516.226 196.684, 519.517 193.715 C 522.808 190.745, 526.540 187.764, 527.811 187.090 C 529.082 186.416, 529.925 185.333, 529.686 184.682 C 529.446 184.032, 530.398 182.267, 531.802 180.760 C 533.206 179.254, 534.052 177.719, 533.683 177.349 C 532.900 176.567, 520.785 181.204, 513.407 185.109 L 508.315 187.805 510.084 184.335 C 511.772 181.025, 519.352 174.132, 530.750 165.545 C 533.638 163.369, 536 161.237, 536 160.807 C 536 160.377, 537.688 158.895, 539.750 157.515 C 541.813 156.134, 545.188 153.872, 547.250 152.488 C 549.313 151.103, 551 149.574, 551 149.089 C 551 148.029, 531.151 152.216, 525.500 154.469 C 523.300 155.345, 520.263 156.749, 518.750 157.588 C 516.815 158.661, 516 158.761, 516 157.925 C 516 155.652, 522.703 150.437, 531.905 145.550 C 536.997 142.846, 543.262 139.141, 545.828 137.317 L 550.494 134 547.222 134 C 545.422 134, 541.517 134.855, 538.544 135.900 L 533.138 137.800 533.900 135.650 C 534.358 134.358, 537.668 131.903, 542.190 129.500 C 552.218 124.172, 555.588 121.414, 554.165 119.699 C 552.702 117.935, 556.963 115.474, 563 114.596 C 570.851 113.454, 570.819 112.450, 562.852 109.948 C 558.808 108.679, 553.341 107.608, 550.703 107.570 L 545.905 107.500 548.703 105.255 C 550.241 104.020, 552.175 102.994, 553 102.974 C 561.345 102.773, 567.570 101.750, 570.960 100.021 C 575.506 97.701, 576.454 95.418, 572.454 96.422 C 568.321 97.460, 567.577 96.051, 570.595 92.901 C 573.875 89.477, 573.299 88.283, 569.343 90.306 C 567.779 91.105, 564.995 92.083, 563.155 92.480 L 559.811 93.201 563.440 89.850 C 565.861 87.615, 567.260 85.300, 567.642 82.895 C 568.146 79.721, 567.933 79.214, 565.857 78.658 C 560.966 77.349, 559.416 77.905, 557.653 81.602 C 556.696 83.608, 554.957 85.460, 553.729 85.781 C 552.515 86.099, 549.211 87.574, 546.386 89.060 C 541.732 91.508, 541.296 91.582, 541.749 89.851 C 542.024 88.799, 544.149 85.815, 546.471 83.220 C 552.679 76.279, 553.558 74.274, 551.425 71.917 C 549.452 69.737, 545.727 69.391, 544.257 71.250 M 545.737 96.929 C 540.977 100.146, 538.385 102.704, 536.987 105.566 C 533.110 113.499, 534.400 113.823, 542.263 106.891 C 547.247 102.499, 553.976 93.454, 552.871 92.634 C 552.667 92.482, 549.457 94.415, 545.737 96.929 M 538.669 114.250 C 537.238 115.294, 537.864 115.444, 542.478 115.157 C 545.515 114.969, 548 114.407, 548 113.907 C 548 112.545, 540.635 112.816, 538.669 114.250 M 524.861 137.914 C 523.562 138.967, 522.808 140.137, 523.183 140.514 C 524.098 141.433, 525.756 140.325, 527.030 137.944 C 528.337 135.501, 527.845 135.494, 524.861 137.914 M 515.443 168.418 C 514.376 169.198, 513.768 170.101, 514.091 170.424 C 514.414 170.748, 515.496 170.110, 516.494 169.006 C 518.619 166.659, 518.183 166.415, 515.443 168.418 M 486 197 C 487.742 199.200, 489.393 201, 489.668 201 C 489.943 201, 488.742 199.200, 487 197 C 485.258 194.800, 483.607 193, 483.332 193 C 483.057 193, 484.258 194.800, 486 197 M 494.080 208 C 495.538 211.061, 496 211.628, 496 210.358 C 496 209.821, 495.300 208.509, 494.445 207.441 C 492.978 205.611, 492.958 205.643, 494.080 208 M 499.750 225.288 C 494.827 229.505, 494.961 230.563, 500 227.264 C 502.200 225.823, 504 224.050, 504 223.322 C 504 221.604, 504.109 221.554, 499.750 225.288 M 476.964 276.836 C 477.623 278.120, 478.436 278.897, 478.771 278.562 C 479.107 278.227, 478.568 277.176, 477.574 276.226 C 475.846 274.576, 475.819 274.603, 476.964 276.836 M 481.731 284.080 C 482.085 285.432, 482.538 285.886, 482.788 285.137 C 483.028 284.415, 482.750 283.350, 482.168 282.768 C 481.426 282.026, 481.296 282.417, 481.731 284.080 M 476.729 303.604 C 476.328 304.005, 476.014 305.271, 476.030 306.417 C 476.058 308.340, 476.141 308.363, 477.101 306.712 C 478.220 304.790, 477.934 302.400, 476.729 303.604 M 468.810 326.500 C 469.316 327.600, 469.980 329.175, 470.286 330 C 470.766 331.296, 470.853 331.288, 470.921 329.941 C 470.964 329.084, 470.300 327.509, 469.445 326.441 C 467.915 324.531, 467.904 324.532, 468.810 326.500 M 467.093 480.869 C 464.143 485.012, 463.024 488.426, 464.073 490.083 C 464.833 491.285, 464.973 491.272, 464.994 490 C 465.008 489.175, 466.119 486.137, 467.464 483.250 C 470.211 477.349, 470.101 476.645, 467.093 480.869 M 473.158 518 C 473.158 519.375, 473.385 519.938, 473.662 519.250 C 473.940 518.563, 473.940 517.438, 473.662 516.750 C 473.385 516.063, 473.158 516.625, 473.158 518 M 492.649 523.368 C 490.198 529.788, 489.988 531.105, 491.092 533.144 C 492.267 535.314, 492.510 534.791, 494.167 526.500 C 495.157 521.550, 495.857 517.151, 495.724 516.724 C 495.591 516.297, 494.207 519.286, 492.649 523.368 M 479.660 526.673 C 478.667 527.667, 478.864 530.535, 480.143 533.685 L 481.286 536.500 482.058 533.048 C 482.820 529.643, 481.144 525.189, 479.660 526.673 M 498 546.973 C 498 549.581, 500.434 555.532, 501.862 556.415 C 502.453 556.780, 502.275 555.509, 501.464 553.569 C 500.659 551.641, 500 549.176, 500 548.091 C 500 547.006, 499.550 545.840, 499 545.500 C 498.450 545.160, 498 545.823, 498 546.973 M 488.703 563.719 C 482.060 565.460, 482.106 566.467, 488.834 566.575 C 494.317 566.662, 504.142 568.645, 508.750 570.593 C 512.925 572.359, 512.850 571.353, 508.422 566.180 C 505.044 562.234, 504.555 562.006, 499.672 562.099 C 496.827 562.154, 491.891 562.883, 488.703 563.719 M 516.946 594.367 C 518.842 596.365, 520.545 598, 520.731 598 C 521.864 598, 518.622 593.991, 516.291 592.508 C 513.732 590.882, 513.787 591.036, 516.946 594.367 M 508.079 677.583 C 508.127 678.748, 508.364 678.985, 508.683 678.188 C 508.972 677.466, 508.936 676.603, 508.604 676.271 C 508.272 675.939, 508.036 676.529, 508.079 677.583 M 495.158 718 C 495.158 719.375, 495.385 719.938, 495.662 719.250 C 495.940 718.563, 495.940 717.438, 495.662 716.750 C 495.385 716.063, 495.158 716.625, 495.158 718 M 490.086 727 C 490.116 727.825, 490.527 729.400, 491 730.500 L 491.859 732.500 491.914 730.500 C 491.945 729.400, 491.533 727.825, 491 727 C 490.138 725.667, 490.037 725.667, 490.086 727 M 486 734.642 C 486 735.179, 486.700 736.491, 487.555 737.559 C 489.022 739.389, 489.042 739.357, 487.920 737 C 486.462 733.939, 486 733.372, 486 734.642" stroke="none" fill="black" fill-rule="evenodd"/>
</svg>