<svg xmlns="http://www.w3.org/2000/svg" width="100" height="127" viewBox="0 0 100 127" version="1.1">
	<path d="M 82.655 2.829 C 81.745 3.835, 81 5.145, 81 5.740 C 81 7.380, 75.928 11.309, 68.326 15.558 C 56.344 22.256, 47 33.536, 47 41.300 C 47 46.047, 52.487 56.507, 56.636 59.672 C 58.543 61.126, 63.697 63.765, 68.090 65.536 L 76.078 68.757 72.987 71.357 C 67.856 75.675, 56.030 80.691, 41.886 84.549 C 21.444 90.125, 16.938 91.714, 10.104 95.757 C 2.587 100.204, 0.565 103.445, 1.290 109.883 C 2.266 118.543, 9.684 121.769, 30.784 122.710 C 38.091 123.036, 44.305 123.684, 44.593 124.151 C 45.338 125.356, 55.115 125.204, 58.767 123.931 C 61.180 123.090, 62.480 123.197, 64.867 124.431 C 70.993 127.599, 71.905 125.239, 66.558 120.056 C 64.044 117.619, 61.779 116.508, 58.159 115.936 C 55.432 115.505, 51.365 113.993, 49.121 112.576 C 44.450 109.628, 40.838 109.285, 38.911 111.607 C 37.461 113.355, 32.321 113.075, 24.871 110.843 C 17.728 108.703, 19.191 108.055, 37 105.474 C 61.710 101.893, 74.893 96.809, 87.054 86.172 C 93.618 80.430, 95.949 75.461, 95.978 67.154 C 96.014 56.681, 93.151 53.887, 75.416 47.084 C 66.885 43.811, 62.588 40.392, 63.169 37.339 C 63.729 34.398, 72.186 29.436, 82.487 26.004 C 91.384 23.040, 92.173 22.554, 94.400 18.665 C 98.424 11.636, 99.581 7.406, 98.001 5.502 C 97.166 4.495, 95.813 4.081, 94.465 4.420 C 93.036 4.778, 91.660 4.282, 90.485 2.984 C 88.240 0.503, 84.821 0.435, 82.655 2.829" stroke="none" fill="black" fill-rule="evenodd"/>
</svg>