<?xml version="1.0" encoding="UTF-8" standalone="no"?>
<!-- Created with Inkscape (http://www.inkscape.org/) -->

<svg
   xmlns:svg="http://www.w3.org/2000/svg"
   xmlns="http://www.w3.org/2000/svg"
   version="1.1"
   width="100%"
   height="100%"
   viewBox="0 0 209.5 270.5"
   id="Layer_1"
   xml:space="preserve"><defs
   id="defs7" />
<path
   d="m 57.8,25.3 c -2.1,2 -4,4.1 -5.9,6.2 -0.8,0.8 -1.9,1.9 -2.2,3 -0.5,1.5 0,2.8 -0.7,4.3 -2.5,5.2 -7.7,7.4 -7.4,13.9 0.2,4.1 1.8,12 6.2,13.7 3.2,1.2 2.8,-3 2.8,-5.4 0,-2.6 -0.6,-5.2 -0.2,-7.8 0.8,-4.9 5.7,-10.1 9.7,-12.8 1.3,-0.8 2.2,-1.2 3.2,-2.4 1.4,-1.6 1.3,-2.5 3.5,-1.2 2.3,1.2 4,3.7 4.1,6.2 0.5,10.8 -11.2,19 -17.6,26.4 -4,4.6 -8.5,9 -9.3,15.4 -0.7,5.6 1,11.1 5,15.1 3.7,3.7 7.9,7.8 13.1,9 3.1,0.7 6.5,0.8 9.6,1.6 2.6,0.7 5.1,1.9 7.7,2.5 5.8,1.3 11.4,4.5 13.4,10.3 1.7,4.9 1.4,10.7 2.4,15.8 1.2,5.8 1.7,11.6 2.4,17.5 0.4,3 0.9,6.1 1.2,9.1 0.2,2.5 0,4.8 0.6,7.3 1.4,5.5 0.8,11.5 0.8,17.3 0,6 0.1,12.1 0,18.1 0,2.6 -0.2,5.1 -0.2,7.7 -0.1,1.9 0.6,7.3 -0.2,9 -1.7,3.6 -11.6,2.7 -14.9,2.9 -1.8,0.1 -6.7,0.9 -6.4,3.3 2.2,0.3 4.3,0.4 6.4,0.4 -0.2,0.4 0,1 -0.2,1.5 1.8,0 6.5,-0.3 5.3,2.6 3.4,-0.6 8.1,-1.1 11,-3.2 3.3,-2.4 2.9,-8.1 3,-11.7 0.3,-7.2 -0.1,-14.5 0,-21.7 0.1,-4.8 0.3,-9.6 0.4,-14.4 0.1,-3.7 -0.5,-8.1 0.4,-11.7 0.6,-2.7 1.4,-2.9 0.4,-5.7 -0.8,-2.1 -1.5,-3.9 -1.9,-6.2 -0.6,-3.8 -0.7,-7.8 -1,-11.7 -0.3,-4.1 -0.7,-8.1 -1,-12.2 -0.3,-5.1 -1.4,-10 0.6,-14.7 6,4.2 11.6,9.2 17.4,13.7 1.8,1.4 6.3,3.8 6.7,6.2 0.5,2.7 -5.3,4.8 -7.2,5.9 -6.2,3.7 -12.5,7 -18.9,10.2 -6,3 -12.6,7 -13.2,14.3 -0.6,7.1 -0.8,15.9 1.5,22.7 1.2,-2 1.2,-3.3 3.7,-2.9 0,-1.5 -0.5,-8.9 2.2,-8.4 -0.4,-2.5 -0.3,-4.4 0.1,-7 0.3,0.2 0.6,0.5 0.9,0.7 1.2,-4.2 -1.8,-8.6 2.4,-11.4 5.3,-3.6 11.6,-6.3 17.3,-9.4 4,-2.2 8.1,-4.2 12.2,-6.3 2,-1 4.1,-1.9 6,-3.1 2.8,-1.9 3.6,-3.2 1.4,-6 -2.8,-3.5 -7.2,-5.5 -10.7,-8.3 -2.7,-2.2 -5.4,-4.4 -8.2,-6.6 -1.7,-1.4 -5.2,-3.2 -6.4,-5.2 -3.3,-5.5 7,-5.8 9.6,-6.7 4.5,-1.5 8.3,-4.4 13,-5.3 6.3,-1.3 11.7,-1.9 18.1,-1.9 5.6,0.1 10.1,3.5 12.4,8.6 0.1,-1.2 0.3,-2.4 0.4,-3.7 0.5,0.4 1.2,0.5 1.7,0.9 0,-4 -0.5,-6.2 -2,-9.9 0.7,0.7 1.3,1.3 2,2 -3.1,-7.4 -7.2,-12.6 -12.3,-18.8 -2.9,-3.5 -5,-6.4 -8.8,-8.8 -3,-1.8 -5.9,-3.7 -9,-5.4 -3.8,-2.1 -7.6,-4.4 -11.5,-6.3 -3.4,-1.7 -7.5,-1.9 -11.3,-2.6 -7.8,-1.4 -15.7,-2 -23.7,-1.6 -3.6,0.2 -8,0.4 -11.3,1.5 -3.1,1.1 -6.3,4 -9,6 -3.1,2.3 -5.2,5.4 -7.4,8.5 -2.2,3.2 -2.1,6.5 -2.4,10.2 -0.1,1.6 0,3.9 -2.3,2.7 C 53.8,90.3 53,87.5 52.8,86 52.3,82 54.2,79.4 56.7,76.6 62,70.8 67.5,65.3 72.6,59.4 c 2.4,-2.8 4.5,-7 5.5,-10.6 1,-3.7 0.7,-10.2 -0.7,-13.7 -1.5,-3.9 -5.6,-6.1 -8.8,-8.5 -1.7,-1.3 -3,-2.3 -5.1,-2.8 -2.1,-0.2 -3.4,0.6 -5.7,1.5 z"
   id="path3" />
</svg>