<?xml version="1.0" encoding="utf-8"?>
<!-- Generator: Adobe Illustrator 26.0.3, SVG Export Plug-In . SVG Version: 6.00 Build 0)  -->
<svg version="1.1" id="Layer_1" xmlns:svg="http://www.w3.org/2000/svg"
	 xmlns="http://www.w3.org/2000/svg" xmlns:xlink="http://www.w3.org/1999/xlink" x="0px" y="0px" viewBox="0 0 1023.32 943.02"
	 style="enable-background:new 0 0 1023.32 943.02;" xml:space="preserve">
<style type="text/css">
	.st0{fill:#FFFFFF;}
</style>
<g id="ggTb8M_1_">
	<g id="g4">
		<g id="XMLID_3_">
			<g id="g7">
				<path id="path9" class="st0" d="M1023.32,843.02c0,33.33,0,66.67,0,100c-12,0-24,0-36,0c10.19-8.46,11.73-23.64,9-40
					c-1.64-9.82-9.28-16.54-9-25c-7.12-8.01-11.46-17.61-19-25c-8.54-8.37-20.57-11.28-29-20c6.79,1.71,14.26,2.43,19,5
					c15.81,8.55,25.93,16.62,35,28c6.94,8.71,15.94,18.07,15,32c-0.62,4.15-6.18,4.9-3,10c7.13,1.78,11.7-7.86,12-14
					c0.72-14.9-17.23-33.71-27-44c-15.88-16.73-38.82-22.92-56-30c9.58-1.95,18.65,1.68,25,3c2.92,0.61,6.76-0.59,10,0
					c7.33,1.34,15.17,7.56,21,9C1004.25,835.47,1016.78,844.05,1023.32,843.02z"/>
				<path id="path11" d="M1023.32,842.02c0,0.33,0,0.67,0,1c-6.54,1.03-19.07-7.55-33-11c-5.83-1.44-13.67-7.66-21-9
					c-3.24-0.59-7.08,0.61-10,0c-6.35-1.32-15.42-4.95-25-3c17.18,7.08,40.12,13.27,56,30c9.77,10.29,27.72,29.1,27,44
					c-0.3,6.14-4.87,15.78-12,14c-3.18-5.1,2.38-5.85,3-10c0.94-13.93-8.06-23.29-15-32c-9.07-11.38-19.19-19.45-35-28
					c-4.74-2.57-12.21-3.29-19-5c8.43,8.72,20.46,11.63,29,20c7.54,7.39,11.88,16.99,19,25c-0.28,8.46,7.36,15.18,9,25
					c2.73,16.36,1.19,31.54-9,40c-2,0-4,0-6,0c-1.4-9.29,6.68-13.82,8-22c2.22-13.79-2.47-23.72-8-33c-7.62-12.8-12.27-16.92-21-25
					c-9.05-8.39-19.51-19.34-29-24c3.96,14.5,16.12,29.11,22,46c3.49,10.03,7.68,21.91,6,32c-10.22-12.23-10.01-29.6-16-44
					c-5.86-14.09-17.05-24.87-22-38c-11.58,2.25-15.15-3.52-22-6c0.35,8.47,5.65,19.17,0,25c-5.88-8.79-4.22-25.11-8-36
					c-15.21-12.13-21.04-33.62-38-44c-4.5,9.05,6.49,25.38-2,34c-3.4-12-7.2-32.92-4-45c-15.21-6.12-14.25-28.42-35-29
					c1.47,9.59-3.61,15.28-1,23c5.79,1.44,10.82,6.16,16,10c4.38,3.25,14,6.29,12,13c-8.77-4.3-31.7-26.08-32-5
					c-0.14,9.85,14.76,23.32,20,29c12.43,2.57,25.13,4.87,30,15c-10.38-0.71-15.67-11.55-27-8c1.82,10.39,13.45,13.29,12,24
					c20.36,5.82,42.23,16.58,57,29c3.9,3.28,12.65,9.84,9,16c-14.37-19.3-40.12-27.21-60-41c0.04,7.44,8.74,10.57,14,17
					c14.8,18.1,34.93,60.7,9,77c-2.39-10.61,7.51-16.48,5-32c-3.73-23.08-31.24-44.29-42-58c-7.34,5.23,0.11,13.02,1,21
					c2.56,23.04-5.84,45.12-15,61c-5.6,4.81-13.59,15.36-23,10c20-15.25,24.96-44.97,24-77c-6.25,1.13-4.3,8.67-6,13
					c-5,12.69-12.79,26.92-22,31c7.71-18.96,20.22-33.11,23-57c-5.86-6.47-8.6-16.07-15-22c-4.66,5.81-1.31,24.34-6,33
					c-4.9-13.35-2.41-37.04,3-49c-6.96-8.04-8-22-15-30c-2.12,10.24,3.38,24.81-3,33c-5.85-14.45,0.55-41.1-6-57
					c-19.59,0.66-23.18-21.73-28-39c-5.24,9.93,0.34,29.55-7,35c-4.25-15.96,1.37-33.1,2-52c-15.79-9.55-15.68-34.98-26-50
					c0.16,7.33-1.59,15.1-1,24c0.65,9.88,7.05,23.06,0,32c-5.06-17.96-6.69-47.18-4-64c-7.87-4.8-12.2-13.13-17-21
					c-2.34-3.49-6.67,0.86-8-4c-3.01-20.99-13.36-34.64-22-50c-5.41,17.72,1.45,44.45-4,58c-9.83-19.19,0.43-53.44-3-74
					c-9.21-0.08-8.81,8-10,16c-1.41,9.47-4.52,21.01-6,30c-1.4,8.48,0.15,18.33-6,23c-3.27-21.89,5.2-43.41,6-67
					c0.48-3.15-4.58-0.75-5-3c-4.38-21.58-3.47-49.64-5-73c-41.8,0.26-86.89,5.65-125-10c-2.3,18.37-12.86,28.47-27,35
					c4.13,26.54,9.29,52.05,18,74c-1.36,1.98-2.01,4.65-5,5c3.13,5.88,7.56,12,12,18c4.03,5.45,11.84,11.74,9,18
					c-14.06-6.94-15.74-26.26-30-33c6.69,16.64,20.12,26.55,20,50c8.07,10.6,23.97,13.37,30,26c-12.09-0.91-15.45-10.55-25-14
					c3.71,10.43,14.63,17.38,11,32c13.19,8.81,27.4,16.6,39,27c-15.04,1.99-24.1-15.86-36-17c6.14,12.71,21.15,21.27,20,38
					c7.63,8.37,16.29,15.71,23,25c4.82,4.63,15.66,8.19,14,16c-12.23-5.77-18.19-17.81-30-24c3.45,14.11,22.83,26.71,10,42
					c11.05,13.64,26.9,27.74,32,44c-13.49-4.85-14.23-22.44-27-28c2.27,21.99,23.52,56.12,9,71c10.28,21.72,25.34,38.67,57,39
					c3.4-2.47,12.62-5.57,14,1c-31.58,16.77-64.39-3.28-76-27c-6.17,2.79-2.43,7.54-4,11c-6,13.21-25.57,24.45-44,22
					c-6.38-0.85-9.47-4.33-13-6c-7.35-3.48-17.99-4.68-14-14c7.01,5.32,14.11,10.56,24,13c19.17-4.75,40.67-14.35,37-37
					c-0.69-4.26-5.15-8.2-6-13c-1.91-10.87,2.08-21.57,0-32c-12.94,22.38-39.2,1.61-48-12c-2.42,2.24-5.48,3.85-8,6
					c0.39,27.23-12.01,49.87-43,49c-3.29-4.54-14.92-5.53-12-13c5.13-1.22,7.41,4.83,12,5c16.18,0.61,33.83-22.26,33-37
					c-0.36-6.39-7.01-14.31-10-24c-4.79-15.55-9.24-27.92-13-42c-9.05,6.13-0.36,25.46-11,31c-2.95-11.19,3.63-20.73,2-31
					c-0.57-3.62-4.47-6.85-6-11c-3.61-9.75-1.94-19.35-5-27c-4.41,10.92-4.42,26.24-9,37c-7.73-12.65,4.43-28,2-45
					c-5.38-7.36-5.95-18.74-7-28c-6.53,7.29-2.17,33.68-13,36c1-14.67,5.05-34.94,8-51c-8.42-13.25-9.37-33.96-17-48
					c-6.44,13.9-8.25,32.41-19,42c1.26-17.44,12.83-33.15,16-52c-5.17-11.16-2.47-30.19-8-41c-10.91,13.75-13.79,35.55-25,49
					c0.09-27.61,24.03-45.27,25-72c-17.94,14.39-23.59,41.08-42,55c-1.65-8.78,8.01-14.56,11-22c4.34-13.99,14.8-21.87,21-34
					c-1.13-4.2-4.73-5.93-6-10c2.9-7.1,4.27-15.72,5-25c-21.33-15.55-40.61,16.81-57,6c-2.09-17.96,8.35-38.98-1-53
					c-17.16,0.51-28.68,6.66-47,6c0.1,12.05-8.23,18.45-8,29c0.3,13.58,18.69,24.3,11,37c-7.66-11.67-9.57-29.09-22-36
					c-3.28,19.39,11.86,39.35,8,56c-2.87-4.46-5.44-9.23-5-17c-7.32-7.01-4.49-24.18-12-31c-4.61,17.01,4.99,42.21-9,50
					c4.61,14.75,15.23,28.73,17,43c-9.82-6.51-9.01-23.65-19-30c-2.75,9.72,3.81,22.61-2,30c6.27,11.4,16.46,24.21,18,37
					c-9.11-6.89-10.73-21.27-20-28c-2.12,29.87,11.27,49.09,16,73c-10.7-8.3-9.36-28.64-20-37c-0.4,12.93,7.08,23.7,1,35
					c3.78,10.68,14.96,24.19,13,34c-7.45-4.22-5.21-18.13-14-21c1.6,11.14-1.37,23.11-9,28c6.43,13.94,15.46,30.5,18,45
					c-9.62-5.71-9.04-21.63-18-28c-5.37,11.23,4.9,30.53-3,41c11.27,23.2,7.17,61.35-12,73c-3.75,2.28-13.62,7.67-18,0
					c0.67-4,6.43-2.9,11-3c10.71-9.62,20.97-34.83,8-49c-6.4,18.64-32.21,45.5-56,49c-8.89,1.31-20.8-0.65-19-7
					c2.44-4.96,8.08,0.22,11,1c24.82-13.18,45.12-30.88,54-60c-9.77-15.81,1.65-31.21,4-48c-8.46,1.54-8.77,11.23-18,12
					c1.48-15.85,16.48-18.18,22-30c-2.95-14.22,5.37-23.3,7-36c-12.15,2.85-12.24,17.76-24,21c-0.8-14.76,16.3-20.72,21-34
					c2.12-6,1.13-12.58,3-20c-11.61,2.12-14.04,18.54-25,18c1.74-12.93,19.95-18.69,24-31c0.91-2.77-0.34-6.16,0-9
					c1.09-9,6.28-17.17,6-26c-15.1,2.93-16.67,24.61-29,27c4.69-16.64,15.39-27.28,25-39c0.75-12.92,6.53-20.8,8-33
					c-12.41,3.97-19.35,18.6-31,20c4.47-13.19,17.67-17.67,26-27c-1.14-17.47,7.78-24.88,12-37c-11.58,4.09-14.77,21.89-25,24
					c7.01-16.99,19.67-28.33,29-43c-8.43-12.67,2.45-22.91,6-29c0.84-1.44-0.73-4.23,0-6c0.7-1.7,3.66-4.66,5-7
					c9.69-16.93,22.43-38.99,18-62c-16.33,11.68-32.54,32.12-58,38c0.84,20.63,16.6,48.97,16,70c-0.19,6.61-3.25,8.73-8,11
					c-18.08-5.63-22.14-29.34-30-42c-2,11.01,2.26,21.79,4,31c0.92,4.88,2.98,13.2-1,15c-6.21-6.1-4.24-18.16-6-28
					c-1.43-7.95-2.09-16.35-6-22c-7.27,14.59,0.53,41.75-4,57c-6.81-2.41-3.39-9.25-4-17c-15.68,0.99-5.61,27.72-13,37
					c-2.42-9.26-0.46-19.78-2-28c-10.38,8.29-6.79,30.54-17,39c2.75,5.8,6.28,24.96,0,30c-4.88-6.37,1.85-21.95-6-27
					c-1.73,13.93-5.25,26.09-13,34c0.34,10.86,3.5,28.9,1,36c-8.79-6.11-1.22-24.52-8-31c-1.27,10.87-10.51,20.89-12,33
					c-1.67,13.57,5.23,28.4,2,41c-7.35-3.32-2.93-18.4-7-25c-4.58,2.42-7.27,6.73-10,11c0.09,11.97,7.13,27.44,2,38
					c-4.55-8.2-2.71-23.2-8-28c-9,13.76-1.97,38.57-14,48c5.64,9.33,14.62,28.61,12,45c-1.76,10.97-8.52,24.49-19,24
					c-0.05-7.31,7.08-11.56,9-19c4.55-17.66-3.79-35.2-13-45c0.62-2.71,4.18-2.49,4-6c-4.84,0.84-7.07-0.93-10-2
					c-1.67,4.33-4.49,7.51-6,12c-10.23,8.08-25.97,20.78-28,37c-0.88,7,3.31,13.99,0,20c-7.88-6.07-6.87-21.44-5-31
					c1-5.11,4.74-8.23,6-11c3.27-7.2,3.65-14.27,8-20c5.31-6.99,13.75-8.65,19-15c2.55-16.11,13.53-23.81,16-40
					c-6.25,1.09-9.11,10.87-15,9c3.02-9.98,11.24-14.76,18-21c0.35-3.47-5.08-3.8-2-7c12.42-17.26,28.62-36.03,34-57
					c-6.73,0.33-12.61,10.84-19,5c7.21-6.79,15.97-12.03,27-15c3.06-12.28,14.74-21.26,16-32c-9.07,2.68-17.47,11.09-26,11
					c4.2-8.14,11.98-12.69,22-15c5.47-3.89,6.96-11.25,11-17c4.37-6.22,13.48-10.4,13-18c-8.98,1.03-14.39,10.93-23,9
					c2.76-9.64,20.11-13.17,27-22c1.57-10.44,11.53-17.8,11-27c-11.17,7.2-17.58,24.38-31,26c10.26-14.41,23.07-26.26,34-40
					c-2.81-6.74-3.23-12.54-1-20c-8.56-8.44-18.44-15.56-26-25c-2.66-0.01-5.71,0.38-7-1c-20.62-15.28-24.57-44.97-17-78
					c0.71-3.12,4.04-5.69,5-9c0.66-2.27-0.8-4.79,0-7c4.54-12.56,15.19-27.06,14-36c-0.37-2.8-3.78-5.8-5-8
					c-4.92-8.83-7.86-19.57-12-28c-14.83,12.67-15.48,35.27-14,60c-11.67,14.32,5.83,34.73,3,56c-0.72,3.61-5.81,2.86-6,7
					c-3.26,14.83,2.7,32.88-3,49c-1.8,5.1-7.45,7.72-9,12c-6.06,16.77,6.36,54.28-21,48c-12.7-17.24,6.84-34.68,9-53
					c0.51-4.31-1.64-9.39-1-14c1.08-7.83,6.07-16.2,7-25c0.89-8.4,3.04-14.36,3-20c-0.02-2.9-2.71-6.22-3-9
					c-1.26-12.13,7.22-24.94,1-37c7.61-4.08,2.52-19.04-3-22c-10.4,13.64,5.29,48.48-14,56c0.79,6.74,0.89,15.39,0,24
					c-0.74,7.17-0.81,17.88-3,24c-1.84,5.15-7.88,7.83-9,12c-1.08,4.03,0.37,10.11,0,15c-0.97,12.7-5.19,28.66-16,29
					c-5.99,0.19-12.09-6.9-12-13c0.13-8.36,10.92-21.54,16-32c3.36-6.92,1.77-13.42,2-21c0.56-18.18,12.3-30.64,12-47
					c-0.45-2.88-3.54-3.13-3-7c2.49-14.46,5.66-29.41,11-43c1.36-3.46,4.33-4.91,5-8c0.4-1.86-1.04-5.39-1-7
					c0.22-8.79,6.83-23.14,11-29c7.34-10.32,7.71-20.79,20-24c-1.04-4.51-7.83-8.03-11-13c-6.9-10.8-10.16-33.38-16-46
					c-1.89-4.09-6.13-5.22-6-9c0.4-11.25,22.77-16.97,35-24c10.89-6.26,13.45-15.03,19-24c3.84-6.2,11.33-12.65,18-20
					c6.24-6.87,11.31-15.62,17-21c8.53-8.05,19.93-14.5,30-22c13.83-10.29,22.33-15.97,38-20c6.75-1.73,14.04-7.03,21-9
					c7.96-2.26,20.77-5.17,27-6c16.2-2.15,48.14,5.18,51,14c1.31,4.04-2.77,10.86-1,15c10.34,1.33,21.5,1.83,28,7
					c7.71-3.96,19.62-3.71,29-6c16.3-16.7,45.51-20.49,72-27c10.22,4.62,18.18-1.72,28-3c9.86-1.29,22.4,1.24,33,0
					c3.11-0.36,6.22-2.92,9-3c13.66-0.37,25.96,4.1,39,6c1.39,1.28,0.61,4.72,2,6c25.3-2.61,50.89,3.35,68,6c2.62,0.4,5.71-0.53,8,0
					c7.84,1.82,14.02,7.32,21,9c8.3,2,13.7,0.87,20,3c24.38,8.24,40.76,22.39,60,34c-0.72,3.06,1.02,3.64,1,6
					c12.29,8.57,28.18,14.09,37,26c1.23,1.66,0.85,4.13,2,6c10.1,16.33,31.34,26.18,39,44c22.57,9.77,40.81,23.86,54,43
					c7.28,3.68,16.91,5.6,18,13c1.82,12.36-16.21,16.02-26,21c-2.26,7.74-7.69,12.31-9,21c4.11,0.11,3.33-4.67,7-5
					c18.09-2.16,21.14-21.21,34-27c-1.66,9.45-8.85,20.22-17,27c-5.81,4.84-14.97,4.35-19,11c18.65,1.94,27.86-14.11,40-22
					c2.2-3.14,2.09-8.57,8-8c2.4,8.43-7.45,15.65-14,21c-7.29,5.95-16.23,10.47-22,16c-1.35,1.98-6.98-0.31-7,3
					c25.4,5.4,40.76-14.76,58-24c-5.74,20.32-33.99,26.63-55,35c5.83,5.08,19.39-0.26,26,2c14.75-5.09,25.73-17.3,37-21
					c-6.63,17.36-25.98,24.85-47,28c-3.96,0.59-11.83-2.71-14,3c7.26,3.01,18.11,2.92,25,2c15.71-2.09,27.79-13.81,40-14
					c-11.96,14.53-42.41,24.91-66,18c-5.19,6.15-15.85,6.81-22,12c0.43,7.24,2.92,12.41,4,19c20.26-3.59,19.54,18.93,11,32
					c-9.36,14.31-36.3,27.74-54,29c-2.07,2.6,0.21,9.55-3,11c-26.17,4.16-42.41,18.26-65,26c-6.07,10.27-19.84,12.83-24,25
					c-3.45,1.89-5.74,4.92-10,6c4.01,10.32,8.07,20.6,14,29c10.75,1.92,18.81,6.52,28,10c7.99,0.01,15.13,0.87,17,7
					c-15.5,2.11-28.17-7.12-42-10c-0.13,17.15,21.83,29.24,16,49c12.59,12.24,26.01,29.63,38,43c3,3.35,12.99,9.83,6,15
					c-16.21-16.8-29.57-41.75-50-51c20.74,23.8,38.32,52.55,59,77c9.37,11.08,22.4,18.2,24,33c10.49,7.84,19.69,16.97,29,26
					c4.79,1.76,12.69,5.02,10,11c-18.15-6.85-25.54-24.46-44-31c-1.01,1.99-1.73,4.27-4,5c9.97,22.36,33.63,31.04,50,47
					c10.9,0.43,17.78,4.89,25,9c7.18-0.51,13.03,0.3,14,6c-14.29,3.35-27.63-11.67-43-10c-3.32,11.45,11.82,13.34,20,18
					c8.06,4.59,15.8,14.34,24,17c2.77,0.9,6.24-0.53,9,0c9.05,1.72,18.13,6.9,23,13c-15.82,0.1-25.72-10.88-40-9
					c-2.41,5.92,4.49,10.69,8,14c17.1,16.14,41.82,24.03,65,33c-7.2,5.76-14.64-2.57-23-2c3.72,10.32,12.5,13.75,24,15
					C971.91,816.14,1001.87,828.68,1023.32,842.02z M803.32,749.02c1.28-6.5,3.46-15.92,1-23c-11.79-3.88-15.59-15.74-27-20
					c-3.91,17.94,13.74,20.73,11,37C793.37,744.97,796.33,749.01,803.32,749.02z M804.32,768.02c0.12-2.88-0.55-6.55,1-8
					c-2.66-2.34-4.25-5.75-9-6C798.22,759.45,797.73,767.27,804.32,768.02z M794.32,712.02c-7-13-9.93-30.07-21-39
					c1.97,6.69,2.27,15.07,2,24C782.52,701.15,786.81,708.2,794.32,712.02z M769.32,705.02c0.79-4.94,0.28-6.42-1-11
					c-2.36,0.02-2.94-1.72-6-1C764.28,697.4,763,705.01,769.32,705.02z M766.32,688.02c6.6-12.11-2.35-15.07-8-23
					c-3.08-4.32-5.14-12.27-8-15c-4.25-4.07-12.53-5.18-15-8c5.18,16.15,19.15,23.51,29,35C763.77,681.25,760,687.72,766.32,688.02z
					 M746.32,644.02c1.78-8.1-9.07-25.14-14-10C737.24,637.1,743.2,639.14,746.32,644.02z M708.32,585.02
					c4.92,6.99,9.48,14.78,16,17c-5.38-18.96-18.33-30.33-24-49c-1,0-2,0-3,0C694,568.87,701.74,575.69,708.32,585.02z
					 M533.32,828.02c8.89-5.54,17.75-17.39,11-30c-8.61,3.39-2.24,31.3-16,23c6.2-12.67,7.17-24.44,11-39
					c-6.97-9.69-6.73-26.6-13-37c-6.53,7.8-0.45,28.22-8,35c-4.51-13.16,0.09-33.68,3-46c-8.59-13.13-15.93-26.81-15-47
					c-9.32,8.68-3.98,32.01-13,41c-3.35-18.92,5.39-34.86,4-50c-8.04-7.76-7.29-24.54-10-35c-6.57,11.1-1.82,33.51-10,43
					c-6.12-14.28,5.56-33.55,3-49c-0.56-3.41-3.88-6.79-5-10c-1.31-3.74,0.97-8.79-4-10c-1.78,8.36,2.5,16.98-6,19
					c-5.27-14.83,5.61-39.8,1-54c-4.92,3.22-8.11,10.67-10,18c-1.97,7.63-0.3,18.17-6,23c-4.21-11.73,1.32-30.55,6-40
					c-15.58-13.97-14.53-38.69-16-66c-9.29-4.17-15.56,4.97-24,2c-3.19,9.59-0.91,20.25-3,32c4.6,6.92,10.12,14.88,15,23
					c4.56,7.59,12.33,16.87,10,25c-11.29-8.71-13.83-26.17-26-34c2.66,16.49,16.58,33.81,10,50c3.53,6.21,9.67,12.16,14,19
					c4.21,6.66,11.19,14.34,9,21c-7.16-1.84-7.31-10.69-14-13c2.33,6.67,6.35,11.65,9,18c0.66,3.66-2.16,3.84-2,7
					c3.01-1.01,1.77,2.23,2,4c5.75,6.52,26.44,16.94,20,26c-5.46-2.21-6.91-8.42-13-10c-0.47,6.62,9.72,10.83,7,23
					c10.85,6.19,32.89,6.39,34,19c-10.51-2.82-19.53-7.14-30-10c5.5,25.18,36.53,30.11,46,48c-11.67-1.72-21.52-13.77-33-19
					c-2.96,8.75,5.53,15.94,10,23c5.6,8.85,11.46,18.2,17,26c5.83,1.17,5.91,8.09,11,10C513.76,817.58,522.45,823.89,533.32,828.02z
					 M235.32,344.02c5.57-34.31-10.05-63.66-39-70c-6.83,5.83-14.88,10.45-25,13c0.21,18.21-4.54,31.46-9,45
					c18.57-1.08,34.36,7.96,40,23C213.14,351.17,223.06,346.42,235.32,344.02z"/>
				<path id="path13" class="st0" d="M804.32,726.02c2.46,7.08,0.28,16.5-1,23c-6.99-0.01-9.95-4.05-15-6
					c2.74-16.27-14.91-19.06-11-37C788.73,710.28,792.53,722.14,804.32,726.02z"/>
				<path id="path15" class="st0" d="M805.32,760.02c-1.55,1.45-0.88,5.12-1,8c-6.59-0.75-6.1-8.57-8-14
					C801.07,754.27,802.66,757.68,805.32,760.02z"/>
				<path id="path17" class="st0" d="M773.32,673.02c11.07,8.93,14,26,21,39c-7.51-3.82-11.8-10.87-19-15
					C775.59,688.09,775.29,679.71,773.32,673.02z"/>
				<path id="path19" class="st0" d="M768.32,694.02c1.28,4.58,1.79,6.06,1,11c-6.32-0.01-5.04-7.62-7-12
					C765.38,692.3,765.96,694.04,768.32,694.02z"/>
				<path id="path21" class="st0" d="M758.32,665.02c5.65,7.93,14.6,10.89,8,23c-6.32-0.3-2.55-6.77-2-11
					c-9.85-11.49-23.82-18.85-29-35c2.47,2.82,10.75,3.93,15,8C753.18,652.75,755.24,660.7,758.32,665.02z"/>
				<path id="path23" class="st0" d="M732.32,634.02c4.93-15.14,15.78,1.9,14,10C743.2,639.14,737.24,637.1,732.32,634.02z"/>
				<path id="path25" class="st0" d="M724.32,602.02c-6.52-2.22-11.08-10.01-16-17c-6.58-9.33-14.32-16.15-11-32c1,0,2,0,3,0
					C705.99,571.69,718.94,583.06,724.32,602.02z"/>
				<path id="path27" class="st0" d="M544.32,798.02c6.75,12.61-2.11,24.46-11,30c-10.87-4.13-19.56-10.44-24-21
					c-5.09-1.91-5.17-8.83-11-10c-5.54-7.8-11.4-17.15-17-26c-4.47-7.06-12.96-14.25-10-23c11.48,5.23,21.33,17.28,33,19
					c-9.47-17.89-40.5-22.82-46-48c10.47,2.86,19.49,7.18,30,10c-1.11-12.61-23.15-12.81-34-19c2.72-12.17-7.47-16.38-7-23
					c6.09,1.58,7.54,7.79,13,10c6.44-9.06-14.25-19.48-20-26c-0.23-1.77,1.01-5.01-2-4c-0.16-3.16,2.66-3.34,2-7
					c-2.65-6.35-6.67-11.33-9-18c6.69,2.31,6.84,11.16,14,13c2.19-6.66-4.79-14.34-9-21c-4.33-6.84-10.47-12.79-14-19
					c6.58-16.19-7.34-33.51-10-50c12.17,7.83,14.71,25.29,26,34c2.33-8.13-5.44-17.41-10-25c-4.88-8.12-10.4-16.08-15-23
					c2.09-11.75-0.19-22.41,3-32c8.44,2.97,14.71-6.17,24-2c1.47,27.31,0.42,52.03,16,66c-4.68,9.45-10.21,28.27-6,40
					c5.7-4.83,4.03-15.37,6-23c1.89-7.33,5.08-14.78,10-18c4.61,14.2-6.27,39.17-1,54c8.5-2.02,4.22-10.64,6-19
					c4.97,1.21,2.69,6.26,4,10c1.12,3.21,4.44,6.59,5,10c2.56,15.45-9.12,34.72-3,49c8.18-9.49,3.43-31.9,10-43
					c2.71,10.46,1.96,27.24,10,35c1.39,15.14-7.35,31.08-4,50c9.02-8.99,3.68-32.32,13-41c-0.93,20.19,6.41,33.87,15,47
					c-2.91,12.32-7.51,32.84-3,46c7.55-6.78,1.47-27.2,8-35c6.27,10.4,6.03,27.31,13,37c-3.83,14.56-4.8,26.33-11,39
					C542.08,829.32,535.71,801.41,544.32,798.02z"/>
				<path id="path29" class="st0" d="M196.32,274.02c28.95,6.34,44.57,35.69,39,70c-12.26,2.4-22.18,7.15-33,11
					c-5.64-15.04-21.43-24.08-40-23c4.46-13.54,9.21-26.79,9-45C181.44,284.47,189.49,279.85,196.32,274.02z"/>
			</g>
			<g id="g31">
			</g>
		</g>
	</g>
</g>
</svg>
