<svg xmlns="http://www.w3.org/2000/svg" width="4585" height="3000" viewBox="0 0 4585 3000" version="1.1">
	<path d="M 3332 31.575 C 3313.602 34.720, 3309.293 37.199, 3289.277 56.158 C 3270.942 73.525, 3264.975 77.360, 3238.495 88.797 C 3205.970 102.844, 3202.280 105.497, 3170 138.035 C 3141.693 166.568, 3132.807 174.564, 3120.441 182.624 C 3112.217 187.984, 3106.387 190.920, 3073 206.510 C 3047.131 218.589, 3046.491 218.770, 3016.500 222.470 C 2988.534 225.921, 2964.297 229.628, 2954.500 231.954 C 2941.808 234.967, 2932.863 238.564, 2912 249.049 C 2889.019 260.597, 2881.104 263.841, 2864.476 268.526 C 2847.524 273.303, 2833.033 276.319, 2809.605 279.949 C 2780.808 284.411, 2769.444 287.627, 2745.121 298.198 C 2721.972 308.260, 2714.719 312.293, 2687.130 330.444 C 2665.218 344.861, 2655.362 353.213, 2630.500 378.440 C 2609.395 399.854, 2591.648 415.056, 2575.500 425.553 C 2565.051 432.346, 2558.980 435.346, 2547.737 439.273 L 2538.500 442.500 2519.500 442.067 C 2509.050 441.829, 2484.750 441.607, 2465.500 441.575 C 2427.734 441.512, 2428.404 441.445, 2406 447.578 C 2399.125 449.461, 2382.845 452.778, 2369.822 454.951 C 2344.917 459.107, 2335.580 461.675, 2323.717 467.632 C 2307.110 475.972, 2294.174 486.133, 2268.484 511.015 C 2249.503 529.400, 2241.656 535.488, 2232.554 538.894 C 2226.128 541.298, 2213.673 543, 2202.500 543 C 2181.492 543, 2154.280 549.749, 2124 562.468 C 2110.112 568.302, 2104.492 570.062, 2092 572.488 C 2087.325 573.396, 2076.750 575.772, 2068.500 577.768 C 2055.492 580.916, 2051.906 581.396, 2041.500 581.383 C 2031.121 581.369, 2027.879 580.928, 2017.500 578.118 C 2003.252 574.260, 1990.980 569.510, 1978 562.828 C 1963.430 555.328, 1961.383 554.896, 1936 553.981 L 1913.500 553.170 1895.500 548.181 C 1864.917 539.704, 1855.740 538.139, 1823.500 535.901 C 1793.709 533.833, 1764.228 535.804, 1741.162 541.406 C 1719.051 546.775, 1709.548 547.050, 1683.500 543.076 C 1643.595 536.986, 1624.226 537.676, 1571.704 547.057 C 1559.492 549.238, 1544.100 551.478, 1537.500 552.034 C 1510.436 554.316, 1503.431 555.368, 1480 560.670 C 1450.916 567.251, 1447.188 568.569, 1427 579.415 C 1364.973 612.737, 1359.983 614.855, 1332.528 619.514 C 1301.735 624.740, 1272.961 637.338, 1260.621 650.997 C 1253.994 658.333, 1248.066 668.605, 1241.426 684.260 C 1237.871 692.642, 1233.508 701.658, 1231.731 704.296 C 1227.849 710.060, 1221.492 714.510, 1214.054 716.673 C 1207.636 718.538, 1193.843 718.084, 1182.455 715.631 C 1153.040 709.296, 1141.497 712.044, 1122.730 729.852 C 1117.104 735.191, 1110.888 740.549, 1108.918 741.757 C 1102.380 745.769, 1093.709 747.323, 1081.500 746.671 C 1068.480 745.975, 1059.773 743.958, 1035.541 736.023 C 1013.310 728.743, 1008.158 727.448, 995.500 725.960 C 983.569 724.557, 969.853 725.357, 959.143 728.080 C 950.348 730.316, 928.462 740.727, 902.408 755.069 C 889.994 761.902, 879.009 767.031, 867.408 771.411 C 852.290 777.119, 833.984 784.656, 809.180 795.385 C 794.032 801.938, 781.619 808.858, 772 816.115 C 761.024 824.395, 750.254 831.543, 737.500 839.010 C 732.550 841.909, 717.925 852.237, 705 861.963 C 663.552 893.149, 661.237 894.503, 640 899.960 C 633.125 901.727, 622.325 904.693, 616 906.552 C 587.726 914.860, 550.739 924.411, 530.590 928.608 C 500.059 934.966, 488.991 939.081, 471 950.762 C 460.254 957.739, 451.557 964.864, 436.841 978.748 C 421.255 993.452, 412.489 1000.707, 387 1020.003 C 375.175 1028.955, 362.695 1038.740, 359.268 1041.746 C 351.640 1048.437, 341.666 1060.186, 332.241 1073.582 C 319.127 1092.222, 312.663 1096.301, 291.179 1099.491 C 278.433 1101.383, 274.697 1102.211, 259.184 1106.575 C 236.252 1113.026, 230.067 1116.770, 211.495 1135.432 C 203.484 1143.481, 196.496 1149.569, 193.299 1151.283 C 190.444 1152.814, 182.131 1155.615, 174.826 1157.508 C 167.520 1159.401, 158.834 1162.286, 155.522 1163.919 C 152.210 1165.551, 143.425 1171.884, 136 1177.990 C 128.575 1184.097, 115.750 1194.585, 107.500 1201.297 C 72.439 1229.821, 68.077 1236.280, 64.483 1265 C 62.491 1280.920, 59.463 1292.349, 52.502 1310.227 C 49.446 1318.077, 45.132 1331.185, 42.917 1339.355 C 40.701 1347.525, 36.802 1360.575, 34.253 1368.355 C 29.910 1381.606, 29.613 1383.195, 29.558 1393.500 C 29.508 1402.946, 29.806 1405.065, 31.663 1408.500 C 35.359 1415.337, 40.952 1420.954, 55.853 1432.798 C 78 1450.399, 85.507 1458.851, 101.782 1484.500 C 105.621 1490.550, 111.239 1499.775, 114.267 1505 C 121.821 1518.036, 128.196 1526.258, 135.403 1532.259 C 145.511 1540.675, 149.286 1542.026, 203.500 1556.630 C 227.643 1563.134, 255.113 1572.501, 276.213 1581.425 C 282.429 1584.054, 287 1588.717, 287 1592.429 C 287 1598.368, 281.902 1601.399, 265 1605.511 C 254.023 1608.182, 232.150 1615.837, 219.652 1621.382 C 204.703 1628.015, 191.381 1640.113, 181.579 1655.960 C 174.159 1667.954, 171.993 1672.445, 163.048 1694.382 C 158.735 1704.960, 151.846 1720.789, 147.739 1729.557 C 136.502 1753.552, 135.376 1757.551, 131.546 1787.091 C 127.780 1816.133, 124.594 1826.253, 108.091 1861.574 C 99.764 1879.399, 97.660 1886.689, 97.721 1897.500 C 97.774 1906.883, 100.084 1913.920, 106.004 1922.736 C 111.729 1931.262, 133.902 1956.711, 148.613 1971.642 C 163.844 1987.101, 166.611 1988.682, 190.405 1995.522 C 211.593 2001.614, 220.171 2005.071, 228.200 2010.756 C 247.364 2024.324, 276.106 2047.343, 288.500 2059.048 C 296.200 2066.320, 308.350 2077.041, 315.500 2082.872 C 336.489 2099.990, 340.645 2104.913, 352.113 2126.235 C 359.987 2140.876, 362.696 2144.374, 383.072 2166.207 C 405.403 2190.135, 426.311 2209.384, 440.322 2218.915 C 447.790 2223.995, 461.648 2230.128, 483.500 2238.024 C 514.855 2249.354, 527.358 2254.562, 543.509 2263.019 C 551.764 2267.342, 564.217 2272.865, 571.184 2275.294 C 580.923 2278.688, 586.815 2281.559, 596.676 2287.714 C 612.895 2297.838, 614.582 2298.677, 631.295 2304.931 C 650.335 2312.056, 671.793 2318.058, 696 2323.031 C 726.443 2329.286, 731.273 2331.305, 753.643 2347.125 C 767.935 2357.233, 778.872 2363.015, 792 2367.401 C 807.161 2372.466, 817.586 2374.012, 843.500 2375.038 C 867.687 2375.996, 874.298 2377.056, 890 2382.498 C 903.609 2387.214, 908.849 2388.007, 933 2389.009 C 975.576 2390.775, 998.203 2393.456, 1031 2400.621 C 1037.325 2402.003, 1049.191 2403.996, 1057.368 2405.050 C 1076.872 2407.563, 1082.156 2408.953, 1103 2417.047 C 1130.949 2427.900, 1148.082 2431.624, 1176.500 2433.020 C 1203.721 2434.358, 1208.428 2435.837, 1230.361 2449.943 C 1246.634 2460.410, 1254.491 2464.413, 1273.883 2472.120 C 1303.807 2484.014, 1322.409 2493.664, 1342.207 2507.564 C 1348.941 2512.293, 1358.062 2517.883, 1362.476 2519.988 C 1374.446 2525.697, 1397.363 2534.196, 1416.327 2539.960 C 1450.977 2550.492, 1465.761 2557.399, 1494.324 2576.401 C 1506.327 2584.386, 1520.727 2593.153, 1526.324 2595.883 C 1540.483 2602.790, 1579.884 2616.202, 1602 2621.644 C 1624.240 2627.116, 1634.272 2630.752, 1656 2641.213 C 1676.025 2650.855, 1678.376 2651.762, 1699.661 2658.059 C 1740.283 2670.076, 1741.557 2670.723, 1767.465 2692.500 C 1785.413 2707.586, 1803.420 2718.294, 1819 2723.144 C 1827.809 2725.886, 1843.904 2726.346, 1853 2724.114 C 1867.483 2720.562, 1879.055 2711.814, 1882.914 2701.501 C 1889.750 2683.229, 1879.057 2661.562, 1848.858 2632.492 C 1839.704 2623.681, 1796.322 2584.217, 1779.107 2569.040 C 1763.079 2554.911, 1756.868 2551.594, 1737.968 2547.066 C 1721.782 2543.189, 1715.545 2540.986, 1705.253 2535.510 C 1684.202 2524.312, 1668.571 2505.911, 1668.571 2492.327 C 1668.571 2486.052, 1670.725 2482.591, 1676.710 2479.246 C 1683.442 2475.483, 1694.028 2474.708, 1730.916 2475.277 C 1779.102 2476.021, 1790.778 2477.960, 1834.630 2492.508 C 1869.538 2504.089, 1881.832 2507.585, 1896.274 2510.035 C 1909.434 2512.268, 1920.840 2514.960, 1928.013 2517.527 C 1931.908 2518.921, 1944.349 2522.627, 1990.414 2536.117 C 2000.028 2538.932, 2005.391 2539.720, 2030.347 2541.984 C 2051.262 2543.881, 2080.401 2550.816, 2106.214 2560.040 C 2120.229 2565.047, 2129.507 2567.436, 2143 2569.511 C 2148.775 2570.400, 2160.475 2572.924, 2169 2575.122 C 2192.242 2581.114, 2196.401 2581.849, 2219.367 2584.018 C 2244.163 2586.360, 2254.218 2587.963, 2266.500 2591.531 C 2271.450 2592.969, 2277.975 2594.811, 2281 2595.624 C 2286.900 2597.209, 2324.341 2602.023, 2350.500 2604.560 C 2367.157 2606.176, 2374.429 2607.488, 2399.500 2613.399 C 2407.750 2615.344, 2421.502 2617.847, 2430.059 2618.961 C 2438.640 2620.078, 2453.572 2623, 2463.356 2625.477 C 2483.780 2630.649, 2492.558 2632.207, 2536.500 2638.462 C 2554.100 2640.968, 2573 2644.021, 2578.500 2645.247 C 2592.962 2648.470, 2613.620 2648.447, 2623.500 2645.197 C 2642.056 2639.094, 2653.188 2624.663, 2653.352 2606.500 C 2653.553 2584.290, 2640.156 2570.359, 2605.674 2556.921 C 2591.446 2551.376, 2585.245 2549.790, 2553 2543.449 C 2537.325 2540.366, 2520.675 2536.973, 2516 2535.907 C 2507.252 2533.914, 2456.030 2517.494, 2431.903 2508.949 C 2413.673 2502.493, 2408.542 2501.255, 2390.362 2498.920 C 2361.035 2495.153, 2332.682 2486.017, 2296.177 2468.570 C 2266.167 2454.228, 2253.807 2448.903, 2238.936 2443.912 C 2220.394 2437.690, 2213.376 2436.498, 2168.726 2431.993 C 2150.108 2430.114, 2139.381 2426.532, 2101.808 2409.644 C 2066.529 2393.787, 2055.675 2387.115, 2054.438 2380.524 C 2053.201 2373.930, 2058.439 2368.930, 2070.116 2365.558 C 2077.918 2363.305, 2095.845 2361.041, 2106 2361.027 C 2110.675 2361.021, 2125.525 2360.355, 2139 2359.548 C 2175.235 2357.377, 2206.122 2355.934, 2237 2354.970 C 2260.732 2354.229, 2266.866 2353.693, 2281.769 2351.063 C 2295.132 2348.705, 2304.180 2347.795, 2321.769 2347.040 C 2345.565 2346.020, 2351.292 2345.063, 2360.369 2340.590 C 2371.649 2335.031, 2382.946 2322.840, 2387.092 2311.753 C 2390.273 2303.249, 2389.561 2290.625, 2385.478 2283.132 C 2377.568 2268.613, 2352.871 2255.052, 2328.854 2252.041 C 2318.366 2250.726, 2286.488 2250.721, 2274 2252.032 C 2268.775 2252.581, 2257.525 2254.441, 2249 2256.164 C 2228.362 2260.338, 2215.363 2260.470, 2195 2256.713 C 2187.025 2255.242, 2173.750 2253.559, 2165.500 2252.972 C 2157.250 2252.386, 2147.125 2251.442, 2143 2250.876 C 2138.875 2250.309, 2113.225 2249.475, 2086 2249.023 C 2032.258 2248.130, 2026.713 2247.641, 1994 2240.914 C 1956.219 2233.145, 1960.767 2233.521, 1904.500 2233.510 C 1854.896 2233.500, 1853.404 2233.444, 1850 2231.450 C 1840.134 2225.669, 1843.356 2214.667, 1858.180 2203.524 C 1872.135 2193.033, 1876.257 2192.045, 1910.500 2190.980 C 1929.062 2190.402, 1939.452 2189.653, 1943.745 2188.583 C 1958.684 2184.858, 1972.089 2175.222, 1977.487 2164.328 C 1981.498 2156.232, 1982.056 2144.517, 1979.109 2130.293 C 1976.547 2117.928, 1976.522 2115.628, 1978.896 2110.500 C 1982.702 2102.279, 1990.975 2097.583, 2015.527 2089.706 C 2031.849 2084.469, 2081.380 2073.209, 2104.475 2069.486 C 2113.262 2068.069, 2128.562 2065.169, 2138.475 2063.042 C 2148.389 2060.914, 2159.200 2058.648, 2162.500 2058.005 C 2177.262 2055.131, 2194.754 2050.156, 2230.791 2038.584 C 2252.081 2031.747, 2275.018 2024.544, 2281.762 2022.577 C 2288.506 2020.611, 2300.470 2016.114, 2308.349 2012.585 C 2316.227 2009.055, 2330.959 2003.261, 2341.087 1999.707 C 2351.214 1996.154, 2364.609 1991.140, 2370.853 1988.564 C 2385.018 1982.722, 2390.227 1981.963, 2396.233 1984.871 C 2401.021 1987.189, 2403.938 1991.374, 2406.077 1999 C 2406.997 2002.277, 2407.395 2016.142, 2407.544 2050 C 2407.656 2075.575, 2408.217 2108.200, 2408.791 2122.500 C 2409.697 2145.091, 2410.246 2150.529, 2412.975 2163.973 C 2418.063 2189.030, 2418.179 2207.048, 2413.481 2242 C 2410.906 2261.151, 2412.691 2268.079, 2426.620 2293.001 C 2437.206 2311.944, 2440.115 2318.795, 2444.649 2335.463 C 2450.993 2358.788, 2460.836 2375.324, 2482.467 2399 C 2486.738 2403.675, 2493.778 2412.066, 2498.112 2417.646 C 2509.354 2432.121, 2514.675 2436.593, 2530.174 2444.589 C 2537.786 2448.517, 2548.433 2455.144, 2555.006 2460.046 C 2567.549 2469.400, 2575.431 2474.233, 2590 2481.500 C 2595.225 2484.107, 2605.266 2489.596, 2612.312 2493.699 C 2630.978 2504.567, 2648.840 2512.981, 2664.619 2518.340 C 2672.522 2521.024, 2683.237 2525.627, 2689.500 2529.027 C 2711.863 2541.167, 2728.392 2549.167, 2748.191 2557.431 C 2764.602 2564.281, 2770.710 2566.321, 2780.001 2568.057 C 2804.905 2572.710, 2815.096 2576.460, 2847.146 2592.765 C 2857.791 2598.180, 2869.661 2604.049, 2873.524 2605.807 C 2877.387 2607.564, 2886.441 2612.522, 2893.644 2616.825 C 2907.812 2625.287, 2933.591 2636.179, 2964 2646.549 C 2973.075 2649.644, 2985.225 2654.673, 2991 2657.724 C 3022.130 2674.172, 3036.721 2681.355, 3047.343 2685.460 C 3066.985 2693.052, 3114.557 2708.848, 3130.500 2713.073 C 3138.750 2715.259, 3149.137 2718.780, 3153.583 2720.898 C 3162.482 2725.136, 3188.541 2742.197, 3208 2756.524 C 3224.356 2768.565, 3227.084 2770.213, 3241.012 2776.465 C 3256.002 2783.194, 3260.406 2786.230, 3292.180 2811.748 C 3299.057 2817.271, 3328.785 2849.391, 3334.636 2857.620 C 3339.406 2864.329, 3346.233 2878.030, 3350.434 2889.324 C 3353.952 2898.781, 3354.914 2903.792, 3358.050 2929 C 3361.780 2958.974, 3376.602 2979.149, 3397.685 2982.949 C 3420.976 2987.148, 3442.713 2969.442, 3448.570 2941.500 C 3449.854 2935.376, 3450.427 2924.939, 3451.011 2897 C 3451.839 2857.425, 3452.185 2854.820, 3457.789 2846 C 3464.757 2835.035, 3479.594 2829.847, 3512 2827.043 C 3518.875 2826.448, 3531.925 2824.640, 3541 2823.025 C 3550.075 2821.410, 3563.350 2819.602, 3570.500 2819.008 C 3584.046 2817.881, 3622.580 2810.605, 3634.573 2806.910 C 3638.383 2805.735, 3646 2802.983, 3651.500 2800.793 C 3668.504 2794.024, 3678.211 2792.956, 3703.696 2795.054 C 3722.896 2796.635, 3733.602 2798.539, 3754 2804 C 3764.175 2806.724, 3779.094 2810.315, 3787.153 2811.981 C 3795.212 2813.646, 3805.787 2816.177, 3810.653 2817.605 C 3837.890 2825.598, 3839.774 2825.914, 3866.757 2827.014 C 3887.870 2827.874, 3918.207 2831.184, 3936.126 2834.583 C 3940.458 2835.405, 3949.289 2837.684, 3955.751 2839.648 C 3962.213 2841.612, 3975.150 2844.935, 3984.500 2847.034 C 4008.949 2852.522, 4037.997 2861.715, 4065 2872.510 C 4099.834 2886.435, 4117.571 2890.957, 4146.216 2893.213 C 4169.131 2895.018, 4180.844 2892.643, 4190.077 2884.320 C 4198.506 2876.721, 4201.093 2865.668, 4197.002 2854.734 C 4193.131 2844.389, 4178.282 2829.603, 4162.119 2820.002 C 4153.534 2814.901, 4119.450 2800.199, 4106.866 2796.168 C 4101.663 2794.501, 4092.703 2791.948, 4086.954 2790.492 C 4081.204 2789.037, 4071.325 2786.270, 4065 2784.343 C 4058.675 2782.416, 4046.750 2779.281, 4038.500 2777.377 C 4030.250 2775.472, 4016.525 2771.730, 4008 2769.062 C 3999.475 2766.393, 3985.525 2762.833, 3977 2761.151 C 3968.475 2759.470, 3955.875 2756.307, 3949 2754.124 C 3942.125 2751.941, 3930.425 2748.502, 3923 2746.481 C 3907.474 2742.256, 3897.247 2738.230, 3880.930 2729.919 C 3865.293 2721.953, 3858.717 2717.113, 3856.053 2711.609 C 3853.534 2706.405, 3853.990 2703.342, 3857.831 2699.663 C 3863.771 2693.973, 3870.546 2692.765, 3909.127 2690.519 C 3923.632 2689.674, 3945.500 2688.305, 3957.723 2687.477 C 4007.932 2684.074, 4021.402 2684.371, 4048.383 2689.472 C 4072.666 2694.063, 4092.585 2696.322, 4108.500 2696.288 C 4145.134 2696.211, 4180.820 2685.933, 4195.989 2671.089 C 4203.306 2663.930, 4205.948 2658.541, 4205.978 2650.717 C 4206.033 2636.254, 4191.980 2623.364, 4170.311 2618.001 C 4166.015 2616.938, 4154.850 2615.172, 4145.500 2614.077 C 4136.150 2612.982, 4119.725 2610.971, 4109 2609.609 C 4076.407 2605.469, 4057.213 2604.792, 3984.500 2605.220 C 3919.420 2605.603, 3917.084 2605.684, 3903 2608.017 C 3889.123 2610.317, 3886.416 2610.422, 3840 2610.460 C 3796.917 2610.496, 3790.499 2610.296, 3782.535 2608.677 C 3758.672 2603.826, 3752.398 2593.386, 3766.224 2581.536 C 3772.469 2576.183, 3801.395 2561.938, 3817 2556.530 C 3833.151 2550.933, 3839.532 2547.330, 3846.271 2540 C 3853.501 2532.136, 3856.300 2525.486, 3856.793 2515 C 3857.494 2500.078, 3851.813 2489.986, 3839.227 2483.792 L 3832.538 2480.500 3816.019 2480.562 C 3801.104 2480.617, 3798.665 2480.880, 3790.899 2483.264 C 3776.659 2487.636, 3750.735 2499.330, 3735.676 2508.173 C 3718.764 2518.105, 3708.030 2523.491, 3694.330 2528.919 C 3669.914 2538.593, 3662.145 2539.405, 3600.625 2538.712 C 3540.805 2538.038, 3531.063 2536.750, 3504.371 2525.987 C 3497.416 2523.183, 3485.824 2519.318, 3478.613 2517.400 C 3461.659 2512.890, 3457.599 2510.954, 3444.967 2501.358 C 3430.074 2490.045, 3423.616 2485.808, 3413.442 2480.674 C 3397.207 2472.480, 3392.922 2471.225, 3371.936 2468.514 C 3359.681 2466.931, 3351.134 2464.470, 3345.149 2460.802 C 3343.142 2459.571, 3336.673 2453.966, 3330.773 2448.346 C 3324.873 2442.726, 3318.031 2436.741, 3315.569 2435.047 C 3313.107 2433.354, 3299.259 2426.313, 3284.796 2419.403 C 3242.336 2399.114, 3241.526 2398.698, 3217.500 2384.787 C 3183.927 2365.349, 3180.821 2362.965, 3166.959 2346 C 3156.168 2332.792, 3149.923 2327.054, 3131.500 2313.415 C 3110.544 2297.901, 3099.767 2286.953, 3081.680 2262.806 C 3056.177 2228.758, 3048.014 2223.484, 3017 2221.019 C 3000.192 2219.683, 2989.528 2217.648, 2980.500 2214.054 C 2927.970 2193.140, 2921.299 2189.363, 2907 2172.433 C 2895.503 2158.821, 2887.860 2153.696, 2867.822 2146.164 C 2853.307 2140.707, 2845.018 2136.312, 2833.527 2127.979 C 2828.042 2124.001, 2818.948 2117.655, 2813.317 2113.877 C 2800.274 2105.126, 2797.555 2102.701, 2788.343 2091.600 C 2778.582 2079.839, 2775.751 2077.315, 2762.500 2068.569 C 2740.452 2054.017, 2735.589 2044.321, 2735.632 2015 C 2735.666 1992.342, 2737.764 1986.483, 2752.674 1967.424 C 2765.512 1951.013, 2767.976 1945.460, 2771.043 1926.033 C 2773.950 1907.613, 2777.066 1901.774, 2791.918 1886.906 C 2798.288 1880.530, 2809.039 1870.912, 2815.810 1865.534 C 2832.431 1852.331, 2837.139 1845.806, 2843.918 1826.580 C 2848.650 1813.160, 2852.700 1806.220, 2860.010 1799 C 2863.630 1795.425, 2870.556 1790.025, 2875.401 1787 C 2891.653 1776.853, 2898.518 1771.193, 2906.151 1761.647 C 2922.554 1741.134, 2939.575 1724.266, 2954.323 1713.909 C 2963.502 1707.463, 2969.431 1705.394, 2987.198 1702.435 C 3002.103 1699.952, 3020.305 1694.628, 3064.068 1679.951 C 3073.731 1676.711, 3087.006 1672.737, 3093.568 1671.122 C 3100.131 1669.507, 3111.800 1666.543, 3119.500 1664.537 C 3130.794 1661.594, 3136.399 1660.719, 3148.500 1660.012 C 3156.750 1659.530, 3165.975 1658.607, 3169 1657.962 C 3175.628 1656.549, 3188.874 1650.524, 3197.902 1644.816 C 3201.531 1642.521, 3209.848 1637.789, 3216.385 1634.299 C 3222.922 1630.809, 3233.947 1624.171, 3240.885 1619.548 C 3249.155 1614.038, 3257.917 1609.256, 3266.323 1605.664 C 3273.376 1602.651, 3281.642 1598.529, 3284.693 1596.503 C 3292.378 1591.401, 3304.616 1580.509, 3324 1561.519 C 3333.075 1552.629, 3347.025 1539.872, 3355 1533.171 C 3362.975 1526.470, 3373.775 1517.145, 3379 1512.448 C 3388.402 1503.997, 3421.538 1480.099, 3432.191 1474.087 C 3435.227 1472.374, 3443.320 1468.581, 3450.177 1465.657 C 3470.189 1457.124, 3476.955 1451.774, 3497.803 1428 C 3518.086 1404.870, 3539.730 1382.786, 3546.103 1378.720 C 3549.071 1376.826, 3554.875 1373.808, 3559 1372.013 C 3563.125 1370.219, 3574.150 1365.241, 3583.500 1360.951 C 3608.347 1349.552, 3614.458 1347.627, 3626 1347.557 C 3636.890 1347.492, 3639.951 1348.351, 3659 1356.819 C 3675.392 1364.106, 3682.711 1368.787, 3689.783 1376.504 C 3696.171 1383.476, 3700.354 1390.891, 3702.547 1399.131 C 3704.339 1405.864, 3704.431 1424.960, 3702.750 1441.328 C 3700.714 1461.158, 3701.034 1469.652, 3704.042 1475.531 C 3706.793 1480.908, 3713.299 1486.077, 3719.823 1488.069 C 3721.845 1488.686, 3728.525 1489.428, 3734.667 1489.718 C 3744.184 1490.167, 3746.865 1489.932, 3752.815 1488.125 C 3767.676 1483.611, 3781.750 1468.434, 3786.342 1451.970 C 3788.985 1442.492, 3789.183 1433.393, 3787.463 1400.500 C 3785.327 1359.640, 3785.595 1352.811, 3789.590 1346.334 C 3793.389 1340.175, 3800.746 1335.669, 3810.896 1333.286 C 3822.036 1330.670, 3907.225 1330.647, 3932.500 1333.253 C 3941.850 1334.217, 3962.662 1335.689, 3978.749 1336.525 C 4004.284 1337.851, 4011.395 1338.610, 4034.749 1342.502 C 4049.462 1344.954, 4067.350 1348.545, 4074.500 1350.483 C 4081.650 1352.421, 4096.268 1356.279, 4106.984 1359.057 C 4117.701 1361.836, 4133.676 1366.311, 4142.484 1369.003 C 4151.293 1371.695, 4165.250 1375.305, 4173.500 1377.026 C 4181.750 1378.746, 4195.925 1382.579, 4205 1385.542 C 4214.075 1388.505, 4224.425 1391.646, 4228 1392.523 C 4236.751 1394.667, 4267.956 1395.645, 4278 1394.089 C 4292.474 1391.847, 4302.856 1384.926, 4307.736 1374.266 C 4309.813 1369.728, 4310.151 1367.704, 4309.834 1361.679 C 4309.354 1352.542, 4306.624 1346.809, 4298.739 1338.380 C 4291.643 1330.794, 4283.430 1325.190, 4268.415 1317.688 C 4241.143 1304.061, 4230.428 1300.720, 4199 1296.043 C 4176.656 1292.718, 4165.401 1290.027, 4151.369 1284.653 C 4146.347 1282.730, 4134.647 1278.842, 4125.369 1276.015 C 4104.523 1269.661, 4095.473 1265.368, 4081.059 1254.998 C 4061.274 1240.764, 4057.046 1238.756, 4039.259 1235.141 C 4033.626 1233.997, 4027.691 1232.374, 4026.069 1231.536 C 4019.649 1228.216, 4018.166 1222.085, 4022.750 1217.809 C 4030.185 1210.875, 4035.208 1210.064, 4077.500 1208.974 C 4126.872 1207.701, 4148.231 1206.493, 4163.500 1204.109 C 4170.650 1202.993, 4184.116 1201.604, 4193.425 1201.023 C 4202.734 1200.442, 4216.009 1199.088, 4222.925 1198.014 C 4229.841 1196.940, 4242.925 1195.597, 4252 1195.030 C 4277.073 1193.462, 4287.133 1192.270, 4316.296 1187.407 C 4352.201 1181.421, 4356.878 1181.056, 4398 1181.025 C 4437.042 1180.996, 4446.606 1180.361, 4474 1175.984 C 4498.519 1172.065, 4505.557 1170.445, 4512.604 1167.097 C 4529.607 1159.016, 4539.176 1140.931, 4533.560 1127.489 C 4529.544 1117.878, 4517.124 1109.667, 4502 1106.624 C 4482.926 1102.786, 4464.826 1102.462, 4390.106 1104.620 C 4372.285 1105.135, 4363.761 1104.896, 4348.369 1103.450 C 4330.713 1101.791, 4327.697 1101.757, 4313.764 1103.066 C 4305.369 1103.855, 4293.325 1104.496, 4287 1104.490 C 4277.145 1104.482, 4274.928 1104.173, 4271.500 1102.328 C 4266.363 1099.563, 4262.283 1095.172, 4257.039 1086.764 C 4249.525 1074.715, 4241.395 1069.267, 4224.500 1064.959 C 4200.053 1058.725, 4197.004 1051.329, 4208.028 1025 C 4214.556 1009.408, 4224.545 980.127, 4230.430 959.329 C 4232.894 950.623, 4236.301 939.450, 4238 934.500 C 4246.395 910.050, 4246.306 910.728, 4246.752 867.500 C 4247.527 792.378, 4243.711 766.831, 4226.580 732.447 C 4212.724 704.636, 4205.331 693.562, 4175.544 656 C 4155.673 630.943, 4133.736 608.168, 4111.500 589.509 C 4096.594 577.001, 4087.926 569.294, 4066.076 549.117 C 4018.954 505.606, 4003.776 495.621, 3959.500 479.010 C 3940.847 472.012, 3933.726 468.679, 3918.399 459.772 C 3900.344 449.281, 3894.747 446.592, 3884.742 443.608 C 3879.934 442.173, 3872.079 439.830, 3867.286 438.401 C 3850.137 433.286, 3833.879 423.823, 3798.054 398.102 C 3777.993 383.700, 3769.864 378.647, 3758.206 373.334 C 3748.307 368.823, 3721.808 354.161, 3711 347.214 C 3696.025 337.590, 3680.598 325.402, 3672.315 316.652 C 3659.409 303.017, 3654.733 292.046, 3645.977 254.851 C 3638.748 224.148, 3633.492 210.764, 3618.539 184.988 C 3601.318 155.303, 3596.153 149.936, 3551.500 115.326 C 3544.350 109.784, 3531.525 99.318, 3523 92.068 C 3496.419 69.463, 3488.770 65.241, 3462.309 58.578 C 3454.521 56.617, 3441.799 52.778, 3434.037 50.048 C 3414.327 43.114, 3407.486 41.336, 3391.847 39.080 C 3384.338 37.996, 3372.413 35.984, 3365.347 34.607 C 3352.781 32.160, 3336.984 30.723, 3332 31.575" stroke="none" fill="black" fill-rule="evenodd"/>
</svg>