<?xml version="1.0" encoding="UTF-8" standalone="no"?>
<!-- Created with Inkscape (http://www.inkscape.org/) -->

<svg
   xmlns:svg="http://www.w3.org/2000/svg"
   xmlns="http://www.w3.org/2000/svg"
   version="1.2"
   width="1043.1"
   height="940.57001"
   viewBox="0 0 1043.1 940.57"
   id="Layer_2"
   xml:space="preserve"
   style="overflow:inherit"><defs
   id="defs7" />
<path
   d="m 89.75,35.821 c 0.354,0 0.746,0.092 1.175,0.275 0.059,-0.29 0.167,-0.581 0.325,-0.875 -0.204,-0.263 -0.421,-0.562 -0.65,-0.9 0.167,-0.167 0.4,-0.3 0.7,-0.4 l 0.45,-0.1 c 0.133,0.106 0.25,0.198 0.35,0.275 0.126,-0.134 0.259,-0.268 0.4,-0.4 v -0.05 l 0.024,0.025 c 0.675,-0.638 1.55,-1.288 2.625,-1.95 1.187,-0.709 2.129,-1.093 2.825,-1.15 -0.118,-0.078 -0.243,-0.161 -0.375,-0.25 0.066,-0.067 0.35,-0.067 0.85,0 0.367,0.066 0.551,-0.15 0.551,-0.65 0,-0.034 -0.2,-0.2 -0.601,-0.5 -0.434,-0.333 -0.7,-0.617 -0.8,-0.85 0.431,0 1.289,0.217 2.575,0.65 0.193,-0.295 0.394,-0.604 0.6,-0.925 -0.7,-0.542 -1.092,-0.95 -1.175,-1.225 0.167,-0.167 0.4,-0.3 0.7,-0.4 l 0.45,-0.1 c 0.259,0.156 0.534,0.306 0.824,0.45 0.074,-0.12 0.149,-0.245 0.226,-0.375 -0.469,-0.293 -1.036,-0.652 -1.7,-1.075 -0.2,-0.267 0.116,-0.4 0.95,-0.4 0.22,0 0.687,0.133 1.399,0.4 0.137,-0.212 0.27,-0.429 0.4,-0.65 0.033,-0.054 0.066,-0.112 0.1,-0.175 -0.233,-0.213 -0.35,-0.355 -0.35,-0.425 0,-0.533 0.1,-0.817 0.3,-0.85 l 0.351,0.1 c 0.062,0.021 0.187,0.079 0.375,0.175 0.689,-1 1.681,-2.375 2.975,-4.125 0.61,0.2 1.027,0.3 1.25,0.3 0,-0.609 0.042,-1.143 0.125,-1.6 -0.409,-0.337 -0.817,-0.554 -1.225,-0.65 0.166,-0.233 0.666,-0.4 1.5,-0.5 0.023,0.016 0.049,0.033 0.074,0.05 0.146,-0.292 0.329,-0.517 0.551,-0.675 0.053,-0.049 0.111,-0.091 0.175,-0.125 0.8,-0.067 1.2,-0.233 1.2,-0.5 0,-1.367 0.783,-1.617 2.35,-0.75 l -0.1,-0.1 c -0.434,-1.833 0.283,-3.233 2.149,-4.2 2,-0.633 3.033,-0.95 3.101,-0.95 0.399,0 0.833,0.2 1.3,0.6 0.434,0.367 0.866,0.55 1.3,0.55 0.4,0 0.634,-0.184 0.7,-0.55 0.033,-0.4 0.267,-0.6 0.7,-0.6 0.5,0 0.85,0.117 1.05,0.35 0.1,0.233 0.2,0.367 0.3,0.4 l -0.1,-0.25 c 0,-1.3 0.767,-2.517 2.3,-3.65 1.2,-0.9 2.017,-1.35 2.45,-1.35 0.5,0 0.85,0.117 1.05,0.35 l 0.3,0.3 c 0.066,-1 0.667,-1.733 1.8,-2.2 1.167,-0.3 1.783,-0.45 1.851,-0.45 1.699,-0.967 3.366,-1.75 5,-2.35 3.233,-1.267 4.85,-1.067 4.85,0.6 0,0.533 -0.017,0.833 -0.05,0.9 -0.033,0.033 -0.101,0.066 -0.2,0.1 0.566,-0.034 1.217,0.15 1.95,0.55 0.633,0.4 0.983,0.6 1.05,0.6 0.3,0 0.866,-0.333 1.7,-1 0.833,-0.667 1.566,-1 2.2,-1 0.5,0 0.85,0.1 1.05,0.3 l 0.3,0.3 c -0.167,1 -0.2,1.55 -0.1,1.65 2.566,-1.1 3.983,-1.65 4.25,-1.65 0.15,0 0.292,0.017 0.425,0.05 1.065,-0.568 2.224,-1.052 3.475,-1.45 2.367,-0.733 4.3,-0.917 5.8,-0.55 1.767,0.433 2.65,1.55 2.65,3.35 0,0.133 -0.017,0.266 -0.05,0.4 0.821,-0.367 1.321,-0.55 1.5,-0.55 0.467,0 0.767,0.05 0.899,0.15 0.134,0.066 0.25,0.1 0.351,0.1 v 1.15 c -0.724,0.63 -1.299,1.097 -1.726,1.4 0.38,0.055 0.764,0.113 1.15,0.175 0.563,-0.182 1.223,-0.44 1.975,-0.775 1.667,-0.8 2.534,-1.2 2.601,-1.2 0.5,0 0.783,0.066 0.85,0.2 l 0.15,0.2 c 0,0.3 -0.084,0.65 -0.25,1.05 -0.167,0.333 -0.25,0.517 -0.25,0.55 0.467,-0.133 1.25,-0.45 2.35,-0.95 0.934,-0.433 1.483,-0.65 1.65,-0.65 0.533,0 0.833,0.083 0.899,0.25 0,0.2 0.051,0.367 0.15,0.5 -0.047,0.735 -0.48,1.51 -1.3,2.325 0.406,0.085 0.814,0.168 1.225,0.25 0.354,-0.158 0.745,-0.333 1.175,-0.525 1.867,-0.8 2.9,-1.2 3.101,-1.2 0.8,0 1.383,0.25 1.75,0.75 0,0.533 -0.167,1.033 -0.5,1.5 0.467,0 1.416,-0.367 2.85,-1.1 l 2.15,-1.15 c 0.5,0 0.783,0.066 0.85,0.2 l 0.15,0.2 v 1.5 c 0.467,-0.1 1.1,-0.15 1.899,-0.15 0.767,0 1.233,0.05 1.4,0.15 0,0.4 -0.134,0.816 -0.4,1.25 -0.233,0.367 -0.35,0.566 -0.35,0.6 2.7,-1.067 4.15,-1.6 4.35,-1.6 0.534,0 0.75,0.066 0.65,0.2 l -0.25,0.15 c 0.267,-0.1 0.667,-0.034 1.2,0.2 0.321,0.161 0.487,0.027 0.5,-0.4 v 0.35 c -0.967,0.733 -2.4,1.7 -4.3,2.9 -0.025,0.016 -0.051,0.033 -0.075,0.05 2.137,0.607 4.254,1.249 6.35,1.925 0.604,-0.466 1.212,-0.908 1.825,-1.325 4.667,-3.2 7,-2.883 7,0.95 0,0.367 -0.533,1.2 -1.6,2.5 -0.083,0.1 -0.166,0.191 -0.25,0.275 0.231,0.085 0.465,0.168 0.699,0.25 0.531,-0.339 1.164,-0.747 1.9,-1.225 2.333,-1.533 3.816,-2.3 4.45,-2.3 0.5,0 0.95,0.183 1.35,0.55 l 0.65,0.55 c 0.333,-0.767 0.566,-1.267 0.7,-1.5 0.166,-0.4 0.767,-0.6 1.8,-0.6 1.2,0 1.8,0.783 1.8,2.35 0,0.867 -0.5,1.95 -1.5,3.25 0.467,-0.1 1.733,-0.817 3.8,-2.15 2,-1.3 3.134,-1.95 3.4,-1.95 0.467,0 0.85,0.1 1.149,0.3 0.301,0.2 0.5,0.3 0.601,0.3 0.066,0.767 0.1,1.3 0.1,1.6 0.033,0.567 0.017,0.95 -0.05,1.15 l 1.4,-0.7 c 0.699,-0.367 1.3,-0.55 1.8,-0.55 1.066,0 1.684,0.433 1.85,1.3 -0.066,1 -0.1,1.617 -0.1,1.85 0.166,-0.033 0.566,-0.25 1.2,-0.65 0.566,-0.333 1.083,-0.5 1.55,-0.5 0.5,0 0.883,0.117 1.149,0.35 l 0.4,0.3 0.2,1.1 c -0.066,0.267 -0.217,0.617 -0.45,1.05 -0.167,0.367 -0.25,0.567 -0.25,0.6 0.822,-0.107 1.581,-0.149 2.275,-0.125 3.252,-2.066 5.244,-2.992 5.975,-2.775 -0.233,1.126 -0.783,2.284 -1.65,3.475 1.884,0.207 3.117,0.873 3.7,2 1.949,-0.716 2.933,-1.075 2.95,-1.075 l 0.2,0.35 c -0.938,0.66 -1.871,1.285 -2.8,1.875 0.033,0.196 0.05,0.404 0.05,0.625 0,0.767 -0.667,1.466 -2,2.1 -0.834,0.434 -2.483,1.233 -4.95,2.4 l 1,-0.1 c 0.233,-0.067 1.9,-0.65 5,-1.75 2.634,-0.934 4.2,-1.4 4.7,-1.4 0.533,0 0.967,0.2 1.3,0.6 0.3,0.367 0.45,0.75 0.45,1.15 0,0.5 -0.033,0.783 -0.101,0.85 -0.066,0 -0.1,0.017 -0.1,0.05 3.8,-0.434 5.7,0.316 5.7,2.25 0,0.6 -0.65,1.35 -1.95,2.25 l 0.2,0.35 0.55,0.5 c 0.6,-0.2 1.217,-0.284 1.85,-0.25 0.567,0.1 0.934,0.15 1.101,0.15 l 0.25,1.5 c -0.4,0.7 -1.2,1.35 -2.4,1.95 -0.666,0.333 -1.533,0.717 -2.6,1.15 l 0.05,0.15 c 1.5,-0.367 3.6,-0.867 6.3,-1.5 2.533,-0.6 3.834,-0.9 3.9,-0.9 0.533,0 0.85,0.117 0.95,0.35 l 0.05,0.3 0.05,1.1 c -0.6,0.5 -1.6,1.216 -3,2.15 h 0.75 c 0.3,-0.267 0.733,-0.5 1.3,-0.7 0.7,-0.3 1.334,-0.45 1.9,-0.45 0.533,0 0.816,0.05 0.85,0.15 l -0.1,0.1 v 0.75 c -0.134,0.1 -0.434,0.283 -0.9,0.55 -0.399,0.2 -0.6,0.35 -0.6,0.45 1.153,0.282 1.896,0.532 2.225,0.75 0.423,0.036 0.765,0.119 1.025,0.25 0.833,0.4 1.583,0.566 2.25,0.5 0.1,-0.3 0.149,-0.034 0.149,0.8 0,0.533 -0.05,0.783 -0.149,0.75 -0.033,0 -0.066,-0.05 -0.101,-0.15 -0.104,0.026 -0.93,0.676 -2.475,1.95 0.164,-0.066 0.34,-0.133 0.525,-0.2 1.566,-0.6 3.166,-0.9 4.8,-0.9 2,0 3,0.9 3,2.7 0,0.139 -0.033,0.289 -0.101,0.45 1.02,-0.109 2.103,-0.209 3.25,-0.3 4.067,-0.3 7.7,-0.316 10.9,-0.05 3.3,0.3 4.95,0.833 4.95,1.6 0,0.5 -0.316,1.066 -0.95,1.7 -0.7,0.7 -1.467,1.05 -2.3,1.05 l 0.25,0.75 1.5,0.1 c 3.133,-0.2 5.267,0.033 6.399,0.7 0.601,0.333 0.9,0.767 0.9,1.3 0,0.533 -0.1,0.9 -0.3,1.1 -0.134,0.1 -0.367,0.233 -0.7,0.4 0.3,0.167 0.5,0.333 0.6,0.5 l 0.101,0.15 c 2.333,0.066 4,0.267 5,0.6 1,0.3 1.767,0.85 2.3,1.65 -0.767,0.6 -1.533,1.05 -2.3,1.35 l -16.7,0.15 c 3.467,0.1 6.2,0.183 8.2,0.25 3.7,0.133 7.467,0.583 11.3,1.35 1,0.2 2.066,0.6 3.2,1.2 0.774,0.406 1.458,0.864 2.05,1.375 3.979,-0.006 6.463,0.302 7.45,0.925 -0.101,0.167 -0.3,0.333 -0.601,0.5 -0.267,0.133 -0.399,0.216 -0.399,0.25 -2.152,0.104 -4.103,0.205 -5.851,0.3 -0.198,0.155 -0.415,0.272 -0.649,0.35 -4.167,0.267 -7.483,0.683 -9.95,1.25 5.5,-0.267 8.983,-0.167 10.45,0.3 0.289,0.091 0.498,0.249 0.625,0.475 0.191,-0.041 0.383,-0.082 0.575,-0.125 4.1,-0.9 6.949,-1.417 8.55,-1.55 -1.005,0.568 -3.822,1.584 -8.45,3.05 0.344,0.068 0.728,0.185 1.15,0.35 0.8,0.333 1.383,0.5 1.75,0.5 l 3.8,-1.4 c 0.434,0 1.233,0.466 2.399,1.4 1.165,0.96 2.04,1.936 2.625,2.925 2.3,-0.792 3.625,-1.1 3.976,-0.925 -1.046,0.954 -2.537,1.962 -4.476,3.025 0.158,-0.077 0.316,-0.152 0.476,-0.225 3.866,-1.8 6.533,-2.7 8,-2.7 0.833,0 1.25,0.417 1.25,1.25 -0.367,0.566 -1.65,1.5 -3.851,2.8 -2.666,1.633 -4.383,2.75 -5.149,3.35 h 0.3 c 1.2,-0.867 2.184,-1.533 2.95,-2 1.399,-0.833 2.733,-1.25 4,-1.25 0.5,0 0.866,0.05 1.1,0.15 l 0.4,0.1 0.05,1 c -0.4,0.333 -1.45,0.967 -3.15,1.9 -1.393,0.762 -2.276,1.254 -2.649,1.475 1.282,-0.526 2.716,-1.051 4.3,-1.575 5.268,-1.703 9.192,-2.078 11.775,-1.125 0.836,-0.19 1.395,-0.248 1.675,-0.175 -0.263,0.438 -1.972,1.363 -5.125,2.775 -0.165,0.572 -0.439,1.147 -0.825,1.725 0.467,0.267 1.366,0.517 2.7,0.75 0.866,0.133 1.3,0.483 1.3,1.05 0,0.6 -0.167,1.033 -0.5,1.3 -0.767,0.533 -2.366,0.8 -4.8,0.8 -0.641,0 -1.766,-0.1 -3.375,-0.3 0.412,0.21 0.82,0.419 1.225,0.625 0.494,0.115 0.911,0.207 1.25,0.275 0.96,0.234 2.835,0.426 5.625,0.575 2.839,-0.157 5.03,-0.332 6.575,-0.525 0.333,-0.066 0.517,-0.066 0.55,0 0.066,0.233 0.334,0.467 0.8,0.7 -0.318,0.024 -1.452,0.149 -3.399,0.375 0.666,0.518 1,0.926 1,1.225 0,0.5 -0.066,0.8 -0.2,0.9 l -0.15,0.15 -2.149,0.1 1,0.15 c 6.2,0.1 9.883,0.4 11.05,0.9 0.366,0.167 0.517,0.383 0.45,0.65 -0.066,0.3 -0.066,0.483 0,0.55 0.081,-0.014 0.164,-0.031 0.25,-0.05 1.434,-0.333 2.017,-0.1 1.75,0.7 -0.167,0.233 -0.25,0.433 -0.25,0.6 l -2.65,0.2 c -0.425,0.031 -0.816,0.056 -1.175,0.075 -0.264,0.13 -0.405,0.205 -0.425,0.225 -1.767,-0.033 -3.283,-0.1 -4.55,-0.2 -0.148,-0.013 -0.29,-0.021 -0.426,-0.025 0.556,0.28 1.105,0.555 1.65,0.825 1.724,0.541 4.998,0.924 9.825,1.15 0.366,0.033 0.616,0.066 0.75,0.1 0.267,0.1 0.399,0.417 0.399,0.95 0,0.533 -0.1,0.867 -0.3,1 -0.133,0.067 -0.416,0.133 -0.85,0.2 1.2,0.033 3.467,0.783 6.8,2.25 3.233,1.4 4.85,2.283 4.85,2.65 0,0.3 0.2,0.817 0.601,1.55 0.344,0.555 0.552,0.972 0.625,1.25 5.814,1.018 10.105,2.251 12.875,3.7 -0.334,0.5 -0.5,0.833 -0.5,1 -1.842,-0.268 -4.042,-0.518 -6.601,-0.75 0.065,0.048 0.133,0.099 0.2,0.15 0.323,0.066 0.657,0.133 1,0.2 2.164,0.407 4.063,0.857 5.7,1.35 5.571,1.124 9.222,1.974 10.95,2.55 -0.101,0.133 -0.384,0.283 -0.851,0.45 -0.233,0.066 -0.449,0.117 -0.649,0.15 -0.963,-0.244 -2.388,-0.527 -4.275,-0.85 l -0.075,0.5 c -0.267,0.103 -0.533,0.186 -0.8,0.25 5.408,0.993 9.292,1.993 11.65,3 -3.426,-0.277 -6.409,-0.527 -8.95,-0.75 1.924,0.723 4.074,1.515 6.45,2.375 -0.044,0.166 -0.077,0.333 -0.101,0.5 1.233,0.354 1.851,0.612 1.851,0.775 0,0.533 -0.017,0.8 -0.05,0.8 -0.034,0.033 -0.051,0 -0.051,-0.1 -0.16,0.161 -0.51,0.319 -1.05,0.475 0.426,0.35 1.059,0.525 1.9,0.525 1.143,0 2.251,-0.167 3.325,-0.5 3.906,1.811 7.598,3.478 11.074,5 0.02,0.036 0.036,0.069 0.051,0.1 1.114,0.463 2.156,0.888 3.125,1.275 0.547,0.221 1.071,0.429 1.574,0.625 l -0.024,0.025 c 1.038,0.443 2.055,0.869 3.05,1.275 5.361,0.093 8.136,0.293 8.325,0.6 -0.304,0.424 -1.986,0.666 -5.05,0.725 0.491,0.201 0.974,0.393 1.449,0.575 0.186,0.044 0.369,0.086 0.551,0.125 1.8,-0.004 3.816,0.021 6.05,0.075 2.8,0.1 4.7,0.283 5.7,0.55 0.566,0.133 1.166,0.45 1.8,0.95 -0.167,0.233 -0.5,0.433 -1,0.6 -1.038,-0.113 -2.988,-0.213 -5.851,-0.3 0.953,0.325 1.87,0.675 2.75,1.05 -0.058,0.146 -0.166,0.304 -0.324,0.475 2.549,0.843 4.849,1.518 6.899,2.025 h 1.575 c 3.4,0.1 6.167,0.3 8.3,0.6 1.667,0.333 2.816,0.517 3.45,0.55 l -0.25,0.35 c -0.167,0.267 -0.3,0.433 -0.4,0.5 -0.166,0.1 -0.533,0.15 -1.1,0.15 -0.434,0 -1.217,-0.133 -2.35,-0.4 -0.115,-0.02 -0.232,-0.037 -0.351,-0.05 1.826,0.901 3.526,1.726 5.101,2.475 -0.034,0.15 -0.051,0.309 -0.051,0.475 0,0.833 0.334,1.417 1,1.75 0.4,0.233 0.867,0.35 1.4,0.35 1.019,0 1.969,-0.059 2.85,-0.175 1.672,0.732 3.105,1.323 4.301,1.775 0.199,-0.002 0.399,-0.002 0.6,0 3.233,0 5.017,0.05 5.35,0.15 -0.033,0.167 -0.199,0.35 -0.5,0.55 l -0.6,0.45 -1.5,0.025 c 1.499,0.538 3.133,1.129 4.9,1.775 0.566,0.076 1.158,0.151 1.774,0.225 1.071,-0.427 1.847,-0.936 2.325,-1.525 -0.6,-0.067 -0.9,-0.267 -0.9,-0.6 0.334,-0.267 0.634,-0.4 0.9,-0.4 0.1,0.066 0.2,0.133 0.3,0.2 0.134,0.133 0.2,0.45 0.2,0.95 0,0.697 -0.283,1.23 -0.85,1.6 1.615,0.16 3.356,0.31 5.225,0.45 -1.917,0.233 -2.875,1.017 -2.875,2.35 0,0.4 0.1,0.767 0.3,1.1 0.3,0.5 0.783,0.75 1.45,0.75 1.821,0 3.43,-0.133 4.825,-0.4 0.195,0.073 0.396,0.148 0.6,0.225 1.586,-0.477 2.479,-0.468 2.675,0.025 -0.04,0.04 -0.39,0.24 -1.05,0.6 1.878,0.706 3.836,1.448 5.875,2.225 1.18,-0.061 2.055,-0.103 2.625,-0.125 2.333,-0.066 3.85,0.2 4.55,0.8 -0.518,0.03 -1.91,0.188 -4.175,0.475 1.622,0.619 3.297,1.26 5.025,1.925 0.345,-0.003 0.695,-0.003 1.05,0 10.567,0.1 16.967,0.283 19.2,0.55 0.933,0.4 1.867,0.717 2.8,0.95 -1.467,-0.033 -2.283,0.017 -2.45,0.15 -0.3,0.3 -0.517,0.467 -0.65,0.5 -1.061,0.311 -3.936,0.536 -8.625,0.675 1.851,0.267 3.818,0.567 5.9,0.9 1.63,0.017 3.739,0.025 6.325,0.025 0.502,0.466 0.986,0.899 1.45,1.3 0.104,0.017 0.203,0.033 0.3,0.05 -0.079,0 -0.162,0 -0.25,0 1.645,1.377 3.094,2.36 4.35,2.95 3.101,1.434 7.65,2.45 13.65,3.05 0.834,0.2 1.367,0.55 1.6,1.05 l 0.15,0.75 -0.1,1.1 c -0.367,0.067 -1.283,0.167 -2.75,0.3 -1.334,0.1 -2.134,0.2 -2.4,0.3 l 1.5,0.15 c 1.233,0.4 5.233,1.183 12,2.35 4.834,0.833 7.25,1.8 7.25,2.9 0,1.267 6.25,2.85 18.75,4.75 12.5,1.933 18.75,3.65 18.75,5.15 0,0.5 -0.017,0.8 -0.05,0.9 -0.101,0.034 -0.167,0.1 -0.2,0.2 6.066,0.4 9.65,0.7 10.75,0.9 0.9,0.367 1.9,0.733 3,1.1 -0.066,0.667 -0.3,1.25 -0.7,1.75 -0.457,0.64 -1.099,0.974 -1.925,1 2.231,0.005 4.506,0.089 6.825,0.25 2.3,0.133 4.066,0.3 5.3,0.5 -0.367,0.267 -1.133,0.65 -2.3,1.15 -1.034,0.467 -1.634,0.717 -1.8,0.75 0.533,-0.033 1.816,-0.25 3.85,-0.65 1.9,-0.333 3.066,-0.5 3.5,-0.5 0.666,0 1.4,0.05 2.2,0.15 0.866,0.1 1.384,0.217 1.55,0.35 l -0.1,1.15 c -0.428,0.171 -1.262,0.563 -2.5,1.175 0.256,0.073 0.515,0.148 0.774,0.225 0.667,-0.156 1.459,-0.373 2.375,-0.65 0.067,-0.033 1.8,-0.617 5.2,-1.75 l 0.65,0.1 v 0.65 c -0.101,0.133 -0.334,0.283 -0.7,0.45 -0.366,0.167 -0.55,0.267 -0.55,0.3 1.441,-0.644 2.767,-0.694 3.975,-0.15 -0.818,0.142 -1.644,0.225 -2.475,0.25 -0.268,0.433 -0.434,0.767 -0.5,1 0.166,0.667 0.699,1 1.6,1 1.059,0 2.483,-0.308 4.275,-0.925 -1.674,0.779 -2.932,1.337 -3.775,1.675 l -0.1,0.4 c -0.367,0.233 -0.134,0.35 0.699,0.35 1.18,0 2.514,-0.408 4,-1.225 0.305,0.474 0.771,0.933 1.4,1.375 0.922,0.64 1.871,1.032 2.85,1.175 -0.031,0.027 -0.064,0.052 -0.1,0.075 2.691,0.294 4.158,0.478 4.4,0.55 0.69,0.159 1.099,0.576 1.225,1.25 0.334,0.062 0.676,0.129 1.025,0.2 l -0.15,0.35 -1.025,0.075 c -0.518,0.21 -1.109,0.568 -1.774,1.075 1.077,-0.038 2.177,-0.088 3.3,-0.15 2.566,-0.167 4.483,0.083 5.75,0.75 l -0.25,0.4 c 0.035,0 0.068,0 0.1,0 l 3.301,0.1 v 0.65 c -0.551,0.298 -1.426,0.598 -2.625,0.9 0.196,0.005 0.389,0.022 0.574,0.05 0.634,0.066 0.984,0.2 1.051,0.4 l -0.15,0.4 c -0.307,0.269 -1.523,0.902 -3.65,1.9 1.003,0.153 2.003,0.328 3,0.525 1.057,-0.217 1.939,-0.325 2.65,-0.325 0.181,0 0.355,0.033 0.525,0.1 1.391,-0.449 3.299,-1.266 5.725,-2.45 -0.233,-0.267 -0.35,-0.517 -0.35,-0.75 0.166,0 0.35,0.117 0.55,0.35 0.233,0.2 0.384,0.417 0.45,0.65 -0.371,0.743 -1.238,1.418 -2.601,2.025 0.163,0.054 0.579,0.262 1.25,0.625 0.601,0.333 1.634,0.317 3.101,-0.05 v 0.75 c -1.436,1.021 -3.328,2.104 -5.676,3.25 l 0.025,0.025 c 0.703,-0.174 1.403,-0.365 2.1,-0.575 0.4,-0.147 0.85,-0.313 1.351,-0.5 2.066,-0.767 3.417,-1.117 4.05,-1.05 l 0.65,0.1 v 0.65 c -1.005,0.355 -1.946,0.689 -2.825,1 -0.72,0.405 -1.61,0.822 -2.675,1.25 -0.166,0.064 -0.332,0.122 -0.5,0.175 0.225,0.104 0.449,0.204 0.675,0.3 0.493,-0.134 1.019,-0.275 1.575,-0.425 1.311,-0.36 2.494,-0.651 3.55,-0.875 0.472,-0.217 0.821,-0.325 1.05,-0.325 0.129,0 0.254,0.008 0.375,0.025 1.29,-0.25 2.332,-0.375 3.125,-0.375 0.029,0 0.062,0.008 0.1,0.025 0.101,-0.188 0.15,-0.33 0.15,-0.425 0,-0.5 -0.066,-0.8 -0.2,-0.9 -0.1,-0.1 -0.149,-0.167 -0.149,-0.2 0.232,0 0.449,0.133 0.649,0.4 0.233,0.333 0.351,0.784 0.351,1.35 0,0.054 -0.009,0.113 -0.025,0.175 0.111,0.081 0.236,0.172 0.375,0.275 0.6,0.467 0.733,0.683 0.4,0.65 l -1.5,1.5 c 0.533,-0.033 1.583,-0.467 3.149,-1.3 1.467,-0.733 2.366,-1.083 2.7,-1.05 l 0.65,0.1 v 0.65 l -4.726,2.35 c 0.163,0.052 0.321,0.11 0.476,0.175 0.966,-0.164 1.749,-0.289 2.35,-0.375 1.233,-0.2 2.367,-0.3 3.4,-0.3 v 0.75 l -1.5,1.5 c 0.033,0.067 0.449,-0.017 1.25,-0.25 0.766,-0.233 1.3,-0.433 1.6,-0.6 0.267,0.133 0.45,0.3 0.55,0.5 l 0.101,0.25 -0.65,0.75 c 1.867,-0.4 3.633,-0.3 5.3,0.3 1.333,0.7 2.034,1.05 2.101,1.05 1.399,0 2.434,-0.417 3.1,-1.25 0.2,0.167 0.35,0.35 0.45,0.55 l 0.05,0.2 c -0.176,0.352 -0.643,0.777 -1.4,1.275 0.844,0.05 1.693,0.092 2.551,0.125 0.053,0.021 0.103,0.046 0.149,0.075 -0.018,0.069 -0.034,0.127 -0.05,0.175 0,0.167 0.25,0.25 0.75,0.25 0.073,0 0.174,-0.008 0.3,-0.025 1.451,0.576 2.926,1.176 4.425,1.8 -0.334,0.148 -0.658,0.306 -0.975,0.475 -0.033,0.233 -0.033,0.4 0,0.5 0.023,0.114 0.164,0.189 0.425,0.225 -0.198,0.35 0.076,0.525 0.825,0.525 0.642,0 1.575,-0.15 2.8,-0.45 1.22,0.511 2.437,1.027 3.65,1.55 -1.3,1.178 -1.95,1.911 -1.95,2.2 0,0.3 0.117,0.617 0.35,0.95 0.301,0.4 0.684,0.6 1.15,0.6 0.73,0 2.264,-0.658 4.6,-1.975 0.688,0.3 1.372,0.6 2.051,0.9 -1.39,1.334 -2.473,2.526 -3.25,3.575 0.066,0.267 0.399,0.433 1,0.5 1.577,-0.71 3.327,-1.626 5.25,-2.75 0.861,0.385 1.72,0.769 2.574,1.15 -0.479,0.646 -0.753,1.229 -0.824,1.75 -0.367,0.233 -0.134,0.35 0.699,0.35 1.023,0 2.123,-0.217 3.301,-0.65 1.074,0.495 2.142,0.995 3.199,1.5 -0.434,0.582 -0.649,1.165 -0.649,1.75 0,0.9 0.35,1.583 1.05,2.05 0.533,0.333 1.117,0.5 1.75,0.5 1.261,0 2.535,-0.492 3.825,-1.475 1.821,0.876 3.63,1.76 5.425,2.65 0.842,-0.409 1.425,-0.801 1.75,-1.175 h 0.75 c 0.1,0.2 0.166,0.35 0.2,0.45 0.033,0.133 0.05,0.467 0.05,1 0,0.283 -0.133,0.575 -0.4,0.875 0.373,0.193 0.748,0.385 1.125,0.575 0.896,-0.188 1.871,-0.338 2.926,-0.45 3.732,-0.4 5.6,0.066 5.6,1.4 0,0.533 -0.05,0.817 -0.15,0.85 l -0.149,-0.1 c -0.881,0.279 -1.931,0.579 -3.15,0.9 1.479,0.763 2.945,1.529 4.4,2.3 2.175,1.154 4.225,2.263 6.149,3.325 0.064,-0.01 0.132,-0.018 0.2,-0.025 2.2,-0.2 4.017,0.133 5.45,1 -0.404,-0.088 -1.546,0.004 -3.425,0.275 1.124,0.623 2.198,1.231 3.225,1.825 0.496,-0.06 1.013,-0.094 1.55,-0.1 1.601,0 4.066,0.133 7.4,0.4 0.2,0.967 0.066,1.684 -0.4,2.15 -0.455,0.438 -1.422,0.754 -2.899,0.95 0.685,0.43 1.335,0.847 1.95,1.25 4.137,0.016 6.803,0.149 8,0.4 1.232,0.233 1.85,0.817 1.85,1.75 0,0.633 -0.5,1.083 -1.5,1.35 -0.674,0.173 -1.674,0.298 -3,0.375 0.822,0.685 1.488,1.31 2,1.875 0.283,0.313 0.574,0.63 0.875,0.95 3.15,-0.167 4.942,-0.233 5.375,-0.2 -0.1,0.467 -0.367,0.9 -0.8,1.3 -0.593,0.483 -1.476,0.808 -2.65,0.975 0.077,0.074 0.152,0.149 0.226,0.225 1.197,-0.059 2.555,0.007 4.074,0.2 4.467,0.6 7.018,1.333 7.65,2.2 l -0.15,0.75 c -0.166,0.167 -0.616,0.333 -1.35,0.5 -0.7,0.167 -1.367,0.25 -2,0.25 -1.709,-0.064 -3.268,-0.14 -4.675,-0.225 1.407,1.433 2.899,2.917 4.475,4.45 0.56,-0.055 1.126,-0.113 1.7,-0.175 1.3,-0.1 2.166,0.167 2.6,0.8 -0.209,0.388 -1.008,0.788 -2.399,1.2 0.479,0.455 0.964,0.913 1.45,1.375 1.092,0.113 1.925,0.304 2.5,0.575 0.732,0.367 1.1,0.934 1.1,1.7 0,0.289 -0.025,0.505 -0.075,0.65 0.462,0.055 0.954,0.138 1.476,0.25 4.232,0.867 6.35,2.183 6.35,3.95 0,0.533 -0.133,1.017 -0.4,1.45 -0.197,0.342 -0.464,0.617 -0.8,0.825 l 0.025,0.025 c 0.188,0.827 0.722,2.01 1.6,3.55 0.224,0.051 0.448,0.101 0.675,0.15 4.768,1.033 7.15,2 7.15,2.9 0,0.767 -0.166,1.267 -0.5,1.5 -0.646,0.448 -1.922,0.731 -3.825,0.85 0.178,0.253 0.403,0.57 0.675,0.95 1.668,-0.199 2.602,-0.232 2.801,-0.1 0.066,0.067 0.066,0.217 0,0.45 -0.033,0.267 0.083,0.467 0.35,0.6 -0.759,0.533 -1.301,0.917 -1.625,1.15 0.457,0.637 0.975,1.354 1.55,2.15 1.292,0.375 2.4,1.025 3.325,1.95 l -0.15,0.75 c -0.1,0.233 -0.166,0.4 -0.199,0.5 -0.074,0.074 -0.258,0.125 -0.551,0.15 0.592,0.817 1.226,1.692 1.9,2.625 1.062,-0.009 2.113,0.166 3.15,0.525 2.268,0.056 3.867,0.339 4.8,0.85 0.7,0.4 0.966,0.85 0.8,1.35 0,0.05 -0.283,0.325 -0.85,0.825 1.006,0.976 1.922,2.084 2.75,3.325 0.8,1.2 1.199,1.967 1.199,2.3 0,0.633 1.268,1.95 3.801,3.95 2.566,2 3.85,4 3.85,6 -0.1,0.067 -0.684,0.517 -1.75,1.35 h -4.05 c 1.013,1.745 1.896,3.379 2.649,4.9 0.167,-0.167 0.417,-0.467 0.75,-0.9 0.301,-0.4 0.684,-0.817 1.15,-1.25 2.2,0.867 3.35,2.5 3.45,4.9 0.032,1.274 0.048,3.158 0.05,5.65 0.037,-2.033 0.619,-3.05 1.75,-3.05 0.5,0 0.867,0.2 1.1,0.6 0.167,0.3 0.467,1.017 0.9,2.15 -0.133,0.133 -0.517,-0.117 -1.15,-0.75 -0.666,1.033 -1.1,2.683 -1.3,4.95 -0.233,2.233 -0.716,3.917 -1.45,5.05 -0.205,-0.021 -0.396,-0.062 -0.574,-0.125 0.39,2.375 0.814,5.016 1.274,7.925 0.229,0.026 0.462,0.06 0.7,0.1 l 0.05,-0.2 c 0.034,-0.033 0.05,0.217 0.05,0.75 0,0.5 -0.116,0.867 -0.35,1.1 -0.045,0.045 -0.095,0.087 -0.15,0.125 0.158,0.966 0.316,1.958 0.476,2.975 0.498,0.207 0.932,0.474 1.3,0.8 0.879,-0.164 1.453,-0.23 1.725,-0.2 l 0.15,1.5 c -0.304,0.304 -0.611,0.562 -0.925,0.775 2.017,-0.6 3.024,0.042 3.024,1.925 -0.616,1.753 -1.666,3.003 -3.149,3.75 0.016,0.013 0.032,0.03 0.05,0.05 -0.127,0.126 -0.377,0.243 -0.75,0.35 0.045,0.317 0.086,0.633 0.125,0.95 1.09,-0.093 2.048,0.023 2.875,0.35 -0.504,0.598 -1.162,1.089 -1.975,1.475 0.574,0.345 1.183,0.72 1.824,1.125 -0.133,0.2 -0.616,0.4 -1.449,0.6 -0.243,0.061 -0.477,0.11 -0.7,0.15 0.034,0.235 0.067,0.468 0.1,0.7 0.495,-0.105 0.995,-0.172 1.5,-0.2 1.866,-0.067 2.8,0.5 2.8,1.7 0,0.5 -0.05,0.767 -0.149,0.8 h -0.101 c -0.408,-0.088 -1.176,-0.021 -2.3,0.2 0.2,0.13 0.3,0.247 0.3,0.35 0,0.5 -0.066,0.833 -0.199,1 l -0.15,0.2 c -0.381,0.047 -0.74,0.089 -1.075,0.125 0.013,0.12 0.03,0.236 0.05,0.35 0.39,-0.174 0.748,-0.316 1.075,-0.425 0.634,-0.233 1.483,-0.417 2.55,-0.55 l 0.15,0.4 c -0.604,0.906 -1.188,1.539 -1.75,1.9 l 1.75,1.1 c -0.1,0.133 -0.3,0.283 -0.6,0.45 -0.268,0.167 -0.4,0.267 -0.4,0.3 -0.766,0.153 -1.533,0.236 -2.3,0.25 0.044,0.306 0.085,0.606 0.125,0.9 3.183,0.393 4.774,1.259 4.774,2.6 0,0.533 -0.333,1.033 -1,1.5 -0.737,0.492 -1.779,0.817 -3.125,0.975 0.184,1.708 0.275,2.916 0.275,3.625 0,5.024 -0.316,10.791 -0.95,17.3 0.467,1.435 0.7,2.802 0.7,4.1 0,0.444 -0.275,1.078 -0.825,1.9 0.717,2.241 1.075,4.408 1.075,6.5 0,0.267 -0.117,0.617 -0.35,1.05 -0.279,0.457 -0.613,0.74 -1,0.85 0.967,2.362 1.449,3.928 1.449,4.7 0,0.233 -0.199,0.517 -0.6,0.85 -0.223,0.159 -0.539,0.367 -0.95,0.625 0.669,1.069 1.436,2.327 2.3,3.775 -0.232,0.233 -0.6,0.433 -1.1,0.6 -0.934,0.049 -2.101,-0.651 -3.5,-2.1 -0.188,1.407 -0.379,2.882 -0.575,4.425 1.136,0.804 2.328,1.445 3.575,1.925 0.1,-0.033 0.184,-0.15 0.25,-0.35 0.1,-0.233 0.184,-0.4 0.25,-0.5 0.066,0.133 0.2,0.3 0.4,0.5 0.133,0.233 0.199,0.617 0.199,1.15 0,0.5 -0.05,0.767 -0.149,0.8 -0.067,0.066 -0.101,0.117 -0.101,0.15 l -2.85,0.4 c -0.527,-0.09 -1.186,-0.398 -1.975,-0.925 -0.067,0.51 -0.134,1.027 -0.2,1.55 1.882,1.521 3.474,2.429 4.774,2.725 -0.3,0.5 -0.666,0.833 -1.1,1 -1.154,0 -2.453,-0.475 -3.9,-1.425 -0.048,0.86 -0.081,1.81 -0.1,2.85 0.096,0.059 0.195,0.118 0.3,0.175 1.2,0.667 2.967,1.466 5.3,2.4 -0.833,0.4 -1.399,0.65 -1.699,0.75 -0.4,0.167 -0.867,0.25 -1.4,0.25 -0.805,0 -1.646,-0.217 -2.525,-0.65 0.01,0.37 0.019,0.753 0.025,1.15 3.834,1.326 5.75,2.242 5.75,2.75 0,1.5 -1.75,2.25 -5.25,2.25 -0.119,0 -0.236,0 -0.35,0 0.145,4.916 0.096,8.632 -0.15,11.15 -0.105,1.1 -0.963,3.867 -2.575,8.3 -1.397,1.94 -2.755,4.107 -4.075,6.5 -1.333,2.434 -2,3.917 -2,4.45 0,1.167 0.717,1.75 2.15,1.75 0.6,0 1.233,-0.3 1.9,-0.9 0.105,-0.106 0.206,-0.207 0.3,-0.3 0.017,0.198 0.034,0.381 0.05,0.55 h -0.225 c 0.056,0.495 0.105,0.97 0.149,1.425 0.841,-0.64 1.282,-0.981 1.325,-1.025 0,0.033 0.117,0.117 0.35,0.25 0.301,0.133 0.518,0.267 0.65,0.4 -0.096,0.576 -0.787,1.509 -2.075,2.8 0.116,1.419 0.175,2.519 0.175,3.3 0,0.3 -0.083,1.083 -0.25,2.35 0.102,0.813 0.21,1.68 0.325,2.601 1.033,-0.339 1.808,-0.488 2.325,-0.45 v 1.15 c -0.871,0.5 -1.572,0.899 -2.1,1.199 0.035,0.249 0.068,0.499 0.1,0.75 0,0.534 -0.1,1.101 -0.3,1.7 -0.101,0.367 -0.25,0.816 -0.45,1.351 l -0.475,-0.101 c 0.149,1.451 0.225,2.318 0.225,2.601 0,0.833 -0.166,1 -0.5,0.5 -0.155,-0.135 -0.297,-0.252 -0.425,-0.351 0.195,0.958 0.354,1.708 0.475,2.25 3.058,-0.561 5.124,-0.41 6.2,0.45 -0.834,0.967 -2.55,1.767 -5.15,2.4 -0.238,0.057 -0.471,0.106 -0.699,0.149 0.186,0.554 0.36,1.079 0.524,1.575 0.229,-0.019 0.554,-0.044 0.976,-0.075 0.934,0 1.583,0.117 1.949,0.351 -0.438,0.512 -1.214,1.045 -2.324,1.6 0.273,0.908 0.489,1.675 0.649,2.3 0.035,0.07 0.068,0.137 0.101,0.2 0.386,0.494 0.777,1.011 1.175,1.55 3.267,4.4 4.899,7.983 4.899,10.75 0,0.5 -0.066,0.767 -0.199,0.8 -0.234,-0.033 -0.45,-0.017 -0.65,0.051 -1,-0.434 -1.584,-0.65 -1.75,-0.65 -0.143,-1.854 -1.543,-4.562 -4.2,-8.125 0.536,2.802 1.077,5.377 1.625,7.725 0.595,0.481 1.22,0.998 1.875,1.551 3.2,2.666 4.8,4.149 4.8,4.449 0,0.334 -0.133,0.617 -0.399,0.851 -0.028,0 -0.37,0.225 -1.025,0.675 1.05,1.313 1.575,2.022 1.575,2.125 0,0.833 -0.25,1.083 -0.75,0.75 -1.197,-1.286 -2.306,-2.479 -3.325,-3.575 -0.386,-0.233 -0.786,-0.492 -1.2,-0.774 0.52,1.812 1.045,3.421 1.575,4.824 -0.235,0.389 -0.535,0.872 -0.899,1.45 2.8,0.283 4.199,1.025 4.199,2.226 0,0.333 -0.583,0.75 -1.75,1.25 -0.58,0.261 -1.223,0.478 -1.925,0.649 0.63,0.179 1.154,0.462 1.575,0.851 -1.166,1.166 -2.816,2.166 -4.95,3 -0.858,0.321 -1.742,0.589 -2.649,0.8 -0.525,0.826 -1.075,1.693 -1.65,2.6 -0.265,0.417 -0.523,0.825 -0.775,1.226 4.684,0.488 7.025,1.247 7.025,2.274 0,0.043 0,0.084 0,0.125 0.137,-0.094 0.254,-0.186 0.35,-0.274 0.167,0.033 0.316,0.199 0.45,0.5 0.134,0.267 0.2,0.517 0.2,0.75 -0.8,0.566 -1.8,1.1 -3,1.6 -1.531,0.612 -3.814,1.021 -6.85,1.225 1.104,0.622 2.138,1.297 3.1,2.025 -0.6,0.7 -1.066,1.15 -1.4,1.35 -0.154,0.104 -0.32,0.195 -0.5,0.275 1.78,0.549 3.33,1.141 4.65,1.775 l -0.35,0.3 c 1.809,-0.168 2.959,0.015 3.449,0.55 -1.182,0.666 -2.373,1.282 -3.574,1.85 0.044,0.085 0.102,0.152 0.175,0.2 0.033,0.033 0.05,0.283 0.05,0.75 0,0.528 -0.45,1.045 -1.35,1.55 2.931,0.401 6.447,1.219 10.55,2.45 6.7,2 12.466,4.15 17.3,6.45 2.434,1.2 8.184,3.2 17.25,6 7.967,2.434 13.633,4.767 17,7 0.559,0.374 1.125,0.757 1.7,1.15 0.79,0.32 1.607,0.653 2.45,1 -0.101,0.133 -0.167,0.283 -0.2,0.449 -0.032,0.032 -0.082,0.058 -0.15,0.075 1.505,1.144 3.047,2.377 4.625,3.7 1.268,0.353 2.626,0.728 4.075,1.125 -0.166,0.267 -0.3,0.434 -0.4,0.5 -0.166,0.1 -0.533,0.15 -1.1,0.15 -0.166,0 -0.34,-0.009 -0.525,-0.025 1.147,1.022 2.314,2.089 3.5,3.2 2.764,1.666 4.605,2.724 5.525,3.175 -0.166,0.267 -0.666,0.483 -1.5,0.65 -0.04,-0.02 -0.082,-0.036 -0.125,-0.051 1.277,1.263 2.568,2.579 3.875,3.95 4.924,1.586 8.057,2.652 9.4,3.2 -0.87,0.497 -1.678,0.806 -2.426,0.925 3.483,1.76 6.158,3.284 8.025,4.575 -0.233,0.267 -0.65,0.483 -1.25,0.65 -2.434,-0.857 -4.85,-1.782 -7.25,-2.775 0.395,0.375 0.785,0.742 1.175,1.1 1.941,0.906 4.017,1.965 6.226,3.176 1.151,0.426 2.385,0.893 3.699,1.399 1.422,0.542 2.756,1.051 4,1.525 0.629,-0.076 1.146,-0.052 1.551,0.075 -0.526,-0.059 -0.901,-0.025 -1.125,0.1 8.149,3.186 12.225,5.036 12.225,5.55 0,0.5 -0.066,0.783 -0.2,0.851 -0.1,0.066 -0.149,0.116 -0.149,0.149 l -0.75,0.125 c -0.354,0.316 -1.07,0.476 -2.15,0.476 -0.656,0 -1.447,-0.117 -2.375,-0.351 -0.366,0.167 -0.824,0.25 -1.375,0.25 -0.262,0 -0.545,-0.017 -0.85,-0.05 1.299,0.718 2.766,1.525 4.399,2.425 3.074,0.831 5.024,1.123 5.851,0.875 l 0.1,0.75 c -0.425,0.255 -1.008,0.488 -1.75,0.7 5.598,3.062 12.646,6.896 21.15,11.5 0.584,0.317 1.159,0.634 1.725,0.95 2.131,0.326 3.59,0.609 4.375,0.85 -0.166,0.233 -0.666,0.483 -1.5,0.75 -0.059,-0.017 -0.175,-0.033 -0.35,-0.05 1.053,1.002 2.436,2.269 4.149,3.8 2.521,0.688 5.521,1.521 9,2.5 -0.1,0.233 -0.316,0.684 -0.649,1.351 -1.285,0.235 -2.385,0.427 -3.301,0.574 1.074,0.905 2.059,1.722 2.95,2.45 4.733,0.846 7.101,1.737 7.101,2.675 0,0.834 -0.084,1.017 -0.25,0.551 -0.601,0.267 -1.018,0.449 -1.25,0.55 -0.142,0.047 -0.291,0.089 -0.45,0.125 0.226,0.13 0.426,0.238 0.6,0.325 10.336,5.792 17.886,10.009 22.65,12.649 0.755,0.843 1.455,1.676 2.1,2.5 4.634,5.9 6.95,12.167 6.95,18.8 0,8.567 -1.733,16.2 -5.2,22.9 -1.267,2.434 -7.033,11.217 -17.3,26.35 -1.186,1.746 -2.377,3.429 -3.575,5.051 -1.224,0.834 -2.682,1.983 -4.375,3.449 -1.933,1.634 -5.216,4.567 -9.85,8.801 -4.366,3.933 -8.017,6.966 -10.95,9.1 -10.562,5.358 -17.896,9.65 -22,12.875 -0.291,0.076 -0.582,0.151 -0.875,0.225 -0.092,0.241 -0.184,0.483 -0.275,0.726 -4.5,3.889 -6.75,8.247 -6.75,13.075 0,0.065 0.009,0.132 0.025,0.199 -1.301,2.048 -2.592,3.798 -3.875,5.25 -1.066,1.167 -2.633,3.117 -4.7,5.851 -1.374,1.576 -2.773,2.793 -4.2,3.649 -0.282,0.426 -0.565,0.842 -0.85,1.25 -2.505,3.591 -5.096,6.282 -7.775,8.075 -1.673,3.348 -4.581,5.439 -8.725,6.275 -1.064,1.452 -2.016,2.985 -2.85,4.6 -1.167,2.2 -2.217,4.8 -3.15,7.8 -1.967,5.9 -5.35,12.717 -10.15,20.45 -0.253,0.411 -0.494,0.812 -0.725,1.2 -3.021,2.4 -5.896,3.6 -8.625,3.6 -4.967,0 -8.7,-0.75 -11.2,-2.25 -2.366,-1.399 -3.55,-3.399 -3.55,-6 0,-3.066 0.45,-5.566 1.35,-7.5 0.601,-1.333 1.717,-2.883 3.351,-4.649 4.399,-4.601 7.583,-9.55 9.55,-14.851 0.467,-1.267 0.834,-3.666 1.1,-7.199 0.143,-1.837 0.31,-3.437 0.5,-4.801 -3.954,-0.035 -7.429,-0.119 -10.425,-0.25 -0.248,0.599 -0.532,1.266 -0.85,2 -3.483,1.602 -5.226,4.435 -5.226,8.5 0,2.967 -1.333,6.317 -4,10.051 -0.599,0.823 -1.199,1.606 -1.8,2.35 -0.897,0.452 -1.831,0.818 -2.8,1.1 -0.533,0.167 -2.166,1.65 -4.9,4.45 -0.179,0.189 -0.354,0.373 -0.524,0.55 -0.363,0.63 -0.788,1.297 -1.275,2 -2.667,3.834 -6.267,5.75 -10.8,5.75 -1.533,0 -3.184,-0.5 -4.95,-1.5 -2.2,-1.233 -3.3,-2.733 -3.3,-4.5 0,-1.267 1.133,-3.066 3.4,-5.399 0.626,-0.645 1.268,-1.253 1.925,-1.825 0.466,-1.299 0.958,-2.599 1.475,-3.9 2.181,-2.985 4.349,-7.594 6.5,-13.824 0.05,-0.145 0.1,-0.286 0.15,-0.426 3.78,-7.097 7.546,-12.547 11.3,-16.35 0,-0.038 0,-0.08 0,-0.125 0,-2.259 2.925,-10.518 8.775,-24.775 0.075,-0.109 0.15,-0.218 0.225,-0.324 2.334,-3.334 4.7,-7.084 7.1,-11.25 2.301,-3.534 4.15,-6.483 5.551,-8.851 2.633,-4.467 3.949,-7.633 3.949,-9.5 0,-2.934 -1.116,-5.55 -3.35,-7.85 -1.514,-1.582 -3.355,-2.649 -5.525,-3.2 -1.38,-0.892 -2.871,-1.691 -4.475,-2.4 -1.838,-0.819 -3.48,-1.36 -4.925,-1.625 l -0.025,-0.024 c -0.019,0.316 -0.036,0.601 -0.05,0.85 l -0.5,-0.149 c -0.027,-0.447 -0.053,-0.847 -0.075,-1.2 -0.192,-0.148 -0.385,-0.299 -0.575,-0.45 -0.145,-0.114 -0.285,-0.231 -0.425,-0.35 -0.185,0.647 -0.409,1.198 -0.675,1.649 l -0.4,-0.25 v -2.25 c -0.111,-0.089 -0.22,-0.18 -0.324,-0.274 -0.086,0.587 -0.178,1.045 -0.275,1.375 -0.2,-0.233 -0.383,-0.551 -0.55,-0.95 -0.2,-0.467 -0.317,-0.733 -0.351,-0.8 0,1.5 -0.083,2.633 -0.25,3.399 l -0.85,-0.149 c -0.166,-2.134 -0.55,-3.884 -1.15,-5.25 0,0.033 0.018,0.6 0.051,1.699 0.033,0.667 -0.268,1.184 -0.9,1.551 -0.2,-0.034 -0.4,-0.134 -0.6,-0.301 -0.167,-0.133 -0.268,-0.199 -0.301,-0.199 v -3.601 c -0.1,0.267 -0.149,0.483 -0.149,0.65 -0.067,0.166 -0.384,0.533 -0.95,1.1 -0.5,-0.267 -0.8,-0.399 -0.9,-0.399 -0.055,-1.457 -0.139,-2.782 -0.25,-3.976 -0.299,-0.242 -0.591,-0.476 -0.875,-0.7 -0.248,1.117 -1.073,1.676 -2.475,1.676 -0.633,0 -1.434,-1.017 -2.4,-3.051 -0.496,-1.129 -0.887,-2.028 -1.175,-2.699 -1.64,0.195 -3.747,-0.446 -6.325,-1.926 -3.396,-0.29 -6.43,-1.348 -9.1,-3.175 -2.033,-1.362 -3.549,-2.954 -4.55,-4.774 -0.3,-0.137 -0.601,-0.271 -0.9,-0.4 -0.067,0.588 -0.584,1.062 -1.55,1.425 -0.8,-0.166 -1.316,-0.6 -1.55,-1.3 -0.091,-0.73 -0.225,-1.264 -0.4,-1.6 -0.05,-0.021 -0.101,-0.047 -0.149,-0.075 -1.199,0.407 -2.766,-0.243 -4.7,-1.95 -4.782,-1.944 -9.433,-3.736 -13.95,-5.375 -1.314,-0.475 -2.615,-0.958 -3.9,-1.45 -0.015,0.658 -0.098,0.775 -0.25,0.351 l -1.1,0.399 c -6.3,-0.767 -12.483,-3.666 -18.55,-8.7 -0.541,-0.451 -1.058,-0.893 -1.55,-1.324 -0.494,-0.252 -0.985,-0.502 -1.476,-0.75 -0.039,0.232 -0.097,0.457 -0.175,0.675 -0.334,0.899 -0.916,1.35 -1.75,1.35 -0.179,0 -2.012,-1.934 -5.5,-5.8 v 0.05 c 0,1.167 -0.5,1.75 -1.5,1.75 -0.955,0 -2.488,-1.866 -4.6,-5.6 -0.49,-0.299 -0.974,-0.599 -1.45,-0.9 -0.015,0.197 -0.032,0.414 -0.05,0.65 -0.301,1.733 -0.768,2.6 -1.4,2.6 -0.834,0 -1.084,-0.133 -0.75,-0.399 -0.383,-1.174 -0.741,-2.273 -1.075,-3.301 l -0.175,0.051 c -0.463,-0.975 -0.896,-1.892 -1.3,-2.75 -1.255,-0.865 -2.671,-1.891 -4.25,-3.075 0,0.159 0,0.317 0,0.475 0,0.233 -0.067,0.934 -0.2,2.101 -0.1,0.899 -0.1,1.566 0,2 h -0.3 c -0.659,-1.493 -1.468,-3.469 -2.425,-5.926 -0.076,0.457 -0.168,0.933 -0.275,1.426 l -0.5,-0.15 c -0.104,-0.822 -0.33,-1.914 -0.675,-3.275 -0.335,-0.262 -0.677,-0.528 -1.025,-0.8 0.151,0.535 0.302,1.077 0.45,1.625 0,0.834 -0.084,1.7 -0.25,2.601 h -1 c -0.075,-0.302 -0.917,-2.593 -2.525,-6.875 -4.913,-3.964 -10.738,-8.806 -17.475,-14.525 -1.859,-1.602 -4.535,-4.852 -8.025,-9.75 -0.053,-0.003 -0.103,-0.003 -0.149,0 -0.483,-0.649 -1.093,-1.416 -1.825,-2.3 -2,-2.467 -3.084,-3.7 -3.25,-3.7 -0.986,0 -1.693,0.358 -2.125,1.075 -0.115,-3.879 -0.823,-4.971 -2.125,-3.275 -0.356,0.476 -0.664,1.042 -0.925,1.7 -0.599,-0.568 -1.216,-1.177 -1.851,-1.825 l 0.426,-2.625 c 0,-3.19 -0.717,-2.916 -2.15,0.825 -2.366,-2.521 -4.949,-5.513 -7.75,-8.975 -0.085,-0.115 -0.168,-0.231 -0.25,-0.351 0,-0.375 0,-0.758 0,-1.149 0,-5.434 -1,-8.134 -3,-8.101 -1.048,0.018 -1.822,0.718 -2.325,2.101 -2.743,-3.696 -4.843,-6.513 -6.3,-8.45 -0.668,0.062 -1.242,0.128 -1.725,0.2 -1.167,0.199 -2.384,0.566 -3.65,1.1 1.5,0.3 2.3,0.55 2.4,0.75 -0.033,0.033 -0.217,0.116 -0.551,0.25 -0.3,0.1 -0.449,0.4 -0.449,0.9 0,1.731 -2.518,3.731 -7.551,6 -0.135,0.291 -0.376,0.591 -0.725,0.899 2.87,-0.563 4.712,-0.946 5.525,-1.149 -0.859,0.317 -3.06,0.967 -6.601,1.949 -2.479,1.593 -7.396,3.509 -14.75,5.75 -1.153,0.354 -2.262,0.688 -3.325,1 7.432,-1.046 12.74,-2.079 15.926,-3.1 l -4.4,-0.35 c 0.066,-0.101 0.8,-0.2 2.2,-0.301 l 2.05,-0.1 c -0.133,0.033 0.017,0.2 0.45,0.5 0.6,0.434 1,0.767 1.2,1 -4.533,1.833 -10.634,3.5 -18.301,5 -1.35,0.265 -2.649,0.548 -3.899,0.85 -0.116,0.214 -0.232,0.431 -0.351,0.65 1.77,-0.429 3.602,-0.846 5.5,-1.25 5.252,-1.021 9.16,-1.821 11.726,-2.4 -0.507,-0.291 -0.815,-0.524 -0.925,-0.699 0.809,0.111 1.509,0.253 2.1,0.425 0.49,-0.123 0.906,-0.231 1.25,-0.325 -0.104,0.198 -0.244,0.398 -0.425,0.6 0.405,0.181 0.731,0.381 0.975,0.601 0.467,0.399 0.7,1.017 0.7,1.85 0,1.091 -2.242,2.125 -6.725,3.101 0.447,0.065 0.822,0.149 1.125,0.25 -2.066,0.899 -4.7,1.433 -7.9,1.6 -0.979,0.055 -1.93,0.104 -2.85,0.15 -1.854,0.431 -3.07,0.765 -3.65,1 h -0.6 c 5.589,1.095 8.705,1.678 9.35,1.75 l -1,-0.25 c 0.434,-0.167 1.217,-0.134 2.35,0.1 1.101,0.233 1.95,0.533 2.551,0.9 -0.634,0.466 -1.051,0.949 -1.25,1.449 -0.467,0.267 -2.268,0.4 -5.4,0.4 -4.168,0 -7.76,-0.125 -10.775,-0.375 -0.021,0.057 -0.037,0.115 -0.05,0.175 9.521,3.534 14.345,5.317 14.476,5.351 -0.2,0.267 -0.351,0.433 -0.45,0.5 -0.267,0.166 -0.667,0.25 -1.2,0.25 -0.4,0 -1.533,-0.233 -3.4,-0.7 -1.899,-0.467 -2.934,-0.7 -3.1,-0.7 -1.41,0 -3.893,-0.45 -7.45,-1.35 -0.211,0.704 -0.437,1.471 -0.675,2.3 0.062,0.175 0.12,0.35 0.175,0.524 5.542,2.729 9.275,4.453 11.2,5.176 -0.2,-0.967 0.066,-1.017 0.8,-0.15 0.366,0.434 0.767,0.95 1.2,1.55 0,0.834 -0.117,1.033 -0.35,0.601 -1.117,-0.489 -3.792,-1.447 -8.025,-2.875 2.521,1.499 4.447,2.823 5.775,3.975 -0.268,0.267 -0.65,0.483 -1.15,0.65 -2.709,-1.124 -5.159,-2.165 -7.35,-3.125 0.063,0.18 0.131,0.363 0.199,0.55 6.101,4.254 9.15,6.779 9.15,7.575 0,0.533 -0.084,0.866 -0.25,1 -0.133,0.1 -0.383,0.183 -0.75,0.25 -2.147,-1.191 -4.256,-2.399 -6.325,-3.625 5.743,16.531 10.068,30.79 12.976,42.774 4.283,17.727 6.558,34.427 6.824,50.101 -1.982,-0.227 -2.975,0.974 -2.975,3.6 0,0.9 0.25,1.833 0.75,2.8 0.5,0.967 0.75,1.834 0.75,2.601 0,0.433 -0.166,0.966 -0.5,1.6 -0.334,0.667 -0.5,1.2 -0.5,1.6 0,1.434 0.334,3.15 1,5.15 0.323,0.97 0.564,1.753 0.725,2.35 -0.072,0.959 -0.155,1.934 -0.25,2.926 -0.186,0.569 -0.428,1.295 -0.725,2.175 -0.834,2.533 -1.25,4.017 -1.25,4.45 0,0.987 0.367,3.254 1.1,6.8 -0.145,0.508 -0.294,1.092 -0.449,1.75 -0.1,0.462 -0.275,0.92 -0.525,1.375 -0.197,1.51 -0.406,3.052 -0.625,4.625 -1.25,8.983 -2.167,17.333 -2.75,25.05 0.183,0.832 0.266,1.499 0.25,2 -0.033,1.267 -0.117,3.134 -0.25,5.6 -0.066,2.134 -0.017,3.884 0.15,5.25 0.5,4.2 1.583,9.051 3.25,14.551 0.833,2.733 1.616,5.267 2.35,7.6 0,0.1 -0.5,0.55 -1.5,1.35 -0.566,-0.066 -1.3,-0.6 -2.2,-1.6 -0.866,-1.033 -1.384,-1.616 -1.55,-1.75 v 0.35 c 0.467,1 1.166,2.267 2.1,3.801 0.7,1.267 1.051,2.383 1.051,3.35 0,0.634 0.533,1.566 1.6,2.8 1.1,1.233 1.65,2.233 1.65,3 0,0.533 -0.101,0.867 -0.301,1 -0.133,0.066 -0.416,0.134 -0.85,0.2 -0.666,-0.2 -1.367,-0.783 -2.1,-1.75 -0.643,-0.918 -1.093,-1.526 -1.351,-1.825 0.078,0.269 0.153,0.535 0.226,0.8 0.405,0.914 0.963,2.306 1.675,4.176 1.134,3.033 1.7,5 1.7,5.899 0,0.051 0,0.101 0,0.15 1.317,0.791 2.434,1.591 3.35,2.399 -0.166,0.267 -0.533,0.517 -1.1,0.75 1.3,0.834 2,1.584 2.1,2.25 -1.267,0.767 -2.133,1.15 -2.6,1.15 0.066,0.134 0.3,0.384 0.699,0.75 0.268,0.233 0.4,0.6 0.4,1.1 0,0.5 -0.066,0.801 -0.2,0.9 l -0.149,0.1 c -3.334,-0.267 -5.051,-0.383 -5.15,-0.35 2.5,0.9 4.066,1.75 4.7,2.55 0.366,0.4 0.55,1.134 0.55,2.2 0,0.833 -0.033,1.2 -0.1,1.1 -0.434,0.034 -1.184,0.134 -2.25,0.301 -0.801,0.133 -1.434,0.199 -1.9,0.199 -0.24,0 -0.865,-0.216 -1.875,-0.649 -0.19,1.474 -0.398,3.057 -0.625,4.75 -0.751,6.306 -1.168,11.381 -1.25,15.225 -8.845,7.783 -26.428,11.675 -52.75,11.675 -10.568,0 -20.877,-0.666 -30.925,-2 H 566.35 c -9.033,-2.166 -16.367,-4.767 -22,-7.8 -0.23,-0.124 -0.455,-0.249 -0.675,-0.375 -11.594,2.117 -22.203,3.175 -31.825,3.175 -7.833,0 -16.934,-2.017 -27.3,-6.05 -2.368,-0.915 -4.493,-1.832 -6.375,-2.75 -5.195,3.2 -11.638,4.8 -19.325,4.8 -1.551,0 -2.984,-0.066 -4.3,-0.199 -0.134,0.049 -0.268,0.099 -0.4,0.149 -11.2,4.033 -18.8,6.05 -22.8,6.05 -4.866,0 -8.217,-0.916 -10.05,-2.75 -0.405,-0.405 -0.747,-0.889 -1.025,-1.449 0.384,-1.195 0.575,-1.829 0.575,-1.9 0,-0.448 -0.866,-2.231 -2.6,-5.35 1.253,-1.395 2.919,-2.911 5,-4.551 5.433,-3.866 9.3,-6.616 11.6,-8.25 0.524,-0.357 2.85,-1.782 6.975,-4.274 -0.017,-0.107 -0.024,-0.216 -0.024,-0.325 0,-2.6 1.05,-5.116 3.149,-7.55 2.2,-2.5 5.134,-4.384 8.801,-5.65 5.184,-1.797 10.774,-2.089 16.774,-0.875 4.458,-1.41 10.684,-4.186 18.675,-8.325 11.834,-6.533 18.25,-10.066 19.25,-10.6 2.066,-1.2 4.85,-2.184 8.35,-2.95 3.867,-0.7 6.7,-1.283 8.5,-1.75 2.566,-0.633 4.983,-1.434 7.25,-2.399 2.233,-0.967 3.783,-1.851 4.65,-2.65 1.333,-1.267 3.45,-3.517 6.35,-6.75 0.356,-0.395 0.689,-0.762 1,-1.1 0.231,-0.07 0.465,-0.137 0.7,-0.2 4.467,-1.2 7.232,-2.733 8.3,-4.601 1.2,-2.066 1.8,-6.816 1.8,-14.25 0,-2.356 -0.041,-4.714 -0.125,-7.074 -0.158,-0.045 -0.316,-0.12 -0.475,-0.226 -0.2,-0.166 -0.334,-0.25 -0.4,-0.25 v -7.05 c 0.133,-1.033 0.166,-1.616 0.1,-1.75 -1.066,0.033 -1.616,-0.816 -1.649,-2.55 -0.034,-0.4 0.066,-1.617 0.3,-3.65 -0.9,-0.366 -1.367,-0.566 -1.4,-0.6 -0.266,-0.167 -0.399,-0.434 -0.399,-0.8 0,-0.434 0.149,-1.134 0.45,-2.101 0.333,-1.033 0.516,-1.8 0.55,-2.3 l -0.101,0.25 c 0,0.434 -0.3,0.767 -0.899,1 -0.866,-1.134 -1.333,-1.95 -1.4,-2.45 0.034,-0.7 0.05,-1.434 0.05,-2.2 0,-0.5 0.134,-1.316 0.4,-2.449 0.434,-1.7 0.666,-2.667 0.7,-2.9 -0.767,0.333 -1.25,0.233 -1.45,-0.3 -0.033,-0.601 -0.05,-0.917 -0.05,-0.95 0,-0.5 0.083,-1.167 0.25,-2 0.167,-0.967 0.3,-1.7 0.399,-2.2 -0.1,0.167 -0.199,0.367 -0.3,0.601 -0.134,0.166 -0.333,0.3 -0.6,0.399 -0.333,-0.166 -0.534,-0.434 -0.601,-0.8 l 1.101,-3.5 c -0.034,0.033 -0.184,0.267 -0.45,0.7 -0.334,0.399 -0.75,0.6 -1.25,0.6 -0.834,0 -1.133,-0.1 -0.9,-0.3 0,-0.2 -0.066,-0.583 -0.199,-1.15 -0.134,-0.566 -0.2,-1.083 -0.2,-1.55 0,-1 0.267,-2.517 0.8,-4.55 0.406,-1.433 0.664,-2.541 0.775,-3.325 -0.072,-0.387 -0.147,-0.778 -0.226,-1.175 -0.245,0.167 -0.528,0.25 -0.85,0.25 -0.534,0 -0.866,-0.15 -1,-0.45 -0.034,-0.333 -0.067,-0.583 -0.101,-0.75 0.101,-0.733 0.134,-1.649 0.101,-2.75 -0.067,-1.166 -0.101,-2 -0.101,-2.5 -0.133,0.101 -0.434,0.417 -0.899,0.95 -0.267,0.333 -0.601,0.5 -1,0.5 -0.5,0 -0.817,-0.116 -0.95,-0.35 l -0.15,-0.351 c 0,-1.267 -0.25,-2.783 -0.75,-4.55 -0.316,-1.143 -0.533,-2.084 -0.649,-2.825 -0.454,-0.247 -0.653,-0.639 -0.601,-1.175 0.301,-2.533 0.384,-4.1 0.25,-4.7 -0.166,0.3 -0.316,0.684 -0.449,1.15 -0.2,0.399 -0.601,0.75 -1.2,1.05 -0.233,-0.1 -0.517,-0.35 -0.85,-0.75 0,-0.066 -0.033,-0.083 -0.1,-0.05 -0.033,0.033 -0.05,-0.2 -0.05,-0.7 0,-0.583 1.625,-3.649 4.875,-9.2 -0.248,-1.899 -0.481,-3.799 -0.7,-5.7 -1.805,1.887 -3.196,3.521 -4.175,4.9 -0.333,-0.134 -0.617,-0.3 -0.85,-0.5 l -0.15,-1 1.9,-5.75 c -0.1,0.066 -0.417,0.333 -0.95,0.8 -0.367,0.334 -0.683,0.5 -0.95,0.5 -0.833,0 -1.083,-0.1 -0.75,-0.3 l -0.25,-0.75 c 0.667,-0.941 2.417,-3.225 5.25,-6.85 -0.038,-0.422 -0.08,-0.848 -0.125,-1.275 1.517,-1.688 2.274,-3.681 2.274,-5.975 0,-0.737 -0.107,-1.262 -0.324,-1.575 -1.607,1.946 -2.965,3.305 -4.075,4.075 -0.333,-0.067 -0.55,-0.134 -0.65,-0.2 1.534,-4.814 2.3,-7.265 2.3,-7.351 0,-0.899 -0.016,-1.69 -0.05,-2.375 1.534,-2.141 2.3,-3.583 2.3,-4.324 0,-2.067 -0.434,-3 -1.3,-2.801 -0.058,0.012 -0.115,0.028 -0.175,0.051 -0.017,-0.253 -0.025,-0.453 -0.025,-0.601 h -0.5 c -0.016,0.048 -0.299,0.564 -0.85,1.55 -0.557,0.485 -1.208,1.151 -1.95,2 -0.847,0.993 -2.047,2.41 -3.6,4.25 -0.733,-1.159 -1.1,-1.859 -1.1,-2.1 0,-0.4 0.383,-1.467 1.15,-3.2 0.167,-0.361 0.317,-0.695 0.45,-1 0,-0.998 0.133,-1.981 0.4,-2.95 -0.085,-0.056 -0.185,-0.105 -0.3,-0.149 -0.4,-0.134 -0.6,-0.417 -0.6,-0.851 0,-0.633 0.45,-1.949 1.35,-3.949 0.967,-1.967 1.517,-3.084 1.65,-3.351 -0.5,0.167 -1.083,0.9 -1.75,2.2 -0.667,1.366 -1.25,2.134 -1.75,2.3 -0.2,-0.033 -0.4,-0.116 -0.6,-0.25 -0.2,-0.166 -0.333,-0.25 -0.4,-0.25 0,-0.166 0.017,-0.6 0.05,-1.3 0.033,-0.4 0.017,-0.65 -0.05,-0.75 -0.333,0.634 -0.733,0.767 -1.2,0.4 -0.433,-0.5 -0.7,-0.784 -0.8,-0.851 0.167,-0.267 0.65,-1.717 1.45,-4.35 0.8,-2.566 1.2,-3.967 1.2,-4.2 0,-0.138 -0.017,-0.255 -0.05,-0.35 -0.696,1.233 -1.563,1.85 -2.6,1.85 -0.298,0 -0.531,-0.025 -0.7,-0.075 0.116,-0.243 0.233,-0.493 0.35,-0.75 0.451,-0.297 0.785,-0.505 1,-0.625 l 0.25,1.101 c 0.267,-0.167 0.783,-0.667 1.55,-1.5 0.733,-0.9 1.167,-1.517 1.3,-1.851 v -0.399 c -0.333,0.366 -0.617,0.767 -0.85,1.199 -0.2,0.334 -0.617,0.817 -1.25,1.45 h -0.15 c 0.066,-0.233 0.383,-0.934 0.95,-2.1 0.533,-1.033 0.8,-1.65 0.8,-1.851 0,-0.533 -0.017,-0.783 -0.05,-0.75 -0.033,0.034 -0.05,0.101 -0.05,0.2 -0.033,-0.066 -0.083,-0.133 -0.15,-0.2 -0.139,-0.115 -0.297,-0.198 -0.475,-0.25 0.455,-0.505 0.963,-1.055 1.525,-1.649 2.333,-2.5 3.533,-4.434 3.6,-5.8 -0.1,-0.267 -0.217,-0.434 -0.35,-0.5 -0.167,-0.167 -0.517,-0.25 -1.05,-0.25 -0.722,0 -1.764,0.583 -3.125,1.75 0.583,-1.354 0.875,-2.139 0.875,-2.351 0,-0.252 0,-0.502 0,-0.75 v -0.024 c 1.77,-2.222 3.27,-4.263 4.5,-6.125 v -3.4 l -0.275,-0.15 c 0.646,-0.893 1.286,-1.801 1.925,-2.725 0.011,-0.1 0.02,-0.199 0.025,-0.3 -0.142,0.138 -0.291,0.279 -0.45,0.425 -0.214,0.281 -0.455,0.598 -0.725,0.95 -0.487,0.6 -0.944,1.05 -1.375,1.35 l -0.125,-0.05 c -0.145,0.1 -0.295,0.225 -0.45,0.375 l -0.05,0.025 c -1.199,1.121 -2.299,2.071 -3.3,2.85 -0.135,-0.479 -0.352,-0.879 -0.65,-1.2 1.385,-1.966 2.693,-3.824 3.925,-5.575 -0.047,-0.142 -0.072,-0.35 -0.075,-0.625 0.309,-0.187 0.617,-0.387 0.925,-0.6 3.18,-4.513 5.856,-8.263 8.025,-11.25 -1.005,-1.203 -3.147,-0.646 -6.425,1.675 1.115,-2.074 2.373,-4.207 3.775,-6.399 0.27,-1.233 0.553,-2.459 0.85,-3.676 2.066,-8.466 3.334,-13.966 3.8,-16.5 0.241,-1.371 0.457,-2.763 0.65,-4.175 -0.569,0.483 -1.069,0.726 -1.5,0.726 -1.5,0 -3.2,0.983 -5.101,2.949 -1.866,1.967 -3.333,2.95 -4.399,2.95 -0.833,0 -1.583,-0.116 -2.25,-0.35 -1,-0.367 -1.5,-0.934 -1.5,-1.7 0,-0.7 0.716,-2.417 2.15,-5.15 1.467,-2.666 2.25,-4.149 2.35,-4.449 -0.034,0.033 -0.667,0.55 -1.9,1.55 -0.966,0.8 -1.583,1.2 -1.85,1.2 -0.5,0 -0.833,-0.101 -1,-0.301 l -0.25,-0.3 c 1.885,-3.379 3.577,-6.421 5.075,-9.125 -1.028,0.476 -1.703,1.15 -2.025,2.025 -0.5,1.3 -1.35,2.116 -2.55,2.45 l -0.25,-0.351 c 1.303,-1.676 3.07,-3.334 5.3,-4.975 0.774,-1.424 1.491,-2.749 2.15,-3.976 0.033,-0.299 0.05,-0.615 0.05,-0.949 0,-1.134 1.083,-3.551 3.25,-7.25 1.472,-2.473 2.589,-4.239 3.35,-5.301 0.119,-0.336 0.235,-0.669 0.351,-1 -0.111,-0.466 -0.229,-0.933 -0.351,-1.399 -0.202,-0.788 -0.394,-1.563 -0.575,-2.325 0.244,-0.82 0.486,-1.712 0.726,-2.675 1,-4 1.5,-6.8 1.5,-8.4 0,-2.6 -0.384,-3.7 -1.15,-3.3 -0.533,0.3 -1.6,1.733 -3.2,4.3 -0.488,0.78 -0.963,1.53 -1.425,2.25 -0.483,-1.19 -0.725,-1.99 -0.725,-2.399 0,-0.467 0.134,-1.25 0.399,-2.351 0.334,-1.399 0.533,-2.25 0.601,-2.55 h -0.101 c -0.533,0.9 -1.116,1.65 -1.75,2.25 -0.633,-0.066 -1.133,-0.35 -1.5,-0.85 0.134,-0.601 0.566,-1.617 1.301,-3.051 0.866,-1.666 1.35,-2.649 1.449,-2.949 -0.399,0.199 -0.833,0.566 -1.3,1.1 -0.5,0.434 -1.267,0.65 -2.3,0.65 -0.5,0 -0.75,-0.084 -0.75,-0.25 0.1,-0.2 0.133,-0.367 0.1,-0.5 0.2,-1 0.566,-2.317 1.101,-3.95 0.6,-1.767 0.983,-3.033 1.149,-3.8 -0.699,0.6 -1.217,0.866 -1.55,0.8 -0.267,-0.033 -0.884,-0.217 -1.85,-0.55 0.2,-0.601 1.7,-2.717 4.5,-6.351 0.162,-0.215 0.312,-0.423 0.45,-0.625 -0.033,-1.353 -0.066,-2.761 -0.101,-4.225 -2.051,-0.435 -3.751,-4.401 -5.1,-11.9 0,-2.399 0.616,-4.85 1.85,-7.35 1.267,-2.467 1.9,-3.983 1.9,-4.55 0,-0.434 -0.417,-0.834 -1.25,-1.2 -0.833,-0.334 -1.25,-0.684 -1.25,-1.05 0,-1.601 1.533,-4.384 4.6,-8.351 1.466,-1.762 2.599,-3.137 3.4,-4.125 0.208,-0.603 0.407,-1.194 0.6,-1.774 -2.565,-5.375 -4.724,-9.842 -6.475,-13.4 h -0.525 c 1.134,2.366 1.7,3.616 1.7,3.75 0,0.533 -0.1,0.833 -0.3,0.9 -0.101,0.033 -0.333,0.066 -0.7,0.1 -0.7,-0.233 -1.3,-0.85 -1.8,-1.85 -0.434,-0.934 -0.717,-1.4 -0.851,-1.4 -0.746,0 -1.479,-0.509 -2.2,-1.525 h -1.15 c -0.029,0.394 -0.128,0.618 -0.3,0.676 -0.1,0.033 -0.333,0.066 -0.7,0.1 -0.327,-0.094 -0.668,-0.36 -1.025,-0.8 h -1.05 c 0.05,0.131 0.075,0.231 0.075,0.3 0,0.366 -0.15,0.733 -0.45,1.1 -0.4,0.5 -0.917,0.75 -1.55,0.75 -0.491,0 -1.191,-0.725 -2.1,-2.175 h -0.675 c 0.083,0.316 0.125,0.592 0.125,0.825 0,0.566 -0.067,0.917 -0.2,1.05 -0.033,0.033 -0.25,0.134 -0.65,0.3 -0.409,-0.575 -0.917,-1.309 -1.525,-2.199 H 525.7 c -0.475,-1.193 -1.225,-2.143 -2.25,-2.851 -0.384,-0.261 -0.842,-0.511 -1.375,-0.75 0.75,2.169 1.125,3.369 1.125,3.601 0,0.533 -0.067,0.866 -0.2,1 -0.1,0.066 -0.316,0.133 -0.65,0.199 -1.033,-1.333 -2.133,-3.116 -3.3,-5.35 -0.076,-0.145 -0.16,-0.294 -0.25,-0.45 -0.168,-0.044 -0.343,-0.086 -0.525,-0.125 0.95,2.195 1.425,3.437 1.425,3.726 0,0.533 -0.067,0.866 -0.2,1 -0.1,0.066 -0.316,0.133 -0.65,0.199 -0.733,-0.933 -1.233,-1.716 -1.5,-2.35 -0.333,0.767 -0.667,1.217 -1,1.35 -1.485,-1.804 -2.81,-3.412 -3.975,-4.825 -0.837,-0.101 -1.787,-0.209 -2.85,-0.325 0.45,1.01 0.675,1.626 0.675,1.85 0,0.5 -0.067,0.767 -0.2,0.8 -0.1,0 -0.316,0 -0.65,0 -0.067,-0.033 -1.533,-0.683 -4.4,-1.95 -0.73,-0.327 -1.33,-0.801 -1.8,-1.425 -0.356,-0.042 -0.724,-0.083 -1.1,-0.125 -0.15,0.437 -0.384,0.77 -0.7,1 -0.431,-0.314 -0.939,-0.739 -1.525,-1.275 -1.563,-0.227 -3.105,-0.477 -4.625,-0.75 -0.027,0.378 -0.095,0.62 -0.199,0.725 -0.034,0.034 -0.25,0.133 -0.65,0.3 -0.598,-0.466 -1.289,-0.991 -2.075,-1.575 -1.317,-0.256 -2.617,-0.532 -3.899,-0.825 0.216,0.496 0.324,0.862 0.324,1.1 0,0.5 -0.066,0.767 -0.199,0.8 -0.101,0 -0.317,0 -0.65,0 -0.947,-0.632 -1.981,-1.565 -3.1,-2.8 -0.736,-0.194 -1.47,-0.395 -2.2,-0.6 0.1,0.268 0.149,0.451 0.149,0.55 0,0.833 -0.033,1.2 -0.1,1.1 -1.158,-0.5 -2.199,-1.35 -3.125,-2.55 -0.351,-0.108 -0.701,-0.217 -1.05,-0.325 0.116,0.417 0.175,0.792 0.175,1.125 0,0.833 -0.134,1.083 -0.4,0.75 h -0.649 c -0.334,-0.2 -0.75,-0.733 -1.25,-1.6 l -0.65,-1.175 c -0.048,-0.015 -0.098,-0.032 -0.149,-0.05 0.033,0.317 -0.067,0.592 -0.301,0.825 -0.314,-0.375 -0.631,-0.783 -0.949,-1.225 -0.197,-0.069 -0.389,-0.136 -0.575,-0.2 -0.843,-0.793 -1.835,-1.668 -2.976,-2.625 -0.439,-0.369 -0.889,-0.735 -1.35,-1.1 0.134,0.873 0.2,1.656 0.2,2.35 0,0.5 -0.05,0.767 -0.15,0.8 -0.066,0 -0.267,0 -0.6,0 -1.066,-0.934 -2.084,-2.417 -3.05,-4.45 -0.349,-0.833 -0.665,-1.575 -0.95,-2.225 -0.327,-0.238 -0.66,-0.48 -1,-0.725 0,0.205 0,0.371 0,0.5 -0.033,0.767 -0.2,1.367 -0.5,1.8 -0.634,-0.567 -1.134,-1.283 -1.5,-2.15 -0.28,-0.84 -0.505,-1.506 -0.675,-2 -0.047,-0.03 -0.097,-0.063 -0.15,-0.1 l -0.025,0.1 c 0,0.033 -0.066,0.417 -0.199,1.15 -0.067,0.467 -0.384,1 -0.95,1.6 -0.367,-0.567 -0.834,-1.467 -1.4,-2.7 -0.6,-1.3 -1.05,-2.183 -1.35,-2.65 -0.167,1.333 -0.283,2.083 -0.351,2.25 h -0.649 l -1.825,-4.1 c -0.18,-0.112 -0.354,-0.221 -0.525,-0.325 0.167,0.577 0.25,1.069 0.25,1.475 0,0.5 -0.017,0.767 -0.05,0.8 0,0.033 -0.066,0.083 -0.2,0.15 -1,-0.533 -1.8,-1.4 -2.399,-2.6 -0.39,-0.778 -0.73,-1.387 -1.025,-1.825 -0.233,-0.132 -0.467,-0.265 -0.7,-0.4 -0.149,0.39 -0.341,0.715 -0.574,0.975 -0.167,0.167 -0.4,0.4 -0.7,0.7 -0.472,-0.562 -1.164,-1.695 -2.075,-3.4 -0.426,-0.214 -0.842,-0.414 -1.25,-0.6 -0.123,-0.147 -0.248,-0.298 -0.375,-0.45 -2.105,-2.5 -4.03,-4.467 -5.775,-5.9 -1.566,-0.201 -3.008,-0.468 -4.324,-0.8 -2.733,-0.667 -6.15,-2 -10.25,-4 -1.452,-0.696 -2.894,-1.38 -4.325,-2.05 -1.156,-0.087 -2.348,-0.137 -3.575,-0.15 -0.5,0 -2.634,-0.7 -6.4,-2.1 -1.971,-0.731 -3.771,-1.365 -5.399,-1.9 -5.245,-2.957 -11.47,-6.29 -18.675,-10 -0.479,-0.17 -0.954,-0.337 -1.426,-0.5 -14.333,-4.933 -24.899,-8.983 -31.699,-12.15 -5.554,-2.595 -9.896,-5.07 -13.025,-7.425 -0.807,-0.199 -1.565,-0.366 -2.275,-0.5 -1.414,0.661 -3.214,1.302 -5.399,1.925 -5.09,1.474 -10.398,2.333 -15.925,2.575 -2.384,1.455 -3.575,3.23 -3.575,5.325 0,0.269 0,0.535 0,0.8 1.102,2.099 1.936,3.666 2.5,4.7 1.233,2.233 2.767,5.35 4.6,9.35 2.634,5.767 3.95,9.583 3.95,11.45 0,0.35 -0.025,0.7 -0.075,1.05 0.414,0.491 0.84,1.007 1.275,1.55 2.866,3.567 4.3,5.517 4.3,5.85 0,0.833 -0.017,1.2 -0.05,1.1 h -0.45 c -0.562,-0.652 -1.345,-1.527 -2.35,-2.625 0.42,0.873 0.854,1.756 1.3,2.65 2.434,2.366 4.116,3.991 5.05,4.875 l -0.3,0.25 c -0.761,-0.67 -1.986,-1.679 -3.675,-3.025 0.038,0.095 0.079,0.187 0.125,0.275 0.206,0.401 0.414,0.81 0.625,1.225 1.066,1.203 1.808,2.245 2.225,3.125 -0.312,-0.216 -0.62,-0.433 -0.925,-0.65 0.7,1.327 1.441,2.719 2.225,4.175 1.824,1.028 3.124,1.737 3.9,2.125 -0.167,0.233 -0.5,0.433 -1,0.6 -0.653,-0.292 -1.287,-0.576 -1.9,-0.85 0.213,0.393 0.43,0.792 0.65,1.2 3.533,2.169 5.3,3.703 5.3,4.6 0,0.833 -0.184,0.983 -0.55,0.45 -0.618,-0.286 -1.502,-0.694 -2.65,-1.225 0.58,1.064 1.181,2.155 1.8,3.275 2.001,1.474 3.052,2.241 3.15,2.3 -0.694,-0.176 -1.47,-0.451 -2.325,-0.825 0.489,0.886 0.989,1.786 1.5,2.7 1.831,1.073 3.355,1.865 4.575,2.375 -0.269,0.448 -0.978,0.698 -2.125,0.75 0.446,0.413 0.821,0.83 1.125,1.25 -0.163,0.272 -0.438,0.472 -0.825,0.6 0.722,1.315 1.396,2.557 2.025,3.725 1.102,0.805 1.936,1.413 2.5,1.825 -0.295,0.229 -0.703,0.43 -1.226,0.6 0.316,0.597 0.616,1.172 0.9,1.726 2.417,1.861 3.625,2.969 3.625,3.325 0,0.833 -0.083,1.033 -0.25,0.6 -0.518,-0.229 -1.159,-0.554 -1.925,-0.975 0.328,0.679 0.62,1.304 0.875,1.875 1.177,1.023 2.094,1.924 2.75,2.699 l -0.05,0.15 c -0.101,0.066 -0.417,0.1 -0.95,0.1 -0.165,0 -0.341,-0.017 -0.525,-0.05 0.238,0.631 0.472,1.272 0.7,1.925 0.429,0.453 0.804,0.861 1.125,1.226 0.148,0.116 0.298,0.233 0.45,0.35 4.033,3.066 6.05,5.3 6.05,6.7 0,0.1 -0.434,0.55 -1.3,1.35 -1.231,-0.769 -2.682,-1.728 -4.351,-2.875 0.296,1.271 0.562,2.57 0.801,3.9 0.353,0.542 0.62,0.992 0.8,1.35 0.628,0.344 1.244,0.786 1.85,1.325 1.434,1.267 2.15,2.434 2.15,3.5 0,0.666 -0.226,1.358 -0.675,2.075 1.283,1.521 1.925,2.613 1.925,3.275 0,0.566 -0.066,0.966 -0.2,1.199 -0.033,0.101 -0.2,0.284 -0.5,0.551 -0.434,-0.067 -1.017,-0.25 -1.75,-0.551 -0.063,-0.025 -0.122,-0.051 -0.175,-0.074 0.014,0.016 0.03,0.032 0.05,0.05 0.055,0.03 0.097,0.055 0.125,0.075 l -0.025,0.024 c 1.817,1.578 2.726,2.387 2.726,2.425 0,0.134 -0.584,0.601 -1.75,1.4 -0.58,-0.211 -1.588,-0.753 -3.025,-1.625 0.024,0.573 0.041,1.148 0.05,1.725 -0.831,0.597 -1.572,1.413 -2.225,2.45 -0.7,1.101 -1.05,2.05 -1.05,2.851 0,1.267 0.066,2.05 0.2,2.35 0.418,0.78 1.385,1.181 2.899,1.2 -0.064,1.172 -0.139,2.397 -0.225,3.675 1.016,0.234 1.974,0.359 2.875,0.375 l -0.25,0.4 c -0.649,0.216 -1.558,0.333 -2.726,0.35 -0.015,0.214 -0.032,0.431 -0.05,0.65 -0.466,0.441 -0.958,1.024 -1.475,1.75 1.283,0.626 2.033,1.126 2.25,1.5 l -0.5,0.75 -1.75,0.1 c -0.45,0 -0.925,-0.042 -1.425,-0.125 -0.51,0.899 -1.043,1.916 -1.601,3.05 0.393,0.367 0.734,0.726 1.025,1.075 -0.303,-0.034 -0.753,-0.167 -1.351,-0.4 -0.194,0.418 -0.395,0.852 -0.6,1.301 0,0.433 0.2,1.1 0.6,2 0.4,0.933 0.601,1.6 0.601,2 0,0.699 -0.95,1.35 -2.851,1.949 -1.899,0.634 -2.85,1.483 -2.85,2.551 0,0.442 0.075,0.884 0.225,1.324 -0.983,0.388 -1.475,1.163 -1.475,2.325 0,0.236 0.983,1.028 2.95,2.375 -0.039,0.066 -0.08,0.134 -0.125,0.2 0.808,0.702 1.35,1.244 1.625,1.625 -0.5,0.434 -1.25,0.65 -2.25,0.65 l -0.226,-0.075 c -0.017,0.112 -0.024,0.221 -0.024,0.325 0,0.041 0,0.083 0,0.125 1.663,1.017 2.746,1.592 3.25,1.725 -0.167,0.267 -0.667,0.483 -1.5,0.65 -0.482,-0.083 -0.999,-0.232 -1.55,-0.45 0.175,0.783 0.458,1.449 0.85,2 -1.5,2.315 -2.25,3.599 -2.25,3.85 0,0.8 0.5,1.351 1.5,1.65 1,0.333 1.5,0.616 1.5,0.85 0,0.127 0.017,0.252 0.05,0.375 -1.238,0.314 -2.105,0.922 -2.6,1.825 -0.4,0.7 -0.55,1.467 -0.45,2.3 0,0.507 0.042,0.957 0.125,1.351 -0.08,0.077 -0.155,0.16 -0.225,0.25 -0.267,0.366 -0.4,0.683 -0.4,0.949 0,1.284 1.467,2.168 4.4,2.65 -0.139,0.787 -0.28,1.579 -0.426,2.375 0.517,0.256 0.775,0.548 0.775,0.875 0,0.833 -0.017,1.017 -0.05,0.55 -0.202,0.151 -0.561,0.293 -1.075,0.425 -0.013,0.109 -0.03,0.218 -0.05,0.325 1.25,0.842 1.875,1.275 1.875,1.3 0,0.834 -0.084,1.017 -0.25,0.551 -0.723,0.564 -1.431,0.864 -2.125,0.899 -0.032,0.183 -0.065,0.365 -0.101,0.55 2.964,1.208 4.806,2.44 5.525,3.7 -0.7,0.667 -1.283,1.101 -1.75,1.3 -0.729,0.341 -1.688,0.558 -2.875,0.65 1.217,0.718 1.825,1.318 1.825,1.8 0,0.066 -0.584,0.517 -1.75,1.351 -0.057,-0.008 -0.114,-0.017 -0.175,-0.025 -0.157,0.382 -0.432,0.74 -0.825,1.075 -0.507,0.427 -1.174,0.769 -2,1.024 -0.418,2.227 -0.851,4.493 -1.3,6.801 -0.78,0.189 -1.497,0.448 -2.15,0.774 -0.931,0.466 -1.497,0.974 -1.7,1.525 1.895,-0.315 3.212,-0.374 3.95,-0.175 l -0.05,0.399 c -0.915,0.509 -2.099,0.992 -3.55,1.45 0.126,0.153 0.284,0.304 0.475,0.45 0.177,-0.021 0.352,-0.037 0.525,-0.05 4.399,-0.301 6.6,0.183 6.6,1.449 0,0.834 -0.083,1.017 -0.25,0.551 -0.582,0.203 -2.356,0.545 -5.325,1.024 -0.008,0.043 -0.017,0.085 -0.024,0.125 0.673,0.045 1.272,0.162 1.8,0.351 v -0.051 c 0.033,0.067 0.05,0.367 0.05,0.9 0,0.683 -0.934,1.558 -2.8,2.625 0.002,0.203 0.027,0.387 0.075,0.55 -0.146,0.722 -0.296,1.446 -0.45,2.175 -0.674,0.577 -1.332,1.228 -1.976,1.95 -1.1,1.3 -1.649,2.3 -1.649,3 0,0.934 0.267,1.517 0.8,1.75 0.248,0.124 0.715,0.199 1.4,0.226 -0.028,0.136 -0.054,0.269 -0.075,0.399 0.443,-0.017 0.919,-0.024 1.425,-0.024 l 0.2,0.399 c -0.452,0.475 -1.111,0.891 -1.976,1.25 -0.254,1.269 -0.512,2.544 -0.774,3.825 1.533,0.032 2.3,0.606 2.3,1.725 0,0.101 -0.684,1.284 -2.05,3.551 -0.52,0.588 -1.086,1.096 -1.7,1.524 -0.188,0.916 -0.379,1.832 -0.575,2.75 0.82,0.342 1.412,0.717 1.775,1.125 -0.266,0.299 -1.174,1.424 -2.726,3.375 -0.292,1.346 -0.584,2.688 -0.875,4.025 2.023,0.066 3.391,0.1 4.101,0.1 0.5,0 0.75,-0.116 0.75,-0.35 -0.066,-0.3 -0.05,-0.517 0.05,-0.65 0.467,0.233 0.884,0.717 1.25,1.45 0.3,0.6 0.45,1.033 0.45,1.3 0,1.4 -1.65,3.017 -4.95,4.851 -1.215,0.688 -2.365,1.247 -3.45,1.675 -0.432,2.009 -0.865,4.009 -1.3,6 -1.866,0.91 -2.8,2.019 -2.8,3.325 0,0.17 0.133,0.411 0.399,0.725 0.159,0.176 0.359,0.376 0.601,0.6 0.192,0.168 0.409,0.352 0.649,0.551 -0.008,0.037 -0.017,0.07 -0.024,0.1 0.347,0.391 0.688,0.799 1.024,1.225 0.9,1.101 1.351,1.767 1.351,2 0,0.367 -0.334,1.051 -1,2.051 -0.634,1.033 -0.95,1.666 -0.95,1.899 0,0.533 0.316,1.25 0.95,2.15 0.098,0.649 -1.152,1.091 -3.75,1.325 -0.021,0.091 -0.037,0.183 -0.05,0.274 l 0.1,0.2 c 0.7,0.333 1.184,0.884 1.45,1.65 0.066,0.233 0.149,0.683 0.25,1.35 -0.887,0.489 -1.786,0.756 -2.7,0.8 -0.008,0.033 -0.016,0.066 -0.025,0.101 0.677,0.296 1.135,0.579 1.375,0.85 0.2,0.4 0.4,0.75 0.601,1.05 -0.667,0.566 -1.566,1.033 -2.7,1.4 h -0.025 c -0.124,0.562 -0.249,1.119 -0.375,1.675 1.4,0.461 2.2,0.77 2.4,0.925 -0.467,0.334 -1.25,0.584 -2.35,0.75 -0.152,0.029 -0.303,0.055 -0.45,0.075 -0.159,0.693 -0.317,1.386 -0.476,2.075 l 1.226,0.1 c 0.033,0.3 0.116,0.55 0.25,0.75 -0.167,0.101 -0.617,0.5 -1.351,1.2 -0.1,0.069 -0.208,0.136 -0.324,0.2 2.816,1.719 4.225,2.602 4.225,2.649 0,0.534 -0.25,1.167 -0.75,1.9 -0.8,1.167 -1.983,1.75 -3.55,1.75 -0.574,0 -1.141,-0.025 -1.7,-0.075 -0.121,0.549 -0.246,1.099 -0.375,1.65 -1.265,-0.041 -2.739,-0.066 -4.425,-0.075 v -0.25 c -0.533,0.2 -0.934,0.533 -1.2,1 0.6,1.267 1.4,1.95 2.4,2.05 0.882,-0.081 1.757,-0.14 2.625,-0.175 -0.261,1.106 -0.519,2.207 -0.775,3.3 -2.366,0.352 -3.55,1.243 -3.55,2.675 0,0.483 0.642,1.884 1.925,4.2 -0.037,0.155 -0.07,0.313 -0.1,0.476 -0.884,0.799 -1.325,1.29 -1.325,1.475 0,0.5 0.017,0.783 0.05,0.85 0.134,0.233 0.217,0.384 0.25,0.45 0.112,0.013 0.229,0.021 0.35,0.025 -0.222,0.91 -0.447,1.818 -0.675,2.725 -0.07,-0.017 -0.146,-0.033 -0.225,-0.05 -1.033,0 -1.8,0.283 -2.3,0.85 -0.067,0.067 -0.284,0.467 -0.65,1.2 0.2,0.467 0.667,0.9 1.4,1.3 0.301,0.171 0.576,0.371 0.824,0.601 -0.274,1.141 -0.55,2.273 -0.824,3.399 0,1.408 0.274,3.291 0.824,5.65 -0.483,0.988 -0.725,1.605 -0.725,1.85 0,0.834 0.066,1.051 0.2,0.65 0.066,0.1 0.1,0.267 0.1,0.5 0.101,0.167 0.4,0.25 0.9,0.25 0.023,0 0.115,-0.1 0.274,-0.3 0.062,0.214 0.128,0.431 0.2,0.649 1.723,-2.025 3.289,-2.717 4.7,-2.074 0.03,-0.007 0.055,-0.016 0.075,-0.025 -0.01,0.016 -0.018,0.032 -0.025,0.05 0.642,0.313 1.25,0.896 1.825,1.75 -0.7,0.667 -1.884,2.417 -3.55,5.25 -0.343,0.485 -0.685,0.928 -1.025,1.325 1.918,5.568 3.576,9.144 4.976,10.725 0.616,-1.273 1.6,-2.766 2.949,-4.475 h 0.025 c 0.278,-0.987 0.653,-1.945 1.125,-2.875 2.066,-4.1 5.55,-6.15 10.45,-6.15 1.712,0 3.279,0.534 4.7,1.601 2.371,0.1 3.638,0.149 3.8,0.149 0.253,0 0.495,0 0.725,0 1.667,-0.998 3.508,-1.782 5.525,-2.35 3.467,-1 6.383,-1.083 8.75,-0.25 1.51,0.548 2.594,1.414 3.25,2.6 0.894,-0.545 1.81,-1.062 2.75,-1.55 4.733,-2.467 8.633,-3.483 11.7,-3.05 3.406,0.515 5.173,2.855 5.3,7.025 2.984,-0.958 6.067,-0.949 9.25,0.024 2.767,0.834 4.399,1.851 4.899,3.05 0.801,1.967 1.267,4.4 1.4,7.301 0.066,1.633 0.05,4.017 -0.05,7.149 0,0.101 -0.417,3.917 -1.25,11.45 -0.895,4.573 -2.078,7.748 -3.55,9.525 -1.445,9.955 -2.412,15.73 -2.9,17.324 -0.325,1.078 -1.108,2.386 -2.35,3.926 -5.848,1.32 -12.897,4.396 -21.15,9.225 -7.487,4.347 -14.029,8.997 -19.625,13.95 -1.447,0.222 -2.989,0.538 -4.625,0.95 -4.667,1.166 -8.8,2.783 -12.4,4.85 -0.718,0.41 -1.368,0.811 -1.949,1.2 -6.503,-0.333 -12.003,-1.267 -16.5,-2.8 -2.731,-0.926 -5.448,-2.242 -8.15,-3.95 v 0.05 c 0,0.434 -0.05,0.75 -0.15,0.95 -0.199,0.533 -0.683,0.8 -1.449,0.8 -0.834,0 -1.467,-0.5 -1.9,-1.5 -0.333,-1.134 -0.533,-1.8 -0.6,-2 -0.101,0.134 -0.233,0.35 -0.4,0.65 -0.2,0.233 -0.566,0.35 -1.1,0.35 -0.691,0 -1.658,-1.167 -2.9,-3.5 -0.126,-0.252 -0.26,-0.519 -0.4,-0.8 -0.385,-0.831 -0.735,-1.572 -1.05,-2.226 l -0.05,0.125 c 0.033,0.267 0.116,0.65 0.25,1.15 0.1,0.434 0.1,0.8 0,1.1 -0.566,-0.066 -1.066,-0.233 -1.5,-0.5 -0.018,-0.101 -0.034,-0.2 -0.05,-0.3 -0.043,1.967 -0.644,2.95 -1.8,2.95 -0.767,0 -1.483,-0.934 -2.15,-2.8 -0.634,-1.9 -1.333,-2.851 -2.1,-2.851 -0.9,0 -1.917,0.317 -3.051,0.95 -0.699,0.167 -1.066,-0.816 -1.1,-2.95 -1.267,1.067 -2.283,1.067 -3.05,0 -0.566,-1.366 -0.917,-2.149 -1.05,-2.35 -0.101,0.134 -0.233,0.35 -0.4,0.65 -0.2,0.233 -0.566,0.35 -1.1,0.35 -0.434,0 -0.733,-0.167 -0.9,-0.5 -0.2,-0.333 -0.5,-0.5 -0.9,-0.5 -0.433,0 -0.716,0.167 -0.85,0.5 -0.167,0.333 -0.45,0.5 -0.85,0.5 -2.233,0 -3.717,-1.667 -4.45,-5 -0.055,-0.232 -0.13,-0.79 -0.226,-1.675 -0.706,-0.202 -1.414,-0.428 -2.125,-0.675 -0.773,1.398 -2.232,2.132 -4.375,2.199 l 0.025,-0.1 c 0,-2.054 -0.625,-2.671 -1.875,-1.85 -0.115,-1.196 -0.207,-2.222 -0.275,-3.075 -0.223,-0.117 -0.447,-0.234 -0.675,-0.351 -0.08,0.636 -0.18,1.41 -0.3,2.325 -0.256,-0.586 -0.714,-0.92 -1.375,-1 -0.753,-0.101 -1.636,0.133 -2.65,0.7 0.015,-0.176 0.031,-0.359 0.051,-0.55 0.03,-0.049 0.063,-0.099 0.1,-0.15 0,-0.242 -0.009,-0.467 -0.025,-0.675 0.052,-0.533 0.11,-1.124 0.176,-1.775 h -0.15 c -0.049,0.186 -0.116,0.452 -0.2,0.801 -0.539,-1.772 -2.206,-1.422 -5,1.05 -0.146,0.13 -0.288,0.255 -0.425,0.375 -0.15,-0.657 -0.225,-1.35 -0.225,-2.075 0,-0.974 0.175,-2.808 0.524,-5.5 -0.056,-0.05 -0.113,-0.1 -0.175,-0.15 -0.174,0.396 -0.44,1.07 -0.8,2.025 -0.448,-0.838 -1.248,-0.896 -2.4,-0.175 l 0.45,-2.351 c 0,-3.433 -0.833,-3.616 -2.5,-0.55 v 0.025 c -0.061,-0.1 -0.328,-0.342 -0.8,-0.726 -0.533,-0.433 -0.8,-0.699 -0.8,-0.8 0,-0.467 0.133,-1.149 0.399,-2.05 0.115,-0.379 0.215,-0.712 0.3,-1 -0.112,-0.112 -0.221,-0.229 -0.324,-0.35 -0.091,0.22 -0.182,0.47 -0.275,0.75 -0.366,0.8 -0.9,1.199 -1.6,1.199 -2.667,-2.066 -4,-3.25 -4,-3.55 0,-0.633 0.166,-1.5 0.5,-2.6 0.157,-0.49 0.299,-0.923 0.425,-1.3 -0.088,-0.109 -0.171,-0.217 -0.25,-0.325 -0.265,0.501 -0.507,0.843 -0.726,1.024 -0.466,0.434 -1.366,0.65 -2.699,0.65 -1.167,0 -1.967,-0.217 -2.4,-0.65 -0.066,-1.5 -0.15,-2.616 -0.25,-3.35 -1.5,0.667 -2.417,0.434 -2.75,-0.7 -0.1,-1.5 -0.184,-2.517 -0.25,-3.05 -1.066,-0.033 -1.783,-0.2 -2.15,-0.5 -0.166,-0.134 -0.283,-0.267 -0.35,-0.4 -0.833,0 -1.583,0.051 -2.25,0.15 -0.066,0.066 -0.1,-0.316 -0.1,-1.15 0,-0.6 0.533,-1.767 1.6,-3.5 1.038,-1.573 1.613,-2.481 1.725,-2.725 -0.977,1.585 -2.061,2.585 -3.25,3 1.692,-1.636 3.75,-3.678 6.176,-6.125 0,-0.467 -0.017,-0.717 -0.051,-0.75 -0.1,-0.134 -0.166,-0.267 -0.199,-0.4 -1.298,0.026 -3.29,1.002 -5.976,2.926 0.882,-1.493 1.457,-2.385 1.726,-2.676 -0.913,-0.628 -1.788,-0.928 -2.625,-0.899 0.398,-0.756 0.773,-1.405 1.125,-1.95 -0.334,-0.033 -0.801,-0.083 -1.4,-0.15 -0.4,-0.133 -0.6,-0.466 -0.6,-1 0,-0.233 0.25,-0.85 0.75,-1.85 0.5,-1 0.75,-1.7 0.75,-2.1 0,-0.269 -0.167,-0.544 -0.5,-0.825 -0.074,-1.932 -0.933,-2.531 -2.575,-1.8 -0.283,-0.413 -0.425,-0.904 -0.425,-1.476 0,-0.293 0.108,-0.701 0.324,-1.225 1.517,-1.383 2.275,-2.241 2.275,-2.575 0,-2.043 -1.434,-2.302 -4.3,-0.775 l 1.725,-2.6 c 0.55,-0.571 0.825,-0.946 0.825,-1.125 0,-2.267 -1.333,-2.417 -4,-0.45 -0.084,0.062 -0.167,0.129 -0.25,0.2 -0.192,-0.134 -0.359,-0.384 -0.5,-0.75 0.1,-0.3 0.583,-0.95 1.45,-1.95 l 1.55,-1.8 c -1.334,0 -2.343,-0.083 -3.025,-0.25 -0.08,-0.6 -0.397,-0.841 -0.949,-0.725 0.053,-0.349 0.244,-0.757 0.574,-1.226 0.467,-0.666 0.934,-1.066 1.4,-1.2 -1.033,-0.033 -1.767,-0.133 -2.2,-0.3 -0.109,-0.036 -0.209,-0.078 -0.3,-0.125 0.765,-0.578 1.182,-1.095 1.25,-1.55 0.154,-0.074 0.321,-0.149 0.5,-0.225 0.967,-0.4 1.6,-0.617 1.9,-0.65 l -1.25,-0.15 c -0.521,0.059 -0.988,0.084 -1.4,0.075 -0.308,-0.352 -0.875,-0.477 -1.7,-0.375 -0.504,-0.261 -0.796,-0.669 -0.875,-1.225 1.351,-0.2 2.325,-0.542 2.925,-1.025 0.197,-0.151 0.348,-0.335 0.45,-0.55 h 0.45 l -0.425,-0.025 c 0.116,-0.252 0.175,-0.544 0.175,-0.875 0,-1.562 -1.616,-2.312 -4.85,-2.25 0.5,-0.295 0.75,-0.695 0.75,-1.199 0,-0.49 -0.117,-0.865 -0.351,-1.125 0.561,-0.242 1.211,-0.484 1.95,-0.726 l -0.25,-0.05 c -0.566,-0.733 -1.25,-1.517 -2.05,-2.35 -0.436,-0.518 -0.693,-1.034 -0.775,-1.551 0.478,-0.215 0.753,-0.331 0.825,-0.35 -0.163,-0.378 -0.372,-0.687 -0.625,-0.925 0.084,-0.189 0.191,-0.382 0.325,-0.575 0.5,-0.667 1.149,-1.083 1.95,-1.25 l -0.4,-0.25 c -1.934,0.233 -3.4,-0.533 -4.4,-2.3 -0.203,-0.375 -0.37,-0.75 -0.5,-1.125 0.791,-0.289 1.507,-0.715 2.15,-1.275 1,-0.833 1.5,-1.566 1.5,-2.2 0,-1.485 -1.017,-1.978 -3.05,-1.475 -0.07,-0.067 -0.137,-0.134 -0.2,-0.2 0.737,-0.196 1.403,-0.488 2,-0.875 0.934,-0.6 1.4,-1.066 1.4,-1.399 0,-0.971 -0.567,-1.521 -1.7,-1.65 -0.431,-0.418 -1.197,-0.993 -2.3,-1.725 0.669,-0.301 1.202,-0.726 1.6,-1.275 l 0.65,-1.75 c 0,-2.04 -1.117,-2.523 -3.351,-1.45 0.067,-0.083 0.135,-0.166 0.2,-0.25 0.934,-1.166 1.434,-1.833 1.5,-2 -0.467,-0.399 -1.217,-0.916 -2.25,-1.55 -0.566,-0.333 -0.85,-0.65 -0.85,-0.95 0,-0.5 0.05,-0.783 0.149,-0.85 l 0.2,-0.15 c 1.088,-0.045 1.979,-0.103 2.675,-0.175 -0.071,-0.077 -0.146,-0.152 -0.225,-0.225 -0.084,-0.081 -0.167,-0.156 -0.25,-0.226 -1.046,-0.133 -1.696,-0.357 -1.95,-0.675 0.04,-0.119 0.09,-0.228 0.15,-0.325 -0.864,-0.143 -1.614,0.291 -2.25,1.3 0,0.111 0,0.22 0,0.325 0,0.077 -0.15,0.252 -0.45,0.525 -0.295,0.661 -0.562,1.469 -0.8,2.425 -0.014,0.075 -0.03,0.15 -0.051,0.225 0.112,0.552 0.263,1.21 0.45,1.976 0.284,1.074 0.484,1.949 0.601,2.625 -0.5,0.472 -0.75,0.896 -0.75,1.274 0,0.309 0.066,0.575 0.199,0.801 -0.031,0.019 -0.064,0.035 -0.1,0.05 -0.846,0.302 -1.495,0.618 -1.95,0.95 -0.034,0.139 -0.067,0.272 -0.1,0.399 0.354,2.287 0.387,3.653 0.1,4.101 -0.366,0.666 -0.55,1.199 -0.55,1.6 0,0.634 0.167,1.833 0.5,3.6 0.134,1.634 -0.233,2.884 -1.1,3.75 -0.467,-0.1 -0.851,-0.3 -1.15,-0.6 v 0.35 c 0.134,0.5 0.384,1.351 0.75,2.551 0.333,1.066 0.5,1.85 0.5,2.35 0,0.6 -0.083,1.017 -0.25,1.25 -0.167,0.2 -0.45,0.366 -0.85,0.5 -0.303,-0.222 -0.595,-0.48 -0.875,-0.775 -0.084,1.487 -0.176,3.162 -0.275,5.025 0.195,0.78 0.429,1.714 0.7,2.8 0.899,3.566 1.383,5.75 1.45,6.55 -0.334,0.101 -0.733,0.15 -1.2,0.15 -0.3,0 -0.45,0.033 -0.45,0.1 0.066,0.367 0.6,2.117 1.6,5.25 0.534,1.7 0.801,3.384 0.801,5.051 0,1.199 -0.167,2.566 -0.5,4.1 -0.5,2.267 -1.25,3.85 -2.25,4.75 -1.567,-0.366 -2.601,-0.384 -3.101,-0.05 -0.267,0.166 -0.566,0.383 -0.899,0.649 -0.339,0 -0.673,-0.133 -1,-0.399 -0.834,5.095 -1.25,9.828 -1.25,14.2 0,3.532 0.108,6.54 0.324,9.024 -0.812,3.83 -1.671,7.139 -2.574,9.925 -1.451,4.372 -4.81,9.021 -10.075,13.95 0.925,1.13 1.833,2.296 2.725,3.5 7.566,10.2 11.351,19.384 11.351,27.55 0,2.801 -1.017,5.817 -3.051,9.051 -1.821,2.851 -4.146,4.859 -6.975,6.024 -0.423,0.758 -0.932,1.483 -1.525,2.175 -3.767,4.5 -10.083,6.75 -18.949,6.75 -3.503,0 -6.653,-0.208 -9.45,-0.625 -3.251,1.049 -6.96,1.591 -11.125,1.625 -3.054,5.334 -8.528,8 -16.425,8 -8.342,0 -15.408,-1.366 -21.2,-4.1 -5.167,-6.364 -10.608,-12.423 -16.325,-18.175 -1.624,-4.304 -2.683,-9.229 -3.175,-14.775 -0.142,0.385 -0.292,0.784 -0.45,1.2 -0.5,-0.1 -0.917,-0.384 -1.25,-0.85 -0.267,-0.4 -0.4,-0.784 -0.4,-1.15 0,-0.4 0.15,-1.083 0.45,-2.05 0.3,-0.967 0.45,-1.667 0.45,-2.101 0,-1.933 0.2,-4.183 0.6,-6.75 H 88.7 c -0.5,0.601 -0.933,0.767 -1.3,0.5 -0.2,-0.133 -0.383,-0.333 -0.55,-0.6 0.726,-2.335 1.843,-5.477 3.35,-9.425 0.586,-3.731 1.452,-6.906 2.601,-9.525 0.194,-0.37 0.386,-0.745 0.575,-1.125 -0.933,-0.241 -1.49,-0.6 -1.676,-1.075 0.233,-0.733 0.983,-1.683 2.25,-2.85 1.127,-0.966 1.943,-1.674 2.45,-2.125 0.039,-0.09 0.08,-0.182 0.125,-0.275 -1.776,0.112 -3.051,-0.138 -3.825,-0.75 0.2,-0.233 0.617,-0.533 1.25,-0.899 0.601,-0.367 1.017,-0.684 1.25,-0.95 -0.699,-0.066 -1.283,-0.233 -1.75,-0.5 -0.399,-0.2 -0.649,-0.417 -0.75,-0.65 0.167,-0.133 0.584,-0.433 1.25,-0.899 0.567,-0.334 0.983,-0.7 1.25,-1.101 -0.6,-0.5 -0.8,-1.116 -0.6,-1.85 0.51,0.034 1.035,0.034 1.575,0 0.02,-0.084 0.045,-0.15 0.075,-0.2 0.166,-0.166 0.316,-0.316 0.449,-0.45 0.424,0.156 0.815,0.298 1.176,0.426 0.809,-0.15 1.65,-0.367 2.524,-0.65 0.244,-0.569 0.485,-1.145 0.726,-1.725 -1.033,0.104 -2.175,0.171 -3.426,0.199 -0.333,-0.166 -0.583,-0.366 -0.75,-0.6 0.834,-0.9 1.483,-1.583 1.95,-2.05 0.733,-0.767 1.634,-1.55 2.7,-2.351 -0.849,-0.656 0.093,-1.731 2.825,-3.225 0.356,-0.915 0.715,-1.84 1.075,-2.775 l 0.024,-0.05 c 0.766,-0.392 1.657,-0.941 2.675,-1.649 2.267,-1.534 3.483,-2.634 3.65,-3.301 l -0.15,-1.1 c -1.366,0.033 -3,0.7 -4.899,2 -0.467,0.328 -1.101,0.828 -1.9,1.5 -0.177,-0.159 -0.327,-0.326 -0.45,-0.5 0.529,-0.511 1.162,-1.169 1.9,-1.975 l 0.875,-0.025 c 0.138,-0.459 0.271,-0.926 0.4,-1.4 0.945,-1.066 2.021,-2.316 3.225,-3.75 0,-0.419 -0.075,-0.72 -0.225,-0.899 -0.724,0.366 -1.365,0.55 -1.926,0.55 -0.833,0 -1,-0.134 -0.5,-0.4 l -0.1,-0.35 c 0.399,-0.3 1.233,-0.758 2.5,-1.375 0.314,-0.578 0.682,-1.303 1.1,-2.175 0.752,-1.595 1.169,-2.661 1.25,-3.2 -0.438,0.167 -0.821,0.25 -1.149,0.25 -0.834,0 -1.033,-0.134 -0.601,-0.4 l 0.25,-0.35 c 0.157,-0.349 0.432,-0.732 0.825,-1.15 -0.203,-0.276 -0.462,-0.576 -0.774,-0.899 -0.384,-0.407 -0.734,-0.774 -1.051,-1.101 0.125,-1.009 0.233,-2.034 0.325,-3.074 -0.235,10e-4 -0.477,10e-4 -0.725,0 2.866,-1.972 4.3,-3.347 4.3,-4.125 0,-0.934 -0.934,-1.317 -2.8,-1.15 -1.012,0.076 -2.12,0.293 -3.325,0.65 -0.358,-0.028 -0.717,-0.054 -1.075,-0.075 1.148,-1.055 2.049,-1.855 2.7,-2.4 0.444,-0.021 0.87,-0.037 1.275,-0.05 0.062,-1.275 0.12,-2.509 0.175,-3.7 -0.236,-0.009 -0.47,-0.017 -0.7,-0.024 0.813,-0.642 1.321,-1.192 1.525,-1.65 h -2.426 c -0.199,-0.066 -0.466,-0.15 -0.8,-0.25 -0.042,-0.028 -0.084,-0.07 -0.125,-0.125 -0.422,0.083 -0.863,0.125 -1.325,0.125 -0.933,0 -1.699,-0.25 -2.3,-0.75 -0.633,-0.5 -0.95,-1.134 -0.95,-1.9 0,-0.297 0.209,-0.672 0.625,-1.125 -0.075,-0.005 -0.15,-0.013 -0.225,-0.024 -3.9,-0.601 -6.2,-1.233 -6.9,-1.9 0.233,-0.5 0.567,-0.833 1,-1 l 10.15,-0.05 c 0.082,-0.048 0.165,-0.098 0.25,-0.15 -6.009,-1.134 -9.476,-2.066 -10.4,-2.8 0.233,-0.5 0.567,-0.833 1,-1 l 5.4,-0.05 c -0.1,-0.1 -0.733,-0.583 -1.9,-1.45 l 0.4,-0.75 c 0.566,-0.166 1.267,-0.25 2.1,-0.25 0.863,0 2.997,0.351 6.4,1.05 0.036,-0.453 0.069,-0.895 0.1,-1.324 -0.981,-0.378 -2.048,-0.786 -3.199,-1.226 -3.767,-1.533 -6.367,-2.866 -7.801,-4 l 0.4,-0.75 c -0.1,-0.166 0.267,-0.25 1.1,-0.25 3.948,1.547 7.174,2.797 9.676,3.75 0.035,-0.45 0.068,-0.9 0.1,-1.35 -2.631,-1.605 -4.547,-2.797 -5.75,-3.575 0.15,-0.222 0.225,-0.546 0.225,-0.975 0,-0.67 -0.925,-1.361 -2.774,-2.075 l -0.025,-0.025 c -0.7,-1.033 -1.05,-1.633 -1.05,-1.8 0,-0.533 0.083,-0.816 0.25,-0.85 0.267,0 0.55,-0.051 0.85,-0.15 1,0.3 2.634,0.866 4.9,1.7 2.036,0.76 3.327,1.268 3.875,1.524 -0.591,-0.407 -2.016,-1.632 -4.275,-3.675 0.233,-0.5 0.567,-0.833 1,-1 0.767,-0.267 1.733,0.084 2.9,1.05 0.215,0.209 0.415,0.4 0.6,0.575 -0.003,-0.052 -0.003,-0.103 0,-0.149 -0.599,-0.619 -1.398,-1.443 -2.399,-2.476 -2.066,-2.233 -3.101,-3.733 -3.101,-4.5 0,-0.533 0.084,-0.816 0.25,-0.85 0.301,0 0.551,-0.05 0.75,-0.15 0.567,0.233 1.45,0.884 2.65,1.95 1.134,0.967 1.833,1.483 2.1,1.55 l -0.25,-0.25 c -0.566,-0.866 -1.55,-1.983 -2.949,-3.35 -0.767,-0.733 -1.15,-1.684 -1.15,-2.851 0,-0.733 0.45,-1.1 1.35,-1.1 -0.133,-0.4 -0.583,-1.134 -1.35,-2.2 -0.667,-0.967 -1,-1.566 -1,-1.8 0,-0.5 0.1,-0.783 0.3,-0.85 0.334,0 0.601,-0.051 0.8,-0.15 0.267,0.1 0.65,0.3 1.15,0.6 0.434,0.267 0.684,0.4 0.75,0.4 l -0.15,-0.45 c -0.6,-1.166 -1.066,-2.083 -1.399,-2.75 -0.634,-1.2 -0.95,-2.1 -0.95,-2.7 0,-0.533 0.1,-0.833 0.3,-0.899 0.334,-0.033 0.601,-0.101 0.8,-0.2 1.226,1.567 2.784,4.001 4.676,7.3 0.013,-0.181 0.029,-0.364 0.05,-0.55 -0.41,-0.702 -0.835,-1.436 -1.275,-2.2 -3.633,-6.399 -5.45,-9.833 -5.45,-10.3 0,-0.533 0.184,-0.884 0.551,-1.05 0.133,-0.066 0.416,-0.134 0.85,-0.2 -0.2,-0.333 -0.667,-1.15 -1.4,-2.45 -0.452,-0.838 -0.752,-1.487 -0.899,-1.95 0.182,-0.066 0.281,-0.1 0.3,-0.1 0.233,-0.2 0.35,-0.566 0.35,-1.1 0,-0.079 -0.008,-0.163 -0.024,-0.25 0.093,-0.023 0.176,-0.057 0.25,-0.101 -1.58,-2.803 -2.53,-5.095 -2.851,-6.875 -0.077,-0.098 -0.152,-0.189 -0.225,-0.274 0.067,0.049 0.135,0.099 0.2,0.149 -0.066,-0.411 -0.101,-0.794 -0.101,-1.149 0,-0.5 0.117,-0.851 0.351,-1.051 0.267,-0.166 0.45,-0.316 0.55,-0.449 0.673,0.716 1.573,1.865 2.7,3.449 l 0.3,-0.55 c 0.556,0.566 1.173,1.267 1.85,2.101 -0.615,-1.14 -1.04,-1.973 -1.274,-2.5 -1.187,-1.94 -2.212,-3.773 -3.075,-5.5 0.988,1.188 2.063,2.539 3.225,4.05 0.126,-0.017 0.251,-0.067 0.375,-0.15 1.167,1.267 2.034,2.217 2.601,2.851 0.089,0.098 0.172,0.189 0.25,0.274 -3.8,-6.165 -5.7,-9.891 -5.7,-11.175 0,-0.5 0.017,-0.767 0.05,-0.8 0.033,0.033 0.101,-0.017 0.2,-0.15 0.923,1.405 2.14,3.38 3.65,5.925 0.082,-0.08 0.157,-0.154 0.225,-0.225 -2.391,-3.966 -4.516,-6.832 -6.375,-8.6 1.629,1.086 3.304,2.711 5.025,4.875 -1.517,-2.907 -2.275,-4.549 -2.275,-4.926 0,-0.199 0.5,-0.683 1.5,-1.449 -0.634,-1 -0.967,-1.534 -1,-1.601 -0.333,-0.666 -0.5,-1.316 -0.5,-1.95 0,-1.3 -0.45,-2.966 -1.35,-5 -0.867,-2.033 -1.301,-3.133 -1.301,-3.3 0,-0.5 0.067,-0.783 0.2,-0.85 l 0.2,-0.15 h 1.1 c -1.333,-2.366 -2,-3.866 -2,-4.5 0,-0.533 0.084,-0.816 0.25,-0.85 0.301,0 0.551,-0.05 0.75,-0.15 1.733,1.7 2.784,2.7 3.15,3 -0.167,-1.066 0.033,-2.033 0.6,-2.899 1.621,0.63 2.838,1.505 3.65,2.625 -0.604,-1.141 -1.071,-2.049 -1.4,-2.726 -1,-2.1 -1.5,-4.033 -1.5,-5.8 0,-0.533 0.084,-0.85 0.25,-0.95 0.301,-0.066 0.551,-0.149 0.75,-0.25 0.5,0.267 0.834,0.384 1,0.351 0.167,-0.034 0.334,-0.317 0.5,-0.851 -0.333,-0.533 -0.683,-1.283 -1.05,-2.25 -0.366,-1.033 -0.684,-1.783 -0.95,-2.25 l 0.4,-0.75 c -0.267,-0.166 0.017,-0.25 0.85,-0.25 0.601,0 1.117,0.351 1.551,1.05 0.6,1 1.25,1.733 1.949,2.2 l -0.1,-0.25 c -0.572,-0.964 -1.306,-2.473 -2.2,-4.524 -0.153,0.017 -0.303,0.024 -0.45,0.024 -0.533,0 -0.833,-0.116 -0.899,-0.35 -0.033,-0.267 -0.066,-0.483 -0.101,-0.65 0.099,-0.294 0.282,-0.669 0.551,-1.125 -0.26,-0.653 -0.477,-1.229 -0.65,-1.725 -0.053,0.022 -0.104,0.039 -0.15,0.05 l -1,-0.25 c -0.1,-0.1 -0.166,-0.2 -0.199,-0.3 -0.101,-0.2 -0.15,-0.566 -0.15,-1.101 0,-0.281 0.025,-0.556 0.075,-0.824 0.388,0.083 0.729,0.125 1.024,0.125 2.101,0 3.15,-0.667 3.15,-2 0,-0.452 -0.592,-0.985 -1.775,-1.601 1.017,-0.284 1.525,-0.834 1.525,-1.649 0,-0.914 -2.316,-2.03 -6.95,-3.351 -0.149,-0.321 -0.341,-0.654 -0.575,-1 h 0.125 c 1.267,-0.133 2.084,-0.267 2.45,-0.399 0.634,-0.267 0.95,-0.767 0.95,-1.5 0,-0.667 -0.667,-1.084 -2,-1.25 -0.722,-0.108 -1.88,-0.191 -3.475,-0.25 -0.062,-0.259 -0.154,-0.509 -0.275,-0.75 -0.134,-0.267 -0.35,-0.634 -0.65,-1.101 0.233,-0.5 0.483,-0.833 0.75,-1 0.334,-0.1 0.634,-0.233 0.9,-0.399 -0.5,-0.134 -1.083,-0.567 -1.75,-1.301 -0.6,-0.666 -0.9,-1.1 -0.9,-1.3 0,-0.5 0.067,-0.783 0.2,-0.85 l 0.2,-0.15 c 0.667,0 1.15,-0.017 1.45,-0.05 l 0.3,-0.1 c -0.566,0 -1.316,0.066 -2.25,0.199 -0.7,0.067 -1.083,0.084 -1.15,0.051 2.534,-1.101 4.434,-1.767 5.7,-2 0.062,-0.011 0.13,-0.02 0.2,-0.025 0.328,-0.236 0.744,-0.462 1.25,-0.675 2.434,-1 4.267,-1.967 5.5,-2.9 -1.2,-1.5 -1.917,-2.85 -2.15,-4.05 0,-0.033 -0.416,-0.3 -1.25,-0.8 -0.833,-0.533 -1.25,-0.851 -1.25,-0.95 0,-0.4 0.334,-1.083 1,-2.05 0.733,-1 1.2,-1.634 1.4,-1.9 -1.4,0 -2.2,-0.25 -2.4,-0.75 0.067,-0.233 0.367,-0.684 0.9,-1.35 0.566,-0.7 0.983,-1.134 1.25,-1.3 -0.033,-0.067 -0.517,-0.084 -1.45,-0.051 -0.899,0 -1.416,-0.066 -1.55,-0.199 l 0.1,-0.351 c 0.467,-0.5 0.817,-0.866 1.051,-1.1 0.433,-0.467 0.883,-0.851 1.35,-1.15 -0.434,0.033 -0.917,-0.05 -1.45,-0.25 -0.5,-0.2 -0.85,-0.416 -1.05,-0.649 0.066,-0.233 0.434,-0.733 1.1,-1.5 -0.333,0 -0.816,0.017 -1.449,0.05 -0.434,-0.033 -0.65,-0.316 -0.65,-0.851 0,-0.533 0.017,-0.783 0.05,-0.75 l 0.05,0.2 c 2.301,-1.133 4.2,-2.416 5.7,-3.85 0.698,-0.685 1.314,-1.268 1.851,-1.75 -0.103,-0.123 -0.203,-0.257 -0.301,-0.4 l -7.35,-0.25 -0.4,-1 c 0.167,-0.467 0.5,-0.8 1,-1 3.775,-0.114 6.275,-0.256 7.5,-0.425 -0.025,-0.055 -0.051,-0.113 -0.074,-0.175 -3.201,-0.571 -6.443,-1.038 -9.726,-1.4 0.557,-0.146 0.956,-0.429 1.2,-0.85 0.167,-0.3 0.25,-0.684 0.25,-1.15 0,-0.742 -0.441,-1.434 -1.325,-2.075 3.553,-0.109 6.22,-0.218 8,-0.324 -0.082,-0.42 -0.165,-0.853 -0.25,-1.301 -2.896,-0.156 -5.12,-0.257 -6.675,-0.3 l -0.4,-1 c 0.167,-0.467 0.5,-0.8 1,-1 1.88,-0.158 3.738,-0.342 5.575,-0.55 -0.1,-0.558 -0.191,-1.1 -0.274,-1.625 -0.55,-0.046 -1.116,-0.088 -1.7,-0.125 -1.733,-0.2 -2.934,-0.767 -3.601,-1.7 1.141,-1.011 2.732,-1.669 4.775,-1.975 -0.016,-0.169 -0.032,-0.336 -0.05,-0.5 l -2.726,-0.025 c -0.166,-0.033 -0.399,-0.083 -0.699,-0.149 -0.2,-0.134 -0.301,-0.467 -0.301,-1 0,-0.17 0.017,-0.345 0.051,-0.525 1.395,0.517 2.628,0.775 3.699,0.775 1.5,0 2.483,-0.367 2.95,-1.101 l 0.3,-1.149 c 0,-0.702 -1.216,-1.536 -3.649,-2.5 2.376,-0.011 3.893,-0.378 4.55,-1.101 0.233,-0.233 0.35,-0.666 0.35,-1.3 0,-1.533 -1.833,-2.5 -5.5,-2.9 -0.055,-0.005 -0.113,-0.014 -0.175,-0.024 0.202,-0.216 0.444,-0.425 0.726,-0.625 0.177,-0.121 0.393,-0.255 0.649,-0.4 0.036,-0.396 0.078,-0.796 0.125,-1.2 -0.026,0 -0.052,0 -0.075,0 -1.033,0 -1.616,-0.033 -1.75,-0.1 -0.021,-0.084 -0.037,-0.168 -0.05,-0.25 2.201,-0.307 4.201,-0.841 6,-1.6 2.467,-1.034 3.7,-1.967 3.7,-2.801 0,-0.733 -0.866,-1.316 -2.6,-1.75 -1.667,-0.399 -3.584,-0.533 -5.75,-0.399 h -0.025 c -0.058,-0.016 -0.116,-0.032 -0.175,-0.05 -0.233,-0.134 -0.351,-0.467 -0.351,-1 0,-0.467 -0.283,-0.75 -0.85,-0.851 -0.667,-0.133 -1.05,-0.267 -1.15,-0.399 0.667,-1.167 2.101,-2.567 4.301,-4.2 0.501,-0.366 0.976,-0.716 1.425,-1.05 0.111,-0.583 0.203,-1.083 0.274,-1.5 -0.664,0.166 -1.33,0.25 -2,0.25 -0.533,0 -0.916,-0.117 -1.149,-0.351 -0.101,-0.133 -0.217,-0.35 -0.351,-0.649 0.101,-0.434 0.483,-1.017 1.15,-1.75 0.667,-0.7 1,-1.117 1,-1.25 -0.224,-1.095 -0.29,-1.952 -0.2,-2.575 -0.033,-0.193 -0.05,-0.352 -0.05,-0.476 0,-0.969 0.033,-1.952 0.1,-2.949 -0.5,0 -0.816,-0.117 -0.949,-0.351 -0.034,-0.133 -0.084,-0.35 -0.15,-0.649 0.194,-0.751 0.653,-1.4 1.375,-1.95 0.017,-0.127 0.033,-0.252 0.05,-0.375 -0.598,-0.144 -1.007,-0.353 -1.225,-0.625 -0.134,-0.167 -0.2,-0.467 -0.2,-0.9 -0.066,-0.333 0.05,-0.684 0.35,-1.05 0.352,-0.429 0.91,-0.763 1.676,-1 0.083,-0.363 0.166,-0.73 0.25,-1.1 -0.53,-0.211 -0.923,-0.395 -1.176,-0.551 -0.399,-0.267 -0.6,-0.533 -0.6,-0.8 0,-0.767 0.45,-1.25 1.35,-1.45 0.249,-0.048 0.633,-0.098 1.15,-0.149 0.086,-0.329 0.178,-0.662 0.275,-1 -1.558,-0.167 -2.366,-0.25 -2.426,-0.25 -1.566,-0.267 -2.35,-0.7 -2.35,-1.3 0,-0.5 0.033,-0.917 0.1,-1.25 0.101,-0.367 0.15,-0.584 0.15,-0.65 0.977,-0.053 2.818,0.039 5.525,0.275 0.038,-0.113 0.08,-0.23 0.125,-0.351 -1.202,-0.327 -3.019,-0.835 -5.45,-1.524 -4.3,-1.467 -6.45,-2.884 -6.45,-4.25 0,-0.5 0.083,-0.784 0.25,-0.851 l 0.25,-0.149 c 1.1,0 2.184,-0.034 3.25,-0.101 1.066,-0.1 2.066,-0.149 3,-0.149 -0.033,-0.667 0.134,-1.2 0.5,-1.601 0.079,-0.074 0.163,-0.141 0.25,-0.2 v -0.05 c 0,-0.115 0,-0.232 0,-0.35 -1.058,-0.163 -2.474,-0.346 -4.25,-0.55 l -0.25,-1 0.25,-0.75 c 0.531,-0.1 2.14,-0.149 4.825,-0.15 v -0.025 c -0.969,-2.36 -0.177,-3.844 2.375,-4.449 l -1.351,-0.025 c -0.433,0 -0.683,-0.017 -0.75,-0.05 -0.166,-0.101 -0.25,-0.417 -0.25,-0.95 0,-0.533 0.084,-0.817 0.25,-0.85 0.301,0 0.551,-0.05 0.75,-0.15 3.53,-0.079 6.497,-0.188 8.9,-0.325 0,-0.175 0,-0.35 0,-0.525 0,-0.021 0,-0.046 0,-0.075 l -7.4,-0.075 c -0.433,0 -0.683,-0.017 -0.75,-0.05 -0.166,-0.1 -0.25,-0.417 -0.25,-0.95 0,-1.333 1.75,-2.117 5.25,-2.35 0.79,-0.054 1.548,-0.112 2.275,-0.175 -0.017,-0.12 -0.025,-0.229 -0.025,-0.325 0,-0.467 0.042,-0.942 0.125,-1.425 l -4.125,-0.075 c -0.466,-0.367 -0.75,-0.633 -0.85,-0.8 -0.167,-0.267 -0.25,-0.7 -0.25,-1.3 0,-0.466 0.134,-0.833 0.4,-1.1 0.166,-0.133 1.199,-0.9 3.1,-2.3 -2.9,-0.066 -4.634,-0.333 -5.2,-0.8 -0.3,-0.233 -0.45,-0.6 -0.45,-1.1 0.634,-0.7 2.5,-1.617 5.601,-2.75 2.899,-1.067 4.916,-1.65 6.05,-1.75 l -5.9,-0.1 c -0.533,-0.167 -0.899,-0.583 -1.1,-1.25 0.4,-0.633 1.4,-1.017 3,-1.15 l -4.4,-0.1 c -0.199,-0.066 -0.466,-0.1 -0.8,-0.1 -0.2,-0.1 -0.3,-0.4 -0.3,-0.9 0,-0.566 0.417,-0.95 1.25,-1.15 1.6,-0.267 3.217,-0.6 4.85,-1 -0.666,-1.267 -0.683,-2.017 -0.05,-2.25 1.267,-0.5 2,-0.867 2.2,-1.1 -0.733,-0.167 -1.283,-0.5 -1.65,-1 0.073,-0.122 0.157,-0.247 0.25,-0.375 0.661,0.083 1.411,0.125 2.25,0.125 2.534,0 4.101,-0.367 4.7,-1.1 0.134,-0.767 0.2,-1.183 0.2,-1.25 0,-0.974 -0.684,-1.699 -2.05,-2.175 0.931,-0.582 1.897,-1.124 2.899,-1.625 -0.166,-0.633 -0.116,-1.167 0.15,-1.6 0.233,-0.333 0.684,-0.717 1.35,-1.15 -1.5,-0.3 -2.3,-0.467 -2.399,-0.5 -0.4,-0.167 -0.601,-0.5 -0.601,-1 0,-1.467 0.817,-2.317 2.45,-2.55 1.184,-0.188 2.241,-0.405 3.175,-0.65 1.147,0.233 2.606,0.35 4.375,0.35 l 1.9,-0.15 0.15,-0.1 c 0.133,-0.066 0.199,-0.35 0.199,-0.85 0,-0.667 -0.767,-1.133 -2.3,-1.4 -0.754,-0.15 -1.828,-0.267 -3.225,-0.35 2.264,-2.211 4.063,-3.928 5.399,-5.15 0.204,-0.582 0.404,-1.157 0.601,-1.725 -0.499,-0.023 -1.141,-0.048 -1.925,-0.075 -1.767,-0.067 -2.7,-0.15 -2.801,-0.25 0.733,-0.8 1.9,-1.65 3.5,-2.55 1.198,-0.653 2.049,-1.037 2.551,-1.15 0.335,-1.052 0.644,-2.068 0.925,-3.05 0.409,-0.02 0.81,-0.086 1.2,-0.2 0.556,-0.017 1.146,-0.101 1.774,-0.25 0.7,-0.167 1.134,-0.333 1.3,-0.5 v -1.15 h -0.024 c 0.055,-0.068 0.112,-0.135 0.175,-0.2 1.167,-1.2 1.75,-2.017 1.75,-2.45 0,-0.4 -0.167,-0.817 -0.5,-1.25 -0.533,-0.667 -1.333,-0.95 -2.4,-0.85 1.334,-1.267 2,-2.233 2,-2.9 0,-2.494 -1.267,-3.294 -3.8,-2.4 -0.08,-0.062 -0.146,-0.129 -0.2,-0.2 0.642,-0.35 1.267,-0.691 1.875,-1.025 0.291,-0.835 0.583,-1.693 0.875,-2.575 0.103,-0.306 0.202,-0.614 0.301,-0.925 -1.188,0.993 -2.122,1.701 -2.801,2.125 l -0.5,-0.75 c 0.96,-1.812 2.535,-3.804 4.726,-5.975 0.483,-1.629 0.949,-3.296 1.399,-5 -0.782,0.317 -1.407,0.475 -1.875,0.475 -0.133,0 -0.666,-0.5 -1.6,-1.5 0.298,-0.125 1.731,-0.899 4.3,-2.325 0.205,-0.821 0.405,-1.655 0.601,-2.5 -0.669,0.217 -1.186,0.325 -1.551,0.325 -0.533,0 -0.85,-0.067 -0.949,-0.2 -0.034,-0.1 -0.084,-0.283 -0.15,-0.55 l 0.25,-0.75 c 1.048,-0.707 2.064,-1.314 3.05,-1.825 0.709,-3.728 1.184,-6.236 1.425,-7.525 -0.755,0.167 -1.529,0.25 -2.324,0.25 -0.834,0 -1.101,-0.217 -0.801,-0.65 l 0.15,-0.35 c 0.273,-0.228 1.273,-0.953 3,-2.175 -0.082,-0.582 -0.199,-1.215 -0.35,-1.9 -0.941,0.217 -1.941,0.325 -3,0.325 -0.834,0 -1.134,-0.05 -0.9,-0.15 v -0.6 c 1.286,-0.692 2.403,-1.3 3.35,-1.825 -0.636,-2.397 -1.568,-5.272 -2.8,-8.625 -1.275,0.633 -2.176,0.95 -2.7,0.95 -1,0 -1.566,-0.517 -1.699,-1.55 -0.134,-1.067 -0.267,-1.6 -0.4,-1.6 -1.333,0 -2.167,-0.25 -2.5,-0.75 -0.128,-0.18 -0.203,-0.588 -0.225,-1.225 0.316,-0.762 0.475,-1.271 0.475,-1.525 0,-4.067 -1.167,-4.05 -3.5,0.05 -0.438,0.775 -0.855,1.558 -1.25,2.35 -0.167,-0.371 -0.25,-0.771 -0.25,-1.2 0,-0.033 0.283,-1.083 0.85,-3.15 0.601,-2.066 0.9,-3.2 0.9,-3.4 0,-0.067 -0.384,-0.35 -1.15,-0.85 -0.733,-0.5 -1.1,-0.95 -1.1,-1.35 0,-0.167 0.2,-0.8 0.6,-1.9 0.467,-1.133 0.717,-1.816 0.75,-2.05 -0.033,0 -0.216,0.167 -0.55,0.5 -0.467,0.333 -0.95,0.5 -1.45,0.5 -0.41,0 -0.902,-0.117 -1.475,-0.35 0.964,-1.268 1.705,-2.102 2.225,-2.5 -0.623,-0.291 -1.265,-0.374 -1.925,-0.25 1.384,-2.274 2.075,-3.59 2.075,-3.95 0,-0.566 -0.1,-0.95 -0.3,-1.15 -0.134,-0.1 -0.417,-0.2 -0.851,-0.3 -0.083,0.111 -1.392,1.753 -3.925,4.925 0.052,-0.455 0.144,-1.03 0.275,-1.725 0.086,-0.46 0.161,-0.868 0.225,-1.225 0.55,-1.066 0.825,-1.724 0.825,-1.975 0,-0.467 -0.033,-0.85 -0.1,-1.15 -0.067,-0.467 -0.117,-0.85 -0.15,-1.15 -1.142,-0.085 -2.292,0.423 -3.45,1.525 -0.021,-0.114 -0.037,-0.239 -0.05,-0.375 0.718,-2.091 1.335,-3.741 1.85,-4.95 l -0.35,-0.2 c -0.237,0.184 -0.471,0.375 -0.7,0.575 -0.495,-0.227 -0.912,-0.535 -1.25,-0.925 -0.3,-0.367 -0.45,-0.65 -0.45,-0.85 0,-0.367 0.267,-1.533 0.801,-3.5 0.5,-1.767 0.899,-3.117 1.199,-4.05 -0.105,0.226 -0.271,0.626 -0.5,1.2 -0.002,-0.402 -0.019,-0.619 -0.05,-0.65 -0.066,-0.067 -0.133,-0.184 -0.2,-0.35 -1.854,0.657 -3.438,1.69 -4.75,3.1 l 1.926,-7.775 c -0.725,1.086 -1.399,1.945 -2.025,2.575 0.566,-1.262 0.85,-2.012 0.85,-2.25 0,-0.467 -0.017,-0.7 -0.05,-0.7 -0.066,0 -0.133,-0.067 -0.2,-0.2 -0.957,-0.049 -2.356,1.351 -4.199,4.2 -0.205,-0.133 -0.388,-0.3 -0.551,-0.5 0.386,-0.615 0.786,-1.265 1.2,-1.95 4.033,-6.7 6.05,-10.333 6.05,-10.9 0,-3.746 -1.916,-2.921 -5.75,2.475 0.208,-0.493 0.425,-1.018 0.65,-1.575 0.397,-0.98 0.765,-1.888 1.1,-2.725 0.031,-0.872 0.09,-1.604 0.176,-2.2 -1.166,-1.018 -2.457,-1.776 -3.875,-2.275 -0.964,1.133 -1.964,1.7 -3,1.7 -1,0 -1.5,-0.55 -1.5,-1.65 0,-0.261 0.041,-0.569 0.125,-0.925 -1.118,-0.179 -2.31,-0.379 -3.575,-0.6 -0.017,0.008 -0.033,0.017 -0.05,0.025 -0.016,-0.014 -0.032,-0.03 -0.051,-0.05 -0.56,-0.093 -1.135,-0.193 -1.725,-0.3 -0.754,0.667 -1.495,1 -2.225,1 -0.5,0 -0.967,-0.25 -1.4,-0.75 -0.274,-0.312 -0.475,-0.661 -0.6,-1.05 -0.852,-0.17 -1.727,-0.345 -2.625,-0.525 -0.423,-0.418 -0.923,-0.844 -1.5,-1.275 -0.881,1.33 -1.723,2.113 -2.525,2.35 0.263,-1.191 0.546,-2.341 0.85,-3.45 -0.446,-0.265 -0.872,-0.507 -1.274,-0.725 -0.553,1.719 -1.111,2.861 -1.675,3.425 -0.233,-0.067 -0.567,-0.367 -1,-0.9 -0.434,-0.567 -0.65,-1 -0.65,-1.3 0,-0.684 0.092,-1.492 0.275,-2.425 -0.111,-0.025 -0.22,-0.05 -0.325,-0.075 -0.438,0.941 -0.872,1.875 -1.3,2.8 0,0.433 0.017,0.717 0.05,0.85 l -0.2,-0.1 -0.75,-1.1 c 0.041,-0.103 0.308,-0.953 0.8,-2.55 -0.851,-0.133 -1.501,-0.516 -1.95,-1.15 -0.18,-0.252 -0.38,-0.594 -0.6,-1.025 v 0.575 l -0.15,0.4 -0.6,-0.15 c -0.566,-0.867 -0.9,-1.567 -1,-2.1 -0.1,0.267 -0.184,0.617 -0.25,1.05 -0.1,0.367 -0.233,0.6 -0.4,0.7 l -0.35,-0.25 v -2.15 l -0.4,3.4 c -0.733,-0.267 -1.483,-0.4 -2.25,-0.4 v -1.85 h -0.1 v 2.25 l -0.9,0.1 c -0.166,-0.067 -0.283,-0.184 -0.35,-0.35 -0.1,-1 -0.15,-1.583 -0.15,-1.75 -0.066,0.233 -0.149,0.733 -0.25,1.5 H 87.6 c -0.29,-0.483 -0.599,-1.275 -0.925,-2.375 -0.889,-0.527 -1.789,-1.061 -2.7,-1.6 -0.107,0.116 -0.232,0.225 -0.375,0.325 -0.139,-0.225 -0.264,-0.483 -0.375,-0.775 -0.793,-0.47 -1.593,-0.945 -2.4,-1.425 -0.034,0.457 -0.075,0.856 -0.125,1.2 -0.166,-0.167 -0.25,-0.367 -0.25,-0.6 0,-0.177 -0.024,-0.469 -0.074,-0.875 -0.162,-0.097 -0.32,-0.197 -0.476,-0.3 -0.061,0.348 -0.128,0.606 -0.2,0.775 -0.162,-0.395 -0.312,-0.787 -0.449,-1.175 -1.536,-0.911 -3.095,-1.853 -4.676,-2.825 -3.149,-0.348 -5.524,-0.931 -7.125,-1.75 -1.794,-0.932 -2.96,-2.39 -3.5,-4.375 -0.328,0.017 -0.645,0.025 -0.949,0.025 -3.934,0 -7.2,-0.933 -9.801,-2.8 -2.066,-1.5 -3.1,-2.95 -3.1,-4.35 0,-0.359 0.033,-0.726 0.1,-1.1 -0.151,0 -0.302,0 -0.449,0 -3.334,0 -5,-4.55 -5,-13.65 0,-0.12 0.008,-0.245 0.024,-0.375 -0.115,-0.591 -0.24,-1.167 -0.375,-1.725 -0.181,-0.744 -0.381,-1.444 -0.6,-2.1 -0.112,-4.11 -0.479,-7.96 -1.101,-11.55 -0.412,-2.531 -0.929,-4.772 -1.55,-6.725 -1.206,-0.719 -2.306,-2.094 -3.3,-4.125 -1.167,-2.433 -1.75,-4.367 -1.75,-5.8 0,-0.054 0,-0.104 0,-0.15 -0.434,-1.561 -0.65,-3.944 -0.65,-7.15 0,-2.3 0.767,-5.816 2.301,-10.55 0.272,-0.833 0.557,-1.616 0.85,-2.35 -1.671,-3.474 -2.913,-6.04 -3.725,-7.7 C 31.625,208.784 30,203.101 30,196.228 c 0,-0.025 0,-0.108 0,-0.25 -0.868,-4.196 -1.609,-7.487 -2.226,-9.875 -0.563,-0.8 -1.155,-1.642 -1.774,-2.525 -3.056,-4.378 -5.439,-7.845 -7.15,-10.4 -2.335,-0.91 -4.186,-2.06 -5.55,-3.45 -1.066,-1.067 -2.417,-2.733 -4.05,-5 -0.667,0.4 -1.25,0.517 -1.75,0.35 -0.101,-0.4 -0.15,-0.983 -0.15,-1.75 l -0.35,0.4 c -0.267,0.3 -0.517,0.5 -0.75,0.6 -0.467,-0.4 -1.301,-1.483 -2.5,-3.25 -1.267,-1.833 -1.9,-2.983 -1.9,-3.45 0,-0.679 0.333,-1.237 1,-1.675 -0.174,-0.411 -0.308,-0.77 -0.4,-1.075 -0.209,-0.117 -0.442,-0.25 -0.699,-0.4 -0.601,-0.367 -0.9,-0.667 -0.9,-0.9 0,-1.142 0.292,-2.2 0.875,-3.175 -0.128,-0.486 -0.203,-0.986 -0.225,-1.5 -0.155,-0.183 -0.338,-0.375 -0.551,-0.575 -0.6,-0.567 -0.916,-0.9 -0.949,-1 1.972,-1.432 3.28,-2.407 3.925,-2.925 0.221,-0.379 0.463,-0.787 0.725,-1.225 0.066,-0.389 0.101,-0.872 0.101,-1.45 l -0.5,-2.2 c 0.22,-0.969 1.095,-1.619 2.625,-1.95 0.649,-0.941 0.975,-1.524 0.975,-1.75 1.274,-1.363 2.349,-2.463 3.225,-3.3 0.503,-0.994 1.028,-2.02 1.575,-3.075 0.725,-0.426 1.075,-1.084 1.05,-1.975 0,-0.544 -0.024,-1.177 -0.074,-1.9 0.071,-0.03 0.146,-0.064 0.225,-0.1 -0.084,-0.042 -0.159,-0.084 -0.225,-0.125 -0.01,-0.088 -0.019,-0.18 -0.025,-0.275 0.533,-0.934 1.35,-1.9 2.45,-2.9 0.866,-0.767 1.3,-1.417 1.3,-1.95 0,-0.733 -0.25,-1.383 -0.75,-1.95 -0.148,-0.176 -0.307,-0.327 -0.475,-0.45 0.357,-0.408 0.749,-0.824 1.175,-1.25 2.967,-2.967 4.45,-5.467 4.45,-7.5 0,-0.4 -0.233,-0.6 -0.7,-0.6 -0.467,0 -0.7,-0.217 -0.7,-0.65 0,-0.467 1.233,-2.267 3.7,-5.4 2.767,-3.367 4.45,-5.434 5.05,-6.2 -0.833,-0.6 -1.283,-1.017 -1.35,-1.25 0.399,-0.533 1.633,-1.533 3.699,-3 1.7,-1.167 2.551,-2.083 2.551,-2.75 0,-0.4 0.116,-0.783 0.35,-1.15 0.267,-0.333 0.4,-0.717 0.4,-1.15 0,-1.6 0.033,-2.467 0.1,-2.6 0.467,-0.633 2.267,-1.684 5.4,-3.15 -0.467,-0.233 -0.851,-0.684 -1.15,-1.35 3.767,-3.067 6.9,-5.45 9.4,-7.15 0.733,-0.5 1.1,-1 1.1,-1.5 0,-1.267 0.566,-1.934 1.7,-2 0.523,0.019 1.058,0.036 1.6,0.05 0.241,-0.258 0.483,-0.517 0.726,-0.775 -0.578,-0.194 -1.119,-0.652 -1.625,-1.375 0.066,-0.267 0.233,-0.567 0.5,-0.9 h 2.1 l -0.25,-0.1 -0.85,-1 c 0.066,-0.267 0.233,-0.517 0.5,-0.75 l 2,-0.25 c -0.167,-0.133 -0.4,-0.25 -0.7,-0.35 -0.2,-0.133 -0.3,-0.467 -0.3,-1 0,-0.6 0.366,-0.95 1.1,-1.05 1.269,-0.207 2.326,-0.49 3.175,-0.85 -0.018,-0.067 -0.034,-0.133 -0.05,-0.2 -0.206,-0.013 -0.431,-0.03 -0.675,-0.05 -0.3,-0.1 -0.45,-0.417 -0.45,-0.95 0,-0.733 0.717,-1.633 2.15,-2.7 0.049,-0.036 0.099,-0.07 0.149,-0.1 C 60.133,56.487 60,56.187 60,55.921 c 0,-0.534 0.033,-0.833 0.1,-0.9 0.134,0 0.267,-0.066 0.4,-0.2 1.027,0 2.228,-0.075 3.6,-0.225 0,-0.086 0,-0.177 0,-0.275 0,-0.533 0.267,-0.767 0.8,-0.7 l 0.851,0.2 0.425,0.05 C 66.058,53.774 66,53.507 66,53.071 c 0,-0.5 0.083,-0.783 0.25,-0.85 0.166,0.033 0.25,0.017 0.25,-0.05 h 2.6 l -0.1,-0.1 c -0.301,-0.267 -0.767,-0.85 -1.4,-1.75 0.236,-0.236 1.378,-0.303 3.425,-0.2 0.033,-0.128 0.066,-0.262 0.101,-0.4 -0.546,-0.296 -0.888,-0.596 -1.025,-0.9 0.248,-0.249 0.707,-0.407 1.375,-0.475 0.164,-0.521 0.348,-0.929 0.55,-1.225 -0.58,-0.497 -1.056,-0.931 -1.425,-1.3 0.333,-0.333 1.05,-0.5 2.15,-0.5 0.117,0 0.225,0 0.324,0 0.438,-0.467 1.13,-0.7 2.075,-0.7 0.301,0 0.567,0.025 0.8,0.075 0.132,-0.012 0.265,-0.021 0.4,-0.025 l -0.25,-0.1 c -1.167,-0.434 -1.833,-0.85 -2,-1.25 0.333,-0.333 1.05,-0.5 2.15,-0.5 -0.4,-0.5 -0.75,-0.983 -1.051,-1.45 -0.166,-0.267 -0.366,-0.617 -0.6,-1.05 0.6,-0.067 1.55,-0.033 2.85,0.1 1.764,0.165 3.164,0.282 4.2,0.35 0.049,-0.038 0.1,-0.08 0.15,-0.125 -0.144,-0.023 -0.327,-0.048 -0.55,-0.075 -0.601,-0.267 -1.15,-0.85 -1.65,-1.75 1.267,0.133 2.5,0.333 3.7,0.6 0.055,0.016 0.113,0.033 0.175,0.05 0.542,-0.05 1.075,-0.117 1.6,-0.2 -0.203,-0.163 -0.445,-0.347 -0.725,-0.55 -0.8,-0.6 -1.384,-1.067 -1.75,-1.4 l 0.4,-0.4 c 0.566,-0.034 1.449,0.216 2.649,0.75 0.494,0.211 0.911,0.378 1.25,0.5 -0.2,-0.137 -0.3,-0.42 -0.3,-0.85 0,-0.833 0.134,-1 0.4,-0.5 1.8,0.767 2.583,0.867 2.35,0.3 -0.365,-0.867 -0.232,-1.3 0.402,-1.3 z m 9.35,-5.9 c 0.102,0.063 0.202,0.121 0.3,0.175 0.016,-0.024 0.032,-0.049 0.05,-0.075 -0.175,-0.067 -0.291,-0.1 -0.35,-0.1 z m -32,23.9 c -0.279,0 -0.546,0.025 -0.8,0.075 l 1.05,0.175 -0.25,-0.25 z m 289,483.374 c 0.514,0.446 0.988,0.854 1.425,1.226 l 1.275,0.2 c -0.773,-0.658 -1.698,-1.509 -2.775,-2.551 0.024,0.37 0.049,0.745 0.075,1.125 z m -8.8,44.276 -0.05,-0.025 -0.025,0.025 c 0.028,0 0.053,0 0.075,0 z m 355.55,50.5 c -0.633,0.033 -2.5,0.583 -5.6,1.65 -1.667,0.533 -3.717,1.233 -6.15,2.1 h 0.65 c 0.732,-0.2 2.316,-0.684 4.75,-1.45 2.833,-0.899 4.866,-1.616 6.1,-2.149 l 0.25,-0.151 z m -13.201,7.599 c -1.8,0.567 -2.816,0.867 -3.05,0.9 0.914,-0.518 2.764,-1.052 5.55,-1.6 4.337,-1.651 8.454,-3.734 12.351,-6.25 -2.301,1 -7.984,2.949 -17.051,5.85 -3.097,1.002 -5.881,1.86 -8.35,2.575 -0.469,0.615 -0.927,1.231 -1.375,1.85 1.023,-0.217 2.09,-0.441 3.2,-0.675 1.74,-0.45 3.266,-0.851 4.575,-1.2 2.115,-0.567 4.182,-1.226 6.199,-1.975 -0.558,0.11 -1.241,0.285 -2.049,0.525 z m -4.899,3.375 c -3.208,0.977 -6.066,1.727 -8.575,2.25 -0.031,0.048 -0.064,0.099 -0.101,0.15 0.617,-0.12 1.159,-0.229 1.625,-0.325 2.007,-0.433 4.557,-1.183 7.65,-2.25 -0.153,0.042 -0.303,0.083 -0.45,0.125 l -0.149,0.05 z m -0.851,8.826 c 3.934,-0.833 6.967,-1.883 9.101,-3.149 -0.119,-0.149 -0.637,-0.441 -1.551,-0.875 -1.691,1.312 -4.95,2.786 -9.774,4.425 0.92,-0.157 1.661,-0.291 2.224,-0.401 z M 545.35,530.121 c 0.035,-0.168 0.068,-0.334 0.1,-0.5 -0.071,0.176 -0.121,0.343 -0.149,0.5 h 0.049 z m -0.576,37.85 c -0.013,-0.081 -0.021,-0.164 -0.024,-0.25 -0.074,0.18 -0.141,0.347 -0.2,0.5 0.066,-0.072 0.141,-0.156 0.224,-0.25 z m 0.125,2.275 c -0.241,0.187 -0.642,0.762 -1.2,1.725 0.57,-0.475 0.979,-0.983 1.226,-1.525 -0.013,-0.063 -0.021,-0.13 -0.026,-0.2 z m -0.95,2.725 c -0.199,0.066 -0.516,0.333 -0.949,0.8 -0.5,0.5 -0.816,0.95 -0.95,1.351 0.366,-0.101 0.7,-0.384 1,-0.851 0.366,-0.6 0.667,-0.983 0.899,-1.149 v -0.151 z m 6.2,30.7 c -0.118,0.271 -0.243,0.555 -0.375,0.85 0.278,-0.455 0.452,-0.755 0.525,-0.899 -0.046,0.013 -0.096,0.029 -0.15,0.049 z m -3.799,2.7 c -0.35,0.501 -0.641,1.06 -0.875,1.675 0.127,-0.25 0.252,-0.491 0.375,-0.726 0.168,-0.316 0.335,-0.632 0.5,-0.949 z m -13.1,89.375 c -0.102,0.17 -0.218,0.361 -0.35,0.574 -0.162,0.271 -0.32,0.521 -0.475,0.75 0.056,-0.194 0.115,-0.377 0.175,-0.55 0.192,-0.243 0.408,-0.501 0.65,-0.774 z m 16.8,94.775 c 0.015,-0.036 0.03,-0.069 0.05,-0.1 -0.02,-0.077 -0.036,-0.152 -0.05,-0.226 l -0.101,0.275 0.101,0.051 z M 201.6,769.07 c -0.1,0.601 0.1,1.65 0.6,3.15 0.601,1.7 0.9,2.566 0.9,2.6 -0.3,-1.899 -0.8,-3.767 -1.5,-5.6 v -0.15 z m 14.15,-40.549 0.35,0.2 c 0,-0.105 0,-0.189 0,-0.25 v -0.05 c -0.116,0.035 -0.232,0.068 -0.35,0.1 z M 88.699,308.571 h 0.15 v -0.4 c -0.063,0.02 -0.13,0.037 -0.2,0.05 0.025,0.136 0.041,0.253 0.05,0.35 z m 39.125,14.15 c -0.026,-0.026 -0.052,-0.051 -0.074,-0.075 -0.052,0.123 -0.102,0.248 -0.15,0.375 0.075,-0.102 0.15,-0.202 0.224,-0.3 z M 111.6,606.771 c -0.2,0.267 -0.45,0.684 -0.75,1.25 0.333,0.033 0.7,0 1.1,-0.1 l 0.65,-0.15 v -1.899 c -0.367,0.099 -0.701,0.399 -1,0.899 z m 1.349,-10.5 c 0.101,-0.767 0.184,-1.233 0.25,-1.399 -0.166,0.066 -0.733,0.449 -1.699,1.149 -0.934,0.634 -1.45,1 -1.551,1.101 l 0.4,0.149 c 1.401,0.033 2.267,-0.3 2.6,-1 z m 1.901,73.35 0.1,-0.101 c -0.5,-0.8 -1.25,-2.133 -2.25,-4 -0.933,-1.566 -1.767,-2.649 -2.5,-3.25 1.6,2.934 3.15,5.384 4.65,7.351 z m -0.651,-3 0.15,-0.101 c -0.48,-0.887 -0.914,-1.695 -1.3,-2.425 0.501,1.211 0.885,2.052 1.15,2.526 z m -1.849,5.75 c -0.724,-1.81 -1.516,-3.167 -2.375,-4.075 0.303,1.386 1.711,4.211 4.225,8.475 -0.1,-0.167 -0.717,-1.633 -1.85,-4.4 z m -10.576,138.275 c 0.073,-0.186 0.148,-0.369 0.226,-0.55 -0.294,0.149 -0.594,0.308 -0.9,0.475 l 0.674,0.075 z M 856.8,436.771 c 0.294,0.457 0.618,0.982 0.975,1.575 -0.444,-0.884 -0.86,-1.717 -1.25,-2.5 -0.016,0.145 -0.032,0.286 -0.05,0.425 0.106,0.163 0.214,0.33 0.325,0.5 z m -7.925,82.1 c -0.152,-0.422 -0.311,-0.881 -0.476,-1.375 0.031,0.225 0.065,0.449 0.101,0.675 0.086,0.244 0.169,0.485 0.25,0.725 0.043,-0.01 0.084,-0.019 0.125,-0.025 z m -0.476,50.1 c 0.197,0 0.438,-0.025 0.726,-0.075 -0.338,0.027 -0.704,0.053 -1.101,0.075 0.127,0 0.252,0 0.375,0 z m -0.424,8.075 c -4.252,0.55 -6.993,0.858 -8.225,0.925 -0.094,0.22 -0.178,0.437 -0.25,0.65 0.699,0 1.434,0 2.199,0 0.167,0 2.051,-0.483 5.65,-1.45 0.212,-0.044 0.42,-0.086 0.626,-0.125 z"
   id="path3"
   style="fill-rule:evenodd" />
</svg>