<svg xmlns="http://www.w3.org/2000/svg" width="2048" height="2048" viewBox="0 0 2048 2048" version="1.1">
	<path d="M 1162.766 563.071 C 1161.813 563.626, 1160.082 567.213, 1158.919 571.040 C 1157.566 575.495, 1156.282 578, 1155.350 578 C 1154.550 578, 1150.639 581.082, 1146.659 584.849 C 1135.657 595.263, 1131.375 596.263, 1111.658 593.019 C 1096.024 590.448, 1037.568 594.556, 1005.718 600.466 C 998.138 601.872, 985.538 603.940, 977.718 605.062 C 969.898 606.183, 958.550 607.951, 952.500 608.991 C 946.450 610.031, 935.875 611.376, 929 611.982 C 922.125 612.587, 909.750 614.157, 901.500 615.471 C 893.250 616.784, 881.325 618.331, 875 618.907 C 868.675 619.483, 856.075 620.644, 847 621.486 C 812.870 624.655, 767.700 626.177, 724.131 625.626 C 650.392 624.694, 595.937 623.193, 578 621.598 C 568.375 620.742, 555.325 619.993, 549 619.934 C 542.675 619.874, 533.450 619.516, 528.500 619.137 C 517.251 618.275, 496.550 620.046, 478.887 623.379 C 471.524 624.769, 458.300 626.854, 449.500 628.012 C 422.461 631.572, 414.609 633.570, 392.659 642.476 C 372.691 650.578, 363.802 654.913, 348.668 663.930 C 326.254 677.285, 313.189 687.860, 285.279 715.236 C 271.394 728.856, 259.629 740, 259.136 740 C 257.822 740, 235.499 764.534, 231.924 769.908 C 229.676 773.287, 229.014 775.236, 229.417 777.287 C 229.872 779.599, 228.930 781.377, 223.891 787.717 C 210.857 804.120, 201.004 821.228, 200.996 827.472 C 200.994 829.137, 200.174 831.850, 199.174 833.500 C 198.174 835.150, 195.408 840.775, 193.027 846 C 190.646 851.225, 186.665 858.875, 184.179 863 C 177.373 874.297, 173.726 882.880, 174.368 886.089 C 174.785 888.176, 173.182 892.234, 167.622 903.163 C 160.526 917.112, 155 931.327, 155 935.631 C 155 938.380, 157.446 940.378, 159.995 939.712 C 161.098 939.423, 162 939.284, 162 939.402 C 162 939.520, 160.650 943.316, 159 947.837 C 157.350 952.358, 156 957.137, 156 958.457 C 156 963.994, 162.388 965.865, 165.927 961.365 C 167.067 959.916, 168 958.928, 168 959.169 C 168 959.410, 166.399 964.308, 164.443 970.054 C 162.487 975.799, 160.742 982.813, 160.566 985.640 C 160.345 989.191, 158.553 994.601, 154.772 1003.140 C 147.592 1019.354, 145.638 1025.440, 146.395 1029.226 C 147.516 1034.828, 151.886 1036.451, 156.365 1032.927 C 157.814 1031.788, 158.997 1031, 158.994 1031.177 C 158.966 1032.757, 154.607 1055.899, 152.623 1065 C 149.602 1078.861, 147.887 1091.852, 148.679 1094.882 C 149.055 1096.316, 150.283 1097.307, 152.151 1097.680 C 154.846 1098.219, 155.002 1098.504, 154.454 1101.879 C 154.130 1103.871, 153.646 1106.850, 153.379 1108.500 C 153.111 1110.150, 151.140 1119.150, 148.999 1128.500 C 140.633 1165.029, 136.679 1190.679, 137.146 1205.388 C 137.564 1218.573, 139.009 1222, 144.151 1222 C 147.175 1222, 147.241 1222.098, 146.677 1225.750 C 144.156 1242.073, 143.513 1254.701, 143.507 1288 C 143.500 1326.933, 143.669 1328.377, 148.379 1329.559 C 150.442 1330.077, 150.825 1331.049, 151.830 1338.321 C 152.451 1342.819, 153.178 1355.275, 153.444 1366 C 154.153 1394.558, 157.912 1427.922, 160.794 1431.250 C 164.117 1435.087, 169.979 1431.594, 170.026 1425.750 C 170.048 1422.974, 170.396 1423.448, 172.413 1429 C 177.393 1442.711, 177.997 1444.611, 178.544 1448.296 C 179.275 1453.217, 182.668 1455.103, 186.397 1452.659 C 188.737 1451.126, 188.912 1451.146, 189.504 1453.012 C 191.047 1457.875, 196.257 1459.584, 199.297 1456.224 C 200.181 1455.247, 201.222 1452.435, 201.610 1449.974 C 202.476 1444.482, 204.789 1441.073, 207.679 1441.031 C 210.386 1440.992, 213 1438.486, 213 1435.929 C 213 1434.868, 213.432 1434, 213.961 1434 C 216.528 1434, 218.897 1429.478, 219.556 1423.321 L 220.246 1416.876 222.108 1419.938 C 224.606 1424.045, 230.094 1424.313, 232.624 1420.451 C 234.058 1418.263, 234.198 1416.190, 233.613 1405.839 C 233.238 1399.205, 232.670 1391.872, 232.351 1389.545 C 231.775 1385.343, 231.792 1385.316, 234.658 1385.737 C 236.721 1386.039, 238.108 1385.538, 239.518 1383.981 C 241.780 1381.480, 241.920 1378.633, 240.675 1360.466 L 239.850 1348.433 243.839 1348.813 C 247.291 1349.142, 248.068 1348.826, 249.621 1346.456 C 251.372 1343.784, 251.321 1343.150, 247.534 1320.384 L 243.652 1297.051 246.326 1294.573 C 249.193 1291.917, 249.498 1289.869, 247.996 1283.363 C 247.263 1280.187, 247.388 1278.530, 248.534 1276.233 C 249.879 1273.535, 249.843 1272.462, 248.164 1265.370 C 246.803 1259.621, 246.427 1255.169, 246.771 1248.851 C 247.238 1240.250, 247.256 1240.199, 250.137 1239.623 C 255.400 1238.570, 255.915 1232.835, 253.022 1207.500 C 252.519 1203.100, 252.084 1191.565, 252.054 1181.867 C 252.003 1165.365, 252.122 1164.201, 253.898 1163.737 C 258.297 1162.587, 258.837 1159.788, 259.543 1134.500 C 260.057 1116.096, 259.852 1106.886, 258.666 1095 C 257.815 1086.475, 256.848 1076.326, 256.518 1072.446 L 255.918 1065.392 259.371 1065.795 C 262.213 1066.127, 263.121 1065.745, 264.502 1063.637 C 265.936 1061.449, 266.131 1058.767, 265.840 1045.287 C 265.503 1029.657, 265.524 1029.481, 267.890 1027.567 C 270.214 1025.688, 270.262 1025.353, 269.622 1015.567 C 269.259 1010.030, 268.545 1001.900, 268.035 997.500 C 266.670 985.722, 266.827 973.094, 268.513 959 C 269.335 952.125, 270.440 936.921, 270.968 925.212 C 271.496 913.504, 272.125 903.604, 272.364 903.212 C 272.604 902.821, 273.740 896.875, 274.890 890 C 276.039 883.125, 277.821 874.575, 278.850 871 C 280.714 864.523, 288.164 848.635, 289.815 847.614 C 290.293 847.319, 292.149 851.897, 293.940 857.789 C 296.103 864.904, 302.746 880.082, 313.729 903 C 341.724 961.419, 345.163 967.885, 357.340 985 C 360.666 989.675, 366.505 997.995, 370.315 1003.489 L 377.242 1013.478 377.371 1030.013 L 377.500 1046.547 373.812 1054.023 C 371.462 1058.790, 367.287 1064.647, 362.298 1070.180 C 353.497 1079.940, 349.422 1083.269, 336.500 1091.254 C 331.550 1094.313, 325.834 1098.095, 323.799 1099.658 C 321.763 1101.221, 317.312 1104.075, 313.907 1106 C 302.926 1112.209, 297.590 1117.895, 294.726 1126.442 C 294.149 1128.161, 293.351 1147.673, 292.902 1171 C 291.728 1231.972, 290.562 1255.630, 288.121 1268 C 286.981 1273.775, 284.677 1287.050, 283.001 1297.500 C 277.470 1331.986, 269.197 1370.270, 263.768 1386.500 C 259.977 1397.834, 257.075 1403.478, 252.553 1408.313 C 247.454 1413.765, 245.948 1417.227, 245.296 1425.003 C 244.768 1431.303, 244.986 1432.404, 247.984 1438.620 C 251.040 1444.956, 251.262 1446.145, 251.507 1457.442 C 251.821 1471.963, 254.105 1481.540, 260.350 1494.518 C 265.374 1504.958, 280.236 1527.494, 283.367 1529.418 C 284.691 1530.233, 287.965 1530.633, 292 1530.476 C 297.996 1530.241, 299.098 1529.817, 306.210 1525.008 C 310.450 1522.140, 315 1518.378, 316.320 1516.647 C 322.267 1508.848, 328.053 1493.396, 330.979 1477.500 C 332.292 1470.361, 334.308 1465.603, 343.054 1449 C 349.489 1436.784, 352.300 1430.099, 361.406 1405.345 C 367.550 1388.643, 368.337 1383.618, 366.925 1370.124 C 366.072 1361.986, 366.063 1356.230, 366.888 1347.778 C 367.500 1341.517, 368 1331.455, 368 1325.419 C 368 1319.382, 368.909 1307.256, 370.019 1298.472 C 371.130 1289.687, 372.217 1277.236, 372.436 1270.801 C 372.810 1259.764, 372.993 1258.898, 375.666 1255.488 C 377.225 1253.499, 381.650 1249.580, 385.500 1246.778 C 389.350 1243.977, 395.047 1239.496, 398.161 1236.821 L 403.821 1231.957 409.548 1242.728 C 412.698 1248.653, 417.475 1257.181, 420.163 1261.681 C 422.851 1266.181, 427.227 1275.181, 429.887 1281.681 C 434.590 1293.177, 443.762 1321.416, 446.068 1331.500 C 446.697 1334.250, 450.047 1346.850, 453.512 1359.500 C 456.977 1372.150, 460.996 1388.575, 462.444 1396 C 470.626 1437.983, 470.049 1432.766, 470.334 1467.360 L 470.595 1499.220 476.463 1504.426 C 479.690 1507.289, 484.844 1513.407, 487.915 1518.020 C 492.686 1525.186, 494.374 1526.879, 499.500 1529.638 C 507.998 1534.212, 510.973 1534.819, 511.678 1532.124 C 512.356 1529.531, 512.327 1529.531, 520.161 1531.987 C 526.986 1534.126, 537.361 1534.550, 545 1533 C 551.141 1531.755, 560.444 1533.580, 563.798 1536.688 C 565.212 1537.999, 566.991 1538.834, 567.750 1538.542 C 568.509 1538.251, 573.264 1538.683, 578.315 1539.502 C 590.247 1541.437, 620.474 1541.523, 628.040 1539.643 C 631.043 1538.897, 637.100 1537.484, 641.500 1536.502 C 650.998 1534.384, 652.488 1533.718, 656.750 1529.684 C 661.946 1524.766, 661.141 1521.142, 652.070 1508.617 C 644.738 1498.494, 638.941 1492.122, 632.500 1487.106 C 622.496 1479.314, 611.109 1467.158, 599.146 1451.500 C 592.423 1442.700, 583.985 1432.125, 580.394 1428 C 570.434 1416.558, 566.959 1410.982, 556.985 1390.434 C 544.845 1365.424, 537.059 1343.294, 533.001 1322.267 C 531.139 1312.617, 530.946 1308.150, 531.067 1277.523 C 531.147 1257.384, 530.761 1240.643, 530.121 1236.500 C 528.761 1227.694, 528.697 1212.997, 529.988 1205.917 C 530.531 1202.938, 532.362 1191.725, 534.056 1181 C 538.176 1154.911, 540.221 1145.770, 546.457 1125.576 C 551.901 1107.946, 557.510 1093.934, 565.828 1077.177 C 573.898 1060.921, 575.191 1059.309, 583.275 1055.435 C 593.389 1050.589, 598.616 1050.716, 618.500 1056.295 C 636.976 1061.479, 645.625 1064.189, 650 1066.163 C 656.109 1068.920, 677.694 1076.667, 687.476 1079.614 C 698.270 1082.865, 717.838 1086.534, 733 1088.151 C 751.407 1090.113, 793.089 1089.899, 804.500 1087.783 C 809.450 1086.865, 822.275 1084.976, 833 1083.586 C 843.725 1082.195, 855.650 1080.409, 859.500 1079.618 C 863.350 1078.826, 872.125 1077.002, 879 1075.564 C 885.875 1074.126, 895.550 1072.515, 900.500 1071.984 C 905.450 1071.452, 914.450 1070.362, 920.500 1069.561 C 951.172 1065.499, 986.949 1063.714, 1002.381 1065.476 L 1009.263 1066.261 1008.638 1072.987 C 1008.294 1076.686, 1007.299 1081.690, 1006.427 1084.106 C 1005.445 1086.827, 1004.518 1094.401, 1003.991 1104 C 1002.515 1130.931, 996.594 1152.025, 983.361 1177.500 C 973.779 1195.948, 966 1212.400, 966 1214.220 C 966 1215.396, 966.514 1217.779, 967.142 1219.515 C 968.111 1222.197, 967.860 1224.087, 965.466 1232.086 C 961.952 1243.834, 961.937 1246.689, 965.378 1249.649 C 967.898 1251.816, 967.974 1252.156, 966.955 1256.713 C 962.960 1274.593, 960.012 1281.625, 941.060 1318.500 C 937.102 1326.200, 930.711 1339.114, 926.857 1347.197 L 919.850 1361.894 918.954 1374.197 C 917.947 1388.031, 919.310 1399.459, 923.589 1413.060 C 926.281 1421.617, 928.935 1424.706, 934 1425.175 C 937.276 1425.479, 937.631 1425.869, 939.540 1431.264 C 942.004 1438.226, 944.212 1441, 947.289 1441 C 949.539 1441, 949.627 1441.366, 950.802 1455.555 C 952.104 1471.295, 953.472 1475.578, 957.519 1476.594 C 959.196 1477.015, 960.608 1478.587, 961.867 1481.432 C 964.238 1486.791, 968.844 1493.199, 974.674 1499.250 C 978.538 1503.259, 979.837 1504, 983.004 1504 C 985.067 1504, 988.486 1504.723, 990.601 1505.607 C 999.694 1509.406, 1021.081 1508.149, 1051.089 1502.052 C 1061.794 1499.877, 1065.444 1498.549, 1068.761 1495.624 C 1077.417 1487.992, 1070.499 1468.346, 1048.998 1439.500 C 1047.285 1437.202, 1044.923 1431.722, 1043.447 1426.621 C 1042.033 1421.737, 1040.264 1416.787, 1039.514 1415.621 C 1036.939 1411.611, 1034.999 1401.473, 1033.942 1386.500 C 1033.360 1378.250, 1032.432 1369.250, 1031.880 1366.500 C 1030.980 1362.014, 1031.198 1360.575, 1033.999 1352.500 C 1037.401 1342.694, 1037.775 1339.434, 1038.837 1310.395 L 1039.536 1291.291 1043.134 1285.395 C 1047.523 1278.205, 1073.746 1224.166, 1077.473 1214.631 C 1078.950 1210.854, 1081.687 1202.304, 1083.555 1195.631 C 1092.324 1164.308, 1096.722 1151.159, 1104.043 1134.373 C 1110.297 1120.033, 1123.334 1094.470, 1125.617 1092.071 C 1127.334 1090.266, 1143.802 1102.454, 1155.500 1114.188 C 1163.331 1122.043, 1165.822 1123.853, 1174.679 1128.129 C 1185.846 1133.519, 1188.446 1135.947, 1193.173 1145.399 C 1194.851 1148.755, 1196.919 1152.287, 1197.767 1153.250 C 1199.438 1155.145, 1204.980 1155.620, 1206.594 1154.006 C 1208.669 1151.931, 1216.574 1162.082, 1223.330 1175.500 C 1231.567 1191.858, 1252.262 1238.996, 1252.087 1241 C 1252.015 1241.825, 1251.709 1244.975, 1251.407 1248 C 1250.941 1252.674, 1251.175 1253.838, 1252.968 1255.750 C 1254.129 1256.987, 1255.729 1258, 1256.525 1258 C 1258.501 1258, 1263.334 1267.890, 1267.397 1280.247 C 1275.080 1303.614, 1280.586 1316.173, 1283.933 1317.964 C 1284.997 1318.534, 1287.234 1319, 1288.902 1319 C 1291.833 1319, 1292.020 1319.279, 1294.434 1327.250 C 1298.698 1341.334, 1300.013 1347.189, 1300.976 1356.386 C 1301.962 1365.799, 1304.194 1370, 1308.210 1370 C 1310.166 1370, 1312.918 1375.268, 1314.998 1382.994 C 1315.596 1385.212, 1317.359 1388.483, 1318.918 1390.263 C 1320.914 1392.543, 1322.713 1396.900, 1325.003 1405 C 1334.153 1437.374, 1342.539 1456.277, 1352.253 1466.431 C 1358.719 1473.189, 1361.031 1474.160, 1364.545 1471.591 C 1366.291 1470.314, 1366.873 1470.550, 1370.714 1474.091 C 1375.126 1478.158, 1376.840 1478.691, 1380.024 1476.987 C 1381.521 1476.186, 1382.137 1476.388, 1382.976 1477.956 C 1385.446 1482.570, 1397.639 1487.011, 1399.513 1483.979 C 1399.870 1483.401, 1402.827 1485.302, 1406.322 1488.356 C 1420.971 1501.157, 1442.255 1507.359, 1471 1507.204 C 1482.527 1507.142, 1486.323 1506.684, 1496.975 1504.066 C 1503.836 1502.380, 1510.136 1500.996, 1510.975 1500.990 C 1511.814 1500.985, 1514.847 1499.888, 1517.715 1498.552 C 1523.459 1495.878, 1525.059 1492.921, 1522.969 1488.843 C 1522.309 1487.554, 1512.145 1476.959, 1500.384 1465.297 C 1488.623 1453.635, 1479 1443.435, 1479 1442.630 C 1479 1438.616, 1441.863 1404.326, 1430.682 1398.016 C 1425.844 1395.285, 1424.834 1394.033, 1418.783 1383.266 C 1415.146 1376.795, 1409.251 1365.650, 1405.684 1358.500 C 1395.535 1338.163, 1370.066 1294.769, 1365.446 1289.945 C 1363.699 1288.120, 1362.999 1286.264, 1362.996 1283.445 C 1362.990 1278.062, 1358.565 1253.739, 1355.467 1242.058 C 1352.213 1229.790, 1342.326 1205.191, 1335.749 1193 C 1326.326 1175.535, 1321.802 1165.590, 1317.910 1153.793 C 1312.682 1137.945, 1304.162 1108.407, 1301.817 1098 C 1296.112 1072.679, 1294.041 1062.737, 1292.993 1055.637 C 1292.354 1051.313, 1291.204 1045.996, 1290.437 1043.822 L 1289.042 1039.869 1293.370 1035.184 C 1305.372 1022.191, 1317.777 999.442, 1321.957 982.761 L 1324.779 971.500 1331.639 969.879 C 1335.413 968.987, 1342.775 967.480, 1348 966.531 C 1359.447 964.451, 1362.434 963.555, 1385.414 955.317 C 1406.271 947.840, 1411.025 946.645, 1428.316 944.530 C 1438.267 943.313, 1443.072 942.169, 1449.816 939.414 C 1465.578 932.972, 1484.501 926.246, 1490.548 924.935 C 1497.777 923.368, 1516.039 923.358, 1526.115 924.916 C 1547.526 928.227, 1550.960 929.136, 1553.023 932.033 C 1554.111 933.560, 1555 935.736, 1555 936.869 C 1555 939.998, 1557.717 947.564, 1562.229 957 C 1574.923 983.547, 1593.095 1000.023, 1631 1019.354 C 1647.515 1027.776, 1674.767 1044.093, 1684.228 1051.223 C 1690.556 1055.991, 1701.252 1060.509, 1716.555 1064.877 C 1732.901 1069.542, 1740.855 1074.620, 1755.398 1089.670 C 1766.822 1101.492, 1774.237 1105.984, 1790 1110.630 C 1797.949 1112.974, 1801.391 1113.437, 1811.081 1113.465 C 1822.300 1113.499, 1822.817 1113.404, 1827.618 1110.423 C 1832.218 1107.568, 1832.824 1107.437, 1836.037 1108.597 C 1837.942 1109.285, 1842.650 1109.872, 1846.500 1109.902 C 1858.940 1109.998, 1864.887 1105.475, 1869.752 1092.218 C 1877.477 1071.167, 1879.317 1060.727, 1878.830 1040.712 C 1878.531 1028.414, 1878.298 1026.939, 1876.321 1024.827 C 1875.123 1023.547, 1873.592 1020.250, 1872.920 1017.500 C 1871.202 1010.476, 1863.414 989.780, 1859.567 982.014 C 1852.057 966.854, 1844.016 955.669, 1815.800 921.126 C 1811.363 915.694, 1806.666 908.125, 1801.891 898.712 C 1779.745 855.055, 1762.035 823.244, 1752.503 810 C 1750.722 807.525, 1747.111 801.900, 1744.479 797.500 C 1741.847 793.100, 1735.343 782.750, 1730.025 774.500 C 1724.707 766.250, 1719.993 758.886, 1719.548 758.135 C 1718.883 757.011, 1719.952 756.892, 1725.620 757.459 C 1731.825 758.079, 1732.842 757.916, 1735.987 755.792 C 1740.940 752.448, 1742.001 748.845, 1739.161 745.005 C 1737.940 743.352, 1737.404 742, 1737.970 742 C 1738.537 742, 1739.900 741.100, 1741 740 C 1743.973 737.027, 1743.665 731.521, 1740.354 728.452 C 1738.899 727.104, 1737.211 725.993, 1736.604 725.985 C 1735.997 725.976, 1734.896 725.587, 1734.158 725.119 C 1733.059 724.422, 1733.047 723.897, 1734.096 722.218 C 1735.092 720.623, 1735.124 719.318, 1734.239 716.334 C 1733.049 712.322, 1732.953 711.380, 1732.972 703.931 C 1732.987 698.232, 1731.349 695.914, 1726.743 695.120 L 1723.149 694.500 1727.229 685 C 1730.112 678.286, 1731.428 673.677, 1731.715 669.284 C 1732.100 663.402, 1731.993 663.036, 1729.718 662.465 C 1727.723 661.965, 1715.925 665.424, 1705.977 669.427 C 1704.916 669.854, 1704.105 669.117, 1703.307 667.002 C 1702.513 664.899, 1700.983 663.502, 1698.330 662.458 C 1696.224 661.630, 1693.825 660.511, 1693 659.973 C 1692.175 659.435, 1690.409 658.528, 1689.076 657.956 C 1687.744 657.385, 1685.655 655.841, 1684.435 654.524 C 1683.204 653.196, 1680.501 651.845, 1678.359 651.488 C 1673.366 650.656, 1668.127 647.976, 1667.475 645.921 C 1666.333 642.322, 1661.595 641.886, 1639.805 643.375 C 1635.126 643.695, 1635.113 643.687, 1635.680 640.850 C 1636.325 637.623, 1634.798 635.254, 1631.186 633.881 C 1629.007 633.052, 1616.547 634.006, 1608.750 635.597 C 1606.508 636.055, 1606 635.803, 1606 634.234 C 1606 631.498, 1602.842 628.996, 1599.421 629.023 C 1597.815 629.035, 1591.550 630.385, 1585.500 632.022 C 1571.906 635.700, 1570.404 635.747, 1569.593 632.513 C 1569.249 631.145, 1567.791 629.254, 1566.353 628.312 C 1563.866 626.682, 1563.190 626.705, 1552.619 628.769 C 1546.503 629.963, 1538.440 631.233, 1534.700 631.592 L 1527.901 632.244 1528.526 629.754 C 1529.017 627.797, 1528.545 626.784, 1526.325 625.025 C 1523.907 623.110, 1522.707 622.870, 1518 623.364 C 1511.129 624.086, 1499.157 627.211, 1492.234 630.090 C 1487.336 632.127, 1486.840 632.165, 1485.155 630.640 C 1484.158 629.738, 1482.829 629, 1482.202 629 C 1481.542 629, 1481.116 627.542, 1481.191 625.546 C 1481.262 623.646, 1480.743 621.396, 1480.038 620.546 C 1478.364 618.528, 1472.157 618.553, 1467.047 620.598 C 1463.388 622.062, 1462.919 622.062, 1461.455 620.598 C 1459.363 618.506, 1456.529 618.582, 1449.763 620.909 L 1444.214 622.819 1443.641 619.955 C 1443.326 618.380, 1441.893 616.321, 1440.456 615.379 C 1438.044 613.799, 1437.471 613.787, 1432.959 615.230 C 1428.617 616.619, 1427.934 616.626, 1426.827 615.291 C 1425.853 614.118, 1424.311 613.933, 1419.778 614.446 C 1414.946 614.992, 1413.872 614.830, 1413.352 613.474 C 1412.352 610.869, 1408.310 609.839, 1403.823 611.048 C 1400.120 612.045, 1399.666 611.932, 1397.356 609.440 C 1395.117 607.024, 1394.402 606.822, 1390.102 607.392 C 1386.100 607.923, 1385.039 607.701, 1383.511 606.012 C 1381.532 603.825, 1378.538 603.465, 1374.644 604.945 C 1372.533 605.748, 1371.904 605.503, 1370.476 603.323 C 1368.967 601.020, 1368.343 600.818, 1364.397 601.359 C 1361.842 601.709, 1360 601.561, 1360 601.004 C 1360 600.477, 1358.880 599.312, 1357.512 598.416 C 1355.174 596.884, 1354.774 596.916, 1350.892 598.939 C 1348.619 600.124, 1346.650 600.960, 1346.515 600.797 C 1346.381 600.633, 1345.764 599.524, 1345.144 598.331 C 1344.524 597.138, 1342.659 595.864, 1341 595.500 C 1339.341 595.136, 1337.551 594.030, 1337.023 593.044 C 1335.690 590.553, 1332.619 589.966, 1329.469 591.600 C 1327.182 592.787, 1326.512 592.772, 1324.682 591.490 C 1321.643 589.361, 1319.589 589.633, 1316.018 592.638 L 1312.882 595.277 1311.384 593.138 C 1308.655 589.241, 1304.580 590.305, 1297.926 596.652 C 1291.494 602.787, 1290.616 602.931, 1294.500 597.215 C 1297.167 593.291, 1297.771 588.171, 1295.800 586.200 C 1293.491 583.891, 1289.639 585.017, 1282.810 590 C 1279.041 592.750, 1275.779 595, 1275.562 595 C 1275.344 595, 1276.108 593.281, 1277.259 591.179 C 1281.209 583.968, 1276.886 581.427, 1271 587.500 C 1269.134 589.425, 1267.308 591, 1266.943 591 C 1266.577 591, 1266.736 589.285, 1267.295 587.190 C 1268.600 582.299, 1267.609 578.445, 1264.525 576.424 C 1260.808 573.989, 1256.430 575.480, 1250.315 581.263 C 1245.590 585.732, 1244.518 586.286, 1240.592 586.286 C 1237.595 586.286, 1235.304 585.598, 1233.454 584.143 C 1231.956 582.964, 1230.370 582, 1229.930 582 C 1227.114 582, 1223.919 584.463, 1221.599 588.422 C 1219.875 591.362, 1218.222 593, 1216.977 593 C 1215.262 593, 1215.108 592.494, 1215.639 588.620 C 1216.135 584.997, 1215.872 583.872, 1214.120 582.120 C 1211.315 579.315, 1207.473 579.436, 1204.486 582.424 L 1202.062 584.847 1201.415 581.399 C 1200.333 575.631, 1195.314 573.438, 1190.465 576.615 C 1189.003 577.573, 1188 577.786, 1188 577.138 C 1188 576.537, 1186.872 575.307, 1185.494 574.404 C 1182.065 572.158, 1177.679 574.017, 1174.276 579.159 C 1172.878 581.272, 1171.516 583, 1171.249 583 C 1170.982 583, 1171.085 579.145, 1171.477 574.434 C 1172.093 567.037, 1171.952 565.604, 1170.440 563.934 C 1168.533 561.827, 1165.489 561.484, 1162.766 563.071" stroke="none" fill="black" fill-rule="evenodd"/>
</svg>