<svg xmlns="http://www.w3.org/2000/svg" width="1000" height="1000" viewBox="0 0 1000 1000" version="1.1">
	<path d="M 488.182 73.787 C 487.459 76.199, 484.557 80.124, 480.183 84.603 C 472.347 92.628, 470.309 96.500, 463.133 117 C 459.693 126.828, 457.582 134.898, 456.582 142.045 C 454.739 155.215, 453.798 157.740, 449.311 161.557 C 445.803 164.541, 445.747 164.703, 446.940 168.317 C 447.979 171.467, 447.851 173.345, 446.081 180.884 C 444.936 185.759, 444 191.402, 444 193.423 C 444 195.445, 443.329 198.398, 442.508 199.985 C 441.687 201.571, 440.563 205.937, 440.009 209.685 C 438.303 221.231, 433.833 260.869, 432.869 273 C 431.799 286.481, 429.308 307.275, 427.867 314.760 C 426.705 320.796, 423.398 325.259, 418.124 327.909 C 413.805 330.079, 407 331.468, 407 330.179 C 407 329.678, 404.359 328.305, 401.131 327.128 C 397.902 325.951, 393.691 323.922, 391.772 322.620 C 388.140 320.155, 384.455 319.230, 374.744 318.346 C 370.883 317.994, 368.579 317.252, 367.744 316.090 C 366.307 314.091, 360.439 310.998, 358.096 311.005 C 357.218 311.008, 354.700 312.119, 352.500 313.474 C 347.043 316.835, 340.708 316.845, 335.785 313.500 C 333.762 312.125, 331.816 311, 331.461 311 C 331.106 311, 329.638 310.074, 328.198 308.941 C 326.531 307.630, 324.428 306.982, 322.403 307.157 C 320.654 307.307, 318.536 306.860, 317.695 306.162 C 316.432 305.113, 315.243 305.379, 310.833 307.697 C 306.118 310.175, 304.439 310.500, 296.346 310.500 C 287.643 310.500, 287.065 310.364, 284.643 307.750 C 281.399 304.248, 279.265 304.282, 267.598 308.019 C 257.204 311.349, 255.973 311.290, 242.132 306.800 C 236.999 305.136, 234.394 304.862, 228.706 305.391 C 221.522 306.058, 219 307.158, 219 309.622 C 219 311.691, 209.613 311.326, 203 309 C 197.042 306.904, 191 306.399, 191 307.997 C 191 310.005, 183.727 317, 181.634 317.006 C 175.397 317.022, 167.315 321.556, 165.887 325.840 C 165.528 326.916, 164.936 326.928, 162.687 325.903 C 160.067 324.709, 159.674 324.894, 154.883 329.573 C 148.040 336.257, 145.686 341.051, 145.592 348.500 C 145.448 359.916, 149.862 364.686, 161.874 366.093 C 165.519 366.520, 171.200 367.547, 174.500 368.375 C 177.800 369.203, 183.875 370.631, 188 371.547 C 192.125 372.462, 210.124 378.125, 227.999 384.129 C 260.138 394.926, 280.024 400.486, 297.500 403.561 C 310.134 405.784, 372.100 405.684, 387.184 403.416 C 399.120 401.621, 404.440 402.131, 409.481 405.552 C 411.465 406.898, 413.920 408, 414.936 408 C 417.481 408, 417.894 410.269, 418.992 430.266 C 419.955 447.803, 421.504 461.613, 425.020 484 C 426.100 490.875, 428.084 503.925, 429.429 513 C 430.774 522.075, 432.773 532.200, 433.872 535.500 C 434.972 538.800, 436.535 543.525, 437.347 546 C 438.159 548.475, 439.525 554.325, 440.382 559 C 442.791 572.132, 449.663 596.137, 453.533 604.938 C 458.672 616.627, 471.679 654.125, 481.002 684.130 C 485.496 698.593, 491.543 716.518, 494.439 723.963 C 497.335 731.408, 500.017 739.190, 500.399 741.256 C 500.781 743.322, 501.120 753.031, 501.153 762.831 L 501.213 780.650 497.356 791.324 C 494.797 798.407, 492.995 802.001, 492 802.009 C 488.503 802.034, 479.467 807.366, 473.833 812.727 C 466.684 819.531, 434.845 866.593, 428.289 880.048 C 419.886 897.292, 414.006 921.640, 416.607 928.418 C 417.276 930.163, 421.522 930.582, 422.500 929 C 422.840 928.450, 423.767 928, 424.559 928 C 425.352 928, 430.388 923.589, 435.750 918.197 C 441.113 912.805, 448.981 906.033, 453.235 903.148 C 461.099 897.814, 475.761 890.772, 483.970 888.387 C 507.768 881.471, 510.903 879.662, 521.674 866.631 C 525.002 862.605, 527.787 863.248, 533.742 869.418 C 536.618 872.398, 540.470 875.330, 542.300 875.934 C 547.201 877.551, 558.451 879.147, 567 879.437 C 577.851 879.805, 582.402 880.751, 592.500 884.738 C 607.693 890.736, 615.755 895.714, 624.082 904.238 C 630.407 910.714, 632.192 912, 634.853 912 C 639.922 912, 640.875 908.632, 638.030 900.772 C 636.781 897.323, 635.457 892.025, 635.087 889 C 634.387 883.277, 632.624 879, 630.965 879 C 630.434 879, 630 878.087, 630 876.971 C 630 872.582, 620.296 856.052, 611.584 845.601 C 606.759 839.812, 585.806 821.477, 581.500 819.275 C 571.118 813.966, 555.198 799.178, 551.061 791 C 545.646 780.296, 544.658 775.620, 544.725 761 C 544.819 740.497, 549.584 717.058, 563.529 668.500 C 567.162 655.850, 572.759 635.825, 575.968 624 C 579.176 612.175, 582.954 598.571, 584.363 593.769 C 590.065 574.331, 598.848 520.940, 600.992 492.683 C 601.527 485.634, 602.148 479.559, 602.372 479.183 C 602.596 478.808, 603.342 471.975, 604.029 464 C 605.226 450.123, 605.399 442.972, 605.001 423.873 C 604.806 414.501, 606.833 404.491, 609.743 400.462 C 610.709 399.124, 613.461 397.059, 615.857 395.874 C 619.629 394.007, 621.306 393.796, 628.357 394.297 C 632.836 394.615, 640.775 395.896, 646 397.143 C 659.270 400.311, 683.427 400.326, 708.500 397.181 C 737.779 393.508, 746.677 391.340, 759.835 384.671 C 763.501 382.814, 768.975 380.483, 772 379.492 C 775.025 378.502, 782.503 375.553, 788.618 372.940 C 798.928 368.534, 827.222 359, 829.986 359 C 830.652 359, 832.616 358.365, 834.349 357.589 C 836.082 356.813, 839.656 355.966, 842.291 355.707 C 848.045 355.142, 850.730 352.961, 851.637 348.113 C 852.009 346.126, 852.951 342.974, 853.730 341.108 C 855.533 336.788, 854.762 333.807, 850.255 327.666 C 845.669 321.418, 840.056 317.363, 833.263 315.388 C 830.312 314.530, 826.683 313.195, 825.199 312.420 C 823.715 311.646, 821.955 311.010, 821.289 311.006 C 820.622 311.003, 818.295 309.200, 816.117 307 C 811.738 302.577, 808.836 301.999, 803.877 304.564 C 799.641 306.754, 794.084 306.593, 789.278 304.142 C 782.505 300.687, 778.358 300.523, 767.914 303.300 C 752.466 307.407, 751.485 307.463, 745.935 304.561 C 738.398 300.620, 731.094 301.324, 722.766 306.793 C 719.312 309.061, 718.682 309.157, 714.381 308.074 C 711.824 307.430, 708.010 306.025, 705.905 304.952 C 699.838 301.856, 694.626 302.363, 688.694 306.624 C 679.345 313.341, 672.345 314.727, 666.323 311.055 C 661.041 307.835, 656.276 307.392, 653.633 309.875 C 651.904 311.500, 649.536 312.149, 643.481 312.661 C 635.723 313.317, 635.513 313.407, 631.542 317.771 C 629.319 320.214, 625.700 323.126, 623.500 324.241 C 621.300 325.356, 619.275 326.573, 619 326.946 C 618.725 327.318, 613.490 325.867, 607.367 323.722 C 598.270 320.534, 596.317 319.504, 596.688 318.087 C 596.937 317.133, 596.236 314.811, 595.131 312.927 C 594.025 311.042, 591.683 305.900, 589.926 301.500 C 586.945 294.034, 586.681 292.365, 585.973 276.500 C 585.343 262.373, 584.683 257.413, 582.068 247.153 C 580.337 240.362, 578.258 229.337, 577.447 222.653 C 575.200 204.131, 572.406 191.741, 568.002 180.763 C 565.801 175.277, 564 169.697, 564 168.362 C 564 164.513, 561.374 159.254, 559.091 158.529 C 557.657 158.074, 556.998 157.023, 556.994 155.183 C 556.987 151.373, 555.083 145, 553.953 145 C 553.429 145, 553 144.467, 553 143.814 C 553 143.162, 552.189 141.700, 551.197 140.564 C 550.205 139.429, 548.854 136.250, 548.194 133.500 C 547.534 130.750, 543.643 121.750, 539.547 113.500 C 535.451 105.250, 531.823 97.067, 531.485 95.316 C 531.059 93.109, 529.202 90.707, 525.435 87.488 C 522.375 84.875, 519.722 81.676, 519.365 80.172 C 518.506 76.548, 516.127 74.001, 513.595 73.994 C 512.443 73.990, 510.150 73.279, 508.500 72.413 C 506.232 71.222, 504 70.996, 499.351 71.488 C 495.386 71.907, 492.969 71.758, 492.542 71.069 C 491.205 68.905, 489.286 70.101, 488.182 73.787" stroke="none" fill="black" fill-rule="evenodd"/>
</svg>