<svg xmlns="http://www.w3.org/2000/svg" width="8302" height="5471" viewBox="0 0 8302 5471" version="1.1">
	<path d="M 647.202 1.903 C 639.204 4.895, 620.960 14.359, 609.787 21.311 C 592.811 31.875, 580.078 42.187, 564.500 57.987 C 531.158 91.804, 460.164 151.757, 426.842 174.237 C 407.968 186.970, 394.475 198.846, 346.596 244.870 C 315.435 274.824, 281.801 309.120, 273.899 319 C 267.597 326.877, 197.219 416.694, 180.653 438 C 156.932 468.507, 126.338 509.414, 120.447 518.500 C 115.341 526.376, 80.668 587.218, 63.459 618.500 C 48.320 646.019, 31.509 679.947, 26.074 693.950 C 15.236 721.873, 5.190 761.438, 1.432 791 C -0.036 802.547, -0.186 809.490, 0.397 839 C 1.908 915.592, 5.540 963.198, 19.048 1083.500 C 23.687 1124.815, 22.721 1120.421, 38.164 1170.500 C 57.877 1234.428, 70.912 1270.479, 81.949 1291.595 C 97.685 1321.704, 152.992 1409.042, 180.993 1448 C 221.626 1504.534, 270.415 1563.384, 298.570 1589.825 C 320.660 1610.569, 349.733 1627.264, 460.500 1682.815 C 490.200 1697.710, 519.675 1712.886, 526 1716.540 C 544.446 1727.195, 581.146 1745.756, 613.644 1760.864 L 643.788 1774.878 697.144 1790.369 C 855.030 1836.205, 899.739 1849.014, 905.500 1850.059 C 922.359 1853.118, 1069.581 1865.499, 1160 1871.462 C 1221.684 1875.530, 1239.280 1876, 1329.894 1876 C 1399.845 1876, 1419.805 1875.704, 1433.063 1874.472 C 1452.015 1872.711, 1561.460 1860.951, 1618 1854.600 C 1639.175 1852.221, 1656.668 1850.419, 1656.873 1850.594 C 1657.078 1850.769, 1657.638 1855.095, 1658.118 1860.206 C 1662.122 1902.845, 1663.541 1910.196, 1674.906 1947.136 C 1678.228 1957.936, 1684.072 1977.961, 1687.892 1991.636 C 1691.711 2005.311, 1700.529 2034.950, 1707.487 2057.500 C 1722.234 2105.299, 1720.821 2099.609, 1743.384 2202 C 1775.802 2349.110, 1791.360 2421.736, 1796.937 2451.989 C 1801.368 2476.024, 1815.477 2517.013, 1844.271 2589.500 C 1855.898 2618.771, 1860.874 2629.506, 1888.300 2684.500 C 1905.306 2718.600, 1932.019 2771.608, 1947.661 2802.297 C 1963.303 2832.985, 1977.683 2862.235, 1979.617 2867.297 C 1987.357 2887.557, 1994.333 2914.560, 2004.988 2965.500 C 2013.706 3007.185, 2018.968 3029.245, 2023.474 3043 C 2028.093 3057.105, 2030.259 3065.055, 2043.634 3117 C 2049.935 3141.475, 2056.850 3166.675, 2059 3173 C 2065.325 3191.609, 2077.037 3233.829, 2109.484 3355 L 2127.828 3423.500 2132.922 3522 C 2147.367 3801.259, 2146.932 3790.058, 2144.070 3809 C 2138.744 3844.258, 2126.742 3898.764, 2119.587 3920.191 C 2113.084 3939.661, 2107.582 3964.663, 2103.012 3995.500 C 2098.504 4025.922, 2092.099 4059.321, 2083.417 4097.673 C 2074.425 4137.399, 2073.289 4140.777, 2060.781 4165 C 2014.590 4254.450, 1996.725 4287.475, 1984.415 4306.163 C 1956.976 4347.822, 1939.774 4375.528, 1933.075 4388.851 C 1928.594 4397.763, 1925.194 4410.139, 1921.605 4430.599 C 1913.315 4477.859, 1915.653 4493.944, 1940.591 4561.221 C 1961.581 4617.847, 1967.665 4638.782, 1977.965 4689.829 C 1987.568 4737.413, 1992.192 4767.479, 1996.536 4810.562 C 1999.346 4838.424, 2000.621 4845.031, 2005.062 4854.730 C 2010.024 4865.568, 2013.127 4873.714, 2024.020 4904.500 C 2037.349 4942.171, 2043.865 4958.330, 2050.433 4970 C 2056.638 4981.027, 2062.996 4995.450, 2072.474 5020 C 2092.898 5072.901, 2096.120 5080.117, 2104.203 5091.070 C 2110.688 5099.857, 2115.720 5107.598, 2138.099 5143.214 C 2153.850 5168.282, 2157.394 5173.084, 2195.611 5221.127 C 2218.011 5249.287, 2237.333 5274.390, 2238.549 5276.913 C 2241.959 5283.988, 2264.795 5337.400, 2268.677 5347.382 C 2270.888 5353.068, 2273.721 5364.255, 2276.549 5378.475 C 2283.135 5411.579, 2283.693 5413.100, 2292.287 5421.333 C 2309.086 5437.429, 2325.433 5447.118, 2339 5449.022 C 2343.408 5449.640, 2363.405 5450.018, 2387.500 5449.937 C 2410.050 5449.862, 2441.325 5450.289, 2457 5450.886 C 2472.675 5451.483, 2505.750 5452.260, 2530.500 5452.612 C 2577.362 5453.279, 2586.654 5452.966, 2667.500 5447.993 C 2707.497 5445.533, 2706.655 5445.620, 2735.152 5440.954 C 2748.161 5438.824, 2763.911 5436.605, 2770.152 5436.023 C 2789.795 5434.191, 2799.076 5432.854, 2809.442 5430.367 C 2828.789 5425.723, 2842.493 5420.437, 2846.405 5416.108 C 2847.453 5414.949, 2849.061 5414, 2849.980 5414 C 2855.485 5414, 2880.084 5424.548, 2915.716 5442.188 L 2940.027 5454.223 2966.763 5455.060 C 3027.846 5456.971, 3125.325 5456.158, 3266 5452.563 C 3411.521 5448.844, 3431.459 5448.042, 3462.837 5444.644 C 3480.581 5442.723, 3483.321 5442.193, 3484.337 5440.491 C 3484.976 5439.418, 3492.105 5426.036, 3500.178 5410.754 C 3508.251 5395.471, 3517.454 5379.262, 3520.629 5374.734 C 3523.805 5370.205, 3526.967 5364.925, 3527.657 5363 C 3529.187 5358.733, 3529.331 5349.148, 3528.024 5338.474 C 3527.487 5334.088, 3526.570 5323.580, 3525.985 5315.123 C 3524.766 5297.487, 3521.899 5279.303, 3518.913 5270.276 C 3517.156 5264.965, 3515.828 5263.102, 3509.850 5257.567 C 3501.120 5249.485, 3464.243 5222.135, 3457.500 5218.742 C 3449.622 5214.778, 3428.415 5207.425, 3418 5205.047 C 3408.706 5202.924, 3407.191 5202.885, 3348 5203.253 C 3289.493 5203.617, 3286.726 5203.721, 3264 5206.398 C 3229.077 5210.511, 3214.060 5209.368, 3191.768 5200.897 C 3184.045 5197.963, 3182.840 5197.084, 3173.500 5187.577 C 3150.351 5164.016, 3063.076 5066.566, 2994.313 4987.500 C 2960.054 4948.107, 2948.835 4934.573, 2946.849 4930.239 C 2944.395 4924.884, 2941.742 4912.032, 2933.483 4865.500 C 2929.871 4845.150, 2925.976 4824.225, 2924.828 4819 C 2923.151 4811.365, 2922.646 4804.794, 2922.253 4785.533 C 2921.616 4754.312, 2923.687 4677.246, 2927.093 4605.500 C 2928.377 4578.442, 2927.781 4581.384, 2945.137 4516.500 C 2954.967 4479.750, 2953.585 4483.178, 2992.514 4398.996 L 3011.092 4358.823 3057.591 4172.410 L 3104.089 3985.997 3128.943 3909.248 C 3177.423 3759.543, 3196.335 3699.997, 3208.900 3657.500 C 3211.664 3648.150, 3224.308 3607.650, 3236.997 3567.500 C 3263.283 3484.328, 3259.907 3499.580, 3269.983 3418.500 C 3273.333 3391.550, 3276.264 3368.600, 3276.497 3367.500 C 3276.730 3366.400, 3280.139 3360.550, 3284.074 3354.500 C 3296.756 3334.997, 3310.351 3323.652, 3326.045 3319.475 C 3334.927 3317.112, 3340.350 3317.620, 3352.880 3321.990 C 3359.140 3324.173, 3371.671 3327.789, 3380.729 3330.027 C 3389.787 3332.264, 3400.794 3335.231, 3405.190 3336.620 C 3413.173 3339.142, 3413.200 3339.162, 3428.841 3354.432 C 3445.375 3370.573, 3445.929 3370.980, 3482 3393.457 C 3519.381 3416.750, 3545.337 3431.350, 3591.064 3454.805 C 3660.211 3490.273, 3719.526 3514.822, 3758.273 3524.009 C 3800.983 3534.135, 3974.483 3566.878, 4028.044 3574.920 C 4052.359 3578.570, 4053.057 3578.618, 4118.500 3581.025 C 4230.452 3585.142, 4242.367 3586.188, 4271.285 3594.428 C 4307.639 3604.788, 4421.015 3633.497, 4469 3644.494 C 4501.281 3651.891, 4585.328 3671.505, 4635.946 3683.453 C 4658.191 3688.704, 4677.766 3693.001, 4679.446 3693.001 C 4686.148 3693.004, 4896.986 3667.056, 4931 3662.043 C 4957.643 3658.116, 4978.778 3653.334, 5035.442 3638.412 C 5053.011 3633.785, 5067.587 3630, 5067.834 3630 C 5068.606 3630, 5067.161 3714.515, 5066.047 3734.500 C 5063.188 3785.803, 5064.241 3779.132, 5046.554 3857.941 L 5038.125 3895.500 5030.933 4087 L 5023.742 4278.500 5025.443 4322 C 5029.354 4421.993, 5029.640 4400.518, 5021.974 4583 C 5019.236 4648.175, 5016.540 4717.925, 5015.984 4738 C 5015.427 4758.075, 5014.534 4782.776, 5013.999 4792.890 C 5012.861 4814.396, 5013.341 4813.173, 4998.953 4831.185 C 4988.138 4844.725, 4982.996 4854.693, 4975.836 4876.001 C 4970.852 4890.835, 4970.626 4891.972, 4970.564 4902.500 C 4970.529 4908.550, 4971.271 4920.700, 4972.214 4929.500 C 4977.272 4976.700, 4977.518 4984.110, 4977.197 5079.500 C 4976.890 5170.983, 4977.807 5219.205, 4980.546 5255.500 C 4981.376 5266.500, 4982.481 5285.400, 4983.002 5297.500 C 4983.522 5309.600, 4984.367 5324, 4984.879 5329.500 C 4985.390 5335, 4985.515 5346.475, 4985.155 5355 C 4984.364 5373.709, 4985.325 5410.730, 4986.957 5424.500 C 4988.598 5438.337, 4990.773 5447.441, 4993.164 5450.482 C 4998.842 5457.700, 5014.301 5460.837, 5055.500 5463.131 C 5084.414 5464.742, 5156.831 5464.748, 5174.500 5463.142 C 5200.671 5460.763, 5205.355 5459.216, 5246 5439.517 C 5260.025 5432.720, 5273.075 5426.890, 5275 5426.560 C 5276.925 5426.231, 5285.534 5426.345, 5294.130 5426.813 C 5311.988 5427.786, 5312.135 5427.837, 5339.433 5442.711 L 5353.366 5450.303 5373.933 5449.687 C 5394.933 5449.059, 5456.866 5444.884, 5474 5442.942 C 5479.225 5442.350, 5492.050 5439.983, 5502.500 5437.683 L 5521.500 5433.500 5554 5433.562 C 5571.875 5433.596, 5596.850 5433.809, 5609.500 5434.036 C 5631.880 5434.436, 5632.756 5434.376, 5642 5431.825 C 5655.419 5428.120, 5661.893 5425.515, 5668.840 5421.025 C 5677.681 5415.311, 5678.521 5413.237, 5678.371 5397.500 C 5678.179 5377.338, 5676.066 5367.517, 5661.916 5321 C 5660.194 5315.340, 5658.193 5312.378, 5646.423 5298.074 C 5621.010 5267.191, 5604.578 5248.500, 5589.539 5233.373 C 5572.098 5215.830, 5572.455 5216.040, 5540.397 5204.451 C 5515.658 5195.508, 5508.068 5192.001, 5503.688 5187.490 C 5494.493 5178.023, 5462.382 5111.899, 5454.935 5087.098 C 5452.317 5078.378, 5452.467 5073.023, 5456.467 5032.278 C 5457.829 5018.406, 5459.415 4999.956, 5459.991 4991.278 C 5463.771 4934.303, 5470.475 4879.717, 5477.033 4852.500 C 5480.990 4836.081, 5491.387 4785.534, 5506.495 4709.270 L 5515.059 4666.041 5540.573 4578.270 C 5595.238 4390.216, 5618.656 4306.756, 5621.599 4289.500 C 5626.078 4263.239, 5650.996 4157.093, 5699.789 3956.423 L 5717.557 3883.346 5723.934 3871.923 C 5738.957 3845.012, 5756.809 3817.543, 5768.067 3804.015 C 5773.819 3797.103, 5793.486 3779.569, 5813.500 3763.508 C 5838.920 3743.109, 5852.618 3735.006, 5865 3733.045 C 5873.634 3731.677, 5900.884 3731.708, 5981.795 3733.176 C 6054.321 3734.492, 6103.919 3733.565, 6126.933 3730.465 C 6159.179 3726.121, 6186.338 3718.122, 6255.432 3692.619 C 6265.295 3688.978, 6273.754 3686, 6274.229 3686 C 6274.704 3686, 6269.606 3691.963, 6262.899 3699.250 C 6246.594 3716.969, 6221.341 3746.399, 6213.385 3756.955 C 6202.792 3771.011, 6202.733 3771.202, 6197.567 3808.500 C 6187.279 3882.769, 6185.789 3896.392, 6186.355 3911 C 6186.836 3923.377, 6191.546 3970.014, 6200.495 4051 C 6203.671 4079.744, 6219.606 4236.306, 6226.999 4311.403 C 6230.410 4346.056, 6231.419 4353.704, 6240.600 4414.500 C 6248.678 4467.990, 6255.362 4508.930, 6258.506 4524.172 C 6261.316 4537.795, 6266.306 4572.405, 6271.962 4617.500 C 6279.201 4675.211, 6280.002 4683.053, 6283.001 4725.500 C 6297.311 4928.085, 6297.992 4938.321, 6297.996 4951.006 C 6298.006 4976.805, 6288.007 5032.908, 6279.848 5052.838 C 6278.122 5057.052, 6271.664 5071.525, 6265.495 5085 C 6259.327 5098.475, 6252.979 5112.650, 6251.390 5116.500 L 6248.500 5123.500 6248.182 5166 C 6247.858 5209.285, 6248.408 5223.112, 6252.100 5264.500 C 6254.340 5289.613, 6255.089 5292.765, 6263.489 5312.425 C 6274.111 5337.284, 6285.812 5357.718, 6293.697 5365.177 C 6303.027 5374.004, 6322.693 5393.719, 6338.500 5410.094 C 6347.300 5419.210, 6356.975 5428.509, 6360 5430.758 C 6366.133 5435.318, 6403.564 5454.616, 6417.500 5460.403 C 6433.516 5467.054, 6441.957 5469.009, 6459 5470.019 C 6479.591 5471.239, 6549.547 5471.222, 6574 5469.991 C 6612.518 5468.053, 6664.366 5461.325, 6692.500 5454.616 C 6698 5453.304, 6707.450 5451.065, 6713.500 5449.641 C 6725.874 5446.727, 6749.990 5443.468, 6766.500 5442.478 C 6775.568 5441.935, 6780.749 5442.283, 6796 5444.458 C 6823.171 5448.335, 6839.430 5449.938, 6858.500 5450.622 C 6881.211 5451.437, 6890.637 5450.260, 6907.399 5444.516 C 6919.812 5440.263, 6921.798 5439.875, 6935.135 5439.095 C 6943.036 5438.634, 6958.170 5438.486, 6968.766 5438.768 C 6986.659 5439.245, 6988.183 5439.146, 6990.156 5437.391 C 6992.453 5435.346, 7008.751 5402.291, 7011.376 5394.352 C 7012.259 5391.684, 7015.637 5379.375, 7018.884 5367 C 7022.130 5354.625, 7025.935 5341.350, 7027.338 5337.500 C 7031.425 5326.285, 7036.971 5289.428, 7036.991 5273.340 C 7037 5266.519, 7036.815 5265.946, 7033.092 5261.236 C 7028.822 5255.834, 7019.315 5247.135, 7010.363 5240.439 C 7004.320 5235.919, 6999.885 5234.358, 6983.586 5231.013 C 6978.133 5229.893, 6967.875 5227.192, 6960.790 5225.010 C 6934.565 5216.932, 6927.151 5216.507, 6897.706 5221.390 L 6882.912 5223.844 6870.414 5217.802 C 6863.540 5214.479, 6852.648 5210.060, 6846.208 5207.982 C 6839.769 5205.904, 6830.675 5202.817, 6826 5201.122 L 6817.500 5198.039 6775.930 5198.020 L 6734.360 5198 6725.936 5186.532 C 6714.110 5170.430, 6710.626 5164.313, 6706.652 5152.672 C 6704.742 5147.077, 6697.900 5127.200, 6691.446 5108.500 C 6677.419 5067.854, 6666.157 5032.869, 6663.097 5020.430 L 6660.865 5011.360 6663.956 4997.430 C 6670.318 4968.760, 6681.244 4931.114, 6687.028 4917.936 C 6690.710 4909.546, 6696.668 4886.282, 6706.474 4842.004 C 6719.334 4783.932, 6738.493 4693.254, 6750.634 4633 C 6755.414 4609.275, 6756.723 4604.707, 6786.156 4509 C 6807.274 4440.332, 6825.137 4384.179, 6827.953 4377.609 C 6831.534 4369.255, 6836.413 4349.567, 6854.498 4270.500 C 6880.326 4157.577, 6900.392 4064.879, 6907.431 4025.962 C 6923.910 3934.858, 6931.098 3892.976, 6935.492 3862.456 C 6943.999 3803.366, 6958.557 3708.604, 6965.596 3666.500 C 6970.896 3634.792, 6973.805 3620.665, 6977.640 3608 C 6979.555 3601.675, 6987.643 3571.975, 6995.613 3542 C 7013.577 3474.437, 7021.218 3447.626, 7024.938 3439.108 C 7026.525 3435.473, 7029.181 3427.775, 7030.840 3422 C 7042.156 3382.623, 7071.279 3263.912, 7074.935 3242.261 C 7077.629 3226.303, 7082.554 3192.365, 7084.478 3176.500 C 7085.344 3169.350, 7089.861 3140.550, 7094.514 3112.500 C 7099.167 3084.450, 7104.069 3053.850, 7105.408 3044.500 C 7108.228 3024.795, 7115.473 2991.554, 7135.487 2906.500 C 7143.382 2872.950, 7167.638 2768.775, 7189.390 2675 C 7225.655 2518.657, 7229.189 2502.632, 7231.946 2482 C 7235.226 2457.461, 7239.179 2422.526, 7241.169 2400.500 C 7242.708 2383.467, 7242.878 2338.465, 7241.473 2320 C 7239.673 2296.345, 7241.322 2277.705, 7248.594 2239.500 C 7253.208 2215.254, 7253.979 2205.006, 7254.006 2167.500 L 7254.029 2135.500 7257.913 2124 C 7262.699 2109.826, 7272.265 2088.687, 7277.825 2080 C 7286.044 2067.157, 7295.280 2046.563, 7321.552 1982.500 L 7336.315 1946.500 7347.145 1899 C 7353.101 1872.875, 7359.811 1842.725, 7362.055 1832 C 7364.299 1821.275, 7367.277 1809.125, 7368.673 1805 C 7374.174 1788.742, 7387.474 1766.554, 7395.293 1760.590 C 7401.625 1755.760, 7415.603 1754.852, 7442.241 1757.540 C 7460.232 1759.355, 7472.263 1762.149, 7494.302 1769.631 C 7537.478 1784.289, 7557.944 1792.668, 7692.500 1850.776 C 7753.267 1877.018, 7750.898 1875.962, 7776 1888.022 C 7825.920 1912.007, 7871.048 1930.080, 7895 1935.682 C 7909.058 1938.970, 7964.680 1937.779, 8001.179 1933.409 C 8013.526 1931.931, 8019.205 1930.452, 8050.778 1920.492 L 8063.056 1916.618 8080.707 1899.559 C 8090.416 1890.177, 8103.003 1877.338, 8108.680 1871.029 L 8119.001 1859.557 8136.427 1825.529 C 8146.011 1806.813, 8158.274 1783.201, 8163.677 1773.057 L 8173.500 1754.614 8188.500 1748.504 C 8214.800 1737.793, 8217.987 1735.674, 8225.843 1723.669 C 8237.859 1705.310, 8263.407 1664.384, 8265.612 1659.962 C 8272.993 1645.161, 8297.555 1545.831, 8296.422 1535.364 C 8296.192 1533.239, 8294.184 1512.811, 8291.959 1489.970 L 8287.915 1448.439 8291.536 1438.035 C 8293.528 1432.313, 8296.551 1424.902, 8298.254 1421.566 C 8300.834 1416.514, 8301.427 1414.030, 8301.800 1406.704 C 8302.328 1396.366, 8300.771 1380.617, 8297.432 1362.500 C 8293.179 1339.424, 8290.752 1332.288, 8279.092 1308.570 C 8273.125 1296.432, 8264.062 1277.045, 8258.952 1265.490 L 8249.662 1244.479 8200.447 1197.990 L 8151.231 1151.500 8146.023 1138.662 C 8137.233 1116.999, 8135.114 1109.447, 8130.408 1083 C 8123.595 1044.721, 8123.652 1044.979, 8115.577 1016.251 C 8111.441 1001.538, 8105.728 980.725, 8102.882 970 L 8097.707 950.500 8097.104 924.171 L 8096.500 897.842 8092.852 894.671 C 8090.845 892.927, 8087.359 890.268, 8085.105 888.762 C 8080.185 885.475, 8072.860 875.756, 8066.067 863.500 C 8059.922 852.414, 8058.158 847.528, 8056.985 838.337 C 8055.623 827.658, 8049.081 798.011, 8047.202 794 C 8045.221 789.770, 8032.979 773.501, 8020.489 758.500 C 8009.286 745.045, 7958.520 666.892, 7959.254 664.232 C 7959.517 663.279, 7964.935 646.525, 7971.293 627 C 7993.270 559.512, 7999.993 536.493, 7999.997 528.722 C 8000.005 515.328, 7992.317 457.713, 7988.519 442.692 C 7987.240 437.637, 7985.049 430.789, 7983.649 427.476 C 7982.249 424.163, 7979.970 415.838, 7978.584 408.976 C 7975.956 395.960, 7970.590 359.810, 7969.412 347.184 C 7968.573 338.197, 7967.266 337.073, 7956.815 336.350 C 7949.689 335.857, 7949.056 336.013, 7932.356 342.397 C 7915.268 348.930, 7898.154 353.996, 7893.141 354.005 C 7885.389 354.019, 7852.750 375.894, 7833.466 393.999 C 7823.496 403.360, 7813.800 410.626, 7789.500 426.946 C 7758.907 447.492, 7737.657 459.782, 7726.301 463.496 L 7721.230 465.155 7707.365 459.691 C 7691.306 453.362, 7649.606 438.232, 7630 431.622 C 7622.575 429.118, 7596.925 422.098, 7573 416.021 L 7529.500 404.972 7454 392.439 C 7412.475 385.547, 7362.300 377.213, 7342.500 373.920 C 7314.190 369.211, 7296.781 366.981, 7261 363.478 C 7216.667 359.138, 7214.579 359.023, 7179.568 359.012 L 7143.635 359 7102.068 375.635 C 7036.396 401.916, 7020.229 407.952, 7012.500 409.076 C 7007.235 409.841, 7000.542 409.694, 6985.500 408.480 C 6970.598 407.278, 6956.451 406.957, 6930 407.219 C 6889.766 407.619, 6892.144 407.214, 6872.906 416.950 C 6845.395 430.874, 6837.311 437.457, 6809.819 468.325 L 6786.818 494.150 6773.795 541.825 L 6760.772 589.500 6739.272 602.500 C 6714.641 617.394, 6689.304 634.001, 6680.365 641.110 C 6668.808 650.301, 6631.727 689.752, 6616.554 709 C 6604.313 724.527, 6520.695 804.981, 6485.262 835.322 C 6479.631 840.144, 6455.781 863.982, 6432.262 888.295 C 6408.743 912.608, 6386.351 935.737, 6382.500 939.694 L 6375.500 946.887 6335.500 961.347 C 6313.500 969.299, 6291.869 976.942, 6287.431 978.330 C 6277.242 981.516, 6256.894 984.884, 6217.500 989.903 C 6185.960 993.922, 6166.662 997.199, 6095.514 1010.615 C 6049.816 1019.231, 6055.984 1017.277, 5992.501 1043.256 C 5925.770 1070.564, 5908.341 1077.135, 5894 1080.394 C 5876.708 1084.324, 5845.803 1099.578, 5753 1149.994 C 5687.716 1185.459, 5678.741 1190.254, 5666.852 1196.024 C 5656.212 1201.188, 5656.193 1201.192, 5642.852 1202.046 C 5635.508 1202.515, 5625.900 1202.704, 5621.500 1202.465 C 5617.100 1202.226, 5601.350 1201.551, 5586.500 1200.966 C 5544.810 1199.323, 5535.997 1198.174, 5471.190 1185.924 C 5392.945 1171.134, 5343.658 1160.073, 5322.117 1152.469 C 5307.453 1147.293, 5238.513 1130.781, 5151.500 1111.606 C 5087.570 1097.517, 5066.494 1092.890, 5053 1089.979 C 5045.575 1088.378, 5025.060 1083.925, 5007.411 1080.085 C 4973.023 1072.604, 4963.526 1071.063, 4862.324 1056.545 C 4733.089 1038.006, 4678.989 1029.781, 4658 1025.483 C 4651.675 1024.187, 4639.750 1022.649, 4631.500 1022.064 C 4611.618 1020.654, 4536.366 1017.389, 4481 1015.534 C 4456.525 1014.713, 4420.525 1013.502, 4401 1012.842 C 4344.228 1010.921, 4280.062 1011.237, 4216.500 1013.748 C 4185.700 1014.965, 4143.625 1016.525, 4123 1017.214 C 4073.370 1018.873, 3933.402 1018.879, 3894.500 1017.223 C 3828.309 1014.406, 3776.013 1011.895, 3731.500 1009.395 C 3713.406 1008.379, 3523.403 1011.871, 3453 1014.514 C 3296.010 1020.406, 3228.226 1022.681, 3170.500 1023.993 C 3146.300 1024.543, 3121.550 1025.450, 3115.500 1026.007 C 3079.329 1029.341, 3061.846 1031.549, 2977 1043.498 C 2951.975 1047.022, 2923.841 1050.810, 2914.479 1051.916 C 2888.966 1054.928, 2874.505 1057.719, 2667.500 1099.579 C 2623.561 1108.464, 2626.360 1108.030, 2555.500 1116.982 C 2419.657 1134.145, 2398.754 1137.126, 2386.329 1141.106 C 2364.659 1148.047, 2286.333 1178.263, 2146 1233.819 C 2123.725 1242.637, 2076.025 1260.416, 2040 1273.329 C 2003.975 1286.241, 1926.772 1313.920, 1868.437 1334.837 L 1762.374 1372.869 1662.437 1397.856 C 1607.472 1411.599, 1554.625 1424.868, 1545 1427.343 C 1522.673 1433.083, 1446.954 1445.112, 1333.500 1460.942 C 1252.611 1472.229, 1252.612 1472.229, 1197.250 1470.011 C 1136.038 1467.560, 1119.232 1466.973, 1082.500 1466.007 C 1061.050 1465.443, 1028.650 1464.288, 1010.500 1463.442 C 980.324 1462.034, 974.291 1461.432, 940 1456.414 C 864.097 1445.305, 853.888 1443.316, 824.500 1433.907 C 765.042 1414.873, 751.142 1410.298, 734.500 1404.285 C 681.656 1385.192, 650.853 1369.561, 608.500 1340.347 C 598.050 1333.139, 577.800 1319.697, 563.500 1310.478 C 489.474 1262.751, 453.296 1237.378, 447.655 1229.234 C 438.318 1215.753, 421.453 1195.620, 380.027 1148.500 C 345.399 1109.113, 347.852 1112.529, 340.076 1092.863 C 324.166 1052.626, 305.510 999.410, 297.966 972.745 C 290.707 947.083, 290.879 949.588, 292.024 886.144 C 293.502 804.334, 293.834 799.417, 299.335 778 C 312.769 725.693, 332.429 673.252, 348.446 647 C 351.634 641.775, 358.065 631.200, 362.738 623.500 C 367.410 615.800, 377.634 600.500, 385.456 589.500 C 393.279 578.500, 400.257 568.414, 400.963 567.086 C 403.200 562.877, 421.400 543.611, 458.926 505.731 C 491.546 472.801, 497.376 467.386, 514.731 453.897 C 558.775 419.662, 605.304 385.424, 640.855 361.086 C 703.791 318.002, 809.502 228.860, 824.433 206.283 L 827.222 202.065 826.105 179.283 C 825.491 166.752, 824.982 143.225, 824.974 127 C 824.960 95.819, 824.458 89.816, 820.463 73 C 816.693 57.128, 813.471 51.330, 804.733 44.687 C 790.932 34.196, 755.951 14.845, 744.801 11.534 C 731.034 7.445, 686.904 1.266, 665.500 0.429 C 654.188 -0.013, 651.812 0.178, 647.202 1.903 M 2421.053 4768.160 C 2414.863 4796.882, 2408.925 4836.227, 2408.703 4850 C 2408.500 4862.584, 2406.421 4856.408, 2433.787 4924.500 C 2469.845 5014.218, 2473.444 5023.667, 2483.950 5056.215 C 2486.208 5063.208, 2492.045 5078.958, 2496.922 5091.215 C 2511.337 5127.445, 2549.184 5216.522, 2550.915 5218.296 C 2551.343 5218.734, 2563.124 5220.664, 2577.096 5222.585 C 2591.068 5224.506, 2609.416 5227.190, 2617.868 5228.551 C 2631.609 5230.762, 2695.310 5240.552, 2703.886 5241.770 C 2706.576 5242.152, 2707.100 5241.967, 2706.433 5240.875 C 2694.421 5221.209, 2516.470 4953.136, 2493.431 4920 C 2479.412 4899.836, 2473.629 4887.446, 2438.437 4802.160 L 2422.204 4762.820 2421.053 4768.160" stroke="none" fill="black" fill-rule="evenodd"/>
</svg>