<svg xmlns="http://www.w3.org/2000/svg" width="5000" height="3000" viewBox="0 0 5000 3000" version="1.1">
	<path d="M 2678.500 187.184 C 2677.400 187.802, 2674.560 190.073, 2672.190 192.230 C 2667.054 196.904, 2662.427 199.003, 2657.282 198.993 C 2651.148 198.982, 2637.220 195.217, 2628.558 191.229 C 2617.231 186.014, 2611.717 186.054, 2603.500 191.412 C 2600.200 193.564, 2595.516 195.926, 2593.091 196.662 C 2583.644 199.529, 2567.083 197.670, 2554.046 192.280 C 2542.683 187.581, 2538.658 187.928, 2529.613 194.382 C 2521.255 200.346, 2516.576 201.991, 2506 202.684 C 2499.287 203.123, 2494.576 202.689, 2483.595 200.620 C 2464.159 196.958, 2454.158 197.071, 2443 201.082 C 2427.774 206.554, 2423.996 207.348, 2413 207.393 C 2404.870 207.426, 2400.896 206.935, 2395.392 205.218 C 2384.977 201.968, 2382.511 202.256, 2371.605 207.996 C 2360.561 213.808, 2354.649 214.969, 2335.081 215.170 C 2326.416 215.259, 2320.380 214.785, 2315.688 213.649 C 2303.030 210.585, 2298.230 211.451, 2287.414 218.754 C 2278.668 224.659, 2275.254 225.534, 2262 225.269 C 2255.675 225.143, 2245.321 225.536, 2238.991 226.143 C 2229.224 227.079, 2226.293 227, 2219.634 225.623 C 2208.164 223.251, 2204.199 223.488, 2198.875 226.864 C 2196.391 228.440, 2193.491 230.802, 2192.429 232.114 C 2188.806 236.594, 2183.909 239.950, 2178.762 241.478 C 2169.822 244.133, 2143.983 246.202, 2129.370 245.434 C 2112.433 244.543, 2108.739 245.423, 2099 252.668 C 2086.364 262.069, 2080.150 263.702, 2052.500 264.885 C 2030.756 265.816, 2029.844 266.079, 2019.500 274.407 C 2010.837 281.382, 2005.622 283.369, 1987.655 286.544 C 1976.432 288.527, 1970.704 288.999, 1960 288.822 C 1944.860 288.572, 1944.219 288.761, 1936.778 295.654 C 1930.590 301.385, 1927.875 302.393, 1923.519 300.572 C 1919.259 298.793, 1917.784 295.916, 1914.009 282.034 C 1909.941 267.071, 1907.335 262.335, 1898.077 253.077 C 1882.688 237.688, 1874.151 232.478, 1854.631 226.561 C 1840.841 222.381, 1832.605 221.389, 1824.500 222.934 C 1821.200 223.563, 1812.650 224.503, 1805.500 225.023 C 1798.350 225.543, 1789.125 226.868, 1785 227.967 C 1775.392 230.527, 1768.833 230.513, 1758.667 227.907 C 1741.256 223.445, 1731.945 226.882, 1719.703 242.290 C 1715.370 247.743, 1710.969 252.109, 1708.110 253.790 C 1703.788 256.331, 1702.558 256.531, 1688.405 257 L 1673.310 257.500 1667.905 260.925 C 1658.236 267.052, 1652.654 269.825, 1643.499 273.052 C 1631.151 277.405, 1628.479 278.895, 1618.330 287.086 C 1606.997 296.232, 1602.812 298.290, 1586.964 302.509 C 1568.574 307.406, 1567.129 308.333, 1557.536 321.400 C 1552.370 328.436, 1544.232 334.657, 1533.903 339.465 C 1520.853 345.540, 1514.285 340.198, 1512.007 321.655 C 1509.997 305.296, 1511.888 298.307, 1524.467 275.605 C 1531.409 263.077, 1530.262 251.167, 1521.684 246.716 C 1517.281 244.431, 1513.273 245.058, 1508.932 248.711 C 1505.282 251.782, 1503.363 255.421, 1498.497 268.500 C 1496.450 274, 1492.378 282.775, 1489.447 288 C 1482.153 301.003, 1481.388 304.573, 1482.822 318.938 C 1483.790 328.630, 1484.491 361.718, 1484.126 380.500 C 1483.910 391.585, 1478.408 398.870, 1468.594 401.066 C 1463.952 402.105, 1460.672 402.018, 1448.187 400.522 C 1430.340 398.385, 1426.118 398.894, 1406.239 405.583 C 1398.945 408.038, 1389.495 410.471, 1385.239 410.991 C 1368.732 413.006, 1347.862 415.042, 1333.500 416.038 C 1315.433 417.291, 1305.311 419.034, 1292.297 423.132 C 1284.227 425.673, 1280.296 426.303, 1270 426.700 C 1246.276 427.617, 1226.683 422.606, 1192 406.753 C 1160.938 392.555, 1160.090 392.325, 1134.112 391.031 C 1120.981 390.377, 1111.639 389.330, 1103.038 387.548 C 1087.946 384.421, 1077.211 384.261, 1066.496 387.001 C 1053.587 390.303, 1044.992 396.901, 1043.543 404.623 C 1042.723 408.995, 1045.724 415.957, 1049.624 418.728 C 1057.192 424.105, 1058.491 424.301, 1091.500 425.044 C 1114.184 425.555, 1126.738 426.314, 1138.299 427.873 C 1175.352 432.868, 1186.306 436.867, 1203 451.491 C 1217.735 464.399, 1226.027 466.604, 1253.831 465.009 C 1274.033 463.850, 1287.769 462.134, 1316 457.240 L 1337.500 453.513 1371.500 453.506 C 1404.747 453.500, 1405.601 453.550, 1410.066 455.750 C 1418.858 460.083, 1421.545 469.828, 1418.610 486.731 C 1415.732 503.302, 1409.630 514.575, 1401.433 518.465 C 1399.434 519.413, 1393.682 520.849, 1388.650 521.656 C 1383.617 522.463, 1378.150 523.903, 1376.500 524.857 C 1374.850 525.811, 1371.133 530.024, 1368.240 534.220 C 1359.659 546.667, 1354.248 548.699, 1326.500 549.892 C 1306.095 550.770, 1304.067 551.336, 1296.161 558.357 C 1288.553 565.114, 1285.600 566.395, 1277.500 566.451 C 1268.235 566.516, 1245.082 563.548, 1226.576 559.923 C 1205.758 555.846, 1199.151 555.996, 1180.761 560.963 C 1160.410 566.460, 1156.842 566.933, 1128.500 567.887 C 1105.334 568.667, 1102.929 568.922, 1095.717 571.368 C 1081.547 576.174, 1063.759 586.255, 1057.337 593.120 C 1050.369 600.568, 1047.630 610.013, 1050.703 616 C 1053.509 621.466, 1057.910 623.195, 1067.846 622.735 C 1075.770 622.368, 1076.809 622.034, 1088.346 616.153 C 1095.031 612.745, 1102.459 609.295, 1104.852 608.487 C 1109.217 607.012, 1143.303 601.748, 1156.580 600.498 C 1168.507 599.375, 1176 603.017, 1176 609.939 C 1176 615.781, 1165.982 627.217, 1157.500 631.057 C 1155.300 632.054, 1149.296 633.545, 1144.158 634.371 C 1135.841 635.708, 1132.824 636.865, 1116.658 644.922 C 1103.488 651.485, 1095.101 654.949, 1086.127 657.532 C 1078.114 659.838, 1069.657 663.200, 1062.127 667.075 C 1053.144 671.697, 1047.665 673.746, 1038.031 676.087 C 1023.775 679.551, 1017.207 682.725, 1008 690.598 C 997.424 699.642, 977.650 710.728, 964.500 714.985 C 960.650 716.231, 952.749 719.440, 946.941 722.115 C 941.134 724.790, 931.074 728.328, 924.585 729.978 C 916.229 732.103, 910.120 734.418, 903.644 737.914 C 898.615 740.629, 888.725 745.337, 881.667 748.377 C 874.426 751.496, 864.423 756.841, 858.712 760.643 C 853.145 764.349, 844.295 769.310, 839.045 771.668 C 833.795 774.026, 826.315 777.772, 822.421 779.992 C 818.528 782.213, 810.428 786.204, 804.421 788.861 C 798.415 791.518, 790.965 795.125, 787.867 796.876 C 784.401 798.834, 777.004 801.376, 768.638 803.483 C 752.912 807.444, 753.722 807.076, 740 816.482 C 734.225 820.440, 725.701 825.663, 721.057 828.089 C 716.414 830.515, 707.414 836.235, 701.057 840.800 C 694.701 845.366, 684.100 851.764, 677.500 855.019 C 670.900 858.274, 663.025 863.011, 660 865.545 C 649.949 873.966, 640.227 879.942, 616.754 892.126 C 603.964 898.765, 592.150 905.018, 590.500 906.023 C 588.850 907.027, 582.100 910.298, 575.500 913.291 C 551.045 924.381, 535.214 933.972, 520 946.916 C 511.712 953.968, 503.050 960.786, 477.971 980 C 474.741 982.475, 466.044 987.992, 458.645 992.260 C 442.304 1001.686, 436.327 1006.035, 424 1017.467 C 418.775 1022.312, 409.550 1029.967, 403.500 1034.477 C 390.991 1043.802, 386.671 1048.200, 375.489 1063 C 366.396 1075.033, 349.466 1093.352, 338.208 1103.337 C 333.969 1107.098, 324.422 1114.823, 316.994 1120.504 C 300.783 1132.903, 292.053 1141.772, 285.501 1152.500 C 279.436 1162.431, 276.179 1166.773, 268.749 1174.834 C 263.371 1180.669, 249.394 1198.661, 237.672 1214.838 C 235.017 1218.502, 229.988 1226.235, 226.496 1232.022 C 223.004 1237.809, 216.676 1247.259, 212.433 1253.022 C 201.915 1267.307, 197.075 1277.893, 191.638 1298.500 C 189.171 1307.850, 185.123 1320.732, 182.641 1327.126 C 177.002 1341.661, 173.664 1353.962, 171.010 1370 C 169.872 1376.875, 168.044 1386.912, 166.947 1392.305 C 163.563 1408.946, 159.905 1440.667, 159.315 1458.500 C 158.768 1475.010, 158.869 1476.206, 162.812 1500 C 165.046 1513.475, 167.156 1528.325, 167.501 1533 C 169.255 1556.734, 177.854 1599.585, 183.905 1614.750 C 185.057 1617.638, 186.951 1622.362, 188.112 1625.250 C 189.274 1628.138, 191.335 1634.298, 192.691 1638.939 C 195.590 1648.858, 198.056 1653.973, 206.455 1667.500 C 209.870 1673, 215.009 1681.775, 217.874 1687 C 220.740 1692.225, 225.733 1700.100, 228.970 1704.500 C 232.208 1708.900, 238.573 1717.900, 243.115 1724.500 C 247.657 1731.100, 254.669 1740.657, 258.696 1745.738 C 267.768 1757.184, 279.450 1774.229, 284.576 1783.500 C 295.459 1803.182, 320.915 1830.733, 341.500 1845.109 C 355.076 1854.589, 362.396 1861.522, 372.500 1874.470 C 376.770 1879.941, 384.448 1887.741, 392.186 1894.470 C 399.164 1900.536, 408.105 1909.325, 412.055 1914 C 423.189 1927.176, 428.721 1932.607, 439 1940.456 C 444.225 1944.446, 451.476 1950.412, 455.113 1953.713 C 464.579 1962.305, 469.334 1965.326, 483.167 1971.534 C 501.317 1979.681, 521.500 1990.741, 530 1997.197 C 534.125 2000.330, 541.959 2006.990, 547.409 2011.998 C 559.116 2022.754, 562.291 2024.728, 575.389 2029.395 C 591.922 2035.287, 612.786 2048.454, 628.368 2062.833 C 634.988 2068.941, 642.526 2074.732, 648.164 2078.041 C 653.171 2080.980, 661.370 2086.364, 666.384 2090.005 C 675.367 2096.528, 700.697 2112.675, 708.500 2116.852 C 710.700 2118.029, 716.775 2120.944, 722 2123.328 C 727.225 2125.713, 734.638 2130.079, 738.474 2133.031 C 742.310 2135.983, 749.735 2140.822, 754.974 2143.784 C 765.837 2149.924, 768.885 2152.119, 777.938 2160.324 C 784.914 2166.645, 819.887 2190.183, 831.733 2196.528 C 839.328 2200.596, 846.512 2205.964, 859.613 2217.360 C 870.951 2227.222, 885.753 2236.874, 913.346 2252.398 C 919.311 2255.754, 927.694 2261.301, 931.975 2264.724 C 939.227 2270.522, 946.832 2275.548, 977.500 2294.810 C 984.100 2298.955, 995.125 2306.555, 1002 2311.699 C 1008.875 2316.843, 1019.225 2323.478, 1025 2326.444 C 1030.775 2329.410, 1040.900 2335.679, 1047.500 2340.376 C 1054.100 2345.073, 1063.078 2350.847, 1067.451 2353.208 C 1071.824 2355.568, 1079.924 2360.810, 1085.451 2364.855 C 1090.978 2368.900, 1100.225 2374.590, 1106 2377.499 C 1112.404 2380.726, 1120.206 2385.785, 1126 2390.469 C 1138.389 2400.484, 1141.567 2402.292, 1159.623 2409.597 C 1167.955 2412.968, 1180.140 2418.718, 1186.701 2422.374 C 1194.991 2426.995, 1202.855 2430.392, 1212.485 2433.513 C 1220.735 2436.186, 1230.908 2440.423, 1237.630 2443.984 C 1243.840 2447.274, 1254.105 2451.753, 1260.442 2453.938 C 1266.779 2456.123, 1277.485 2460.610, 1284.232 2463.908 C 1292.265 2467.835, 1300.124 2470.809, 1307 2472.524 C 1312.775 2473.965, 1322.077 2477.132, 1327.672 2479.562 C 1333.266 2481.992, 1342.041 2485.125, 1347.172 2486.523 C 1364.943 2491.365, 1367.567 2492.283, 1381.595 2498.563 C 1398.901 2506.311, 1405.651 2508.493, 1418.500 2510.492 C 1431.263 2512.478, 1432.949 2513.026, 1448 2520.086 C 1455.359 2523.538, 1465.136 2527.163, 1471.772 2528.901 C 1477.972 2530.525, 1489.222 2534.100, 1496.772 2536.844 C 1504.482 2539.647, 1515.542 2542.775, 1522 2543.979 C 1528.325 2545.158, 1537.550 2547.206, 1542.500 2548.530 C 1547.450 2549.854, 1555.775 2551.421, 1561 2552.012 C 1575.466 2553.649, 1580.362 2554.828, 1592.933 2559.704 C 1608.360 2565.688, 1646.261 2574.522, 1664.976 2576.497 C 1672.751 2577.318, 1683.475 2578.919, 1688.806 2580.056 C 1709.320 2584.429, 1717.917 2585.870, 1729.792 2586.928 C 1736.553 2587.529, 1747.578 2589.202, 1754.292 2590.645 C 1765.306 2593.012, 1767.478 2593.182, 1776.500 2592.384 C 1782 2591.898, 1797.525 2591.455, 1811 2591.401 C 1860.245 2591.201, 1912.745 2589.851, 1924.500 2588.483 C 1950.999 2585.397, 1966.070 2585.529, 2066 2589.729 C 2113.240 2591.714, 2116.263 2591.676, 2129.500 2588.936 C 2137.864 2587.205, 2145.310 2586.727, 2175 2586.014 C 2202.216 2585.360, 2213.650 2584.685, 2224 2583.118 C 2245.336 2579.887, 2281.321 2577.758, 2309 2578.089 C 2345.414 2578.523, 2357.022 2578.493, 2433 2577.768 C 2487.270 2577.249, 2505.349 2576.754, 2515.500 2575.508 C 2522.650 2574.630, 2538.175 2573.515, 2550 2573.029 C 2573.743 2572.054, 2599.840 2569.753, 2613.158 2567.461 C 2629.061 2564.723, 2642.294 2563.882, 2668.917 2563.917 C 2686.595 2563.940, 2698.503 2563.486, 2704.917 2562.544 C 2721.981 2560.038, 2807.490 2556.022, 2844.064 2556.009 C 2860.481 2556.003, 2873.540 2555.486, 2880.564 2554.564 C 2886.579 2553.775, 2899.150 2552.638, 2908.500 2552.039 C 2975.623 2547.736, 2998.766 2546.077, 3006.822 2544.989 C 3010.850 2544.445, 3026.375 2544, 3041.322 2544.001 C 3056.499 2544.001, 3077.923 2543.302, 3089.840 2542.417 C 3101.577 2541.545, 3113.952 2541.029, 3117.340 2541.271 C 3128.005 2542.031, 3183.902 2539.965, 3198 2538.289 C 3214.351 2536.346, 3242.106 2535.520, 3337 2534.153 C 3420.451 2532.951, 3424.651 2532.763, 3440.053 2529.540 C 3470.260 2523.218, 3476.334 2522.078, 3487.500 2520.634 C 3509.235 2517.824, 3532.349 2516.807, 3558.500 2517.511 C 3574.693 2517.947, 3586.499 2517.799, 3592.014 2517.093 C 3596.697 2516.493, 3610.197 2515.330, 3622.014 2514.508 C 3637.626 2513.422, 3646.234 2512.327, 3653.500 2510.503 C 3659.259 2509.057, 3671.982 2507.150, 3683.500 2506.007 C 3694.500 2504.915, 3708.450 2503.325, 3714.500 2502.474 C 3729.057 2500.424, 3755.708 2500.380, 3776.091 2502.371 C 3825.265 2507.174, 3876.908 2509.702, 3890.813 2507.987 C 3909.369 2505.697, 3919.319 2501.314, 3923.698 2493.500 C 3928.320 2485.254, 3927.609 2476.576, 3921.675 2468.796 C 3915.534 2460.745, 3901.219 2455.870, 3871 2451.537 C 3860.241 2449.994, 3848.107 2447.478, 3839.500 2445.004 C 3819.553 2439.271, 3772.289 2429.258, 3759.414 2428.037 C 3753.412 2427.467, 3738.825 2426.969, 3727 2426.930 C 3715.175 2426.890, 3701.900 2426.456, 3697.500 2425.965 C 3693.100 2425.475, 3678.475 2424.497, 3665 2423.792 C 3635.993 2422.276, 3544.698 2422.371, 3537.955 2423.924 C 3535.505 2424.489, 3525.370 2424.962, 3515.434 2424.976 C 3505.497 2424.989, 3494.697 2425.511, 3491.434 2426.136 C 3479.726 2428.378, 3406.061 2426.559, 3377.718 2423.329 C 3369.766 2422.422, 3361.518 2422.034, 3358.218 2422.412 C 3351.720 2423.155, 3293.402 2425.199, 3279 2425.188 C 3273.775 2425.184, 3255.325 2424.977, 3238 2424.728 C 3220.675 2424.478, 3203.125 2424.677, 3199 2425.170 C 3194.875 2425.663, 3184.548 2426.050, 3176.051 2426.030 C 3167.554 2426.010, 3156.754 2426.475, 3152.051 2427.065 C 3147.037 2427.693, 3111.649 2428.366, 3066.500 2428.690 C 3024.150 2428.994, 2986.125 2429.291, 2982 2429.350 C 2977.875 2429.409, 2969.775 2429.314, 2964 2429.140 C 2940.454 2428.429, 2907.012 2428.523, 2832.500 2429.509 C 2765.765 2430.392, 2755.676 2430.346, 2728 2429.032 C 2713.330 2428.336, 2674.005 2428.185, 2615 2428.600 C 2565.225 2428.950, 2520.900 2429.258, 2516.500 2429.284 C 2512.100 2429.310, 2470.700 2429.012, 2424.500 2428.622 C 2344.597 2427.947, 2329.976 2427.576, 2278.500 2424.912 C 2259.126 2423.909, 2254.768 2423.980, 2241.990 2425.506 C 2226.352 2427.374, 2199.026 2427.230, 2174 2425.148 C 2167.125 2424.576, 2135.175 2423.626, 2103 2423.038 C 2070.825 2422.449, 2035.139 2421.491, 2023.698 2420.908 C 2008.231 2420.120, 2000.046 2420.150, 1991.784 2421.023 C 1984.743 2421.767, 1976.610 2421.916, 1969.586 2421.430 C 1953.196 2420.297, 1945.084 2420.743, 1933.713 2423.402 C 1918.077 2427.059, 1914.347 2427.306, 1899.819 2425.649 C 1892.494 2424.813, 1879.300 2423.849, 1870.500 2423.506 C 1861.700 2423.164, 1849.775 2422.265, 1844 2421.508 C 1838.225 2420.751, 1828.100 2419.856, 1821.500 2419.519 C 1814.900 2419.182, 1804.550 2418.281, 1798.500 2417.516 C 1792.450 2416.752, 1782.775 2415.827, 1777 2415.460 C 1770.416 2415.043, 1761.651 2413.566, 1753.500 2411.501 C 1746.350 2409.690, 1737.350 2407.695, 1733.500 2407.067 C 1719.519 2404.787, 1689.095 2395.106, 1675 2388.453 C 1664.691 2383.586, 1659.372 2381.700, 1652.500 2380.473 C 1637.359 2377.770, 1630.180 2375.960, 1623.194 2373.086 C 1619.512 2371.571, 1611.120 2368.640, 1604.545 2366.572 C 1597.970 2364.505, 1588.130 2360.574, 1582.679 2357.839 C 1573.671 2353.318, 1565.839 2350.309, 1535.500 2339.713 C 1511.124 2331.200, 1490.530 2324.862, 1481.089 2322.970 C 1469.814 2320.710, 1464.846 2318.954, 1453.282 2313.145 C 1449.002 2310.995, 1439.425 2307.181, 1432 2304.668 C 1413.212 2298.311, 1362.985 2275.855, 1343.591 2265.142 C 1339.252 2262.745, 1330.942 2259.019, 1325.126 2256.861 C 1312.149 2252.047, 1299.082 2245.173, 1284.149 2235.305 C 1277.906 2231.179, 1267.297 2225.208, 1260.574 2222.035 C 1248.909 2216.530, 1222.566 2199.884, 1213 2191.974 C 1210.525 2189.928, 1203.139 2184.543, 1196.586 2180.008 C 1190.033 2175.474, 1181.474 2169.229, 1177.565 2166.132 C 1173.656 2163.034, 1165.999 2157.350, 1160.550 2153.500 C 1155.100 2149.650, 1145.121 2141.214, 1138.373 2134.754 C 1130.495 2127.212, 1122.417 2120.631, 1115.802 2116.365 C 1110.136 2112.712, 1102.575 2107.397, 1099 2104.556 C 1095.425 2101.714, 1088.450 2096.540, 1083.500 2093.058 C 1078.550 2089.576, 1071.800 2084.402, 1068.500 2081.560 C 1065.200 2078.717, 1059.575 2074.182, 1056 2071.480 C 1052.425 2068.778, 1045.887 2063.371, 1041.471 2059.463 C 1037.054 2055.556, 1029.854 2049.954, 1025.471 2047.016 C 1016.517 2041.014, 1005.440 2032.052, 993.526 2021.170 C 989.112 2017.138, 980.100 2009.987, 973.500 2005.278 C 959.996 1995.644, 942.605 1981.793, 930.136 1970.740 C 925.536 1966.662, 917.886 1960.915, 913.136 1957.968 C 897.070 1947.999, 893.882 1945.731, 885.182 1938.085 C 880.407 1933.889, 872.453 1927.090, 867.507 1922.978 C 862.561 1918.865, 855.586 1912.780, 852.007 1909.455 C 842.525 1900.646, 838.936 1898.075, 824.500 1889.759 C 789.629 1869.671, 767.387 1855.448, 754 1844.678 C 748.775 1840.475, 740 1834.710, 734.500 1831.868 C 720.473 1824.619, 716.826 1821.959, 705.768 1810.912 C 697.178 1802.330, 694.714 1800.519, 684.768 1795.472 C 667.226 1786.571, 647.817 1774.459, 639.802 1767.413 C 635.786 1763.882, 623.050 1753.849, 611.500 1745.117 C 596.438 1733.729, 587.107 1725.785, 578.500 1717.020 C 571.900 1710.299, 557.950 1697.946, 547.500 1689.569 C 535.259 1679.757, 523.698 1669.372, 515 1660.376 C 503.377 1648.355, 500.434 1644.611, 493.833 1633.456 C 489.617 1626.330, 480.237 1612.175, 472.989 1602 C 458.033 1581.004, 451.154 1567.915, 447.364 1553.241 C 445.099 1544.473, 444.894 1542.102, 445.307 1529.500 C 446.056 1506.700, 448.056 1500.856, 471.715 1452.348 C 477.074 1441.361, 487.936 1428.955, 524.990 1391.500 C 545.666 1370.600, 565.264 1350.391, 568.542 1346.591 C 575.668 1338.326, 603.929 1313.325, 620.089 1300.988 C 626.462 1296.122, 635.408 1288.716, 639.967 1284.530 C 650.262 1275.078, 653.920 1272.556, 666.500 1266.234 C 672 1263.470, 681.187 1257.774, 686.916 1253.576 C 698.451 1245.124, 702.659 1242.935, 724.438 1234.055 C 732.654 1230.705, 743.904 1225.326, 749.438 1222.102 C 754.972 1218.878, 762.875 1214.552, 767 1212.488 C 776.642 1207.665, 781.527 1204.349, 792.090 1195.458 C 810.068 1180.324, 815.315 1177.458, 834.110 1172.511 C 845.072 1169.625, 850.946 1167.284, 866.500 1159.603 C 886.416 1149.767, 890.732 1148.095, 903 1145.466 C 907.670 1144.465, 914.650 1141.757, 921.500 1138.289 C 927.550 1135.226, 936.100 1131.495, 940.500 1129.998 C 944.900 1128.501, 952.907 1125.396, 958.293 1123.098 C 963.679 1120.800, 972.904 1117.825, 978.793 1116.488 C 984.682 1115.150, 993.325 1112.951, 998 1111.600 C 1002.675 1110.250, 1011.900 1108.201, 1018.500 1107.048 C 1042.534 1102.849, 1068.053 1094.862, 1089 1084.983 C 1096.975 1081.222, 1107.550 1077.004, 1112.500 1075.609 C 1117.450 1074.215, 1126.170 1071.492, 1131.878 1069.560 C 1137.586 1067.627, 1148.161 1064.912, 1155.378 1063.525 C 1162.595 1062.138, 1171.200 1060.165, 1174.500 1059.141 C 1185.105 1055.850, 1222.250 1042.295, 1245.709 1033.155 C 1281.062 1019.382, 1290.782 1016.311, 1306.022 1014.101 C 1321.804 1011.812, 1328.695 1009.489, 1351 998.937 C 1373.812 988.144, 1392.900 982.935, 1416.500 981.062 C 1430.359 979.961, 1435.941 978.258, 1449.308 971.052 C 1456.512 967.169, 1462.036 965.115, 1472.155 962.560 C 1479.495 960.706, 1487.975 958.204, 1491 957 C 1515.713 947.164, 1544.326 939.077, 1563.150 936.609 C 1576.826 934.815, 1604.194 926.194, 1621.002 918.385 C 1631.460 913.527, 1631.540 913.508, 1642 913.504 C 1651.702 913.500, 1653.004 913.739, 1659.128 916.641 C 1664.031 918.963, 1667.546 921.686, 1672.628 927.095 C 1676.408 931.117, 1680.970 935.868, 1682.766 937.652 C 1687.382 942.237, 1721.467 964.597, 1734 971.263 C 1747.794 978.599, 1752.515 982.130, 1754.973 986.947 C 1757.665 992.224, 1757.551 994.569, 1753.889 1009.129 C 1750.091 1024.237, 1748.394 1027.694, 1741.799 1033.763 C 1731.851 1042.918, 1731.071 1044.072, 1727.912 1054.296 C 1724.903 1064.037, 1724.831 1064.150, 1715.080 1074.416 C 1706.551 1083.395, 1704.911 1085.701, 1702.485 1092.120 C 1698.863 1101.706, 1695.104 1107.202, 1683.417 1120 C 1675.098 1129.109, 1673.060 1132.090, 1668.033 1142.500 C 1661.159 1156.734, 1658.390 1160.388, 1648.544 1168.222 C 1641.846 1173.550, 1640.615 1175.111, 1635.953 1184.186 C 1631.856 1192.162, 1628.894 1196.246, 1621.643 1203.916 C 1616.615 1209.235, 1608.396 1218.293, 1603.379 1224.044 C 1598.362 1229.795, 1591.897 1237.200, 1589.012 1240.500 C 1586.127 1243.800, 1580.732 1251, 1577.025 1256.500 C 1568.323 1269.408, 1558.931 1278.267, 1547.972 1283.904 C 1543.312 1286.300, 1534.550 1291.723, 1528.500 1295.955 C 1513.299 1306.587, 1504.808 1311.458, 1494.943 1315.207 C 1487.255 1318.128, 1485.517 1318.411, 1475.500 1318.371 C 1465.477 1318.332, 1463.575 1318.004, 1454.095 1314.685 C 1448.372 1312.681, 1439.597 1310.154, 1434.595 1309.068 C 1423.926 1306.753, 1420.423 1305.544, 1409 1300.238 C 1396.161 1294.274, 1388.253 1291.797, 1380.292 1291.243 C 1371.246 1290.615, 1365.835 1292.257, 1353 1299.524 C 1339.388 1307.231, 1316.806 1317.296, 1300 1323.146 C 1271.543 1333.051, 1253.579 1342.303, 1245.380 1351.276 C 1240.044 1357.117, 1230.468 1374.649, 1226.961 1385 C 1224.023 1393.673, 1224.046 1404.923, 1227.020 1414.500 C 1230.599 1426.022, 1236.825 1437.732, 1242.416 1443.456 C 1248.098 1449.272, 1251.733 1450.716, 1255.799 1448.770 C 1259.396 1447.048, 1260.874 1442.353, 1260.944 1432.434 C 1261.091 1411.338, 1266.415 1400.891, 1283 1389.148 C 1286.575 1386.616, 1293.550 1381.579, 1298.500 1377.952 C 1320.280 1361.998, 1331.695 1356.554, 1356.500 1350.295 L 1375.500 1345.500 1397.500 1345.500 C 1424.966 1345.500, 1428.457 1346.378, 1444.981 1357.443 C 1459.969 1367.480, 1463.208 1368.502, 1480 1368.492 C 1496.612 1368.482, 1499.041 1367.681, 1519.538 1355.460 C 1536.042 1345.620, 1547.359 1340.357, 1560.500 1336.411 C 1568.149 1334.113, 1571.452 1333.692, 1582.500 1333.604 C 1594.714 1333.506, 1595.833 1333.664, 1601.008 1336.205 C 1610.746 1340.988, 1613.062 1349.603, 1607.405 1359.998 C 1603.971 1366.307, 1593.399 1377.331, 1586.012 1382.306 C 1577.931 1387.748, 1531.659 1405.579, 1502 1414.679 C 1486.857 1419.326, 1480.817 1422.200, 1470.036 1429.889 C 1466.480 1432.425, 1459.280 1437.152, 1454.036 1440.394 C 1448.791 1443.636, 1441.800 1447.958, 1438.500 1450 C 1425.604 1457.980, 1413.160 1462.248, 1397.503 1464.062 C 1392.551 1464.636, 1383.325 1466.034, 1377 1467.170 C 1364.906 1469.340, 1355.285 1469.306, 1330 1467 C 1324.225 1466.473, 1313.875 1465.764, 1307 1465.423 C 1291.627 1464.662, 1281.073 1466.464, 1236.500 1477.460 C 1220 1481.530, 1201.325 1486.034, 1195 1487.469 C 1174.139 1492.201, 1163.236 1496.596, 1155.244 1503.493 C 1148.267 1509.514, 1132.612 1528.374, 1129.063 1535.034 C 1124.580 1543.444, 1123.047 1549.593, 1122.340 1562 C 1121.393 1578.607, 1125.652 1590.699, 1133.422 1593.467 C 1138.416 1595.246, 1141.006 1592.645, 1145.656 1581.181 C 1152.382 1564.600, 1155.443 1561.087, 1173.959 1548.694 C 1190.488 1537.630, 1196.173 1535.008, 1214.653 1529.924 C 1222.635 1527.729, 1234.191 1523.649, 1240.333 1520.859 C 1257.327 1513.138, 1260.646 1512.236, 1282.044 1509.519 C 1306.355 1506.432, 1335.723 1506.105, 1360.476 1508.644 C 1373.807 1510.011, 1378.013 1510.087, 1385.500 1509.097 C 1395.970 1507.711, 1410.867 1502.956, 1426.693 1495.948 C 1432.849 1493.222, 1443.649 1489.452, 1450.693 1487.570 C 1457.737 1485.689, 1466.778 1482.748, 1470.785 1481.036 C 1474.791 1479.325, 1484.122 1475.922, 1491.521 1473.475 C 1498.919 1471.028, 1511.616 1465.711, 1519.736 1461.658 C 1527.856 1457.605, 1537.650 1453.051, 1541.500 1451.538 C 1545.350 1450.024, 1554.125 1446.381, 1561 1443.442 C 1567.875 1440.503, 1578.029 1436.955, 1583.565 1435.558 C 1589.101 1434.160, 1603.081 1429.703, 1614.632 1425.652 C 1626.183 1421.602, 1638.078 1417.729, 1641.067 1417.046 C 1644.055 1416.363, 1650.768 1414.466, 1655.985 1412.831 C 1668.104 1409.031, 1674.502 1408.932, 1680.506 1412.451 C 1691.840 1419.093, 1696.364 1432.522, 1690.956 1443.472 C 1687.840 1449.780, 1663.757 1474.709, 1652.034 1483.761 C 1647.340 1487.385, 1638.775 1494.891, 1633 1500.441 C 1626.108 1507.065, 1620.266 1511.696, 1616 1513.920 C 1606.933 1518.646, 1604.257 1520.662, 1600.901 1525.295 C 1597.001 1530.679, 1595.253 1537.001, 1593.488 1552.099 C 1591.875 1565.907, 1590.953 1569.170, 1585.734 1579.539 C 1577.975 1594.957, 1576.359 1605.329, 1575.608 1644.562 C 1575.073 1672.524, 1575.397 1674.500, 1580.530 1674.500 C 1583.316 1674.500, 1583.841 1673.810, 1589 1663.382 C 1592.025 1657.267, 1597.013 1648.942, 1600.084 1644.882 C 1603.155 1640.822, 1606.602 1635.925, 1607.743 1634 C 1611.053 1628.419, 1613.767 1617.672, 1616.078 1601 C 1619.576 1575.763, 1624.792 1561.156, 1633.367 1552.580 C 1635.707 1550.240, 1643.935 1544.419, 1651.651 1539.646 C 1669.411 1528.658, 1673.034 1525.517, 1678.160 1516.669 C 1690.076 1496.101, 1696.473 1489.071, 1714 1477.280 C 1725.860 1469.301, 1728.509 1466.762, 1737.866 1454.402 C 1745.326 1444.547, 1751.506 1440.157, 1756.244 1441.347 C 1760.351 1442.377, 1761.343 1445.389, 1762.062 1459 C 1762.479 1466.894, 1763.510 1474.283, 1764.858 1479.052 C 1766.032 1483.205, 1767.675 1491.458, 1768.508 1497.392 C 1769.942 1507.608, 1774.270 1532.120, 1775.651 1537.852 C 1776.003 1539.308, 1778.273 1544.942, 1780.697 1550.372 C 1783.121 1555.801, 1786.202 1564.351, 1787.545 1569.372 C 1790.155 1579.128, 1792.513 1583.321, 1795.656 1583.794 C 1799.694 1584.402, 1801.220 1580.787, 1802.615 1567.308 C 1803.338 1560.321, 1804.674 1551.431, 1805.584 1547.553 C 1807.598 1538.963, 1807.734 1525.409, 1805.997 1506.128 C 1804.454 1488.993, 1805.048 1474.320, 1808.409 1446.500 C 1811.219 1423.240, 1812.148 1418.976, 1816.465 1409.480 C 1822.540 1396.119, 1827.795 1392.513, 1845.500 1389.552 C 1851 1388.632, 1862.250 1385.672, 1870.500 1382.975 C 1903.215 1372.277, 1917.682 1370.841, 1934.664 1376.607 C 1946.454 1380.610, 1951.214 1386.135, 1956.475 1401.926 C 1960.403 1413.713, 1962.843 1417, 1967.664 1417 C 1975.992 1417, 1991.929 1397.538, 1997.025 1381.145 C 2004.644 1356.631, 1988.747 1326.408, 1964.579 1319.461 C 1952.648 1316.031, 1922.334 1319.178, 1888 1327.412 C 1880.622 1329.181, 1866.281 1329.484, 1860.882 1327.984 C 1856.331 1326.720, 1851.295 1323.324, 1848.625 1319.720 C 1845.841 1315.962, 1845.955 1307.968, 1848.876 1302.244 C 1853.251 1293.668, 1867.779 1272.394, 1871.580 1268.997 C 1873.736 1267.070, 1879.641 1263.070, 1884.702 1260.106 C 1892.446 1255.573, 1896.503 1252.086, 1910.300 1238.109 C 1919.710 1228.576, 1930.336 1216.601, 1935.242 1210 C 1939.943 1203.675, 1949.969 1191.759, 1957.523 1183.520 C 1965.979 1174.296, 1975.875 1162.001, 1983.277 1151.520 C 1989.889 1142.159, 1998.441 1130.089, 2002.281 1124.698 C 2006.122 1119.307, 2011.844 1110.032, 2014.997 1104.088 C 2018.150 1098.144, 2022.584 1090.770, 2024.850 1087.703 C 2027.116 1084.635, 2031.387 1077.710, 2034.340 1072.313 C 2045.623 1051.696, 2068.702 1018.368, 2083.031 1002 C 2092.834 990.803, 2097.865 983.749, 2107.997 967 C 2120.717 945.974, 2122.954 940.103, 2124.957 922.497 C 2126.897 905.439, 2131.426 893.065, 2137.396 888.511 C 2143.381 883.946, 2148.027 883, 2164.453 883 C 2177.598 883, 2181.674 882.579, 2194.577 879.890 C 2208.112 877.069, 2210.574 876.838, 2221.052 877.407 C 2230.497 877.920, 2234.782 877.641, 2244.552 875.882 C 2252.847 874.388, 2261.697 873.632, 2273.500 873.411 C 2282.850 873.236, 2292.750 872.619, 2295.500 872.041 C 2298.250 871.463, 2308.600 870.546, 2318.500 870.004 C 2328.400 869.461, 2338.300 868.529, 2340.500 867.933 C 2342.700 867.337, 2353.725 866.500, 2365 866.073 C 2382.460 865.413, 2387.184 864.879, 2396.854 862.474 C 2408.094 859.679, 2408.329 859.663, 2420.112 860.930 C 2427.893 861.767, 2437.294 861.985, 2447.258 861.560 C 2456.565 861.163, 2464.642 861.317, 2468 861.954 C 2471.025 862.529, 2488.125 863.688, 2506 864.529 C 2531.925 865.749, 2541.455 865.830, 2553.107 864.927 C 2566.264 863.908, 2569.143 863.998, 2582.107 865.836 C 2590.023 866.958, 2603.250 868.172, 2611.500 868.533 C 2620.295 868.918, 2631.829 870.184, 2639.384 871.595 C 2646.523 872.928, 2656.109 874.009, 2660.884 874.020 C 2673.106 874.048, 2681.756 875.510, 2693.564 879.545 C 2702.612 882.636, 2705.444 883.129, 2717.172 883.648 C 2728.770 884.161, 2731.863 884.689, 2741 887.715 C 2749.870 890.652, 2753.674 891.330, 2765.500 892.078 C 2782.803 893.173, 2783.081 893.232, 2796.237 898.623 C 2808.453 903.629, 2816.038 905.535, 2827.500 906.480 C 2838.106 907.355, 2841.723 908.349, 2853.028 913.495 C 2864.277 918.615, 2870.967 919.984, 2884.500 919.933 C 2896.323 919.889, 2896.871 920.041, 2913 927.812 C 2921.413 931.865, 2928.973 934.670, 2936.121 936.391 C 2941.963 937.797, 2953.213 941.229, 2961.121 944.017 C 2969.030 946.806, 2980.980 950.416, 2987.677 952.039 C 3000.623 955.178, 3017.173 961.921, 3041.500 973.972 C 3055.251 980.783, 3059.823 982.351, 3075.181 985.521 C 3084.096 987.360, 3096.495 993.199, 3109.854 1001.848 C 3116.457 1006.123, 3122.370 1008.958, 3129.966 1011.489 C 3143.455 1015.983, 3147.776 1018.732, 3160.387 1030.838 C 3167.740 1037.896, 3172.956 1041.900, 3179.500 1045.511 C 3191.174 1051.952, 3204.908 1065.184, 3206.994 1072 C 3209.076 1078.801, 3208.460 1117.718, 3206.014 1134 C 3204.981 1140.875, 3203.885 1149.425, 3203.578 1153 C 3203.272 1156.575, 3202.277 1166.925, 3201.368 1176 C 3200.135 1188.315, 3199.908 1196.051, 3200.475 1206.500 C 3200.892 1214.200, 3201.293 1233.100, 3201.367 1248.500 C 3201.493 1275.084, 3201.617 1276.829, 3203.823 1283 C 3207.316 1292.774, 3215.979 1307.979, 3226.282 1322.420 C 3240.858 1342.850, 3246.940 1349.286, 3262.018 1360.234 C 3269.401 1365.594, 3279.055 1373.283, 3283.471 1377.320 C 3294.560 1387.456, 3299.822 1391.030, 3312.117 1396.780 C 3317.957 1399.511, 3325.382 1403.541, 3328.617 1405.736 C 3336.132 1410.833, 3344.192 1414.886, 3355.506 1419.256 C 3360.453 1421.167, 3370.360 1425.701, 3377.522 1429.332 C 3388.210 1434.751, 3393.587 1436.741, 3407.522 1440.436 C 3416.860 1442.912, 3430.575 1447.218, 3438 1450.004 C 3445.425 1452.791, 3457.125 1456.809, 3464 1458.933 C 3470.875 1461.058, 3481.225 1464.595, 3487 1466.795 C 3497.221 1470.688, 3504.603 1472.203, 3520 1473.567 C 3534.322 1474.836, 3545.825 1478.791, 3557 1486.288 C 3565.362 1491.897, 3584.692 1507.908, 3587.419 1511.483 C 3594.869 1521.250, 3596.638 1533.392, 3591.942 1542.525 C 3586.876 1552.380, 3569.173 1563.555, 3554 1566.476 C 3549.325 1567.376, 3543.330 1568.539, 3540.678 1569.061 C 3529.378 1571.284, 3518.655 1579.003, 3514.818 1587.678 C 3513.436 1590.802, 3512.498 1596.325, 3511.734 1605.834 C 3510.070 1626.527, 3510.406 1639.139, 3512.864 1648.329 C 3517.034 1663.918, 3522.070 1672, 3527.612 1672 C 3531.184 1672, 3532.880 1668.352, 3534.905 1656.309 C 3535.917 1650.290, 3537.637 1643.371, 3538.729 1640.933 C 3543.086 1631.196, 3558.404 1614.385, 3566.839 1610.082 C 3569.203 1608.876, 3576.214 1606.599, 3582.419 1605.021 C 3596.868 1601.346, 3598.688 1600.552, 3611.686 1592.242 C 3617.634 1588.440, 3628.800 1581.812, 3636.500 1577.514 C 3644.200 1573.215, 3656.575 1566.220, 3664 1561.969 C 3678.327 1553.765, 3683.814 1551.482, 3691.641 1550.468 C 3702.271 1549.091, 3720.278 1555.415, 3730.217 1564.017 C 3732.812 1566.263, 3738.184 1572.465, 3742.157 1577.800 C 3752.387 1591.541, 3754.551 1593.836, 3771.956 1609.399 C 3786.828 1622.696, 3788.081 1623.574, 3800.921 1629.688 C 3816.026 1636.882, 3849.581 1657.118, 3856.497 1663.206 C 3858.997 1665.407, 3863.165 1669.974, 3865.759 1673.354 C 3868.353 1676.734, 3873.510 1682.780, 3877.218 1686.788 C 3885.245 1695.464, 3887.899 1699.843, 3891.595 1710.500 C 3895.744 1722.466, 3898.583 1725.902, 3903.129 1724.459 C 3906.590 1723.361, 3908.002 1718.071, 3907.980 1706.282 C 3907.945 1687.355, 3905.698 1676.391, 3897.879 1657 C 3888.240 1633.097, 3885.683 1629.788, 3870.469 1621.535 C 3865.536 1618.860, 3858.199 1614.454, 3854.163 1611.746 C 3850.128 1609.038, 3842.253 1604.679, 3836.663 1602.060 C 3825.197 1596.687, 3810.103 1587.786, 3802.206 1581.741 C 3792.374 1574.215, 3780.037 1556.684, 3780.010 1550.200 C 3779.995 1546.639, 3782.732 1542.190, 3785.967 1540.517 C 3790.153 1538.353, 3796.453 1538.673, 3804.321 1541.449 C 3816.630 1545.793, 3823.446 1550.751, 3841.508 1568.497 C 3850.854 1577.678, 3861.121 1586.925, 3864.325 1589.044 C 3871.042 1593.486, 3878.551 1595.387, 3895.760 1597.001 C 3908.649 1598.211, 3931.555 1601.986, 3947.222 1605.484 C 3961.444 1608.659, 3977.600 1615.611, 3990.216 1623.984 C 4003.206 1632.605, 4006.871 1636.435, 4012.761 1647.545 C 4018.226 1657.853, 4021.354 1660.308, 4025.532 1657.571 C 4029.934 1654.687, 4031.375 1650.379, 4031.813 1638.790 C 4032.376 1623.928, 4030.413 1615.758, 4022.752 1601.063 C 4007.491 1571.792, 4003.142 1568.580, 3974.678 1565.548 C 3966.880 1564.718, 3955.775 1562.881, 3950 1561.466 C 3944.225 1560.051, 3933.425 1558.036, 3926 1556.988 C 3909.776 1554.698, 3903.586 1552.966, 3895 1548.312 C 3878.140 1539.173, 3871.487 1532.068, 3874.033 1525.921 C 3876.281 1520.494, 3879.735 1520.322, 3904.561 1524.402 C 3916.628 1526.385, 3929.239 1528.005, 3932.587 1528.004 C 3936.224 1528.001, 3944.276 1526.588, 3952.587 1524.493 C 3968.003 1520.608, 3986.186 1518.496, 3995.451 1519.516 C 3998.778 1519.882, 4005.550 1521.071, 4010.500 1522.158 C 4015.450 1523.245, 4024.378 1525.017, 4030.339 1526.096 C 4044.448 1528.648, 4049.201 1531.155, 4057.550 1540.446 C 4064.492 1548.172, 4066.493 1549.516, 4069.396 1548.401 C 4073.025 1547.009, 4074.149 1542.403, 4074.094 1529.158 C 4074.011 1509.115, 4070.947 1500.828, 4059.431 1489.500 C 4052.887 1483.062, 4035.666 1472.257, 4027.715 1469.599 C 4017.983 1466.346, 4003.993 1467.858, 3980 1474.756 L 3963.500 1479.500 3942 1479.399 C 3923.180 1479.310, 3918.063 1478.913, 3900.953 1476.211 C 3878.581 1472.678, 3871.105 1470.289, 3865.750 1464.964 C 3862.776 1462.007, 3862 1460.476, 3862 1457.568 C 3862 1449.303, 3867.731 1444.544, 3885 1438.470 C 3893.325 1435.541, 3897.481 1434.670, 3905.065 1434.263 C 3918.126 1433.563, 3923.054 1435.140, 3936.947 1444.464 C 3949.534 1452.913, 3953.779 1454.297, 3957.840 1451.279 C 3962.008 1448.180, 3961.758 1444.164, 3956.527 1430.180 C 3949.694 1411.915, 3949.371 1405.064, 3955.035 1398.612 C 3959.775 1393.215, 3963.957 1392.564, 4011.307 1389.857 C 4028.864 1388.853, 4035.003 1388.857, 4042.807 1389.880 C 4048.138 1390.579, 4057.450 1391.750, 4063.500 1392.482 C 4069.550 1393.215, 4078.100 1394.708, 4082.500 1395.800 C 4086.900 1396.893, 4095.450 1398.056, 4101.500 1398.386 C 4107.550 1398.715, 4114.975 1399.670, 4118 1400.508 C 4121.025 1401.346, 4128.450 1402.503, 4134.500 1403.079 C 4140.550 1403.656, 4149.413 1404.973, 4154.196 1406.007 C 4163.319 1407.980, 4175.740 1409.447, 4192.500 1410.532 C 4198 1410.887, 4207.675 1412.120, 4214 1413.271 C 4222.825 1414.876, 4229.920 1415.388, 4244.500 1415.470 L 4263.500 1415.578 4273.500 1419.391 C 4279 1421.488, 4291.600 1426.037, 4301.500 1429.500 C 4311.400 1432.963, 4324 1437.580, 4329.500 1439.760 C 4344.767 1445.813, 4407.531 1466.276, 4434.500 1473.995 C 4440.550 1475.726, 4452.306 1479.333, 4460.625 1482.009 C 4468.944 1484.685, 4483.344 1488.728, 4492.625 1490.994 C 4501.906 1493.260, 4515.125 1496.704, 4522 1498.649 C 4545.503 1505.297, 4585.489 1514.827, 4596.500 1516.404 C 4602.550 1517.270, 4616.950 1519.118, 4628.500 1520.510 C 4640.050 1521.902, 4657.364 1524.190, 4666.975 1525.595 C 4683.459 1528.004, 4686.179 1528.124, 4714.975 1527.709 C 4742.052 1527.318, 4746.404 1527.028, 4753.500 1525.142 C 4757.900 1523.973, 4769.600 1522.104, 4779.500 1520.989 C 4789.400 1519.874, 4800.867 1518.043, 4804.982 1516.920 C 4815.189 1514.135, 4827.375 1508.265, 4837.254 1501.374 C 4841.789 1498.211, 4849.550 1492.929, 4854.500 1489.638 C 4865.481 1482.336, 4871.375 1476.422, 4880.599 1463.448 C 4890.067 1450.130, 4891.362 1447.853, 4895.387 1437.430 C 4901.441 1421.754, 4902.228 1415.443, 4901.767 1386.267 C 4901.378 1361.653, 4901.237 1360.100, 4898.628 1351.556 C 4894.284 1337.332, 4890.446 1329.058, 4881.347 1314.299 C 4869.654 1295.332, 4866.807 1290.057, 4862.027 1278.500 C 4856.305 1264.666, 4852.441 1258.079, 4842.313 1244.886 C 4837.506 1238.624, 4830.677 1228.775, 4827.137 1223 C 4823.598 1217.225, 4817.699 1208, 4814.028 1202.500 C 4806.680 1191.492, 4799.705 1179.357, 4792.667 1165.337 C 4790.137 1160.297, 4785.662 1152.422, 4782.722 1147.837 C 4779.782 1143.252, 4772.267 1130.950, 4766.022 1120.500 C 4759.777 1110.050, 4750.530 1095.425, 4745.473 1088 C 4740.416 1080.575, 4731.875 1067.300, 4726.492 1058.500 C 4714.788 1039.364, 4698.168 1014.692, 4689.154 1003.075 C 4679.488 990.616, 4668.972 980.439, 4655.500 970.506 C 4648.900 965.639, 4640.303 959.059, 4636.395 955.883 C 4625.942 947.388, 4614.947 940.312, 4600.939 933.066 C 4588.673 926.720, 4588.271 926.401, 4571.981 910.066 C 4546.050 884.063, 4503.834 843.739, 4493.787 835.377 C 4488.760 831.192, 4479.438 823.926, 4473.073 819.230 C 4466.708 814.533, 4458.350 807.984, 4454.500 804.676 C 4446.112 797.468, 4440.324 793.683, 4429 788.002 C 4424.325 785.657, 4415.186 780.409, 4408.692 776.341 C 4398.079 769.692, 4373.382 756.079, 4356 747.296 C 4340.739 739.584, 4313.813 729.958, 4300.682 727.519 C 4290.996 725.720, 4254.435 725.042, 4239.890 726.392 C 4228.453 727.453, 4224.461 726.425, 4214.958 719.972 C 4211.559 717.663, 4201.816 712.453, 4193.308 708.393 C 4184.611 704.243, 4173.166 697.780, 4167.169 693.634 C 4155.959 685.884, 4149.149 682.119, 4142.500 679.996 C 4130.164 676.057, 4126.170 673.193, 4108.482 655.602 C 4090.784 638.001, 4075.292 618.956, 4068.867 606.902 C 4067.081 603.552, 4062.293 597.141, 4058.225 592.656 C 4054.158 588.170, 4049.014 581.350, 4046.795 577.500 C 4039.933 565.594, 4038.753 564.171, 4030 557.248 C 4025.325 553.551, 4012.050 541.276, 4000.500 529.972 C 3988.950 518.668, 3977.025 507.563, 3974 505.294 C 3966.543 499.702, 3955.761 494.478, 3948.500 492.940 C 3940.977 491.345, 3908.720 491.346, 3897 492.940 C 3877.355 495.613, 3844.023 507.142, 3821.202 519.158 C 3815.244 522.295, 3812.872 523, 3808.276 523 C 3803.110 523, 3801.284 522.272, 3786.073 514.151 C 3776.958 509.283, 3765.352 502.575, 3760.282 499.243 C 3754.454 495.413, 3748.017 492.181, 3742.782 490.455 C 3730.767 486.493, 3728.147 484.938, 3718.624 476.115 C 3709.298 467.475, 3703.726 464.370, 3691.657 461.088 C 3681.190 458.241, 3679.127 457.060, 3670.697 449.084 C 3662.999 441.800, 3660.531 440.262, 3652.147 437.521 C 3648.289 436.259, 3644.940 434.030, 3640.147 429.533 C 3636.491 426.101, 3632.428 422.730, 3631.118 422.041 C 3629.808 421.352, 3623.506 420.455, 3617.113 420.047 C 3603.209 419.159, 3601.457 418.388, 3592.109 409.040 C 3585.837 402.768, 3584.487 401.914, 3577.841 400.011 C 3573.803 398.855, 3568.250 396.973, 3565.500 395.828 C 3562.750 394.683, 3555.550 392.050, 3549.500 389.977 C 3543.450 387.903, 3535.979 385.033, 3532.897 383.598 C 3529.768 382.140, 3523.938 380.563, 3519.692 380.024 C 3504.613 378.112, 3503.064 377.318, 3491.500 365.556 C 3482.878 356.786, 3482.027 356.203, 3471.216 351.669 C 3465.010 349.066, 3456.010 346.103, 3451.216 345.084 C 3440.050 342.710, 3416.616 335.863, 3411.747 333.551 C 3409.682 332.571, 3405.307 329.372, 3402.024 326.443 C 3398.741 323.513, 3394.130 320.006, 3391.778 318.649 C 3386.225 315.446, 3372.826 311.288, 3363.705 309.937 C 3346.138 307.337, 3343.486 306.778, 3339.812 304.904 C 3337.671 303.812, 3332.819 300.073, 3329.029 296.595 C 3321.754 289.919, 3317.279 288, 3308.985 288 C 3306.714 288, 3300.051 286.914, 3294.178 285.587 C 3288.305 284.260, 3280.125 282.651, 3276 282.011 C 3270.678 281.186, 3265.123 279.257, 3256.871 275.371 C 3247.460 270.939, 3242.598 269.355, 3231.371 267.062 C 3223.742 265.504, 3212.155 262.602, 3205.623 260.614 C 3195.191 257.440, 3192.455 256.999, 3183.123 256.990 C 3170.100 256.978, 3165.240 255.042, 3157.008 246.587 C 3149.601 238.980, 3146.618 238.221, 3135.386 241.086 C 3127.860 243.006, 3125.084 243.202, 3112.169 242.728 C 3095.532 242.116, 3090.961 241.010, 3077.820 234.410 C 3069.260 230.111, 3064.790 229.003, 3049.685 227.441 C 3045.363 226.994, 3041.126 225.429, 3033.185 221.345 C 3020.737 214.944, 3019.140 214.891, 3008.101 220.517 C 2999.196 225.055, 2993.700 225.134, 2980.882 220.904 C 2971.654 217.859, 2971.279 217.819, 2958 218.493 C 2947.995 219.001, 2941.134 218.756, 2931.500 217.549 C 2911.692 215.067, 2908.164 214.174, 2899.346 209.407 C 2889.968 204.338, 2886.384 203.943, 2877.500 207 C 2868.754 210.009, 2865.499 209.633, 2855.382 204.445 C 2847.057 200.177, 2846.092 199.914, 2840 200.265 C 2836.425 200.471, 2830.246 201.260, 2826.268 202.020 C 2819.657 203.282, 2817.813 203.214, 2804.768 201.220 C 2796.921 200.021, 2787.125 198.785, 2783 198.474 C 2778.875 198.163, 2770.668 196.971, 2764.763 195.825 C 2754.438 193.821, 2753.685 193.803, 2745.120 195.371 C 2726.598 198.759, 2711.173 197.184, 2697.161 190.473 C 2687.592 185.890, 2682.425 184.979, 2678.500 187.184 M 3458.500 1077.553 C 3454.100 1078.898, 3445.550 1081.407, 3439.500 1083.130 C 3421.520 1088.250, 3413.987 1093.096, 3408.587 1103.018 C 3404.725 1110.113, 3404.300 1116.924, 3406.808 1131.548 C 3407.935 1138.122, 3409.140 1147.100, 3409.484 1151.500 C 3411.353 1175.339, 3418.622 1196.386, 3428.345 1206.110 C 3432.330 1210.095, 3442.824 1215.989, 3453.253 1220.100 C 3456.108 1221.225, 3467.288 1224.363, 3478.099 1227.074 C 3502.231 1233.125, 3501.370 1232.816, 3524 1243.528 C 3547.463 1254.633, 3552.898 1257.860, 3566.833 1268.954 C 3578.116 1277.937, 3581.487 1279.854, 3600.479 1288.091 C 3615.460 1294.588, 3622.537 1299.932, 3645 1321.710 C 3656.275 1332.641, 3668.200 1343.658, 3671.500 1346.192 C 3674.800 1348.727, 3678.902 1352.308, 3680.614 1354.150 C 3685.153 1359.032, 3700.492 1382.042, 3704.460 1389.921 C 3710.558 1402.031, 3710.854 1402.252, 3735.952 1413.525 C 3742.416 1416.429, 3750.046 1418.950, 3755.952 1420.135 C 3761.203 1421.187, 3768.763 1422.962, 3772.751 1424.077 C 3784.681 1427.414, 3790.674 1428.067, 3798.443 1426.878 C 3813.119 1424.632, 3826.402 1417.612, 3840.783 1404.501 C 3847.879 1398.031, 3850 1394.622, 3850 1389.685 C 3850 1381.963, 3840.103 1375.607, 3815.500 1367.528 C 3796.560 1361.308, 3775.886 1351.603, 3761 1341.945 C 3755.775 1338.554, 3746.944 1333.628, 3741.377 1330.998 C 3732.954 1327.019, 3729.754 1324.795, 3722.329 1317.758 C 3717.421 1313.107, 3708.861 1306.352, 3703.307 1302.747 C 3697.339 1298.875, 3688.767 1291.933, 3682.354 1285.779 C 3670.987 1274.871, 3656.926 1263.835, 3642.728 1254.675 C 3638.098 1251.689, 3631.203 1246.428, 3627.405 1242.986 C 3623.607 1239.543, 3617.125 1234.461, 3613 1231.692 C 3601.441 1223.935, 3598.018 1220.856, 3584.787 1206.324 C 3571.496 1191.725, 3570.199 1189.815, 3566.906 1180 C 3565.707 1176.425, 3563.181 1169.737, 3561.293 1165.139 C 3559.406 1160.540, 3557.215 1153.399, 3556.425 1149.269 C 3555.634 1145.140, 3554.102 1139.758, 3553.018 1137.309 C 3550.390 1131.367, 3539.260 1119.952, 3530 1113.702 C 3525.875 1110.917, 3517.325 1103.640, 3511 1097.529 C 3487.948 1075.260, 3478.171 1071.540, 3458.500 1077.553" stroke="none" fill="black" fill-rule="evenodd"/>
</svg>