<?xml version="1.0" encoding="UTF-8"?>
<svg id="_图层_1" data-name="图层 1" xmlns="http://www.w3.org/2000/svg" viewBox="0 0 360 328">
  <defs>
    <style>
      .cls-1 {
        fill: #fff;
      }
    </style>
  </defs>
  <path class="cls-1" d="m360,328c-120,0-240,0-360,0C0,218.67,0,109.33,0,0c120,0,240,0,360,0,0,109.33,0,218.67,0,328Zm-189.9-22.6c.13-.82.3-1.41.3-2-.01-2.41-.53-4.7-1.71-6.83-.67-1.2-1.41-2.37-1.96-3.62-3.05-6.88-5.95-13.82-9.11-20.65-1.21-2.62-.9-5.15-.18-7.64.55-1.88,1.72-3.56,1.12-5.68-.12-.42.16-.97.34-1.44.34-.89.69-1.79,1.12-2.64.86-1.71.97-3.43.66-5.33-.29-1.77-.23-3.62-.18-5.42.06-1.78.25-3.56.49-5.33.08-.59.35-1.32.78-1.67,2.82-2.24,4.11-4.95,3.02-8.56-.15-.51-.02-1.11-.02-1.67.12-.02.23-.03.35-.05.74,1.62,1.6,3.14,3.07,4.07.14-2.02.29-3.94.4-5.86.11-1.88.18-3.75.27-5.63.11,0,.22,0,.33,0,.43,2.38.17,4.91,1.25,7.14,2.12-2.98,4.17-5.84,6.21-8.7.11.07.23.15.34.22-.26,1.55-.61,3.09-.75,4.65-.14,1.52-.12,3.07.79,4.52,1.52-7.05,7.17-9.09,13.11-11.28-.9,2.87-2.78,5.12-2.42,8.06,1.91-2.31,3.36-5,6.11-6.39l.27.2c-.59,1.08-1.18,2.16-1.76,3.24.12.11.23.22.35.32,3.07-2.04,5.63-4.97,9.44-5.76-1.59,1.61-3.5,2.92-4.73,5.27,2.09-1.3,3.87-2.41,5.65-3.51.1.12.2.23.3.35-.14.46-.32.92-.42,1.39-.25,1.25-.51,2.51-.68,3.77-.04.27.31.59.48.89.23-.2.52-.36.69-.6.22-.3.33-.67.51-1,1.2-2.17,3.04-3.66,5.13-5.08.28.72.51,1.29.89,2.25,1.88-3.34,4.51-5.21,7.69-6.41-.4.97-1.01,1.81-1.39,2.75-.37.89-.87,1.87-.11,2.98.71-.81,1.35-1.53,2.24-2.54.07,1.29.12,2.17.17,3.06.12.03.24.06.35.09,1.58-3.29,2.93-6.77,6.61-8.51-1.85,3.41-.34,6.25,1.32,9.08,1.66,2.83,3.37,5.65,4.95,8.53.48.87.79,1.93.85,2.92.15,2.3.3,4.58,1.37,6.67,1.21,2.37,1.84,4.89,2.01,7.54.21,3.19,1.74,5.61,4.45,7.25,1.23.75,2,1.79,2.26,3.14.5,2.49,1.77,4.41,3.7,6.03,2.45,2.05,3.3,4.79,2.61,7.87-1.17,5.23-2.27,10.5-3.78,15.64-1.72,5.85-3.9,11.57-5.82,17.37-.62,1.88-1.72,3.33-3.37,4.33-1.13.68-2.35,1.24-3.57,1.77-4.15,1.79-8.02,4.04-11.54,6.88-.38.3-.54.87-.8,1.32.52.19,1.03.53,1.55.53,5.79.04,11.58.03,17.37.05,1.94,0,3.48-.79,4.62-2.3.67-.89,1.12-1.96,1.82-2.83.98-1.22,2.04-2.39,3.19-3.45.8-.74,1.54-.51,2.06.53.67,1.33,1.06,1.32,1.94.08.14-.2.25-.43.38-.64,1.46-2.34,1.62-5,2.01-7.64.61-4.11,1.43-8.2,2.42-12.23,1.56-6.38,3.31-12.71,5.05-19.04.18-.65.7-1.43,1.28-1.71,2.81-1.38,4.4-3.72,5.58-6.47.65-1.51.85-1.59,2.46-1.04,3.7,1.26,7.1,3.1,10.11,5.58.71.58,1.32,1.56,1.52,2.45,1.13,5.16,2.35,10.31,3.1,15.53.8,5.51,1.17,11.08,1.61,16.64.19,2.49-1.04,4.4-3.09,5.78-.69.46-1.45.83-2.12,1.32-2.25,1.63-4.54,3.22-6.7,4.98-.8.65-1.28,1.71-1.85,2.62-.47.74-.1,1.2.67,1.3,1.11.14,2.24.3,3.35.27,4.29-.12,8.57-.39,12.86-.43,2.12-.02,3.36-1.03,4.11-2.82.35-.84.56-1.74.77-2.62.42-1.79.91-3.55,2.2-4.96,1.39-1.52,1.61-1.56,3.25-.31,1.02.78,1.54.68,1.67-.58.21-1.96.32-3.97.13-5.93-.15-1.54-.84-3.03-1.27-4.55-2.43-8.54-3.71-17.32-5.22-26.04-.5-2.87.11-5.36,2.46-7.29.6-.49,1.11-1.13,1.56-1.78.96-1.38,1.11-2.85.23-4.34-.3-.5-.62-.99-.97-1.45-.73-.95-.87-1.92-.31-3.02.66-1.3,1.28-2.62,1.86-3.95.67-1.53.96-3.1.32-4.72-.38-.94-.23-1.77.42-2.56.32-.39.55-.85,1-1.55-1.7.2-3.06.35-4.42.51l-.13-.43c.49-.56.98-1.12,1.7-1.95-.79-.05-1.25-.08-1.72-.1-.79-.05-1.6,0-2.35-.18-.45-.11-.81-.59-1.21-.9.34-.32.65-.7,1.04-.94.66-.4,1.38-.71,2.07-1.06-.05-.12-.1-.23-.15-.35-.15-.02-.3-.06-.45-.05-4.2.29-6.25-.95-7.94-4.74-1.14-2.56-1.9-5.18-2.14-8.02-.18-2.16-1.01-4.27-1.5-6.42-.14-.62-.23-1.35.82-1.64.53,1.65,1.05,3.27,1.57,4.89,1.45-2.59,1.42-5.36,1.71-8.14.57.86.9,1.82,1.42,2.65.5.81,1.2,1.49,1.81,2.23.11-.09.23-.18.34-.27-.08-.27-.12-.56-.25-.8-1.39-2.72-1.94-5.63-1.33-8.6.51-2.46,1.3-4.89,2.2-7.25.87-2.28,1.35-4.52.88-6.95-.12-.64-.17-1.36,0-1.98.53-2.06,1.18-4.08,1.83-6.28.74,1.22,1.46,2.42,2.19,3.63.14-.07.28-.14.41-.21.31-5.74.29-11.44-2.34-16.81-.66-1.35-1.39-2.7-1.37-4.38,1.26.26,1.95,1.78,3.56,1.21-.36-.5-.7-.83-.87-1.23-.68-1.59-1.51-3.15-1.9-4.81-.61-2.62-.82-5.33-1.36-7.96-.94-4.56-2.32-8.95-5.63-12.46-.26-.28-.39-.69-.67-1.22.9-.21,1.62-.37,2.33-.54.04-.11.07-.22.11-.34-.48-.32-.93-.73-1.45-.93-.93-.36-1.92-.54-2.86-.88-2.01-.75-2.23-1.19-2.1-3.36.03-.45-.23-1.27-.49-1.33-1.62-.38-2.42-1.68-3.48-2.72-.75-.73-1.42-1.4-.69-2.58h-4.65c.27-.75.48-1.35.73-2.06-.28.05-.43.07-.58.1-3.49.8-6.65.7-9.04-2.59-1.26-1.73-3.03-2.01-5.04-1.25-.43.16-.87.29-1.28.5-1.21.61-2.24.24-3.41-.31-1.62-.77-3.38-1.59-5.13-1.69-3.1-.18-6.24.11-9.35.31-.93.06-1.95.33-2.71.83-1.09.71-2.2.96-3.42.88-2.31-.15-4.57-.06-6.68,1.07-.04.02-.14-.06-.3-.13v-1.87c-1.86,2.19-3.79,1.59-5.87.99-1-.29-2.21.03-3.29.24-1.03.2-2.02.62-3.21,1,.05-.84.08-1.46.13-2.26-1.42.78-2.64,1.49-3.88,2.13-1.62.83-3.27,1.15-5.05.4-.41-.17-1-.12-1.44.02-.99.32-1.94.75-2.9,1.15-1.41.58-2.81,1.17-4.43,1.85v-3.11c-1.88,1.54-3.45,3.19-5.94,3.72.15-1,.25-1.74.41-2.84-.67.42-1.03.66-1.41.86-1.23.65-2.49,1.78-3.91,1.16-1.53-.67-2.97-.61-4.5-.39-1.48.21-3,.27-4.4.73-1.36.44-2.66.67-4.02.28-1.32-.38-2.63-.78-3.91-1.27-2.09-.8-4.21-1.26-6.47-.93-.62.09-1.47.05-1.92-.3-.96-.76-1.82-.4-2.81-.25-1.28.19-2.6.1-3.9.14-1.23.03-2.56-.22-3.66.18-1.62.59-3.08.74-4.73.24-.64-.19-1.48-.01-2.16.2-2.33.74-4.63,1.59-6.96,2.36-.29.1-.65,0-.98-.01-.87-.05-1.74-.07-2.6-.19-.93-.13-1.87-.28-2.75-.57-.78-.26-1.47-.77-2.24-1.09-1.07-.43-1.62-1.2-1.9-2.29-.15-.56-.44-1.21-.88-1.55-1.61-1.26-2.55-2.87-2.68-4.88-.15-2.4-.15-4.8-.23-7.2-.11-3.26-.22-6.53-.33-9.79,0-.12.01-.25.05-.37.96-3.33-.13-6.39-1.11-9.5-.23-.73-.04-1.59-.08-2.39-.02-.5.09-1.13-.17-1.46-1.18-1.48-1.2-1.73.12-3.07.42-.43.82-.88,1.23-1.33-.64-.14-1.02-.01-1.42.05-.83.14-1.43-.14-1.8-.97-.34-.75-.25-1.08.63-1.1.44,0,.88-.15,1.52-.27-1.22-1.19-3.3-1.28-3.1-3.35,1.07-.21,2.02-.39,3.34-.64-1.75-1.48-3.4-2.52-4.39-4.38.85-.08,1.49-.15,2.14-.21.06-.11.12-.23.18-.34-.81-.67-1.62-1.35-2.7-2.24,1.24-.14,2.08-.24,2.94-.33-1.06-1-2.08-1.79-2.87-2.76-.62-.76-.34-1.47.71-1.75.35-.09.65-.37.97-.56-1.79-.37-2.96-1.08-3.37-2.9,1.51.17,2.94.33,4.71.52-.38-.57-.47-.84-.65-.95-2.68-1.54-3.77-4.2-5.03-6.8-.64-1.32-.99-2.39.4-3.38.03-.02-.01-.15-.03-.35-.82-.2-1.68-.42-2.54-.63-.04-.12-.07-.24-.11-.36,1-.52,2-1.04,3.32-1.72-1.59-.64-2.82-1.13-4.27-1.71,1.43-.77,2.6-1.4,3.78-2.03-.05-.16-.1-.32-.15-.48-2.61-.57-5.47-.25-8.11-2.08,1.08-.3,1.87-.53,2.98-.84-.58-.4-.88-.75-1.26-.86-2.88-.84-4.17-2.94-4.77-5.7-.98-4.56-2.75-8.8-5.25-12.74-2.61-4.11-5.99-7.45-9.98-10.2-.42-.29-1.07-.34-1.6-.32-.15,0-.39.67-.39,1.03-.06,6.71.66,13.29,3.34,19.54.16.36.26.75.43,1.25-2.48.16-3.83-1.65-5.5-2.75-.25.32-.39.52-.55.71-1.18,1.47-1.85,1.55-3.05.07-.75-.92-1.32-2.01-1.84-3.08-2.62-5.34-6.22-9.83-11.26-13.07-1.41-.91-2.05-.65-1.97,1.02.19,3.77.32,7.59,1.03,11.28.71,3.69,1.66,7.46,4.99,10.2-.7.21-1.23.37-1.8.55.38,1.34-.33,1.82-1.53,2.14-1.98.53-3.86,1.32-5.31,2.87-.73.78-1.08,1.61-.76,2.72.59,2.07.46,2.1-1.42,3.13-3.42,1.88-6.87,3.75-10.16,5.84-2.52,1.6-4.84,3.52-7.19,5.37-1,.78-1.18,1.87-.57,3.03.23.44.4.93.7,1.32.56.73.47,1.43.12,2.21-.47,1.06-.94,2.14-1.26,3.25-.53,1.87.3,4.08,1.67,5.02,1.37.94,2.73,1.89,4.01,2.94,2.22,1.81,4.67,2.31,7.36,1.37,1.05-.37,2.1-.84,3.03-1.44,1.85-1.18,3.73-1.29,5.85-.85,2.64.55,5.33.84,8.02,1.13,1.88.2,2.26.65,1.63,2.48-.31.91-.72,1.78-1.12,2.74.66-.04,1.12-.06,1.75-.1-.48,1.06-.87,1.93-1.29,2.85.54.24.89.39,1.4.62-.65.61-1.19,1.11-1.73,1.61-.55.5-.61.91-.09,1.57.36.45.54,1.24.44,1.81-.2,1.13-.59,2.25-1.01,3.33-.46,1.19-1.05,2.33-1.6,3.51.2.07.32.13.44.14,1.73.16,1.73.16.82,1.7-.11.18-.21.36-.32.54-.46.74-.92,1.47-1.44,2.32h1.95c-.67,1.34-1.3,2.58-1.96,3.89.71.15,1.08.22,1.6.33-.4.33-.63.58-.92.74-.97.52-1.85,1.04-1.14,2.39.1.19-.06.58-.21.82-.99,1.63-2.01,3.24-3.03,4.85-.21.33-.45.63-.79,1.11.96-.09,1.67-.16,2.61-.26-.31.68-.49,1.13-.71,1.57-.82,1.64-1.3,3.35-1,5.18.31,1.84.1,3.51-1,5.11-.34.49-.42,1.55-.12,2.03,1.25,2,1.4,4.05,1.11,6.34-.24,1.93.04,3.93.09,5.92h1.49c0,1.83-.06,3.62.03,5.4.04.78.35,1.54.63,2.7-1.32,4.21-.85,8.75.95,13.24.41-2.03.81-4.05,1.22-6.08.16.03.32.06.48.09-.24,1.51-.49,3.02-.73,4.53.13.05.26.1.38.15.31-.5.63-1,.94-1.5.11-.01.22-.02.32-.03-.1,4.35.8,8.48,2.57,12.5.51-1.66,1.01-3.32,1.52-4.98.18.05.35.1.53.15-.69,3.61-1.39,7.21-2.12,11.05,1.59-.66,1.84.1,1.86,1.34.02,1.03.29,2.06.49,3.08.05.28.25.53.38.79.12,0,.24.02.36.02.7-1.6,1.41-3.21,2.11-4.81.08,4.14-.95,8.33.48,12.38l.45.07c.49-1.53.97-3.05,1.46-4.58.15.03.3.06.44.09-.26,4.14-.48,8.27,1.28,12.51.57-1.6,1.06-2.96,1.54-4.31.12.04.24.08.36.12.32,1.98-.28,4.07.81,5.99.36-1.96.73-3.92,1.09-5.88.13-.02.26-.03.39-.05.17.55.38,1.1.5,1.66.77,3.57,1.51,7.16,2.3,10.72.14.63.52,1.2.78,1.8.15-.04.3-.07.46-.11.14-3.36-.62-6.79.74-10.08.27,2.21.54,4.42.82,6.69h.94c1.22,5.99,2.42,11.85,3.61,17.71.21-.01.42-.02.63-.04.12-1.84.24-3.68.35-5.52.13,0,.25-.01.38-.02.09.37.19.75.26,1.12.58,2.85,1.13,5.71,1.74,8.55.11.51.46.97.71,1.46.13-.02.25-.04.38-.06.05-1.83-.42-3.8,1.31-5.27-.47,4.86-.28,9.5,3.89,13.23-.12-1.52-.23-2.83-.34-4.13l.38-.13c2.61,1.96,2.95,5.64,5.54,7.67.04-.53-.05-1-.14-1.46-.32-1.51-.41-2.98.65-4.28.6-.74,1.26-1.26,2.35-1.03,1.16.25,1.25,1.12,1.51,2.01.62,2.19,1.23,4.39,2.04,6.51.49,1.29.69,2.46.08,3.72-.72,1.5-1.55,2.96-2.14,4.51-1.3,3.46-1.21,6.81,1.5,9.64.98,1.02,1.51,2.07,1.28,3.45-.37,2.21.55,3.78,2.35,4.96,1.11.72,1.67,1.77,1.97,3.05.15.65.47,1.47.97,1.79,1.5.97,1.86,2.41,1.92,3.97.33,8.45.66,16.91-.5,25.33-.25,1.84-.19,3.87-1.59,5.29-1.06,1.07-2.34,1.99-3.66,2.72-3.33,1.85-6.52,3.87-9.22,6.57-.51.51-.7,1.34-1.04,2.02.69.18,1.39.52,2.08.53,4.67.04,9.33,0,14,.01,4.54.02,5.8-1,6.71-5.46.41-2.03,1.14-3.92,2.81-5.29,1.31-1.08,1.45-1.08,2.64.16.85.88,1.55.79,1.74-.39.29-1.79.59-3.65.41-5.43-.54-5.34-1.37-10.64-1.95-15.98-.36-3.26-.5-6.55-.7-9.82-.06-.99.45-1.72,1.41-1.96,1.01-.25,1.1.68,1.37,1.29.84,1.9,1.63,3.83,2.48,5.72,3.11,6.97,5.74,14.08,7.2,21.61.48,2.49.38,4.62-1.81,6.26-.67.5-1.43.94-1.92,1.58-1.73,2.27-4.11,3.47-6.64,4.58-1.34.59-2.46,1.69-3.68,2.57.06.16.12.32.18.49.41.1.81.29,1.22.3,1.71.05,3.42.09,5.12.06,3.91-.07,7.83-.23,11.74-.28,2.09-.02,3.43-1,3.99-2.93.41-1.43.7-2.91.83-4.39.18-1.99.94-3.68,2.04-5.28.61-.88,1.27-1.13,2.16-.34.35.31.81.51,1.46.91Z"/>
  <path d="m170.1,305.4c-.65-.4-1.11-.59-1.46-.91-.89-.79-1.55-.54-2.16.34-1.11,1.6-1.87,3.3-2.04,5.28-.13,1.48-.42,2.96-.83,4.39-.56,1.93-1.9,2.91-3.99,2.93-3.91.05-7.83.2-11.74.28-1.71.03-3.42,0-5.12-.06-.41-.01-.81-.19-1.22-.3-.06-.16-.12-.32-.18-.49,1.22-.87,2.33-1.98,3.68-2.57,2.54-1.11,4.92-2.31,6.64-4.58.49-.64,1.26-1.08,1.92-1.58,2.19-1.64,2.29-3.78,1.81-6.26-1.47-7.52-4.09-14.64-7.2-21.61-.85-1.9-1.63-3.82-2.48-5.72-.27-.6-.36-1.54-1.37-1.29-.96.24-1.47.97-1.41,1.96.2,3.28.34,6.56.7,9.82.59,5.33,1.42,10.64,1.95,15.98.18,1.78-.12,3.64-.41,5.43-.19,1.18-.89,1.26-1.74.39-1.2-1.24-1.33-1.24-2.64-.16-1.67,1.38-2.4,3.26-2.81,5.29-.9,4.46-2.17,5.48-6.71,5.46-4.67-.02-9.33.03-14-.01-.7,0-1.39-.34-2.08-.53.34-.68.53-1.51,1.04-2.02,2.7-2.7,5.89-4.72,9.22-6.57,1.32-.73,2.6-1.65,3.66-2.72,1.4-1.42,1.34-3.45,1.59-5.29,1.16-8.42.83-16.87.5-25.33-.06-1.57-.42-3-1.92-3.97-.51-.33-.82-1.14-.97-1.79-.3-1.28-.86-2.33-1.97-3.05-1.8-1.17-2.72-2.74-2.35-4.96.23-1.38-.3-2.43-1.28-3.45-2.71-2.83-2.8-6.17-1.5-9.64.58-1.55,1.41-3.01,2.14-4.51.6-1.26.41-2.43-.08-3.72-.8-2.12-1.41-4.32-2.04-6.51-.25-.89-.35-1.76-1.51-2.01-1.09-.23-1.75.3-2.35,1.03-1.06,1.29-.97,2.77-.65,4.28.1.47.19.93.14,1.46-2.59-2.02-2.93-5.7-5.54-7.67l-.38.13c.11,1.3.21,2.61.34,4.13-4.17-3.73-4.36-8.37-3.89-13.23-1.72,1.48-1.25,3.44-1.31,5.27-.13.02-.25.04-.38.06-.24-.48-.6-.94-.71-1.46-.61-2.84-1.16-5.7-1.74-8.55-.08-.38-.18-.75-.26-1.12-.13,0-.25.01-.38.02-.12,1.84-.24,3.68-.35,5.52-.21.01-.42.02-.63.04-1.2-5.86-2.39-11.73-3.61-17.71h-.94c-.28-2.28-.55-4.48-.82-6.69-1.36,3.29-.6,6.72-.74,10.08-.15.04-.3.07-.46.11-.27-.6-.64-1.17-.78-1.8-.8-3.57-1.53-7.15-2.3-10.72-.12-.56-.33-1.11-.5-1.66-.13.02-.26.03-.39.05-.36,1.96-.73,3.92-1.09,5.88-1.09-1.92-.49-4.02-.81-5.99-.12-.04-.24-.08-.36-.12-.49,1.36-.97,2.71-1.54,4.31-1.77-4.24-1.54-8.37-1.28-12.51-.15-.03-.3-.06-.44-.09-.49,1.53-.97,3.05-1.46,4.58l-.45-.07c-1.43-4.05-.41-8.24-.48-12.38-.7,1.6-1.41,3.21-2.11,4.81-.12,0-.24-.02-.36-.02-.13-.26-.32-.52-.38-.79-.2-1.02-.47-2.05-.49-3.08-.02-1.25-.26-2.01-1.86-1.34.74-3.83,1.43-7.44,2.12-11.05-.18-.05-.35-.1-.53-.15-.51,1.66-1.01,3.32-1.52,4.98-1.78-4.02-2.67-8.15-2.57-12.5-.11.01-.22.02-.32.03-.31.5-.63,1-.94,1.5-.13-.05-.26-.1-.38-.15.24-1.51.49-3.02.73-4.53-.16-.03-.32-.06-.48-.09-.41,2.03-.81,4.05-1.22,6.08-1.81-4.49-2.27-9.03-.95-13.24-.28-1.16-.6-1.92-.63-2.7-.08-1.78-.03-3.57-.03-5.4h-1.49c-.05-1.98-.33-3.98-.09-5.92.28-2.29.14-4.34-1.11-6.34-.3-.48-.22-1.54.12-2.03,1.1-1.6,1.31-3.26,1-5.11-.31-1.83.18-3.55,1-5.18.22-.44.4-.89.71-1.57-.94.09-1.65.16-2.61.26.34-.48.58-.78.79-1.11,1.02-1.61,2.03-3.22,3.03-4.85.14-.24.31-.63.21-.82-.71-1.35.17-1.87,1.14-2.39.28-.15.52-.41.92-.74-.51-.11-.88-.18-1.6-.33.66-1.31,1.29-2.56,1.96-3.89h-1.95c.53-.85.99-1.58,1.44-2.32.11-.18.21-.36.32-.54.91-1.54.91-1.55-.82-1.7-.12-.01-.23-.07-.44-.14.54-1.18,1.13-2.32,1.6-3.51.42-1.08.81-2.19,1.01-3.33.1-.57-.08-1.36-.44-1.81-.52-.66-.46-1.07.09-1.57.54-.49,1.08-1,1.73-1.61-.51-.23-.86-.38-1.4-.62.41-.91.81-1.79,1.29-2.85-.63.03-1.09.06-1.75.1.4-.96.8-1.84,1.12-2.74.63-1.83.26-2.28-1.63-2.48-2.68-.29-5.38-.58-8.02-1.13-2.12-.44-4-.34-5.85.85-.94.6-1.98,1.07-3.03,1.44-2.69.93-5.14.44-7.36-1.37-1.28-1.05-2.65-2-4.01-2.94-1.37-.94-2.2-3.15-1.67-5.02.31-1.11.79-2.19,1.26-3.25.35-.79.44-1.48-.12-2.21-.3-.39-.47-.88-.7-1.32-.61-1.16-.43-2.24.57-3.03,2.36-1.85,4.68-3.77,7.19-5.37,3.29-2.1,6.73-3.96,10.16-5.84,1.88-1.03,2-1.06,1.42-3.13-.32-1.11.04-1.94.76-2.72,1.45-1.55,3.34-2.34,5.31-2.87,1.21-.32,1.91-.8,1.53-2.14.58-.18,1.1-.33,1.8-.55-3.34-2.74-4.28-6.51-4.99-10.2-.71-3.69-.83-7.51-1.03-11.28-.09-1.67.55-1.93,1.97-1.02,5.04,3.24,8.64,7.73,11.26,13.07.53,1.07,1.09,2.16,1.84,3.08,1.21,1.48,1.87,1.4,3.05-.07.16-.19.3-.39.55-.71,1.68,1.1,3.02,2.91,5.5,2.75-.17-.5-.27-.89-.43-1.25-2.68-6.25-3.41-12.83-3.34-19.54,0-.36.24-1.02.39-1.03.53-.02,1.18.03,1.6.32,3.99,2.74,7.37,6.09,9.98,10.2,2.5,3.94,4.27,8.18,5.25,12.74.59,2.76,1.89,4.86,4.77,5.7.38.11.68.46,1.26.86-1.11.31-1.9.54-2.98.84,2.64,1.83,5.5,1.51,8.11,2.08.05.16.1.32.15.48-1.18.63-2.35,1.26-3.78,2.03,1.45.58,2.68,1.07,4.27,1.71-1.32.69-2.32,1.2-3.32,1.72.04.12.07.24.11.36.86.21,1.72.43,2.54.63.02.2.07.32.03.35-1.39.99-1.04,2.06-.4,3.38,1.26,2.6,2.35,5.26,5.03,6.8.18.11.27.38.65.95-1.76-.19-3.2-.35-4.71-.52.41,1.82,1.58,2.53,3.37,2.9-.32.19-.62.47-.97.56-1.05.29-1.33.99-.71,1.75.79.97,1.81,1.76,2.87,2.76-.86.1-1.7.19-2.94.33,1.07.89,1.89,1.57,2.7,2.24-.06.11-.12.23-.18.34-.64.06-1.29.13-2.14.21.98,1.85,2.63,2.9,4.39,4.38-1.32.25-2.27.43-3.34.64-.2,2.07,1.89,2.17,3.1,3.35-.64.12-1.08.26-1.52.27-.88.02-.97.35-.63,1.1.37.83.97,1.1,1.8.97.4-.06.79-.19,1.42-.05-.41.44-.8.9-1.23,1.33-1.32,1.34-1.3,1.59-.12,3.07.26.33.15.96.17,1.46.03.8-.15,1.66.08,2.39.98,3.11,2.07,6.18,1.11,9.5-.03.12-.05.25-.05.37.11,3.26.23,6.53.33,9.79.08,2.4.07,4.81.23,7.2.13,2.01,1.07,3.62,2.68,4.88.44.34.73.99.88,1.55.28,1.09.84,1.86,1.9,2.29.77.31,1.46.83,2.24,1.09.89.29,1.83.44,2.75.57.86.12,1.73.13,2.6.19.33.02.69.11.98.01,2.32-.77,4.62-1.62,6.96-2.36.68-.22,1.51-.4,2.16-.2,1.64.49,3.11.34,4.73-.24,1.1-.4,2.43-.15,3.66-.18,1.3-.04,2.62.05,3.9-.14.99-.15,1.85-.51,2.81.25.45.35,1.29.39,1.92.3,2.26-.33,4.38.12,6.47.93,1.28.49,2.59.89,3.91,1.27,1.36.39,2.66.17,4.02-.28,1.4-.46,2.93-.52,4.4-.73,1.52-.22,2.97-.28,4.5.39,1.41.62,2.67-.51,3.91-1.16.38-.2.73-.45,1.41-.86-.16,1.1-.27,1.84-.41,2.84,2.48-.52,4.06-2.18,5.94-3.72v3.11c1.62-.67,3.02-1.26,4.43-1.85.96-.4,1.91-.83,2.9-1.15.44-.14,1.03-.2,1.44-.02,1.77.76,3.43.43,5.05-.4,1.25-.64,2.46-1.35,3.88-2.13-.05.8-.08,1.41-.13,2.26,1.18-.38,2.17-.8,3.21-1,1.08-.21,2.29-.53,3.29-.24,2.08.59,4.01,1.2,5.87-.99v1.87c.16.07.26.15.3.13,2.1-1.14,4.36-1.22,6.68-1.07,1.22.08,2.34-.17,3.42-.88.77-.5,1.78-.77,2.71-.83,3.11-.21,6.25-.5,9.35-.31,1.74.1,3.5.93,5.13,1.69,1.17.55,2.19.92,3.41.31.41-.2.85-.33,1.28-.5,2.01-.76,3.79-.49,5.04,1.25,2.39,3.29,5.55,3.39,9.04,2.59.15-.03.3-.05.58-.1-.25.71-.47,1.31-.73,2.06h4.65c-.72,1.18-.05,1.85.69,2.58,1.06,1.04,1.86,2.34,3.48,2.72.26.06.52.88.49,1.33-.13,2.17.09,2.61,2.1,3.36.93.35,1.93.53,2.86.88.53.2.97.61,1.45.93-.04.11-.07.22-.11.34-.72.16-1.43.33-2.33.54.29.53.41.95.67,1.22,3.31,3.51,4.69,7.9,5.63,12.46.54,2.64.75,5.35,1.36,7.96.39,1.66,1.22,3.22,1.9,4.81.17.4.5.72.87,1.23-1.61.57-2.3-.95-3.56-1.21-.02,1.67.7,3.02,1.37,4.38,2.62,5.36,2.64,11.06,2.34,16.81-.14.07-.28.14-.41.21-.73-1.2-1.45-2.41-2.19-3.63-.65,2.19-1.29,4.22-1.83,6.28-.16.62-.12,1.34,0,1.98.47,2.42-.01,4.67-.88,6.95-.9,2.36-1.69,4.78-2.2,7.25-.61,2.97-.06,5.88,1.33,8.6.13.25.17.53.25.8-.11.09-.23.18-.34.27-.61-.74-1.31-1.42-1.81-2.23-.52-.84-.85-1.79-1.42-2.65-.28,2.78-.26,5.55-1.71,8.14-.52-1.62-1.04-3.24-1.57-4.89-1.06.29-.97,1.01-.82,1.64.49,2.14,1.32,4.25,1.5,6.42.24,2.84.99,5.46,2.14,8.02,1.69,3.8,3.74,5.03,7.94,4.74.15-.01.3.03.45.05.05.12.1.23.15.35-.69.35-1.41.66-2.07,1.06-.39.24-.69.62-1.04.94.4.31.76.79,1.21.9.75.18,1.56.13,2.35.18.46.03.93.06,1.72.1-.72.82-1.21,1.38-1.7,1.95l.13.43c1.36-.16,2.72-.32,4.42-.51-.45.71-.68,1.17-1,1.55-.65.78-.8,1.61-.42,2.56.64,1.62.36,3.2-.32,4.72-.59,1.33-1.21,2.65-1.86,3.95-.56,1.1-.42,2.07.31,3.02.35.46.67.95.97,1.45.88,1.49.73,2.96-.23,4.34-.45.64-.96,1.28-1.56,1.78-2.35,1.93-2.96,4.42-2.46,7.29,1.51,8.73,2.79,17.5,5.22,26.04.43,1.52,1.12,3.01,1.27,4.55.19,1.96.08,3.97-.13,5.93-.13,1.26-.66,1.36-1.67.58-1.63-1.25-1.85-1.21-3.25.31-1.29,1.41-1.77,3.17-2.2,4.96-.21.89-.42,1.79-.77,2.62-.75,1.79-1.99,2.8-4.11,2.82-4.29.04-8.57.31-12.86.43-1.11.03-2.24-.13-3.35-.27-.77-.1-1.14-.56-.67-1.3.57-.91,1.05-1.96,1.85-2.62,2.15-1.76,4.44-3.35,6.7-4.98.67-.49,1.43-.86,2.12-1.32,2.05-1.38,3.28-3.29,3.09-5.78-.44-5.56-.81-11.13-1.61-16.64-.76-5.22-1.97-10.37-3.1-15.53-.2-.9-.81-1.87-1.52-2.45-3.01-2.48-6.41-4.32-10.11-5.58-1.6-.55-1.8-.47-2.46,1.04-1.19,2.74-2.78,5.09-5.58,6.47-.58.28-1.1,1.06-1.28,1.71-1.74,6.33-3.49,12.66-5.05,19.04-.99,4.03-1.81,8.12-2.42,12.23-.39,2.65-.55,5.3-2.01,7.64-.13.21-.24.44-.38.64-.87,1.24-1.26,1.25-1.94-.08-.53-1.04-1.27-1.26-2.06-.53-1.15,1.06-2.21,2.23-3.19,3.45-.7.87-1.15,1.93-1.82,2.83-1.14,1.51-2.68,2.31-4.62,2.3-5.79-.02-11.58,0-17.37-.05-.52,0-1.03-.35-1.55-.53.26-.45.43-1.01.8-1.32,3.52-2.84,7.39-5.09,11.54-6.88,1.22-.53,2.44-1.08,3.57-1.77,1.65-1,2.75-2.45,3.37-4.33,1.92-5.8,4.1-11.52,5.82-17.37,1.51-5.14,2.61-10.4,3.78-15.64.69-3.08-.16-5.82-2.61-7.87-1.93-1.62-3.21-3.55-3.7-6.03-.27-1.35-1.03-2.39-2.26-3.14-2.71-1.64-4.24-4.06-4.45-7.25-.17-2.65-.8-5.16-2.01-7.54-1.07-2.09-1.22-4.37-1.37-6.67-.07-.99-.37-2.05-.85-2.92-1.58-2.88-3.29-5.69-4.95-8.53-1.66-2.82-3.17-5.67-1.32-9.08-3.68,1.74-5.03,5.22-6.61,8.51-.12-.03-.24-.06-.35-.09-.05-.89-.1-1.77-.17-3.06-.89,1.01-1.53,1.73-2.24,2.54-.75-1.11-.26-2.09.11-2.98.39-.93.99-1.78,1.39-2.75-3.18,1.2-5.82,3.07-7.69,6.41-.38-.97-.6-1.53-.89-2.25-2.09,1.41-3.93,2.91-5.13,5.08-.18.33-.3.7-.51,1-.17.24-.46.4-.69.6-.17-.3-.52-.62-.48-.89.17-1.27.42-2.52.68-3.77.1-.47.28-.93.42-1.39-.1-.12-.2-.23-.3-.35-1.78,1.11-3.56,2.21-5.65,3.51,1.23-2.36,3.14-3.66,4.73-5.27-3.81.79-6.37,3.73-9.44,5.76-.12-.11-.23-.22-.35-.32.59-1.08,1.18-2.16,1.76-3.24l-.27-.2c-2.75,1.39-4.2,4.08-6.11,6.39-.36-2.93,1.52-5.19,2.42-8.06-5.94,2.18-11.59,4.23-13.11,11.28-.91-1.45-.93-3-.79-4.52.14-1.56.49-3.1.75-4.65-.11-.07-.23-.15-.34-.22-2.04,2.86-4.09,5.72-6.21,8.7-1.08-2.23-.82-4.76-1.25-7.14-.11,0-.22,0-.33,0-.09,1.88-.16,3.75-.27,5.63-.11,1.92-.26,3.85-.4,5.86-1.47-.92-2.33-2.44-3.07-4.07-.12.02-.23.03-.35.05,0,.56-.13,1.16.02,1.67,1.09,3.61-.2,6.32-3.02,8.56-.44.35-.7,1.08-.78,1.67-.24,1.77-.44,3.55-.49,5.33-.06,1.81-.12,3.65.18,5.42.31,1.9.2,3.62-.66,5.33-.43.85-.78,1.75-1.12,2.64-.18.46-.46,1.02-.34,1.44.59,2.12-.58,3.8-1.12,5.68-.72,2.49-1.03,5.02.18,7.64,3.15,6.83,6.06,13.77,9.11,20.65.55,1.25,1.3,2.42,1.96,3.62,1.18,2.12,1.69,4.42,1.71,6.83,0,.59-.17,1.18-.3,2Z"/>
</svg>