<svg xmlns="http://www.w3.org/2000/svg" width="530" height="666" viewBox="0 0 530 666" version="1.1">
	<path d="M 411 12.272 C 411 12.557, 411.875 15.649, 412.945 19.145 C 419.424 40.320, 417.960 51.545, 406.187 70.992 C 395.891 87.997, 384.080 104.359, 372.975 117 C 367.419 123.325, 358.559 135.025, 353.286 143 C 325.185 185.502, 324.629 186.284, 323.872 184.361 C 323.470 183.337, 323.109 181.289, 323.070 179.809 C 323.032 178.329, 322.561 176.847, 322.025 176.516 C 321.474 176.175, 321.314 173.985, 321.657 171.483 C 322.087 168.347, 321.818 166.371, 320.735 164.718 C 319.641 163.048, 319.487 161.882, 320.194 160.618 C 320.882 159.388, 320.722 157.433, 319.668 154.176 C 318.835 151.604, 318.387 148.312, 318.672 146.860 C 318.976 145.313, 318.324 142.260, 317.096 139.483 C 315.943 136.878, 315 132.748, 315 130.307 C 315 125.903, 313.715 122.261, 311.600 120.674 C 310.813 120.083, 310.843 119.708, 311.708 119.354 C 313.485 118.629, 308.998 106.908, 305.669 103.578 C 303.055 100.964, 302.137 99.349, 303.877 100.424 C 304.738 100.956, 302.849 94.652, 301.123 91.237 C 299.405 87.836, 298 82.307, 297.996 78.929 C 297.992 75.277, 295.081 69.675, 291.631 66.681 C 290.210 65.448, 289.634 63.931, 289.840 61.966 C 290.045 60.003, 289.137 57.606, 287.024 54.534 C 284.013 50.159, 281.146 48.331, 282.394 51.584 C 282.771 52.566, 282.544 53.015, 281.797 52.766 C 280.498 52.333, 278.538 46.128, 279.422 45.245 C 279.716 44.951, 280.388 45.787, 280.915 47.105 L 281.873 49.500 281.937 47.210 C 281.976 45.804, 280.457 43.408, 278 41 C 275.335 38.388, 274 36.199, 274 34.441 C 274 31.424, 268.843 26, 265.974 26 C 264.774 26, 263.938 24.992, 263.506 23.027 C 262.668 19.212, 257.677 15, 253.996 15 C 250.090 15, 246.641 19.398, 247.310 23.525 C 248.017 27.877, 245.797 30.462, 241.596 30.180 C 239.179 30.017, 237.323 30.699, 235.106 32.565 C 231.887 35.273, 231.271 37.769, 233.017 41.031 C 233.861 42.609, 233.555 43.179, 231.211 44.391 C 227.806 46.152, 226 49.784, 226 54.873 C 226 57.600, 225.311 59.298, 223.525 60.976 C 222.164 62.255, 220.267 65.371, 219.309 67.901 C 218.351 70.430, 216.550 73.312, 215.307 74.304 C 212.167 76.811, 210.396 83.003, 211.976 85.954 C 213.015 87.896, 212.842 88.566, 210.712 90.852 C 207.260 94.557, 205.786 97.749, 206.495 99.983 C 206.873 101.176, 206.099 103.404, 204.430 105.927 C 202.589 108.708, 201.918 110.790, 202.269 112.627 C 202.549 114.094, 202.105 117.271, 201.281 119.689 C 200.457 122.107, 200.002 125.228, 200.269 126.625 C 200.565 128.175, 199.828 130.907, 198.377 133.635 C 197.070 136.094, 195.979 138.870, 195.953 139.803 C 195.928 140.736, 194.786 139.347, 193.416 136.715 C 192.046 134.083, 191.237 131.426, 191.617 130.810 C 192.010 130.174, 191.861 129.968, 191.271 130.333 C 190.699 130.686, 189.643 129.518, 188.923 127.737 C 188.203 125.957, 187.337 124.275, 187 124 C 186.663 123.725, 185.795 122.038, 185.072 120.250 C 184.349 118.463, 183.024 116.964, 182.129 116.921 C 181.081 116.870, 180.949 116.661, 181.757 116.335 C 182.684 115.962, 182.487 115.088, 181.006 113.008 C 179.524 110.927, 178.435 110.335, 176.851 110.749 C 174.937 111.250, 174.780 111.014, 175.393 108.571 C 175.881 106.626, 175.746 106.039, 174.928 106.544 C 173.296 107.553, 171.985 104.974, 172.622 102.008 C 173.002 100.245, 172.879 99.901, 172.209 100.851 C 171.491 101.870, 171.125 101.502, 170.722 99.351 C 170.428 97.783, 169.849 95.417, 169.436 94.094 C 168.934 92.485, 169.038 91.905, 169.749 92.345 C 170.436 92.769, 170.607 92.213, 170.231 90.777 C 169.906 89.534, 169.462 89.113, 169.225 89.825 C 168.992 90.525, 167.926 89.467, 166.857 87.472 C 165.690 85.295, 165.174 83.028, 165.564 81.798 C 165.983 80.478, 165.837 79.982, 165.155 80.404 C 164.516 80.799, 163.480 78.988, 162.548 75.848 C 160.728 69.721, 160.670 69, 162 69 C 162.550 69, 163 69.648, 163 70.441 C 163 71.234, 163.405 72.132, 163.901 72.439 C 164.396 72.745, 163.926 69.059, 162.857 64.248 C 161.788 59.436, 160.865 54.278, 160.806 52.784 C 160.636 48.514, 159.244 50.489, 157.999 56.767 C 157.374 59.920, 156.343 64.300, 155.707 66.500 C 154.983 69.006, 154.637 77.034, 154.782 88 L 155.014 105.500 152.257 102.448 C 148.931 98.766, 141.863 90.375, 141.070 89.167 C 140.756 88.690, 139.475 87.759, 138.222 87.100 C 136.969 86.440, 136.208 85.472, 136.531 84.950 C 136.854 84.427, 136.641 84, 136.059 84 C 134.446 84, 134.782 80.607, 137.127 73.209 C 140.560 62.376, 146.877 51.066, 153.208 44.415 C 156.394 41.068, 158.993 37.918, 158.985 37.415 C 158.976 36.912, 158.639 36.950, 158.235 37.500 C 157.831 38.050, 154.801 39.850, 151.502 41.500 C 143.388 45.559, 139.608 49.088, 135.490 56.452 C 130.864 64.724, 128.363 75.450, 126.970 93 C 126.337 100.975, 124.710 116.500, 123.355 127.500 C 122 138.500, 120.628 149.862, 120.306 152.750 C 119.984 155.637, 119.345 158, 118.886 158 C 118.428 158, 112.493 154.670, 105.698 150.599 C 76.575 133.153, 59.273 127.056, 47.143 129.966 C 41.216 131.388, 36.405 135.361, 35.482 139.598 C 35.134 141.194, 33.983 144.136, 32.925 146.136 C 31.866 148.136, 31 150.590, 31 151.589 C 31 153.020, 31.796 152.632, 34.750 149.762 C 39.040 145.594, 42.613 144, 47.664 144 C 58.206 144, 70.608 156.745, 74.477 171.555 C 75.331 174.825, 76.697 187.850, 77.513 200.500 C 79.293 228.105, 80.342 233.193, 92.650 273.919 C 96.211 285.700, 99.719 296.500, 100.446 297.919 C 102.909 302.724, 121.844 350.390, 128.485 368.500 C 132.115 378.400, 135.783 388.300, 136.636 390.500 C 139.252 397.247, 148 421.802, 148 422.399 C 148 422.708, 151.619 432.252, 156.042 443.608 C 160.465 454.964, 165.663 470.160, 167.593 477.377 C 169.523 484.595, 172.930 496.125, 175.165 503 C 182.499 525.564, 183.844 527.212, 214.332 551 C 221.621 556.687, 222.276 558.482, 223.086 574.969 C 223.849 590.488, 225.406 597.110, 229.603 602.683 C 231.427 605.106, 232.003 607.137, 232.012 611.183 C 232.036 622.095, 234.793 643.113, 236.438 644.932 C 238.258 646.943, 243.249 648.551, 250.500 649.463 C 256.592 650.229, 269.994 648.435, 271.819 646.610 C 274.343 644.085, 277.767 625.802, 278.673 610.013 C 279.101 602.549, 279.799 598.058, 280.666 597.191 C 282.508 595.349, 282.335 592.028, 280.278 589.755 C 279.331 588.708, 278.993 587.939, 279.528 588.044 C 282.275 588.588, 282.774 587.551, 283.284 580.250 C 284.272 566.090, 286.079 563.198, 299.183 554.789 C 313.444 545.637, 334.168 526.510, 341.211 516 C 352.511 499.135, 365.695 467.425, 375.926 432.500 C 378.021 425.350, 382.690 409.824, 386.302 397.998 C 389.914 386.173, 393.854 372.910, 395.056 368.527 C 396.259 364.143, 400.563 353.652, 404.622 345.215 C 408.680 336.777, 412 329.703, 412 329.496 C 412 329.289, 414.238 324.410, 416.972 318.655 C 419.707 312.900, 423.338 304.661, 425.041 300.346 C 426.745 296.031, 429.855 289.350, 431.954 285.500 C 434.053 281.650, 436.998 275.575, 438.497 272 C 448.942 247.105, 460.417 228.607, 476.845 210.180 C 483.852 202.319, 486.453 200.577, 494.974 198.032 C 500.314 196.436, 500.563 196.452, 505.178 198.679 C 509.840 200.928, 511.525 202.909, 513.052 207.942 C 513.760 210.277, 513.836 210.308, 513.914 208.297 C 513.961 207.085, 513.506 205.060, 512.902 203.797 C 511.792 201.474, 501.218 192.175, 497.460 190.218 C 496.339 189.633, 494.800 187.995, 494.041 186.577 C 493.283 185.160, 492.132 184, 491.485 184 C 490.837 184, 488.776 183.213, 486.904 182.250 C 483.985 180.749, 480.581 180.502, 463 180.516 C 440.366 180.533, 437.319 180.985, 418.598 187.108 C 412.052 189.248, 406.328 191, 405.877 191 C 404.698 191, 405.807 184.112, 409.018 171.500 C 412.436 158.076, 413.703 149.447, 412.111 150.431 C 411.492 150.814, 411 150.478, 411 149.670 C 411 148.874, 411.788 148.285, 412.750 148.361 C 413.922 148.454, 415.490 146.632, 417.500 142.841 C 419.150 139.729, 421.106 136.189, 421.847 134.975 C 422.588 133.762, 422.813 132.935, 422.347 133.139 C 421.881 133.343, 419.813 134.161, 417.750 134.956 C 415.688 135.751, 414 137.013, 414 137.760 C 414 138.507, 413.550 138.840, 413 138.500 C 411.585 137.626, 411.754 134.949, 413.205 135.250 C 413.867 135.388, 414.486 134.938, 414.580 134.250 C 414.673 133.563, 414.882 132.662, 415.044 132.250 C 415.205 131.838, 415.436 128.575, 415.557 125 C 415.939 113.681, 418.892 88.488, 422.101 69.168 C 426.286 43.971, 425.830 39.078, 417.672 21.666 C 414.891 15.731, 411 10.253, 411 12.272 M 265.250 28.250 C 265.478 28.938, 266.414 29.645, 267.329 29.823 C 268.489 30.048, 268.810 29.669, 268.390 28.573 C 267.680 26.724, 264.637 26.411, 265.250 28.250 M 244.500 32 C 244.160 32.550, 244.584 33, 245.441 33 C 246.298 33, 247 32.550, 247 32 C 247 31.450, 246.577 31, 246.059 31 C 245.541 31, 244.840 31.450, 244.500 32 M 270 31.809 C 270 32.254, 270.661 33.491, 271.468 34.559 C 272.967 36.541, 273.486 35.431, 272.393 32.582 C 271.766 30.948, 270 30.377, 270 31.809 M 249.046 36.086 C 249.660 37.233, 250.361 37.972, 250.605 37.729 C 251.304 37.029, 249.886 34, 248.858 34 C 248.347 34, 248.432 34.938, 249.046 36.086 M 258.204 41.955 C 259.583 44.164, 260.555 43.889, 259.655 41.543 C 259.329 40.694, 258.595 40, 258.023 40 C 257.365 40, 257.431 40.717, 258.204 41.955 M 233.583 44.866 C 233.152 45.563, 233.070 46.403, 233.400 46.733 C 234.295 47.628, 235.271 46.312, 234.787 44.862 C 234.449 43.846, 234.213 43.846, 233.583 44.866 M 241.500 52 C 241.840 52.550, 242.316 53, 242.559 53 C 242.802 53, 243 52.550, 243 52 C 243 51.450, 242.523 51, 241.941 51 C 241.359 51, 241.160 51.450, 241.500 52 M 230.500 54 C 230.160 54.550, 230.359 55, 230.941 55 C 231.523 55, 232 54.550, 232 54 C 232 53.450, 231.802 53, 231.559 53 C 231.316 53, 230.840 53.450, 230.500 54 M 272.639 56.694 C 271.513 57.820, 271.954 59, 273.500 59 C 274.325 59, 275 58.577, 275 58.059 C 275 56.798, 273.438 55.895, 272.639 56.694 M 227.094 61.387 C 226.276 62.372, 226.234 63.026, 226.959 63.474 C 227.539 63.833, 228.292 63.404, 228.631 62.520 C 229.475 60.320, 228.547 59.636, 227.094 61.387 M 259 61 C 259 62.264, 261.043 62.264, 263 61 C 264.169 60.245, 263.893 60.027, 261.750 60.015 C 260.238 60.007, 259 60.450, 259 61 M 283.469 69.050 C 282.519 70.588, 283.820 71.580, 285.104 70.296 C 285.822 69.578, 285.839 69.019, 285.156 68.597 C 284.596 68.251, 283.837 68.455, 283.469 69.050 M 235 71 C 235 71.550, 235.423 72, 235.941 72 C 236.459 72, 237.160 71.550, 237.500 71 C 237.840 70.450, 237.416 70, 236.559 70 C 235.702 70, 235 70.450, 235 71 M 248 73.893 C 248 75.017, 250.601 76.066, 251.402 75.264 C 252.606 74.061, 251.949 73, 250 73 C 248.900 73, 248 73.402, 248 73.893 M 234.500 84 C 234.160 84.550, 234.610 85, 235.500 85 C 236.390 85, 236.840 84.550, 236.500 84 C 236.160 83.450, 235.710 83, 235.500 83 C 235.290 83, 234.840 83.450, 234.500 84 M 287 85.059 C 287 85.641, 287.450 85.840, 288 85.500 C 288.550 85.160, 289 84.684, 289 84.441 C 289 84.198, 288.550 84, 288 84 C 287.450 84, 287 84.477, 287 85.059 M 256.500 88 C 256.127 88.604, 257.391 88.972, 259.691 88.930 C 262.733 88.874, 263.097 88.686, 261.500 88 C 258.752 86.819, 257.230 86.819, 256.500 88 M 241.500 92 C 241.160 92.550, 241.246 93.006, 241.691 93.014 C 242.136 93.021, 243.625 93.280, 245 93.588 C 247.413 94.129, 247.432 94.094, 245.559 92.574 C 243.304 90.746, 242.358 90.612, 241.500 92 M 265.638 93.500 C 265.955 94.325, 266.896 95, 267.729 95 C 268.963 95, 269.013 94.721, 268 93.500 C 267.315 92.675, 266.374 92, 265.909 92 C 265.444 92, 265.322 92.675, 265.638 93.500 M 281 95.167 C 281 95.625, 281.423 96, 281.941 96 C 282.459 96, 283.114 95.625, 283.397 95.167 C 283.680 94.708, 283.257 94.333, 282.456 94.333 C 281.655 94.333, 281 94.708, 281 95.167 M 248 97.441 C 248 98.234, 248.408 99.134, 248.907 99.442 C 249.405 99.751, 249.578 99.102, 249.290 98.001 C 248.679 95.666, 248 95.371, 248 97.441 M 131.557 100.223 C 129.571 103.057, 129.539 107.886, 131.500 108.638 C 132.440 108.999, 132.949 110.388, 132.864 112.357 C 132.762 114.711, 132.619 114.935, 132.294 113.250 C 131.836 110.872, 130.544 110.311, 129.482 112.029 C 129.133 112.594, 128.642 116.307, 128.391 120.279 C 128.140 124.250, 127.733 128.963, 127.487 130.750 C 127.241 132.537, 127.480 134, 128.020 134 C 128.559 134, 129 132.480, 129 130.622 C 129 126.653, 131.592 123.743, 133.061 126.064 C 134.284 127.997, 134.244 130.269, 133 129.500 C 131.481 128.561, 131.804 130.772, 133.583 133.486 C 134.477 134.851, 134.893 136.761, 134.539 137.877 C 134.158 139.078, 134.462 140.175, 135.315 140.676 C 136.086 141.129, 137.266 143.188, 137.936 145.250 C 138.607 147.313, 139.570 149, 140.078 149 C 140.585 149, 141 149.675, 141 150.500 C 141 151.325, 141.675 152, 142.500 152 C 144.569 152, 144.377 150.651, 142 148.500 C 140.900 147.505, 140 146.018, 140 145.197 C 140 143.852, 141.660 145.411, 147.504 152.250 C 149.060 154.071, 153 154.675, 153 153.094 C 153 152.595, 152.100 152.423, 151 152.710 C 149.882 153.003, 149 152.741, 149 152.117 C 149 151.502, 149.985 151, 151.189 151 L 153.377 151 151.189 148.961 C 148.927 146.854, 148.243 144, 150 144 C 150.550 144, 151 143.523, 151 142.941 C 151 142.359, 150.507 142.187, 149.905 142.559 C 148.348 143.521, 144.260 141.104, 143.678 138.876 C 143.097 136.654, 144.804 136.327, 145.638 138.500 C 146.252 140.099, 148 140.576, 148 139.144 C 148 138.673, 146.425 136.225, 144.499 133.703 C 142.495 131.078, 141.426 128.854, 141.999 128.500 C 142.550 128.160, 143.483 128.181, 144.074 128.546 C 144.664 128.911, 144.567 128.280, 143.858 127.145 C 142.934 125.665, 142.351 125.423, 141.800 126.290 C 141.243 127.165, 141.022 127.085, 141 126 C 140.976 124.829, 140.789 124.785, 140.146 125.797 C 139.487 126.838, 139.076 126.797, 138.076 125.591 C 136.467 123.653, 137.636 121.453, 139.467 122.973 C 140.438 123.778, 140.893 123.518, 141.312 121.916 C 142.025 119.189, 144.579 120.007, 144.262 122.860 C 144.075 124.537, 144.562 125, 146.512 125 C 149.520 125, 149.681 123.681, 147 121 C 145.900 119.900, 145 118.489, 145 117.865 C 145 117.240, 143.850 115.663, 142.444 114.360 C 141.038 113.057, 140.161 111.548, 140.496 111.007 C 140.847 110.438, 140.427 110.283, 139.501 110.638 C 138.206 111.135, 138.020 110.770, 138.530 108.736 C 138.878 107.351, 138.732 105.952, 138.206 105.627 C 137.680 105.302, 137.250 106.172, 137.250 107.560 C 137.250 110.148, 136.397 111.730, 135.490 110.824 C 135.210 110.543, 134.768 108.106, 134.508 105.407 C 133.674 96.746, 133.817 96.996, 131.557 100.223 M 271.500 99 C 270.181 99.567, 270.011 99.878, 271 99.914 C 271.825 99.945, 273.175 99.533, 274 99 C 275.828 97.819, 274.249 97.819, 271.500 99 M 295.543 101.931 C 294.803 103.128, 296.684 104.313, 298.016 103.490 C 299.135 102.799, 298.400 101, 297 101 C 296.515 101, 295.859 101.419, 295.543 101.931 M 132.030 104.450 C 132.008 106.601, 132.299 107.101, 133.104 106.296 C 133.895 105.505, 133.903 104.670, 133.134 103.346 C 132.193 101.728, 132.057 101.864, 132.030 104.450 M 145.782 103.582 C 146.392 104.727, 147.664 106.302, 148.609 107.082 C 150.173 108.372, 150.228 108.312, 149.218 106.418 C 148.608 105.273, 147.336 103.698, 146.391 102.918 C 144.827 101.628, 144.772 101.688, 145.782 103.582 M 254.500 105 C 257.291 106.199, 260.241 106.199, 259.500 105 C 259.160 104.450, 257.446 104.032, 255.691 104.070 C 253.001 104.130, 252.814 104.276, 254.500 105 M 233 108 C 233 108.550, 233.477 109, 234.059 109 C 234.641 109, 234.840 108.550, 234.500 108 C 234.160 107.450, 233.684 107, 233.441 107 C 233.198 107, 233 107.450, 233 108 M 306.393 109.582 C 306.727 110.452, 307 111.352, 307 111.582 C 307 111.812, 307.408 112, 307.906 112 C 308.405 112, 308.577 111.100, 308.290 110 C 308.002 108.900, 307.321 108, 306.776 108 C 306.232 108, 306.059 108.712, 306.393 109.582 M 149 109.971 C 149 110.402, 149.686 111.324, 150.524 112.020 C 151.362 112.716, 151.816 113.517, 151.533 113.800 C 150.824 114.509, 152.996 117, 154.322 117 C 155.024 117, 154.982 116.582, 154.200 115.800 C 153.540 115.140, 153 113.617, 153 112.417 C 153 111.074, 152.230 110.032, 151 109.710 C 149.900 109.423, 149 109.540, 149 109.971 M 171 110.441 C 171 111.234, 171.408 112.134, 171.907 112.442 C 172.405 112.751, 172.578 112.102, 172.290 111.001 C 171.679 108.666, 171 108.371, 171 110.441 M 287.027 109.983 C 285.244 111.085, 288.798 112.212, 290.700 111.148 C 291.986 110.428, 291.911 110.210, 290.225 109.769 C 289.123 109.481, 287.684 109.577, 287.027 109.983 M 253.500 111 C 253.840 111.550, 254.568 112, 255.118 112 C 255.668 112, 255.840 111.550, 255.500 111 C 255.160 110.450, 254.432 110, 253.882 110 C 253.332 110, 253.160 110.450, 253.500 111 M 176.564 113.293 C 176.940 114.279, 177.499 114.834, 177.807 114.526 C 178.115 114.219, 177.808 113.412, 177.124 112.733 C 176.136 111.753, 176.022 111.868, 176.564 113.293 M 144 113.224 C 144 114.545, 147.238 119.905, 148.999 121.499 C 152.021 124.234, 152.308 122.806, 149.500 119 C 148.138 117.154, 147.296 115.386, 147.629 115.072 C 147.962 114.757, 148.744 115.348, 149.367 116.384 C 151.477 119.892, 155.246 124.087, 155.795 123.538 C 156.096 123.238, 155.606 122.206, 154.706 121.246 C 153.807 120.286, 151.718 117.925, 150.065 116 C 148.411 114.075, 147.045 113.118, 147.029 113.872 C 147.006 114.979, 146.709 115.004, 145.500 114 C 144.675 113.315, 144 112.966, 144 113.224 M 169 115.441 C 169 116.942, 170.795 118.538, 171.590 117.743 C 172.288 117.046, 170.907 114, 169.893 114 C 169.402 114, 169 114.648, 169 115.441 M 271.750 114.662 C 272.438 114.940, 273.563 114.940, 274.250 114.662 C 274.938 114.385, 274.375 114.158, 273 114.158 C 271.625 114.158, 271.063 114.385, 271.750 114.662 M 414 115.559 C 414 116.416, 414.450 116.840, 415 116.500 C 415.550 116.160, 416 115.459, 416 114.941 C 416 114.423, 415.550 114, 415 114 C 414.450 114, 414 114.702, 414 115.559 M 135.250 115.706 C 132.565 116.223, 132.420 117.300, 134.678 119.937 C 136.600 122.182, 138.172 121.763, 137.375 119.218 C 136.930 117.799, 137.112 117.838, 138.422 119.446 C 140.364 121.830, 142.192 120.449, 141.351 117.233 C 140.778 115.043, 139.870 114.816, 135.250 115.706 M 155 118.941 C 155 119.459, 155.445 120.157, 155.989 120.493 C 156.555 120.843, 156.723 120.442, 156.382 119.552 C 155.717 117.820, 155 117.503, 155 118.941 M 181 119 C 181 119.550, 181.477 120, 182.059 120 C 182.641 120, 182.840 119.550, 182.500 119 C 182.160 118.450, 181.684 118, 181.441 118 C 181.198 118, 181 118.450, 181 119 M 253.269 119.693 C 254.242 119.947, 255.592 119.930, 256.269 119.656 C 256.946 119.382, 256.150 119.175, 254.500 119.195 C 252.850 119.215, 252.296 119.439, 253.269 119.693 M 172 120.878 C 172 121.360, 172.749 122.373, 173.664 123.128 C 175.172 124.372, 175.216 124.290, 174.129 122.250 C 172.889 119.923, 172 119.350, 172 120.878 M 304.015 121.559 C 304.038 122.941, 305.814 125.520, 306.364 124.969 C 306.624 124.710, 306.198 123.624, 305.418 122.557 C 304.638 121.491, 304.007 121.041, 304.015 121.559 M 232.510 123.016 C 232.856 123.575, 233.557 123.774, 234.069 123.457 C 235.456 122.600, 235.198 122, 233.441 122 C 232.584 122, 232.165 122.457, 232.510 123.016 M 261.204 124.955 C 262.583 127.164, 263.555 126.889, 262.655 124.543 C 262.329 123.694, 261.595 123, 261.023 123 C 260.365 123, 260.431 123.717, 261.204 124.955 M 311 124.500 C 311 125.325, 311.436 126, 311.969 126 C 312.501 126, 312.678 125.325, 312.362 124.500 C 312.045 123.675, 311.609 123, 311.393 123 C 311.177 123, 311 123.675, 311 124.500 M 185 125.941 C 185 126.459, 185.445 127.157, 185.989 127.493 C 186.555 127.843, 186.723 127.442, 186.382 126.552 C 185.717 124.820, 185 124.503, 185 125.941 M 413.031 127 C 413.031 128.375, 413.467 130.175, 414 131 C 414.767 132.187, 414.969 131.979, 414.969 130 C 414.969 128.625, 414.533 126.825, 414 126 C 413.233 124.813, 413.031 125.021, 413.031 127 M 148.405 127.155 C 147.962 127.870, 148.130 128.038, 148.845 127.595 C 149.480 127.203, 150 127.306, 150 127.824 C 150 128.343, 150.955 129.017, 152.122 129.322 L 154.245 129.877 152.164 127.938 C 149.741 125.680, 149.364 125.602, 148.405 127.155 M 288.473 126.956 C 288.798 127.482, 289.725 127.659, 290.532 127.349 C 292.599 126.556, 292.356 126, 289.941 126 C 288.809 126, 288.148 126.430, 288.473 126.956 M 408.700 129.341 C 408.417 130.078, 408.587 131.316, 409.077 132.091 C 409.727 133.116, 409.974 132.751, 409.985 130.750 C 410.001 127.764, 409.511 127.226, 408.700 129.341 M 282.015 132.250 C 282.007 133.762, 282.450 135, 283 135 C 284.264 135, 284.264 132.957, 283 131 C 282.245 129.831, 282.027 130.107, 282.015 132.250 M 307 135.941 C 307 136.459, 307.445 137.157, 307.989 137.493 C 308.555 137.843, 308.723 137.442, 308.382 136.552 C 307.717 134.820, 307 134.503, 307 135.941 M 391 136.559 C 391 137.416, 391.450 137.840, 392 137.500 C 392.550 137.160, 393 136.459, 393 135.941 C 393 135.423, 392.550 135, 392 135 C 391.450 135, 391 135.702, 391 136.559 M 260.638 137.500 C 260.955 138.325, 261.602 139, 262.076 139 C 262.549 139, 262.678 138.325, 262.362 137.500 C 262.045 136.675, 261.398 136, 260.924 136 C 260.451 136, 260.322 136.675, 260.638 137.500 M 313 138.819 C 313 140.027, 314.897 141.436, 315.591 140.743 C 315.842 140.491, 315.362 139.716, 314.524 139.020 C 313.574 138.231, 313 138.155, 313 138.819 M 138 140 C 138 140.550, 138.450 141, 139 141 C 139.550 141, 140 140.550, 140 140 C 140 139.450, 139.550 139, 139 139 C 138.450 139, 138 139.450, 138 140 M 292 142.108 C 292 142.791, 292.960 142.976, 294.500 142.589 C 296.345 142.126, 297 142.360, 297 143.481 C 297 144.316, 297.477 145, 298.059 145 C 298.641 145, 298.840 144.550, 298.500 144 C 298.160 143.450, 298.471 142.968, 299.191 142.930 C 301.223 142.821, 296.782 141.149, 294.250 141.070 C 293.012 141.032, 292 141.499, 292 142.108 M 273.269 142.693 C 274.242 142.947, 275.592 142.930, 276.269 142.656 C 276.946 142.382, 276.150 142.175, 274.500 142.195 C 272.850 142.215, 272.296 142.439, 273.269 142.693 M 299.408 145.102 C 297.521 147.187, 297.526 147.201, 299.993 146.852 C 301.381 146.655, 302.627 145.727, 302.813 144.750 C 303.264 142.385, 301.723 142.544, 299.408 145.102 M 403.141 144 C 403.141 144.825, 403.527 146.400, 404 147.500 C 404.542 148.761, 404.859 148.945, 404.859 148 C 404.859 147.175, 404.473 145.600, 404 144.500 C 403.458 143.239, 403.141 143.055, 403.141 144 M 406.079 144.583 C 406.127 145.748, 406.364 145.985, 406.683 145.188 C 406.972 144.466, 406.936 143.603, 406.604 143.271 C 406.272 142.939, 406.036 143.529, 406.079 144.583 M 279.500 146 C 281.690 148.420, 284.484 148.705, 283.607 146.418 C 283.273 145.548, 283 144.648, 283 144.418 C 283 144.188, 281.805 144, 280.345 144 C 277.753 144, 277.733 144.048, 279.500 146 M 381.020 145.476 C 380.231 146.426, 380.155 147, 380.819 147 C 382.027 147, 383.436 145.103, 382.743 144.409 C 382.491 144.158, 381.716 144.638, 381.020 145.476 M 136 145.941 C 136 146.459, 136.445 147.157, 136.989 147.493 C 137.555 147.843, 137.723 147.442, 137.382 146.552 C 136.717 144.820, 136 144.503, 136 145.941 M 147.079 148.583 C 147.127 149.748, 147.364 149.985, 147.683 149.188 C 147.972 148.466, 147.936 147.603, 147.604 147.271 C 147.272 146.939, 147.036 147.529, 147.079 148.583 M 252.083 147.359 C 252.313 147.557, 253.850 148.021, 255.500 148.390 C 257.691 148.880, 258.095 148.787, 257 148.046 C 255.650 147.132, 251.080 146.494, 252.083 147.359 M 232 149 C 230.835 149.753, 231.128 149.973, 233.309 149.985 C 234.930 149.994, 235.857 149.577, 235.500 149 C 234.733 147.758, 233.921 147.758, 232 149 M 381.784 149.167 C 380.972 151.225, 383.855 152.588, 385.417 150.886 C 386.223 150.007, 386.069 149.857, 384.813 150.297 C 383.714 150.683, 383.006 150.298, 382.783 149.195 C 382.466 147.624, 382.393 147.622, 381.784 149.167 M 406.195 150.500 C 406.215 152.150, 406.439 152.704, 406.693 151.731 C 406.947 150.758, 406.930 149.408, 406.656 148.731 C 406.382 148.054, 406.175 148.850, 406.195 150.500 M 259.597 149.844 C 259.251 150.404, 259.455 151.163, 260.050 151.531 C 261.588 152.481, 262.580 151.180, 261.296 149.896 C 260.578 149.178, 260.019 149.161, 259.597 149.844 M 376.717 150.705 C 377.342 152.332, 377.487 152.323, 378.953 150.556 C 379.931 149.378, 379.790 149.140, 378.185 149.261 C 377.021 149.349, 376.422 149.937, 376.717 150.705 M 402.719 150.615 C 401.641 151.692, 401.853 155, 403 155 C 403.550 155, 404 155.702, 404 156.559 C 404 157.416, 403.551 157.841, 403.002 157.501 C 402.392 157.124, 402.143 158.151, 402.361 160.145 C 402.979 165.793, 405.008 164.757, 404.930 158.833 C 404.854 153.090, 403.876 149.457, 402.719 150.615 M 297.813 154.683 C 298.534 154.972, 299.397 154.936, 299.729 154.604 C 300.061 154.272, 299.471 154.036, 298.417 154.079 C 297.252 154.127, 297.015 154.364, 297.813 154.683 M 276.744 155.890 C 278.528 156.360, 280.650 157.295, 281.460 157.967 C 283.272 159.471, 285.221 158.959, 284.164 157.258 C 283.739 156.574, 281.166 155.795, 278.446 155.525 C 274.434 155.127, 274.113 155.196, 276.744 155.890 M 389 156.059 C 389 156.641, 389.450 156.840, 390 156.500 C 390.550 156.160, 391 155.684, 391 155.441 C 391 155.198, 390.550 155, 390 155 C 389.450 155, 389 155.477, 389 156.059 M 152 156.941 C 152 157.459, 152.445 158.157, 152.989 158.493 C 153.555 158.843, 153.723 158.442, 153.382 157.552 C 152.717 155.820, 152 155.503, 152 156.941 M 213 163 C 213 163.550, 213.450 164, 214 164 C 214.550 164, 215 163.550, 215 163 C 215 162.450, 214.550 162, 214 162 C 213.450 162, 213 162.450, 213 163 M 312.192 163.075 C 312.389 163.666, 312.978 164.150, 313.500 164.150 C 314.022 164.150, 314.611 163.666, 314.808 163.075 C 315.005 162.484, 314.417 162, 313.500 162 C 312.583 162, 311.995 162.484, 312.192 163.075 M 370.638 166.500 C 370.322 167.325, 370.499 168, 371.031 168 C 371.564 168, 372 167.325, 372 166.500 C 372 165.675, 371.823 165, 371.607 165 C 371.391 165, 370.955 165.675, 370.638 166.500 M 403.079 170.250 C 403.122 172.037, 403.386 172.935, 403.664 172.244 C 403.943 171.553, 404.582 171.242, 405.085 171.553 C 405.588 171.864, 406 170.966, 406 169.559 C 406 167.951, 405.443 167, 404.500 167 C 403.458 167, 403.024 167.993, 403.079 170.250 M 283 168.941 C 283 169.459, 283.450 170.160, 284 170.500 C 284.550 170.840, 285 170.416, 285 169.559 C 285 168.702, 284.550 168, 284 168 C 283.450 168, 283 168.423, 283 168.941 M 374.929 172.429 C 373.727 174.985, 373.026 177.360, 373.372 177.705 C 373.717 178.051, 374 177.583, 374 176.667 C 374 175.750, 374.395 175, 374.879 175 C 375.987 175, 378.470 169.137, 377.691 168.358 C 377.374 168.040, 376.130 169.872, 374.929 172.429 M 260 174 C 260 174.550, 260.477 175, 261.059 175 C 261.641 175, 261.840 174.550, 261.500 174 C 261.160 173.450, 260.684 173, 260.441 173 C 260.198 173, 260 173.450, 260 174 M 313 174.500 C 313 175.325, 313.450 176, 314 176 C 314.550 176, 315 175.325, 315 174.500 C 315 173.675, 314.550 173, 314 173 C 313.450 173, 313 173.675, 313 174.500 M 402.686 182.401 C 402.309 186.746, 402.060 192.371, 402.134 194.901 L 402.267 199.500 403.046 194.500 C 403.474 191.750, 403.864 187.363, 403.912 184.750 C 403.961 182.137, 404.450 180, 405 180 C 405.550 180, 405.939 178.762, 405.864 177.250 C 405.729 174.523, 405.723 174.521, 405.211 177 L 404.695 179.500 404.033 177 C 403.580 175.287, 403.156 176.988, 402.686 182.401 M 377.079 177.583 C 377.127 178.748, 377.364 178.985, 377.683 178.188 C 377.972 177.466, 377.936 176.603, 377.604 176.271 C 377.272 175.939, 377.036 176.529, 377.079 177.583 M 248.500 178 C 248.840 178.550, 249.316 179, 249.559 179 C 249.802 179, 250 178.550, 250 178 C 250 177.450, 249.523 177, 248.941 177 C 248.359 177, 248.160 177.450, 248.500 178 M 380 179.059 C 380 179.641, 380.450 179.840, 381 179.500 C 381.550 179.160, 382 178.684, 382 178.441 C 382 178.198, 381.550 178, 381 178 C 380.450 178, 380 178.477, 380 179.059 M 301.500 180 C 301.840 180.550, 302.568 181, 303.118 181 C 303.668 181, 303.840 180.550, 303.500 180 C 303.160 179.450, 302.432 179, 301.882 179 C 301.332 179, 301.160 179.450, 301.500 180 M 282.190 181.618 C 283.080 182.508, 284.309 182.927, 284.920 182.549 C 286.548 181.543, 285.220 180, 282.727 180 C 280.741 180, 280.699 180.127, 282.190 181.618 M 319 182 C 319 182.550, 319.450 183, 320 183 C 320.550 183, 321 182.550, 321 182 C 321 181.450, 320.550 181, 320 181 C 319.450 181, 319 181.450, 319 182 M 370 182.500 C 370 183.325, 370.177 184, 370.393 184 C 370.609 184, 371.045 183.325, 371.362 182.500 C 371.678 181.675, 371.501 181, 370.969 181 C 370.436 181, 370 181.675, 370 182.500 M 269.500 184 C 269.160 184.550, 269.835 185, 271 185 C 272.165 185, 272.840 184.550, 272.500 184 C 272.160 183.450, 271.485 183, 271 183 C 270.515 183, 269.840 183.450, 269.500 184 M 252.750 184.662 C 253.438 184.940, 254.563 184.940, 255.250 184.662 C 255.938 184.385, 255.375 184.158, 254 184.158 C 252.625 184.158, 252.063 184.385, 252.750 184.662 M 313 185 C 313 185.550, 313.675 186, 314.500 186 C 315.325 186, 316 185.550, 316 185 C 316 184.450, 315.325 184, 314.500 184 C 313.675 184, 313 184.450, 313 185 M 299.639 188.776 C 299.329 189.277, 300.605 190.157, 302.474 190.731 C 305.167 191.557, 305.983 191.486, 306.405 190.387 C 306.743 189.506, 306.248 189, 305.050 189 C 304.013 189, 302.497 188.744, 301.683 188.432 C 300.869 188.119, 299.949 188.274, 299.639 188.776 M 277.813 190.683 C 278.534 190.972, 279.397 190.936, 279.729 190.604 C 280.061 190.272, 279.471 190.036, 278.417 190.079 C 277.252 190.127, 277.015 190.364, 277.813 190.683 M 283 192 C 283 192.550, 283.675 193, 284.500 193 C 285.325 193, 286 192.550, 286 192 C 286 191.450, 285.325 191, 284.500 191 C 283.675 191, 283 191.450, 283 192 M 321 192.941 C 321 193.459, 321.450 194.160, 322 194.500 C 322.550 194.840, 323 194.416, 323 193.559 C 323 192.702, 322.550 192, 322 192 C 321.450 192, 321 192.423, 321 192.941 M 261.662 195.750 C 261.411 196.162, 262.285 197.309, 263.603 198.297 C 266.272 200.298, 266.882 199.024, 264.429 196.571 C 262.651 194.794, 262.306 194.691, 261.662 195.750 M 315 196 C 315 196.550, 316.012 196.993, 317.250 196.985 C 319.069 196.972, 319.213 196.784, 318 196 C 316.061 194.747, 315 194.747, 315 196 M 230.813 197.683 C 231.534 197.972, 232.397 197.936, 232.729 197.604 C 233.061 197.272, 232.471 197.036, 231.417 197.079 C 230.252 197.127, 230.015 197.364, 230.813 197.683 M 224 202 C 224 202.550, 224.873 203, 225.941 203 C 227.009 203, 228.160 202.550, 228.500 202 C 228.851 201.433, 228.010 201, 226.559 201 C 225.152 201, 224 201.450, 224 202 M 401.500 202 C 401.160 202.550, 401.359 203, 401.941 203 C 402.523 203, 403 202.550, 403 202 C 403 201.450, 402.802 201, 402.559 201 C 402.316 201, 401.840 201.450, 401.500 202 M 286.204 203.955 C 287.583 206.164, 288.555 205.889, 287.655 203.543 C 287.329 202.694, 286.595 202, 286.023 202 C 285.365 202, 285.431 202.717, 286.204 203.955 M 390.710 205 C 390.423 206.100, 390.595 207, 391.094 207 C 391.592 207, 392 206.812, 392 206.582 C 392 206.352, 392.273 205.452, 392.607 204.582 C 392.941 203.712, 392.768 203, 392.224 203 C 391.679 203, 390.998 203.900, 390.710 205 M 321.558 204.906 C 321.250 205.404, 320.149 205.590, 319.112 205.319 C 318.074 205.048, 316.921 205.318, 316.549 205.920 C 315.637 207.397, 318.860 208.540, 320.189 207.211 C 320.769 206.631, 321.864 206.394, 322.622 206.685 C 323.440 206.999, 324 206.561, 324 205.607 C 324 203.872, 322.469 203.432, 321.558 204.906 M 271 207 C 271 207.550, 271.702 208, 272.559 208 C 273.416 208, 273.840 207.550, 273.500 207 C 273.160 206.450, 272.459 206, 271.941 206 C 271.423 206, 271 206.450, 271 207 M 400.388 211.597 C 399.814 214.071, 399.667 216.294, 400.060 216.537 C 400.778 216.981, 402.465 208.132, 401.791 207.458 C 401.593 207.260, 400.962 209.123, 400.388 211.597 M 389.356 209.766 C 389.616 210.188, 389.436 212.636, 388.956 215.206 C 388.476 217.777, 387.788 223.140, 387.428 227.125 C 386.737 234.770, 386.937 234.903, 391 229.496 C 392.356 227.691, 392.348 227.619, 390.908 228.741 C 388.582 230.555, 388.210 229.559, 389.224 224.243 C 389.722 221.634, 390.378 217.758, 390.681 215.630 C 391.067 212.926, 391.495 212.172, 392.101 213.130 C 392.715 214.098, 392.974 213.694, 392.985 211.750 C 392.996 209.635, 392.524 209, 390.941 209 C 389.809 209, 389.095 209.345, 389.356 209.766 M 386 211 C 386 211.550, 386.450 212, 387 212 C 387.550 212, 388 211.550, 388 211 C 388 210.450, 387.550 210, 387 210 C 386.450 210, 386 210.450, 386 211 M 305 212.583 C 305 213.454, 305.534 213.989, 306.188 213.771 C 308.042 213.153, 308.349 211, 306.583 211 C 305.712 211, 305 211.713, 305 212.583 M 284.075 213.953 C 283.158 214.520, 283.292 214.898, 284.583 215.394 C 285.546 215.763, 286.739 215.661, 287.234 215.166 C 288.420 213.980, 285.713 212.942, 284.075 213.953 M 322.500 216 C 322.160 216.550, 322.584 217, 323.441 217 C 324.298 217, 325 216.550, 325 216 C 325 215.450, 324.577 215, 324.059 215 C 323.541 215, 322.840 215.450, 322.500 216 M 317 217 C 317 217.550, 317.900 218, 319 218 C 320.100 218, 321 217.550, 321 217 C 321 216.450, 320.100 216, 319 216 C 317.900 216, 317 216.450, 317 217 M 385.710 218 C 385.423 219.100, 385.595 220, 386.094 220 C 386.592 220, 387 219.100, 387 218 C 387 216.900, 386.827 216, 386.617 216 C 386.406 216, 385.998 216.900, 385.710 218 M 271.500 218 C 271.840 218.550, 272.316 219, 272.559 219 C 272.802 219, 273 218.550, 273 218 C 273 217.450, 272.523 217, 271.941 217 C 271.359 217, 271.160 217.450, 271.500 218 M 398.755 220.500 C 398.492 221.875, 398.665 223, 399.139 223 C 399.612 223, 400 221.875, 400 220.500 C 400 219.125, 399.827 218, 399.617 218 C 399.406 218, 399.018 219.125, 398.755 220.500 M 303.500 224 C 303.840 224.550, 304.740 225, 305.500 225 C 306.260 225, 307.160 224.550, 307.500 224 C 307.852 223.431, 306.991 223, 305.500 223 C 304.009 223, 303.148 223.431, 303.500 224 M 284 225 C 284 225.550, 284.675 226, 285.500 226 C 286.325 226, 287 225.550, 287 225 C 287 224.450, 286.325 224, 285.500 224 C 284.675 224, 284 224.450, 284 225 M 323 227 C 323 227.550, 323.702 228, 324.559 228 C 325.416 228, 325.840 227.550, 325.500 227 C 325.160 226.450, 324.459 226, 323.941 226 C 323.423 226, 323 226.450, 323 227 M 317.496 228.007 C 317.153 228.561, 317.596 229.292, 318.480 229.631 C 320.394 230.365, 321.461 229.556, 320.541 228.067 C 319.711 226.723, 318.306 226.696, 317.496 228.007 M 397.554 228.250 C 396.616 231.310, 396.142 237.404, 396.952 236 C 398.122 233.972, 399.383 227, 398.580 227 C 398.226 227, 397.765 227.563, 397.554 228.250 M 272 229 C 272 229.550, 272.702 230, 273.559 230 C 274.416 230, 274.840 229.550, 274.500 229 C 274.160 228.450, 273.459 228, 272.941 228 C 272.423 228, 272 228.450, 272 229 M 382.015 232.250 C 382.027 235.362, 382.290 236.099, 383 235 C 384.276 233.026, 384.276 228, 383 228 C 382.450 228, 382.007 229.912, 382.015 232.250 M 262.500 231 C 262.840 231.550, 263.316 232, 263.559 232 C 263.802 232, 264 231.550, 264 231 C 264 230.450, 263.523 230, 262.941 230 C 262.359 230, 262.160 230.450, 262.500 231 M 392.077 236.636 C 391.371 239.964, 391.012 243.545, 391.281 244.594 C 391.604 245.858, 391.809 245.490, 391.890 243.500 C 391.956 241.850, 392.487 238.786, 393.069 236.690 C 393.651 234.595, 393.955 232.364, 393.744 231.733 C 393.534 231.101, 392.784 233.308, 392.077 236.636 M 250.813 233.683 C 251.534 233.972, 252.397 233.936, 252.729 233.604 C 253.061 233.272, 252.471 233.036, 251.417 233.079 C 250.252 233.127, 250.015 233.364, 250.813 233.683 M 304.750 234.662 C 305.438 234.940, 306.563 234.940, 307.250 234.662 C 307.938 234.385, 307.375 234.158, 306 234.158 C 304.625 234.158, 304.063 234.385, 304.750 234.662 M 284 235.393 C 284 235.609, 284.698 236.054, 285.552 236.382 C 286.442 236.723, 286.843 236.555, 286.493 235.989 C 285.906 235.038, 284 234.583, 284 235.393 M 387.079 237.583 C 387.127 238.748, 387.364 238.985, 387.683 238.188 C 387.972 237.466, 387.936 236.603, 387.604 236.271 C 387.272 235.939, 387.036 236.529, 387.079 237.583 M 323 238 C 323 238.550, 323.450 239, 324 239 C 324.550 239, 325 238.550, 325 238 C 325 237.450, 324.550 237, 324 237 C 323.450 237, 323 237.450, 323 238 M 316 239.893 C 316 241.059, 318.921 242.167, 320.090 241.444 C 321.853 240.355, 320.971 239, 318.500 239 C 317.125 239, 316 239.402, 316 239.893 M 395 241 C 395 241.550, 395.450 242, 396 242 C 396.550 242, 397 241.550, 397 241 C 397 240.450, 396.550 240, 396 240 C 395.450 240, 395 240.450, 395 241 M 394.444 246.444 C 394.068 248.451, 393.985 250.318, 394.260 250.593 C 394.535 250.868, 395.068 249.451, 395.444 247.444 C 395.821 245.438, 395.904 243.571, 395.629 243.296 C 395.354 243.021, 394.821 244.438, 394.444 246.444 M 303.580 244.870 C 303.273 245.367, 303.692 246.329, 304.511 247.009 C 305.722 248.014, 306 247.953, 306 246.681 C 306 244.815, 304.369 243.594, 303.580 244.870 M 324.500 248 C 324.840 248.550, 325.541 249, 326.059 249 C 326.577 249, 327 248.550, 327 248 C 327 247.450, 326.298 247, 325.441 247 C 324.584 247, 324.160 247.450, 324.500 248 M 264 252 C 264.825 252.533, 265.950 252.969, 266.500 252.969 C 267.050 252.969, 266.825 252.533, 266 252 C 265.175 251.467, 264.050 251.031, 263.500 251.031 C 262.950 251.031, 263.175 251.467, 264 252 M 306.500 256 C 306.160 256.550, 306.809 257, 307.941 257 C 309.073 257, 310 256.550, 310 256 C 310 255.450, 309.352 255, 308.559 255 C 307.766 255, 306.840 255.450, 306.500 256 M 286.500 257.396 C 288.928 259.266, 291.319 259.465, 290.756 257.750 C 290.530 257.063, 289.030 256.355, 287.423 256.178 C 284.607 255.868, 284.573 255.913, 286.500 257.396 M 323.500 258 C 323.160 258.550, 323.120 259.385, 323.411 259.856 C 323.702 260.326, 322.881 260.509, 321.587 260.261 C 318.374 259.647, 317.272 261.779, 320.398 262.564 C 323.079 263.237, 327.912 260.483, 327.969 258.250 C 328.006 256.765, 324.388 256.563, 323.500 258 M 275 262 C 275 262.550, 275.450 263, 276 263 C 276.550 263, 277 262.550, 277 262 C 277 261.450, 276.550 261, 276 261 C 275.450 261, 275 261.450, 275 262 M 268 264 C 268 264.550, 268.477 265, 269.059 265 C 269.641 265, 269.840 264.550, 269.500 264 C 269.160 263.450, 268.684 263, 268.441 263 C 268.198 263, 268 263.450, 268 264 M 306 268.383 C 306 269.271, 310.046 269.735, 310.558 268.906 C 310.866 268.408, 309.966 268, 308.559 268 C 307.152 268, 306 268.173, 306 268.383 M 288.500 270 C 288.160 270.550, 288.359 271, 288.941 271 C 289.523 271, 290 270.550, 290 270 C 290 269.450, 289.802 269, 289.559 269 C 289.316 269, 288.840 269.450, 288.500 270 M 389.079 272.583 C 389.127 273.748, 389.364 273.985, 389.683 273.188 C 389.972 272.466, 389.936 271.603, 389.604 271.271 C 389.272 270.939, 389.036 271.529, 389.079 272.583 M 320 273 C 320 273.550, 320.900 274, 322 274 C 323.100 274, 324 273.550, 324 273 C 324 272.450, 323.100 272, 322 272 C 320.900 272, 320 272.450, 320 273 M 266.500 276 C 266.840 276.550, 267.316 277, 267.559 277 C 267.802 277, 268 276.550, 268 276 C 268 275.450, 267.523 275, 266.941 275 C 266.359 275, 266.160 275.450, 266.500 276 M 195.813 276.683 C 196.534 276.972, 197.397 276.936, 197.729 276.604 C 198.061 276.272, 197.471 276.036, 196.417 276.079 C 195.252 276.127, 195.015 276.364, 195.813 276.683 M 228.813 276.683 C 229.534 276.972, 230.397 276.936, 230.729 276.604 C 231.061 276.272, 230.471 276.036, 229.417 276.079 C 228.252 276.127, 228.015 276.364, 228.813 276.683 M 252 277.531 C 252 278.339, 252.675 279, 253.500 279 C 254.325 279, 255 278.598, 255 278.107 C 255 277.616, 254.325 276.955, 253.500 276.638 C 252.586 276.288, 252 276.637, 252 277.531 M 326.419 278.131 C 325.567 279.510, 327.524 281.412, 328.913 280.554 C 329.511 280.184, 330 279.507, 330 279.048 C 330 277.718, 327.129 276.982, 326.419 278.131 M 305.813 280.683 C 306.534 280.972, 307.397 280.936, 307.729 280.604 C 308.061 280.272, 307.471 280.036, 306.417 280.079 C 305.252 280.127, 305.015 280.364, 305.813 280.683 M 384.079 281.583 C 384.127 282.748, 384.364 282.985, 384.683 282.188 C 384.972 281.466, 384.936 280.603, 384.604 280.271 C 384.272 279.939, 384.036 280.529, 384.079 281.583 M 321 284 C 322.939 285.253, 324 285.253, 324 284 C 324 283.450, 322.988 283.007, 321.750 283.015 C 319.931 283.028, 319.787 283.216, 321 284 M 274.500 285 C 274.160 285.550, 274.359 286, 274.941 286 C 275.523 286, 276 285.550, 276 285 C 276 284.450, 275.802 284, 275.559 284 C 275.316 284, 274.840 284.450, 274.500 285 M 193 288 C 193 288.550, 193.675 289, 194.500 289 C 195.325 289, 196 288.550, 196 288 C 196 287.450, 195.325 287, 194.500 287 C 193.675 287, 193 287.450, 193 288 M 227.800 289.200 C 228.733 290.133, 229.267 290.133, 230.200 289.200 C 231.133 288.267, 230.867 288, 229 288 C 227.133 288, 226.867 288.267, 227.800 289.200 M 308 291 C 308 291.550, 308.423 292, 308.941 292 C 309.459 292, 310.160 291.550, 310.500 291 C 310.840 290.450, 310.416 290, 309.559 290 C 308.702 290, 308 290.450, 308 291 M 383.019 294.500 C 382.997 296.150, 382.758 299.300, 382.488 301.500 C 382.102 304.654, 382.298 304.338, 383.412 300.004 C 384.278 296.635, 384.483 293.927, 383.943 293.004 C 383.292 291.895, 383.050 292.287, 383.019 294.500 M 321 294 C 321 294.550, 321.675 295, 322.500 295 C 323.325 295, 324 294.550, 324 294 C 324 293.450, 323.325 293, 322.500 293 C 321.675 293, 321 293.450, 321 294 M 192.813 299.683 C 193.534 299.972, 194.397 299.936, 194.729 299.604 C 195.061 299.272, 194.471 299.036, 193.417 299.079 C 192.252 299.127, 192.015 299.364, 192.813 299.683 M 251.500 302 C 251.840 302.550, 252.766 303, 253.559 303 C 254.352 303, 255 302.550, 255 302 C 255 301.450, 254.073 301, 252.941 301 C 251.809 301, 251.160 301.450, 251.500 302 M 307.800 303.200 C 308.733 304.133, 309.267 304.133, 310.200 303.200 C 311.133 302.267, 310.867 302, 309 302 C 307.133 302, 306.867 302.267, 307.800 303.200 M 323 305 C 323 305.550, 324.125 306, 325.500 306 C 326.875 306, 328 305.550, 328 305 C 328 304.450, 326.875 304, 325.500 304 C 324.125 304, 323 304.450, 323 305 M 276.500 306 C 276.160 306.550, 276.584 307, 277.441 307 C 278.298 307, 279 306.550, 279 306 C 279 305.450, 278.577 305, 278.059 305 C 277.541 305, 276.840 305.450, 276.500 306 M 381.158 308 C 381.158 309.375, 381.385 309.938, 381.662 309.250 C 381.940 308.563, 381.940 307.438, 381.662 306.750 C 381.385 306.063, 381.158 306.625, 381.158 308 M 267 309 C 268.958 310.266, 270.282 310.266, 269.500 309 C 269.160 308.450, 268.121 308.007, 267.191 308.015 C 265.734 308.029, 265.707 308.165, 267 309 M 192.813 309.683 C 193.534 309.972, 194.397 309.936, 194.729 309.604 C 195.061 309.272, 194.471 309.036, 193.417 309.079 C 192.252 309.127, 192.015 309.364, 192.813 309.683 M 226 309.941 C 226 311.334, 227.838 312.218, 229.107 311.434 C 229.878 310.957, 229.803 310.490, 228.857 309.890 C 227.072 308.759, 226 308.778, 226 309.941 M 379.195 312.500 C 379.215 314.150, 379.439 314.704, 379.693 313.731 C 379.947 312.758, 379.930 311.408, 379.656 310.731 C 379.382 310.054, 379.175 310.850, 379.195 312.500 M 253 312 C 253 312.550, 254.012 312.993, 255.250 312.985 C 257.069 312.972, 257.213 312.784, 256 312 C 254.061 310.747, 253 310.747, 253 312 M 287.554 313.902 C 285.751 314.608, 285.788 314.712, 288.054 315.318 C 291.576 316.260, 292 316.172, 292 314.500 C 292 312.881, 290.632 312.698, 287.554 313.902 M 324.500 315 C 324.149 315.567, 324.990 316, 326.441 316 C 327.848 316, 329 315.550, 329 315 C 329 314.450, 328.127 314, 327.059 314 C 325.991 314, 324.840 314.450, 324.500 315 M 276.008 316.974 C 274.881 317.687, 274.799 318.199, 275.671 319.071 C 277.040 320.440, 279 319.480, 279 317.441 C 279 315.777, 278.119 315.640, 276.008 316.974 M 379.079 316.809 C 379.036 317.529, 378.550 317.840, 378 317.500 C 377.445 317.157, 377 317.894, 377 319.155 C 377 321.249, 377.128 321.301, 378.616 319.813 C 379.505 318.924, 379.990 317.590, 379.695 316.848 C 379.269 315.778, 379.142 315.770, 379.079 316.809 M 192 321 C 192 321.550, 192.423 322, 192.941 322 C 193.459 322, 194.160 321.550, 194.500 321 C 194.840 320.450, 194.416 320, 193.559 320 C 192.702 320, 192 320.450, 192 321 M 252 323 C 252 323.550, 252.702 324, 253.559 324 C 254.416 324, 254.840 323.550, 254.500 323 C 254.160 322.450, 253.459 322, 252.941 322 C 252.423 322, 252 322.450, 252 323 M 291.118 324.927 C 290.114 325.548, 290.172 325.852, 291.384 326.317 C 292.238 326.645, 293.183 326.513, 293.484 326.025 C 294.273 324.750, 292.635 323.989, 291.118 324.927 M 325.567 324.892 C 325.328 325.279, 325.536 326.249, 326.030 327.048 C 326.805 328.302, 327.148 328.280, 328.541 326.887 C 330.026 325.403, 329.989 325.230, 328.078 324.731 C 326.936 324.432, 325.806 324.504, 325.567 324.892 M 376.015 324.750 C 376.024 325.163, 376.454 326.169, 376.971 326.987 C 377.710 328.156, 377.875 327.996, 377.743 326.237 C 377.594 324.255, 375.977 322.863, 376.015 324.750 M 276 330 C 276 331.264, 278.043 331.264, 280 330 C 281.169 329.245, 280.893 329.027, 278.750 329.015 C 277.238 329.007, 276 329.450, 276 330 M 266.991 332.489 C 267.671 333.308, 268.633 333.727, 269.130 333.420 C 270.406 332.631, 269.185 331, 267.319 331 C 266.047 331, 265.986 331.278, 266.991 332.489 M 314.630 332.670 C 312.045 334.039, 311.913 334.342, 313.303 335.731 C 315.048 337.476, 317.743 336.834, 318.655 334.455 C 319.644 331.878, 317.729 331.029, 314.630 332.670 M 373.362 333.500 C 373.045 334.325, 371.992 335, 371.022 335 C 369.605 335, 369.123 336.200, 368.568 341.105 C 368.188 344.463, 368.117 347.450, 368.410 347.744 C 369.224 348.557, 371 343.241, 371 339.994 C 371 338.412, 371.521 336.796, 372.158 336.403 C 372.961 335.906, 373.131 336.391, 372.713 337.988 C 372.383 339.253, 372.489 339.886, 372.951 339.394 C 374.013 338.261, 375.366 332, 374.548 332 C 374.212 332, 373.678 332.675, 373.362 333.500 M 226.800 334.200 C 227.733 335.133, 228.267 335.133, 229.200 334.200 C 230.133 333.267, 229.867 333, 228 333 C 226.133 333, 225.867 333.267, 226.800 334.200 M 254.750 335.662 C 255.438 335.940, 256.563 335.940, 257.250 335.662 C 257.938 335.385, 257.375 335.158, 256 335.158 C 254.625 335.158, 254.063 335.385, 254.750 335.662 M 295.500 336 C 295.160 336.550, 295.557 337, 296.382 337 C 297.207 337, 298.160 336.550, 298.500 336 C 298.840 335.450, 298.443 335, 297.618 335 C 296.793 335, 295.840 335.450, 295.500 336 M 327.207 336.960 C 328.090 338.374, 328.645 338.583, 329.200 337.710 C 330.452 335.740, 330.122 335, 327.992 335 C 326.247 335, 326.144 335.258, 327.207 336.960 M 282.813 339.683 C 283.534 339.972, 284.397 339.936, 284.729 339.604 C 285.061 339.272, 284.471 339.036, 283.417 339.079 C 282.252 339.127, 282.015 339.364, 282.813 339.683 M 272 341.833 C 272 343.241, 273.126 343.889, 274.592 343.326 C 275.360 343.032, 275.740 342.388, 275.435 341.895 C 274.737 340.766, 272 340.717, 272 341.833 M 193.510 345.016 C 193.856 345.575, 194.557 345.774, 195.069 345.457 C 196.456 344.600, 196.198 344, 194.441 344 C 193.584 344, 193.165 344.457, 193.510 345.016 M 313 346 C 313 346.550, 313.423 347, 313.941 347 C 314.459 347, 315.160 346.550, 315.500 346 C 315.840 345.450, 315.416 345, 314.559 345 C 313.702 345, 313 345.450, 313 346 M 371.704 347.329 C 370.842 348.644, 369.975 351.470, 369.776 353.610 C 369.424 357.394, 369.383 357.432, 368.271 355 L 367.127 352.500 367.063 355.167 C 367.029 356.633, 367.563 358.070, 368.250 358.359 C 369.145 358.735, 369.003 359.198, 367.750 359.992 C 366.647 360.690, 366.026 362.282, 366.070 364.300 C 366.130 367.040, 366.271 367.212, 367.047 365.500 C 367.808 363.822, 367.918 363.982, 367.727 366.500 C 367.566 368.627, 367.006 369.462, 365.803 369.370 C 364.729 369.288, 363.893 370.209, 363.526 371.880 C 362.658 375.834, 363.179 384.993, 364.312 385.693 C 364.938 386.080, 365.102 384.800, 364.757 382.226 C 364.401 379.569, 364.694 377.455, 365.597 376.165 C 366.360 375.075, 367.113 373.355, 367.271 372.342 C 367.429 371.329, 367.891 369.966, 368.298 369.314 C 368.706 368.662, 369.629 364.162, 370.350 359.314 C 371.070 354.466, 372.223 349.449, 372.911 348.164 C 374.606 345, 373.659 344.345, 371.704 347.329 M 293 347 C 293 347.550, 293.450 348, 294 348 C 294.550 348, 295 347.550, 295 347 C 295 346.450, 294.550 346, 294 346 C 293.450 346, 293 346.450, 293 347 M 326.500 348 C 326.840 348.550, 327.541 349, 328.059 349 C 328.577 349, 329 348.550, 329 348 C 329 347.450, 328.298 347, 327.441 347 C 326.584 347, 326.160 347.450, 326.500 348 M 265.813 351.683 C 266.534 351.972, 267.397 351.936, 267.729 351.604 C 268.061 351.272, 267.471 351.036, 266.417 351.079 C 265.252 351.127, 265.015 351.364, 265.813 351.683 M 270.015 351.536 C 270.043 353.257, 271.871 355.463, 272.636 354.697 C 273.046 354.288, 272.620 353.192, 271.690 352.262 C 270.761 351.332, 270.007 351.005, 270.015 351.536 M 252.667 352.667 C 251.276 354.057, 252.026 356.999, 253.750 356.921 C 254.795 356.874, 254.997 356.639, 254.250 356.338 C 253.563 356.060, 253 355.210, 253 354.448 C 253 353.672, 253.615 353.299, 254.399 353.600 C 255.168 353.895, 256.095 353.656, 256.458 353.068 C 257.174 351.910, 253.783 351.551, 252.667 352.667 M 258.500 355 C 258.840 355.550, 259.316 356, 259.559 356 C 259.802 356, 260 355.550, 260 355 C 260 354.450, 259.523 354, 258.941 354 C 258.359 354, 258.160 354.450, 258.500 355 M 192.813 355.683 C 193.534 355.972, 194.397 355.936, 194.729 355.604 C 195.061 355.272, 194.471 355.036, 193.417 355.079 C 192.252 355.127, 192.015 355.364, 192.813 355.683 M 294 359 C 294 359.550, 294.675 360, 295.500 360 C 296.325 360, 297 359.550, 297 359 C 297 358.450, 296.325 358, 295.500 358 C 294.675 358, 294 358.450, 294 359 M 326 359 C 326 359.550, 326.702 360, 327.559 360 C 328.416 360, 328.840 359.550, 328.500 359 C 328.160 358.450, 327.459 358, 326.941 358 C 326.423 358, 326 358.450, 326 359 M 279.565 361.895 C 278.870 363.019, 281.826 364.226, 283.197 363.378 C 283.835 362.984, 283.708 362.430, 282.857 361.890 C 281.109 360.783, 280.251 360.784, 279.565 361.895 M 190.222 366.166 C 190.739 367.716, 193.881 367.976, 194.250 366.500 C 194.387 365.950, 193.437 365.350, 192.139 365.166 C 190.520 364.937, 189.917 365.251, 190.222 366.166 M 254 368 C 254 368.550, 254.675 369, 255.500 369 C 256.325 369, 257 368.550, 257 368 C 257 367.450, 256.325 367, 255.500 367 C 254.675 367, 254 367.450, 254 368 M 314.208 367.676 C 313.221 368.072, 313.189 368.523, 314.072 369.586 C 315.399 371.185, 317 370.559, 317 368.441 C 317 366.950, 316.417 366.790, 314.208 367.676 M 327.731 369.920 C 327.296 371.583, 327.426 371.974, 328.168 371.232 C 328.750 370.650, 329.028 369.585, 328.788 368.863 C 328.538 368.114, 328.085 368.568, 327.731 369.920 M 293.500 370 C 293.840 370.550, 294.766 371, 295.559 371 C 296.352 371, 297 370.550, 297 370 C 297 369.450, 296.073 369, 294.941 369 C 293.809 369, 293.160 369.450, 293.500 370 M 207 372.059 C 207 372.641, 207.450 372.840, 208 372.500 C 208.550 372.160, 209 371.684, 209 371.441 C 209 371.198, 208.550 371, 208 371 C 207.450 371, 207 371.477, 207 372.059 M 278.585 372.748 C 278.293 373.040, 278.294 373.666, 278.586 374.139 C 279.286 375.272, 283 375.253, 283 374.117 C 283 373.089, 279.369 371.964, 278.585 372.748 M 189.516 376.975 C 188.708 378.282, 191.009 379.391, 192.154 378.246 C 192.794 377.606, 192.602 377.061, 191.599 376.676 C 190.755 376.352, 189.817 376.487, 189.516 376.975 M 255.800 378.200 C 256.733 379.133, 257.267 379.133, 258.200 378.200 C 259.133 377.267, 258.867 377, 257 377 C 255.133 377, 254.867 377.267, 255.800 378.200 M 316.500 379 C 316.160 379.550, 316.809 380, 317.941 380 C 319.073 380, 320 379.550, 320 379 C 320 378.450, 319.352 378, 318.559 378 C 317.766 378, 316.840 378.450, 316.500 379 M 327.710 381 C 327.998 382.100, 328.631 383, 329.117 383 C 329.602 383, 330 382.100, 330 381 C 330 379.900, 329.367 379, 328.594 379 C 327.680 379, 327.370 379.700, 327.710 381 M 297.500 382 C 297.840 382.550, 298.541 383, 299.059 383 C 299.577 383, 300 382.550, 300 382 C 300 381.450, 299.298 381, 298.441 381 C 297.584 381, 297.160 381.450, 297.500 382 M 204 383 C 203.099 383.582, 202.975 383.975, 203.691 383.985 C 204.346 383.993, 205.160 383.550, 205.500 383 C 206.267 381.758, 205.921 381.758, 204 383 M 269.703 387.401 C 271.216 389.422, 271.637 389.561, 272.366 388.281 C 273.272 386.693, 271.675 385.045, 269.203 385.015 C 268.283 385.004, 268.428 385.696, 269.703 387.401 M 255 386.729 C 253.421 387.330, 252.041 388.970, 252.015 390.275 C 251.996 391.262, 257.098 393.235, 257.816 392.518 C 258.112 392.222, 257.504 391.358, 256.465 390.598 C 254.860 389.425, 254.777 388.974, 255.910 387.608 C 257.338 385.888, 257.301 385.853, 255 386.729 M 362.272 390 C 362.272 392.475, 362.467 393.488, 362.706 392.250 C 362.944 391.012, 362.944 388.988, 362.706 387.750 C 362.467 386.512, 362.272 387.525, 362.272 390 M 191.813 387.683 C 192.534 387.972, 193.397 387.936, 193.729 387.604 C 194.061 387.272, 193.471 387.036, 192.417 387.079 C 191.252 387.127, 191.015 387.364, 191.813 387.683 M 313.565 388.895 C 313.260 389.388, 313.748 390.073, 314.649 390.419 C 316.596 391.166, 317.458 390.550, 316.541 389.067 C 315.737 387.766, 314.313 387.684, 313.565 388.895 M 326.773 391.227 C 327.438 392.028, 327.687 392.980, 327.325 393.342 C 326.963 393.704, 327.450 394, 328.407 394 C 330.812 394, 330.037 390.631, 327.520 390.146 C 325.907 389.835, 325.776 390.025, 326.773 391.227 M 284.269 392.693 C 285.242 392.947, 286.592 392.930, 287.269 392.656 C 287.946 392.382, 287.150 392.175, 285.500 392.195 C 283.850 392.215, 283.296 392.439, 284.269 392.693 M 291.203 392.854 C 290.144 393.525, 290.150 393.880, 291.236 394.781 C 292.825 396.100, 295.567 394.727, 294.569 393.112 C 293.757 391.798, 292.963 391.737, 291.203 392.854 M 278 396 C 278 396.550, 278.450 397, 279 397 C 279.550 397, 280 396.550, 280 396 C 280 395.450, 279.550 395, 279 395 C 278.450 395, 278 395.450, 278 396 M 191.813 396.683 C 192.534 396.972, 193.397 396.936, 193.729 396.604 C 194.061 396.272, 193.471 396.036, 192.417 396.079 C 191.252 396.127, 191.015 396.364, 191.813 396.683 M 208.813 397.683 C 209.534 397.972, 210.397 397.936, 210.729 397.604 C 211.061 397.272, 210.471 397.036, 209.417 397.079 C 208.252 397.127, 208.015 397.364, 208.813 397.683 M 227.739 398.889 C 227.061 401.484, 228.362 403.268, 230.620 402.840 C 231.810 402.614, 232.616 401.477, 232.816 399.741 C 233.085 397.413, 232.764 397, 230.683 397 C 229.122 397, 228.054 397.685, 227.739 398.889 M 267.627 398.530 C 267.188 399.675, 267.495 400.051, 268.682 399.823 C 270.458 399.481, 270.800 397.767, 269.198 397.233 C 268.675 397.058, 267.968 397.642, 267.627 398.530 M 321 398.083 C 321 398.771, 320.716 399.049, 320.369 398.702 C 320.021 398.355, 318.937 398.499, 317.959 399.022 C 315.838 400.157, 316.448 404, 318.749 404 C 320.555 404, 324.189 400.068, 323.711 398.633 C 323.201 397.104, 321 396.658, 321 398.083 M 229 399.441 C 229 400.234, 229.450 401.160, 230 401.500 C 230.550 401.840, 231 401.191, 231 400.059 C 231 398.927, 230.550 398, 230 398 C 229.450 398, 229 398.648, 229 399.441 M 253 400.031 C 253 401.480, 255.671 402.340, 257.722 401.553 C 259.197 400.987, 259.233 400.759, 257.972 399.962 C 255.994 398.710, 253 398.752, 253 400.031 M 297 400.959 C 295.082 401.445, 294.871 401.735, 296.091 402.204 C 296.966 402.540, 298.303 402.431, 299.062 401.962 C 301.028 400.747, 299.936 400.215, 297 400.959 M 204 402 C 204 402.550, 204.675 403, 205.500 403 C 206.325 403, 207 402.550, 207 402 C 207 401.450, 206.325 401, 205.500 401 C 204.675 401, 204 401.450, 204 402 M 190.500 408 C 190.840 408.550, 191.766 409, 192.559 409 C 193.352 409, 194 408.550, 194 408 C 194 407.450, 193.073 407, 191.941 407 C 190.809 407, 190.160 407.450, 190.500 408 M 269.500 408 C 269.840 408.550, 270.316 409, 270.559 409 C 270.802 409, 271 408.550, 271 408 C 271 407.450, 270.523 407, 269.941 407 C 269.359 407, 269.160 407.450, 269.500 408 M 316.625 410.798 C 316.354 411.237, 316.534 412.245, 317.024 413.039 C 317.699 414.131, 318.199 414.201, 319.071 413.329 C 319.706 412.694, 319.923 411.685, 319.554 411.087 C 318.764 409.809, 317.324 409.667, 316.625 410.798 M 206 413.059 C 206 413.641, 206.450 413.840, 207 413.500 C 207.550 413.160, 208 412.684, 208 412.441 C 208 412.198, 207.550 412, 207 412 C 206.450 412, 206 412.477, 206 413.059 M 282 416 C 282 416.550, 282.450 417, 283 417 C 283.550 417, 284 416.550, 284 416 C 284 415.450, 283.550 415, 283 415 C 282.450 415, 282 415.450, 282 416 M 191 419 C 191 419.550, 191.675 420, 192.500 420 C 193.325 420, 194 419.550, 194 419 C 194 418.450, 193.325 418, 192.500 418 C 191.675 418, 191 418.450, 191 419 M 268 421 C 268 422.506, 268.522 423.046, 269.750 422.810 C 270.712 422.624, 271.500 421.810, 271.500 421 C 271.500 420.190, 270.712 419.376, 269.750 419.190 C 268.522 418.954, 268 419.494, 268 421 M 227.500 421 C 227.840 421.550, 228.991 422, 230.059 422 C 231.127 422, 232 421.550, 232 421 C 232 420.450, 230.848 420, 229.441 420 C 227.990 420, 227.149 420.433, 227.500 421 M 254 422 C 254 423.333, 254.667 424, 256 424 C 257.333 424, 258 423.333, 258 422 C 258 420.667, 257.333 420, 256 420 C 254.667 420, 254 420.667, 254 422 M 285 423.072 C 285 423.583, 286.318 424, 287.929 424 C 289.539 424, 291.532 424.675, 292.357 425.500 C 294.845 427.988, 298.919 427.020, 297.184 424.353 C 296.310 423.009, 285 421.820, 285 423.072 M 315.800 423.200 C 316.733 424.133, 317.267 424.133, 318.200 423.200 C 319.133 422.267, 318.867 422, 317 422 C 315.133 422, 314.867 422.267, 315.800 423.200 M 204.460 424.415 C 202.637 425.756, 202.622 425.905, 204.250 426.536 C 206.502 427.408, 209.283 426.348, 208.771 424.812 C 208.159 422.976, 206.609 422.834, 204.460 424.415 M 278.695 425.700 C 276.188 426.350, 277.090 428.246, 280.315 429.109 C 282.685 429.743, 283 429.544, 283 427.414 C 283 425.043, 282.301 424.765, 278.695 425.700 M 190 430 C 190 430.550, 191.350 431, 193 431 C 194.650 431, 196 430.550, 196 430 C 196 429.450, 194.650 429, 193 429 C 191.350 429, 190 429.450, 190 430 M 269.597 430.844 C 269.251 431.404, 269.455 432.163, 270.050 432.531 C 271.588 433.481, 272.580 432.180, 271.296 430.896 C 270.578 430.178, 270.019 430.161, 269.597 430.844 M 256 433.573 C 256 434.505, 256.680 435.015, 257.667 434.823 C 260.176 434.337, 260.520 432, 258.083 432 C 256.855 432, 256 432.646, 256 433.573 M 318.694 432.639 C 317.761 433.573, 318.888 435, 320.559 435 C 321.352 435, 322 434.325, 322 433.500 C 322 431.994, 319.889 431.444, 318.694 432.639 M 295.813 434.683 C 296.534 434.972, 297.397 434.936, 297.729 434.604 C 298.061 434.272, 297.471 434.036, 296.417 434.079 C 295.252 434.127, 295.015 434.364, 295.813 434.683 M 271.638 442.500 C 271.955 443.325, 272.391 444, 272.607 444 C 272.823 444, 273 443.325, 273 442.500 C 273 441.675, 272.564 441, 272.031 441 C 271.499 441, 271.322 441.675, 271.638 442.500 M 232 444 C 233.939 445.253, 235 445.253, 235 444 C 235 443.450, 233.988 443.007, 232.750 443.015 C 230.931 443.028, 230.787 443.216, 232 444 M 203 445 C 203 445.550, 203.900 446, 205 446 C 206.100 446, 207 445.550, 207 445 C 207 444.450, 206.100 444, 205 444 C 203.900 444, 203 444.450, 203 445 M 315 445 C 315 445.550, 316.152 446, 317.559 446 C 319.010 446, 319.851 445.567, 319.500 445 C 319.160 444.450, 318.009 444, 316.941 444 C 315.873 444, 315 444.450, 315 445 M 291.320 445.937 C 293.970 446.306, 296.479 447.156, 296.893 447.827 C 297.446 448.721, 298.137 448.506, 299.479 447.024 C 301.302 445.009, 301.279 445.001, 293.905 445.134 C 287.016 445.258, 286.836 445.314, 291.320 445.937 M 315 447.393 C 315 448.342, 317.993 448.820, 318.527 447.956 C 318.852 447.430, 318.191 447, 317.059 447 C 315.927 447, 315 447.177, 315 447.393 M 280.500 449 C 280.840 449.550, 281.766 450, 282.559 450 C 283.352 450, 284 449.550, 284 449 C 284 448.450, 283.073 448, 281.941 448 C 280.809 448, 280.160 448.450, 280.500 449 M 190.750 449.662 C 191.438 449.940, 192.563 449.940, 193.250 449.662 C 193.938 449.385, 193.375 449.158, 192 449.158 C 190.625 449.158, 190.063 449.385, 190.750 449.662 M 226 451 C 227.958 452.266, 229.282 452.266, 228.500 451 C 228.160 450.450, 227.121 450.007, 226.191 450.015 C 224.734 450.029, 224.707 450.165, 226 451 M 252.500 453 C 252.160 453.550, 252.584 454, 253.441 454 C 254.298 454, 255 453.550, 255 453 C 255 452.450, 254.577 452, 254.059 452 C 253.541 452, 252.840 452.450, 252.500 453 M 224 454.094 C 224 454.592, 224.900 455, 226 455 C 227.100 455, 228 454.827, 228 454.617 C 228 454.406, 227.100 453.998, 226 453.710 C 224.900 453.423, 224 453.595, 224 454.094 M 206.500 456 C 206.840 456.550, 207.316 457, 207.559 457 C 207.802 457, 208 456.550, 208 456 C 208 455.450, 207.523 455, 206.941 455 C 206.359 455, 206.160 455.450, 206.500 456 M 317 458 C 317 458.550, 317.477 459, 318.059 459 C 318.641 459, 318.840 458.550, 318.500 458 C 318.160 457.450, 317.684 457, 317.441 457 C 317.198 457, 317 457.450, 317 458 M 190.500 461 C 190.160 461.550, 190.809 462, 191.941 462 C 193.073 462, 194 461.550, 194 461 C 194 460.450, 193.352 460, 192.559 460 C 191.766 460, 190.840 460.450, 190.500 461 M 264 461.393 C 264 461.609, 264.675 462.045, 265.500 462.362 C 266.325 462.678, 267 462.501, 267 461.969 C 267 461.436, 266.325 461, 265.500 461 C 264.675 461, 264 461.177, 264 461.393 M 305.218 466.154 C 305.464 466.895, 306.468 467.655, 307.448 467.846 C 308.588 468.066, 309.069 467.706, 308.782 466.846 C 308.536 466.105, 307.532 465.345, 306.552 465.154 C 305.412 464.934, 304.931 465.294, 305.218 466.154 M 264.967 472.195 C 266.432 473.768, 267.317 474.083, 268.093 473.307 C 269.301 472.099, 267.808 470.762, 264.711 470.279 C 263.098 470.028, 263.123 470.216, 264.967 472.195 M 227 473.993 C 227 476.278, 228.629 477.508, 229.336 475.756 C 229.738 474.758, 229.858 474.757, 229.921 475.750 C 230.028 477.450, 231.658 477.333, 232.332 475.577 C 232.689 474.647, 231.858 473.798, 229.939 473.129 C 227.363 472.230, 227 472.337, 227 473.993 M 193 474 C 193 474.550, 193.423 475, 193.941 475 C 194.459 475, 195.160 474.550, 195.500 474 C 195.840 473.450, 195.416 473, 194.559 473 C 193.702 473, 193 473.450, 193 474 M 251.500 474 C 250.825 475.092, 251.682 477, 252.846 477 C 253.247 477, 253.642 476.100, 253.725 475 C 253.883 472.897, 252.552 472.298, 251.500 474 M 307.667 480.667 C 306.755 481.578, 306.821 485.004, 307.750 484.985 C 309.603 484.947, 311.236 483.059, 310.677 481.601 C 310.033 479.923, 308.795 479.539, 307.667 480.667 M 272 483.059 C 272 483.641, 272.450 483.840, 273 483.500 C 273.550 483.160, 274 482.684, 274 482.441 C 274 482.198, 273.550 482, 273 482 C 272.450 482, 272 482.477, 272 483.059 M 195 485.583 C 195 487.349, 197.153 487.042, 197.771 485.188 C 197.989 484.534, 197.454 484, 196.583 484 C 195.713 484, 195 484.712, 195 485.583 M 221.598 486.666 C 222.574 490.741, 222.828 491.002, 225.809 490.985 C 230.741 490.957, 231.639 489.284, 227.131 488.522 C 224.669 488.106, 223 487.278, 223 486.471 C 223 485.727, 222.532 484.829, 221.960 484.475 C 221.278 484.054, 221.153 484.808, 221.598 486.666 M 307.817 488.529 C 306.101 492.315, 306.196 492.501, 309.055 490.971 C 310.162 490.378, 310.852 489.115, 310.682 487.996 C 310.187 484.756, 309.467 484.890, 307.817 488.529 M 268 490.059 C 268 490.641, 268.450 490.840, 269 490.500 C 269.550 490.160, 270 489.684, 270 489.441 C 270 489.198, 269.550 489, 269 489 C 268.450 489, 268 489.477, 268 490.059 M 310.459 497.067 C 310.096 497.653, 310.040 498.373, 310.333 498.667 C 311.050 499.383, 313 498.121, 313 496.941 C 313 495.663, 311.274 495.748, 310.459 497.067 M 290 498 C 290 498.550, 290.477 499, 291.059 499 C 291.641 499, 291.840 498.550, 291.500 498 C 291.160 497.450, 290.684 497, 290.441 497 C 290.198 497, 290 497.450, 290 498 M 228.516 502.975 C 227.708 504.282, 230.009 505.391, 231.154 504.246 C 231.794 503.606, 231.602 503.061, 230.599 502.676 C 229.755 502.352, 228.817 502.487, 228.516 502.975 M 288.583 515.866 C 288.152 516.563, 288.070 517.403, 288.400 517.733 C 289.295 518.628, 290.271 517.312, 289.787 515.862 C 289.449 514.846, 289.213 514.846, 288.583 515.866 M 264.448 665.752 C 410.170 665.890, 529.735 665.665, 530.148 665.252 C 530.562 664.838, 411.335 664.725, 265.200 665 L -0.500 665.500 264.448 665.752" stroke="none" fill="black" fill-rule="evenodd"/>
</svg>