<svg xmlns="http://www.w3.org/2000/svg" width="2048" height="2048" viewBox="0 0 2048 2048" version="1.1">
	<path d="M 381 524.992 C 347.569 526.167, 325.060 527.779, 310.500 530.040 C 268.322 536.592, 256.778 538.607, 241 542.172 C 207.094 549.834, 169.353 562.521, 137.505 576.964 C 123.975 583.100, 121.734 586.474, 118.548 605.500 C 117.627 611, 115.718 619.775, 114.306 625 C 112.010 633.497, 111.799 635.714, 112.309 646 C 113.052 661.010, 116.042 676.901, 119.809 685.868 C 123.129 693.769, 132.644 706.931, 137.440 710.256 C 144.610 715.227, 155.825 726.211, 157.815 730.213 C 158.987 732.571, 161.574 738.775, 163.563 744 C 169.856 760.531, 173.608 766.654, 183.478 776.500 C 192.013 785.015, 193.363 785.929, 208.500 793.452 C 228.392 803.338, 232.150 806.008, 241.428 816.838 C 255.378 833.122, 274.587 848.103, 294.729 858.406 C 307.967 865.177, 313.738 870.093, 322.892 882.395 C 333.170 896.210, 338.684 902.184, 348 909.602 C 352.675 913.325, 358.530 918.023, 361.010 920.043 C 363.491 922.062, 367.316 924.706, 369.510 925.917 C 378.254 930.742, 398.780 946.665, 402.749 951.702 C 407.555 957.800, 411.543 966.752, 414.361 977.767 C 418.759 994.954, 422.552 1003.341, 432.784 1018.500 C 443.443 1034.292, 452.078 1045.261, 456.314 1048.387 C 464.993 1054.792, 483.165 1081.769, 493.747 1103.957 C 502.197 1121.673, 503.781 1125.986, 502.964 1129.040 C 502.537 1130.640, 503.494 1135.677, 505.621 1143.020 C 507.836 1150.668, 508.955 1156.672, 508.973 1161.007 C 508.988 1164.585, 509.498 1169.085, 510.106 1171.007 C 512.239 1177.742, 513.740 1204.832, 513.069 1224.500 C 512.712 1234.950, 512.438 1260.825, 512.460 1282 C 512.498 1318.476, 512.614 1320.901, 514.677 1328.125 C 516.793 1335.535, 524.313 1351.763, 528.142 1357.179 C 532.433 1363.250, 545.239 1397.245, 549.468 1413.792 C 551.928 1423.417, 560.860 1443.785, 565.586 1450.547 C 575 1464.018, 598.810 1482.672, 623.779 1496.137 C 635.541 1502.481, 647.071 1513.506, 657.008 1527.913 C 660.578 1533.091, 666.717 1541.654, 670.649 1546.943 C 684.950 1566.179, 688.600 1569.117, 705.571 1575.053 C 720.138 1580.148, 731.927 1587.016, 754.141 1603.350 C 770.092 1615.078, 795.928 1623.254, 825.632 1625.974 C 845.167 1627.763, 864.480 1632.482, 884.859 1640.445 C 908.611 1649.726, 957.439 1658.982, 1003.885 1663.007 C 1021.841 1664.563, 1036.652 1660.930, 1055 1650.469 C 1061.325 1646.862, 1070.310 1642.090, 1074.967 1639.864 C 1084.403 1635.353, 1096.001 1628.176, 1100.367 1624.146 C 1106.298 1618.672, 1117.074 1604.938, 1124.086 1593.914 C 1128.080 1587.636, 1133.687 1579.575, 1136.546 1576 C 1145.513 1564.790, 1155.079 1549.831, 1171.721 1521 C 1175.054 1515.225, 1181.593 1503.975, 1186.252 1496 C 1190.911 1488.025, 1202.494 1467.775, 1211.991 1451 C 1221.489 1434.225, 1230.960 1417.800, 1233.038 1414.500 C 1236.442 1409.093, 1250.259 1385.489, 1256.745 1374 C 1259.433 1369.238, 1270.953 1351.154, 1291.825 1318.931 C 1298.796 1308.168, 1308.550 1292.773, 1313.500 1284.720 C 1318.450 1276.666, 1329.313 1259.074, 1337.640 1245.626 C 1345.967 1232.179, 1355.856 1215.949, 1359.615 1209.561 L 1366.449 1197.946 1367.687 1203.223 C 1375.356 1235.912, 1377.096 1246.587, 1377.671 1264.500 C 1378.222 1281.628, 1378.126 1282.960, 1375.696 1292 C 1372.402 1304.252, 1371.541 1312.704, 1373.249 1316 C 1374.973 1319.325, 1379.727 1319.839, 1382.945 1317.048 C 1384.243 1315.922, 1385.694 1315, 1386.169 1315 C 1387.816 1315, 1389.949 1308.433, 1392.503 1295.500 C 1395.969 1277.942, 1396.501 1269.487, 1395.090 1254.330 C 1393.973 1242.334, 1392.582 1234.965, 1386.273 1207.619 C 1382.972 1193.312, 1383.393 1177.759, 1387.406 1165.712 C 1388.833 1161.428, 1390.006 1156.028, 1390.014 1153.712 C 1390.032 1148.157, 1390.937 1145, 1392.513 1145 C 1394.328 1145, 1414.566 1135.445, 1418.138 1132.902 C 1419.775 1131.736, 1421.284 1130.951, 1421.491 1131.158 C 1421.698 1131.365, 1421.231 1136.026, 1420.453 1141.517 C 1418.534 1155.066, 1418.671 1163.327, 1421.052 1177.500 C 1422.161 1184.100, 1423.531 1192.425, 1424.097 1196 C 1424.663 1199.575, 1425.603 1204.023, 1426.185 1205.883 C 1426.767 1207.744, 1427.808 1211.794, 1428.497 1214.883 C 1429.187 1217.973, 1432.733 1229.041, 1436.376 1239.479 C 1440.019 1249.918, 1443 1259.720, 1443 1261.262 C 1443 1271.109, 1451.618 1276.473, 1457.687 1270.404 C 1460.178 1267.913, 1460.259 1267.476, 1459.685 1259.654 C 1459.100 1251.675, 1457.266 1245.372, 1449.022 1223 C 1444.460 1210.621, 1440.963 1197.174, 1435.978 1172.843 C 1434.367 1164.980, 1434.002 1159.221, 1434.012 1141.843 L 1434.024 1120.500 1439.762 1116.536 C 1447.795 1110.986, 1482.801 1077.331, 1491.806 1066.500 C 1499.233 1057.568, 1507 1043.727, 1507 1039.426 C 1507 1036.280, 1510.104 1022.660, 1511.059 1021.617 C 1511.503 1021.131, 1512.623 1023.381, 1513.547 1026.617 C 1514.471 1029.853, 1516.728 1035.425, 1518.561 1039 C 1528.547 1058.472, 1530.030 1062.449, 1534.039 1080.500 C 1536.238 1090.400, 1539.342 1102.550, 1540.936 1107.500 C 1546.376 1124.390, 1547.365 1132.694, 1546.627 1155.287 C 1546.263 1166.404, 1545.472 1179.325, 1544.867 1184 C 1544.071 1190.163, 1544.070 1193.260, 1544.864 1195.262 C 1547.026 1200.713, 1554.386 1201.393, 1557.630 1196.442 C 1562.208 1189.454, 1563.853 1138.763, 1560.158 1118.498 C 1559.055 1112.447, 1557.016 1104.112, 1555.628 1099.977 C 1554.240 1095.842, 1551.954 1086.843, 1550.548 1079.979 C 1546.739 1061.393, 1544.424 1053.249, 1541.788 1049.168 C 1540.484 1047.151, 1538.145 1042.456, 1536.590 1038.736 C 1535.035 1035.015, 1533.328 1031.703, 1532.797 1031.375 C 1532.266 1031.046, 1529.886 1026.665, 1527.509 1021.639 C 1524.718 1015.739, 1521.534 1010.823, 1518.523 1007.767 C 1515.959 1005.165, 1514.100 1002.648, 1514.392 1002.174 C 1514.685 1001.700, 1515.867 996.965, 1517.018 991.652 C 1518.169 986.338, 1520.018 979.405, 1521.126 976.245 C 1522.234 973.085, 1523.927 966.924, 1524.887 962.553 L 1526.632 954.605 1533.200 953.004 C 1539.694 951.421, 1539.797 951.428, 1542.400 953.667 C 1543.847 954.913, 1546.937 956.447, 1549.266 957.077 C 1554.983 958.623, 1566.578 957.769, 1571.484 955.441 C 1576.707 952.962, 1588.982 941.241, 1593.528 934.392 C 1597.489 928.424, 1608.621 903.396, 1609.603 898.250 C 1609.944 896.462, 1610.776 895, 1611.453 895 C 1613.193 895, 1639.163 900.543, 1653.876 904.055 C 1675.527 909.223, 1693.217 915.272, 1737.500 932.652 C 1802.190 958.041, 1825.884 970.663, 1861.917 998.927 C 1878.933 1012.275, 1884.813 1017.971, 1892.204 1028.269 C 1899.705 1038.719, 1902.127 1041, 1905.723 1041 C 1908.662 1041, 1912.015 1037.632, 1911.946 1034.750 C 1911.894 1032.618, 1907.923 1025.380, 1901.683 1016.042 C 1897.697 1010.078, 1889.932 1002.914, 1879.639 995.706 C 1874.765 992.293, 1865.990 985.964, 1860.139 981.643 C 1829.731 959.186, 1801.308 942.884, 1770.880 930.447 C 1694.904 899.393, 1675.385 893.051, 1631 884.996 C 1621.925 883.349, 1611.499 882.001, 1607.832 882.001 C 1601.360 882, 1601.103 881.902, 1599.113 878.683 C 1596.697 874.773, 1588.200 867.396, 1583.144 864.818 C 1581.135 863.794, 1577.376 862.986, 1574.539 862.968 C 1569.646 862.938, 1569.420 862.806, 1566.755 858.414 L 1564.009 853.892 1578.755 846.859 C 1598.207 837.582, 1619.251 828.169, 1631 823.491 C 1636.225 821.410, 1641.424 819.105, 1642.553 818.368 C 1644.427 817.145, 1665.732 809.240, 1687 801.875 C 1697.393 798.277, 1721.817 790.838, 1732 788.169 C 1736.125 787.088, 1748.500 783.728, 1759.500 780.701 C 1786.804 773.188, 1829.562 762.521, 1840.500 760.494 C 1845.450 759.576, 1854 757.971, 1859.500 756.926 C 1870.021 754.928, 1886.666 752.856, 1911.274 750.481 C 1928.089 748.858, 1942.908 749.727, 1954 752.986 C 1957.575 754.037, 1964.450 755.413, 1969.277 756.046 C 1976.960 757.052, 1978.362 756.993, 1980.527 755.574 C 1985.778 752.133, 1982.815 746.199, 1974.241 742.986 C 1945.118 732.072, 1919.360 732.695, 1846.500 746.074 C 1824.345 750.143, 1768.457 763.585, 1745 770.487 C 1738.675 772.349, 1729.537 774.798, 1724.693 775.930 C 1697.637 782.256, 1653.981 797.470, 1620.495 812.243 C 1600.092 821.243, 1569.044 836.678, 1560.548 842.044 L 1554.413 845.919 1547.956 843.802 C 1542.812 842.116, 1538.857 841.667, 1528.500 841.593 C 1515.534 841.500, 1515.478 841.510, 1507.202 845.250 C 1502.637 847.312, 1498.220 849, 1497.385 849 C 1496.550 849, 1494.434 847.907, 1492.682 846.571 C 1488.334 843.255, 1481.446 840.420, 1471.693 837.933 C 1454.526 833.555, 1449.463 833.035, 1435.407 834.202 L 1422.313 835.289 1407.907 830.429 C 1396.045 826.429, 1391.910 824.482, 1384.500 819.411 C 1355.286 799.418, 1308.564 772.847, 1262.500 750.030 C 1196.662 717.418, 1142.721 696.238, 1065 672.480 C 1017.282 657.894, 945.579 633.644, 903 617.691 C 882.506 610.013, 869.196 605.558, 856.500 602.126 C 835.976 596.578, 759.623 578.096, 734.151 572.510 C 720.208 569.453, 705.583 566.054, 701.651 564.956 C 697.718 563.858, 687.525 561.643, 679 560.033 C 670.475 558.424, 657.875 555.740, 651 554.069 C 644.125 552.398, 632.200 550.117, 624.500 549 C 616.800 547.883, 601.500 545.213, 590.500 543.067 C 556.366 536.409, 516.240 530.725, 491 528.973 C 483.025 528.420, 471.775 527.258, 466 526.391 C 453.346 524.491, 413.776 523.840, 381 524.992" stroke="none" fill="black" fill-rule="evenodd"/>
</svg>