<svg xmlns="http://www.w3.org/2000/svg" width="1000" height="1000" viewBox="0 0 1000 1000" version="1.1">
	<path d="M 384 71.671 C 384 72.590, 384.727 74.146, 385.615 75.127 C 387.010 76.669, 387.037 77.106, 385.811 78.332 C 385.030 79.113, 383.835 82.769, 383.156 86.457 C 382.475 90.151, 380.794 94.865, 379.414 96.951 C 373.886 105.304, 372.596 110.486, 372.434 125 C 372.308 136.218, 371.918 139.430, 370.126 144 L 367.970 149.500 368.434 144.500 C 368.689 141.750, 369.158 138.150, 369.476 136.500 C 370.240 132.539, 368.753 130.130, 366.631 131.891 C 363.636 134.376, 361.703 142.894, 361.877 152.832 C 362.023 161.212, 361.869 162.136, 360.511 161.009 C 358.684 159.493, 356.467 152.099, 354.985 142.578 C 353.513 133.130, 352.583 131.703, 351.008 136.474 C 349.412 141.311, 350.442 153.983, 353.142 162.724 C 355.071 168.971, 358.315 173.265, 369.325 184.149 L 372.149 186.942 370.629 194.221 C 369.793 198.224, 368.828 203.664, 368.484 206.308 C 368.141 208.953, 367.257 211.348, 366.520 211.631 C 364.023 212.589, 358.768 208.844, 345.856 196.905 C 335.323 187.165, 332.432 185, 329.959 185 C 323.653 185, 325.092 187.632, 338.634 200.863 C 350.753 212.704, 362.019 225.219, 361.985 226.802 C 361.914 230.017, 357.826 231.667, 348 232.445 C 327.573 234.062, 309 238.694, 309 242.172 C 309 245.351, 311.782 245.440, 325.909 242.711 C 344.705 239.080, 348.854 238.690, 355.616 239.915 C 363.851 241.406, 366.393 244.358, 365.499 251.392 C 365.142 254.201, 364.234 258.975, 363.481 262 C 362.728 265.025, 361.853 268.738, 361.537 270.250 C 360.364 275.860, 353.733 272.750, 343.146 261.626 C 337.729 255.934, 335.391 254.818, 334.383 257.443 C 333.460 259.850, 342.798 273.050, 350.871 280.750 C 359.335 288.822, 358.620 290.473, 349.141 284.741 C 346.194 282.958, 342.166 280.517, 340.190 279.315 C 336.305 276.953, 335 277.104, 335 279.918 C 335 283.292, 342.599 290.479, 350.879 294.935 C 355.316 297.323, 358.707 299.665, 358.414 300.139 C 357.455 301.691, 351.719 301.042, 347.241 298.875 C 341.836 296.258, 339.734 297.419, 342.429 301.532 C 344.347 304.459, 348.407 306.432, 354.618 307.454 L 358.736 308.131 359.413 315.607 C 360.087 323.041, 359.801 324.639, 354.355 343.878 C 354.096 344.790, 352.154 343.544, 348.617 340.199 C 343.338 335.206, 338.027 333.008, 334.508 334.359 C 331.890 335.363, 332.817 336.735, 339.750 342.122 C 343.462 345.006, 347.962 349.585, 349.750 352.296 C 352.607 356.630, 353 358.040, 353 363.964 C 353 371.907, 351.491 377.011, 349.152 376.975 C 348.243 376.961, 344.808 374.711, 341.518 371.975 C 335.013 366.565, 334.231 366.234, 333.352 368.525 C 332.379 371.061, 337.493 377.498, 344.185 382.161 C 347.965 384.794, 350.622 387.401, 350.803 388.656 C 351.158 391.108, 343.596 408.760, 339.796 414.351 L 337.178 418.202 335.856 415.851 C 334.998 414.324, 334.574 410.266, 334.647 404.279 C 334.751 395.740, 334.628 395.128, 332.985 396.008 C 329.318 397.970, 327.772 409.998, 329.969 419.472 C 330.475 421.656, 330.640 423.681, 330.335 423.972 C 330.031 424.262, 327.243 421.743, 324.141 418.374 C 319.191 412.999, 315.404 410, 313.566 410 C 312.324 410, 313.128 413.319, 315.505 418.010 C 318.154 423.237, 321.636 426.934, 329 432.340 L 333.500 435.643 333.141 443.951 C 332.495 458.877, 329.219 466.166, 326.167 459.468 C 324.761 456.382, 321.650 456.472, 321.200 459.612 C 320.966 461.242, 320.360 461.600, 318.450 461.235 C 314.977 460.571, 315.278 463.090, 319.001 465.843 C 320.652 467.063, 323.342 470.715, 324.979 473.959 C 326.616 477.202, 328.839 480.474, 329.917 481.229 C 331.228 482.148, 332.107 484.327, 332.568 487.802 C 333.375 493.885, 332.564 494.295, 327.443 490.389 C 325.561 488.953, 323.357 488.033, 322.546 488.344 C 320.087 489.288, 322.585 494.362, 328.401 500.233 C 333.156 505.033, 333.804 506.254, 335.715 514 C 336.868 518.675, 338.222 525.059, 338.724 528.188 L 339.637 533.875 336.068 532.385 C 334.106 531.566, 332.073 530.469, 331.550 529.948 C 330.283 528.683, 325 528.731, 325 530.007 C 325 530.560, 326.238 532.023, 327.750 533.257 C 329.262 534.490, 332.188 537.206, 334.250 539.292 C 337.616 542.695, 338.001 543.618, 338.005 548.292 C 338.008 551.156, 338.300 558, 338.653 563.500 C 339.290 573.406, 339.277 573.484, 337.319 571.750 C 332.288 567.295, 331.691 571.176, 335.921 580.832 C 340.295 590.815, 342.886 617, 339.500 617 C 337.576 617, 337.558 616.805, 340.500 628.401 C 343.542 640.393, 343.545 640.495, 340.777 638.557 C 335.679 634.986, 334.528 637.790, 338.374 644.412 C 341.593 649.955, 343.798 658.036, 344.987 668.644 C 345.532 673.515, 346.540 681.100, 347.225 685.500 C 347.911 689.900, 348.478 698.900, 348.486 705.500 C 348.498 715.633, 348.141 718.446, 346.193 723.578 C 344.923 726.920, 344.023 730.095, 344.193 730.632 C 344.362 731.169, 343.717 733.159, 342.760 735.054 C 339.582 741.348, 325.167 779.393, 322.588 788.292 C 316.830 808.163, 316.803 826.293, 322.512 838.703 C 326.558 847.497, 330.112 852.288, 334.683 855.113 C 337.584 856.906, 338.049 857.668, 337.523 859.765 C 336.910 862.205, 337.004 862.255, 340.967 861.621 C 343.796 861.169, 345.970 861.450, 348.080 862.541 C 352.689 864.925, 359 871.002, 359 873.057 C 359 875.646, 360.923 876.506, 362.711 874.717 C 364.660 872.769, 367.750 873.984, 380.317 881.640 C 385.259 884.651, 391.147 888.051, 393.401 889.196 C 395.656 890.341, 400.588 893.289, 404.362 895.747 C 413.092 901.433, 424.653 906.709, 432.278 908.488 C 440.309 910.361, 447.612 914.075, 455.728 920.415 C 465.987 928.428, 468.194 929.323, 478.500 929.650 C 487.965 929.951, 487.721 929.799, 474.122 926.933 C 469.429 925.944, 467.710 924.815, 460.622 918.069 C 450.991 908.901, 445.405 904.975, 435.738 900.579 L 428.572 897.320 436.036 895.601 C 440.141 894.655, 444.399 893.385, 445.497 892.778 C 448.864 890.918, 497.271 887.414, 532 886.516 C 569.741 885.541, 573.341 884.633, 542.500 883.865 C 513.800 883.152, 451.846 884.450, 438.500 886.044 C 433.853 886.600, 428.512 887.983, 425.757 889.344 C 421.096 891.647, 420.963 891.656, 418.007 889.858 C 416.353 888.852, 415 887.628, 415 887.138 C 415 886.647, 417.363 885.232, 420.250 883.993 C 427.014 881.089, 432.170 877.499, 438.973 870.952 C 445.953 864.235, 451.411 861.782, 467.503 858.131 C 474.651 856.508, 481.758 854.694, 483.297 854.098 C 485.856 853.106, 486.417 853.344, 489.915 856.913 C 494.901 862, 499.005 864.042, 505.613 864.724 C 513.213 865.508, 512.520 863.806, 503.467 859.452 C 496.517 856.109, 491.146 851.164, 493.521 850.294 C 494.060 850.098, 497.852 848.445, 501.949 846.622 C 518.399 839.303, 507.471 838.997, 489 846.260 C 482.675 848.747, 472.252 851.950, 465.839 853.379 C 447.169 857.538, 441.283 860.132, 432.162 868.222 C 423.817 875.623, 411.698 882, 405.977 882 C 402.821 882, 393.709 876.847, 383 869.004 C 375.496 863.509, 369.920 860.551, 365.108 859.511 C 363.242 859.108, 359.867 857.086, 357.608 855.016 C 355.348 852.947, 351.025 850.013, 348 848.497 C 344.975 846.980, 340.890 844.471, 338.922 842.922 C 334.266 839.256, 329.599 832.487, 330.360 830.503 C 330.860 829.202, 332.124 829.539, 338.228 832.602 C 342.227 834.610, 348.078 838.054, 351.230 840.257 C 358.195 845.125, 361.863 845.900, 378.193 845.956 C 389.977 845.997, 391.625 845.758, 401.217 842.615 C 423.435 835.337, 426.559 834.716, 437.987 835.299 C 443.769 835.594, 452.775 836.364, 458 837.010 C 470.852 838.599, 503.630 837.804, 510.976 835.725 C 515.949 834.318, 520.109 831.174, 521.156 828.032 C 521.358 827.425, 530.293 825.357, 541.012 823.435 C 557.996 820.389, 581.906 815.369, 588.732 813.415 C 590.512 812.906, 591.166 813.306, 591.957 815.388 C 593.080 818.342, 596.304 818.870, 599.527 816.628 C 602.249 814.736, 605.742 816.158, 605.776 819.172 C 605.790 820.452, 606.285 822.737, 606.876 824.250 C 608.902 829.434, 610 827.243, 610 818.019 C 610 809.516, 610.120 809.012, 612.250 808.551 C 613.487 808.283, 617.425 807.387, 621 806.559 C 645.211 800.953, 651.548 799.834, 663.351 799.076 C 670.583 798.611, 677.850 797.694, 679.500 797.038 C 681.150 796.382, 684.750 795.234, 687.500 794.488 C 691.583 793.380, 691.949 793.120, 689.493 793.066 C 687.840 793.030, 684.915 793.504, 682.993 794.120 C 681.072 794.735, 670.725 795.662, 660 796.178 C 649.275 796.695, 637.800 797.260, 634.500 797.435 C 627.882 797.784, 616.769 799.833, 601.500 803.518 C 596 804.846, 585.425 807.100, 578 808.526 C 570.575 809.953, 558.722 812.466, 551.661 814.110 C 544.600 815.754, 536.050 817.513, 532.661 818.018 C 514.586 820.716, 514.874 820.614, 512.614 825.147 C 510.604 829.179, 503.348 830.151, 479 829.650 C 460.611 829.272, 455.619 828.816, 444.500 826.498 C 428.266 823.114, 423.973 823.456, 405.930 829.569 C 398.544 832.071, 391.036 834.137, 389.247 834.159 C 387.458 834.182, 385.744 834.605, 385.438 835.100 C 385.132 835.595, 380.575 836, 375.312 836 C 365.866 836, 365.628 835.940, 356.997 831.389 C 345.733 825.450, 334.042 816.446, 331.515 811.763 C 329.762 808.516, 329.682 807.699, 330.831 804.792 C 333.049 799.181, 338.802 781.938, 341.603 772.500 C 344.936 761.273, 354.302 736.311, 357.689 729.627 C 359.965 725.136, 360.275 723.144, 360.659 710.556 C 360.974 700.266, 360.685 694.759, 359.581 690 C 358.751 686.425, 357.582 678.550, 356.983 672.500 C 356.384 666.450, 355.243 658.660, 354.447 655.188 C 352.128 645.073, 352.522 633.876, 355.397 628.203 C 358.620 621.843, 359.076 618.452, 356.681 618.650 C 355.338 618.761, 355.056 618.369, 355.601 617.150 C 356.008 616.243, 356.534 613.587, 356.771 611.250 C 357.264 606.382, 355.796 605.602, 353.694 609.615 C 352.461 611.968, 352.248 610.586, 351.575 595.865 C 351.163 586.864, 350.509 573.875, 350.121 567 C 349.170 550.156, 350.412 543.711, 355.418 539.507 C 359.429 536.140, 359.250 535, 354.708 535 C 351.944 535, 351.790 534.800, 352.360 531.950 C 352.695 530.273, 354.777 525.859, 356.985 522.142 C 359.193 518.425, 361 514.847, 361 514.192 C 361 512.005, 358.623 512.963, 354.811 516.685 C 352.735 518.712, 350.746 520.079, 350.390 519.723 C 349.047 518.381, 346.041 503.290, 344.888 492.107 C 343.743 480.992, 343.785 480.275, 345.845 475.616 C 348.631 469.319, 348.680 466, 345.988 466 C 344.183 466, 344.045 465.563, 344.644 461.750 C 345.068 459.054, 346.545 456.051, 348.685 453.537 C 352.181 449.428, 358 438.686, 358 436.340 C 358 434.972, 355.012 434.387, 354.985 435.750 C 354.977 436.163, 353.371 438.300, 351.417 440.500 L 347.864 444.500 348.401 438.400 C 349.128 430.143, 353.439 416.876, 356.255 414.230 C 357.513 413.048, 362.133 410.439, 366.521 408.431 C 375.175 404.472, 380 400.671, 380 397.813 C 380 395.478, 377.520 395.500, 374.154 397.866 C 372.694 398.892, 370.038 400.478, 368.250 401.391 C 364.015 403.555, 363.918 401.492, 368.148 399.203 C 372.726 396.726, 378 392.011, 378 390.396 C 378 388.659, 378.419 388.619, 371.492 391.003 C 368.291 392.104, 365.469 392.803, 365.221 392.555 C 364.974 392.307, 365.814 389.950, 367.089 387.317 C 369.202 382.951, 371.074 371, 369.644 371 C 369.316 371, 368.157 372.687, 367.068 374.750 L 365.088 378.500 365.044 369.708 C 364.994 359.699, 367.409 346.347, 369.739 343.750 C 370.929 342.424, 372.909 341.995, 377.905 341.978 C 385.959 341.951, 393 339.185, 393 336.049 C 393 333.648, 393.400 333.698, 385.324 335.104 C 376.219 336.690, 373.860 335.327, 381.562 332.930 C 389.595 330.429, 400 323.710, 400 321.022 C 400 318.317, 398.453 318.467, 390.870 321.905 C 387.346 323.503, 382.911 324.965, 381.014 325.155 C 378.022 325.454, 377.373 325.105, 376.117 322.520 C 374.032 318.225, 373.522 306.143, 375.049 297.208 C 376.160 290.712, 376.837 289.107, 379.353 287 C 390.725 277.478, 399.923 262.925, 396.072 260.545 C 395.562 260.229, 393.743 261.924, 392.029 264.310 C 388.487 269.242, 380.197 276.531, 379.230 275.564 C 378.498 274.831, 381.448 268.986, 383.908 266.296 C 384.811 265.308, 387.664 261.738, 390.247 258.363 C 392.830 254.987, 396.219 251.152, 397.777 249.841 C 399.336 248.530, 400.904 246.693, 401.262 245.760 C 403.187 240.743, 394.939 243.965, 387.940 250.965 C 385.150 253.754, 382.448 255.777, 381.934 255.459 C 380.679 254.684, 380.752 239.433, 382.033 234.821 C 382.943 231.543, 383.624 230.959, 388.277 229.460 C 391.150 228.534, 395.036 226.899, 396.913 225.826 C 398.821 224.735, 403.707 223.490, 407.996 223 C 416.615 222.017, 434.372 215.884, 438.714 212.391 C 440.938 210.601, 441.250 209.895, 440.261 208.886 C 439.264 207.869, 437.799 208.048, 432.761 209.802 C 424.468 212.689, 406 216.971, 406 216.007 C 406 215.588, 406.753 214.627, 407.674 213.872 C 413.755 208.886, 420.378 196, 416.860 196 C 416.232 196, 412.431 199.342, 408.411 203.428 C 399.982 211.995, 393.361 216.288, 389.300 215.820 C 384.936 215.318, 385.237 212.501, 389.997 209.288 C 403.713 200.028, 420.345 184.961, 426.054 176.624 C 427.603 174.361, 429.600 172.821, 431.500 172.424 C 437.249 171.223, 463.215 160.604, 463.738 159.240 C 464.719 156.683, 462.537 155.900, 458.431 157.335 C 456.269 158.090, 452.700 159.009, 450.500 159.377 L 446.500 160.045 449.500 157.816 C 454.544 154.067, 459 148.961, 459 146.929 C 459 143.907, 457.092 144.645, 448.523 150.981 C 444.136 154.225, 440.417 156.751, 440.260 156.593 C 440.103 156.436, 440.655 154.677, 441.487 152.686 C 442.319 150.694, 443 148.150, 443 147.032 C 443 145.045, 441.045 144.288, 439.613 145.720 C 439.217 146.116, 437.366 146.309, 435.499 146.148 C 433.624 145.987, 426.985 147.454, 420.663 149.428 C 414.370 151.393, 408.946 153, 408.610 153 C 406.984 153, 408.430 148.551, 412.696 140.435 C 415.278 135.521, 419.010 126.767, 420.988 120.982 C 425.324 108.305, 429.907 101.125, 439.091 92.622 C 442.891 89.104, 446 85.725, 446 85.113 C 446 84.501, 444.691 84, 443.092 84 C 441.133 84, 438.392 85.459, 434.694 88.471 C 426.043 95.519, 420.409 102.662, 416.391 111.679 C 414.349 116.262, 412.551 119.884, 412.395 119.729 C 412.240 119.573, 412.514 117.657, 413.006 115.470 C 417.750 94.357, 415.226 71, 408.201 71 C 405.981 71, 405.835 71.279, 406.490 74.250 C 406.885 76.037, 407.380 81.325, 407.591 86 L 407.974 94.500 406.043 90 C 404.981 87.525, 404.087 84.713, 404.056 83.750 C 404.025 82.787, 403.267 82, 402.371 82 C 400.837 82, 392 73.413, 392 71.923 C 392 71.141, 388.378 70.034, 385.750 70.014 C 384.776 70.006, 384 70.741, 384 71.671 M 389.042 81.750 C 389.013 83.991, 389.466 85, 390.500 85 C 392.427 85, 392.402 86.887, 390.422 90.855 C 388.746 94.215, 389.191 98.968, 391.490 102.276 C 392.572 103.832, 392.876 103.397, 393.941 98.776 C 396.526 87.569, 396.467 86.852, 392.619 82.500 L 389.083 78.500 389.042 81.750 M 399.707 102 C 398.565 106.202, 398.920 110.689, 400.500 112 C 401.796 113.076, 401.986 112.651, 401.900 108.872 C 401.845 106.468, 401.483 103.375, 401.094 102 L 400.387 99.500 399.707 102 M 380.711 109.807 C 379.220 113.826, 378 118.672, 378 120.576 C 378 123.770, 378.194 123.989, 380.500 123.411 C 382.643 122.873, 383 123.123, 383 125.169 C 383 126.481, 382.339 128.498, 381.531 129.652 C 380.180 131.582, 380.358 132.169, 383.781 137.049 C 385.827 139.964, 388.017 142.518, 388.648 142.724 C 390.362 143.283, 393.364 134.568, 392.664 131.068 C 392.337 129.435, 390.540 123.914, 388.671 118.800 C 386.802 113.685, 384.856 107.925, 384.347 106 L 383.421 102.500 380.711 109.807 M 376.339 145.585 C 375.325 149.368, 375.275 166.696, 376.269 170.250 C 377.258 173.788, 378.351 173.719, 381.033 169.953 C 385.180 164.130, 384.393 154.627, 379.034 145.815 L 377.121 142.670 376.339 145.585 M 430 152.431 C 426.425 153.686, 419.225 156.915, 414 159.607 L 404.500 164.500 408.952 164.817 C 413.885 165.169, 424.826 163.510, 428.278 161.887 C 429.500 161.312, 431.924 158.403, 433.665 155.421 C 435.405 152.440, 436.755 150.033, 436.665 150.074 C 436.574 150.115, 433.575 151.176, 430 152.431 M 409 177.693 C 395.660 181.530, 395.378 181.693, 393.167 186.836 C 392.064 189.401, 390.851 192.741, 390.470 194.259 C 389.850 196.734, 389.990 196.939, 391.831 196.258 C 395.379 194.946, 420.564 174.629, 418 175.147 C 417.725 175.203, 413.675 176.349, 409 177.693" stroke="none" fill="black" fill-rule="evenodd"/>
</svg>