<svg xmlns="http://www.w3.org/2000/svg" width="314" height="536" viewBox="0 0 314 536" version="1.1">
	<path d="M 16.603 18.731 C 16.271 19.062, 16 20.824, 16 22.646 C 16 26.609, 17.353 27.413, 35.713 34.370 C 53.481 41.102, 54.979 41.917, 55.118 44.935 C 55.184 46.346, 55.135 47.950, 55.011 48.500 C 53.576 54.867, 53.804 56.992, 56.011 57.808 C 58.091 58.578, 57.458 59.297, 48.409 66.444 C 42.980 70.732, 37.930 74.473, 37.188 74.758 C 36.173 75.148, 35.913 77.268, 36.141 83.297 C 36.412 90.439, 36.236 91.391, 34.539 91.986 C 33.211 92.452, 32.997 92.880, 33.833 93.397 C 34.493 93.804, 34.753 94.590, 34.412 95.143 C 34.070 95.696, 34.804 97.227, 36.042 98.545 C 37.855 100.474, 38.058 101.225, 37.084 102.398 C 36.080 103.608, 36.348 103.910, 38.661 104.178 C 41.089 104.459, 41.561 105.079, 42.329 109 C 43.341 114.165, 44.212 114.963, 48.857 114.985 C 51.427 114.996, 52.079 115.352, 51.638 116.500 C 51.322 117.325, 51.499 118, 52.031 118 C 52.564 118, 53 119.077, 53 120.393 C 53 122.812, 54.646 124, 57.995 124 C 59.515 124, 59.695 124.469, 59.053 126.750 C 58.531 128.604, 58.771 130.359, 59.788 132.137 C 61.187 134.581, 61.131 135.007, 59.023 137.968 C 57.078 140.699, 56.926 141.493, 57.972 143.447 C 58.645 144.704, 59.153 146.805, 59.102 148.116 C 59.052 149.427, 58.495 159.278, 57.865 170.007 C 57.235 180.735, 57.050 193.044, 57.455 197.359 C 58.112 204.378, 58.548 205.601, 61.595 208.973 C 64.492 212.180, 64.999 213.471, 64.993 217.621 C 64.984 223.589, 66.772 249.680, 67.911 260.197 C 68.708 267.555, 68.614 268.149, 65.786 273.697 C 62.858 279.441, 62.833 279.632, 63.317 292.500 C 63.716 303.111, 63.417 307.486, 61.689 316.309 C 59.921 325.343, 59.798 327.257, 60.944 327.966 C 62.092 328.675, 62.024 329.848, 60.527 335.157 C 58.298 343.059, 57.255 358.421, 58.879 359.425 C 59.506 359.813, 61.201 359.201, 62.645 358.065 C 68.225 353.675, 69.243 356.202, 65.638 365.500 C 64.786 367.700, 64.061 371.750, 64.029 374.500 C 63.963 380.104, 61.469 391.730, 59.935 393.578 C 59.385 394.241, 57.513 398.995, 55.775 404.142 C 52.875 412.733, 52.586 414.771, 52.252 429 C 51.821 447.339, 54.016 471.255, 56.369 473.855 C 57.533 475.142, 57.693 476.429, 57.044 479.303 C 56.069 483.627, 57.201 493.979, 59.526 502 C 60.403 505.025, 61.686 509.750, 62.377 512.500 C 63.419 516.647, 64.219 517.787, 67.067 519.185 C 72.246 521.727, 79.853 523.132, 84.947 522.488 C 94.597 521.268, 95.904 520.858, 99.645 517.878 C 101.765 516.189, 106.475 513.068, 110.111 510.941 C 113.746 508.815, 117.469 505.933, 118.384 504.537 C 119.975 502.109, 119.959 502, 118.023 502 C 116.384 502, 116 501.346, 116 498.561 L 116 495.121 122.881 494.443 C 131.931 493.551, 132.808 492.978, 131.287 488.949 C 130.147 485.928, 130.191 485.831, 132.442 486.396 C 134.534 486.921, 134.833 486.585, 135.249 483.242 C 135.559 480.748, 135.062 478.199, 133.759 475.597 C 132.683 473.451, 131.200 469.983, 130.462 467.891 L 129.120 464.088 135.350 457.544 C 138.776 453.945, 141.939 451, 142.378 451 C 142.817 451, 142.872 452.800, 142.500 455 C 141.741 459.495, 142.011 459.694, 145.633 457.321 C 147.614 456.023, 148.601 455.894, 149.977 456.753 C 151.510 457.711, 152.011 457.301, 153.592 453.796 C 154.601 451.558, 156.302 448.615, 157.371 447.256 L 159.314 444.785 160.513 447.025 C 161.692 449.227, 161.732 449.208, 162.910 445.882 C 164.006 442.790, 164.222 442.651, 165.427 444.267 C 166.152 445.238, 167.063 449.684, 167.452 454.146 C 168.137 461.997, 169.789 468.972, 169.937 464.633 C 169.983 463.270, 170.539 462.908, 172 463.290 C 173.653 463.722, 174 463.320, 174 460.978 C 174 459.419, 174.777 457.366, 175.726 456.417 C 176.925 455.218, 177.570 452.599, 177.839 447.845 C 178.052 444.080, 178.591 441, 179.037 441 C 179.483 441, 180.895 442.367, 182.174 444.037 C 183.453 445.707, 185.678 448.519, 187.118 450.287 C 188.558 452.054, 190.909 455.750, 192.344 458.500 C 195.520 464.589, 197.773 467.560, 198.594 466.739 C 198.932 466.401, 201.857 467.513, 205.095 469.210 C 209.451 471.494, 211.797 473.567, 214.119 477.186 C 215.845 479.875, 217.468 481.865, 217.726 481.607 C 217.984 481.349, 217.701 478.835, 217.098 476.020 C 215.345 467.847, 215.797 467.985, 220.548 477.076 C 224.608 484.845, 235.958 499.078, 234.572 494.663 C 233.659 491.753, 232.666 484.448, 233.258 485 C 233.554 485.275, 235.438 488.313, 237.446 491.750 C 240.864 497.603, 243.809 500.177, 242.593 496.250 C 242.295 495.287, 241.358 491.177, 240.511 487.116 L 238.971 479.732 242.369 472.616 C 244.238 468.702, 246.975 464.381, 248.451 463.013 L 251.134 460.526 252.837 462.784 L 254.541 465.043 260.739 460.533 C 264.148 458.053, 267.596 454.749, 268.401 453.191 C 271.910 446.405, 277.131 419.568, 277.078 408.584 C 277.062 405.238, 277.065 400.959, 277.083 399.075 C 277.103 397.173, 276.230 394.450, 275.121 392.950 C 273.415 390.642, 273.135 388.743, 273.193 379.875 C 273.268 368.563, 272.540 366.083, 266.770 358 C 261.759 350.979, 254.397 344.361, 243.250 336.856 C 237.612 333.061, 233 329.722, 233 329.438 C 233 328.164, 237.008 321.238, 238.427 320.061 C 239.292 319.343, 240 318.079, 240 317.253 C 240 315.094, 246.764 293.642, 249.811 286.140 C 251.231 282.642, 253.701 278.142, 255.299 276.140 C 258.372 272.289, 263.243 263.189, 264.473 259 C 264.877 257.625, 266.136 254.595, 267.272 252.268 C 269.018 248.690, 269.150 247.626, 268.131 245.388 C 267.137 243.207, 267.196 242.441, 268.462 241.042 C 270.434 238.863, 270.421 235.572, 268.430 232.533 C 267.368 230.913, 266.538 225.823, 265.868 216.818 C 265.323 209.493, 264.237 200.947, 263.455 197.826 C 262.104 192.430, 262.157 191.773, 264.551 184.440 C 265.936 180.199, 267.903 175.667, 268.923 174.371 C 270.515 172.347, 270.796 170.002, 270.909 157.835 C 270.981 150.037, 271.410 143.171, 271.863 142.578 C 272.824 141.319, 272.691 137.694, 271.535 133.619 C 270.905 131.398, 271.093 130.527, 272.359 129.819 C 273.261 129.314, 274 127.975, 274 126.843 C 274 125.255, 274.399 124.963, 275.750 125.563 C 276.712 125.991, 279.525 126.541, 282 126.786 C 286.460 127.227, 286.484 127.213, 284.679 125.208 C 283.677 124.096, 280.442 121.257, 277.488 118.901 C 271.829 114.385, 271.422 113, 275.755 113 C 278.183 113, 278.040 112.773, 273.946 110.134 C 271.501 108.558, 268.194 105.875, 266.598 104.171 C 264.213 101.625, 263.916 100.807, 264.930 99.584 C 265.609 98.766, 265.872 97.172, 265.514 96.043 C 265.074 94.659, 265.373 93.794, 266.431 93.388 C 268.449 92.614, 268.421 91.123, 266.345 88.829 C 264.750 87.067, 265.133 87, 276.845 87 L 289 87 289 81.609 L 289 76.219 281.653 75.848 C 275.023 75.513, 273.940 75.155, 270.542 72.171 C 265.062 67.360, 262.608 66.655, 251.500 66.702 C 243.342 66.736, 239.996 67.248, 233.338 69.476 L 225.176 72.207 201.338 67.178 C 188.227 64.412, 164 59.627, 147.500 56.544 C 102.200 48.082, 105.265 48.932, 100.547 43.522 C 96.986 39.438, 95.614 38.649, 89.119 36.954 C 85.059 35.894, 81.232 34.608, 80.615 34.095 C 79.662 33.305, 73.527 33.334, 57.486 34.206 C 55.634 34.307, 48.310 31.626, 38.486 27.251 C 19.233 18.678, 17.378 17.956, 16.603 18.731 M 103.800 64.200 C 105.622 66.022, 105.236 68, 103.059 68 C 100.050 68, 99.748 69.585, 101.937 73.877 C 103.595 77.126, 104.846 78.120, 109.026 79.509 C 114.777 81.419, 115.111 83.350, 109.767 83.805 C 106.851 84.053, 106.067 84.597, 105.527 86.749 C 105.019 88.771, 105.369 89.769, 107.019 91.015 L 109.174 92.640 106.884 94.161 L 104.593 95.682 107.796 99.569 C 109.558 101.707, 111 104.237, 111 105.193 C 111 106.148, 112.011 107.471, 113.247 108.132 L 115.495 109.335 112.719 110.260 C 110.299 111.067, 110.006 111.589, 110.430 114.343 C 110.697 116.079, 111.190 120.200, 111.524 123.500 C 111.859 126.800, 113.265 132.833, 114.649 136.906 C 118.023 146.838, 118.234 154.472, 115.250 158.654 C 112.277 162.822, 112.404 163.631, 116.145 164.379 L 119.289 165.008 118.709 171.929 C 118.390 175.736, 117.406 180.247, 116.523 181.956 L 114.917 185.061 124.694 195.531 L 134.470 206 139.677 206 C 144.743 206, 145.013 205.851, 149.604 200.534 L 154.322 195.069 163.849 194.784 L 173.375 194.500 176.691 188.820 C 178.515 185.695, 181.218 182.187, 182.697 181.024 C 185.534 178.792, 191.223 168.170, 190.344 166.747 C 190.060 166.288, 190.372 165.257, 191.036 164.456 C 192.010 163.283, 191.930 163, 190.622 163 C 188.591 163, 188.535 161.631, 190.500 160 C 191.325 159.315, 192 158.336, 192 157.823 C 192 156.129, 195.820 148.560, 198.466 145.010 C 200.382 142.440, 201.019 140.464, 200.882 137.510 C 200.649 132.455, 201.938 123.156, 202.960 122.525 C 203.384 122.262, 203.516 120.918, 203.252 119.536 C 202.925 117.829, 203.288 116.827, 204.386 116.405 C 205.274 116.065, 206 115.338, 206 114.790 C 206 114.242, 207.912 111.664, 210.250 109.061 C 216.513 102.086, 217.653 99.589, 215.994 96.488 C 214.802 94.261, 214.867 93.812, 216.575 92.520 C 217.634 91.719, 218.838 91.049, 219.250 91.032 C 219.662 91.014, 220 88.595, 220 85.655 C 220 78.300, 218.663 77.335, 205.921 75.491 C 190.726 73.293, 189.447 73.144, 167 70.949 C 155.725 69.846, 138.862 67.607, 129.526 65.972 C 111.262 62.774, 101.716 62.116, 103.800 64.200" stroke="none" fill="black" fill-rule="evenodd"/>
</svg>