<?xml version="1.0" encoding="UTF-8" standalone="no"?>
<!-- Created with Inkscape (http://www.inkscape.org/) -->

<svg
   xmlns:svg="http://www.w3.org/2000/svg"
   xmlns="http://www.w3.org/2000/svg"
   version="1.2"
   width="496.60699"
   height="556.41199"
   viewBox="0 0 496.607 556.412"
   id="Layer_1"
   xml:space="preserve"
   style="overflow:inherit"><defs
   id="defs13" />
<path
   d="m 236.232,213.087 -8.075,-18.125 -3.4,-24.45 2.05,-20.75 3.425,-26.875 3.425,-19.825 3.8,-12.15 -4.175,-8.1 -3.475,-5.7 -1.2,-5.4 v -12.4 l 6.15,-10.95 4.8,-1.65 4.8,1.1 4.8,12.25 3.95,5 -13.55,19.1 -0.1,0.35 14.05,-18.9 16.45,-15.2 12.649,-7.4 15.4,-3.7 18.5,-0.75 0.55,1.75 -0.5,-2.2 1.2,-14.8 3.75,-8.725 0.9,-2.025 4.75,-6.65 1.55,-1.275 -1.55,1.275 -4.75,6.65 -0.9,2.025 0.85,-2.025 4.801,-6.7 1.55,-1.225 2.55,-2.075 11.15,-2.05 15.25,4.25 8.899,6.7 9.9,24.65 1.05,8.85 -0.15,0.55 -1.6,5.6 c -0.066,0.2 -0.134,0.4 -0.2,0.6 -0.066,0.2 -0.133,0.367 -0.2,0.5 -0.1,0.167 -0.183,0.3 -0.25,0.4 -0.133,0.233 -0.25,0.35 -0.35,0.35 -0.1,0 -0.3,0.133 -0.6,0.4 l -0.101,0.1 c -0.108,0.117 -0.225,0.25 -0.35,0.4 -0.078,0.078 -0.162,0.162 -0.25,0.25 l -0.075,0.1 -0.5,0.575 c -0.104,0.133 -0.213,0.275 -0.325,0.425 -0.125,0.146 -0.258,0.304 -0.399,0.475 l -0.25,0.325 -5,6.6 -3.101,2.75 v 0.9 l 1.226,-1.3 -1.226,1.35 v 1.1 -1.1 l 1.226,-1.35 2.125,-2.3 8.55,6.675 1.399,1.075 1.2,1.375 8.351,9.375 9.949,16.35 12,12.95 5.45,11.85 15.4,13 17.975,19.075 1.226,1.275 1.149,1.55 11.15,14.75 0.7,11.15 -0.226,-0.15 0.4,0.7 8.075,13.85 8.899,23.35 0.3,0.75 v 0.05 l 1.95,22 8.75,42.45 0.45,2.1 0.25,2.7 2.65,26.101 2.375,29.199 0.225,-0.149 0.35,35.6 -2.05,44.851 -7.85,26.649 -17.15,26.7 -9.899,18.15 -10.95,11.5 -21.601,7.399 -15.3,6 -0.375,0.15 -0.024,0.2 -17.101,17.449 -41.649,0.9 -33.65,2.4 -38.35,8.55 -24.65,3.35 h -36.3 l -18.8,-5.399 -7.55,-12.2 -3.7,-6.726 -0.325,-0.574 -0.025,0.35 -53.75,5.2 -27.325,2.024 -5.225,0.65 -23.25,4.375 -16.45,1.85 -22.25,-3.699 -25.7,-3.7 -14.35,-12.25 0.7,-23 9.25,-25.95 17.1,-2.6 15.4,2.25 16.45,4.449 51.35,-10.75 1.3,0.125 -1.7,-5.675 -2.9,-19.149 4.6,-9.7 15.075,-18.775 1.125,-1.425 8.95,-14.15 12.6,-17.05 0.425,-0.85 5.375,-11.2 10.2,-13.35 28.55,-30.9 -3.4,-9.2 18.15,-14.399 5.8,-2 -2.8,-6.95 -10.9,-11 -6.3,-0.55 -3.6,-4.2 -1.7,-7.351 1.45,-12.8 3.625,-3.95 1.225,-1.35 7,-9.95 16.45,-19.1 0.8,-0.275 7.2,-2.375 h 8.25 l 7.1,1.175 1.325,0.2 0.525,-2.025 -3.675,-4.275 -2.7,-1.975 -1.125,-0.8 -0.822,-1.875 0.875,1.875 1.075,0.8 -1.075,-0.8 -0.875,-1.875 z m 255.351,135.775 -1.5,0.975 -17.976,11.226 -13.899,7.05 -0.375,0.2 13.175,-6.351 9.2,-5.5 10.6,-7.074 0.775,-0.526 z m -161.726,-288.8 -6.449,-5.45 -0.25,-0.4 0.55,1 1.55,1.25 -1.55,-1.2 -0.55,-1.05 -4.7,-7.55 -1.4,-6.35 1.4,6.35 4.7,7.55 0.55,1.05 1.55,1.2 4.599,3.6 1.25,1.05 5.801,3.7 7.699,3.9 10.95,3.9 0.226,0.025 -0.226,-0.025 -10.95,-3.9 -7.699,-3.9 -5.801,-3.7 -1.25,-1.05 z m 33.95,6.25 v -0.05 0.05 z m 9.075,-11.525 c -0.232,0.279 -0.474,0.579 -0.725,0.9 0.252,-0.321 0.493,-0.621 0.725,-0.9 z m -0.974,1.225 c -0.467,0.567 -0.934,1.15 -1.4,1.75 -0.467,0.633 -0.917,1.233 -1.35,1.8 -0.434,0.566 -0.817,1.066 -1.15,1.5 -0.366,0.466 -0.634,0.833 -0.8,1.1 -0.2,0.267 -0.3,0.417 -0.3,0.45 0,-0.033 0.1,-0.183 0.3,-0.45 0.166,-0.267 0.434,-0.633 0.8,-1.1 0.333,-0.434 0.717,-0.934 1.15,-1.5 0.433,-0.567 0.883,-1.167 1.35,-1.8 0.466,-0.6 0.933,-1.183 1.4,-1.75 z m 2.149,-2.55 c -0.175,0.181 -0.375,0.397 -0.6,0.65 0.225,-0.253 0.425,-0.469 0.6,-0.65 z m 1.651,15.875 1.399,1.125 1.2,1.325 -1.2,-1.325 -1.399,-1.125 z m -0.151,-17.625 c -0.166,0.367 -0.316,0.667 -0.45,0.9 0.134,-0.233 0.284,-0.533 0.45,-0.9 z m -11.5,22.05 h 0.05 l -0.3,-6.35 v 1.075 -1.075 l 0.3,6.35 h -0.05 z m -0.25,-5.275 v 4.875 l -8.024,-0.725 0.074,0.025 8.2,1.1 -0.25,-5.275 z m -48.474,181.776 1.375,-0.051 0.325,-0.25 0.074,-0.074 7.801,-6.476 21.8,-23.85 11.35,-15.75 10.2,-16 23.95,-14.65 22.75,-5.25 h 16.7 l 8.35,2.875 -8.35,-2.875 h -16.7 l -22.75,5.25 -23.95,14.65 -10.2,16 -11.35,15.75 -21.8,23.85 -7.801,6.476 -0.074,0.074 -0.325,0.25 0.05,-0.05 -1.425,0.101 -21.425,1 -12.051,-2.65 -20.8,-7.65 -2.75,-1.15 -4.5,-8.2 2.4,-3.6 10.15,-8.65 6.675,0.25 4.825,6.3 1.375,0.075 1.825,8.175 8.2,6.3 5.6,-0.25 5.101,-2.1 2.149,-4.45 v -4.2 l -0.875,-2.95 4.875,-0.75 6.351,-9.85 2.2,-43.35 0.199,-13.35 -8.899,-9.25 -14.2,-12.45 -9.45,-10.55 9.45,10.55 14.2,12.45 8.899,9.25 -0.199,13.35 -2.2,43.35 -6.351,9.85 -4.875,0.75 0.875,2.95 v 4.2 l -2.149,4.45 -5.101,2.1 -5.6,0.25 -8.2,-6.3 -1.825,-8.175 -1.375,-0.075 -4.825,-6.3 -6.675,-0.25 -10.15,8.65 -2.4,3.6 -0.1,0.15 4.65,8.2 2.7,1 20.8,7.65 12.051,2.65 21.425,-1 z m -19.601,-116.626 -0.024,0.025 -3.4,-3.3 0.7,-4.45 3.75,-1.5 5.5,2.05 -2.75,5.75 -3.776,1.425 3.775,-1.425 2.75,-5.75 -5.5,-2.05 -3.75,1.5 -0.7,4.45 3.4,3.3 0.025,-0.025 z m -45.774,3.825 -5.1,-4.45 -3.85,8.65 v 7.05 l -1.25,8.15 -2.65,12.05 1.95,7.1 4.85,5.75 2.4,-1.85 1.45,-20.7 -0.25,-6 2.45,-5.5 v -10.25 10.25 l -2.45,5.5 0.25,6 -1.45,20.7 -2.4,1.85 -4.85,-5.75 -1.95,-7.1 2.65,-12.05 1.25,-8.15 v -7.05 l 3.85,-8.65 5.1,4.45 z m -1.551,6.2 -3.6,0.2 -2.05,3.85 v 0.025 l 2.05,5.025 1.55,-0.75 2.55,-3.15 -0.5,-5.2 0.5,5.2 -2.55,3.15 -1.55,0.75 -2.05,-5.025 v -0.025 l 2.05,-3.85 3.6,-0.2 z m -5.449,-13.9 2.05,3.15 5.3,4.45 0.2,10.35 -2.75,5.55 0.15,4.85 -1.2,21.65 13.7,33.55 4.175,1.6 -4.525,2.9 -8.2,7.05 -9,-8.1 -2.4,0.5 0.425,0.475 -0.425,-0.475 2.4,-0.5 9,8.1 8.2,-7.05 4.525,-2.9 -4.175,-1.6 -13.7,-33.55 1.2,-21.65 -0.15,-4.85 2.75,-5.55 -0.2,-10.35 -5.3,-4.45 -2.05,-3.15 z m 39.899,-11.4 -0.199,8.5 12,12.8 8.199,6.85 4.601,1.65 5.5,-3.3 3.95,-5.6 2.399,-7.4 -0.2,-7.05 -3.75,-1.3 -9.75,-5.9 -3.949,-5.4 -5.15,-3.7 -4.1,-0.55 -5.801,3.9 -3.75,6.5 3.75,-6.5 5.801,-3.9 4.1,0.55 5.15,3.7 3.949,5.4 9.75,5.9 3.75,1.3 0.2,7.05 -2.399,7.4 -3.95,5.6 -5.5,3.3 -4.601,-1.65 -8.199,-6.85 -12,-12.8 0.199,-8.5 z m 157.15,52.425 6.9,2.375 6.225,4.1 0.425,0.275 7.65,5.075 0.625,1.05 -0.625,-1.05 -7.65,-5.075 -7,-4.825 -6.55,-1.925 z m 7.425,-16.4 2.375,2.825 -2.375,-2.825 z m 31.675,67.275 -0.3,-0.8 0.3,0.8 z m -101.574,166.101 0.699,-0.2 33.125,-9.2 26.101,-8.4 19.149,-1.05 0.625,-0.325 -0.625,0.325 -19.149,1.05 -26.101,8.4 -33.125,9.2 -0.699,0.2 -2.025,0.55 -47.5,8.075 -0.45,0.074 -16.45,-1.05 -11.375,-3.625 -2.675,-0.825 -17.149,-17.55 6.074,6.775 11.625,11.524 13.801,3.801 17.149,1.3 45.4,-8 3.95,-1.15 -0.375,0.101 z m 0.699,-0.201 -0.324,0.1 0.324,-0.1 z m -50.225,8.826 -0.4,0.074 h -0.05 l 0.45,-0.074 z m -28.275,-4.601 -2.625,-0.875 -17.199,-17.55 -25.65,-28.05 -5.2,-6.275 -0.25,-0.274 0.25,0.274 5.2,6.275 25.65,28.05 17.199,17.55 2.625,0.875 z m -61.7,-37.3 -0.725,1.075 -0.5,0.975 0.5,-0.975 0.725,-1.075 10.775,-15.725 h 0.025 l -0.375,-0.476 -3.65,-4.475 -2.475,-1.7 -0.3,-0.2 0.025,0.025 1.375,1.274 1.275,1.2 0.85,1.175 -0.85,-1.175 -1.275,-1.2 1.275,1.15 0.85,1.225 2.55,3.525 -12.1,18.05 -8.5,17.851 -20.8,33.55 -18.9,22.8 -7,12.3 0.25,6.8 -29.3,20.2 -1.375,2.5 -0.55,0.976 h 0.025 l 0.4,0.05 1.85,-3.226 29.05,-20.05 -0.075,-4.55 -0.025,-2.75 0.925,-1.65 6.575,-11.449 18.15,-21.25 20.35,-32.75 9.75,-19.976 0.5,-1.024 0.725,-1.025 z m 24.525,123.1 -0.2,0.15 0.15,-0.075 1.675,-1.25 -0.6,0.425 -1.025,0.75 z m -74.5,38.851 1.55,-8.726 6.15,-15.399 1.325,-0.5 -1.875,0.649 -6.15,15.551 -1,6.5 -0.25,1.5 0.025,0.024 v 0.05 l -1.175,7.525 -25.2,-8.85 -12.35,-14.45 -1.45,-5.75 -2.8,-4.7 1.95,-9.7 3.45,-5.975 -3.45,5.975 -1.95,9.7 2.8,4.7 1.45,5.75 12.35,14.45 25.2,8.85 1.175,-7.525 v -0.05 l 0.225,0.401 -0.225,-0.351 0.225,0.351 -1.2,6.675 0.2,4.6 2.1,3.875 -2.1,-3.875 -0.2,-4.6 1.2,-6.675 z m -6.974,-70.076 -0.075,-2.75 0.975,-1.65 -0.925,1.65 0.025,2.75 z m 16,45.45 7.925,-3 14.9,4.45 27.05,-6.65 15.55,-8.9 40.9,-31.5 53.399,-20.199 30.8,-0.4 20.051,6.65 0.125,0.149 -0.125,-0.149 -20.051,-6.65 -30.8,0.4 -53.399,20.199 -40.9,31.5 -15.55,8.9 -27.05,6.65 -14.9,-4.45 -7.925,3 z m 210.7,-59.4 0.649,0.8 10.525,12.801 0.05,0.375 0.1,0.125 0.25,2.425 2.301,16.875 -5.95,28.2 -4.775,29.05 4.775,-29.05 5.95,-28.2 -2.301,-16.875 -0.25,-2.425 -0.1,-0.125 -0.05,-0.375 -10.525,-12.801 -0.625,-0.8 h -0.024 z m 82.724,-141.5 -0.7,-4.8 0.7,4.8 z m 5.026,55.3 0.024,0.15 v 0.05 l -4.75,2.976 4.75,-2.976 v -0.05 l -0.024,-0.15 z m -256.075,-261.7 -1.95,6.5 -0.05,-0.1 0.05,0.1 1.95,-6.5 z m -19.301,140.525 -0.75,0.275 -16.5,19.15 -7,9.95 -1.225,1.3 1.225,-1.3 7,-9.95 16.5,-19.15 0.75,-0.275 z m 81.075,1.475 -0.1,-0.35 -0.725,-2.45 -0.7,-7.35 -1.25,-5 v -6.8 l 2.7,-12.05 -9.15,-0.55 -0.7,-0.025 0.7,0.025 9.15,0.55 -2.7,12.05 v 6.8 l 1.25,5 0.7,7.35 0.725,2.45 0.1,0.35 z m -16.875,-33.625 2.051,-1.225 4.524,0.25 -4.524,-0.25 -2.051,1.225 z m -0.475,0.275 -0.35,0.15 -7.325,4.45 v 9.125 l 6.85,-5.325 10.55,-9.1 6.4,0.5 -20.35,17.25 -2.9,1.925 0.55,4.975 13.25,1.2 1.2,3.15 -13.875,-1.375 1.35,5.9 -1.35,-5.9 13.875,1.375 -1.2,-3.15 -13.25,-1.2 -0.55,-4.975 2.9,-1.925 20.35,-17.25 -6.4,-0.5 -10.55,9.1 -6.85,5.325 v -9.125 l 7.325,-4.45 0.35,-0.15 z m 17.25,33 5.075,-0.85 6.05,-9.7 0.2,-11.075 1.25,-13.825 v -9.45 l -12.601,11 -9.1,-0.3 9.1,0.3 12.601,-11 v 9.45 l -1.25,13.825 -0.2,11.075 -6.05,9.7 -5.075,0.85 z m -26.075,-57.95 -5.05,-0.55 -8,1.55 -4.35,3.7 -4.1,1.55 -4.6,3.7 -0.5,5.5 2.65,5.5 4.85,2.1 8,0.75 3.15,1.1 1.45,-5.55 5.8,-4.45 5.3,-7.35 v -7.3 l -2.9,-2.9 -1.7,2.65 1.7,-2.65 2.9,2.9 v 7.3 l -5.3,7.35 -5.8,4.45 -1.45,5.55 -3.15,-1.1 -8,-0.75 -4.85,-2.1 -2.65,-5.5 0.5,-5.5 4.6,-3.7 4.1,-1.55 4.35,-3.7 8,-1.55 5.05,0.55 z m -18.8,20.45 -4.6,-2.9 v -2.35 h 2.65 l 5.6,2.35 -3.65,2.9 3.65,-2.9 -5.6,-2.35 h -2.65 v 2.35 l 4.6,2.9 z m 9.1,-12.35 -1.7,2.9 1.7,4.15 7,-5.75 1.95,-4.45 -3.85,0.25 -5.1,2.9 5.1,-2.9 3.85,-0.25 -1.95,4.45 -7,5.75 -1.7,-4.15 1.7,-2.9 z m 10.851,30.575 -3.925,3.025 -0.375,0.3 -7.325,4.7 7.325,-4.7 0.375,-0.3 3.925,-3.025 z m 0.549,5.25 -2.8,1.85 1.85,3 0.375,0.025 h 0.05 l 1.075,0.1 -1.075,-0.1 h -0.05 l -0.375,-0.025 -1.85,-3 2.8,-1.85 z m -2.799,1.85 -3.7,2.475 5.55,0.525 -5.55,-0.525 3.7,-2.475 z m -1.676,-4.075 -1.675,-5.85 3.4,-6.3 9.525,-4.45 -9.525,4.45 -3.4,6.3 1.675,5.85 z m 5.6,10.175 -4.85,-0.475 4.85,0.475 z m -24.174,11.675 -3.8,-6.7 -7.2,-1.225 7.2,1.225 3.8,6.7 z m -126.576,185.275 1.175,-1.425 8.95,-14.15 12.55,-17 0.425,-0.899 -0.425,0.899 -12.55,17 -8.95,14.15 -1.175,1.425 z m 121.326,-78.75 0.6,0.75 -0.6,-0.75 z m -24.051,-20.25 0.8,1.075 8.45,7.1 8.4,5.726 -8.4,-5.726 -8.45,-7.1 -0.8,-1.075 -7.45,-10.425 -1.225,-3.05 0.875,3.6 9,11.8 2.725,1.801 -3.125,-2.601 -0.8,-1.125 z m -9.5,-15.524 0.825,2.05 -0.825,-2.05 z m -19,198.949 -0.25,4 2.75,2.7 2.95,-2.5 1.4,-6.95 -1.6,-2.5 -5.25,5.25 5.25,-5.25 1.6,2.5 -1.4,6.95 -2.95,2.5 -2.75,-2.7 0.25,-4 z m -6.8,13.9 2.05,2.4 2.25,-2.2 1,-6.15 -1.2,-2.2 -3.9,4.65 -0.2,3.5 0.2,-3.5 3.9,-4.65 1.2,2.2 -1,6.15 -2.25,2.2 -2.05,-2.4 z m 18.75,-17 -4.55,5.5 -0.2,4.2 2.4,2.85 2.55,-2.649 1.2,-7.25 -1.4,-2.651 1.4,2.65 -1.2,7.25 -2.55,2.649 -2.4,-2.85 0.2,-4.2 4.55,-5.499 z m 1.25,12.151 4.75,-5.601 1.45,2.7 -1.25,7.4 -2.7,2.699 -2.45,-2.949 0.2,-4.249 -0.2,4.25 2.45,2.949 2.7,-2.699 1.25,-7.4 -1.45,-2.7 -4.75,5.6 z m -59.25,-36.375 -5.6,10.175 -11.15,9.149 -16.2,-6.8 -4.85,-16.325 4.85,16.325 16.2,6.8 11.15,-9.149 5.6,-10.175 z m -42.125,64.449 -2.825,0.176 -2.4,0.475 2.4,-0.475 2.825,-0.176 z m -92.024,-46.625 -3.4,-1.25 1.05,-7.05 6.5,-2.8 4.25,6.3 -3.9,4.101 -4.5,0.699 4.5,-0.699 3.9,-4.101 -4.25,-6.3 -6.5,2.8 -1.05,7.05 3.4,1.25 z m 1.549,13.1 -5.65,1.3 -4.1,-2.6 2.4,-7.051 6.5,-0.75 2.4,4.801 -1.55,4.3 1.55,-4.3 -2.4,-4.801 -6.5,0.75 -2.4,7.051 4.1,2.6 5.65,-1.3 z m -2.1,9.85 -2.35,5.2 -5,0.9 -4.1,-2.601 2.4,-7.05 6.15,-1.1 2.9,4.651 -2.9,-4.649 -6.15,1.1 -2.4,7.05 4.1,2.601 5,-0.9 2.35,-5.202 z m 4.15,18.5 6,-1.399 3.1,-6.9 -4.3,-5.25 -6.5,4.35 -2.4,7.601 4.1,1.598 -4.1,-1.6 2.4,-7.601 6.5,-4.35 4.3,5.25 -3.1,6.9 -6,1.401 z m 399.875,-85.649 0.101,0.574 -0.226,-1.824 -0.05,-0.051 0.175,1.301 0.175,1.175 -0.175,-1.175 z m -0.175,-1.375 v 0.074 -0.074 z"
   id="path3"
   style="fill-rule:evenodd" />
<path
   d="m 321.507,14.587 0.9,-2.025 4.75,-6.65 1.55,-1.275 2.55,-2.075 11.15,-2.05 15.25,4.25 8.899,6.7 9.9,24.65 1.05,8.85 -0.15,0.55 c -0.052,0.205 -0.102,0.438 -0.149,0.7 -0.134,0.4 -0.25,0.833 -0.351,1.3 -0.133,0.467 -0.267,0.95 -0.399,1.45 -0.167,0.5 -0.316,0.983 -0.45,1.45 -0.167,0.5 -0.316,0.934 -0.45,1.3 -0.166,0.367 -0.316,0.667 -0.45,0.9 -0.133,0.233 -0.25,0.35 -0.35,0.35 -0.1,0 -0.3,0.133 -0.6,0.4 l -0.101,0.1 c -0.175,0.181 -0.375,0.397 -0.6,0.65 l -0.075,0.1 -0.5,0.575 c -0.232,0.279 -0.474,0.579 -0.725,0.9 l -0.25,0.325 c -0.467,0.567 -0.934,1.15 -1.4,1.75 -0.467,0.633 -0.917,1.233 -1.35,1.8 -0.434,0.566 -0.817,1.066 -1.15,1.5 -0.366,0.466 -0.634,0.833 -0.8,1.1 -0.2,0.267 -0.3,0.417 -0.3,0.45 l -3.101,2.75 v 0.9 0.05 m -127.573,146.775 -8.075,-18.125 -3.4,-24.45 2.05,-20.75 3.425,-26.875 3.425,-19.825 3.8,-12.15 -4.175,-8.1 -3.475,-5.7 -1.2,-5.4 v -12.4 l 6.15,-10.95 4.8,-1.65 4.8,1.1 4.8,12.25 3.95,5 -13.55,19.1 -0.1,0.35 14.05,-18.9 16.45,-15.2 12.649,-7.4 15.4,-3.7 18.5,-0.75 0.55,1.75 -0.5,-2.2 1.2,-14.8 3.75,-8.725 m 3.751,41.875 -1.55,-1.2 -0.55,-1.05 -4.7,-7.55 -1.4,-6.35 m 47.976,24.65 2.125,-2.3 8.55,6.675 1.399,1.125 1.2,1.325 8.351,9.375 9.949,16.35 12,12.95 5.45,11.85 15.4,13 17.975,19.075 2.375,2.825 11.15,14.75 0.7,11.15 -0.226,-0.15 m 0.402,0.7 8.075,13.85 8.899,23.35 m 0.3,0.8 1.95,22 8.75,42.45 m 0.7,4.8 2.65,26.101 2.375,29.199 0.225,-0.149 0.35,35.6 -2.05,44.851 -7.85,26.649 -17.15,26.7 -9.899,18.15 -10.95,11.5 -21.601,7.399 -15.3,6 m -0.375,0.15 -0.024,0.2 -17.101,17.449 -41.649,0.9 -33.65,2.4 -38.35,8.55 -24.65,3.35 h -36.3 l -18.8,-5.399 -7.55,-12.2 -3.7,-6.726 m -0.325,-0.573 -0.025,0.35 -53.75,5.2 -27.325,2.024 -2.825,0.176 -2.4,0.475 -23.25,4.375 -16.45,1.85 -22.25,-3.699 -25.7,-3.7 -14.35,-12.25 0.7,-23 9.25,-25.95 17.1,-2.6 15.4,2.25 16.45,4.449 51.35,-10.75 1.3,0.125 -1.7,-5.675 -2.9,-19.149 4.6,-9.7 15.075,-18.775 1.175,-1.425 8.95,-14.15 12.55,-17 0.425,-0.899 5.375,-11.2 10.2,-13.35 28.55,-30.9 -3.4,-9.2 18.15,-14.399 5.8,-2 -2.8,-6.95 -10.9,-11 -6.3,-0.55 -3.6,-4.2 -1.7,-7.351 1.45,-12.8 3.625,-3.95 m 25.474,-30.678 7.2,-2.375 h 8.25 l 7.1,1.175 m 1.325,0.2 0.525,-2.025 -3.675,-4.275 -2.7,-1.975 -1.075,-0.8 -0.875,-1.875 M 364.057,73.762 h 0.05 l -0.3,-6.35 v 1.075 4.875 l -8.024,-0.725 0.074,0.025 8.2,1.1 z m 0.976,-8.8 -1.226,1.35 v 1.1 m -8.024,5.225 -0.226,-0.025 -10.95,-3.9 -7.699,-3.9 -5.801,-3.7 -1.25,-1.05 -4.6,-3.6 m -8.549,193.75 0.325,-0.25 0.074,-0.074 7.801,-6.476 21.8,-23.85 11.35,-15.75 10.2,-16 23.95,-14.65 22.75,-5.25 h 16.7 l 8.35,2.875 6.55,1.925 7,4.825 7.65,5.075 0.625,1.05 m -21.826,-12.875 6.9,2.375 6.225,4.1 m 25.975,44.4 -0.3,-0.8 m -150.8,175.526 47.5,-8.075 2.025,-0.55 0.699,-0.2 33.125,-9.2 26.101,-8.4 19.149,-1.05 0.625,-0.325 m -78.999,18.974 -0.324,0.1 -3.95,1.15 -45.4,8 -17.149,-1.3 -13.801,-3.801 -11.625,-11.524 -6.074,-6.775 m 19.823,18.375 -2.625,-0.875 -17.199,-17.55 -25.65,-28.05 -5.2,-6.275 -0.25,-0.274 -10.775,15.725 -0.725,1.075 -0.5,0.975 -9.75,19.976 -20.35,32.75 -18.15,21.25 -6.575,11.449 -0.925,1.65 0.025,2.75 0.075,4.55 -29.05,20.05 -1.85,3.226 -3.45,5.975 -1.95,9.7 2.8,4.7 1.45,5.75 12.35,14.45 25.2,8.85 1.175,-7.525 v -0.05 l 0.225,-1.524 1,-6.5 6.15,-15.551 1.875,-0.649 7.925,-3 14.9,4.45 27.05,-6.65 15.55,-8.9 40.9,-31.5 53.399,-20.199 30.8,-0.4 20.051,6.65 0.125,0.149 h 0.024 l 0.625,0.8 10.525,12.801 0.05,0.375 0.1,0.125 0.25,2.425 2.301,16.875 -5.95,28.2 -4.775,29.05 m -83.376,-126.604 -16.45,-1.05 -11.375,-3.625 m 27.825,4.675 0.45,-0.074 m 129.826,-28.076 13.175,-6.351 9.2,-5.5 10.6,-7.074 -0.725,0.449 -17.976,11.226 -13.899,7.05 m -50.425,64.3 0.649,0.8 m 82.075,-142.3 -0.7,-4.8 m 5.726,60.1 0.024,0.15 v 0.05 l -4.75,2.976 0.775,-0.525 M 329.857,60.062 l -6.449,-5.45 -0.25,-0.4 m -40.301,64.15 3.75,-6.5 5.801,-3.9 4.1,0.55 5.15,3.7 3.949,5.4 9.75,5.9 3.75,1.3 0.2,7.05 -2.399,7.4 -3.95,5.6 -5.5,3.3 -4.601,-1.65 -8.199,-6.85 -12,-12.8 0.199,-8.5 z m -41.975,99.375 -0.425,-0.475 2.4,-0.5 9,8.1 8.2,-7.05 4.525,-2.9 -4.175,-1.6 -13.7,-33.55 1.2,-21.65 -0.15,-4.85 2.75,-5.55 -0.2,-10.35 -5.3,-4.45 -2.05,-3.15 m 5.45,13.9 0.5,5.2 -2.55,3.15 -1.55,0.75 -2.05,-5.025 v -0.025 l 2.05,-3.85 3.6,-0.2 z m 1.551,-6.2 v 10.25 l -2.45,5.5 0.25,6 -1.45,20.7 -2.4,1.85 -4.85,-5.75 -1.95,-7.1 2.65,-12.05 1.25,-8.15 v -7.05 l 3.85,-8.65 5.1,4.45 z m 45.774,-3.825 3.775,-1.425 2.75,-5.75 -5.5,-2.05 -3.75,1.5 -0.7,4.45 3.4,3.3 0.025,-0.025 z m -13.425,-6.675 9.45,10.55 14.2,12.45 8.899,9.25 -0.199,13.35 -2.2,43.35 -6.351,9.85 -4.875,0.75 0.875,2.95 v 4.2 l -2.149,4.45 -5.101,2.1 -5.6,0.25 -8.2,-6.3 -1.825,-8.175 -1.375,-0.075 -4.825,-6.3 -6.675,-0.25 -10.15,8.65 -2.4,3.6 4.5,8.2 2.75,1.15 20.8,7.65 12.051,2.65 21.425,-1 1.425,-0.101 m -77.299,-165.649 -1.95,6.5 -0.05,-0.1 m -17.301,134.125 -0.75,0.275 -16.5,19.15 -7,9.95 -1.225,1.3 m 106.55,-29.2 -0.1,-0.35 -0.725,-2.45 -0.7,-7.35 -1.25,-5 v -6.8 l 2.7,-12.05 -9.15,-0.55 -0.7,-0.025 m -6.95,0.95 2.051,-1.225 4.524,0.25 m -7.05,1.25 -0.35,0.15 -7.325,4.45 v 9.125 l 6.85,-5.325 10.55,-9.1 6.4,0.5 -20.35,17.25 -2.9,1.925 0.55,4.975 13.25,1.2 1.2,3.15 -13.875,-1.375 1.35,5.9 m 21.9,0.175 5.075,-0.85 6.05,-9.7 0.2,-11.075 1.25,-13.825 v -9.45 l -12.601,11 -9.1,-0.3 m -16.949,-23.75 -5.05,-0.55 -8,1.55 -4.35,3.7 -4.1,1.55 -4.6,3.7 -0.5,5.5 2.65,5.5 4.85,2.1 8,0.75 3.15,1.1 1.45,-5.55 5.8,-4.45 5.3,-7.35 v -7.3 l -2.9,-2.9 -1.7,2.65 z m -18.8,20.45 -4.6,-2.9 v -2.35 h 2.65 l 5.6,2.35 -3.65,2.9 z m 9.1,-12.35 -1.7,2.9 1.7,4.15 7,-5.75 1.95,-4.45 -3.85,0.25 -5.1,2.9 z m 10.851,30.575 -3.925,3.025 -0.375,0.3 -7.325,4.7 m 12.174,-2.775 -2.8,1.85 1.85,3 0.375,0.025 h 0.05 l 1.075,0.1 m -3.349,-3.125 -3.7,2.475 5.55,0.525 m -3.526,-7.075 -1.675,-5.85 3.4,-6.3 9.525,-4.45 m -5.65,26.775 -4.85,-0.475 m -19.225,12 -0.1,0.15 4.65,8.2 2.7,1 m -7.349,-9.2 -3.8,-6.7 -7.2,-1.225 m 74,26.375 -1.375,0.051 m -71.901,82.949 1.275,1.2 0.85,1.175 m 2.901,2.7 -3.65,-4.475 -2.475,-1.7 -0.275,-0.175 1.375,1.274 m 5.025,5.076 0.6,0.75 m -98.676,134.125 1.375,-2.5 29.3,-20.2 -0.25,-6.8 7,-12.3 18.9,-22.8 20.8,-33.55 8.5,-17.851 12.1,-18.05 -2.55,-3.525 m -21.15,-17.549 -7.45,-10.425 -1.225,-3.05 0.875,3.6 9,11.8 2.725,1.801 m -3.925,-3.726 0.8,1.075 8.45,7.1 8.4,5.726 -0.025,-0.025 m -27.125,-29.4 0.825,2.05 m 47.851,172.274 -1.025,0.75 m -74.501,38.851 1.55,-8.726 6.15,-15.399 1.325,-0.5 m -7.975,23.549 2.05,2.4 2.25,-2.2 1,-6.15 -1.2,-2.2 -3.9,4.65 -0.2,3.5 z m -1.274,0.725 0.225,0.351 -1.2,6.675 0.2,4.6 2.1,3.875 m -39.301,-57.45 0.4,0.05 m -0.424,-0.05 h 0.025 l 0.525,-0.976 m -0.526,0.976 -5.6,10.175 -11.15,9.149 -16.2,-6.8 -4.85,-16.325 m -96.349,21.625 -3.4,-1.25 1.05,-7.05 6.5,-2.8 4.25,6.3 -3.9,4.101 -4.5,0.699 z m 1.549,13.1 -5.65,1.3 -4.1,-2.6 2.4,-7.051 6.5,-0.75 2.4,4.801 -1.55,4.3 z m -2.1,9.85 -2.35,5.2 -5,0.9 -4.1,-2.601 2.4,-7.05 6.15,-1.1 2.9,4.651 z m 4.15,18.5 6,-1.399 3.1,-6.9 -4.3,-5.25 -6.5,4.35 -2.4,7.601 4.1,1.598 z m 399.7,-86.95 0.175,1.301 m 0.175,1.175 -0.175,-1.175 m -0.175,-1.375 v 0.074"
   id="path5"
   style="fill:none;stroke:#000000" />
<path
   d="m 195.907,501.462 -0.25,4 2.75,2.7 2.95,-2.5 1.4,-6.95 -1.6,-2.5 -5.25,5.25 z m 13.2,9.051 4.75,-5.601 1.45,2.7 -1.25,7.4 -2.7,2.699 -2.45,-2.949 0.2,-4.249 z"
   id="path7"
   style="fill:none;stroke:#000000;stroke-width:1.20000005" />
<polygon
   points="203.307,503.862 203.107,508.062 205.507,510.912 208.057,508.263 209.257,501.013 207.857,498.362 "
   id="polygon9"
   style="fill:none;stroke:#000000;stroke-width:1.14999998" />
</svg>