<svg xmlns="http://www.w3.org/2000/svg" width="7865" height="10422" viewBox="0 0 7865 10422" version="1.1">
	<path d="M 2292.110 1.006 C 2279.861 2.297, 2270.730 5.337, 2266.555 9.512 C 2262.920 13.147, 2262.803 13.558, 2261.229 28.213 C 2260.052 39.174, 2257.546 42.994, 2249.858 45.547 C 2241.751 48.240, 2216.751 47.050, 2186 42.507 C 2157.830 38.347, 2133.061 36.954, 2122.092 38.914 C 2113.520 40.446, 2105.942 44.761, 2102.204 50.238 C 2096.066 59.230, 2093.170 72.695, 2096.163 78.316 C 2099.348 84.295, 2104.751 86.091, 2122.563 87.092 C 2145.095 88.359, 2155.005 92.127, 2154.996 99.424 C 2154.984 109.742, 2138.266 119.595, 2108 127.125 C 2080.061 134.075, 2066.255 141.621, 2049.428 159.138 C 2023.962 185.647, 2017.620 217.916, 2034.466 235.262 C 2043.848 244.923, 2074.480 249.713, 2119 248.482 C 2166.745 247.162, 2205.085 253.851, 2226.497 267.236 C 2244.102 278.241, 2249.790 284.661, 2248.589 292.171 C 2247.361 299.846, 2242.052 308.581, 2223.468 333.500 C 2203.541 360.221, 2190.160 371.659, 2169.136 379.946 C 2160.577 383.320, 2148.981 385.118, 2129.502 386.091 C 2085.980 388.265, 2054.440 400.102, 2035.975 421.190 C 2024.153 434.691, 2021 439.810, 2021 445.501 C 2021 448.713, 2021.406 449.274, 2024.750 450.694 C 2031.517 453.566, 2045.431 450.641, 2074.500 440.235 C 2100.767 430.832, 2116.891 428.297, 2122.744 432.650 C 2137.592 443.693, 2099.043 487.635, 2022.248 547.205 C 1991.788 570.833, 1972.798 583.261, 1967.190 583.240 C 1961.015 583.215, 1947.571 596.928, 1919.982 631.390 C 1880.612 680.567, 1793.782 799.896, 1755.089 858 C 1681.698 968.207, 1638.263 1063.621, 1632.953 1126.298 C 1629.691 1164.801, 1625.977 1184.439, 1616.721 1212.134 C 1613.712 1221.135, 1608.218 1234.986, 1604.512 1242.913 C 1587.477 1279.344, 1572.540 1341.945, 1565.001 1408.500 C 1557.440 1475.249, 1543.895 1537.619, 1530.800 1565.982 C 1515.726 1598.633, 1494.717 1659.127, 1470.018 1741 C 1447.856 1814.463, 1436.296 1847.779, 1421.789 1880 C 1394.362 1940.918, 1356.911 1991.542, 1263.477 2094 C 1241.466 2118.136, 1237.403 2122.988, 1230.099 2133.859 C 1212.711 2159.738, 1199.043 2191.458, 1194.056 2217.500 C 1186.659 2256.136, 1166.487 2308.052, 1142.963 2349 C 1119.075 2390.581, 1102.208 2430.887, 1099.954 2451.774 C 1097.479 2474.695, 1085.784 2506.251, 1059.931 2559.757 C 1030.100 2621.500, 996.777 2677.690, 960.455 2727.500 C 945.979 2747.351, 933.153 2768.569, 927.477 2782.054 C 926.037 2785.477, 924.230 2792.161, 923.462 2796.907 C 920.498 2815.232, 909.284 2845.196, 884.378 2901.336 C 816.283 3054.827, 768.833 3192.159, 757.428 3268.765 C 749.852 3319.659, 740.249 3366.371, 722.022 3441 C 708.588 3496.008, 702.969 3523.074, 695.038 3571 C 687.662 3615.568, 688.177 3610.544, 668.514 3829.500 C 657.648 3950.509, 655.160 3976.365, 650.953 4012 C 643.337 4076.514, 636.040 4108.507, 622.557 4136.500 C 612.607 4157.159, 604.766 4168.233, 571.935 4208 C 529.126 4259.851, 488.066 4316.815, 462.011 4360.500 C 439.598 4398.078, 415.574 4430.914, 393.918 4453.567 C 378.891 4469.287, 365.341 4490.343, 344.534 4530.307 C 332.573 4553.280, 322.382 4575.486, 301.991 4623 C 268.011 4702.178, 222.214 4804.102, 179.999 4894.500 C 147.361 4964.391, 119.575 5032.350, 101.641 5086.147 C 91.467 5116.666, 87.276 5132.772, 84.509 5152 C 79.166 5189.119, 69.861 5225.179, 59.944 5247.200 C 51.317 5266.357, 45.471 5287.832, 39.987 5320.500 C 37.008 5338.247, 35.657 5349.271, 31.472 5390 C 27.115 5432.412, 19.422 5482.879, 11.434 5521.460 C 2.452 5564.838, -0.648 5604.467, 0.321 5663.500 C 1.596 5741.197, 9.250 5800.384, 24.561 5850.960 C 35.468 5886.989, 44.262 5921.734, 49.501 5949.500 C 56.148 5984.730, 63.483 6009.032, 77.714 6042.982 C 108.118 6115.513, 162.996 6198.315, 232.479 6276.500 C 284.076 6334.559, 388.804 6434.499, 429.842 6464.840 C 439.137 6471.712, 441.323 6472.588, 445.354 6471.055 C 451.963 6468.543, 472.430 6471.087, 498 6477.599 C 520.397 6483.303, 529.670 6484.911, 544.500 6485.662 C 557.942 6486.342, 570.371 6485.042, 580.777 6481.867 C 586.497 6480.122, 588.402 6478.898, 593.550 6473.658 C 608.830 6458.105, 641.144 6402.251, 671.750 6338.491 C 684.287 6312.375, 686.465 6307.586, 724.500 6222.500 C 806.900 6038.168, 837.740 5973.882, 854.619 5951.272 C 862.945 5940.119, 868.138 5938.420, 874.987 5944.608 C 882.553 5951.443, 887.178 5964.209, 888.936 5983.117 C 891.562 6011.339, 915.729 6116.450, 957.886 6283 C 968.257 6323.975, 990.106 6410.375, 1006.439 6475 C 1056.629 6673.590, 1070.742 6728.035, 1096.641 6823 C 1165.055 7073.852, 1237.495 7308.115, 1323.404 7556.337 C 1343.718 7615.031, 1352.730 7642.736, 1362.490 7676.500 C 1375.462 7721.378, 1379.542 7740, 1381.550 7763.500 C 1384.014 7792.325, 1387.831 7809.920, 1398.469 7841.500 C 1415.120 7890.926, 1431.159 7970.678, 1447.511 8085.350 C 1462.899 8193.264, 1470.379 8266.410, 1482.455 8427.055 C 1486.029 8474.600, 1491.647 8548.150, 1494.940 8590.500 C 1503.329 8698.375, 1504.968 8723.548, 1511.025 8837.500 C 1514.440 8901.748, 1523.632 8919.283, 1578.500 8966.225 C 1597.037 8982.083, 1621.152 9006.075, 1630.686 9018.141 C 1640.310 9030.322, 1643.888 9036.912, 1645.525 9045.469 C 1647.193 9054.185, 1648.677 9057.440, 1652.661 9061.128 C 1656.548 9064.726, 1658.644 9065.654, 1664.731 9066.476 C 1674.316 9067.770, 1677.351 9073.002, 1673.365 9081.361 C 1671.213 9085.874, 1672.185 9089.495, 1676.689 9093.743 C 1683.704 9100.359, 1694.759 9104.905, 1719.881 9111.506 C 1750.416 9119.528, 1769.621 9128.272, 1778.089 9138.009 C 1788.003 9149.407, 1799.851 9153.379, 1824 9153.398 C 1841.441 9153.412, 1852.175 9151.740, 1865.236 9146.973 C 1875.874 9143.091, 1880.460 9140.282, 1890.605 9131.436 C 1898.992 9124.124, 1902.516 9122.217, 1905.513 9123.367 C 1907.868 9124.270, 1908.684 9127.604, 1909.462 9139.500 C 1910.309 9152.454, 1912.301 9157.994, 1917.182 9160.970 C 1921.796 9163.783, 1927.323 9163.529, 1938.341 9160 C 1963.509 9151.938, 1964.595 9156.365, 1953.098 9220.151 C 1949.791 9238.493, 1944.333 9269.700, 1940.968 9289.500 C 1931.891 9342.907, 1929.003 9355.507, 1918.281 9388.500 C 1896.280 9456.196, 1863.742 9519.136, 1836.530 9546.636 C 1827.467 9555.794, 1825.488 9557.261, 1816 9561.853 C 1799.277 9569.946, 1783.501 9574.527, 1764.026 9576.947 C 1753.165 9578.297, 1721.252 9578.305, 1707.856 9576.962 C 1625.289 9568.682, 1494.889 9531.886, 1233 9442.967 C 1207.425 9434.284, 1152.075 9415.489, 1110 9401.202 C 819.112 9302.428, 744.717 9280.747, 664.500 9271.367 C 646.800 9269.298, 570.436 9268.335, 550.222 9269.926 C 502.170 9273.709, 485.675 9282.528, 452.260 9322.304 C 413.161 9368.846, 413.816 9391.868, 454.445 9399.080 C 457.225 9399.573, 472.550 9400.431, 488.500 9400.986 C 529.285 9402.407, 558.065 9405.312, 598.413 9412.082 C 667.304 9423.641, 744.039 9444.430, 801.500 9467.102 C 820.594 9474.636, 851.364 9489.781, 862.500 9497.126 C 873.619 9504.460, 884.260 9515.190, 886.562 9521.389 L 888.378 9526.278 885.687 9528.593 C 878.823 9534.497, 845.789 9542.045, 792.500 9549.887 C 723.232 9560.079, 690.643 9576.583, 643 9625.596 C 614.666 9654.745, 597.254 9679.652, 589.938 9701.500 C 586.744 9711.038, 586.624 9722.825, 589.663 9728.500 C 598.131 9744.312, 621.385 9746.823, 658.192 9735.898 C 670.849 9732.141, 689.033 9724.750, 711.656 9714.169 C 753.704 9694.501, 778.289 9687.494, 814.474 9684.866 C 854.339 9681.971, 932.415 9688.668, 998 9700.609 C 1048.128 9709.735, 1070.972 9716.010, 1121.621 9734.563 C 1143.452 9742.560, 1185.430 9757.886, 1214.907 9768.622 C 1293.539 9797.260, 1305.876 9802.324, 1346 9822.429 C 1385.976 9842.460, 1415.502 9860.396, 1441.230 9880.276 C 1507.907 9931.798, 1541.788 9944.417, 1588.099 9934.980 C 1614.717 9929.555, 1638.934 9919.221, 1698 9888.081 C 1753.786 9858.670, 1771.870 9852, 1795.827 9852 C 1813.886 9852, 1825.624 9854.625, 1878 9870.378 C 1953.767 9893.166, 1952.516 9892.900, 1989 9893.971 C 2017.735 9894.815, 2021.828 9895.344, 2027.750 9898.977 C 2033.454 9902.476, 2031.889 9909.160, 2023.570 9916.829 C 2006.274 9932.772, 1968.683 9950.528, 1900.500 9974.962 C 1761.552 10024.755, 1676.450 10068.001, 1634.998 10109.879 C 1625.931 10119.039, 1620.162 10126.248, 1607.753 10143.921 C 1599.094 10156.253, 1592.131 10166.464, 1592.279 10166.612 C 1592.779 10167.112, 1724.321 10179.067, 1745 10180.491 C 1821.452 10185.759, 1904.753 10187.088, 2066.500 10185.620 C 2185.651 10184.538, 2214.309 10185.518, 2226.994 10191.108 C 2241.973 10197.708, 2246.638 10206.897, 2240.168 10217.054 C 2233.200 10227.993, 2216.517 10238.817, 2186.370 10251.959 C 2154.137 10266.011, 2126.347 10284.450, 2106.989 10304.628 C 2086.692 10325.786, 2082.698 10340.240, 2094.913 10348.324 C 2118.441 10363.894, 2201.076 10368.604, 2598 10376.999 C 2642.511 10377.941, 2713.961 10379.374, 2922.500 10383.508 C 2964.850 10384.348, 3031.450 10385.701, 3070.500 10386.516 C 3109.550 10387.330, 3147.820 10387.997, 3155.544 10387.998 L 3169.587 10388 3214.544 10358.204 C 3239.270 10341.816, 3263.025 10325.795, 3267.334 10322.602 C 3320.250 10283.391, 3356.015 10234.847, 3404.446 10136.500 C 3436.763 10070.874, 3458.964 10014.251, 3458.993 9997.381 C 3459.013 9985.810, 3466.337 9955.054, 3475.992 9926 C 3492.009 9877.803, 3508.103 9845.332, 3522.494 9832.180 C 3533.024 9822.556, 3543.900 9819.371, 3562.191 9820.557 C 3572.005 9821.193, 3573.255 9821.079, 3575.134 9819.380 C 3578.906 9815.968, 3581.113 9810.078, 3582.065 9800.879 C 3582.711 9794.637, 3583.771 9790.412, 3585.596 9786.811 C 3592.887 9772.422, 3612.745 9759.054, 3636 9752.881 C 3643.106 9750.994, 3646.863 9750.644, 3658.916 9750.748 C 3671.298 9750.854, 3673.861 9750.601, 3677.082 9748.958 C 3684.021 9745.418, 3686.761 9739.771, 3688.050 9726.354 C 3689.061 9715.830, 3691.480 9708.725, 3696.562 9701.345 C 3703.656 9691.046, 3716.289 9685.308, 3725.998 9687.975 C 3730.476 9689.205, 3732.615 9691.082, 3743.500 9703.335 C 3752.298 9713.238, 3757.507 9711.079, 3779 9688.615 C 3791.593 9675.454, 3806.631 9666.745, 3819.570 9665.120 C 3828.205 9664.036, 3833.313 9661.529, 3839.506 9655.336 C 3846.355 9648.487, 3850.592 9641.612, 3855.049 9630.121 C 3859.675 9618.191, 3862.515 9613.451, 3869.387 9606.184 C 3876.383 9598.787, 3881.449 9596.040, 3890.221 9594.887 C 3907.077 9592.672, 3922.102 9580.943, 3934.089 9560.644 C 3937.615 9554.673, 3942.246 9548.209, 3944.381 9546.279 C 3947.883 9543.111, 3948.694 9542.818, 3952.706 9543.270 C 3958.256 9543.896, 3963.816 9547.661, 3979 9561.077 C 4002.134 9581.516, 4010.293 9586.968, 4017.782 9586.990 C 4024.482 9587.010, 4034.178 9580.657, 4046 9568.500 C 4056.849 9557.344, 4070.073 9548.323, 4073.597 9549.675 C 4074.304 9549.947, 4075.022 9551.144, 4075.192 9552.335 C 4075.991 9557.945, 4086.325 9553.449, 4102.641 9540.391 C 4126.853 9521.015, 4153.568 9513.933, 4190.500 9517.101 C 4224.903 9520.052, 4242.330 9517.752, 4248.905 9509.393 C 4250.057 9507.929, 4251 9505.716, 4251 9504.476 C 4251 9503.236, 4251.855 9501.166, 4252.899 9499.876 C 4254.716 9497.632, 4255.007 9497.587, 4259.627 9498.823 C 4266.345 9500.620, 4273.073 9504.685, 4283 9512.945 C 4302.928 9529.527, 4311.858 9536.571, 4317.500 9540.162 C 4323.436 9543.940, 4327.302 9544.938, 4328.500 9543 C 4330.195 9540.257, 4346.684 9542.727, 4369.245 9549.105 C 4387.654 9554.309, 4397.890 9555.675, 4406.207 9554.039 C 4417.530 9551.811, 4423.085 9547.897, 4431.376 9536.303 C 4433.421 9533.444, 4435.994 9530.819, 4437.095 9530.470 C 4442.269 9528.828, 4443.838 9535.066, 4445.001 9561.909 C 4445.968 9584.251, 4446.498 9588.338, 4448.657 9590.130 C 4450.748 9591.865, 4454.446 9587.885, 4461.539 9576.265 C 4475.214 9553.863, 4489.926 9545.093, 4500.717 9552.910 C 4505.203 9556.160, 4509 9562.983, 4509 9567.795 C 4509 9569.536, 4508.272 9572.779, 4507.382 9575.003 C 4505.800 9578.958, 4505.820 9579.130, 4508.333 9582.926 C 4517.058 9596.111, 4570.379 9619.962, 4623.500 9634.441 C 4654.269 9642.828, 4670.020 9645.663, 4693.500 9647.040 C 4716.294 9648.377, 4725.158 9649.561, 4738.909 9653.102 C 4793.083 9667.052, 4844.064 9705.634, 4874.864 9755.993 C 4890.804 9782.056, 4898.477 9791.144, 4908.834 9796.232 C 4915.418 9799.467, 4915.625 9799.499, 4929.492 9799.421 C 4941.784 9799.352, 4945.469 9798.899, 4959.579 9795.724 C 4994.855 9787.786, 5014.929 9785.498, 5042.500 9786.274 C 5079.982 9787.329, 5111.017 9795.921, 5151.500 9816.451 C 5187.818 9834.869, 5220.771 9856.587, 5282 9902.455 C 5312.554 9925.344, 5330.572 9937.758, 5350.821 9949.869 C 5366.263 9959.106, 5371.958 9961.736, 5382.389 9964.446 C 5402.012 9969.545, 5425.291 9983.656, 5473.973 10019.962 C 5572.228 10093.240, 5688.592 10169.873, 5718.288 10180.859 C 5725.764 10183.625, 5732.320 10183.680, 5735 10181 C 5737.712 10178.288, 5737.677 10168.336, 5734.916 10157 C 5729.635 10135.316, 5732.995 10132.072, 5751.500 10140.987 C 5770.783 10150.276, 5830.143 10190.774, 5892 10236.841 C 5925.188 10261.557, 5941.846 10274.702, 5964.986 10294.434 C 6018.185 10339.796, 6056.691 10365.461, 6079.807 10370.964 C 6086.098 10372.461, 6090.550 10371.771, 6093.702 10368.810 C 6098.624 10364.186, 6095.450 10349.701, 6085.524 10331.492 C 6083.010 10326.880, 6074.861 10314.017, 6067.414 10302.908 C 6046.471 10271.665, 6040.896 10259.011, 6041.825 10244.827 C 6042.075 10241.012, 6047.164 10236.317, 6051.920 10235.514 C 6060.283 10234.101, 6069.577 10241.414, 6075.122 10253.771 C 6083.184 10271.741, 6103.318 10291.672, 6124.536 10302.690 C 6144.636 10313.126, 6156.531 10313.610, 6165.139 10304.342 C 6166.591 10302.779, 6169.905 10298.125, 6172.503 10294 C 6178.419 10284.608, 6180.505 10282.316, 6185.428 10279.792 C 6191.365 10276.748, 6198.957 10276.495, 6210.852 10278.946 C 6221.352 10281.110, 6235.429 10285.587, 6282.849 10301.846 C 6321.293 10315.027, 6335.170 10317.837, 6346.115 10314.655 C 6352.791 10312.714, 6356.895 10308.865, 6365.225 10296.731 C 6377.694 10278.567, 6383.471 10278.666, 6406.521 10297.433 C 6446.206 10329.742, 6477.517 10349.761, 6519.500 10369.665 C 6549.130 10383.713, 6580.192 10394.154, 6605.031 10398.415 C 6609.723 10399.219, 6621.873 10400.360, 6632.031 10400.950 C 6668.643 10403.076, 6686.584 10406.634, 6696.225 10413.681 C 6701.989 10417.893, 6710.566 10421.037, 6718.229 10421.745 C 6722.941 10422.180, 6724.070 10421.982, 6724.589 10420.629 C 6727.171 10413.899, 6717.122 10399.007, 6690.278 10369.784 C 6655.336 10331.746, 6641.727 10311.416, 6647.404 10305.739 C 6656.054 10297.088, 6703.181 10312.121, 6737.500 10334.477 C 6741.900 10337.344, 6750.631 10343.789, 6756.902 10348.801 C 6770.527 10359.688, 6781.020 10365.229, 6789.124 10365.815 C 6798.525 10366.495, 6800.787 10362.427, 6797.399 10350.932 C 6793.467 10337.592, 6776.946 10310.120, 6756.743 10283.327 C 6730.264 10248.211, 6708.175 10224.064, 6660.831 10178.476 C 6641.481 10159.844, 6636 10152.971, 6636 10147.339 C 6636 10142.833, 6638.205 10141.904, 6651.169 10140.945 C 6671.080 10139.471, 6679.009 10135.447, 6678.991 10126.827 C 6678.963 10114.060, 6659.719 10095.788, 6618.319 10069.220 C 6584.178 10047.311, 6566.471 10031.612, 6558.956 10016.590 C 6551.934 10002.552, 6557.804 9993.275, 6576.188 9989.362 C 6586.807 9987.101, 6613.619 9988.034, 6634 9991.374 C 6677.115 9998.439, 6725.174 10006, 6726.970 10006 C 6730.075 10006, 6736.518 9999.548, 6738.867 9994.087 C 6740.910 9989.339, 6741.838 9984.413, 6743.907 9967.350 C 6745.673 9952.793, 6751.256 9945.156, 6760.792 9944.253 C 6763.659 9943.981, 6770.194 9944.800, 6777.500 9946.345 C 6849.597 9961.597, 7030.941 9966.463, 7048.508 9953.618 C 7054.158 9949.486, 7042.197 9939.790, 7014.500 9926.049 C 6988.260 9913.031, 6974.832 9907.633, 6918.500 9887.459 C 6867.373 9869.148, 6824.491 9852.116, 6801.756 9841.091 C 6781.202 9831.123, 6756.452 9824.917, 6731.348 9823.436 C 6715.148 9822.479, 6703.295 9819.076, 6669.047 9805.548 C 6615.578 9784.427, 6545.975 9751.730, 6458 9706.403 C 6340.323 9645.774, 6248.558 9602.009, 6226.313 9595.906 C 6212.584 9592.139, 6206.813 9589.925, 6192.500 9582.931 C 6161.988 9568.021, 6120.829 9544.403, 6062.456 9508.307 C 5983.411 9459.427, 5896.187 9413.396, 5825.036 9383.012 C 5789.290 9367.747, 5774.982 9361.077, 5738 9342.437 C 5634.861 9290.451, 5524.754 9222.893, 5483.500 9186.284 C 5478.548 9181.890, 5471.960 9174.745, 5468.853 9170.399 C 5457.690 9154.784, 5441.141 9125.837, 5422.029 9088.500 C 5409.479 9063.982, 5406.712 9059.132, 5396.638 9044 C 5381.210 9020.828, 5358.570 8991.946, 5331.438 8960.825 C 5312.279 8938.849, 5282.245 8908.558, 5198 8826.246 C 5119.858 8749.896, 5093.231 8723.010, 5080.378 8707.478 C 4943.149 8541.649, 4783.169 8150.216, 4741.571 7878.500 C 4740.224 7869.700, 4736.815 7843.150, 4733.995 7819.500 C 4729.028 7777.844, 4724.965 7745.777, 4717.524 7689.500 C 4713.663 7660.297, 4710.826 7632.197, 4708.790 7603 C 4706.797 7574.422, 4707.135 7457.866, 4709.323 7419 C 4717.093 7280.978, 4729.835 7159.564, 4763.057 6907 C 4769.098 6861.075, 4774.691 6816.300, 4775.487 6807.500 C 4786.696 6683.516, 4789.615 6334.542, 4780.979 6151 C 4778.677 6102.090, 4773.644 6056.664, 4763.417 5992.500 C 4755.970 5945.778, 4748.710 5908.642, 4736.534 5855 C 4718.901 5777.315, 4706.422 5716.792, 4698.073 5668.449 C 4688.198 5611.282, 4677.321 5562.362, 4645.607 5432.500 C 4631.978 5376.689, 4620.972 5328.991, 4615.379 5301.500 C 4609.656 5273.369, 4603.285 5248.324, 4597.047 5229.433 C 4586.447 5197.335, 4576.288 5151.448, 4564.404 5082 C 4557.086 5039.230, 4548.814 5009.725, 4519.130 4920.500 C 4495.284 4848.827, 4480.022 4790.392, 4479.992 4770.651 C 4479.964 4752.362, 4464.779 4703.430, 4442.705 4650.500 C 4436.971 4636.750, 4429.103 4617.175, 4425.220 4607 C 4390.785 4516.766, 4377.555 4450.241, 4391.635 4438.130 C 4394.246 4435.884, 4394.968 4435.768, 4402.962 4436.306 C 4427.053 4437.928, 4472.687 4455.023, 4553 4492.511 C 4678.830 4551.246, 4711.472 4560.236, 4827 4567.969 C 4950.665 4576.248, 5073.950 4574.879, 5146.500 4564.422 C 5152.550 4563.550, 5169.650 4560.374, 5184.500 4557.365 C 5333.648 4527.142, 5350.822 4524.896, 5455 4521.995 C 5519.348 4520.203, 5570.915 4523.839, 5639.679 4535.018 C 5734.302 4550.402, 5823.530 4575.539, 5907 4610.329 C 5935.086 4622.036, 5959.401 4629.134, 6000 4637.479 C 6044.323 4646.589, 6084.058 4652.286, 6136 4656.978 C 6225.078 4665.024, 6341.314 4687.371, 6424 4712.347 C 6540.689 4747.595, 6577.581 4758.554, 6635 4775.026 C 6665.831 4783.871, 6687.324 4791.361, 6712.465 4802.024 C 6753.509 4819.432, 6790.693 4838.187, 6823.777 4858.167 C 6875.923 4889.660, 6965.455 4929.198, 7051 4958.510 C 7137.399 4988.115, 7205.890 5017.837, 7253 5046.169 C 7297.840 5073.136, 7327.193 5087.767, 7364.500 5101.746 C 7422.191 5123.364, 7482.414 5134.804, 7569 5140.592 C 7607.511 5143.167, 7709.857 5143.583, 7793.860 5141.506 C 7832.712 5140.545, 7864.641 5139.635, 7864.814 5139.482 C 7865.280 5139.071, 7855.236 5056.609, 7852.881 5041.500 C 7830.447 4897.613, 7717.846 4695.835, 7555.387 4508.398 C 7526.830 4475.451, 7504.068 4450.978, 7470.056 4416.654 C 7392.725 4338.613, 7329.509 4284.633, 7248 4227.039 C 7206.909 4198.005, 7185.434 4181.164, 7167 4163.517 C 7161.225 4157.989, 7153.792 4151.391, 7150.483 4148.854 C 7139.676 4140.570, 7113.855 4124.041, 7096.500 4114.296 C 7087.150 4109.047, 7073.425 4101.347, 7066 4097.186 C 7037.733 4081.345, 7015.078 4067.253, 6996.500 4053.956 C 6977.241 4040.171, 6876.961 3979.981, 6750 3906.001 C 6473.594 3744.942, 6380.358 3698.884, 6267 3667.405 C 6213.638 3652.587, 6181.712 3640.279, 6122 3611.506 C 6032.716 3568.483, 5910.444 3525.113, 5771 3487.004 C 5683.645 3463.132, 5630.931 3451.571, 5536.456 3435.569 C 5505.680 3430.356, 5470.145 3424.282, 5457.488 3422.072 C 5405.320 3412.963, 5331.308 3404.738, 5137.500 3386.514 C 5105.050 3383.463, 5067.025 3379.855, 5053 3378.496 C 4942.487 3367.788, 4925.862 3366.371, 4872 3363.070 C 4799.514 3358.626, 4739.437 3356.025, 4639.500 3353.001 C 4490.714 3348.499, 4411.177 3343.312, 4371 3335.491 C 4344.139 3330.262, 4323.723 3326.611, 4285 3320.114 C 4222.498 3309.625, 4182.084 3299.663, 4100 3274.510 C 4048.965 3258.871, 4008.891 3246.969, 3975 3237.385 C 3895.688 3214.957, 3855.459 3199.927, 3824.733 3181.242 C 3763.401 3143.946, 3733.491 3095.823, 3683.493 2954 C 3652.396 2865.792, 3613.019 2766.003, 3590.362 2717.992 C 3557.341 2648.018, 3481.250 2516.765, 3420.507 2425 C 3395.488 2387.203, 3384.459 2372.325, 3371.956 2359.500 C 3360.576 2347.828, 3350.853 2334.733, 3328.515 2301 C 3262.336 2201.058, 3161.796 2031.707, 3150.051 2000.393 C 3148.281 1995.676, 3148.250 1994.952, 3149.645 1990.904 C 3152.071 1983.862, 3149.852 1966.354, 3143.069 1939.024 C 3138.445 1920.392, 3137.345 1909.421, 3139.004 1898.462 C 3143.056 1871.680, 3159.015 1851.008, 3186.662 1836.729 C 3204.422 1827.556, 3224.270 1822.330, 3252 1819.525 C 3300.971 1814.572, 3385.389 1795.300, 3462.671 1771.431 C 3501.134 1759.551, 3524.347 1750.527, 3537.563 1742.318 C 3546.728 1736.624, 3551.792 1734.388, 3565.089 1730.160 C 3585.041 1723.816, 3604.844 1719.417, 3642.189 1713.034 C 3694.584 1704.077, 3757.768 1690.497, 3839.500 1670.623 C 3923.521 1650.193, 3970.897 1643.501, 4031 1643.571 C 4058.254 1643.603, 4067.218 1644.039, 4097.500 1646.802 C 4138.145 1650.510, 4193.971 1654.879, 4246.500 1658.463 C 4315.496 1663.170, 4327.473 1664.089, 4346 1666.093 C 4392.086 1671.078, 4436.989 1679.430, 4455.300 1686.422 C 4458.710 1687.724, 4466.900 1691.484, 4473.500 1694.777 C 4514.993 1715.477, 4560.742 1724.429, 4709.500 1740.957 C 4758.612 1746.414, 4771.119 1747.333, 4788 1746.724 C 4816.070 1745.713, 4823.520 1740.248, 4838.966 1709.337 C 4851.878 1683.496, 4855.355 1668.878, 4855.337 1640.500 C 4855.316 1606.333, 4848.831 1563.468, 4828.482 1463 C 4816.786 1405.252, 4808.881 1376.363, 4794.688 1339.500 C 4756.259 1239.687, 4687.644 1154.619, 4580 1073.337 C 4525.558 1032.228, 4466.591 994.634, 4388.500 951.248 C 4364.991 938.187, 4346.283 928.257, 4275 891.003 C 4216.171 860.257, 4179.479 834.513, 4145.768 800.332 C 4129.875 784.217, 4122.282 775.385, 4108.945 757.500 C 4083.182 722.949, 4060.411 683.271, 4029.176 618.500 C 4000.015 558.028, 3979.527 522.276, 3946.656 474.500 C 3867.023 358.757, 3759.310 250.476, 3650.496 176.779 C 3605.790 146.500, 3577.967 131.212, 3513.500 101.502 C 3394.925 46.855, 3371.697 40.108, 3250.211 25.028 C 3189.788 17.527, 3149.558 13.938, 3103 11.894 C 3069.415 10.419, 2940.519 11.334, 2884.500 13.446 C 2765.547 17.929, 2629.254 15.637, 2469.500 6.468 C 2445.850 5.110, 2414.350 3.315, 2399.500 2.478 C 2366.962 0.645, 2303.750 -0.222, 2292.110 1.006 M 2075.347 176.095 C 2066.881 177.509, 2058.785 181.024, 2054.750 185.036 C 2051.673 188.096, 2051 189.477, 2051 192.734 C 2051 204.631, 2068.352 212.904, 2085.139 209.009 C 2093.531 207.062, 2102.946 202.149, 2108.033 197.062 C 2113.185 191.910, 2114.310 188.643, 2112.453 184.226 C 2109.502 177.207, 2091.847 173.338, 2075.347 176.095 M 2564.014 9316.483 C 2563.337 9317.299, 2562.399 9321.390, 2561.930 9325.575 C 2560.902 9334.741, 2558.619 9339.104, 2554.186 9340.376 C 2549.694 9341.664, 2545.322 9340.153, 2534 9333.398 C 2514.527 9321.782, 2501.047 9316.696, 2489.919 9316.766 C 2468.197 9316.902, 2458.029 9338.569, 2452.504 9396.500 C 2448.085 9442.829, 2450.158 9484.378, 2458.082 9508.303 C 2460.234 9514.800, 2463.114 9520.285, 2469.075 9529.235 C 2492.058 9563.744, 2511.089 9617.911, 2503.053 9625.947 C 2497.962 9631.038, 2487.947 9630.864, 2450 9625.028 C 2424.247 9621.067, 2406.769 9619.639, 2394.538 9620.494 C 2369.367 9622.254, 2353.943 9630.620, 2347.783 9645.853 C 2345.723 9650.947, 2345.506 9653.066, 2345.565 9667.500 C 2345.627 9682.962, 2345.769 9684.030, 2349.776 9699.248 C 2355.621 9721.450, 2357.038 9729.857, 2357.060 9742.469 C 2357.096 9762.960, 2351.343 9777.573, 2331.848 9806.500 C 2317.860 9827.257, 2309.959 9841.176, 2304.317 9855 C 2296.343 9874.539, 2295.274 9885.631, 2301.053 9888.862 C 2303.383 9890.165, 2304.168 9890.037, 2310.053 9887.395 L 2316.500 9884.500 2337 9884.586 C 2358.486 9884.677, 2375.809 9886.427, 2404.500 9891.408 C 2412.200 9892.745, 2426.410 9895.210, 2436.078 9896.885 C 2487.350 9905.772, 2544.997 9911.395, 2601.500 9913.022 C 2668.157 9914.941, 2715.698 9920.127, 2747 9928.894 C 2776.425 9937.135, 2811.842 9940.709, 2854 9939.693 C 2938.545 9937.654, 2970.327 9921.782, 3010.522 9861.524 C 3037.153 9821.602, 3057.838 9769.407, 3068.983 9714.009 C 3079.451 9661.975, 3081.291 9617.929, 3075.541 9557 C 3068.573 9483.163, 3063.346 9455.111, 3055 9446.764 C 3048.603 9440.368, 3042.623 9441.940, 3027.279 9454.054 C 3008.361 9468.990, 3002.893 9469.393, 3000.999 9455.994 C 2999.283 9443.856, 2991.849 9437.783, 2976.612 9436.074 C 2961.546 9434.385, 2949.946 9425.832, 2942.476 9410.906 C 2937.721 9401.405, 2933.368 9396.095, 2926.778 9391.758 C 2919.214 9386.779, 2911.520 9384.228, 2900.750 9383.126 C 2878.638 9380.864, 2856.864 9369.661, 2830.500 9346.981 C 2816.696 9335.107, 2809.790 9330.394, 2807.903 9331.560 C 2806.216 9332.603, 2807.258 9341.229, 2810.969 9356.933 C 2815.898 9377.791, 2815.209 9390.891, 2808.827 9397.684 C 2805.614 9401.104, 2801.685 9401.510, 2796.431 9398.967 C 2790.402 9396.048, 2785.641 9389.516, 2778.181 9373.926 C 2773.967 9365.120, 2770.782 9359.931, 2767.552 9356.607 C 2754.575 9343.254, 2737.259 9343.921, 2729.559 9358.069 C 2725.304 9365.887, 2724.963 9375.034, 2728.386 9389.500 C 2731.448 9402.442, 2731.946 9407.124, 2730.321 9407.701 C 2728.920 9408.198, 2722.090 9398.231, 2712.022 9381 C 2699.415 9359.423, 2690.090 9347.634, 2681.054 9341.847 C 2674.696 9337.775, 2672.557 9338.107, 2666.861 9344.047 C 2663.819 9347.220, 2659.511 9350.274, 2655.261 9352.271 C 2649.374 9355.037, 2647.199 9355.497, 2638.440 9355.830 C 2626.430 9356.287, 2619.171 9354.715, 2607.500 9349.129 C 2597.464 9344.326, 2590.400 9338.571, 2581.118 9327.639 C 2574.451 9319.786, 2568.822 9315, 2566.254 9315 C 2565.699 9315, 2564.691 9315.667, 2564.014 9316.483 M 2512.067 9373.875 C 2508.672 9380.219, 2508.988 9407.281, 2512.520 9412.671 C 2515.893 9417.818, 2521.001 9413.823, 2523.113 9404.386 C 2524.724 9397.187, 2523.023 9385.605, 2519.238 9378 C 2516.304 9372.107, 2513.788 9370.660, 2512.067 9373.875" stroke="none" fill="black" fill-rule="evenodd"/>
</svg>