<svg xmlns="http://www.w3.org/2000/svg" width="2048" height="2048" viewBox="0 0 2048 2048" version="1.1">
	<path d="M 1861.500 580.848 C 1854.849 583.979, 1848.752 590.269, 1841.320 601.666 C 1825.768 625.517, 1822.651 630.698, 1820.968 635.498 C 1820.003 638.249, 1818.264 642.677, 1817.105 645.338 C 1814.932 650.322, 1810.786 666.560, 1803.940 696.906 C 1800.222 713.382, 1797.420 722.237, 1792.957 731.610 C 1791.881 733.870, 1791 736.232, 1791 736.860 C 1791 738.730, 1789.119 738.178, 1784.379 734.916 C 1780.904 732.526, 1777.685 731.455, 1770.050 730.149 L 1760.203 728.465 1762.602 725.677 C 1765.293 722.548, 1765.504 721.199, 1763.864 717.601 C 1762.687 715.018, 1756.699 712.003, 1752.730 711.996 C 1750.634 711.993, 1733.550 708.666, 1712 704.066 C 1697.416 700.953, 1671.566 694.739, 1650 689.162 C 1631.603 684.405, 1614.947 681.166, 1598.106 679.071 C 1594.039 678.565, 1590.371 677.600, 1589.955 676.928 C 1589.539 676.255, 1588.723 672.508, 1588.141 668.602 C 1586.382 656.802, 1581.367 642.317, 1573.563 626.500 C 1568.955 617.160, 1565.378 608.339, 1564.083 603.122 C 1561.705 593.538, 1559.599 589.677, 1553.975 584.597 C 1550.793 581.722, 1549.186 581, 1545.965 581 C 1531.341 581, 1512.809 601.796, 1503.274 628.903 C 1500.838 635.831, 1498.444 644.822, 1497.956 648.883 C 1497.467 652.944, 1496.834 656.500, 1496.548 656.785 C 1496.263 657.071, 1485.110 657.396, 1471.765 657.508 C 1452.141 657.673, 1443.770 658.210, 1428 660.315 C 1417.275 661.747, 1401.525 663.632, 1393 664.504 C 1363.513 667.520, 1305.841 677.669, 1288.235 682.939 C 1280.973 685.113, 1281.766 685.737, 1277.542 674.515 C 1276.130 670.765, 1274.119 666.302, 1273.073 664.598 C 1272.027 662.894, 1269.961 657.675, 1268.481 653 C 1262.454 633.960, 1258.679 623.336, 1256.894 620.389 C 1254.121 615.814, 1248.104 612, 1243.656 612 C 1239.898 612, 1233.116 614.833, 1229.614 617.867 C 1226.950 620.174, 1217.362 635.024, 1212.417 644.500 C 1210.121 648.900, 1206.838 655.200, 1205.122 658.500 C 1201.556 665.354, 1198.482 682.455, 1197.356 701.701 L 1196.701 712.903 1192.600 714.573 C 1190.345 715.492, 1184.225 717.717, 1179 719.518 C 1166.834 723.711, 1135.746 738.365, 1131.779 741.777 C 1130.230 743.109, 1129.702 742.945, 1126.510 740.143 C 1121.531 735.771, 1119.034 735.417, 1111.127 737.959 C 1102.109 740.859, 1097.889 740.469, 1096.874 736.643 C 1095.769 732.479, 1093.105 730, 1089.737 730 C 1085.950 730, 1080.262 735.958, 1071.600 749 C 1068.129 754.225, 1062.908 761.345, 1059.998 764.822 L 1054.707 771.144 1052.451 762.322 C 1051.211 757.470, 1049.702 752.233, 1049.098 750.685 C 1048.494 749.137, 1048 746.576, 1048 744.994 C 1048 740.838, 1043.886 729.939, 1034.790 710 C 1018.579 674.465, 1018.519 674.245, 1016.222 642 C 1014.890 623.291, 1010.017 614.716, 991.196 597.956 C 978.900 587.007, 978.889 587, 973.711 587 C 964.138 587, 954.081 593.791, 940.598 609.361 C 931.661 619.680, 926.523 627.021, 922.102 635.790 C 917.545 644.828, 912.249 660.381, 910.990 668.421 C 910.395 672.227, 909.716 675.651, 909.482 676.030 C 908.748 677.217, 906.142 700.826, 904.960 717 C 902.643 748.690, 905.887 788.718, 913.546 822.934 C 915.446 831.422, 917 838.693, 917 839.090 C 917 839.835, 901.205 846.628, 888 851.561 C 879.364 854.787, 805.758 891.700, 783.542 903.946 L 768.584 912.191 762.542 910.345 C 754.642 907.933, 741.626 908.001, 733.500 910.498 C 728.357 912.078, 726.404 913.455, 719.830 920.135 C 711.017 929.093, 703.896 939.430, 697.193 953 C 694.612 958.225, 692.189 962.641, 691.809 962.814 C 690.762 963.289, 661.332 982.573, 654.500 987.261 C 651.200 989.525, 644.252 994.247, 639.061 997.753 C 626.254 1006.405, 621.840 1010.303, 589.500 1041.519 C 574.100 1056.385, 558.117 1071.293, 553.982 1074.649 C 549.846 1078.004, 543.659 1083.748, 540.232 1087.412 C 536.804 1091.075, 533.984 1093.944, 533.965 1093.787 C 533.099 1086.671, 530.635 1076.985, 529.201 1075.055 C 525.258 1069.749, 517.611 1072.408, 511.283 1081.287 C 505.206 1089.814, 492.579 1110.682, 489.808 1116.779 L 486.954 1123.057 482.344 1120.356 C 478.716 1118.230, 476.072 1117.558, 469.937 1117.202 C 459.475 1116.597, 455.195 1117.478, 453.807 1120.524 C 452.155 1124.149, 454.115 1125.709, 461.295 1126.483 C 470.753 1127.503, 473.749 1128.554, 478.647 1132.567 L 483.146 1136.254 479.877 1139.627 C 478.079 1141.482, 476.257 1143, 475.828 1143 C 475.399 1143, 471.227 1140.266, 466.556 1136.926 C 451.764 1126.345, 438.962 1109.800, 426.670 1085.378 C 423.659 1079.395, 420.005 1072.761, 418.550 1070.636 C 415.263 1065.833, 408.029 1051.538, 402.541 1039 C 400.254 1033.775, 394.317 1022.975, 389.348 1015 C 384.378 1007.025, 379.059 998.162, 377.527 995.305 C 373.599 987.978, 366.212 980.087, 359.521 976.070 L 353.808 972.640 347.654 973.903 C 340.232 975.427, 336.595 977.546, 331.018 983.597 C 325.202 989.906, 321.665 998.278, 315.968 1019.216 C 309.220 1044.019, 306.364 1059.652, 304.953 1079.500 C 303.132 1105.106, 303.541 1122.795, 306.433 1143.560 C 307.808 1153.427, 309.626 1166.926, 310.474 1173.558 C 312.267 1187.579, 321.144 1231.416, 323.524 1238 C 325.253 1242.783, 335.540 1282.526, 336.945 1289.852 L 337.780 1294.204 308.203 1331.852 C 270.567 1379.758, 246.048 1410.879, 224.571 1438 C 208.600 1458.168, 110.911 1581.908, 54 1654.058 C 39.975 1671.838, 22.090 1694.511, 14.255 1704.443 L 0.011 1722.500 0.005 1767.972 C 0 1812.017, 0.057 1813.383, 1.822 1811.472 C 11.013 1801.522, 36.003 1770.835, 71.019 1726.500 C 80.575 1714.400, 96.038 1694.825, 105.380 1683 C 135.206 1645.249, 156.431 1618.062, 249.811 1498 C 300.074 1433.375, 341.802 1379.868, 342.540 1379.095 C 343.681 1377.899, 344.679 1378.420, 349.248 1382.595 C 358.488 1391.040, 379.525 1398.103, 396.241 1398.374 C 400.499 1398.443, 403.986 1398.879, 403.991 1399.343 C 403.996 1399.807, 403.046 1404.757, 401.879 1410.343 C 399.038 1423.948, 398.759 1443.707, 401.325 1449.486 C 404.781 1457.268, 410.259 1461.001, 418.218 1460.999 C 423.164 1460.997, 435.768 1462.503, 448 1464.558 C 452.675 1465.343, 461.782 1466.029, 468.239 1466.081 C 478.465 1466.165, 480.408 1465.911, 483.325 1464.108 C 491.734 1458.911, 501.939 1444.649, 502.006 1438 C 502.048 1433.791, 503.171 1432.902, 507.045 1434.013 C 512.853 1435.679, 524.660 1435.118, 537.374 1432.572 C 544.043 1431.237, 551.677 1429.830, 554.337 1429.445 C 562.504 1428.266, 584.232 1432.465, 588.881 1436.121 C 593.062 1439.410, 598.203 1438.443, 600.537 1433.928 C 602.752 1429.645, 602.313 1423.185, 598.971 1410.892 C 595.448 1397.938, 590.017 1387.946, 583.271 1382.007 C 580.816 1379.846, 578.963 1377.661, 579.154 1377.151 C 579.344 1376.641, 583.763 1373.361, 588.974 1369.862 C 604.453 1359.467, 612.379 1351.329, 638 1319.528 C 655.653 1297.617, 672.815 1274.949, 680 1264.055 C 694.364 1242.275, 710.702 1207.665, 721.332 1176.500 L 727.471 1158.500 728.252 1167 C 728.681 1171.675, 729.178 1192.150, 729.355 1212.500 C 729.705 1252.680, 730.470 1259.578, 735.401 1267.030 C 737.581 1270.324, 737.690 1270.951, 736.457 1273.102 C 731.490 1281.765, 731.535 1281.553, 732.803 1290.326 C 734.410 1301.438, 734.311 1307.739, 732.397 1316.152 C 730.581 1324.136, 731.110 1331.561, 733.866 1336.799 C 736.161 1341.160, 754.290 1357.436, 760 1360.262 C 763.345 1361.918, 766.745 1362.581, 773.250 1362.844 C 779.577 1363.101, 782 1363.559, 782 1364.498 C 782 1365.212, 783.416 1368.430, 785.146 1371.648 C 786.876 1374.867, 789.134 1379.182, 790.164 1381.239 C 791.193 1383.295, 793.153 1385.709, 794.518 1386.604 C 796.012 1387.583, 797 1389.179, 797 1390.615 C 797 1393.702, 800.329 1397, 803.443 1397 C 806.359 1397, 809 1393.626, 809 1389.900 C 809 1388.440, 809.627 1386.725, 810.392 1386.089 C 811.158 1385.454, 812.332 1383.614, 813 1382 C 813.668 1380.387, 815.027 1378.809, 816.020 1378.494 C 819.169 1377.494, 825.339 1372.019, 828.201 1367.686 C 831.250 1363.067, 833.181 1362.304, 842.292 1362.118 C 850.648 1361.948, 862.644 1359.269, 869 1356.155 C 873.160 1354.117, 875.378 1352.152, 878.104 1348.087 C 884.860 1338.014, 886.326 1329.764, 883.955 1315.155 C 883.058 1309.624, 883.407 1304.073, 884.578 1305.245 C 884.796 1305.462, 885.689 1309.434, 886.563 1314.070 C 888.795 1325.915, 890.751 1329.730, 897.588 1335.578 C 908.766 1345.138, 910.082 1345.854, 920.239 1347.898 C 932.976 1350.460, 935.915 1349.793, 946.608 1341.912 C 952.794 1337.352, 956.372 1332.882, 961.746 1323 C 967.453 1312.505, 969.683 1303.966, 971.535 1285.513 C 972.418 1276.721, 973.311 1269.355, 973.521 1269.146 C 973.980 1268.686, 984.934 1274.072, 990.500 1277.493 C 995.924 1280.827, 1007.605 1283.322, 1015.455 1282.822 C 1020.780 1282.483, 1022.735 1281.796, 1027.648 1278.537 C 1036.349 1272.765, 1044.264 1264.769, 1052.602 1253.328 C 1062.338 1239.968, 1063.229 1237.373, 1062.037 1225.850 C 1060.828 1214.168, 1057.767 1208.591, 1048.831 1201.793 L 1044.162 1198.240 1049.427 1190.370 C 1059.671 1175.057, 1069.164 1154.311, 1077.989 1127.950 C 1080.668 1119.948, 1084.597 1109.373, 1086.720 1104.450 C 1089.938 1096.989, 1090.906 1095.569, 1092.540 1095.916 C 1093.618 1096.145, 1098.130 1096.423, 1102.567 1096.533 C 1107.004 1096.644, 1111.729 1097.325, 1113.067 1098.046 C 1116.538 1099.919, 1126.574 1099.662, 1132.921 1097.539 C 1135.903 1096.542, 1140.178 1094.057, 1142.421 1092.017 C 1144.665 1089.977, 1148.030 1087.789, 1149.899 1087.154 C 1154.206 1085.692, 1169.313 1085.659, 1176.021 1087.098 C 1182.441 1088.475, 1187.529 1087.562, 1190.612 1084.479 C 1193.797 1081.294, 1193.660 1077.714, 1190.002 1068.505 C 1184.074 1053.582, 1180.418 1047.501, 1174.039 1041.953 C 1170.718 1039.064, 1168.001 1036.430, 1168.002 1036.100 C 1168.003 1035.770, 1170.140 1034.151, 1172.752 1032.502 C 1180.039 1027.901, 1195.463 1015.636, 1205.958 1006.097 C 1217.915 995.228, 1219.201 993.811, 1223.727 986.506 L 1227.441 980.513 1228.705 988.006 C 1229.400 992.128, 1230.605 1001.841, 1231.383 1009.591 C 1233.005 1025.754, 1234.852 1030.619, 1240.785 1034.364 C 1242.844 1035.664, 1245.168 1037.497, 1245.948 1038.437 C 1246.728 1039.377, 1249.130 1041.046, 1251.286 1042.146 C 1254.714 1043.895, 1255.133 1044.481, 1254.627 1046.823 C 1251.200 1062.683, 1250.642 1068.286, 1251.811 1075.105 C 1253.373 1084.211, 1256.779 1090.747, 1262.703 1096.005 C 1268.258 1100.936, 1272.421 1102.926, 1277.959 1103.297 C 1280.217 1103.448, 1282.887 1104.440, 1284.202 1105.617 C 1287.878 1108.904, 1297.376 1113.793, 1301.607 1114.575 C 1304.157 1115.047, 1306.647 1116.503, 1308.824 1118.797 C 1312.242 1122.399, 1314.552 1122.916, 1320.940 1121.513 C 1326.346 1120.326, 1330.452 1113.450, 1333.930 1099.759 L 1335.774 1092.500 1347.637 1092.819 C 1358.855 1093.120, 1360.134 1092.944, 1371.169 1089.569 C 1385.254 1085.261, 1395.655 1084.753, 1402.859 1088.022 C 1405.257 1089.110, 1408.262 1090, 1409.538 1090 C 1411.920 1090, 1415 1087.652, 1415 1085.836 C 1415 1085.275, 1415.900 1083.671, 1417 1082.273 C 1418.100 1080.874, 1419 1078.621, 1419 1077.266 C 1419 1074.365, 1404.125 1043.164, 1400.437 1038.328 C 1397.931 1035.043, 1397.926 1035, 1400.048 1035 C 1408.954 1035, 1421.438 1018.869, 1435.586 989.082 L 1441.483 976.665 1442.701 991.352 L 1443.919 1006.040 1438.868 1016.270 L 1433.817 1026.500 1434.373 1034.500 C 1435.289 1047.655, 1440.016 1060.777, 1446.385 1067.847 C 1450.745 1072.686, 1460.613 1075.818, 1473.732 1076.527 C 1478.084 1076.762, 1479.501 1077.347, 1482.165 1080.012 C 1489.805 1087.652, 1501.159 1097.002, 1503.514 1097.593 C 1505.179 1098.011, 1506.576 1099.442, 1507.517 1101.694 C 1509.156 1105.617, 1512.288 1105.965, 1512.814 1102.282 C 1512.987 1101.073, 1514.562 1099.193, 1516.314 1098.104 C 1518.066 1097.016, 1524 1091.791, 1529.500 1086.493 L 1539.500 1076.861 1546.745 1077.515 C 1561.445 1078.843, 1579.994 1072.220, 1583.200 1064.500 C 1583.885 1062.850, 1586.703 1059.116, 1589.463 1056.202 C 1597.522 1047.693, 1598.635 1044.193, 1595.116 1038.422 L 1593.239 1035.344 1597.060 1029.660 C 1603.353 1020.298, 1603.630 1011.057, 1597.967 999.432 L 1594.665 992.653 1594.388 966.577 C 1594.068 936.409, 1592.730 923.153, 1586.966 893 C 1583.263 873.627, 1582.766 869.175, 1581.951 848 C 1581.380 833.162, 1581.403 821.367, 1582.015 816 C 1583.247 805.186, 1583.241 786.442, 1582.003 777.882 C 1581.476 774.242, 1580.818 765.017, 1580.540 757.382 C 1580.263 749.747, 1579.755 736.929, 1579.412 728.898 C 1578.846 715.656, 1578.948 714.234, 1580.511 713.634 C 1583.981 712.302, 1611.500 716.752, 1617.620 719.635 L 1620.740 721.105 1616.771 731.216 C 1608.738 751.679, 1605.987 767.924, 1606.018 794.711 C 1606.045 817.914, 1608.188 831.121, 1616.550 859.638 C 1622.558 880.127, 1627.581 892.251, 1643.427 924.517 C 1658.143 954.481, 1660.099 959.837, 1663.550 979.626 C 1664.368 984.315, 1665.699 989.738, 1666.509 991.677 C 1668.751 997.042, 1675.295 1004.288, 1683.173 1010.129 C 1688.643 1014.183, 1690.806 1016.540, 1692.590 1020.391 L 1694.906 1025.390 1691.703 1028.530 C 1688.452 1031.716, 1678.997 1051.156, 1679.004 1054.637 C 1679.012 1058.994, 1682.963 1063.081, 1690.771 1066.809 C 1699.204 1070.836, 1698.422 1070.778, 1730.076 1069.747 C 1736.897 1069.525, 1738.068 1069.775, 1741.826 1072.264 C 1745.605 1074.767, 1746 1075.419, 1746 1079.159 C 1746 1081.841, 1747.271 1085.958, 1749.623 1090.895 C 1754.260 1100.628, 1755.509 1102, 1759.734 1102 C 1762.604 1102, 1764.078 1101.046, 1768.829 1096.114 C 1773.871 1090.880, 1775.161 1090.091, 1780.466 1088.998 C 1786.221 1087.812, 1790.749 1084.688, 1793.576 1079.952 C 1794.378 1078.610, 1796.022 1078.529, 1806 1079.340 C 1812.325 1079.855, 1819.970 1080.249, 1822.988 1080.216 C 1829.376 1080.146, 1829.655 1079.889, 1838.978 1065.500 C 1848.786 1050.360, 1852.644 1034.418, 1849.086 1023.728 C 1847.888 1020.128, 1847.970 1019.798, 1850.917 1016.442 C 1852.615 1014.508, 1855.226 1010.580, 1856.720 1007.713 C 1859.108 1003.131, 1859.430 1001.410, 1859.379 993.500 C 1859.348 988.550, 1858.970 980.225, 1858.541 975 C 1857.597 963.513, 1860.004 949.575, 1865.585 934.210 C 1874.781 908.892, 1879.124 893.354, 1884.371 867 C 1888.859 844.455, 1889.597 839.700, 1891.511 821 C 1893.274 803.777, 1895.331 789.072, 1897.458 778.500 C 1898.233 774.650, 1900.134 763.625, 1901.683 754 C 1904.491 736.555, 1904.500 736.352, 1904.450 689.500 C 1904.401 644.256, 1904.319 642.257, 1902.261 636 C 1901.085 632.425, 1899.580 626.125, 1898.915 622 C 1896.041 604.170, 1879.850 581.559, 1868.484 579.504 C 1866.635 579.170, 1863.978 579.681, 1861.500 580.848 M 1441.917 701.414 C 1441.688 701.641, 1434.525 702.320, 1426 702.921 C 1417.475 703.523, 1406.450 704.454, 1401.500 704.991 C 1396.550 705.528, 1383.050 706.702, 1371.500 707.599 C 1343.980 709.737, 1342.436 710.015, 1342.733 712.773 C 1342.861 713.963, 1344.844 719.335, 1347.140 724.709 C 1350.215 731.906, 1351.708 737.223, 1352.807 744.884 C 1354.167 754.378, 1354.149 756.139, 1352.594 765.022 C 1351.657 770.376, 1350.015 777.624, 1348.944 781.129 C 1347.874 784.633, 1346.712 790.510, 1346.361 794.190 L 1345.724 800.880 1349.732 805.433 C 1352.248 808.291, 1354.283 811.943, 1355.198 815.243 C 1356.267 819.101, 1357.167 820.552, 1358.578 820.695 C 1369.920 821.846, 1372.277 822.378, 1375.379 824.482 L 1378.840 826.831 1382.134 824.401 C 1387.954 820.107, 1398.103 809.724, 1404.519 801.500 C 1411.769 792.208, 1428.448 766.921, 1433.741 757.199 C 1438.797 747.911, 1447.305 734.843, 1449.634 732.788 C 1450.700 731.847, 1453.230 730.384, 1455.254 729.538 C 1467.715 724.332, 1481.240 732.727, 1486.371 748.853 L 1488.711 756.207 1489.779 751.853 C 1491.585 744.491, 1493.505 721.025, 1492.440 719.336 C 1491.912 718.499, 1486.760 715.319, 1480.990 712.269 C 1475.221 709.218, 1468.619 705.435, 1466.320 703.861 C 1462.413 701.187, 1461.493 701, 1452.236 701 C 1446.790 701, 1442.146 701.186, 1441.917 701.414 M 1680.698 733.638 C 1681.794 735.212, 1685.890 742.125, 1689.800 749 C 1693.710 755.875, 1699.219 764.200, 1702.043 767.500 C 1704.866 770.800, 1708.925 776.045, 1711.061 779.155 C 1717.063 787.893, 1731.736 796.928, 1745.751 800.516 C 1749.190 801.396, 1752.398 801.872, 1752.880 801.574 C 1754.506 800.569, 1752.834 791.574, 1748.904 780.184 C 1746.757 773.961, 1745 767.107, 1745 764.955 C 1745 762.802, 1744.251 759.168, 1743.335 756.879 C 1741.856 753.183, 1740.858 752.342, 1734.417 749.366 C 1727.654 746.242, 1688.584 732.946, 1681.762 731.448 L 1678.704 730.776 1680.698 733.638 M 1187.818 762.363 C 1178.121 766.971, 1167.557 772.326, 1164.343 774.262 C 1156.257 779.134, 1141.865 786.179, 1133.500 789.361 C 1123.672 793.100, 1124.114 792.550, 1124.733 800.266 C 1125.238 806.550, 1125.462 807.074, 1127.888 807.634 C 1129.325 807.965, 1135.675 809.803, 1142 811.717 C 1158.137 816.600, 1157.396 816.578, 1167.500 812.460 C 1172.450 810.443, 1178.568 808.167, 1181.095 807.403 C 1183.622 806.640, 1191.779 803.086, 1199.222 799.507 C 1206.665 795.928, 1213.311 793, 1213.991 793 C 1215.349 793, 1215.180 791.450, 1212.681 781 C 1211.826 777.425, 1210.310 770.037, 1209.313 764.581 C 1208.316 759.126, 1207.039 754.510, 1206.475 754.323 C 1205.911 754.136, 1197.516 757.754, 1187.818 762.363 M 1771.574 765.750 C 1772.310 767.813, 1772.932 771.638, 1772.956 774.250 C 1772.980 776.862, 1773.397 779, 1773.881 779 C 1774.996 779, 1779.160 773.554, 1781.462 769.087 C 1783.198 765.716, 1783.191 765.652, 1780.860 763.859 C 1779.473 762.793, 1776.796 762.035, 1774.368 762.022 L 1770.236 762 1771.574 765.750 M 1085.829 814.615 L 1082.157 816.151 1083.410 819.769 C 1084.099 821.759, 1085.127 823.542, 1085.694 823.731 C 1087.222 824.241, 1093.161 817.073, 1092.793 815.164 C 1092.366 812.945, 1090.223 812.776, 1085.829 814.615 M 1122.819 827.750 C 1123.046 831.462, 1123.360 834.643, 1123.517 834.818 C 1123.962 835.314, 1138.753 829.901, 1140.556 828.583 C 1141.904 827.597, 1140.798 826.887, 1133.732 824.203 C 1122.060 819.769, 1122.325 819.683, 1122.819 827.750 M 906 895.693 C 901.176 898.330, 883.245 908.667, 880.218 910.555 C 879.694 910.882, 901.458 932.438, 909.754 939.808 C 914.738 944.237, 919.290 949.360, 921.306 952.808 C 924.934 959.016, 924.738 958.951, 935.236 957.386 L 938.971 956.829 936.569 953.665 C 935.248 951.924, 932.627 947.575, 930.745 944 C 928.864 940.425, 925.663 934.514, 923.634 930.865 C 919.664 923.729, 915.468 909.029, 914.387 898.469 C 914.022 894.911, 913.448 892.031, 913.112 892.070 C 912.775 892.108, 909.575 893.738, 906 895.693 M 854.885 925.856 C 851.132 928.776, 831.560 940.687, 825.232 943.901 C 822.079 945.502, 815.757 949.256, 811.182 952.243 L 802.865 957.674 815.192 970.087 C 830.047 985.044, 853.149 1007.220, 853.441 1006.801 C 853.557 1006.636, 855.800 998.400, 858.426 988.500 C 867.417 954.603, 867.508 954.362, 873.481 948.389 L 878.808 943.061 868.879 933.531 C 863.418 928.289, 858.571 924, 858.109 924 C 857.648 924, 856.197 924.835, 854.885 925.856 M 700 1038.117 C 697.386 1039.162, 693.185 1039.873, 689.977 1039.815 C 680.322 1039.639, 673.355 1044.368, 634.621 1077.391 C 614.376 1094.651, 593.578 1115.282, 584.105 1127.500 C 570.877 1144.561, 569.934 1143.700, 593.243 1135.839 C 630.613 1123.235, 637.369 1118.486, 645.025 1099.439 C 653.425 1078.537, 665.250 1066.495, 682.154 1061.628 C 689.899 1059.398, 702.451 1059.787, 711.074 1062.523 C 712.840 1063.084, 712.873 1062.890, 711.623 1059.310 C 710.891 1057.215, 709.979 1053.700, 709.597 1051.500 C 708.771 1046.744, 706.014 1037.744, 705.127 1036.909 C 704.782 1036.585, 702.475 1037.128, 700 1038.117" stroke="none" fill="black" fill-rule="evenodd"/>
</svg>