<?xml version="1.0" encoding="UTF-8" standalone="no"?>
<!-- Created with Inkscape (http://www.inkscape.org/) -->

<svg
   xmlns:svg="http://www.w3.org/2000/svg"
   xmlns="http://www.w3.org/2000/svg"
   version="1.1"
   width="100%"
   height="100%"
   viewBox="0 0 841.89 595.28"
   id="Layer_1"
   xml:space="preserve"><defs
   id="defs15" />
<style
   type="text/css"
   id="style3" />
<g
   id="g5">
	<path
   d="m 82.39,236.45 c -4.47,0.33 -7.08,0.64 -7.08,0.64 2.42,-0.29 4.68,-0.38 7.08,-0.64 z"
   id="path7"
   style="stroke:#000000;stroke-width:0.01;stroke-miterlimit:10" />
	<path
   d="m 526.52,471.34 0.5,-6.34 c 0,0 -13.27,-164.97 -19.18,-186.77 0,0 -2.76,-12.08 -6.69,-26.68 0.01,-0.18 0.05,-0.34 0.06,-0.52 -4.81,-17.84 -8.97,-32.21 -11.26,-37.84 0.35,-2.01 0.63,-4.73 -0.25,-5.86 -0.61,-0.78 -1.31,-1.39 -1.94,-1.9 -6.27,-23.59 -11.27,-41.9 -13.53,-48.89 0,0 -14.51,-47.28 -25.57,-78.3 l -2.33,-5.94 c 0,0 -1.19,-8.84 -2.42,-11.21 -1.23,-2.37 -2.56,-3.86 -2.56,-3.86 l -1.12,0.33 1.62,7.22 c 0,0 -17.08,-36.13 -17.52,-37.2 -0.44,-1.08 -4.41,-13.41 -5.39,-13.78 -0.98,-0.37 -1.17,1.44 -1.17,1.44 l -5.36,-9.67 c 0,0 -2.34,-1.53 -1.99,0.45 0.34,1.98 0.63,3.68 0.63,3.68 l 3.4,5.41 c 0,0 -1.86,-0.76 -1.39,0.9 0.47,1.65 3.76,7.45 5.05,8.3 1.29,0.85 1.7,0.48 1.7,0.48 0,0 -1.07,0.52 -0.51,2.16 0.57,1.64 2.52,7.66 5.61,11.67 0,0 -0.76,1.05 0.31,3.16 1.07,2.11 3.18,6.63 4.07,6.14 0.88,-0.49 1.26,-4.11 1.26,-4.11 0,0 9.83,19.83 10.08,20.95 0.25,1.12 -0.79,1.35 -0.79,1.35 0,0 0.06,2.92 2.14,5.98 2.08,3.06 3.09,4.89 3.09,4.89 0,0 -3.53,-5.08 -3.38,-3.06 0.16,2.02 -0.16,2.39 2.42,7.68 l 1.42,2.33 c 0,0 -0.85,2.84 1.45,5.55 2.3,2.72 4.04,4.68 4.04,4.68 l 2.11,4.52 c 0,0 -7.03,-7.8 -12.24,-9.28 0,0 -8.4,-2.83 -16.7,-2.14 -8.3,0.69 -11.15,5.74 -11.15,5.74 0,0 -2.08,-0.41 -3.63,1.11 l -0.35,2.44 c 0,0 -2.27,-0.36 -3.12,0.7 -0.86,1.06 -2.94,5.94 -2.51,7.9 0.44,1.96 1.36,2.05 1.36,2.05 0,0 -8.09,12.69 -10.41,20.56 0,0 -1.36,-2.05 -2.65,0.59 -1.3,2.64 -0.83,6.06 -0.83,6.06 0,0 0.12,4.09 1.55,2.01 1.42,-2.08 1.61,-5.65 1.42,-2.08 -0.19,3.57 0.6,4.86 0.6,4.86 0,0 1.73,1.08 2.46,-2.32 0.73,-3.4 0.29,-6.24 0.29,-6.24 0,0 0.44,3.72 1.17,2.09 0.73,-1.63 1.27,-4.99 1.27,-4.99 0,0 -0.45,3.33 0.15,4.67 0.6,1.34 2.78,1.72 2.84,-0.64 0.07,-2.36 0.07,-2.36 0.07,-2.36 0,0 2.18,1.27 3.41,-1.65 1.23,-2.92 1.23,-2.92 1.23,-2.92 0,0 -0.6,2.19 -0.16,5.91 0.44,3.72 4.26,-0.96 4.23,-3.3 -0.03,-2.35 -0.03,-2.35 -0.03,-2.35 l 0.67,-4.55 c 0,0 4.63,-0.2 4.64,-5.91 0.01,-5.71 0.52,-13.18 0.52,-13.18 l 3.86,-7.61 c 0,0 1.68,-6.27 9.92,-4.59 8.24,1.67 6.92,-3.32 22.6,11.96 0,0 6.59,18.19 10.93,30.99 1.58,4.67 2.88,8.67 3.43,10.74 0,0 -1.23,-1.63 -3.02,-3.76 l 0.25,4.21 c 1.1,2.1 2.13,4.54 3.04,7.43 0,0 2.11,1.88 4.63,9.54 0.14,0.44 0.43,1.41 0.78,2.66 1.42,5.01 4.47,16.34 8.46,31.38 -3.66,-8.4 -8.16,-18.26 -12.45,-26.2 l -2.12,-3.28 c 0,0 0.42,-5.18 -0.9,-6.45 -1.32,-1.27 -3.02,-1.99 -3.02,-1.99 l -1.85,0.35 0.68,4.15 c 0,0 -17.48,-19.58 -17.89,-20.17 -0.41,-0.59 -3.45,-7.52 -4.89,-7.61 -1.44,-0.09 -2.21,1.02 -2.21,1.02 l -5.92,-5.14 c 0,0 -3.27,-0.62 -3.25,0.53 0.03,1.15 0.03,2.14 0.03,2.14 l 3.95,2.82 c 0,0 -2.73,-0.21 -2.42,0.73 0.31,0.94 3.98,4.01 5.78,4.35 1.8,0.35 2.55,0.06 2.55,0.06 0,0 -1.83,0.46 -1.36,1.37 0.47,0.91 1.97,4.3 5.79,6.31 0,0 -1.47,0.73 -0.33,1.87 1.14,1.14 3.28,3.59 4.8,3.17 1.52,-0.41 3.06,-2.65 3.06,-2.65 0,0 10.31,10.69 10.42,11.33 0.1,0.64 -1.59,0.92 -1.59,0.92 0,0 -0.66,1.76 1.81,3.33 2.48,1.57 3.59,2.55 3.59,2.55 0,0 -4.23,-2.61 -4.51,-1.41 -0.28,1.2 -0.87,1.46 1.82,4.32 l 1.63,1.22 c 0,0 -2.08,1.83 0.84,3.16 2.92,1.33 5.13,2.29 5.13,2.29 l 2.14,2.45 c 0,0 -3.34,-1.32 -7.6,-2.46 -0.98,-2.93 -2.33,-6.6 -3.49,-6.85 -1.83,-0.41 -3.06,0.81 -3.06,0.81 l -6.52,-7.54 c 0,0 -4.08,-1.43 -4.28,0 -0.2,1.43 -0.41,2.65 -0.41,2.65 l 4.48,4.28 c 0,0 -3.47,-0.82 -3.26,0.41 0.14,0.84 2.07,2.94 4.02,4.61 -4.49,-0.08 -13.15,-0.08 -22.43,0.98 -13.23,1.5 -19.02,4.92 -19.02,4.92 0,0 -3.17,0.02 -6,1.15 l -1.18,1.52 c 0,0 -3.48,0.08 -5.1,0.83 -1.62,0.75 -6.17,3.97 -5.99,5.1 0.18,1.12 1.6,1.06 1.6,1.06 0,0 -16.02,8.72 -21.69,13.78 0,0 -1.6,-1.06 -4.33,0.71 -2.72,1.76 -2.87,3.77 -2.87,3.77 0,0 -0.87,2.45 1.91,1.01 2.78,-1.45 4.01,-3.63 2.78,-1.45 -1.23,2.18 -0.33,2.86 -0.33,2.86 0,0 2.45,0.42 4.48,-1.72 2.03,-2.15 2.07,-3.8 2.07,-3.8 0,0 -0.28,2.19 1.29,1.11 1.57,-1.08 3.29,-3.18 3.29,-3.18 0,0 -1.57,2.07 -0.97,2.8 0.6,0.73 3.92,0.68 4.64,-0.76 0.72,-1.44 0.72,-1.44 0.72,-1.44 0,0 3.09,0.48 5.79,-1.44 2.7,-1.93 2.7,-1.93 2.7,-1.93 0,0 -1.52,1.4 -1.79,3.59 -0.28,2.19 6.95,-1.14 7.51,-2.55 0.56,-1.41 0.56,-1.41 0.56,-1.41 l 2.23,-2.84 c 0,0 7.33,-0.73 8.83,-4.18 1.5,-3.45 4.24,-8.02 4.24,-8.02 l 8.05,-5.1 c 0,0 4.26,-4 16.78,-4.07 6.25,-0.03 9.19,-0.76 13.14,-0.58 0.54,0.39 1.14,1.07 1.58,1.22 2.24,0.79 3.26,0.59 3.26,0.59 0,0 -2.44,0.2 -2.04,1.42 0.41,1.22 1.63,5.7 6.11,8.96 0,0 -2.04,0.61 -0.81,2.24 1.22,1.63 3.46,5.09 5.5,4.89 2.04,-0.2 4.48,-2.65 4.48,-2.65 0,0 2.92,4.05 5.75,8.11 -5.95,-2.46 -14.2,-5.02 -19.37,-2.82 l -15.16,3.28 c 0,0 -1.53,-3.54 -3.98,-2.97 -2.44,0.56 -2.85,1.95 -2.85,1.95 0,0 -0.94,-2.82 -6.28,0.37 0,0 -3.63,-0.89 -5.64,1.42 0,0 -7.67,0.59 -8.85,2.11 0,0 -12.38,1.86 -10.52,4.53 1.86,2.66 7.42,-0.22 7.42,-0.22 0,0 -1.49,1.56 -1,2.64 0.49,1.07 -5.83,5.09 -5.83,5.09 0,0 -9.29,3.33 -9.44,5.33 -0.15,2 -3.85,5.58 -3.85,5.58 0,0 -9.18,0.13 -9.97,4.99 0,0 -5.71,3.13 -7.15,5.97 -5.98,2.33 -12.32,5 -15.97,7.24 0,0 -1.83,-1.63 -5.7,0 -3.87,1.63 -4.48,4.07 -4.48,4.07 0,0 -1.63,2.85 2.24,1.63 3.87,-1.22 5.91,-3.67 3.87,-1.22 -2.04,2.44 -1.02,3.46 -1.02,3.46 0,0 3.06,1.02 6.11,-1.22 3.06,-2.24 3.47,-4.28 3.47,-4.28 0,0 -0.82,2.65 1.42,1.63 0.69,-0.31 1.35,-0.8 2.03,-1.24 -1.49,1.42 -3.55,3.58 -2.89,4.34 0,0 -7.47,5.7 -5.54,5.87 0,0 -12.43,11.29 -7.67,11.31 0,0 -5.08,4.79 -3.87,5.42 0,0 -5.02,2.42 -7.57,4.76 -62.91,-35.42 -146.1,-55.77 -255.67,-43.92 28.51,-2.14 140.53,-5.61 245.93,57.13 -0.62,0.87 -0.94,1.5 -0.94,1.5 0,0 -3.79,4.7 -0.39,3.2 1.65,-0.73 3.15,-1.82 4.33,-2.98 2.45,1.49 4.88,3.08 7.32,4.65 -1.51,1.18 -2.8,2.42 -2.36,3.13 0,0 -10.8,5.53 -8.35,6.13 0,0 -18.34,11.43 -12.22,12.41 0,0 -7.54,4.89 -6.11,5.91 0,0 -17.93,5.09 -11.82,8.76 l -7.95,5.5 c -5.91,3.26 -7.78,6.11 -7.78,6.11 0,0 -5.86,5.04 -1.18,3.88 4.68,-1.16 8.97,-4.28 9.98,-6.72 1.02,-2.44 -3.87,-0.81 2.24,-4.28 6.11,-3.47 6.11,-3.47 6.11,-3.47 0,0 0.81,1.02 3.26,0 2.44,-1.02 6.11,-7.13 6.11,-7.13 0,0 -0.82,1.43 0,2.04 0.81,0.61 6.11,-1.42 7.54,-3.06 1.43,-1.63 4.28,-4.14 5.71,-6.56 1.43,-2.41 7.95,-10.36 7.95,-10.36 0,0 2.44,0 4.07,-1.02 1.63,-1.02 6.72,-4.69 7.74,-6.72 0,0 1.26,-0.02 3.1,-0.57 69.87,46.71 134.61,124.53 167.06,254.1 l 7.38,-1.12 0.55,0.11 c 0.01,0.63 0.02,1.01 0.02,1.01 l 0.08,-0.99 5.48,1.06 c 0.07,-0.74 0.16,-1.41 0.23,-2.14 l 1.54,-0.23 c 0,0 -0.32,-1.89 -0.96,-5.13 C 558.36,222.64 732.81,220.28 762,222.24 602.93,202.8 546.34,366.03 526.52,471.34 z M 465.05,181.05 c -0.1,-0.21 -0.34,-0.95 -0.66,-1.95 2.07,0.63 4.4,1.39 7.15,2.34 0,0 10.54,18.9 11.74,23.32 0,0 -1.61,-0.87 -3.98,-1.98 -5.45,-8.25 -13.97,-21.18 -14.25,-21.73 z m -61.41,40.03 c 1.98,-0.49 4.86,-2.28 6.63,-4.05 1.77,-1.77 0.64,-0.93 1.4,-2.13 0.76,-1.19 5.59,-3.63 5.9,-4.67 0.22,-0.76 -0.51,1.46 -0.74,2.22 0.12,-0.54 -1.33,2.33 1.31,0.82 2.84,-1.62 7.93,-4.43 8.85,-5.57 0.92,-1.14 -1.08,2.16 -1.08,2.16 0,0 1.75,0.04 3.53,-0.74 1.77,-0.78 1.91,0.02 1.91,0.02 0,0 3.47,-1.06 4.09,-2.15 0.61,-1.09 1.41,-1.09 1.41,-1.09 0,0 1.82,0.48 2.93,-0.49 1.11,-0.96 1.24,-0.2 1.24,-0.2 0,0 5.29,-0.61 7.51,-1.58 2.22,-0.96 4.3,-2.79 4.3,-2.79 0,0 19.23,-3.29 26.82,5.7 1.02,1.53 1.71,2.63 1.71,2.84 0,0.81 -2.24,0.81 -2.24,0.81 0,0 -1.22,2.04 1.63,4.48 2.85,2.44 4.07,3.87 4.07,3.87 0,0 -4.89,-4.08 -5.5,-2.65 -0.61,1.43 -1.43,1.63 1.43,5.7 l 1.83,1.83 c 0,0 -3.06,1.83 0.41,4.07 3.46,2.24 6.11,3.87 6.11,3.87 l 2.24,3.46 c 0,0 -10.8,-6.5 -20.78,-8.34 0,0 -15.89,-3.27 -33.21,-4.08 -17.32,-0.81 -25.47,2.24 -25.47,2.24 0,0 -4.08,-0.61 -7.95,0.2 l -1.83,1.64 c 0,0 -1.48,-0.18 -3.15,-0.23 0.39,-0.82 0.76,-1.63 1.26,-1.97 1.28,-0.87 1.45,-2.71 3.43,-3.2 z m -58.44,56.74 c 0,0 -0.43,1.23 0.26,1.61 0.7,0.38 4.45,-1.88 5.32,-3.34 0.87,-1.46 2.71,-3.8 3.48,-5.88 0.77,-2.08 4.69,-9.15 4.69,-9.15 0,0 1.85,-0.3 2.96,-1.31 1.1,-1.01 4.49,-4.53 5,-6.26 0,0 1.47,0.25 3.99,-1.81 0.62,-0.51 0.95,-1.07 1.43,-1.64 0.1,-0.09 0.34,-0.02 0.42,-0.13 1.22,-1.63 1.22,-1.63 1.22,-1.63 0,0 3.87,1.22 7.74,-0.61 3.87,-1.83 3.87,-1.83 3.87,-1.83 0,0 -2.24,1.42 -3.06,4.07 -0.81,2.65 9.17,0 10.19,-1.63 1.02,-1.63 1.02,-1.63 1.02,-1.63 l 3.46,-3.06 c 0,0 9.58,0.59 12.23,-3.37 2.65,-3.96 7.13,-9.05 7.13,-9.05 l 11.41,-4.68 c 0,0 6.32,-4.08 22.41,-1.64 16.1,2.45 15.69,-1.22 40.75,11.82 0,0 4.43,11.8 7.45,21.15 0.44,1.69 0.86,3.23 1.31,4.97 0.04,-0.16 0.02,-0.36 0.06,-0.53 0.7,2.37 1.24,4.44 1.36,5.58 0,0 -20.78,-15.84 -32.8,-13.01 l -20.17,0.99 c 0,0 -1.22,-4.68 -4.48,-4.47 -3.26,0.2 -4.08,1.83 -4.08,1.83 0,0 -0.61,-3.67 -8.15,-0.82 0,0 -4.48,-1.83 -7.54,0.61 0,0 -9.98,-0.81 -11.82,0.81 0,0 -16.3,-0.2 -14.47,3.47 1.83,3.67 9.58,1.22 9.58,1.22 0,0 -2.24,1.63 -1.83,3.06 0.41,1.43 -8.56,5.1 -8.56,5.1 0,0 -12.63,2.23 -13.24,4.68 -0.61,2.44 -6.11,6.11 -6.11,6.11 0,0 -11.82,-1.69 -13.85,4.15 0,0 -10.78,3.6 -11.12,7.44 -3.27,-2.06 -6.73,-4 -10.12,-5.98 1.39,-1.93 2.66,-5.21 2.66,-5.21 z m 14.94,16.15 c 0.59,-0.65 0.79,-0.86 0.79,-0.86 0,0 1.63,0 2.85,0 1.22,0 1.22,0 1.22,0 v 2.24 c 0,0 1.22,1.69 3.87,-0.69 2.65,-2.37 4.89,-6.04 4.89,-6.04 l 3.87,-2.04 c 0,0 1.43,-1.22 1.43,-1.43 0,-0.21 2.24,1.21 5.3,-2.35 3.06,-3.56 4.28,-6.82 6.11,-7.63 1.83,-0.81 2.44,-3.06 5.09,-3.26 2.65,-0.2 6.72,-1.83 9.37,-3.67 2.65,-1.83 1.02,-1.03 2.24,-2.35 1.22,-1.32 7.95,-3.36 8.56,-4.58 0.45,-0.9 -0.96,1.7 -1.42,2.59 0.27,-0.65 -2.2,2.61 1.51,1.28 3.99,-1.43 11.12,-3.87 12.55,-5.09 1.42,-1.22 -1.83,2.44 -1.83,2.44 0,0 2.24,0.41 4.69,-0.2 2.44,-0.61 2.44,0.41 2.44,0.41 0,0 4.69,-0.61 5.71,-1.83 1.02,-1.22 2.04,-1.07 2.04,-1.07 0,0 2.24,0.96 3.87,-0.01 1.63,-0.97 1.63,0 1.63,0 0,0 6.93,0.31 9.98,-0.43 3.06,-0.74 6.11,-2.57 6.11,-2.57 0,0 30.97,-0.41 35.25,16.5 0,0 3.47,1.63 5.09,7.33 1.63,5.7 12.63,107.58 13.86,154.64 0.67,25.67 1.34,59.79 1.82,85.56 -0.03,0.29 -0.08,0.62 -0.11,0.92 -15.58,-54.01 -57.76,-160.3 -158.78,-227.81 z"
   id="path9"
   style="stroke:#000000;stroke-width:0.01;stroke-miterlimit:10" />
	<path
   d="m 762.05,222.25 c 1.44,0.18 2.79,0.18 4.25,0.39 0.01,0 -1.56,-0.21 -4.25,-0.39 z"
   id="path11"
   style="stroke:#000000;stroke-width:0.01;stroke-miterlimit:10" />
</g>
</svg>