<?xml version="1.0" encoding="UTF-8" standalone="no"?>
<!DOCTYPE svg PUBLIC "-//W3C//DTD SVG 1.1//EN" "http://www.w3.org/Graphics/SVG/1.1/DTD/svg11.dtd">
<svg width="100%" height="100%" viewBox="0 0 4961 3508" version="1.1" xmlns="http://www.w3.org/2000/svg" xmlns:xlink="http://www.w3.org/1999/xlink" xml:space="preserve" xmlns:serif="http://www.serif.com/" style="fill-rule:evenodd;clip-rule:evenodd;stroke-linecap:round;stroke-linejoin:round;stroke-miterlimit:1.5;">
    <g id="salmo-trutta" serif:id="salmo trutta" transform="matrix(2.50011,0,0,2.50011,-5525.28,-3075)">
        <path d="M2272.09,1750.04C2273.7,1755.99 2289.59,1768.13 2290.29,1779.71C2293.45,1832.2 2293.74,2004.63 2291.1,2065C2289.94,2091.23 2280.45,2121.31 2274.39,2141.96C2269.6,2158.23 2243.24,2185.97 2254.68,2188.87C2266.13,2191.78 2312.95,2167.05 2343.04,2159.38C2384.41,2148.84 2463.95,2107.45 2518.72,2079.71C2541.57,2068.14 2560.08,2051.83 2569.76,2052.48C2574.61,2052.81 2683.68,2061.06 2687.82,2061.3C2697.43,2061.87 2627.35,2077.81 2626.05,2083.48C2624.93,2088.35 2665.1,2140.82 2678.67,2169.24C2692.57,2198.35 2721.1,2245.04 2734.93,2241.07C2759.22,2234.1 2808.18,2199.15 2835.46,2179.93C2858.13,2163.96 2887.48,2137.82 2898.61,2125.77C2902.78,2121.27 2899.48,2110.97 2903.43,2108.8C2908.66,2105.92 2921.9,2118.15 2931.97,2119.21C2962.8,2122.46 3057.64,2135.98 3077.79,2145.84C3083.49,2148.64 3067.98,2154.15 3064.35,2159.37C3059.34,2166.59 3051.09,2178.31 3047.7,2189.17C3043.99,2201.06 3040.85,2218.23 3042.11,2230.73C3043.31,2242.66 3048.37,2254.39 3055.24,2264.2C3062.68,2274.83 3072.25,2295.91 3086.75,2294.51C3102.69,2292.96 3132.51,2269.39 3150.86,2254.93C3168.12,2241.33 3186.6,2219.16 3196.87,2207.72C3202.77,2201.15 3203.79,2187.93 3212.47,2186.29C3225.1,2183.91 3252.49,2191.98 3272.64,2193.43C3304.01,2195.67 3357.97,2200.67 3400.7,2199.76C3443.49,2198.86 3486.79,2194.29 3529.41,2187.98C3575.74,2181.12 3631.39,2170.9 3678.64,2158.61C3724.27,2146.74 3774.03,2126.68 3812.93,2114.21C3845.85,2103.67 3889.5,2089.81 3912.06,2083.83C3923.87,2080.7 3936.67,2082.06 3948.3,2078.3C3964.04,2073.22 3992.35,2059.64 4006.48,2053.33C4015.48,2049.31 4023.88,2043.98 4033.08,2040.44C4048.12,2034.67 4078.73,2026.84 4096.75,2018.68C4112.57,2011.51 4131.95,1999.67 4141.19,1991.48C4147.32,1986.06 4151.53,1977.33 4152.22,1969.57C4152.9,1961.81 4151.12,1946.04 4145.3,1944.94C4139.47,1943.84 4127.15,1957.88 4117.27,1962.96C4105.97,1968.76 4091.61,1976.86 4077.52,1979.79C4062.94,1982.82 4032.52,1984.11 4029.77,1981.17C4027.01,1978.23 4049.88,1967.13 4061.01,1962.17C4072.41,1957.08 4087.28,1953.82 4098.19,1950.67C4107.55,1947.96 4119.37,1947.56 4126.46,1943.26C4133.1,1939.25 4139.91,1930.62 4140.75,1924.9C4141.59,1919.19 4136.93,1911.85 4131.51,1908.96C4115.77,1900.59 4075.18,1884.99 4046.37,1874.7C4012.68,1862.67 3968.57,1848.82 3929.38,1836.78C3885.75,1823.37 3833.15,1807.29 3784.56,1794.22C3735.37,1780.98 3685.02,1766.47 3634.24,1757.37C3582.72,1748.13 3523.31,1742.69 3475.45,1738.82C3432.79,1735.36 3361.59,1732.78 3347.13,1734.11C3340.52,1734.71 3337.2,1711.8 3329.71,1702.32C3318.72,1688.41 3299.21,1665.93 3281.19,1650.66C3254.98,1628.45 3194.65,1579.05 3172.45,1569.09C3162.49,1564.62 3155.74,1583.19 3148,1590.89C3136.44,1602.38 3117.84,1623.28 3103.12,1638.06C3088.98,1652.25 3075.58,1668.37 3059.67,1679.57C3043.85,1690.7 3021.12,1699.01 3007.64,1705.27C2998.2,1709.65 2980.51,1711.61 2978.76,1717.13C2977.02,1722.65 2989.59,1732.89 2997.19,1738.38C3008.85,1746.79 3040.74,1761 3048.72,1767.59C3051.54,1769.91 3048.35,1776.28 3045.09,1777.91C3035.88,1782.54 3011.09,1790.98 2993.46,1795.37C2956.62,1804.54 2857.62,1827.73 2824.06,1832.93C2813.33,1834.59 2802.57,1829.47 2792.11,1826.56C2774.39,1821.62 2739.17,1807.27 2717.75,1803.33C2699.99,1800.07 2675.14,1800.19 2663.57,1802.95C2656.19,1804.7 2648.95,1813.93 2648.34,1819.86C2647.72,1825.79 2653.74,1834.56 2659.89,1838.53C2667.16,1843.21 2680.9,1846.57 2691.95,1847.97C2703.57,1849.45 2729.11,1845.67 2729.57,1847.37C2730.03,1849.07 2706.62,1855.72 2694.7,1858.19C2677.2,1861.82 2645.03,1866.28 2624.57,1869.14C2607.05,1871.59 2589.21,1878.9 2571.89,1875.35C2549.39,1870.74 2516.52,1853.91 2489.58,1841.49C2458.87,1827.32 2418.79,1806.02 2387.62,1790.35C2359.26,1776.1 2320.43,1755.24 2302.6,1747.52C2295.8,1744.57 2285.73,1743.6 2280.65,1744.02C2277.17,1744.31 2271.18,1746.68 2272.09,1750.04Z" style="stroke:black;stroke-width:0.4px;"/>
    </g>
</svg>
