<?xml version="1.0" encoding="UTF-8" standalone="no"?>
<!-- Created with Inkscape (http://www.inkscape.org/) -->

<svg
   xmlns:svg="http://www.w3.org/2000/svg"
   xmlns="http://www.w3.org/2000/svg"
   version="1.1"
   width="100mm"
   height="100mm"
   viewBox="0 0 100 100"
   id="svg746">
  <defs
     id="defs743" />
  <g
     id="layer1">
    <path
       d="m 30.828807,54.230809 c -0.09714,0.878667 -0.141029,2.096374 -0.845682,2.724902 -0.815476,0.728417 -2.205405,1.21402 -3.182117,1.69139 -0.4902,0.239204 -0.78888,0.436125 -1.186541,0.812696 -0.465448,0.438879 -0.440697,0.584557 -0.440697,1.241525 0,0.543313 0.05688,1.170023 -0.04493,1.705128 -0.08233,0.438879 -0.331691,0.862174 -0.514925,1.273574 -0.881419,1.983655 -1.618096,4.001229 -2.105516,6.125991 -0.134796,0.588219 -0.158431,1.088496 -0.45906,1.603421 -0.358234,0.612062 -0.397634,0.787972 -0.13012,1.441251 0.180507,0.440723 0.48194,0.97305 0.549754,1.439407 0.07246,0.496615 -0.122849,1.087587 -0.147523,1.592435 -0.03195,0.656032 -0.03662,1.198436 0.489265,1.679468 0.350937,0.320705 1.128805,0.263878 1.445848,0.663357 0.147522,0.185961 0.03844,0.492043 0.229854,0.61297 0.220764,0.141029 0.950142,0.02831 1.217682,0.0348 0.599231,0.01818 1.083925,-0.166742 1.660249,-0.342678 C 27.031747,77.86709 26.72021,77.18815 26.366547,76.53487 26.093501,76.03184 25.671114,75.601221 25.516268,75.051467 25.18185,73.856692 24.952801,72.23587 25.072818,70.999851 c 0.06311,-0.658785 0.323432,-1.358788 0.481032,-2.007497 0.19609,-0.80719 0.395816,-1.636406 0.658785,-2.424377 0.445294,-1.334037 1.159946,-2.489412 2.313502,-3.31403 0.743066,-0.530509 1.395436,-0.910768 2.233793,-1.254355 0.661539,-0.270293 1.340479,-0.420542 1.953423,-0.78888 0.239205,0.716496 0.32803,1.44951 0.539677,2.169668 0.109863,0.373818 0.250113,0.620294 0.262034,0.997775 0.01299,0.4902 -0.04026,1.017046 -0.08259,1.50722 -0.125445,1.464158 -0.494771,2.908162 -0.61845,4.37232 -0.07324,0.875913 -0.05766,1.768345 -0.08623,2.647011 -0.02078,0.684446 -0.131939,1.430265 -0.03948,2.107361 0.04389,0.315199 0.14025,0.838357 0.318861,1.102235 0.288604,0.42423 0.728391,-0.03948 1.03076,0.226218 0.146483,0.129082 0.155833,0.724755 0.231672,0.922663 0.150379,0.390311 0.407738,0.751325 0.623957,1.105898 0.484694,0.795295 0.806308,1.282742 1.805018,1.282742 0.860356,0 1.730763,0.04389 2.585638,-0.05142 -0.295953,-0.571727 -0.525937,-1.172776 -0.982217,-1.626329 -0.510354,-0.50851 -0.941909,-1.020682 -1.354218,-1.621731 -0.754987,-1.10408 -0.808126,-2.617715 -1.060991,-3.896795 -0.254788,-1.295573 0.02078,-2.690073 0.109862,-4.00032 0.0761,-1.13522 0.02338,-2.554473 0.530509,-3.601725 0.579986,-1.199371 1.771098,-2.143098 2.782612,-2.957639 0.99871,-0.804463 1.680403,-1.920438 2.614962,-2.767964 0.511263,-0.462721 1.225941,0.08882 1.873714,-0.05948 0.262969,-0.05948 0.472798,-0.331691 0.732988,-0.404985 0.312446,-0.08805 0.794387,-0.06415 1.11691,-0.04675 0.46911,0.02597 0.931831,0.187779 1.406422,0.236347 0.904353,0.09246 1.810498,0.17765 2.713006,0.28037 1.400007,0.156613 2.898994,0.501187 4.302663,0.251931 1.542958,-0.275799 3.086825,-0.751324 4.623368,-1.079328 0.192454,1.962592 0.296862,3.916924 0.439788,5.881359 0.06597,0.902483 0.282214,1.794914 0.442566,2.684567 0.145704,0.808126 0.08986,1.492572 0.03662,2.320852 -0.0587,0.917157 0.0078,1.922282 -0.284967,2.80004 -0.304187,0.911651 -0.517679,1.91127 -0.88142,2.796377 -0.226218,0.54791 -0.315198,0.695432 0.373819,0.913495 0.23375,0.07428 0.42423,0.06052 0.558922,0.218946 0.131939,0.154795 0.163106,0.623048 0.203362,0.814541 0.09428,0.445294 0.01039,0.845682 0.04207,1.298326 0.03195,0.446202 0.194273,0.637696 0.596479,0.906145 0.44254,0.294135 0.864018,0.456306 1.37619,0.533261 0.539677,0.08051 0.987724,-0.16778 1.500805,-0.121809 0.390337,0.03376 0.7834,0.393063 1.173711,0.510354 0.746753,0.222582 1.602512,0.129082 2.369394,0.04311 -0.427866,-1.07751 -0.777868,-2.21273 -1.375255,-3.208687 -0.645956,-1.075666 -0.494771,-2.621377 -0.576324,-3.851889 -0.155833,-2.345577 0.608373,-4.678325 0.562558,-7.043148 -0.02753,-1.444913 0.02597,-2.814688 0.144666,-4.255938 0.04493,-0.540586 -0.01299,-1.153557 0.114537,-1.676741 0.106227,-0.433373 0.436126,-0.891497 0.712834,-1.254329 0.47646,-0.62671 0.964816,-1.018864 1.676715,-1.312065 0.874095,-0.35917 1.503558,-0.775141 2.248467,-1.334037 0.631281,-0.470955 0.60105,-0.597387 0.749481,-1.387203 0.0935,-0.49568 0.137393,-1.042681 0.298706,-1.520024 0.446203,-1.320324 1.184697,-2.602132 1.761021,-3.86929 0.427867,-0.939156 0.811788,-1.783929 1.391774,-2.631454 0.757713,-1.107742 1.506285,-2.180654 2.138501,-3.363533 0.559831,-1.04359 1.041772,-2.406976 1.74819,-3.346106 0.684446,-0.909833 1.921374,-1.159972 2.975041,-1.373463 1.295572,-0.262034 2.644284,-0.165963 3.940766,-0.377481 0.917157,-0.150379 1.997394,-1.297416 2.011133,-2.29062 0.01558,-1.173711 -1.660223,-1.346868 -2.377628,-2.022146 -1.719802,-1.618069 -4.336582,-3.452384 -3.783166,-6.156222 0.208038,-1.018864 0.959284,-2.102789 1.387177,-3.074904 0.393998,-0.891522 0.908924,-2.57099 -0.427893,-2.960392 -0.591881,-0.173235 -0.993204,0.0052 -1.197527,0.566247 0.409582,0.03766 0.606555,-0.07973 0.931831,0.105447 0.410466,0.232711 0.486512,0.440697 0.360079,0.866771 -0.206219,0.695406 -0.579985,1.400916 -0.833786,2.084427 0.05584,-0.856668 0.191415,-1.865455 -0.05766,-2.69558 -0.163106,-0.551572 -0.300525,-1.00419 -0.837449,-1.176437 -0.444384,-0.142069 -0.928143,-0.27489 -1.34414,0.02597 -0.148302,0.106226 -0.417789,0.425139 -0.377481,0.624891 0.06415,0.308758 0.190637,0.102591 0.350911,0.02597 0.369247,-0.179468 0.641384,-0.475526 1.070186,-0.08882 0.328003,0.294109 0.23375,0.892431 0.245437,1.281833 0.01039,0.323432 0.241802,1.125143 0.0587,1.408266 -0.171416,0.265696 -0.328938,-0.03299 -0.598296,0.09973 -0.164923,0.08155 -0.2932,0.455371 -0.386674,0.627619 -0.289513,0.540586 -0.528665,0.950142 -0.91256,1.435745 -0.355508,-0.769635 -0.119992,-1.636406 -0.190636,-2.483932 -0.579077,-0.0018 -1.762839,1.516388 -2.044144,1.961682 -0.208038,0.328029 -0.258424,0.765973 -0.439788,1.120572 -0.211674,0.415062 -0.556169,0.766882 -0.756831,1.186541 -0.185182,0.389402 -0.234529,0.769635 -0.475525,1.133376 -0.270293,0.408647 -0.644111,0.792542 -0.850253,1.236018 -0.184143,0.392155 -0.191415,0.77057 -0.459059,1.110495 -0.354573,0.44802 -0.80262,0.835604 -1.190177,1.256146 -1.338635,1.454081 -2.738668,2.644284 -4.56932,3.43958 -1.597915,0.692679 -3.701613,0.732079 -5.348097,0.21531 -0.89334,-0.28037 -1.850806,-0.612945 -2.784456,-0.376572 -0.993204,0.251931 -1.969941,0.620295 -2.862347,1.116001 -0.832877,0.462695 -1.885635,1.012449 -2.828453,1.196592 -0.880511,0.172196 -1.88013,0.09895 -2.775288,0.144666 -1.194775,0.06311 -2.400561,0.178689 -3.597179,0.188818 -0.805373,0.0078 -1.626329,-0.148302 -2.427105,-0.237386 -0.940065,-0.105448 -1.86639,-0.201545 -2.795468,-0.378416 -1.084834,-0.208037 -2.130268,-0.658785 -3.233413,-0.686264 -1.079327,-0.02597 -2.133021,-0.02078 -3.034594,0.62671 -0.752234,0.539651 -1.52096,1.077484 -2.344669,1.501714 -0.597387,0.307849 -0.766882,0.258424 -1.414681,0.119992 -0.421477,-0.09064 -0.811788,-0.175832 -1.213111,-0.32616 -1.070159,-0.401322 -1.860884,-0.571752 -3.000675,-0.6652 -0.416906,-0.03376 -0.833786,-0.06597 -1.250666,-0.09817 0.06233,0.288629 0.08051,0.688108 0.244658,0.919001 0.188818,0.266631 0.637696,0.485603 0.901574,0.686264 L 27.00715,40.61848 c 0.482849,0.645021 0.886925,1.131558 1.681286,1.376191 -0.178689,0.06311 -0.357326,0.127264 -0.53508,0.190636 0.24284,0.103629 0.478278,0.184143 0.682602,0.350002 0.373818,0.304186 0.122848,0.351819 0.272137,0.758648 0.150379,0.404959 0.809944,0.86033 1.124208,1.171867 0.792568,0.784309 0.213491,2.209977 -0.06052,3.167443 -0.137393,0.482875 -0.348157,0.980373 -0.354572,1.476988 -0.0078,0.683511 0.172195,1.465068 0.288603,2.139436 0.170378,0.995022 0.511263,1.989161 0.722002,2.983274"
       id="path525"
       style="fill:#000000;fill-opacity:1;fill-rule:nonzero;stroke:none" />
  </g>
</svg>
