<svg xmlns="http://www.w3.org/2000/svg" viewBox="0 0 440.83 293.33"><g id="Capa_2" data-name="Capa 2"><g id="Capa_1-2" data-name="Capa 1"><path d="M439.74,8.78c-2.08-2.52-3.37-4.79-5.95-5.36h0l-5.68-.93c-1.3-2.26-3.5-2.15-5.69-2.27-16.23-.88-29.94,6.45-43.57,13.68a44.16,44.16,0,0,0-9.58,6.18c-3.27,3-6.71,5.83-10.22,8.57a16.07,16.07,0,0,1-7.45,5.67l-.06,0-.1.08C340,42.77,327.89,50,316,57.61a326.77,326.77,0,0,1-28.63,16.22C276,79.61,263.78,84,253.9,92.47c-.62.54-1.65,1.44-2.11.75-3.13-4.69-9.26-6.07-12.76-11.37h7.09A65.68,65.68,0,0,0,287.82,68c5.55-4.3,9.85-9.9,14.19-15.4.9-1.14,3.38-1.69,2.54-3.42L305,49c-.06-.15-.11-.31-.16-.47l-.53.19a4.19,4.19,0,0,0-.51-.6c-2-2-3.83-1-5.61.69-1.1,1-2.13,2.17-3.2,3.26l-1.29.46a2.55,2.55,0,0,1-.35.6l.91-.33a16.56,16.56,0,0,1-4.72,3.44c-5.38,2.44-8.87,7.86-15.26,8.85-10.28,1.59-20.57,3.4-30.43,6.85-2.81,1-5.49,2.68-7.83,1.46l1.18-.42a2.34,2.34,0,0,1-.38,0l-1,.35a6.61,6.61,0,0,1-2.38-2.87c-.38-.74-2.06-.86-3.17-1.19-5-1.49-10.06-.13-15.11-.63-4.84-.48-8.19,2-8.5,8-3-3.28-6.3-4-9.69-4.83-8-2-16.14-3.54-24-5.78-9.39-2.67-18.42-6.77-25.8-13.62-.84-.79-1.72-1.87-3-1.05s-.74,2.14-.33,3.19A33.86,33.86,0,0,0,153,67.8c4.49,3.94,9.76,6.86,15.06,9.73,5,2.67,10.55,1.78,15.7,3.75,4.15,1.59,9.11,1.8,13.81,1.43a4.92,4.92,0,0,1,5.22,2.41l-9.32,11.52c-5.34.89-2.65-1.25-6.61-4a49.7,49.7,0,0,0-6.06-3.47c-13.64-6.89-27.72-13-40.85-20.8-16-9.44-31.21-20.19-46.7-30.46-9.81-6.51-18.75-14.22-28.62-20.71A206.28,206.28,0,0,0,44.42,5.77,51.3,51.3,0,0,0,8.62,1.44C2.21,2.91-.41,7,.05,13.57c.76,10.77,9.1,18.32,12.18,28.15.81,2.58,2-1.67,3.26-.38.56,2.36-3.74,2.41-2.47,4.28,3.57,5.23-1.61,12.78,4.79,17.08,1,.65-.16.51-.26.77-2.22,6-.64,12.09.07,18,.86,7.2,4.16,13.84,6.62,20.66s8.26,11.25,10.56,18.4a47.13,47.13,0,0,0,8,15c1.51,1.86,2.55,2.79,4.76,2.23,4.35-1.11,8.86-.53,13.29-1.62a20.22,20.22,0,0,1,11.58.34c-4.48,2.5-9.21,3.46-11.69,6.82-3.57,4.84-7,10.16-5.32,16.87A2.27,2.27,0,0,1,55.1,162c-3.59,3.64-2.44,8.41-3.21,12.73-.31,1.74,2,3.08,1.41,3.82-4.46,5.25.07,10.46.44,15.41.34,4.43.64,10.71,6.26,13.26,5.33,2.41-1.3,11.06,6.49,12-.7,6.71,3.31,4.44,7.57,3.13-4.78,2.88-2.22,5.5-.18,6.46,3.18,1.49,5.45,4.37,8,5.67,7.5,3.9,13.19,12.83,23.55,10,.11,0,.38.38.51.62,3,5.85,8.37,6,13.95,6.32,10.79.55,19.86-4.6,29.35-8.42.54-.22.92-.95,1.26-1.52,7.93-13.3,17.63-25.93,17-42.5.48,1.4,2.54,3,2.65.24.23-5.78,4.95-9.54,5.53-15,.51-4.81,2.82-8.93,5.37-13,2.16-3.46,4.82-7,4.15-11.4-.32-2.09,1-2.14,1.91-2.91a2.35,2.35,0,0,1,2.81-.17c1.51,1,.48,2.36.16,3.58-1.51,5.62-3.05,11.24-4.54,16.87-.49,1.83-.47,3.25,2.08,2,3.68-1.82,2.9.28,2.42,2.58A116.92,116.92,0,0,0,188,194c-.65,6.77-.51,6.78,6,5.07.22-.06.54.28,1.13.61-.55.83-1.08,1.62-1.6,2.43-4.12,6.37-5.43,13.52-5.65,20.94-.05,1.47-.18,3.34,1.54,3.86s2-1.36,2.79-2.36,1.29-2.69,3.27-2.73c-2.09,8.6-8.38,16.39-4.74,26.08,2.21-1,2.92-3.83,6.06-3a71,71,0,0,0-3.42,14.46c-.28,1.85-.44,4.57,1.83,4.36,5.54-.53,3.42,2.73,3.1,5.22-.37,2.81-.94,5.6-1.15,8.41-.12,1.53-1,3.64.9,4.49,1.65.74,3.13-.64,4.42-1.69,1.09-.87,2.25-2.81,3.36-.28,1.52,3.48,4.82,5.4,6.81,8.53,3.69,5.8,8.63,6.28,14.52,2.54,4.33-2.75,6.43-7.12,8.89-11.18,1.55-2.57,2.73-4.09,6.1-2.84,3,1.11,4.24-.76,3-3.47-2.07-4.41-2-9-1.67-13.63,1.59.87,2.12,4.15,4.49,2.71,1.75-1.07.57-3.44.25-5.14-.67-3.6-1.75-7.12-2.44-10.71-.3-1.55.19-4.31,2.19-2.59,5.12,4.39,4.14-.2,4.32-2.65a18.91,18.91,0,0,0-.59-5.93c-1.63-6.53-2.53-13.81-12.24-12.85-1,.09,3.53,2.34,3.54,0,0-1.55-1.26.32,0,0,1.5-.37-1-5.81-.37-3.16s2.77,2.34,4.71,1.83c.85-.22,1.35-1.43,2.55-.44,4.14,3.4,4.12-.5,4.08-2.72-.11-5.52-2-10.78-3.17-16.13-.32-1.44-1.11-3.13-3-.84-2.41,3,.23,1-1.6-.13,1.54-2.75,0,0,1.59-3,2.42-4.55,2.83,2.18,4.93,1.4a2.24,2.24,0,0,0,1.61-1.71,12.31,12.31,0,0,0,0-5.91c-1.16-4-2-8.05-3.06-12.06-.29-1.11-1.22-2.23.23-3.06,1.14-.65,1.8.37,2.5,1.06s1.41,1.66,2.51.89.81-1.81.5-2.75c-.85-2.51-1.75-5-2.76-7.48-2.59-6.31-2.35-9.18,1.43-14.52,1.64,2.15.94,4.9,1.93,7.18a313.36,313.36,0,0,1,12,32.47c2.95,9.49,7,18.63,10.69,27.9a50.74,50.74,0,0,0,12.37,18.15c3.72,3.6,10.08,4.39,11.49,10.45.09.38,1.41.93,1.69.73,3.08-2.17,6,.28,9,.13,7.51-.38,15.51.85,21.71-5.22a2.16,2.16,0,0,1,1.82-.42c4.28,1.41,6.47-1.65,8.8-4.16,1.09-1.17,1.56-2.6,3.58-3,5.25-1,7.63-8.08,14.16-6.9.65.12,2.15-1.39,2.33-2.32.74-3.71,3.5-5.77,5.91-8.2s4.56-4.56,4.74-8.38c.1-2.08.13-4.89,4-5.48,2.77-.43,2.53-4.65-.3-6.27a3,3,0,0,1-1.82-3.05c4.84,3.65,5,0,5.57-3.2.67-3.76.72-7.85,2.34-11.15a20.42,20.42,0,0,0,2.11-7.44c.59-6.14-2.59-12-1.47-18.16a.76.76,0,0,0-.09-.49c-3.25-5.73-5.18-12.14-9-17.58-1-1.38-3.82-2.12-2.45-4.25,1-1.58,3.46-.78,5.19-.6,10.94,1.11,17.19-5,21.66-13.87,3.27-6.47,6.43-13.21,10-19.25,5.22-8.73,7.85-18,9.32-27.36,1.3-8.25,1-16.84,2.86-25.14.8-3.71.48-8.22,2.22-11a133,133,0,0,0,10.86-21C439.86,14.34,442.21,11.79,439.74,8.78Z"/><path d="M187.79,133.12c0-.67,0-1.33,0-2C189.26,131.82,188.63,132.47,187.79,133.12Z"/><path d="M182.78,111.12l-2,2A3.1,3.1,0,0,1,182.78,111.12Z"/><path d="M180.82,113.12l-.9,2.37Z"/></g></g></svg>