<svg xmlns="http://www.w3.org/2000/svg" width="1000" height="1000" viewBox="0 0 1000 1000" version="1.1">
	<path d="M 744 71.822 C 744 74.578, 747.082 83.276, 748.736 85.187 C 749.539 86.115, 749.917 87.325, 749.577 87.876 C 749.236 88.426, 749.652 89.265, 750.500 89.740 C 751.347 90.214, 752.923 92.925, 754.002 95.763 C 755.743 100.345, 755.778 100.852, 754.317 100.291 C 752.520 99.602, 753.053 101.041, 755.767 104.206 C 757.651 106.403, 757.105 125.238, 755.048 128.978 C 753.747 131.345, 753.649 131.367, 752.859 129.478 C 752.041 127.519, 752.034 127.519, 752.132 129.500 C 752.186 130.600, 752.178 132.062, 752.115 132.749 C 752.052 133.437, 748.051 138.162, 743.223 143.249 C 738.396 148.337, 733.109 154.637, 731.473 157.248 C 729.838 159.860, 728.163 161.997, 727.750 161.998 C 727.337 161.999, 727 162.675, 727 163.500 C 727 165.314, 725.317 165.499, 724.719 163.750 C 724.484 163.063, 724.470 163.556, 724.689 164.846 C 724.907 166.136, 724.583 167.798, 723.967 168.539 C 723.352 169.281, 722.255 172.139, 721.529 174.891 C 720.629 178.301, 718.822 181.372, 715.854 184.533 C 713.459 187.084, 711.088 189.920, 710.585 190.836 C 710.082 191.751, 709.254 192.777, 708.745 193.115 C 708.236 193.453, 707.297 194.641, 706.660 195.755 C 706.022 196.868, 703.166 200.518, 700.314 203.865 C 695.260 209.795, 695.118 209.881, 694.714 207.225 C 694.359 204.892, 694.277 205.003, 694.140 208 C 694.034 210.328, 692.812 212.970, 690.490 215.891 C 688.571 218.306, 687 220.654, 687 221.110 C 687 222.594, 674.893 234.052, 673.944 233.466 C 673.438 233.152, 673.267 233.532, 673.565 234.310 C 673.903 235.189, 672.102 237.364, 668.804 240.062 C 665.887 242.449, 660.800 246.842, 657.500 249.826 C 648.388 258.063, 648.650 257.857, 630.500 271.165 C 611.254 285.276, 604 290.322, 604 289.596 C 604 289.321, 602.770 290.236, 601.266 291.629 C 597.552 295.072, 588.992 299, 585.205 299 C 583.499 299, 578.441 300.157, 573.964 301.571 C 566.147 304.041, 565.771 304.070, 564.462 302.321 C 563.182 300.610, 563.132 300.629, 563.637 302.639 C 564.119 304.553, 563.301 305.067, 555.838 307.535 C 551.252 309.052, 546.982 310.483, 546.350 310.715 C 545.665 310.967, 544.928 309.534, 544.530 307.178 C 543.775 302.709, 546.584 296.194, 554.677 283.643 C 558.501 277.711, 559.429 276.849, 561.549 277.254 C 562.897 277.512, 564 277.366, 564 276.931 C 564 276.495, 563.143 275.995, 562.096 275.820 C 560.449 275.543, 560.886 274.533, 565.346 268.307 C 568.181 264.351, 571.625 260.674, 573 260.136 C 574.866 259.406, 575.039 259.138, 573.682 259.079 C 571.988 259.005, 572.010 258.795, 573.991 256.013 C 577.394 251.234, 583.661 236.983, 584.991 231 C 585.663 227.975, 586.674 224.600, 587.238 223.500 C 587.801 222.400, 587.951 221.790, 587.571 222.144 C 587.190 222.498, 585.802 221.711, 584.485 220.394 C 581.597 217.506, 577.996 217.365, 572.371 219.919 L 568.241 221.794 568.717 219.647 C 569.045 218.163, 568.622 218.474, 567.346 220.652 C 566.331 222.385, 563.028 227.009, 560.006 230.928 C 555.004 237.415, 554.394 237.894, 553.190 236.277 C 552.016 234.699, 551.945 234.812, 552.553 237.290 C 553.023 239.208, 552.743 240.627, 551.657 241.827 C 550.788 242.787, 549.122 245.730, 547.956 248.367 C 545.874 253.073, 545.798 253.127, 543.829 251.346 C 541.829 249.536, 541.829 249.540, 543.636 252.688 C 545.285 255.562, 545.308 256.011, 543.887 257.673 C 543.028 258.678, 541.749 262.200, 541.044 265.500 C 539.697 271.813, 536.058 282.391, 535.445 281.778 C 535.247 281.580, 535.733 277.162, 536.524 271.959 C 539.180 254.511, 537.832 238.246, 533.495 235.404 C 530.909 233.711, 526.453 234.377, 525.606 236.584 C 525.173 237.712, 524.569 237.761, 522.534 236.833 C 520.703 235.999, 519.348 235.976, 517.653 236.748 C 515.634 237.668, 515.216 238.774, 514.660 244.659 C 514.305 248.421, 514.011 257.886, 514.007 265.691 C 514.003 273.496, 513.625 280.114, 513.167 280.397 C 512.709 280.680, 511.786 276.726, 511.117 271.610 C 510.448 266.494, 509.253 259.876, 508.462 256.904 C 507.671 253.932, 507.018 250.300, 507.012 248.833 C 507.005 247.367, 506.663 246.017, 506.250 245.833 C 505.838 245.650, 503.809 241.999, 501.743 237.719 C 498.941 231.917, 498.081 228.993, 498.361 226.219 C 498.567 224.174, 498.540 223.512, 498.301 224.750 C 498.062 225.987, 497.560 226.991, 497.184 226.981 C 496.808 226.970, 494.800 224.055, 492.722 220.501 C 490.645 216.948, 487.296 212.794, 485.280 211.271 C 483.265 209.747, 480.345 207.207, 478.792 205.628 C 477.239 204.048, 476.217 203.402, 476.520 204.193 C 476.955 205.324, 476.054 205.616, 472.286 205.565 L 467.500 205.500 467.196 209.687 C 466.983 212.611, 466.379 214.009, 465.196 214.321 C 463.915 214.659, 463.867 214.800, 465 214.898 C 465.900 214.976, 469.398 221.134, 473.750 230.303 C 477.738 238.704, 481 245.864, 481 246.215 C 481 246.566, 480.212 247.059, 479.250 247.311 C 477.873 247.671, 477.958 247.793, 479.649 247.884 C 481.558 247.987, 481.875 248.776, 482.497 254.968 C 482.882 258.800, 482.850 264.313, 482.427 267.218 C 481.290 275.031, 481.796 277.630, 486.097 286.072 C 492.274 298.194, 491.236 304.288, 482.202 308.939 C 477.033 311.600, 449.289 293.564, 447.686 286.500 C 447.259 284.620, 447.225 284.615, 447.116 286.419 C 447.026 287.908, 445.352 286.789, 439.640 281.419 C 429.500 271.888, 423.037 266.297, 422.629 266.705 C 422.292 267.041, 409.985 258.315, 409 257.042 C 408.322 256.166, 402.928 253.720, 394.500 250.465 C 369.809 240.931, 361.490 237.057, 360.850 234.796 C 360.394 233.186, 360.170 233.023, 360.100 234.250 C 359.978 236.393, 359.106 236.426, 354.234 234.477 C 350.891 233.139, 332.836 227.736, 327.586 226.502 C 326.533 226.254, 323.608 225.405, 321.086 224.614 C 318.564 223.824, 315.236 222.897, 313.691 222.555 C 312.146 222.212, 308.996 220.217, 306.691 218.120 C 304.386 216.023, 298.338 211.527, 293.250 208.128 C 287.595 204.350, 283.994 201.278, 283.985 200.224 C 283.975 199.088, 283.716 198.898, 283.226 199.668 C 282.728 200.451, 279.545 198.473, 273.572 193.668 C 268.671 189.726, 262.825 185.199, 260.581 183.609 C 258.336 182.019, 254.503 178.962, 252.062 176.817 C 249.621 174.672, 245.908 171.952, 243.812 170.774 C 241.019 169.204, 239.973 167.946, 239.900 166.066 C 239.806 163.643, 239.764 163.624, 239.150 165.713 C 238.524 167.844, 238.147 167.708, 229 162.061 C 216.773 154.513, 210 148.591, 210 145.449 C 210 141.490, 213.130 136.008, 215.435 135.930 C 217.260 135.868, 217.293 135.778, 215.725 135.158 C 214.191 134.551, 214.606 133.711, 218.776 128.978 C 221.678 125.684, 224.116 121.706, 224.891 119 C 225.600 116.525, 227.492 112.053, 229.095 109.062 C 232.218 103.239, 231.879 102.046, 227.095 102.015 C 223.785 101.994, 217.278 109, 216.435 113.493 C 215.794 116.912, 214 118.434, 214 115.559 C 214 114.766, 213.568 113.851, 213.040 113.525 C 212.458 113.165, 212.484 114.089, 213.106 115.875 C 214.049 118.580, 213.586 119.638, 207.370 128.975 L 200.608 139.131 198.744 136.816 L 196.880 134.500 198.367 137.559 C 199.329 139.539, 199.532 141.127, 198.942 142.059 C 197.396 144.503, 198.035 149.216, 200.826 155.963 C 203.692 162.891, 203.768 162.952, 215.161 167.494 C 219.246 169.123, 225.046 172.744, 230.161 176.861 C 234.747 180.552, 240.647 184.818, 243.270 186.340 C 248.551 189.404, 256.108 196.664, 272.264 214.195 C 283.742 226.650, 292.517 232.758, 301.993 234.887 C 304.441 235.437, 306.957 236.588, 307.582 237.444 C 308.208 238.300, 309.092 239, 309.546 239 C 309.999 239, 316.250 242.352, 323.435 246.450 C 338.402 254.984, 345.886 257.712, 365.500 261.785 C 378.223 264.426, 379.865 265.018, 383.500 268.268 C 408.318 290.458, 428.466 306.060, 439.384 311.543 C 443.171 313.444, 447.783 315, 449.633 315 C 452.186 315, 453.960 315.934, 456.987 318.871 L 460.976 322.743 452.486 328.782 L 443.995 334.822 436.248 331.556 C 419.434 324.470, 402.110 314.403, 400.013 310.500 C 399.422 309.400, 399.140 309.227, 399.386 310.116 C 399.729 311.351, 398.232 310.942, 393.023 308.376 C 389.277 306.530, 383.127 304.333, 379.356 303.493 C 375.585 302.653, 371.476 301.737, 370.225 301.457 C 368.973 301.178, 366.254 299.418, 364.182 297.546 C 362.110 295.674, 359.197 293.836, 357.708 293.463 C 356.218 293.089, 355 292.355, 355 291.833 C 355 291.310, 354.621 291.116, 354.159 291.402 C 353.696 291.688, 348.783 290.617, 343.240 289.021 C 337.698 287.426, 331.551 285.819, 329.581 285.449 C 327.605 285.079, 326 284.181, 326 283.448 C 326 282.716, 325.592 281.866, 325.093 281.558 C 324.595 281.249, 324.398 281.806, 324.657 282.795 C 325.095 284.473, 324.504 284.539, 315.876 283.782 C 310.573 283.317, 305.958 282.386, 305.062 281.601 C 304.203 280.848, 299.570 278.965, 294.766 277.415 C 287.669 275.126, 285.840 274.121, 285.005 272.049 C 284.070 269.728, 284.017 269.709, 284.416 271.829 C 284.699 273.336, 284.439 274, 283.677 273.710 C 283.030 273.463, 277.270 271.630, 270.877 269.636 C 264.484 267.642, 258.695 265.338, 258.013 264.516 C 257.331 263.694, 256.404 263.250, 255.952 263.530 C 255.500 263.809, 253.933 262.468, 252.471 260.550 C 248.897 255.866, 242.168 251.552, 234.403 248.968 C 230.881 247.796, 228 246.510, 228 246.110 C 228 245.710, 227.300 244.509, 226.445 243.441 C 224.951 241.577, 224.933 241.589, 225.980 243.750 C 227.414 246.709, 226.501 246.661, 218.171 243.342 C 207.628 239.141, 200 233.393, 200 229.649 C 200 229.055, 197.975 226.513, 195.500 224 C 190.401 218.824, 183.803 204.274, 183.634 197.836 C 183.544 194.375, 183.440 194.244, 182.375 196.233 C 181.239 198.357, 181.172 198.331, 179.111 194.951 C 176.803 191.164, 176.381 186.025, 178.113 182.788 C 179.183 180.789, 179.056 180.735, 174.863 181.398 C 172.463 181.777, 169.706 182.874, 168.736 183.835 C 165.908 186.638, 167.963 194.680, 173.867 203.906 C 176.539 208.083, 179.721 213.460, 180.937 215.855 C 183.064 220.045, 182.769 220.304, 178.951 217.598 C 178.099 216.994, 178.434 217.489, 179.695 218.697 C 180.957 219.906, 182.614 221.256, 183.377 221.697 C 184.141 222.139, 187.743 227.711, 191.380 234.080 C 197.949 245.581, 198.043 245.686, 205.194 249.580 C 209.155 251.736, 215.119 255.501, 218.447 257.946 C 224.234 262.196, 224.390 262.422, 222 263.096 C 219.804 263.715, 219.938 263.813, 223.095 263.900 C 225.317 263.962, 227.378 264.761, 228.493 265.992 C 229.484 267.088, 233.686 269.593, 237.829 271.560 C 241.972 273.526, 247.257 276.497, 249.575 278.161 C 253.707 281.129, 271.562 287.930, 275.500 288.036 C 277.054 288.078, 276.831 288.396, 274.500 289.464 C 270.870 291.126, 271.358 291.331, 275.865 290.039 C 281.018 288.561, 292.997 292.551, 323.226 305.812 C 334.793 310.886, 335.818 311.544, 334.476 313.026 C 333.664 313.923, 333 315.009, 333 315.440 C 333 315.870, 333.796 315.238, 334.769 314.037 L 336.539 311.852 344.073 313.825 C 348.778 315.057, 353.297 315.608, 356.105 315.292 C 360.315 314.817, 360.885 315.054, 365.051 319.014 C 370.333 324.036, 379.904 330.474, 384.625 332.181 C 388.133 333.450, 388.893 334.555, 386.750 335.272 C 386.063 335.502, 386.697 335.508, 388.161 335.285 C 389.624 335.063, 394.707 336.252, 399.457 337.928 C 404.206 339.605, 411.054 341.449, 414.673 342.028 C 424.153 343.542, 428 345.351, 428 348.294 C 428 351.408, 425.024 354.081, 422.338 353.378 C 421.145 353.066, 418.374 353.817, 415.875 355.129 C 412.019 357.154, 409.958 357.444, 398.500 357.571 C 390.858 357.656, 382.203 358.399, 377.500 359.374 L 369.500 361.031 367.107 358.266 L 364.715 355.500 366.312 358.145 C 367.837 360.672, 367.810 360.817, 365.704 361.382 C 359.941 362.927, 344.312 361.953, 334.498 359.436 C 325.289 357.075, 301.641 354.615, 302.570 356.114 C 303.191 357.117, 290.798 358.064, 285.446 357.423 C 282.726 357.098, 278.475 356.017, 276 355.021 C 273.525 354.025, 267.450 352.697, 262.500 352.069 C 248.448 350.286, 247.311 349.981, 246.082 347.660 C 245.428 346.425, 245.152 346.250, 245.438 347.250 C 246.095 349.554, 244.281 349.505, 235.144 346.973 C 226.355 344.537, 213.094 338.409, 212.335 336.432 C 212.036 335.651, 211.434 335.232, 210.998 335.501 C 210.562 335.771, 207.179 334.575, 203.479 332.844 C 198.652 330.584, 196.187 328.737, 194.748 326.298 C 193.539 324.248, 189.325 320.660, 184.122 317.251 C 179.380 314.144, 175.371 311.305, 175.214 310.943 C 175.057 310.580, 174.244 309.432, 173.409 308.392 C 171.969 306.598, 171.946 306.616, 172.968 308.728 L 174.047 310.957 168.218 308.728 C 163.117 306.778, 160.674 304.722, 148.660 292.260 C 137.443 280.625, 134.298 276.698, 131.466 270.789 C 129.560 266.811, 128 262.787, 128 261.846 C 128 259.887, 125.068 258.653, 122.632 259.588 C 119.982 260.605, 119.729 264.239, 121.921 269.801 C 124.764 277.013, 127.835 281.611, 135.938 290.793 C 139.790 295.156, 142.654 299.013, 142.304 299.363 C 141.953 299.713, 142.321 300, 143.121 300 C 144.856 300, 154.312 309.355, 153.449 310.218 C 153.119 310.548, 153.896 311.143, 155.175 311.542 C 156.454 311.940, 164.035 318.619, 172.022 326.383 C 180.008 334.147, 188.929 342.300, 191.844 344.500 L 197.145 348.500 193.822 349.187 C 190.707 349.831, 190.749 349.857, 194.500 349.600 C 197.377 349.403, 199.526 350.002, 202.153 351.732 C 204.162 353.055, 207.762 354.750, 210.153 355.498 C 212.544 356.247, 220.678 359.285, 228.229 362.250 C 239.641 366.731, 241.751 367.875, 240.729 369.023 C 239.703 370.175, 239.768 370.202, 241.125 369.183 C 243.596 367.328, 257.269 369.791, 256.525 371.958 C 256.119 373.140, 256.308 373.099, 257.332 371.785 C 259.198 369.392, 279.769 368.967, 285.038 371.213 C 286.983 372.042, 293.174 373.307, 298.795 374.023 C 309.004 375.324, 309.013 375.328, 307.258 377.413 C 305.508 379.491, 305.510 379.492, 307.695 377.645 C 309.698 375.952, 310.611 375.886, 318.104 376.895 C 328.281 378.264, 336.550 378.311, 338.975 377.013 C 340.287 376.311, 341.927 376.493, 344.660 377.642 C 347.367 378.781, 351.893 379.294, 360 379.379 C 369.951 379.484, 372.153 379.199, 376.344 377.265 C 381.441 374.912, 384.132 375.296, 385.382 378.554 C 386.369 381.125, 386.311 381.222, 379.604 388.129 C 376.087 391.752, 371.526 397.251, 369.469 400.349 C 365.823 405.840, 362.315 407.975, 356.910 407.994 C 356.035 407.997, 351.595 410.238, 347.044 412.973 C 340.151 417.116, 338.413 417.775, 336.635 416.918 C 334.683 415.978, 334.651 416.012, 336.255 417.309 C 337.858 418.605, 337.181 419.276, 328.453 425.031 C 323.196 428.497, 318.264 431.333, 317.492 431.333 C 316.720 431.333, 316.278 431.640, 316.510 432.016 C 316.742 432.391, 312.033 435.502, 306.047 438.928 C 295.020 445.240, 290.985 449.207, 289.646 455.051 C 289.241 456.820, 287.920 458.047, 285.337 459.051 C 283.288 459.848, 279.811 462.001, 277.609 463.836 C 274.380 466.526, 273.015 467.062, 270.553 466.608 C 267.664 466.075, 267.621 466.113, 269.750 467.307 C 271.917 468.524, 271.678 468.811, 263.250 475.126 C 258.437 478.732, 252.475 482.964, 250 484.532 C 247.525 486.099, 244.015 488.756, 242.201 490.435 C 237.879 494.434, 231.983 496.225, 230.300 494.050 C 229.278 492.731, 229.180 492.820, 229.641 494.654 C 230.396 497.656, 226.239 499.047, 224.326 496.431 C 223.597 495.434, 223 495.064, 223 495.609 C 223 496.154, 223.498 497.098, 224.107 497.707 C 224.917 498.517, 224.581 499.141, 222.857 500.030 C 221.561 500.698, 219.375 502.270, 218 503.523 C 211.376 509.561, 199.645 517.003, 196.645 517.070 C 194.382 517.121, 193.997 517.337, 195.273 517.841 C 196.780 518.437, 196.555 518.826, 193.773 520.437 C 191.973 521.479, 189.022 523.607, 187.215 525.166 C 185.409 526.725, 183.130 528, 182.153 528 C 180.530 528, 164.869 538.050, 160.777 541.717 C 159.596 542.775, 158.023 543.070, 155.777 542.653 C 152.731 542.088, 152.659 542.134, 154.753 543.309 C 156.941 544.537, 156.846 544.671, 151.433 547.952 C 146.299 551.063, 137.816 554, 133.964 554 C 130.785 554, 122.217 550.958, 118.728 548.590 C 116.767 547.259, 114.971 546.362, 114.737 546.596 C 114.504 546.830, 111.361 544.316, 107.753 541.011 C 104.145 537.705, 100.606 535, 99.889 535 C 99.171 535, 96.990 533.465, 95.042 531.588 C 93.094 529.711, 89.925 527.298, 88 526.225 C 85.081 524.598, 84.524 523.752, 84.647 521.137 C 84.729 519.412, 84.504 518.002, 84.147 518.004 C 82.844 518.011, 77 521.998, 77 522.880 C 77 523.380, 81.731 528.306, 87.513 533.827 C 97.560 543.419, 97.904 543.883, 95.263 544.282 C 93.011 544.623, 93.190 544.728, 96.230 544.850 C 98.854 544.956, 101.456 546.133, 105.010 548.823 C 114.477 555.988, 128.277 561.794, 138.032 562.715 C 143.312 563.214, 143.858 563.035, 150.032 558.779 C 153.589 556.327, 159.159 552.824, 162.410 550.996 C 167.943 547.882, 168.283 547.808, 167.753 549.837 C 167.441 551.028, 167.595 551.751, 168.093 551.442 C 168.592 551.134, 169.006 550.121, 169.014 549.191 C 169.025 547.972, 173.282 545.646, 184.264 540.858 C 198.976 534.444, 199.522 534.289, 200.150 536.358 C 200.749 538.330, 200.809 538.298, 200.900 535.949 C 200.979 533.945, 201.997 532.914, 205.653 531.138 C 209.357 529.339, 210.476 529.145, 211.138 530.189 C 211.743 531.143, 211.983 530.956, 212.020 529.500 C 212.055 528.132, 214.154 526.237, 218.667 523.500 C 222.294 521.300, 229.112 515.771, 233.818 511.214 C 238.523 506.657, 244.336 502.060, 246.734 500.999 C 249.133 499.939, 252.252 498.161, 253.665 497.049 C 255.079 495.937, 256.617 495.264, 257.085 495.552 C 257.552 495.841, 258.512 495.111, 259.217 493.930 C 259.923 492.749, 263.419 489.807, 266.987 487.393 C 272.684 483.538, 273.559 483.216, 274.167 484.751 C 274.749 486.220, 274.871 486.147, 274.930 484.292 C 274.979 482.746, 276.424 481.261, 279.750 479.337 C 282.363 477.826, 287.326 474.116, 290.779 471.092 C 294.233 468.068, 298.232 465.436, 299.666 465.244 C 301.100 465.052, 304.575 463.684, 307.387 462.203 C 314.491 458.463, 314.367 458.489, 313.745 460.867 C 313.438 462.042, 313.595 462.751, 314.093 462.442 C 314.592 462.134, 315 460.784, 315 459.441 C 315 454.954, 324.845 446.713, 338.797 439.521 C 346.406 435.599, 347.894 435.462, 346.081 438.849 C 345.486 439.960, 345 442.013, 345 443.411 C 345 444.980, 344.096 446.546, 342.640 447.500 C 337.560 450.829, 326.720 478.120, 322.226 498.898 L 319.500 511.500 319.757 550.171 C 320.001 586.894, 319.887 589.725, 317.503 606.379 C 313.034 637.603, 312.056 679.818, 315.149 707.987 C 315.722 713.205, 317.688 722.655, 319.518 728.987 C 321.348 735.319, 324.717 747.475, 327.003 756 C 334.667 784.575, 345.354 809.764, 357.531 827.957 C 360.539 832.451, 363.002 836.437, 363.004 836.814 C 363.007 837.191, 364.355 839.525, 366 842 C 367.645 844.475, 368.993 847.464, 368.996 848.643 C 368.998 849.822, 369.679 851.047, 370.509 851.365 C 371.338 851.683, 372.565 853.194, 373.234 854.722 C 375.780 860.531, 388.942 879.874, 396.377 888.730 C 409.090 903.873, 425.290 915.398, 441.528 920.848 C 444.843 921.961, 452.043 923.783, 457.528 924.896 C 486.965 930.873, 514.509 931.708, 543.631 927.508 C 613.681 917.405, 660.705 900.795, 690 875.807 C 695.698 870.946, 697.999 867.749, 708.656 849.881 C 743.988 790.640, 756.138 750.541, 757.710 687.985 C 758.355 662.308, 757.155 643.663, 753.344 620.159 C 751.947 611.546, 750.473 601.350, 750.067 597.500 C 749.625 593.300, 748.274 588.304, 746.691 585.010 C 744.686 580.839, 744.196 578.628, 744.648 575.800 C 745.079 573.102, 744.677 570.993, 743.186 568.131 C 742.054 565.960, 739.808 559.980, 738.195 554.842 C 736.582 549.704, 734.138 542.800, 732.764 539.500 C 730.804 534.795, 730.132 531.019, 729.647 522 C 729.027 510.450, 725.436 490.321, 722.523 482.065 C 720.582 476.562, 721.725 474.793, 725.785 477.015 C 727.627 478.023, 729.963 481.469, 733.052 487.738 C 735.555 492.820, 738.874 498.303, 740.427 499.923 C 742.702 502.299, 743.116 503.416, 742.559 505.685 C 741.933 508.236, 741.996 508.328, 743.236 506.661 C 744.517 504.938, 744.779 505.073, 747.346 508.777 C 748.853 510.953, 751.193 513.772, 752.544 515.041 C 753.895 516.310, 755.052 518.508, 755.116 519.924 C 755.193 521.642, 755.385 521.913, 755.692 520.737 C 756.088 519.219, 756.706 519.449, 760.134 522.382 C 762.324 524.257, 765.375 527.750, 766.914 530.145 C 768.453 532.540, 773.004 537.650, 777.027 541.500 C 784.124 548.291, 784.364 548.679, 785.087 554.500 L 785.833 560.500 785.667 554.883 L 785.500 549.266 790.500 553.591 C 793.250 555.970, 797.075 560.164, 799 562.911 C 800.925 565.659, 803.050 567.927, 803.721 567.953 C 805.996 568.040, 816.464 573.088, 818.960 575.301 C 820.457 576.628, 820.899 576.796, 820.075 575.724 C 818.864 574.146, 819.258 574.184, 823.606 576.067 C 834.522 580.795, 855.719 589.142, 859 590.004 C 860.925 590.511, 865.821 592.067, 869.881 593.462 C 884.209 598.389, 908.858 596.324, 913.417 589.815 C 914.519 588.241, 914.600 587.216, 913.765 585.384 C 912.417 582.426, 912.449 582.425, 901.500 585.651 C 892.699 588.243, 892.245 588.275, 880.958 587.115 C 869.167 585.903, 859.143 583.768, 858.089 582.245 C 857.050 580.743, 845.332 574.089, 832.085 567.478 C 827.940 565.410, 826.171 564.054, 827.085 563.648 C 827.863 563.302, 827.513 563.262, 826.307 563.559 C 823.690 564.203, 816.891 560.945, 812.064 556.733 C 810.174 555.084, 806.854 550.982, 804.686 547.617 C 802.518 544.253, 799.449 539.857, 797.866 537.848 C 796.015 535.499, 795.202 533.537, 795.588 532.348 C 796.091 530.801, 796.007 530.744, 795.076 532 C 794.096 533.321, 793.846 533.301, 792.981 531.837 C 792.440 530.922, 788.922 528.999, 785.162 527.562 C 776.479 524.244, 773.640 521.227, 770.478 511.956 L 767.934 504.500 770.078 502.750 C 771.257 501.787, 771.777 501, 771.233 501 C 770.690 501, 769.687 501.672, 769.005 502.494 C 767.949 503.766, 767.318 503.284, 764.749 499.244 C 763.091 496.635, 760.894 493.281, 759.867 491.790 C 757.574 488.463, 757.568 488.259, 759.750 487.689 C 760.986 487.366, 760.795 487.198, 759.100 487.116 C 755.425 486.938, 738.737 469.340, 736.992 463.801 C 736.246 461.435, 735.718 459.163, 735.818 458.750 C 735.918 458.337, 735.417 458, 734.705 458 C 733.994 458, 731.716 455.778, 729.645 453.062 C 724.490 446.302, 720.225 442.615, 707.696 434.087 C 693.955 424.733, 684.802 415.922, 681.534 408.902 C 680.151 405.931, 679.015 402.716, 679.010 401.759 C 678.998 399.725, 672.982 391.560, 669.444 388.777 C 664.727 385.067, 667.785 379.684, 672.982 382.549 C 678.284 385.472, 687.704 388.837, 692.500 389.522 C 695.250 389.914, 699.049 391.173, 700.942 392.318 L 704.383 394.400 701.442 395.748 C 699.076 396.832, 698.990 396.967, 701 396.433 C 704.702 395.450, 706.801 395.551, 714.219 397.069 L 720.939 398.444 719.414 400.972 L 717.889 403.500 720.194 400.983 C 722.350 398.630, 722.923 398.508, 729 399.116 C 739.702 400.186, 751.305 400.073, 757.457 398.837 C 762.095 397.906, 763.669 397.936, 765.358 398.992 C 766.519 399.717, 769.173 400.243, 771.257 400.161 L 775.045 400.013 773.497 403.006 C 772.645 404.653, 772.174 406, 772.449 406 C 772.724 406, 773.622 404.697, 774.446 403.104 C 775.829 400.430, 776.499 400.158, 783.222 399.542 C 787.225 399.176, 792.948 398.454, 795.940 397.937 C 800.050 397.227, 801.575 397.303, 802.175 398.249 C 802.756 399.164, 802.973 399.063, 802.985 397.875 C 802.994 396.873, 804.157 396.019, 806.017 395.647 C 810.592 394.732, 819.944 390.208, 825.134 386.400 C 827.683 384.530, 830.221 383, 830.775 383 C 833.668 383, 883.850 347.500, 887.965 342.543 C 888.749 341.597, 894.366 337.097, 900.446 332.543 C 913.730 322.592, 914.088 322.205, 917.477 314.097 C 918.949 310.576, 920.871 306.600, 921.748 305.262 C 923.106 303.190, 923.132 302.700, 921.929 301.956 C 920.891 301.314, 917.447 304.115, 908.916 312.542 C 902.535 318.844, 896.826 324, 896.229 324 C 895.632 324, 894.460 324.682, 893.626 325.517 C 891.239 327.904, 882.974 334.067, 881.151 334.819 C 880.243 335.193, 875.142 338.762, 869.816 342.750 C 864.490 346.737, 859.911 350, 859.640 350 C 859.369 350, 858.941 349.212, 858.689 348.250 C 858.337 346.904, 858.205 347.007, 858.116 348.699 C 857.967 351.524, 853.142 355.150, 845.340 358.300 C 841.952 359.668, 836.017 362.833, 832.151 365.333 C 825.434 369.679, 825.105 369.783, 824.698 367.690 C 824.410 366.206, 824.228 366.566, 824.136 368.805 C 824.013 371.787, 823.487 372.337, 818.750 374.432 C 812.591 377.155, 802.356 379.506, 788.712 381.331 C 779.894 382.511, 778.978 382.485, 779.465 381.070 C 779.936 379.702, 779.843 379.707, 778.740 381.116 C 776.588 383.867, 768.457 384.788, 752.680 384.069 C 742.147 383.588, 737.627 383.014, 737.052 382.083 C 736.434 381.084, 736.145 381.064, 735.834 381.997 C 735.518 382.945, 732.879 382.846, 724.109 381.560 C 707.464 379.119, 701.833 376.251, 703.483 371.055 C 704.284 368.531, 705.680 368.114, 717.302 366.921 C 731.389 365.475, 736.659 362.380, 746.041 350.039 C 748.984 346.168, 751.872 343, 752.459 343 C 754.184 343, 763.162 336.619, 769.194 331.105 C 772.267 328.297, 775.355 326, 776.057 326 C 776.759 326, 777.049 325.716, 776.702 325.368 C 776.354 325.021, 778.011 322.434, 780.384 319.618 C 789.298 309.041, 799 295.976, 799 294.550 C 799 292.920, 801.962 291, 804.475 291 C 805.358 291, 807.377 290.042, 808.960 288.871 C 811.045 287.330, 812.620 286.920, 814.670 287.385 C 817.172 287.953, 817.268 287.893, 815.500 286.866 C 814.400 286.228, 813.332 285.566, 813.127 285.396 C 812.922 285.226, 814.594 282.996, 816.843 280.441 C 820.334 276.475, 825 267.063, 825 263.986 C 825 263.470, 826.688 262.157, 828.750 261.068 C 830.813 259.979, 832.133 259.069, 831.684 259.044 C 831.236 259.020, 829.998 259.466, 828.934 260.035 C 827.870 260.605, 827 260.812, 827 260.495 C 827 258.241, 832.194 250.576, 836.882 245.909 C 839.972 242.834, 846.100 236.451, 850.500 231.725 C 854.900 226.999, 859.175 223.095, 860 223.051 C 861.124 222.990, 861.188 222.771, 860.256 222.179 C 859.340 221.598, 860.159 219.529, 863.352 214.350 C 866.946 208.520, 867.812 206.123, 868.391 200.405 C 868.775 196.607, 869.745 190.660, 870.545 187.188 C 871.345 183.716, 871.995 178.316, 871.990 175.188 C 871.980 169.892, 868.502 147.169, 867.557 146.224 C 867.324 145.990, 866.653 146.096, 866.067 146.459 C 865.372 146.888, 865 153.723, 865 166.059 C 865 179.240, 864.663 185, 863.893 185 C 863.284 185, 863.054 185.699, 863.382 186.554 C 864.039 188.266, 860.027 196.903, 857.662 198.865 C 856.428 199.889, 856.051 199.735, 855.493 197.977 C 855.121 196.807, 854.597 196.070, 854.328 196.339 C 854.058 196.608, 854.356 197.797, 854.990 198.981 C 856.453 201.714, 855.507 203.203, 846.381 212.539 C 842.596 216.410, 838.995 220.460, 838.377 221.539 C 837.263 223.484, 837.235 223.484, 834.877 221.500 L 832.500 219.500 834.425 221.772 C 836.343 224.036, 836.340 224.055, 833.387 227.272 C 829.811 231.168, 825.668 238.654, 826.418 239.867 C 826.715 240.348, 826.068 241.769, 824.979 243.024 C 823.891 244.279, 823 245.601, 823 245.961 C 823 246.583, 814.380 253, 813.544 253 C 813.325 253, 812.941 252.212, 812.689 251.250 C 812.394 250.122, 812.191 250.434, 812.116 252.128 C 812.052 253.573, 811.280 255.352, 810.401 256.082 C 808.006 258.070, 800.640 267.914, 797.906 272.782 C 795.520 277.030, 795.211 277.145, 790.500 275.550 C 789.400 275.177, 789.850 275.636, 791.500 276.568 C 793.150 277.501, 794.650 278.392, 794.834 278.549 C 795.017 278.706, 794.290 280.816, 793.219 283.239 C 791.801 286.442, 790.244 288.131, 787.510 289.428 C 784.393 290.907, 783.589 290.981, 782.809 289.856 C 782.131 288.879, 782.027 289.068, 782.434 290.535 C 782.860 292.071, 781.711 293.797, 777.749 297.572 C 768.240 306.632, 768.215 306.647, 766.429 304.419 C 764.952 302.578, 764.933 302.589, 765.948 304.691 C 766.829 306.513, 766.631 307.145, 764.771 308.448 C 763.541 309.310, 759.745 312.711, 756.336 316.007 C 752.927 319.303, 749.630 322, 749.010 322 C 748.390 322, 748.178 322.478, 748.539 323.063 C 748.900 323.648, 748.526 324.885, 747.708 325.813 C 746.890 326.741, 745.213 329.868, 743.981 332.763 C 742.264 336.800, 741.131 338.155, 739.121 338.577 C 737.680 338.879, 734.813 339.737, 732.750 340.483 C 729.590 341.626, 729 341.625, 729 340.479 C 729 339.730, 728.592 338.866, 728.093 338.558 C 727.595 338.249, 727.414 338.866, 727.691 339.928 C 728.075 341.396, 727.273 342.333, 724.348 343.832 C 722.232 344.917, 719.409 346.974, 718.076 348.403 C 716.742 349.831, 714.676 351, 713.485 351 C 712.293 351, 709.126 351.660, 706.447 352.466 C 702.665 353.604, 701.403 353.660, 700.803 352.716 C 700.254 351.851, 700.026 351.962, 700.015 353.098 C 699.979 356.915, 680.080 360.933, 676.321 357.883 C 675.383 357.123, 674.922 357.011, 675.297 357.636 C 675.684 358.282, 675.180 358.981, 674.131 359.256 C 671.863 359.849, 666 357.504, 666 356.004 C 666 355.404, 665.438 355.026, 664.750 355.164 C 664.063 355.302, 659.739 353.948, 655.143 352.154 C 647.186 349.049, 642.095 347.815, 632 346.547 C 629.525 346.236, 625.025 345.316, 622 344.503 C 618.975 343.689, 614.385 343.018, 611.799 343.012 C 603.422 342.991, 596.734 341.002, 584.250 334.819 C 577.513 331.482, 572 328.413, 572 327.998 C 572 327.584, 572.648 326.707, 573.440 326.050 C 574.232 325.393, 575.019 323.905, 575.190 322.743 C 575.441 321.034, 577.501 319.941, 586 317.010 C 591.775 315.019, 597.483 312.852, 598.684 312.195 C 599.886 311.538, 602.586 310.939, 604.684 310.864 C 607.312 310.770, 607.749 310.586, 606.088 310.273 C 604.071 309.893, 605.052 309.079, 612.088 305.297 C 616.715 302.810, 626.350 297.506, 633.500 293.511 C 656.913 280.426, 662.167 277.713, 665.354 277.061 C 667.084 276.708, 668.500 275.915, 668.500 275.300 C 668.500 274.684, 669.850 273.158, 671.500 271.907 C 676.070 268.443, 687.393 257.631, 687.634 256.500 C 687.875 255.370, 691.869 245.282, 692.970 243.023 C 693.365 242.210, 694.772 241.243, 696.095 240.872 C 697.418 240.502, 697.859 240.155, 697.076 240.100 C 696.009 240.025, 696.170 239.435, 697.717 237.750 C 701.056 234.112, 706.002 225.538, 714 209.520 C 720.429 196.645, 721.964 194.296, 724.750 193.070 C 726.538 192.283, 728 191.215, 728 190.697 C 728 190.179, 727.340 190.303, 726.534 190.972 C 725.727 191.641, 724.584 192.028, 723.993 191.831 C 722.664 191.388, 729.894 180.869, 741.061 167 C 745.711 161.225, 751.021 154.137, 752.862 151.250 C 754.703 148.363, 756.526 146, 756.913 146 C 757.301 146, 758.491 145.300, 759.559 144.445 C 761.416 142.957, 761.401 142.938, 759.209 144.002 C 757.046 145.052, 757.113 144.726, 760.401 138.196 C 763.375 132.292, 763.923 130.119, 764.137 123.388 C 764.275 119.050, 764.012 111.225, 763.553 106 C 762.836 97.851, 762.110 95.220, 758.443 87.500 C 754.525 79.252, 747.399 70, 744.964 70 C 744.434 70, 744 70.820, 744 71.822 M 620.500 276 C 620.840 276.550, 621.316 277, 621.559 277 C 621.802 277, 622 276.550, 622 276 C 622 275.450, 621.523 275, 620.941 275 C 620.359 275, 620.160 275.450, 620.500 276 M 843.083 376.359 C 843.313 376.557, 844.850 377.021, 846.500 377.390 C 848.691 377.880, 849.095 377.787, 848 377.046 C 846.650 376.132, 842.080 375.494, 843.083 376.359 M 885 586 C 883.718 586.828, 883.754 586.972, 885.250 586.985 C 886.212 586.993, 887 586.550, 887 586 C 887 584.780, 886.887 584.780, 885 586" stroke="none" fill="black" fill-rule="evenodd"/>
</svg>