<svg xmlns="http://www.w3.org/2000/svg" width="544" height="304" viewBox="0 0 544 304" version="1.1">
	<path d="M 460.115 2.480 C 456.053 3.795, 448.759 5.182, 443.907 5.561 C 439.054 5.941, 435.118 6.532, 435.160 6.876 C 435.648 10.858, 432.748 13, 426.870 13 C 423.799 13, 422.120 12.616, 422.500 12 C 424.196 9.255, 400.240 12.120, 384.919 16.494 C 368.447 21.197, 369.716 20.600, 371.017 23.032 C 371.915 24.710, 371.560 26.248, 369.106 31.297 C 367.448 34.709, 365.818 39.525, 365.483 42 C 363.984 53.082, 362.871 53.816, 360.992 44.964 C 359.983 40.210, 359.968 38.365, 360.922 36.272 C 362.189 33.491, 364.022 25, 363.356 25 C 363.143 25, 360.614 26.318, 357.735 27.930 C 354.856 29.541, 350.490 31.654, 348.033 32.625 C 342.784 34.700, 340.117 36.737, 339.032 39.500 C 338.083 41.918, 341.235 66.684, 343.434 74.090 C 344.375 77.258, 344.940 82.584, 344.849 87.432 L 344.698 95.500 343.999 88 C 343.614 83.875, 342.380 78.436, 341.256 75.914 C 340.017 73.134, 338.327 64.888, 336.967 54.981 L 334.722 38.636 337.417 36.318 C 340.437 33.720, 339.778 33.340, 336 35.500 C 334.625 36.286, 332.591 36.945, 331.479 36.965 C 330.144 36.988, 328.653 38.474, 327.085 41.345 C 324.948 45.256, 324.782 46.431, 325.417 53.095 C 325.805 57.168, 327.220 64.011, 328.561 68.302 C 330.170 73.449, 330.955 78.212, 330.869 82.302 L 330.737 88.500 329.943 81.667 C 329.506 77.909, 327.316 69.942, 325.075 63.962 C 322.834 57.983, 321 51.525, 321 49.611 C 321 47.696, 320.533 44.901, 319.961 43.398 C 319.178 41.339, 319.240 40.465, 320.211 39.848 C 320.955 39.376, 318.720 39.024, 314.924 39.015 C 309.332 39.002, 308.023 39.346, 306.174 41.314 C 303.460 44.204, 303.414 47.982, 306 55.500 C 308.101 61.607, 308.391 65.175, 307.057 68.500 C 306.389 70.163, 306.059 69.742, 305.098 66 C 304.462 63.525, 303.004 58.618, 301.858 55.097 C 300.479 50.855, 299.927 47.112, 300.225 44.010 L 300.675 39.327 246.587 38.100 C 216.839 37.425, 186.875 36.639, 180 36.354 C 160.059 35.528, 129.122 39.065, 124.921 42.652 C 124.053 43.393, 122.778 44, 122.088 44 C 121.398 44, 121.007 44.337, 121.219 44.750 C 124.939 51.975, 125.055 52.825, 123.954 64.762 C 123.359 71.218, 122.376 77.400, 121.769 78.500 C 121.163 79.600, 119.600 88.814, 118.297 98.975 C 116.321 114.374, 115.576 117.822, 113.820 119.691 C 112.036 121.591, 111.806 122.718, 112.320 127.057 C 112.882 131.803, 112.713 132.375, 110.014 134.840 C 108.412 136.303, 105.739 140.505, 104.074 144.177 C 101.392 150.092, 99 153.488, 99 151.380 C 99 149.252, 103.519 135.881, 105.600 131.853 C 106.920 129.297, 108.005 125.697, 108.012 123.853 C 108.026 119.781, 110.009 112.548, 113.318 104.500 C 114.889 100.680, 116.354 93.932, 117.349 85.929 C 118.210 79.014, 119.383 72.123, 119.957 70.614 C 121.793 65.783, 121.226 54.396, 118.877 48.935 C 116.224 42.768, 113.533 42.361, 109.348 47.494 C 107.782 49.416, 104.402 53.491, 101.838 56.550 C 95.856 63.685, 94.254 67.162, 93.052 75.620 C 91.982 83.148, 90.445 88.296, 88.245 91.711 C 87.156 93.403, 86.900 96.850, 87.157 106.381 C 87.342 113.234, 87.157 119.176, 86.747 119.587 C 86.336 119.997, 86 119.867, 86 119.298 C 86 118.728, 85.296 114.266, 84.434 109.381 C 82.828 100.267, 83.043 90.861, 85.140 78.574 C 86.467 70.802, 91.510 61.054, 98.359 53.025 C 101.397 49.463, 103.765 46.432, 103.621 46.288 C 103.478 46.144, 100.323 46.869, 96.610 47.899 C 85.340 51.024, 65.492 66.366, 59.506 76.580 C 56.604 81.532, 53.596 89.368, 54.908 88.557 C 55.971 87.900, 57 92.866, 57 98.653 C 57 101.609, 58.144 105.467, 60.479 110.389 C 64.376 118.600, 65.397 119.729, 69.701 120.590 C 72.442 121.138, 72.766 120.918, 73.325 118.127 L 73.938 115.061 81.261 122.781 C 87.464 129.318, 89.015 131.687, 91.396 138.255 C 92.942 142.520, 94.610 146.259, 95.103 146.564 C 95.621 146.884, 96.015 138.526, 96.035 126.809 C 96.070 106.508, 97.739 90.920, 99.958 90.181 C 100.531 89.990, 101 87.568, 101 84.800 C 101 79.113, 106.823 54, 108.141 54 C 109.195 54, 109.186 55.053, 108.027 67 C 107.520 72.225, 106.813 83.700, 106.454 92.500 C 105.774 109.197, 103.132 125.545, 100.508 129.291 C 99.679 130.476, 99 133.313, 99 135.597 C 99 137.880, 98.317 141.684, 97.482 144.050 C 96.102 147.961, 96.124 149.062, 97.723 156.176 C 98.690 160.479, 99.711 163.993, 99.991 163.984 C 100.271 163.975, 102.477 160.399, 104.893 156.036 C 107.309 151.674, 109.921 147.860, 110.698 147.562 C 112.111 147.020, 115 152.281, 115 155.395 C 115 156.197, 119.612 161.521, 125.250 167.226 C 130.887 172.932, 137.467 180.534, 139.871 184.121 C 143.440 189.447, 145.777 191.606, 152.621 195.901 C 157.229 198.794, 161 201.627, 161 202.197 C 161 203.900, 157.893 202.591, 147.711 196.599 C 139.967 192.041, 137.108 189.681, 133.303 184.706 C 130.692 181.293, 125.617 175.350, 122.025 171.500 C 118.432 167.650, 114.033 162.700, 112.250 160.500 L 109.007 156.500 106.401 159.500 C 99.881 167.007, 100.157 166.339, 101.258 171.908 C 102.184 176.588, 102.383 176.867, 103.390 174.883 C 105.441 170.837, 109.063 169.051, 113.500 169.896 L 117.500 170.658 113.500 171.842 C 111.300 172.493, 108.009 174.389, 106.187 176.055 C 103.022 178.949, 102.926 179.246, 104.051 182.653 C 104.735 184.726, 104.963 188.219, 104.596 190.987 L 103.964 195.752 111.523 196.876 C 115.680 197.494, 121.328 198, 124.074 198 C 127.408 198, 130.694 198.825, 133.967 200.483 C 137.630 202.339, 152.669 206, 156.631 206 C 156.834 206, 157 207.334, 157 208.965 C 157 212.415, 154.120 214.468, 150.712 213.449 C 149.496 213.085, 145.703 211.431, 142.285 209.774 C 138.522 207.949, 135.379 207.024, 134.321 207.430 C 132.991 207.941, 134.359 209.096, 140.036 212.258 C 144.640 214.823, 146.858 216.550, 145.825 216.767 C 144.904 216.960, 142.429 216.256, 140.325 215.203 C 138.221 214.150, 134.925 212.997, 133 212.639 C 131.075 212.282, 126.011 210.560, 121.746 208.811 L 113.993 205.633 111.192 208.316 C 106.510 212.802, 104.053 211.401, 106.040 205.378 C 107.040 202.349, 106.973 201.545, 105.611 200.183 C 104.130 198.701, 104 198.900, 104 202.661 C 104 204.910, 103.705 208.226, 103.344 210.030 C 102.900 212.249, 103.034 213.097, 103.758 212.649 C 104.349 212.284, 105.800 213.559, 106.996 215.494 C 108.188 217.422, 109.786 219, 110.547 219 C 112.946 219, 118.961 225.070, 119.810 228.348 C 120.932 232.676, 127.518 237.218, 132.877 237.358 C 135.393 237.424, 136.580 237.820, 136.001 238.399 C 134.316 240.084, 129.642 239.326, 120.516 235.886 C 113.039 233.068, 111.193 231.931, 109.516 229.108 C 108.407 227.243, 106.263 224.396, 104.750 222.782 C 102.689 220.582, 102.135 219.177, 102.538 217.173 C 102.834 215.703, 101.730 218.016, 100.086 222.314 C 98.441 226.612, 95.675 231.745, 93.939 233.722 C 89.067 239.271, 89.873 245.011, 97.835 261.482 C 103.509 273.219, 104.910 275.252, 113.318 283.944 C 120.961 291.844, 124.412 295.873, 128.731 301.938 C 129.533 303.064, 150.861 303.716, 155 302.741 C 169.574 299.310, 170.953 298.318, 170.985 291.250 C 170.999 288.251, 171.252 288, 174.261 288 C 176.256 288, 179.460 286.734, 182.511 284.740 C 186.461 282.159, 187.698 280.681, 188.450 277.642 C 189.889 271.832, 187.843 268.949, 180.607 266.593 C 175.547 264.945, 174.114 264.849, 170.060 265.888 C 164.479 267.318, 161.887 266.555, 154.895 261.423 C 149.133 257.193, 147.495 253.106, 148.336 245.059 C 148.853 240.113, 151.274 231.030, 153.482 225.750 C 154.070 224.344, 153.702 224, 151.607 224 C 148.061 224, 148.319 222.052, 152.387 218.109 C 155.607 214.989, 157.910 214.949, 155.949 218.048 C 155.444 218.846, 155.038 219.950, 155.048 220.500 C 155.057 221.050, 158.592 214.300, 162.903 205.500 L 170.741 189.500 163.961 182.500 C 160.232 178.650, 156.029 173.771, 154.622 171.658 C 153.215 169.544, 149.994 166.444, 147.464 164.768 C 141.657 160.922, 141.062 159.978, 134.943 144.915 C 130.342 133.590, 129.856 131.622, 129.402 122.500 C 129.128 117, 129.310 106.425, 129.805 99 L 130.707 85.500 130.853 103.855 C 130.987 120.596, 131.232 122.971, 133.637 130.855 C 137.876 144.754, 148.519 165.952, 150.279 164 C 150.527 163.725, 150.121 160.577, 149.377 157.005 C 148.349 152.063, 146.712 148.594, 142.533 142.505 C 136.543 133.774, 135.562 130.488, 134.418 115.337 C 133.935 108.941, 134.185 104.398, 135.322 98.899 C 136.599 92.723, 136.728 88.790, 136.010 77.900 C 135.525 70.530, 134.602 61.800, 133.960 58.500 C 133.318 55.200, 133.049 50.318, 133.361 47.650 L 133.929 42.801 131.215 43.416 C 128.735 43.977, 128.655 43.909, 130.295 42.622 C 131.282 41.847, 134.152 40.904, 136.673 40.526 C 139.193 40.148, 141.986 39.608, 142.878 39.326 C 143.803 39.034, 143.467 39.657, 142.095 40.778 C 139.703 42.732, 139.687 42.875, 139.369 65.122 C 139.192 77.430, 138.587 92.225, 138.023 98 C 136.808 110.442, 138.429 121.463, 142.495 128.402 C 143.873 130.753, 145 133.229, 145 133.905 C 145 134.580, 146.068 136.566, 147.373 138.317 C 148.678 140.068, 150.928 145.100, 152.373 149.500 C 154.379 155.607, 155.935 158.406, 158.949 161.330 C 161.121 163.436, 163.436 166.792, 164.095 168.788 C 164.754 170.784, 166.866 175.514, 168.790 179.300 L 172.286 186.183 176.101 178.934 C 178.199 174.946, 180.385 171.215, 180.958 170.642 C 182.501 169.099, 182.221 164.428, 180.500 163 C 179.423 162.107, 179.025 159.884, 179.089 155.128 L 179.179 148.500 180.471 153.192 C 181.182 155.772, 182.716 159.095, 183.881 160.576 C 185.047 162.058, 186 164.724, 186 166.502 C 186 171.615, 191.172 174.393, 205.455 176.950 C 212.813 178.267, 221.520 180.726, 228.839 183.553 C 235.253 186.030, 242.300 188.255, 244.500 188.496 C 246.700 188.737, 251.059 189.174, 254.187 189.468 L 259.874 190.003 258.646 185.762 C 257.721 182.567, 256.381 180.825, 253.209 178.695 C 249.963 176.515, 249 175.236, 249 173.108 C 249 171.458, 247.995 169.405, 246.500 168 C 243.488 165.171, 243.310 162.044, 245.980 158.861 C 247.671 156.844, 248.107 156.718, 248.976 158 C 249.535 158.825, 250.396 160.919, 250.889 162.653 C 251.394 164.430, 254.589 168.577, 258.209 172.153 C 261.741 175.644, 266.098 181.088, 267.889 184.250 C 269.681 187.413, 271.364 190, 271.631 190 C 272.221 190, 280.997 187.976, 282.793 187.426 C 284.735 186.831, 283.010 184.208, 274.992 175.561 C 270.762 170.999, 268 167.155, 268 165.831 C 268 164.627, 267.468 162.170, 266.817 160.370 C 265.515 156.770, 265.997 155.305, 270.521 149.102 C 272.037 147.024, 273 144.348, 273 142.213 C 273 140.132, 274.144 136.858, 275.831 134.111 C 277.388 131.575, 279.682 125.363, 280.929 120.308 C 282.175 115.252, 283.790 110.302, 284.516 109.309 C 285.744 107.630, 285.886 107.696, 286.528 110.254 C 287.386 113.675, 287.086 115.844, 283.171 134.516 C 281.440 142.775, 279.118 151.307, 278.012 153.477 C 276.775 155.903, 276.005 159.364, 276.014 162.461 C 276.035 170.449, 276.611 171.600, 280.580 171.600 C 283.132 171.600, 284.457 172.239, 285.665 174.050 C 286.564 175.398, 289.594 178.688, 292.399 181.363 L 297.500 186.226 307 186.370 C 312.225 186.448, 315.488 186.366, 314.250 186.187 C 312.666 185.957, 312 185.183, 312 183.570 C 312 182.310, 311.714 179.191, 311.364 176.640 C 310.779 172.370, 310.898 172, 312.864 172 C 314.197 172, 315 172.631, 315 173.679 C 315 174.602, 316.575 176.801, 318.500 178.564 C 320.979 180.835, 322 182.627, 322 184.709 C 322 187.550, 322.211 187.680, 328.250 188.574 L 334.500 189.500 334.177 195 C 334 198.025, 334.577 205.900, 335.461 212.500 C 337.814 230.076, 337.694 229.689, 340.979 230.346 C 342.914 230.733, 344.866 232.398, 346.972 235.460 C 351.075 241.423, 348.923 241.317, 342.687 235.250 L 337.805 230.500 338.489 236.653 C 338.872 240.093, 338.754 243.621, 338.223 244.653 C 337.699 245.669, 336.975 250.213, 336.612 254.750 C 336.060 261.660, 336.193 263, 337.431 263 C 339.007 263, 339.521 265.190, 340.440 275.835 C 340.741 279.320, 341.732 283.741, 342.643 285.660 C 345.372 291.410, 347.939 292.427, 361.451 293.105 C 372.348 293.653, 374.239 293.482, 381.236 291.316 C 389.693 288.699, 390.669 287.695, 391.639 280.620 L 392.250 276.159 400.875 275.456 C 410.584 274.665, 415 272.941, 415 269.942 C 415 268.839, 415.681 266.306, 416.514 264.313 C 417.867 261.075, 417.866 260.444, 416.504 258.366 C 414.395 255.147, 409.833 252.996, 403.696 252.327 C 400.756 252.006, 397.957 251.078, 397.250 250.189 C 395.590 248.103, 395.663 238.289, 397.427 226.243 C 398.212 220.885, 399.576 208.175, 400.458 198 C 401.953 180.776, 404.906 164.170, 407.304 159.509 C 407.867 158.414, 410.505 154.903, 413.164 151.707 C 415.824 148.511, 418.004 145.132, 418.009 144.198 C 418.027 141.064, 423.775 132.425, 428.323 128.698 C 430.802 126.667, 435.357 121.398, 438.447 116.989 C 443.247 110.139, 444.414 109.036, 446.468 109.408 C 447.791 109.648, 452.013 108.782, 455.851 107.484 C 459.689 106.185, 464.442 104.820, 466.414 104.450 C 469.659 103.841, 470 103.990, 470 106.011 C 470 107.883, 470.243 108.043, 471.500 107 C 472.536 106.140, 473 106.102, 473 106.878 C 473 108.795, 475.871 108.110, 477.047 105.912 C 477.662 104.763, 479.796 102.018, 481.788 99.812 C 483.781 97.607, 485.519 95.074, 485.649 94.185 C 486.034 91.562, 483.841 82.563, 482.623 81.765 C 481.888 81.285, 482.036 81.025, 483.050 81.015 C 483.903 81.007, 485.159 81.559, 485.842 82.242 C 487.735 84.135, 489.351 81.048, 487.527 79.023 C 484.751 75.940, 484.722 72.610, 487.448 70.049 C 489.347 68.265, 490 66.643, 490 63.710 C 490 61.542, 490.645 57.683, 491.432 55.134 C 492.220 52.585, 493.243 49.150, 493.706 47.500 C 494.827 43.506, 497.163 43.691, 498.243 47.859 C 498.877 50.306, 498.738 51.663, 497.729 52.859 C 494.757 56.380, 492 62.252, 492 65.057 L 492 68 498.878 68 C 507.426 68, 509.089 66.485, 506.214 61.315 C 504.933 59.010, 506.065 54, 507.868 54 C 509.169 54, 510.047 56.713, 509.342 58.551 C 508.998 59.448, 509.734 61.152, 511.090 62.596 C 514.034 65.729, 513.155 67.379, 506.653 70.924 C 502.416 73.234, 501.831 73.332, 500.985 71.875 C 500.206 70.535, 499.238 70.400, 495.454 71.108 C 488.934 72.326, 488.690 72.606, 489.411 78.037 C 489.828 81.185, 489.664 82.945, 488.930 83.190 C 487.688 83.604, 487.546 86.846, 488.557 91.750 C 489.075 94.261, 489.741 95, 491.488 95 C 495.790 95, 502.422 98.070, 505.589 101.528 C 508.585 104.798, 509.139 104.999, 515.135 104.985 C 523.400 104.966, 525.888 103.596, 529.355 97.152 C 531.141 93.831, 533.968 90.583, 536.912 88.468 C 546.280 81.737, 546.168 78.113, 536.060 61.032 C 531.915 54.028, 528.990 47.945, 528.976 46.301 C 528.913 38.878, 525.248 30.584, 522.498 31.639 C 520.542 32.390, 520.590 34.889, 522.603 37.113 C 523.484 38.087, 524.028 39.417, 523.810 40.069 C 523.593 40.720, 522.189 38.890, 520.690 36 C 518.576 31.926, 518.223 30.437, 519.115 29.361 C 520.027 28.263, 520.601 28.226, 521.883 29.183 C 522.772 29.848, 521.025 27.797, 518 24.625 C 513.619 20.033, 507.747 16, 505.441 16 C 505.267 16, 505.364 17.468, 505.655 19.262 C 506.058 21.746, 505.684 22.976, 504.086 24.422 C 501.736 26.549, 501.550 26.480, 500.509 23.099 C 499.904 21.135, 500.066 20.811, 501.397 21.322 C 502.738 21.837, 502.910 21.468, 502.374 19.223 C 502.016 17.726, 501.312 15.698, 500.809 14.718 C 499.871 12.888, 500.686 12.881, 507.250 14.660 C 508.499 14.999, 509 14.552, 509 13.097 C 509 11.977, 510.350 10.062, 512 8.842 C 514.910 6.690, 515.803 4.614, 514.234 3.645 C 513.813 3.384, 511.001 3.827, 507.984 4.628 C 499.764 6.811, 483.908 5.136, 478.354 1.496 C 475.104 -0.633, 468.658 -0.285, 460.115 2.480 M 469.046 3.082 C 460.712 6.039, 455.216 12.147, 451.069 23.060 C 449.630 26.847, 449.367 28.835, 450.062 30.663 C 451.297 33.911, 450.391 37.487, 446.937 43 C 443.086 49.148, 438.367 60.579, 437.502 65.856 C 437.110 68.251, 435.890 71.110, 434.792 72.208 C 431.792 75.208, 427.690 84.784, 428.546 86.790 C 429.203 88.330, 429.340 88.301, 429.930 86.500 C 430.290 85.400, 432.436 80.675, 434.700 76 C 436.963 71.325, 440.004 64.283, 441.457 60.350 C 442.910 56.418, 446.145 50.001, 448.646 46.092 C 453.089 39.147, 453.179 38.848, 452.514 33.122 C 451.925 28.042, 452.166 26.611, 454.328 22.381 C 459.426 12.405, 469.679 4.059, 476.946 3.968 C 479.408 3.938, 479.430 3.883, 477.559 2.468 C 475.247 0.719, 475.819 0.678, 469.046 3.082 M 431 8 C 430.175 8.533, 429.950 8.969, 430.500 8.969 C 431.050 8.969, 432.175 8.533, 433 8 C 433.825 7.467, 434.050 7.031, 433.500 7.031 C 432.950 7.031, 431.825 7.467, 431 8 M 446.994 16.080 C 434.081 27.361, 434 27.469, 434 33.454 C 434 36.883, 433.059 41.455, 431.500 45.596 C 428.554 53.422, 428.604 53.089, 430.487 52.367 C 431.304 52.053, 434.073 47.508, 436.639 42.268 L 441.306 32.739 439.035 31.027 C 435.638 28.464, 437.136 25.739, 443.933 22.116 C 448.326 19.775, 450.088 18.188, 450.909 15.830 C 451.514 14.095, 451.892 12.558, 451.749 12.415 C 451.605 12.272, 449.466 13.921, 446.994 16.080 M 416.964 27.160 C 410.686 33.627, 409.156 35.774, 409.592 37.511 C 410.170 39.812, 407.142 43.031, 400.976 46.673 C 397.239 48.881, 395.579 53.710, 396.484 59.744 C 397.346 65.492, 398.962 63.636, 398.985 56.872 C 399 52.175, 399.907 50.740, 403.500 49.723 C 406.422 48.895, 416.939 44.394, 417.679 43.654 C 418.028 43.305, 417.509 41.238, 416.527 39.059 L 414.741 35.099 421.370 28.370 C 425.017 24.670, 428 21.048, 428 20.321 C 428 17.267, 424.408 19.492, 416.964 27.160 M 393.250 22.690 C 390.913 24.072, 389 25.952, 389 26.866 C 389 27.781, 388.100 30.209, 387 32.261 C 385.448 35.157, 385.028 37.729, 385.127 43.746 L 385.254 51.500 386.047 45.500 C 387.044 37.960, 388.539 34, 390.386 34 C 392.598 34, 396.844 28.347, 397.580 24.424 C 397.943 22.489, 398.074 20.742, 397.870 20.542 C 397.667 20.341, 395.587 21.308, 393.250 22.690 M 509.200 22.200 C 507.449 23.951, 507.645 30, 509.453 30 C 510.661 30, 512.973 24.614, 512.994 21.750 C 513.003 20.577, 510.529 20.871, 509.200 22.200 M 377.320 32.321 C 376.714 34.620, 375.555 38.300, 374.744 40.500 C 373.933 42.700, 372.973 46.075, 372.610 48 L 371.952 51.500 374.578 48.875 C 378.203 45.253, 381.660 30.144, 379.211 28.630 C 378.777 28.362, 377.926 30.023, 377.320 32.321 M 495.914 30.250 C 495.866 30.387, 495.688 32.750, 495.518 35.500 C 495.152 41.427, 496.165 42.995, 500.372 43.015 C 504.916 43.038, 506.259 44.173, 505.185 47.083 C 504.694 48.412, 503.979 50.793, 503.596 52.374 L 502.900 55.247 506.950 52.040 C 509.177 50.275, 511 48.406, 511 47.885 C 511 46.782, 505.205 41.533, 500.249 38.148 C 497.749 36.440, 497.106 35.494, 497.902 34.698 C 499.507 33.093, 499.243 30, 497.500 30 C 496.675 30, 495.961 30.113, 495.914 30.250 M 514.119 31.356 C 513.510 32.090, 512.713 34.223, 512.349 36.095 C 511.984 37.968, 511.194 39.848, 510.593 40.274 C 509.883 40.776, 510.537 41.899, 512.461 43.479 C 515.461 45.944, 517.057 46.106, 515.355 43.774 C 514.843 43.073, 514.290 41.212, 514.126 39.638 C 513.714 35.689, 516.002 36.625, 517.605 41.060 C 518.469 43.452, 518.871 43.873, 518.924 42.441 C 518.966 41.309, 518.360 39.509, 517.577 38.441 C 516.771 37.341, 516.381 35.361, 516.678 33.871 C 517.277 30.864, 515.763 29.376, 514.119 31.356 M 348.543 35.366 C 346.888 37.021, 345.967 39.418, 345.477 43.342 C 344.714 49.445, 344.797 50.249, 347.884 66.500 C 349.427 74.623, 349.981 81.555, 350.002 93 C 350.021 103.381, 350.351 108.005, 351 107 C 352.488 104.697, 352.180 83.946, 350.411 67.379 C 348.488 49.366, 348.870 37.906, 351.489 35.012 C 354.090 32.138, 351.454 32.455, 348.543 35.366 M 167.306 38.250 C 166.790 38.938, 164.876 42.472, 163.053 46.105 C 160.506 51.181, 159.973 53.129, 160.748 54.514 C 161.647 56.121, 162.092 55.855, 164.827 52.080 C 166.516 49.749, 168.408 46.294, 169.032 44.402 C 169.806 42.057, 171.335 40.345, 173.834 39.025 L 177.500 37.088 172.872 37.044 C 170.288 37.020, 167.830 37.552, 167.306 38.250 M 325 38 C 324.099 38.582, 323.975 38.975, 324.691 38.985 C 325.346 38.993, 326.160 38.550, 326.500 38 C 327.267 36.758, 326.921 36.758, 325 38 M 187.915 39.961 C 185.106 41.463, 183.527 43.546, 180.626 49.573 C 176.532 58.079, 176.273 61.019, 180.050 56.123 C 181.397 54.377, 184.891 50.034, 187.813 46.474 C 193.086 40.048, 193.163 40, 198.229 40 C 204.654 40, 204.136 39.430, 197 38.647 C 192.667 38.172, 190.739 38.451, 187.915 39.961 M 148.473 40.750 C 148.065 41.712, 147.376 44.300, 146.941 46.500 C 146.506 48.700, 145.710 52.300, 145.172 54.500 C 143.780 60.192, 141.623 103.827, 142.418 110.194 C 143.109 115.723, 144.360 118.844, 145.286 117.347 C 145.581 116.870, 145.329 112.751, 144.728 108.193 C 143.836 101.439, 143.953 97.186, 145.358 85.203 C 146.307 77.116, 147.177 66.225, 147.292 61 C 147.486 52.139, 147.591 51.702, 148.845 54.500 C 149.921 56.901, 150.054 62.893, 149.509 84.500 C 148.829 111.460, 148.832 111.512, 151.343 119.500 C 152.726 123.900, 154.356 129.525, 154.964 132 C 156.298 137.425, 163.147 154, 164.056 154 C 165.216 154, 163.211 144.769, 158.952 130.500 C 151.278 104.784, 151.712 108.380, 152.965 80.905 C 153.803 62.523, 153.802 54.528, 152.960 49.692 C 152.123 44.884, 152.120 42.644, 152.949 41.095 C 153.944 39.236, 153.797 39, 151.642 39 C 150.279 39, 148.889 39.767, 148.473 40.750 M 211.455 41.455 C 210.105 42.805, 209 44.842, 209 45.983 C 209 47.124, 207.650 50.731, 206 54 C 202.439 61.053, 202.447 61, 205.022 61 C 207.253 61, 214.057 51.387, 216.006 45.481 C 216.992 42.495, 217.634 42.027, 221.560 41.439 C 227.982 40.476, 227.011 39, 219.955 39 C 214.869 39, 213.519 39.390, 211.455 41.455 M 483.727 40.250 C 482.418 41.239, 481.961 43.901, 481.540 53 C 481.247 59.325, 480.893 65.494, 480.754 66.709 C 480.614 67.924, 480.879 69.049, 481.343 69.209 C 482.622 69.651, 484.968 62.035, 484.985 57.386 C 484.999 53.477, 486.399 44.518, 487.584 40.750 C 488.236 38.677, 486.166 38.408, 483.727 40.250 M 239.794 43.409 C 237.159 46.588, 237.116 46.846, 238.166 53.183 C 239.497 61.213, 237.791 69.112, 231.863 82.365 C 229.682 87.241, 228.047 91.380, 228.229 91.563 C 229.335 92.668, 235.552 85.849, 238.175 80.653 C 243.576 69.955, 245 64.504, 245 54.535 C 245 48.035, 245.426 44.820, 246.468 43.441 C 248.584 40.643, 248.349 39.991, 245.250 40.072 C 243.419 40.120, 241.596 41.235, 239.794 43.409 M 258.441 43.750 C 254.787 51.418, 254.190 55.053, 255.593 61.070 C 256.312 64.149, 256.692 67.756, 256.439 69.084 C 256.127 70.724, 256.496 70.375, 257.586 68 C 258.470 66.075, 259.712 63.868, 260.347 63.095 C 261.021 62.273, 261.520 57.912, 261.548 52.595 C 261.575 47.593, 261.961 42.712, 262.405 41.750 C 262.981 40.504, 262.784 40, 261.721 40 C 260.900 40, 259.424 41.688, 258.441 43.750 M 268.062 43.662 C 268.753 45.480, 268.723 49.365, 267.967 55.912 C 267.358 61.185, 266.513 69.100, 266.089 73.500 C 265.665 77.900, 264.632 82.850, 263.793 84.500 C 261.961 88.101, 260.589 95, 261.705 94.999 C 263.202 94.997, 268 85.208, 268 82.154 C 268 80.476, 269.166 75.412, 270.591 70.901 C 272.548 64.705, 273.021 61.627, 272.525 58.316 C 272.144 55.776, 272.360 52.439, 273.039 50.381 C 274.128 47.082, 274.013 46.623, 271.419 43.915 C 267.942 40.286, 266.744 40.196, 268.062 43.662 M 174.783 43.750 C 173.944 44.712, 172.730 46.520, 172.085 47.766 C 171.440 49.012, 168.957 52.233, 166.567 54.925 C 162.808 59.157, 161.919 61.079, 159.981 69.159 C 157.093 81.199, 156.329 95.195, 158.115 103.318 L 159.474 109.500 160.516 94.494 C 161.539 79.769, 161.627 79.376, 165.230 73.444 C 167.250 70.120, 169.399 65.183, 170.006 62.473 C 170.613 59.764, 172.879 54.343, 175.041 50.426 C 178.579 44.016, 179.045 42, 176.988 42 C 176.615 42, 175.623 42.788, 174.783 43.750 M 277.506 55.750 L 278.197 69.500 273.633 83.315 C 270.971 91.372, 268.013 98.385, 266.534 100.141 C 264.432 102.640, 263.995 104.205, 263.969 109.327 C 263.952 112.722, 263.457 118.875, 262.868 123 C 262.280 127.125, 261.731 131.269, 261.649 132.209 C 261.364 135.476, 263.384 134.472, 266.875 129.611 C 269.924 125.366, 270.552 123.457, 271.640 115.111 C 272.330 109.825, 273.855 102.575, 275.029 99 C 276.203 95.425, 277.528 88.675, 277.973 84 C 278.418 79.325, 279.738 71.606, 280.906 66.847 L 283.029 58.194 280.471 50.097 C 279.064 45.644, 277.666 42, 277.363 42 C 277.061 42, 277.125 48.188, 277.506 55.750 M 202.374 46.087 C 199.031 47.056, 196.593 49.954, 183.934 68 C 179.883 73.775, 174.809 80.621, 172.658 83.214 C 169.030 87.588, 168.683 88.560, 167.849 96.714 C 166.965 105.347, 167.036 105.839, 171.961 125 C 174.718 135.725, 176.776 142.700, 176.535 140.500 C 176.294 138.300, 175.813 133.026, 175.466 128.781 C 175.119 124.535, 174.203 118.685, 173.429 115.781 C 171.936 110.169, 171.555 98.161, 172.738 94 C 173.414 91.626, 173.476 91.673, 173.975 94.921 C 174.779 100.159, 177 100.084, 177 94.818 C 177 92.426, 177.839 88.901, 178.865 86.984 C 181.326 82.385, 189.667 72.878, 193.750 70.018 C 195.537 68.767, 197 66.874, 197 65.812 C 197 63.011, 204.872 47.178, 206.834 46.033 C 209 44.769, 206.829 44.795, 202.374 46.087 M 226.157 48 C 224.975 49.925, 224.006 52.101, 224.004 52.836 C 224.002 53.571, 221.300 56.830, 218 60.079 C 214.546 63.480, 212 66.855, 212 68.033 C 212 69.159, 211.103 71.837, 210.007 73.985 C 208.672 76.603, 208.369 78.110, 209.089 78.555 C 212.004 80.357, 227.431 58.978, 228.537 51.602 C 229.506 45.140, 228.681 43.891, 226.157 48 M 288.455 51.250 C 288.859 54.688, 289.499 68.525, 289.879 82 C 290.368 99.358, 290.963 107.284, 291.918 109.191 C 292.987 111.322, 293.031 112.818, 292.134 116.384 C 291.510 118.860, 291 121.908, 291 123.157 C 291 125.189, 291.160 125.268, 292.519 123.909 C 293.436 122.993, 294.273 119.634, 294.629 115.445 C 294.954 111.625, 296.111 105.472, 297.201 101.772 C 298.290 98.072, 298.976 94.472, 298.724 93.772 C 298.472 93.072, 297.500 95.088, 296.562 98.250 C 294.455 105.362, 292.444 106.006, 293.441 99.250 C 295.376 86.150, 295.582 81.332, 294.798 67.510 C 294.032 53.996, 293.703 52.149, 291.460 48.760 C 290.091 46.692, 288.691 45, 288.347 45 C 288.003 45, 288.052 47.813, 288.455 51.250 M 112.445 51.442 C 112.076 53.406, 112.105 56.473, 112.509 58.257 C 113.539 62.801, 113.604 72.017, 112.678 82 C 111.493 94.780, 113.476 89.718, 115.420 75 C 116.570 66.291, 116.833 60.402, 116.286 55.582 C 115.413 47.900, 113.497 45.835, 112.445 51.442 M 309.091 52.250 C 309.543 54.587, 309.932 61.273, 309.956 67.107 C 310.009 79.957, 311.904 103.932, 313.029 105.986 C 313.651 107.121, 314.011 106.803, 314.554 104.640 C 315.253 101.857, 314.966 97.910, 312.981 83 C 312.299 77.876, 312.319 73.031, 313.045 67.707 C 313.629 63.420, 313.885 59.145, 313.613 58.207 C 313.341 57.268, 312.625 54.587, 312.021 52.250 C 311.417 49.913, 310.326 48, 309.596 48 C 308.572 48, 308.457 48.972, 309.091 52.250 M 82.379 56.178 C 78.685 58.860, 77.986 60.078, 75.629 67.931 C 72.961 76.822, 72.231 86.262, 74 89 C 74.716 90.108, 74.977 89.454, 74.998 86.500 C 75.044 79.910, 78.466 70.309, 85.447 57.188 C 86.416 55.366, 87.049 53.720, 86.854 53.530 C 86.659 53.341, 84.646 54.532, 82.379 56.178 M 470.701 57 C 470.379 58.375, 469.831 63.976, 469.483 69.446 C 468.931 78.132, 468.416 80.231, 465.425 86.011 C 462.220 92.205, 460.724 99.906, 463 98.500 C 463.550 98.160, 464 97.043, 464 96.018 C 464 94.992, 465.496 92.193, 467.325 89.797 C 469.155 87.400, 471.180 83.924, 471.825 82.071 C 473.107 78.393, 473.259 61.014, 472.044 57 L 471.287 54.500 470.701 57 M 321.367 67.632 C 323.408 74.244, 324.877 84.167, 325.417 95 C 326.432 115.381, 328.043 117.320, 327.494 97.500 C 327.004 79.795, 324.830 67.074, 322.145 66.203 C 321.214 65.901, 320.970 66.347, 321.367 67.632 M 354.979 93.500 C 354.838 108.350, 354.834 126.643, 354.970 134.152 C 355.185 146.042, 354.940 148.543, 353.073 153.534 C 351.894 156.685, 351.115 159.448, 351.342 159.675 C 351.568 159.902, 353.190 157.930, 354.946 155.294 L 358.137 150.500 357.434 113 C 356.563 66.533, 355.328 56.720, 354.979 93.500 M 223.898 70.250 C 223.253 71.487, 220.617 74.750, 218.042 77.501 C 215.466 80.251, 212.154 84.321, 210.682 86.545 C 208.131 90.401, 200.582 110.915, 201.410 111.743 C 201.627 111.960, 203.086 110.466, 204.652 108.423 C 206.219 106.380, 209.943 101.768, 212.929 98.173 C 216.886 93.410, 219.359 89.044, 222.050 82.069 C 226.928 69.428, 227.339 68, 226.103 68 C 225.535 68, 224.543 69.013, 223.898 70.250 M 64.202 71.285 C 62.489 73.109, 61.883 75.519, 61.160 83.384 C 60.241 93.377, 60.537 96.082, 63.409 103.914 C 65.391 109.321, 66.906 111.250, 68.647 110.582 C 69.402 110.292, 70.593 111.243, 71.410 112.786 C 72.600 115.035, 72.957 115.215, 73.495 113.840 C 74.285 111.822, 71.676 106.473, 69.492 105.635 C 68.622 105.301, 67.254 103.459, 66.453 101.541 C 65.237 98.632, 65.164 95.704, 66.009 83.872 C 66.567 76.071, 66.869 69.536, 66.682 69.349 C 66.495 69.161, 65.378 70.033, 64.202 71.285 M 510.323 72.275 C 507.290 75.793, 502.410 78.743, 501.359 77.692 C 501.005 77.338, 501.255 76.398, 501.915 75.603 C 502.911 74.402, 502.752 74.252, 500.974 74.717 C 497.951 75.508, 496.929 78.890, 498.679 82.314 C 500.306 85.496, 502.623 85.384, 502.262 82.140 C 502.092 80.611, 502.574 80, 503.953 80 C 505.014 80, 506.160 79.550, 506.500 79 C 506.840 78.450, 507.991 78, 509.059 78 C 510.132 78, 511 77.318, 511 76.475 C 511 75.637, 512.031 74.559, 513.291 74.079 C 515.893 73.090, 518.840 70, 517.181 70 C 516.597 70, 515.840 70.450, 515.500 71 C 515.160 71.550, 514.178 72, 513.319 72 C 512.042 72, 511.984 71.725, 513 70.500 C 515.509 67.477, 513.057 69.102, 510.323 72.275 M 246.691 77.382 C 245.145 80.339, 241.883 85.100, 239.441 87.961 C 236.998 90.822, 235 94.040, 235 95.112 C 235 96.183, 233.834 99.831, 232.409 103.217 C 230.742 107.176, 229.625 112.073, 229.278 116.937 C 228.909 122.099, 227.938 126.159, 226.218 129.727 C 224.199 133.914, 223.877 135.561, 224.599 138 L 225.500 141.046 229.258 138.481 C 235.316 134.348, 239.722 124.462, 240.917 112.325 C 241.598 105.415, 243.231 98.346, 246.422 88.500 C 248.918 80.800, 250.969 73.938, 250.980 73.250 C 251.022 70.635, 249.399 72.199, 246.691 77.382 M 477.546 77.500 C 476.513 79.785, 476.220 80.976, 475.365 86.375 C 474.886 89.400, 475.053 90.150, 476.126 89.794 C 478.984 88.848, 480.403 84.557, 479.398 79.896 C 478.592 76.155, 478.316 75.798, 477.546 77.500 M 198.933 81.328 C 197.045 83.929, 192.660 89.844, 189.190 94.472 C 183.046 102.665, 182.922 102.951, 184.479 105.327 C 185.598 107.035, 186.010 109.675, 185.854 114.133 C 185.635 120.380, 187.209 125.607, 188.980 124.512 C 190.434 123.614, 191.241 113.726, 190.104 110.755 C 189.218 108.441, 189.442 107.438, 191.527 104.366 C 192.887 102.361, 194 99.964, 194 99.038 C 194 98.112, 196.041 93.161, 198.536 88.035 C 201.031 82.909, 202.913 78.239, 202.719 77.657 C 202.525 77.075, 200.821 78.727, 198.933 81.328 M 428 77.662 C 428 78.209, 426.581 80.800, 424.846 83.419 L 421.692 88.180 422.341 105.375 C 422.852 118.923, 422.706 122.986, 421.653 124.535 C 419.763 127.314, 421.404 133.739, 423.550 131.959 C 424.347 131.297, 425 130, 425 129.078 C 425 128.155, 425.536 126.864, 426.191 126.209 C 427.109 125.291, 427.113 123.926, 426.207 120.259 C 425.218 116.254, 424.932 109.299, 424.915 88.796 C 424.913 87.309, 425.863 84.228, 427.026 81.949 C 428.188 79.671, 428.883 77.550, 428.570 77.236 C 428.256 76.923, 428 77.115, 428 77.662 M 492.694 77.639 C 491.895 78.438, 492.798 80, 494.059 80 C 494.577 80, 495 79.325, 495 78.500 C 495 76.954, 493.820 76.513, 492.694 77.639 M 131.252 81.500 C 131.263 83.700, 131.468 84.482, 131.707 83.238 C 131.946 81.994, 131.937 80.194, 131.687 79.238 C 131.437 78.282, 131.241 79.300, 131.252 81.500 M 124.110 92.799 C 123.429 98.684, 122.012 108, 120.961 113.500 C 119.910 119, 118.586 127.652, 118.018 132.726 L 116.986 141.951 120.597 150.972 C 124.128 159.796, 124.330 160.059, 129.854 163.023 C 133.685 165.078, 136.535 167.571, 138.719 170.776 C 152.549 191.069, 153.789 192.628, 158.988 196.260 L 164.428 200.061 166.595 195.814 L 168.761 191.568 162.131 188.337 C 154.046 184.398, 148.224 178.904, 141.050 168.446 C 138.053 164.076, 133.440 158.452, 130.800 155.949 C 127.176 152.513, 126 150.674, 126 148.442 C 126 146.817, 125.568 143.982, 125.041 142.142 C 124.395 139.890, 124.556 132.545, 125.534 119.649 C 127.159 98.217, 127.416 83.375, 126.174 82.608 C 125.720 82.327, 124.792 86.913, 124.110 92.799 M 333.350 94.154 C 333.708 99.188, 334.032 110.101, 334.070 118.404 C 334.112 127.469, 334.474 132.701, 334.975 131.500 C 335.941 129.183, 336.256 95.553, 335.370 89.250 C 335.042 86.912, 334.307 85, 333.737 85 C 333.050 85, 332.920 88.087, 333.350 94.154 M 442.079 89.291 C 441.600 90.551, 440.486 92.181, 439.604 92.914 C 437.583 94.591, 437.521 99.358, 439.500 101 C 440.325 101.685, 441 103.063, 441 104.063 C 441 105.064, 441.470 106.172, 442.044 106.527 C 443.983 107.725, 446 104.811, 446 100.812 C 446 98.643, 446.485 95.963, 447.077 94.856 C 448.442 92.306, 447.405 88.746, 445.962 91.028 C 445.255 92.145, 445.027 91.838, 445.015 89.750 C 444.997 86.411, 443.277 86.142, 442.079 89.291 M 365.431 90 C 365.682 91.375, 366.612 97.900, 367.499 104.500 C 369.195 117.123, 374.869 149.202, 375.521 149.854 C 375.731 150.064, 376.204 149.033, 376.573 147.564 C 377.484 143.934, 376.663 137.565, 373.598 124.500 C 372.179 118.450, 370.583 110.125, 370.052 106 C 369.520 101.875, 368.160 96.025, 367.030 93 C 365.900 89.975, 365.181 88.625, 365.431 90 M 319.936 106.500 C 319.547 128.587, 320.381 144, 321.966 144 C 323.684 144, 324.027 134.593, 322.954 116.917 C 321.411 91.504, 320.270 87.565, 319.936 106.500 M 50.702 99.744 C 48.563 107.352, 47.754 123.050, 49.428 124.461 C 50.106 125.032, 54.141 130.338, 58.395 136.250 C 62.648 142.162, 66.775 147, 67.564 147 C 68.644 147, 69.034 148.548, 69.135 153.250 C 69.237 157.915, 69.596 156.077, 70.554 146 C 72.356 127.029, 72.370 127.350, 69.750 126.522 C 68.513 126.130, 65.870 125.717, 63.878 125.604 C 58.759 125.312, 55 122.605, 55 119.209 C 55 117.699, 53.875 114.809, 52.500 112.785 C 49.559 108.457, 49.493 107.551, 51.593 100.330 C 52.468 97.317, 52.991 94.657, 52.753 94.419 C 52.515 94.182, 51.592 96.578, 50.702 99.744 M 100.527 96.250 C 98.779 103.937, 98.096 108.400, 97.580 115.500 L 96.999 123.500 98.990 118.099 C 100.895 112.931, 102.998 94, 101.667 94 C 101.321 94, 100.808 95.013, 100.527 96.250 M 405.537 98 C 405.847 100.475, 407.039 104.075, 408.186 106 C 409.332 107.925, 411.565 113.100, 413.148 117.500 C 415.867 125.060, 415.999 125.239, 415.534 120.763 C 415.263 118.157, 413.618 113.207, 411.878 109.763 C 410.137 106.318, 407.872 101.250, 406.843 98.500 L 404.973 93.500 405.537 98 M 300.940 107.550 C 300.908 111.373, 300.450 116.750, 299.923 119.500 C 297.543 131.932, 296.756 139.885, 297.448 144.504 C 298.107 148.896, 298.339 149.256, 299.495 147.676 C 303.233 142.564, 305.458 105.058, 302.215 101.815 C 301.262 100.862, 300.987 102.096, 300.940 107.550 M 212.918 108.059 C 205.002 119.032, 205.011 119.011, 205.005 126.356 C 205.001 132.285, 207.124 143.773, 208.694 146.313 C 208.976 146.771, 210.361 144.750, 211.770 141.823 C 214.040 137.109, 214.343 135.185, 214.421 125 C 214.496 115.284, 214.862 112.736, 216.777 108.572 C 220.122 101.303, 217.995 101.021, 212.918 108.059 M 254.429 107.051 C 252.886 110.048, 251.316 114.750, 250.941 117.500 C 249.831 125.631, 243.669 139.177, 240.104 141.320 C 238.439 142.320, 236.212 144.570, 235.155 146.320 C 233.440 149.157, 233.340 150.308, 234.222 157 C 235.331 165.418, 236.189 167, 239.645 167 C 241.978 167, 241.999 166.929, 240.404 164.494 C 238.072 160.934, 239.998 156.777, 245.466 153.573 C 250.815 150.438, 253 147.137, 253 142.191 C 253 138.897, 257.736 113.700, 259.520 107.500 C 259.837 106.400, 259.452 104.623, 258.666 103.551 C 257.315 101.710, 257.080 101.904, 254.429 107.051 M 363.082 109.334 C 362.986 113.839, 370.359 157.001, 372.592 165.010 C 373.437 168.040, 375.011 171.640, 376.088 173.010 C 378.040 175.490, 378.041 175.480, 376.166 170.500 C 375.132 167.750, 373.981 162.125, 373.610 158 C 372.744 148.366, 363.191 104.209, 363.082 109.334 M 163 108.337 C 163 108.705, 164.137 118.283, 165.527 129.621 C 167.610 146.617, 168.473 150.961, 170.446 154.368 C 172.122 157.265, 173.202 161.453, 174.058 168.377 C 175.752 182.084, 177.487 178.791, 176.563 163.624 C 176.043 155.098, 175.341 151.332, 173.557 147.500 C 170.272 140.443, 167.387 130.140, 165.435 118.500 C 164.006 109.981, 163 105.781, 163 108.337 M 180.831 113.502 C 180.370 113.963, 181.191 123.024, 183.061 138.121 C 183.648 142.863, 184.918 149.388, 185.884 152.621 C 187.564 158.249, 187.693 158.399, 188.911 156.145 C 190.432 153.328, 189.943 150.107, 185.938 136.575 C 184.056 130.218, 183 124.398, 183 120.384 C 183 114.825, 182.163 112.170, 180.831 113.502 M 402.383 123.554 C 402.711 124.409, 403.441 127.998, 404.005 131.529 C 404.569 135.060, 405.473 139.115, 406.015 140.540 C 406.557 141.965, 407 145.163, 407 147.648 C 407 150.826, 407.371 152.039, 408.250 151.736 C 411.286 150.689, 406.077 122, 402.851 122 C 402.265 122, 402.054 122.700, 402.383 123.554 M 330.127 130.718 C 327.656 136.738, 327.021 140.750, 327.619 146.585 C 328.314 153.368, 331.257 158.623, 332.923 156.054 C 333.509 155.151, 333.501 153.936, 332.903 152.818 C 330.931 149.134, 330.195 141.600, 331.185 135.240 C 332.284 128.182, 331.879 126.451, 330.127 130.718 M 307.493 137.643 C 306.599 140.864, 305.387 144.753, 304.799 146.284 C 304.211 147.815, 303.965 151.190, 304.254 153.784 C 304.542 156.378, 304.424 159.400, 303.992 160.500 C 303.315 162.223, 302.909 161.842, 301.056 157.750 C 299.558 154.438, 298.315 153, 296.953 153 C 295.250 153, 295 153.711, 295 158.566 C 295 161.627, 295.450 164.972, 295.999 165.999 C 296.797 167.490, 296.596 167.993, 294.999 168.500 C 292.291 169.360, 292.470 170.327, 296.104 174.465 C 301.057 180.107, 303 178.937, 303 170.313 C 303 166.946, 303.640 165.029, 305.500 162.818 C 307.733 160.164, 308.006 158.919, 308.060 151.173 C 308.092 146.403, 308.494 140.250, 308.952 137.500 C 310.103 130.582, 309.434 130.647, 307.493 137.643 M 388.571 139 C 388.855 143.125, 389.522 148.975, 390.054 152 C 390.585 155.025, 391.448 160.357, 391.971 163.850 C 392.901 170.066, 394.469 173.446, 395.988 172.508 C 396.865 171.966, 395.691 164.908, 393.990 160.500 C 393.354 158.850, 392.584 153.225, 392.280 148 C 391.909 141.619, 391.125 137.351, 389.891 135 L 388.055 131.500 388.571 139 M 199.274 139.475 C 198.497 140.863, 198.584 142.611, 199.594 145.939 C 201.214 151.275, 201.384 157.175, 200.052 161.818 L 199.104 165.123 202.302 163.242 C 205.350 161.448, 205.484 161.113, 205.149 156.075 C 204.956 153.168, 203.794 147.816, 202.568 144.181 C 200.650 138.494, 200.190 137.837, 199.274 139.475 M 48.265 153.315 L 48.500 168.131 55.617 168.578 C 63.356 169.065, 64.312 168.588, 65.558 163.626 L 66.276 160.762 57.888 161.131 L 49.500 161.500 49.200 155.750 C 49.035 152.588, 49.157 150, 49.472 150 C 49.786 150, 51.721 151.081, 53.771 152.403 C 62.982 158.338, 65.069 155.871, 56.500 149.178 C 53.475 146.816, 51 144.320, 51 143.632 C 51 142.945, 50.332 141.509, 49.515 140.441 C 48.183 138.701, 48.054 140.036, 48.265 153.315 M 215.903 143.641 C 215.282 145.214, 214.543 148.393, 214.262 150.707 C 213.834 154.222, 214.181 155.427, 216.375 158.034 C 217.819 159.750, 219 161.484, 219 161.889 C 219 162.293, 217.650 163.622, 216 164.842 C 214.350 166.062, 213 167.496, 213 168.030 C 213 169.921, 217.746 168.964, 220.354 166.548 C 223.467 163.662, 223.914 158.124, 221.500 152.346 C 220.675 150.371, 220 147.516, 220 146 C 220 144.485, 219.332 142.691, 218.517 142.014 C 217.283 140.990, 216.843 141.265, 215.903 143.641 M 316.502 155.750 C 316.504 163.364, 318.719 169.185, 321.466 168.791 C 325.507 168.213, 324.109 156.252, 319.457 151.600 C 316.914 149.057, 316.500 149.639, 316.502 155.750 M 65 157.500 C 65 158.991, 65.431 159.852, 66 159.500 C 66.550 159.160, 67 158.260, 67 157.500 C 67 156.740, 66.550 155.840, 66 155.500 C 65.431 155.148, 65 156.009, 65 157.500 M 68.206 169.266 L 68 178.032 65.183 177.817 C 63.533 177.691, 60.018 178.928, 56.698 180.801 C 53.581 182.561, 50.826 184, 50.576 184 C 50.325 184, 49.953 182.313, 49.747 180.250 C 49.201 174.775, 49.976 200.226, 50.611 208.637 C 51.089 214.971, 51.359 215.719, 53.009 215.287 C 54.031 215.020, 56.520 215.347, 58.540 216.013 C 63.720 217.723, 67 215.920, 67 211.362 C 67 208.840, 66.647 208.198, 65.500 208.638 C 63.684 209.335, 63.603 208.608, 65.212 206.032 C 67.055 203.082, 65.650 202.684, 61.673 205.030 C 59.672 206.211, 56.869 207, 55.315 206.821 C 52.845 206.536, 52.448 205.971, 51.742 201.733 C 50.646 195.151, 51.863 193.277, 57.753 192.477 C 65.413 191.436, 66 191.121, 66 188.055 C 66 186.509, 66.692 183.588, 67.538 181.563 C 68.635 178.939, 68.981 175.387, 68.744 169.191 L 68.411 160.500 68.206 169.266 M 108.116 181.361 C 107.192 182.474, 108.053 182.818, 112.857 183.253 C 120.002 183.901, 126.586 186.686, 130.866 190.869 C 132.628 192.591, 134.616 193.983, 135.284 193.962 C 137.291 193.898, 126.876 185.281, 121.486 182.545 C 116.005 179.763, 109.891 179.222, 108.116 181.361 M 391.929 196.976 C 387.522 199.306, 386.347 200.679, 385.489 204.506 L 384.817 207.500 386.711 204.777 C 387.753 203.279, 390.381 200.485, 392.552 198.568 C 397.058 194.591, 396.952 194.321, 391.929 196.976 M 335.235 197.205 C 335.911 199.232, 344.289 202.948, 348 202.867 L 351.500 202.790 348 201.625 C 346.075 200.984, 342.605 199.456, 340.290 198.230 C 335.477 195.681, 334.673 195.518, 335.235 197.205 M 67.158 205 C 67.158 206.375, 67.385 206.938, 67.662 206.250 C 67.940 205.563, 67.940 204.438, 67.662 203.750 C 67.385 203.063, 67.158 203.625, 67.158 205 M 336.340 210.136 C 336.688 211.436, 336.979 212.747, 336.986 213.049 C 337.009 213.953, 344.079 216.245, 350.707 217.497 C 354.121 218.143, 356.675 218.283, 356.382 217.808 C 355.759 216.800, 341.609 209.608, 338.104 208.518 C 335.949 207.847, 335.771 208.011, 336.340 210.136 M 115 217.474 C 115 217.735, 116.463 218.688, 118.250 219.592 C 120.037 220.496, 123.750 222.939, 126.500 225.020 C 132.952 229.903, 138.261 231.434, 142.013 229.493 C 144.779 228.063, 146.514 225.426, 145.206 224.639 C 144.818 224.405, 142.925 223.748, 141 223.179 C 139.075 222.610, 134.350 220.996, 130.500 219.593 C 124.409 217.373, 115 216.087, 115 217.474 M 60.305 225.547 C 57.466 227.747, 54.502 229.018, 51.130 229.482 C 46.227 230.156, 42.903 233, 47.017 233 C 50.186 233, 58 235.340, 58 236.289 C 58 236.770, 56.397 239.119, 54.438 241.510 L 50.877 245.856 47.299 243.428 C 45.331 242.093, 43.286 241, 42.753 241 C 42.221 241, 42.059 240.325, 42.393 239.500 C 44.204 235.025, 43.982 234.874, 41.129 238.638 C 38 242.765, 32.853 245.988, 29.349 246.014 C 28.332 246.021, 26.512 246.292, 25.304 246.616 L 23.107 247.205 25.670 251.078 C 27.080 253.208, 27.970 255.637, 27.648 256.475 C 27.239 257.540, 27.689 258, 29.141 258 C 30.922 258, 31.147 257.536, 30.714 254.750 C 30.436 252.963, 29.909 250.582, 29.543 249.461 C 28.969 247.702, 29.573 247.198, 33.938 245.803 L 39 244.184 39 246.592 C 39 247.916, 39.588 249, 40.307 249 C 41.026 249, 42.038 250.197, 42.557 251.659 L 43.500 254.319 49.265 249.046 C 55.064 243.740, 60.634 235.123, 63.484 227.046 C 64.329 224.649, 64.904 222.600, 64.761 222.492 C 64.617 222.384, 62.612 223.759, 60.305 225.547 M 145.060 228.428 C 144.173 229.496, 144.571 230.003, 146.946 230.831 C 150.723 232.148, 151.778 230.740, 148.583 228.646 C 146.577 227.332, 145.999 227.296, 145.060 228.428 M 378.250 232.662 C 375.471 233.784, 377.259 235.096, 381.172 234.807 C 386.280 234.431, 387.783 231.962, 382.833 232.079 C 381 232.122, 378.938 232.385, 378.250 232.662 M 100 240.680 C 93.645 241.333, 92 241.986, 92 243.852 C 92 246.639, 93.003 247.044, 95.634 245.320 C 97.208 244.289, 99.220 243.936, 101.460 244.300 C 103.342 244.605, 105.021 244.475, 105.191 244.011 C 105.709 242.597, 112.973 245.643, 117.217 249.054 C 122.576 253.361, 129.241 254.287, 131.014 250.973 C 132.200 248.758, 132.139 248.722, 128.232 249.347 C 124.529 249.939, 123.780 249.620, 117.991 244.993 C 111.421 239.741, 110.734 239.576, 100 240.680 M 366.607 253.582 C 365.535 256.375, 365.959 263.724, 367.250 264.722 C 367.938 265.254, 369.255 265.958, 370.177 266.285 C 371.638 266.805, 371.722 266.502, 370.829 263.939 C 370.265 262.320, 369.440 260.772, 368.997 260.498 C 368.553 260.224, 368.432 258.200, 368.727 256 C 369.262 252.012, 367.834 250.384, 366.607 253.582 M 40 255 C 39.099 255.582, 38.975 255.975, 39.691 255.985 C 40.346 255.993, 41.160 255.550, 41.500 255 C 42.267 253.758, 41.921 253.758, 40 255" stroke="none" fill="black" fill-rule="evenodd"/>
</svg>