<svg xmlns="http://www.w3.org/2000/svg" width="576" height="779" viewBox="0 0 576 779" version="1.1">
	<path d="M 122.500 28.164 C 99.262 30.414, 88.108 33.082, 65.085 41.896 C 59.907 43.878, 53.735 46.238, 51.369 47.140 C 41.527 50.892, 23.225 66.786, 18.833 75.394 C 15.084 82.742, 13.990 90.917, 16.480 92.983 C 17.964 94.215, 18.304 94.211, 19.015 92.953 C 19.466 92.154, 21.263 89.536, 23.007 87.136 L 26.177 82.772 31.839 83.263 C 40.401 84.006, 50.357 85.708, 74 90.472 C 85.825 92.854, 101.800 96.020, 109.500 97.507 C 117.200 98.994, 123.950 100.552, 124.500 100.969 C 126.002 102.108, 132.423 102.916, 148.630 104.009 C 156.681 104.551, 165.073 105.481, 167.277 106.075 L 171.285 107.154 170.667 117.327 C 169.302 139.814, 168.867 169.775, 169.813 176.081 C 171.371 186.455, 175.356 195.348, 185.013 210 C 189.745 217.179, 197.360 229.157, 199 232 C 201.567 236.451, 211.642 252.158, 212.830 253.563 C 213.325 254.148, 214.314 255.723, 215.029 257.063 C 215.743 258.403, 218.796 263.325, 221.813 268 C 230.783 281.902, 236.047 290.364, 240.500 298.038 C 243.357 302.962, 247.379 308.199, 254.344 316.063 C 256.080 318.023, 259.975 322.513, 263 326.041 C 266.025 329.569, 274.157 338.090, 281.072 344.977 C 293.105 356.964, 294.175 357.766, 306.072 363.714 C 315.480 368.418, 320.181 371.492, 325.418 376.365 L 332.336 382.802 327.416 387.651 C 323.090 391.914, 322.116 393.695, 319.359 402.393 C 315.757 413.752, 315.301 411.131, 324.392 431.280 C 325.826 434.458, 327 437.521, 327 438.085 C 327 438.649, 329.545 440.276, 332.656 441.700 C 338.888 444.553, 350.427 445.874, 353 444.028 C 354.272 443.116, 354.045 442.574, 351.500 440.460 C 349.850 439.088, 347.150 437.611, 345.500 437.177 C 342.132 436.290, 340.351 433.342, 336.908 422.955 L 334.738 416.409 337.583 410.598 L 340.429 404.787 351.964 405.466 C 362.256 406.071, 364.363 406.531, 371.500 409.733 C 379.389 413.271, 384 416.850, 384 419.433 C 384 420.160, 384.601 421.254, 385.335 421.863 C 386.070 422.473, 387.954 426.160, 389.523 430.057 C 392.076 436.399, 392.259 437.579, 391.263 441.309 C 390.214 445.238, 390.887 448, 392.893 448 C 393.250 448, 395.333 444.519, 397.521 440.264 C 402.373 430.832, 402.550 426.632, 398.548 415.989 C 396.375 410.211, 394.592 407.404, 390.742 403.701 C 386.022 399.160, 385.854 398.825, 387.626 397.482 C 390.267 395.483, 390.386 395.523, 395.816 400.250 C 411.007 413.472, 417.562 417.475, 425.811 418.569 C 428.646 418.945, 431.468 419.859, 432.083 420.600 C 433.159 421.897, 434.577 422.245, 443.656 423.445 L 447.811 423.993 450.102 418.466 C 451.745 414.503, 453.058 412.773, 454.743 412.350 C 456.036 412.025, 457.296 411.962, 457.543 412.210 C 457.790 412.457, 459.323 459.874, 460.949 517.580 C 462.574 575.286, 464.134 625.318, 464.416 628.762 C 465.047 636.493, 478.481 677.864, 480.628 678.687 C 481.430 678.995, 482.280 679.053, 482.518 678.816 C 482.987 678.346, 487.045 631.783, 489.474 599 C 492.083 563.774, 493.072 532.034, 492.947 487.500 C 492.832 446.451, 492.918 444.296, 494.836 440 C 498.285 432.274, 498.665 428.871, 501.559 379.746 C 501.953 373.074, 502.650 368.708, 503.397 368.246 C 504.059 367.836, 505.681 365.925, 507.002 364 C 508.323 362.075, 509.680 360.275, 510.018 360 C 510.356 359.725, 512.177 357.296, 514.066 354.601 C 515.955 351.907, 518.732 347.961, 520.238 345.834 C 529.211 333.153, 531.885 321.996, 528.632 310.805 C 527.250 306.053, 518.446 287.494, 512.120 276 C 511.060 274.075, 509.648 270.700, 508.981 268.500 C 507.273 262.867, 500.878 249.764, 495.801 241.495 C 491.787 234.957, 488.691 230.523, 476.814 214.300 C 474.236 210.779, 471.351 205.559, 470.403 202.699 C 465.434 187.713, 454.932 167.215, 448.560 160.067 C 443.800 154.726, 433.700 145.290, 429.396 142.164 C 427.253 140.607, 424.882 138.583, 424.128 137.667 C 423.373 136.750, 422.296 136, 421.735 136 C 421.175 136, 418.345 133.975, 415.448 131.500 C 412.551 129.025, 409.851 127, 409.448 127 C 409.045 127, 406.345 124.975, 403.448 122.500 C 400.551 120.025, 397.803 117.994, 397.341 117.986 C 395.990 117.964, 385.325 108.462, 371.541 95 C 347.202 71.230, 340.486 64.437, 337.166 60.227 C 335.332 57.902, 333.260 56, 332.561 56 C 331.861 56, 326.659 53.975, 321 51.500 C 315.341 49.025, 310.175 47, 309.521 47 C 308.866 47, 303.869 45.150, 298.415 42.888 C 292.962 40.627, 286.925 38.403, 285 37.946 C 283.075 37.489, 276.325 35.452, 270 33.419 C 259.371 30.003, 257.363 29.687, 243.484 29.246 C 232.819 28.908, 224.728 29.252, 215.561 30.434 C 203.824 31.947, 201.469 31.962, 189.577 30.598 C 159.730 27.176, 140.069 26.462, 122.500 28.164" stroke="none" fill="black" fill-rule="evenodd"/>
</svg>