<svg xmlns="http://www.w3.org/2000/svg" width="325" height="917" viewBox="0 0 325 917" version="1.1">
	<path d="M 123.621 2.250 C 123.810 3.488, 125.102 11.488, 126.491 20.030 C 130.091 42.166, 131.985 73.390, 131.887 109 L 131.804 139.500 129.912 130 C 128.872 124.775, 127.566 117.350, 127.011 113.500 C 126.455 109.650, 125.561 104.114, 125.024 101.198 C 124.488 98.281, 123.599 89.056, 123.049 80.698 C 120.610 43.621, 119.972 32.024, 119.985 25.050 C 119.996 19.743, 119.691 17.909, 118.926 18.674 C 118.161 19.439, 118.161 27.190, 118.926 45.624 C 120.307 78.936, 120.841 84.524, 125.506 114.500 C 132.811 161.446, 133.370 166.133, 134.517 190 C 134.767 195.225, 135.223 202.650, 135.528 206.500 C 135.952 211.848, 135.815 213.146, 134.947 212 C 133.967 210.706, 133.885 210.731, 134.347 212.179 C 135.957 217.224, 136.176 221.001, 134.861 221.015 C 133.808 221.027, 133.839 221.245, 135 221.979 C 136.191 222.732, 136.500 225.287, 136.500 234.368 C 136.500 240.660, 136.176 245.608, 135.779 245.363 C 135.382 245.118, 135.099 246.399, 135.149 248.209 C 135.199 250.019, 134.480 255.325, 133.551 260 C 131.218 271.739, 131.301 271.375, 128.555 282 L 126.101 291.500 126.589 280.500 C 126.857 274.450, 127.286 266.350, 127.542 262.500 C 128.418 249.301, 128.128 236.481, 126.546 218.500 C 125.674 208.600, 124.514 191.725, 123.966 181 C 123.418 170.275, 122.788 160.375, 122.566 159 C 121.925 155.034, 123.026 188.934, 124.092 206 C 126.392 242.820, 126.400 249.701, 124.165 264.007 C 123.006 271.428, 121.346 283.350, 120.477 290.500 C 119.608 297.650, 117.357 313.175, 115.474 325 C 113.591 336.825, 111.437 350.550, 110.687 355.500 L 109.323 364.500 108.546 354.799 C 107.537 342.195, 108.308 327.670, 110.844 311.500 C 116.343 276.447, 118.866 258.879, 119.318 252.500 L 119.814 245.500 118.487 252.500 C 117.758 256.350, 116.194 265.800, 115.013 273.500 C 113.832 281.200, 112.260 290.425, 111.519 294 C 110.779 297.575, 109.860 303.425, 109.476 307 C 109.092 310.575, 108.362 314.175, 107.854 315 C 106.871 316.597, 106.914 313.261, 109.091 218.822 C 110.129 173.763, 110.149 156.954, 109.187 136.822 C 108.521 122.895, 107.497 91.710, 106.911 67.523 C 106.325 43.335, 105.440 22.860, 104.945 22.023 C 103.807 20.099, 104.643 62.849, 106.565 104.879 C 108.241 141.520, 108.353 183.256, 106.900 229.500 C 106.330 247.650, 105.484 280.500, 105.021 302.500 C 104.213 340.856, 104.038 343.404, 100.766 364.500 C 96.822 389.933, 97.243 390.716, 94.044 352 C 91.314 318.962, 90.593 307.788, 90.543 297.753 C 90.520 292.942, 90.260 289.004, 89.967 289.003 C 89.674 289.001, 89.520 281.913, 89.625 273.250 C 89.882 251.889, 86.947 194.613, 85.521 193.188 C 83.892 191.559, 83.865 196.543, 85.372 220.731 C 86.289 235.454, 86.980 252.900, 86.907 259.500 L 86.776 271.500 85.451 260.500 C 84.722 254.450, 83.150 240.950, 81.956 230.500 C 79.801 211.622, 77.332 194.642, 70.617 152.500 C 67.309 131.747, 62.830 95.691, 62.603 88 C 62.546 86.075, 62.224 84.275, 61.887 84 C 61.549 83.725, 60.795 80.350, 60.210 76.500 L 59.146 69.500 59.626 77 C 59.890 81.125, 60.733 89.450, 61.500 95.500 C 62.266 101.550, 63.179 109.650, 63.528 113.500 C 64.752 126.987, 64.729 126.832, 71.013 165.500 C 78.383 210.854, 82.707 250.173, 80.151 248.593 C 78.931 247.839, 78.924 254.203, 80.143 255.673 C 80.705 256.350, 80.885 257.788, 80.542 258.868 C 80.199 259.948, 80.382 261.118, 80.948 261.468 C 81.560 261.846, 81.736 261.475, 81.382 260.552 C 81.054 259.698, 81.221 259, 81.754 259 C 82.787 259, 84.042 267.216, 83.892 273 C 83.807 276.244, 83.739 276.317, 82.961 274 C 82.424 272.401, 82.324 273.662, 82.685 277.500 C 82.995 280.800, 83.369 285.975, 83.517 289 C 83.861 296.063, 84.960 308.648, 85.567 312.469 C 85.846 314.229, 85.677 315.043, 85.151 314.469 C 84.664 313.936, 83.706 307.875, 83.023 301 C 81.911 289.807, 78.552 268.515, 73.084 238 C 72.049 232.225, 69.795 221.650, 68.074 214.500 C 66.354 207.350, 64.717 200.375, 64.437 199 C 63.418 193.999, 58.741 179.224, 54.466 167.500 C 45.614 143.224, 36.777 117.445, 36.640 115.500 C 36.563 114.400, 36.166 113.250, 35.757 112.945 C 35.348 112.640, 32.134 104.315, 28.614 94.445 C 22.945 78.549, 19.823 70.785, 12.856 55.250 C 11.808 52.913, 10.756 51, 10.519 51 C 9.896 51, 12.352 57.626, 15.337 64 C 19.601 73.106, 25.489 89.013, 36.434 121 C 39.188 129.048, 40.680 133.241, 44.973 145 C 50.929 161.314, 58.986 186.083, 61.886 197 C 69.450 225.467, 80.265 287.663, 81.449 309.500 C 82.042 320.448, 81.500 319.034, 79.533 304.500 C 71.796 247.331, 69.537 236.496, 58.893 205.500 C 55.493 195.600, 51.835 184.800, 50.764 181.500 C 49.694 178.200, 48.225 174.150, 47.502 172.500 C 46.778 170.850, 43.878 162.627, 41.057 154.226 C 38.236 145.826, 34.369 135.532, 32.464 131.351 C 30.559 127.171, 29 123.169, 29 122.458 C 29 121.748, 28.599 121.017, 28.110 120.833 C 27.620 120.650, 24.641 113.975, 21.489 106 C 13.984 87.013, 8.166 74.016, 3.582 66 C -1.465 57.175, 0.001 61.682, 6.953 76.366 C 15.479 94.376, 26 120.382, 26 123.448 C 26 124.210, 26.363 124.983, 26.806 125.167 C 27.249 125.350, 29.464 130, 31.729 135.500 C 36.521 147.139, 36.066 145.909, 41.539 162 C 43.878 168.875, 47.867 180.350, 50.404 187.500 C 52.941 194.650, 54.802 201.063, 54.540 201.750 C 54.277 202.438, 54.436 203, 54.892 203 C 56.889 203, 63.864 227.309, 63.266 232.184 C 62.939 234.845, 63.087 235.204, 64.013 234 C 64.928 232.812, 65.047 233.228, 64.586 236 C 64.197 238.333, 64.312 239.019, 64.929 238.058 C 65.557 237.080, 65.819 238.285, 65.743 241.808 C 65.634 246.895, 64 249.418, 64 244.500 C 64 243.125, 63.503 242, 62.895 242 C 61.067 242, 62.853 252.642, 66.565 263.864 C 68.874 270.845, 69 272.481, 69.006 295.364 C 69.012 317.802, 70.239 360.583, 71.476 381.500 C 71.769 386.450, 72.458 399.950, 73.008 411.500 C 73.558 423.050, 74.209 435.200, 74.455 438.500 L 74.901 444.500 73.987 438.500 C 71.327 421.046, 68.911 382.379, 67.441 333.707 C 67.062 321.171, 66.501 311.166, 66.193 311.473 C 64.396 313.270, 66.948 391.864, 69.977 428 C 70.725 436.923, 70.738 439.956, 70.029 439.518 C 69.565 439.231, 69.424 439.905, 69.714 441.014 C 70.004 442.124, 70.648 443.283, 71.145 443.590 C 71.642 443.897, 71.821 446.478, 71.543 449.324 C 71.222 452.599, 71.326 453.582, 71.825 452 L 72.613 449.500 73.269 451.964 C 73.670 453.470, 73.453 454.720, 72.712 455.177 C 71.354 456.015, 70.813 459.715, 71.715 462 C 72.040 462.825, 72.394 465.075, 72.500 467 C 73.517 485.362, 74.422 495, 75.130 495 C 75.596 495, 75.905 496.012, 75.816 497.250 C 75.726 498.488, 76.005 500.569, 76.434 501.875 C 77.026 503.678, 76.906 504.060, 75.937 503.461 C 74.992 502.877, 74.858 503.170, 75.419 504.586 C 75.837 505.639, 76.391 507.615, 76.650 508.977 C 76.909 510.340, 77.278 511.611, 77.469 511.803 C 77.661 511.994, 77.437 513.475, 76.973 515.095 C 76.466 516.862, 76.496 517.811, 77.049 517.470 C 77.583 517.139, 77.705 518.224, 77.340 520.052 C 76.907 522.217, 77.146 523.479, 78.105 524.086 C 79.154 524.750, 79.181 524.973, 78.215 524.985 C 77.193 524.997, 77.176 525.460, 78.131 527.245 C 79.677 530.133, 80.530 554.172, 79.010 552 C 78.433 551.175, 78.006 548.025, 78.062 545 C 78.287 532.836, 77.966 528, 76.933 528 C 76.182 528, 75.960 552.574, 76.183 610.750 C 76.357 656.263, 76.385 691.700, 76.243 689.500 C 75.789 682.421, 74.944 678.916, 73.854 679.590 C 73.241 679.969, 73.044 681.948, 73.377 684.368 C 73.689 686.641, 74.195 695.025, 74.500 703 C 74.806 710.975, 75.259 719.525, 75.506 722 C 76.242 729.355, 76.237 745.347, 75.498 747.500 C 74.945 749.112, 75.021 749.209, 75.890 748 C 76.791 746.748, 76.972 746.862, 76.985 748.691 C 76.993 749.896, 76.532 751.171, 75.959 751.525 C 75.387 751.879, 75.141 752.918, 75.412 753.834 C 75.684 754.750, 76.150 760.973, 76.448 767.663 C 76.747 774.353, 77.617 782.903, 78.382 786.663 C 79.147 790.423, 79.796 795.066, 79.826 796.980 C 79.855 798.894, 80.331 800.610, 80.883 800.794 C 81.436 800.979, 81.640 801.775, 81.337 802.565 C 81.034 803.354, 81.213 804, 81.735 804 C 82.872 804, 85.317 811.678, 84.567 812.891 C 84.278 813.359, 84.947 814.786, 86.054 816.063 C 87.161 817.339, 87.841 818.972, 87.565 819.692 C 87.289 820.411, 87.493 821, 88.020 821 C 88.546 821, 89.263 822.792, 89.613 824.982 C 89.963 827.172, 90.602 828.746, 91.032 828.480 C 91.462 828.215, 91.560 828.968, 91.249 830.155 C 90.870 831.605, 91.055 832.084, 91.813 831.615 C 92.507 831.187, 93.204 831.992, 93.625 833.709 C 94 835.244, 94.580 836.725, 94.913 837 C 96.080 837.964, 101.087 846.099, 102.014 848.538 C 102.529 849.892, 103.438 851, 104.034 851 C 104.630 851, 104.854 851.427, 104.531 851.950 C 104.208 852.472, 104.840 853.379, 105.935 853.965 C 107.110 854.594, 107.692 855.639, 107.356 856.515 C 107.042 857.332, 107.186 858, 107.676 858 C 108.165 858, 108.656 860.083, 108.766 862.628 C 108.877 865.174, 109.480 867.874, 110.106 868.628 C 110.733 869.383, 110.999 870, 110.698 870 C 109.951 870, 113.540 874.238, 119.250 880.099 C 121.863 882.780, 124 885.380, 124 885.877 C 124 886.374, 126.935 887.817, 130.522 889.083 C 136.722 891.272, 137.227 891.699, 140.772 897.759 C 145.743 906.257, 147.800 910.152, 148.400 912.198 C 149.057 914.440, 156.675 916.500, 159.999 915.334 C 162.193 914.564, 162.525 913.816, 162.705 909.246 C 162.818 906.381, 163.426 903.072, 164.057 901.893 C 166.285 897.731, 172.323 890.395, 180.979 881.334 C 190.263 871.615, 194.503 865.198, 195.616 859.182 C 196.003 857.090, 198.284 852.961, 200.899 849.619 C 207.080 841.718, 211.966 834.686, 211.985 833.663 C 211.993 833.203, 213.331 830.953, 214.957 828.663 C 216.584 826.374, 218.112 823.375, 218.353 822 C 218.776 819.590, 228.118 798.066, 230.071 795 C 230.597 794.175, 232.412 790.638, 234.105 787.140 C 235.798 783.642, 238.492 778.717, 240.092 776.194 C 241.691 773.672, 243 771.220, 243 770.745 C 243 769.305, 240.939 771.053, 239.931 773.347 C 238.237 777.205, 232.858 786.426, 230.401 789.683 C 229.080 791.434, 228 793.306, 228 793.844 C 228 795.139, 222.767 803.100, 222.253 802.586 C 222.033 802.366, 222.503 800.907, 223.298 799.343 C 224.175 797.619, 224.443 795.713, 223.980 794.500 L 223.215 792.500 222.419 794.500 C 221.490 796.836, 218.852 799.027, 217.772 798.359 C 217.360 798.104, 217.702 796.858, 218.534 795.589 C 219.365 794.320, 219.809 792.656, 219.520 791.891 C 219.231 791.126, 220.571 787.376, 222.498 783.557 C 224.424 779.739, 226 776.026, 226 775.307 C 226 774.588, 226.394 774, 226.875 774 C 227.356 774, 228.036 772.570, 228.386 770.822 C 228.735 769.074, 231.214 763.112, 233.895 757.572 C 246.013 732.528, 248.233 727.667, 253.572 714.500 C 262.610 692.209, 267.784 677.562, 272.118 662 C 281.475 628.402, 286.331 610.743, 289.579 598.500 C 291.477 591.350, 293.697 583.311, 294.514 580.635 C 295.331 577.960, 296 575.297, 296 574.718 C 296 570.697, 293.069 580.356, 279.982 627.500 C 274.944 645.650, 268.866 666.800, 266.477 674.500 C 259.289 697.656, 236.767 750, 233.990 750 C 233.445 750, 233 750.689, 233 751.532 C 233 753.851, 230.063 760.396, 229.344 759.678 C 228.998 759.332, 229.170 758.475, 229.727 757.774 C 230.284 757.073, 231.040 754.700, 231.407 752.500 C 231.885 749.633, 231.785 748.925, 231.052 750 C 230.490 750.825, 230.024 751.013, 230.015 750.417 C 230.007 749.821, 230.299 749.034, 230.665 748.668 C 231.031 748.302, 231.471 746.990, 231.643 745.752 C 232.153 742.083, 232.559 740.703, 234.323 736.628 C 235.245 734.498, 236 732.316, 236 731.779 C 236 731.242, 237.408 729.488, 239.128 727.881 C 241.931 725.262, 242.339 724.129, 243.061 716.966 C 243.505 712.570, 244.572 707.560, 245.434 705.833 C 247.173 702.345, 247.492 699, 246.083 699 C 245.579 699, 244.963 699.563, 244.713 700.250 C 244.464 700.938, 244.405 697.588, 244.581 692.806 C 244.812 686.569, 245.470 682.999, 246.910 680.177 C 248.014 678.013, 249.119 675.175, 249.366 673.871 C 249.614 672.567, 250.268 670.337, 250.820 668.917 C 251.578 666.965, 251.512 666.333, 250.549 666.333 C 249.849 666.333, 248.485 668.530, 247.520 671.215 C 246.554 673.901, 245.607 675.940, 245.415 675.748 C 245.223 675.557, 250.874 657.872, 257.973 636.450 C 276.732 579.838, 288.035 539.371, 291.478 516.500 C 292.223 511.550, 293.532 504.492, 294.387 500.816 C 296.069 493.581, 297.122 487.404, 300.017 467.805 C 301.048 460.823, 302.591 453.757, 303.446 452.105 C 305.152 448.806, 305.543 446.612, 304 449 C 302.200 451.786, 302.869 447.483, 307.940 423.685 C 310.658 410.933, 315.408 388.652, 318.497 374.171 C 321.587 359.690, 323.956 347.369, 323.763 346.790 C 323.570 346.211, 322.202 351.309, 320.722 358.119 C 319.242 364.928, 315.822 380.625, 313.121 393 C 304.636 431.884, 303.945 435.192, 301.512 448.500 C 300.205 455.650, 298.161 464.200, 296.970 467.500 C 294.894 473.247, 292.097 491.994, 292.031 500.593 C 292.014 502.845, 291.143 507.177, 290.096 510.220 C 289.049 513.264, 286.326 522.447, 284.046 530.627 C 276.547 557.521, 252.580 624.181, 256.407 607.500 C 256.785 605.850, 257.329 603.712, 257.615 602.750 C 257.901 601.787, 257.654 601, 257.067 601 C 256.480 601, 255.997 602.013, 255.994 603.250 C 255.990 604.487, 255.318 606.784, 254.499 608.354 C 253.680 609.924, 253.241 611.580, 253.522 612.035 C 253.803 612.490, 253.605 613.126, 253.082 613.449 C 252.516 613.799, 252.297 612.312, 252.541 609.768 C 253.164 603.282, 255.082 596, 256.167 596 C 256.699 596, 256.832 596.953, 256.462 598.118 C 255.973 599.659, 256.160 600.102, 257.145 599.743 C 257.890 599.472, 258.388 598.744, 258.250 598.125 C 258.113 597.506, 258.488 597, 259.083 597 C 259.679 597, 259.969 596.437, 259.728 595.750 C 259.487 595.063, 259.855 592.588, 260.546 590.252 C 261.238 587.915, 261.389 586.259, 260.883 586.572 C 260.360 586.895, 260.155 585.600, 260.406 583.570 C 260.821 580.226, 259.796 578.732, 258.658 581.025 C 258.379 581.589, 258.264 581.476, 258.403 580.775 C 258.543 580.074, 259.634 579.356, 260.828 579.180 C 262.023 579.005, 263 578.390, 263 577.814 C 263 577.238, 262.074 577.009, 260.943 577.305 C 259.465 577.691, 259.147 577.513, 259.815 576.671 C 260.326 576.027, 261.064 572.137, 261.455 568.026 C 261.845 563.915, 262.342 558.965, 262.559 557.026 C 262.775 555.087, 263.174 550.575, 263.446 547 C 263.717 543.425, 264.878 535.325, 266.026 529 C 269.590 509.350, 270.866 500.887, 271.982 489.500 C 273.608 472.914, 273.824 470.341, 274.505 459.500 C 274.851 454, 275.555 446.735, 276.069 443.356 C 277.727 432.467, 280.161 324.997, 278.750 324.999 C 278.337 325, 277.991 329.837, 277.980 335.750 C 277.956 348.761, 276.151 408.075, 275.188 427.500 L 274.493 441.500 273.255 415.500 C 272.573 401.200, 271.743 377.125, 271.409 362 C 271.076 346.875, 270.630 333.150, 270.418 331.500 C 270.207 329.850, 269.701 308.925, 269.294 285 C 268.846 258.664, 268.285 244.262, 267.874 248.500 C 267.014 257.364, 267.666 313.046, 268.946 340 C 269.481 351.275, 269.930 369.050, 269.944 379.500 C 269.957 389.950, 270.513 411.440, 271.178 427.256 C 272.543 459.674, 272.163 464.725, 266.501 489.500 C 265.621 493.350, 262.893 512.025, 260.438 531 C 255.977 565.490, 254.609 572.972, 247.070 604.100 C 241.965 625.179, 234.986 645.319, 233.353 643.686 C 233.078 643.411, 233.557 641.823, 234.419 640.157 C 235.861 637.368, 235.848 636.991, 234.252 635.394 C 233.255 634.398, 232.965 633.512, 233.570 633.310 C 234.205 633.098, 234.552 629.901, 234.446 625.230 C 234.350 620.978, 234.548 618.808, 234.886 620.407 C 235.224 622.007, 235.594 611.500, 235.710 597.059 C 235.861 578.064, 236.258 570.394, 237.145 569.325 C 238.124 568.145, 238.082 567.664, 236.936 566.939 C 235.989 566.340, 235.915 566.025, 236.719 566.015 C 237.389 566.007, 237.678 565.325, 237.362 564.500 C 237.045 563.675, 237.284 563, 237.893 563 C 238.502 563, 239 562.325, 239 561.500 C 239 560.675, 238.550 560, 238 560 C 235.534 560, 238.153 531.278, 242.052 515.574 C 244.152 507.112, 245.675 503.860, 244.427 510.500 C 244.013 512.700, 243.673 515.737, 243.671 517.250 C 243.669 518.763, 243.334 520, 242.927 520 C 242.520 520, 242.423 520.902, 242.711 522.004 C 243 523.106, 242.679 526.144, 242 528.754 C 238.697 541.438, 236.643 559.923, 238.981 555.927 C 239.487 555.062, 239.752 553.037, 239.569 551.427 C 239.387 549.817, 239.566 548.050, 239.969 547.500 C 241.286 545.700, 243.252 534.217, 242.462 532.939 C 241.964 532.132, 242.099 531.943, 242.845 532.405 C 243.549 532.839, 244.032 532.411, 244.081 531.309 C 244.173 529.274, 244.296 528.145, 245.811 515.500 C 246.405 510.550, 246.912 501.100, 246.940 494.500 C 246.986 483.242, 247.210 477.649, 248.561 454 C 249.381 439.644, 250.081 434.977, 252.130 430.196 C 254.308 425.116, 254.327 425, 252.968 425 C 252.400 425, 251.529 426.012, 251.031 427.250 C 250.349 428.948, 250.114 427.905, 250.073 423 C 250.033 418.072, 250.629 415.191, 252.539 411.088 C 255.538 404.646, 255.237 402.049, 252.065 407 L 249.823 410.500 250.410 385 C 250.733 370.975, 251.441 352.750, 251.984 344.500 C 253.036 328.507, 254.855 282.048, 255.175 263 L 255.368 251.500 266.434 229.626 C 279.567 203.665, 279.483 203.816, 280.392 204.725 C 280.785 205.118, 280.817 204.686, 280.463 203.765 C 279.697 201.767, 283.895 193.817, 285.268 194.666 C 285.830 195.013, 285.924 194.337, 285.500 193 C 284.969 191.326, 285.109 190.949, 286.047 191.529 C 286.830 192.013, 287.059 191.904, 286.650 191.243 C 286.032 190.242, 292.525 176.098, 294.111 174.990 C 294.513 174.709, 295.150 173.250, 295.527 171.747 C 295.905 170.244, 296.626 169.269, 297.131 169.581 C 297.636 169.893, 297.955 169.778, 297.839 169.324 C 297.532 168.121, 300.621 161.342, 302.995 158.007 C 304.122 156.425, 304.943 154.763, 304.819 154.315 C 304.564 153.386, 316.629 128.999, 318.061 127.550 C 318.578 127.027, 318.985 125.902, 318.967 125.050 C 318.881 121.076, 312.802 132.386, 285.127 188 C 258.903 240.698, 255.482 247.079, 255.203 243.821 C 255.030 241.797, 255.594 236.847, 256.458 232.821 C 258.726 222.243, 260.780 211.178, 261.437 206 C 261.750 203.525, 262.236 200.150, 262.516 198.500 C 263.173 194.632, 264.684 169.820, 266.414 134.500 C 267.347 115.443, 267.526 100.591, 266.975 88 C 264.301 26.965, 263.716 16.414, 262.960 15.611 C 261.635 14.205, 261.888 33.616, 263.492 56.500 C 265.918 91.103, 265.713 140.778, 263.061 161.047 C 262.525 165.146, 261.820 174.350, 261.494 181.500 C 261.169 188.650, 260.233 198.100, 259.415 202.500 C 258.597 206.900, 257.682 212.025, 257.380 213.890 C 255.897 223.062, 255.123 220.593, 255.063 206.500 C 254.905 169.369, 251.801 121.334, 249.418 119.140 C 248.720 118.497, 249.067 123.996, 250.893 142.500 C 253.362 167.524, 253.831 230.966, 251.628 242 L 250.331 248.500 249.628 232.500 C 248.656 210.390, 247.216 187.599, 245.522 167.500 C 244.734 158.150, 243.840 139.025, 243.536 125 C 242.952 98.008, 242.646 91.183, 240.981 68 C 237.704 22.358, 236 6.424, 236 21.411 C 236 26.865, 236.733 37.035, 238.997 63 C 240.089 75.523, 240.691 89.885, 241.509 123 C 242.105 147.108, 242.856 163.478, 243.509 166.567 C 244.569 171.581, 247.059 227.331, 247.026 245.307 L 246.990 265.114 243.397 272.807 C 241.421 277.038, 238.794 282.750, 237.558 285.500 C 236.323 288.250, 234.804 291.625, 234.183 293 L 233.053 295.500 233.529 293 C 236.463 277.577, 237.748 233.904, 236.117 205 C 234.280 172.447, 230.805 136.703, 226.004 101 C 225.449 96.875, 224.306 80.900, 223.464 65.500 C 222.621 50.100, 221.501 33.675, 220.974 29 C 220.447 24.325, 219.981 17.800, 219.938 14.500 C 219.895 11.200, 219.446 7.600, 218.940 6.500 C 218.079 4.629, 218.348 18.295, 219.490 34.500 C 219.851 39.621, 219.790 39.914, 219.071 36.500 C 218.608 34.300, 217.686 28.939, 217.022 24.587 C 213.880 3.993, 213.519 16.241, 216.582 39.500 C 218.603 54.850, 220.351 73.681, 222.615 104.500 C 222.858 107.800, 223.544 114.775, 224.139 120 C 224.735 125.225, 225.379 137.375, 225.571 147 C 225.763 156.625, 226.169 169, 226.473 174.500 C 227.382 190.918, 227.058 272.643, 226.030 286.056 C 225.506 292.900, 224.577 305.025, 223.966 313 C 222.477 332.427, 220.322 351.019, 219.464 351.836 C 219.080 352.201, 219.091 350.925, 219.489 349 C 220.069 346.186, 219.962 345.738, 218.941 346.715 C 217.329 348.256, 216.351 360.519, 217.917 359.551 C 218.582 359.140, 219 359.828, 219 361.334 C 219 362.683, 218.325 364.045, 217.500 364.362 C 216.675 364.678, 216.045 365.964, 216.100 367.219 C 216.197 369.454, 216.217 369.449, 217.086 367 C 217.697 365.275, 217.821 366.482, 217.486 370.897 C 217.219 374.415, 217 378.127, 217 379.147 C 217 380.166, 216.502 381, 215.893 381 C 215.257 381, 215.067 380.268, 215.446 379.280 C 215.809 378.335, 215.751 377.916, 215.317 378.349 C 214.884 378.783, 214.460 380.515, 214.375 382.199 C 214.266 384.363, 214.491 384.856, 215.141 383.880 C 215.743 382.977, 215.830 383.537, 215.392 385.500 C 215.025 387.150, 214.299 389.041, 213.779 389.702 C 213.260 390.363, 213.162 391.935, 213.562 393.194 C 214.176 395.130, 214.061 395.296, 212.821 394.266 C 211.571 393.229, 211.420 393.528, 211.802 396.274 C 212.049 398.048, 212.671 400.028, 213.185 400.674 C 214.298 402.074, 212.360 410.147, 210.655 411.208 C 209.817 411.730, 209.844 412.244, 210.758 413.158 C 211.441 413.841, 211.993 415.323, 211.985 416.450 C 211.972 418.108, 211.791 418.218, 211.036 417.024 C 210.389 416.001, 210.119 417.073, 210.155 420.524 C 210.183 423.261, 209.293 428.200, 208.178 431.500 C 206.333 436.956, 206.185 437.138, 206.551 433.500 C 206.772 431.300, 207.650 420.500, 208.501 409.500 C 209.353 398.500, 210.722 382.075, 211.544 373 C 212.366 363.925, 213.249 354.025, 213.506 351 C 213.764 347.975, 214.632 338.975, 215.435 331 C 216.822 317.224, 218.531 298.002, 219.436 286 C 221.552 257.918, 222.084 152.088, 220.230 128 C 219.532 118.925, 218.518 104.300, 217.978 95.500 C 217.438 86.700, 216.575 73.875, 216.060 67 C 215.546 60.125, 214.877 48.875, 214.574 42 C 214.271 35.125, 213.621 28.150, 213.128 26.500 C 212.029 22.814, 212.688 53.001, 214.023 67.500 C 214.530 73, 215.421 85.150, 216.005 94.500 C 216.588 103.850, 217.500 117.594, 218.032 125.042 C 218.563 132.490, 219.007 162.902, 219.018 192.623 C 219.042 258.606, 217.480 296.449, 213.493 326.500 C 212.690 332.550, 211.144 347.175, 210.057 359 C 208.970 370.825, 207.390 387.700, 206.546 396.500 C 205.702 405.300, 204.578 420.375, 204.048 430 C 203.242 444.627, 202.645 448.813, 200.412 455.500 C 197.202 465.111, 196.097 466.659, 196.603 460.837 C 196.810 458.452, 197.662 448.175, 198.497 438 C 200.676 411.436, 201.919 397.415, 203.506 381.500 C 205.253 363.990, 206.780 341.838, 207.540 323 C 208.308 303.961, 210.661 277.517, 212.480 267.500 C 215.771 249.376, 216.359 233.302, 214.669 207.653 C 213.794 194.369, 212.825 173.375, 212.516 161 C 212.207 148.625, 211.524 132.875, 210.999 126 C 209.032 100.240, 207.084 80.753, 206.414 80.137 C 205.779 79.552, 206.479 92.444, 207.467 99.500 C 207.962 103.039, 209.829 140.507, 210.506 160.500 C 211.676 195.017, 212.113 204.390, 213.176 217.771 C 214.363 232.713, 213.579 245.948, 210.468 263.500 C 208.480 274.713, 207.243 288.218, 206.024 312 C 204.658 338.655, 202.329 366.936, 198.037 409 C 197.504 414.225, 196.804 422.550, 196.482 427.500 C 196.159 432.450, 195.655 437.474, 195.361 438.664 C 195.067 439.853, 194.494 448.853, 194.088 458.664 C 193.424 474.705, 193.006 477.707, 189.925 488.500 L 186.500 500.500 186.500 530.155 C 186.500 546.465, 186.162 559.601, 185.750 559.346 C 185.338 559.091, 185.007 559.921, 185.015 561.191 C 185.028 563.098, 185.216 563.239, 186.096 562 C 186.889 560.884, 186.957 561.268, 186.364 563.500 C 185.925 565.150, 185.668 569.425, 185.793 573 C 185.918 576.575, 185.307 582.650, 184.436 586.500 C 183.565 590.350, 182.706 594.625, 182.528 596 C 181.339 605.165, 180.583 608.802, 179.412 611 L 178.080 613.500 178.040 610.554 C 178.018 608.933, 176.818 605.902, 175.373 603.817 C 172.621 599.846, 169.093 585.532, 169.255 579 C 169.303 577.075, 169.013 573.363, 168.610 570.750 C 168.125 567.607, 168.236 566, 168.939 566 C 169.522 566, 169.968 564.987, 169.930 563.750 C 169.862 561.587, 169.823 561.577, 168.913 563.500 C 168.288 564.821, 168.137 561.427, 168.468 553.500 C 169.729 523.286, 169.915 511.590, 169.058 516.500 C 167.765 523.904, 166.081 563.906, 166.552 576 C 166.777 581.775, 166.688 587.372, 166.354 588.437 C 165.763 590.320, 165.709 590.322, 164.384 588.510 C 162.268 585.616, 162.062 586.915, 163.393 594.752 C 164.070 598.739, 164.451 602, 164.241 602 C 164.030 602, 163.222 601.365, 162.446 600.589 C 161.671 599.813, 160.495 598.998, 159.835 598.778 C 159.047 598.516, 158.518 595.131, 158.296 588.939 C 158.110 583.748, 157.513 571.400, 156.970 561.500 C 155.668 537.745, 155.600 509.615, 156.832 504 C 157.375 501.525, 158.563 488.700, 159.473 475.500 C 160.383 462.300, 162.262 439.614, 163.649 425.088 C 165.036 410.561, 166.020 396.541, 165.836 393.932 C 165.650 391.303, 165.899 389.436, 166.396 389.743 C 166.901 390.056, 166.991 389.101, 166.603 387.553 C 166.172 385.837, 166.398 384.222, 167.207 383.242 C 168.232 382, 168.240 381.587, 167.250 381.254 C 165.758 380.752, 165.581 377.377, 167 376.500 C 167.550 376.160, 168 375.432, 168 374.882 C 168 374.332, 167.627 374.112, 167.172 374.394 C 166.121 375.043, 166.952 364.071, 168.124 361.816 C 169.205 359.738, 169.277 356.711, 168.231 357.357 C 167.471 357.827, 169.872 324.875, 171.865 307.500 C 172.433 302.550, 173.794 290.625, 174.890 281 C 177.089 261.693, 178.606 225.211, 177.073 228.500 C 176.560 229.600, 176.097 237.025, 176.043 245 C 175.937 260.803, 175.356 267.604, 171.602 297 C 170.232 307.725, 168.162 327.525, 167.001 341 C 165.841 354.475, 164.239 372.700, 163.443 381.500 C 162.646 390.300, 161.313 405.150, 160.480 414.500 C 159.648 423.850, 158.076 440.950, 156.988 452.500 C 155.900 464.050, 154.554 479.575, 153.998 487 C 152.592 505.772, 152.229 557.888, 153.500 558.422 C 154.050 558.653, 153.882 558.878, 153.128 558.921 C 152.128 558.979, 152.044 559.348, 152.816 560.278 C 154.438 562.233, 154.376 613.957, 152.750 615.583 C 151.421 616.913, 151.053 615.536, 150.373 606.687 C 150.005 601.909, 149.282 598, 148.765 598 C 148.246 598, 148.074 599.680, 148.381 601.750 C 150.176 613.835, 150.083 618.455, 147.997 620.892 C 146.871 622.207, 145.811 623.107, 145.642 622.892 C 145.030 622.114, 142.002 596.301, 142.070 592.448 C 142.126 589.327, 142.321 588.919, 143 590.500 C 143.832 592.437, 143.862 592.431, 143.930 590.333 C 143.968 589.142, 143.443 587.981, 142.762 587.754 C 141.785 587.428, 141.780 586.779, 142.735 584.682 C 143.986 581.937, 143.456 578.600, 141.920 579.549 C 141.441 579.845, 141.320 577.930, 141.651 575.294 C 142.908 565.269, 141.812 499.161, 139.393 439 C 138.961 428.275, 138.584 411.400, 138.554 401.500 C 138.522 390.711, 138.099 383.212, 137.500 382.781 C 136.838 382.305, 136.862 381.458, 137.569 380.281 C 138.158 379.301, 138.753 372.596, 138.893 365.381 C 139.033 358.165, 139.306 350.965, 139.501 349.381 C 139.695 347.796, 140.124 340.425, 140.455 333 C 140.785 325.575, 141.257 315.900, 141.504 311.500 C 143.287 279.673, 143.660 262.511, 143.133 236.495 C 142.847 222.349, 144.082 213.115, 151.564 173.434 C 152.401 168.998, 153.500 161.573, 154.006 156.934 C 154.513 152.295, 155.391 144.675, 155.956 140 C 156.522 135.325, 156.939 129.925, 156.883 128 C 156.785 124.632, 156.748 124.669, 155.902 128.985 C 155.419 131.452, 154.581 137.527, 154.039 142.485 C 152.478 156.761, 150.349 170.324, 147.129 186.500 C 145.487 194.750, 143.571 204.650, 142.872 208.500 L 141.601 215.500 140.830 210.500 C 140.406 207.750, 139.870 201.149, 139.638 195.830 C 139.407 190.512, 138.989 185.787, 138.709 185.330 C 138.430 184.874, 137.688 180.265, 137.061 175.090 C 136.433 169.914, 135.611 165.189, 135.233 164.590 C 134.855 163.990, 134.225 142.800, 133.833 117.500 C 133.180 75.331, 131.938 52.030, 129.064 28 C 127.560 15.426, 124.751 -0, 123.965 -0 C 123.587 -0, 123.432 1.012, 123.621 2.250 M 154.158 23 C 154.158 24.375, 154.385 24.938, 154.662 24.250 C 154.940 23.563, 154.940 22.438, 154.662 21.750 C 154.385 21.063, 154.158 21.625, 154.158 23 M 154.133 31.500 C 154.076 34.800, 154.697 47.175, 155.513 59 C 156.330 70.825, 156.977 90.116, 156.952 101.870 C 156.926 113.623, 157.152 123.485, 157.453 123.786 C 157.754 124.087, 158.005 111.771, 158.012 96.417 C 158.023 69.220, 156.677 39.078, 155.045 30 L 154.236 25.500 154.133 31.500 M 58.252 65.500 C 58.263 67.700, 58.468 68.482, 58.707 67.238 C 58.946 65.994, 58.937 64.194, 58.687 63.238 C 58.437 62.282, 58.241 63.300, 58.252 65.500 M 121.079 139.583 C 121.127 140.748, 121.364 140.985, 121.683 140.188 C 121.972 139.466, 121.936 138.603, 121.604 138.271 C 121.272 137.939, 121.036 138.529, 121.079 139.583 M 228.252 141.500 C 228.263 143.700, 228.468 144.482, 228.707 143.238 C 228.946 141.994, 228.937 140.194, 228.687 139.238 C 228.437 138.282, 228.241 139.300, 228.252 141.500 M 121.079 146.583 C 121.127 147.748, 121.364 147.985, 121.683 147.188 C 121.972 146.466, 121.936 145.603, 121.604 145.271 C 121.272 144.939, 121.036 145.529, 121.079 146.583 M 228.826 150.227 C 228.510 152.827, 228.639 161.827, 229.113 170.227 C 229.969 185.393, 230.325 264.793, 229.548 267.228 C 229.325 267.928, 228.870 275.250, 228.536 283.500 C 228.203 291.750, 227.235 305.626, 226.384 314.335 C 225.533 323.044, 225.014 330.347, 225.230 330.564 C 226.138 331.471, 233.152 277.138, 234.146 261.500 C 235.685 237.293, 234.035 188.654, 230.583 156.500 C 229.539 146.775, 229.335 146.048, 228.826 150.227 M 121 151.559 C 121 152.416, 121.457 152.835, 122.016 152.490 C 122.575 152.144, 122.774 151.443, 122.457 150.931 C 121.600 149.544, 121 149.802, 121 151.559 M 272.564 219.707 C 272.022 221.132, 272.136 221.247, 273.124 220.267 C 273.808 219.588, 274.115 218.781, 273.807 218.474 C 273.499 218.166, 272.940 218.721, 272.564 219.707 M 266.787 234 C 266.545 235.650, 266.718 237, 267.173 237 C 267.628 237, 268 235.650, 268 234 C 268 232.350, 267.826 231, 267.613 231 C 267.401 231, 267.029 232.350, 266.787 234 M 78.079 233.583 C 78.127 234.748, 78.364 234.985, 78.683 234.188 C 78.972 233.466, 78.936 232.603, 78.604 232.271 C 78.272 231.939, 78.036 232.529, 78.079 233.583 M 79.232 242 C 79.232 243.925, 79.438 244.713, 79.689 243.750 C 79.941 242.787, 79.941 241.213, 79.689 240.250 C 79.438 239.287, 79.232 240.075, 79.232 242 M 67.158 243 C 67.158 244.375, 67.385 244.938, 67.662 244.250 C 67.940 243.563, 67.940 242.438, 67.662 241.750 C 67.385 241.063, 67.158 241.625, 67.158 243 M 81.158 252 C 81.158 253.375, 81.385 253.938, 81.662 253.250 C 81.940 252.563, 81.940 251.438, 81.662 250.750 C 81.385 250.063, 81.158 250.625, 81.158 252 M 252.158 252 C 252.158 253.375, 252.385 253.938, 252.662 253.250 C 252.940 252.563, 252.940 251.438, 252.662 250.750 C 252.385 250.063, 252.158 250.625, 252.158 252 M 139.320 259 C 139.320 262.575, 139.502 264.038, 139.723 262.250 C 139.945 260.462, 139.945 257.538, 139.723 255.750 C 139.502 253.963, 139.320 255.425, 139.320 259 M 251.720 259.332 C 250.606 262.165, 250.788 263.612, 252.094 262.306 C 252.695 261.705, 253.020 260.377, 252.814 259.356 C 252.454 257.566, 252.415 257.565, 251.720 259.332 M 134.490 268.250 C 133.482 274.492, 129.059 296.941, 128.036 301 C 127.552 302.925, 126.923 306.300, 126.639 308.500 C 126.356 310.700, 125.664 315.425, 125.102 319 C 124.216 324.631, 123.776 328.636, 122.565 342.077 C 122.437 343.494, 122.059 345.096, 121.724 345.638 C 121.389 346.179, 121.270 348.282, 121.458 350.311 C 121.647 352.340, 121.497 354, 121.125 354 C 120.753 354, 120.473 356.363, 120.502 359.250 C 120.531 362.137, 120.231 365.757, 119.835 367.293 C 119.439 368.829, 118.626 378.279, 118.029 388.293 C 117.432 398.307, 116.493 411.345, 115.942 417.266 C 115.009 427.305, 115.215 430.134, 118.995 459.207 C 122.785 488.350, 124.006 495.481, 123.996 488.417 C 123.979 475.696, 130.465 374.275, 132.497 355.500 C 133.270 348.350, 134.406 325.400, 135.021 304.500 C 135.636 283.600, 136.319 265.938, 136.538 265.250 C 136.758 264.563, 136.541 264, 136.057 264 C 135.572 264, 134.867 265.913, 134.490 268.250 M 81.015 266.750 C 81.007 267.988, 81.450 269, 82 269 C 83.253 269, 83.253 267.939, 82 266 C 81.216 264.787, 81.028 264.931, 81.015 266.750 M 139.079 267.583 C 139.127 268.748, 139.364 268.985, 139.683 268.188 C 139.972 267.466, 139.936 266.603, 139.604 266.271 C 139.272 265.939, 139.036 266.529, 139.079 267.583 M 251.144 268.536 C 249.490 272.154, 248.283 297.316, 249.875 295.022 C 251.615 292.513, 253.180 280.877, 252.832 273.036 C 252.513 265.858, 252.448 265.686, 251.144 268.536 M 139.079 272.583 C 139.127 273.748, 139.364 273.985, 139.683 273.188 C 139.972 272.466, 139.936 271.603, 139.604 271.271 C 139.272 270.939, 139.036 271.529, 139.079 272.583 M 240.676 284.064 C 238.023 290.109, 236.016 295.549, 236.218 296.153 C 236.419 296.756, 237.429 295.281, 238.462 292.875 C 239.495 290.469, 241.633 285.615, 243.212 282.089 C 244.792 278.563, 245.953 275.092, 245.792 274.376 C 245.632 273.660, 243.329 278.020, 240.676 284.064 M 72.079 275.583 C 72.127 276.748, 72.364 276.985, 72.683 276.188 C 72.972 275.466, 72.936 274.603, 72.604 274.271 C 72.272 273.939, 72.036 274.529, 72.079 275.583 M 84.195 279.500 C 84.215 281.150, 84.439 281.704, 84.693 280.731 C 84.947 279.758, 84.930 278.408, 84.656 277.731 C 84.382 277.054, 84.175 277.850, 84.195 279.500 M 73.195 282.500 C 73.215 284.150, 73.439 284.704, 73.693 283.731 C 73.947 282.758, 73.930 281.408, 73.656 280.731 C 73.382 280.054, 73.175 280.850, 73.195 282.500 M 122.202 290.533 C 121.496 296.565, 120.481 304.200, 119.947 307.500 C 119.413 310.800, 118.308 318.225, 117.491 324 C 115.928 335.049, 113.298 352.113, 112.637 355.500 C 111.022 363.770, 109.878 375.559, 110.161 381 L 110.500 387.500 111.762 379 C 112.457 374.325, 113.512 366.675, 114.106 362 C 114.701 357.325, 116.028 349, 117.054 343.500 C 119.374 331.069, 121.500 314.597, 123.055 297 C 124.537 280.231, 123.938 275.693, 122.202 290.533 M 138.196 289.500 C 138.073 294.450, 137.723 299.625, 137.418 301 C 136.949 303.111, 137.034 303.231, 137.968 301.774 C 138.646 300.715, 138.946 296.267, 138.746 290.274 L 138.419 280.500 138.196 289.500 M 85.286 287.500 C 85.294 290.250, 85.488 291.256, 85.718 289.736 C 85.947 288.216, 85.941 285.966, 85.704 284.736 C 85.467 283.506, 85.279 284.750, 85.286 287.500 M 240.677 293.144 L 236.987 301.253 238.462 310.418 C 239.273 315.460, 240.046 321.022, 240.180 322.780 C 240.332 324.770, 240.778 325.622, 241.361 325.039 C 242.106 324.294, 245.146 286.146, 244.531 285.267 C 244.441 285.139, 242.707 288.683, 240.677 293.144 M 70.526 300.250 C 70.707 304.238, 71.121 316.500, 71.446 327.500 C 72.087 349.204, 72.861 368.031, 73.500 377.500 C 73.722 380.800, 74.184 390.475, 74.526 399 C 74.869 407.525, 75.314 415.031, 75.516 415.679 C 75.718 416.328, 76.152 425.328, 76.481 435.679 C 76.809 446.031, 77.487 459.900, 77.987 466.500 C 78.488 473.100, 79.164 482.775, 79.491 488 C 79.818 493.225, 80.784 505.150, 81.638 514.500 C 83.156 531.122, 84.535 537.347, 84.804 528.785 C 84.877 526.428, 85.455 514.277, 86.088 501.782 C 86.733 489.052, 86.886 476.522, 86.436 473.282 C 85.995 470.102, 85.659 466.038, 85.690 464.250 C 85.721 462.462, 85.466 460.999, 85.123 460.997 C 84.780 460.995, 84.494 455.803, 84.487 449.460 C 84.476 439.884, 84.689 438.222, 85.745 439.666 C 86.812 441.126, 86.913 440.607, 86.368 436.453 C 85.593 430.546, 85 429.435, 85 433.892 C 85 435.666, 84.597 436.869, 84.104 436.564 C 83.582 436.242, 83.572 434.443, 84.080 432.255 C 84.560 430.190, 84.918 426.700, 84.876 424.500 C 84.811 421.035, 84.694 420.834, 84 423 C 83.560 424.375, 83.148 424.825, 83.086 424 C 83.024 423.175, 82.683 421.417, 82.329 420.094 C 81.877 418.406, 82.031 417.901, 82.842 418.403 C 83.479 418.796, 84 418.730, 84 418.256 C 84 413.001, 78.732 346.144, 78.002 342.134 C 77.465 339.183, 77.252 336.402, 77.529 335.953 C 77.806 335.505, 77.688 334.925, 77.266 334.664 C 76.845 334.403, 76.500 332.234, 76.500 329.845 C 76.500 327.455, 76.164 325.249, 75.753 324.943 C 75.132 324.479, 74.139 317.206, 73.679 309.750 C 73.620 308.788, 73.201 308, 72.748 308 C 72.295 308, 72.011 306.988, 72.118 305.750 C 72.554 300.677, 71.940 293, 71.099 293 C 70.603 293, 70.346 296.262, 70.526 300.250 M 85.079 294.583 C 85.127 295.748, 85.364 295.985, 85.683 295.188 C 85.972 294.466, 85.936 293.603, 85.604 293.271 C 85.272 292.939, 85.036 293.529, 85.079 294.583 M 232.698 299.500 C 232.356 301.150, 230.470 313.300, 228.507 326.500 C 226.544 339.700, 224.270 354.775, 223.453 360 C 221.795 370.609, 217.966 398.930, 218.061 399.885 C 218.095 400.223, 219.694 395.325, 221.615 389 C 223.536 382.675, 226.256 373.900, 227.661 369.500 C 229.065 365.100, 230.279 360.305, 230.357 358.845 C 230.436 357.386, 230.768 356.357, 231.096 356.559 C 231.424 356.762, 232.499 354.132, 233.485 350.714 C 234.471 347.296, 236.089 341.677, 237.082 338.226 C 238.075 334.775, 238.462 332.214, 237.943 332.535 C 237.424 332.856, 237 332.003, 237 330.641 C 237 327.533, 236.015 324.873, 235.078 325.452 C 234.687 325.694, 234.259 322.008, 234.128 317.262 C 233.997 312.515, 233.669 308.274, 233.399 307.837 C 233.129 307.399, 233.392 306.136, 233.984 305.029 C 234.673 303.742, 234.747 301.841, 234.191 299.758 L 233.320 296.500 232.698 299.500 M 249.721 304.750 C 247.348 313.596, 244.743 328.077, 245.406 328.740 C 245.733 329.066, 246 328.583, 246 327.667 C 246 324.767, 247.809 325.865, 248.607 329.250 L 249.373 332.500 250.092 327.834 C 251.029 321.747, 252.315 299, 251.722 299 C 251.470 299, 250.569 301.587, 249.721 304.750 M 66.232 307 C 66.232 308.925, 66.438 309.712, 66.689 308.750 C 66.941 307.788, 66.941 306.212, 66.689 305.250 C 66.438 304.288, 66.232 305.075, 66.232 307 M 137.195 306.500 C 137.215 308.150, 137.439 308.704, 137.693 307.731 C 137.947 306.758, 137.930 305.408, 137.656 304.731 C 137.382 304.054, 137.175 304.850, 137.195 306.500 M 278.232 320 C 278.232 321.925, 278.438 322.712, 278.689 321.750 C 278.941 320.788, 278.941 319.212, 278.689 318.250 C 278.438 317.288, 278.232 318.075, 278.232 320 M 82.079 320.583 C 82.127 321.748, 82.364 321.985, 82.683 321.188 C 82.972 320.466, 82.936 319.603, 82.604 319.271 C 82.272 318.939, 82.036 319.529, 82.079 320.583 M 80.079 328.583 C 80.127 329.748, 80.364 329.985, 80.683 329.188 C 80.972 328.466, 80.936 327.603, 80.604 327.271 C 80.272 326.939, 80.036 327.529, 80.079 328.583 M 89.158 334 C 89.158 335.375, 89.385 335.938, 89.662 335.250 C 89.940 334.563, 89.940 333.438, 89.662 332.750 C 89.385 332.063, 89.158 332.625, 89.158 334 M 224.195 334.500 C 224.215 336.150, 224.439 336.704, 224.693 335.731 C 224.947 334.758, 224.930 333.408, 224.656 332.731 C 224.382 332.054, 224.175 332.850, 224.195 334.500 M 233 333 C 233 333.550, 233.477 334, 234.059 334 C 234.641 334, 234.840 333.550, 234.500 333 C 234.160 332.450, 233.684 332, 233.441 332 C 233.198 332, 233 332.450, 233 333 M 248.042 342.268 C 247.312 345.146, 246.323 347.755, 245.844 348.068 C 245.354 348.387, 245.484 354.193, 246.140 361.330 C 246.783 368.312, 247.425 373.907, 247.567 373.763 C 248.067 373.255, 250.256 337.923, 249.815 337.482 C 249.570 337.236, 248.772 339.390, 248.042 342.268 M 109.232 341 C 109.232 342.925, 109.438 343.712, 109.689 342.750 C 109.941 341.788, 109.941 340.212, 109.689 339.250 C 109.438 338.288, 109.232 339.075, 109.232 341 M 244.272 342 C 244.272 344.475, 244.467 345.488, 244.706 344.250 C 244.944 343.012, 244.944 340.988, 244.706 339.750 C 244.467 338.512, 244.272 339.525, 244.272 342 M 235.152 352.675 C 232.935 359.729, 230.213 368.650, 229.103 372.500 C 222.911 393.973, 218.720 408.180, 217.008 413.500 C 215.946 416.800, 214.781 423.338, 214.419 428.028 C 213.865 435.208, 214.017 436.769, 215.380 437.901 C 216.796 439.076, 216.998 438.946, 216.985 436.872 C 216.972 434.917, 216.781 434.764, 215.898 436 C 215.058 437.176, 214.950 436.960, 215.400 435 C 215.715 433.625, 215.979 432.114, 215.986 431.643 C 215.994 431.172, 216.563 431, 217.250 431.263 C 218.080 431.579, 218.522 430.674, 218.567 428.568 C 218.603 426.824, 219.003 424.521, 219.456 423.449 C 220.322 421.396, 220.556 420.494, 221.588 415.250 C 221.939 413.462, 222.681 412, 223.236 412 C 223.866 412, 223.829 411.499, 223.138 410.667 C 222.302 409.659, 222.388 409.333, 223.491 409.333 C 224.395 409.333, 224.879 410.194, 224.763 411.595 C 224.660 412.838, 224.152 413.594, 223.633 413.273 C 223.115 412.953, 222.989 413.173, 223.353 413.762 C 223.717 414.350, 223.562 416.021, 223.010 417.473 C 222.449 418.948, 222.412 419.864, 222.925 419.546 C 225.350 418.047, 233.044 385.701, 235.899 365 C 236.468 360.875, 237.604 353.693, 238.423 349.039 C 239.242 344.386, 239.748 340.414, 239.547 340.214 C 239.347 340.014, 237.369 345.621, 235.152 352.675 M 324.158 343 C 324.158 344.375, 324.385 344.938, 324.662 344.250 C 324.940 343.563, 324.940 342.438, 324.662 341.750 C 324.385 341.063, 324.158 341.625, 324.158 343 M 103.700 357.500 C 102.711 364.100, 100.982 375.575, 99.859 383 C 98.474 392.159, 98.021 398.590, 98.449 403 C 98.796 406.575, 99.336 416.025, 99.649 424 C 100.243 439.134, 101.941 445.746, 102.077 433.450 C 102.119 429.628, 102.282 425.825, 102.440 425 C 102.597 424.175, 103.031 419.225, 103.404 414 C 103.776 408.775, 104.753 399.550, 105.575 393.500 C 106.737 384.943, 106.894 378.391, 106.284 364 L 105.500 345.500 103.700 357.500 M 218.667 353.667 C 218.300 354.033, 218 354.798, 218 355.367 C 218 355.993, 218.466 355.934, 219.183 355.217 C 219.834 354.566, 220.134 353.801, 219.850 353.517 C 219.566 353.233, 219.033 353.300, 218.667 353.667 M 238.195 365.500 C 238.215 367.150, 238.439 367.704, 238.693 366.731 C 238.947 365.758, 238.930 364.408, 238.656 363.731 C 238.382 363.054, 238.175 363.850, 238.195 365.500 M 237.232 372 C 237.232 373.925, 237.438 374.712, 237.689 373.750 C 237.941 372.788, 237.941 371.212, 237.689 370.250 C 237.438 369.288, 237.232 370.075, 237.232 372 M 242.353 377.762 C 242.717 378.350, 242.537 380.087, 241.954 381.621 C 241.065 383.958, 239.737 391.444, 238.603 400.500 C 237.834 406.642, 235.500 410.475, 235.500 405.595 C 235.500 404.273, 235.772 403.359, 236.106 403.565 C 236.439 403.771, 236.482 402.742, 236.202 401.278 C 234.529 392.525, 221.292 451.383, 220.521 471 C 220.424 473.475, 219.970 476.400, 219.513 477.500 C 219.056 478.600, 218.982 479.233, 219.350 478.907 C 220.932 477.505, 227.710 460.070, 226.793 459.764 C 226.172 459.557, 226.573 456.740, 227.831 452.464 L 229.879 445.500 229.471 450.586 C 229.247 453.383, 228.758 456.533, 228.385 457.586 C 227.884 458.997, 228.009 459.223, 228.858 458.444 C 229.493 457.864, 231.771 453.139, 233.922 447.944 C 236.073 442.750, 239.672 434.252, 241.921 429.060 L 246.009 419.619 245.841 398.560 C 245.749 386.977, 245.350 378.850, 244.955 380.500 C 244.237 383.499, 244.237 383.499, 244.118 380.809 C 244.053 379.329, 243.480 377.797, 242.845 377.405 C 242.162 376.982, 241.961 377.128, 242.353 377.762 M 92 380.059 C 92 381.191, 92.430 381.852, 92.956 381.527 C 93.482 381.202, 93.659 380.275, 93.349 379.468 C 92.556 377.401, 92 377.644, 92 380.059 M 84.131 388.583 C 84.203 391.837, 84.615 397.875, 85.047 402 C 85.656 407.815, 85.735 406.594, 85.400 396.567 C 85.162 389.453, 84.749 383.416, 84.483 383.150 C 84.218 382.884, 84.059 385.329, 84.131 388.583 M 93.621 390.170 C 93.891 393.585, 94.559 397.081, 95.104 397.939 C 95.897 399.187, 95.983 399.082, 95.534 397.417 C 95.224 396.272, 94.919 393, 94.855 390.145 C 94.790 387.291, 94.376 384.732, 93.933 384.459 C 93.491 384.185, 93.350 386.755, 93.621 390.170 M 90.755 398 C 91.080 402.675, 91.295 407.288, 91.235 408.250 C 91.174 409.212, 91.577 410, 92.130 410 C 92.699 410, 92.843 410.920, 92.460 412.125 C 92.006 413.555, 92.148 414.027, 92.893 413.566 C 94.128 412.803, 94.425 409, 93.250 409 C 92.838 409, 92.523 407.313, 92.551 405.250 C 92.580 403.188, 92.055 398.800, 91.384 395.500 L 90.166 389.500 90.755 398 M 224.600 392.600 C 224.244 393.527, 224.178 394.511, 224.453 394.786 C 224.728 395.061, 225.244 394.527, 225.600 393.600 C 225.956 392.673, 226.022 391.689, 225.747 391.414 C 225.472 391.139, 224.956 391.673, 224.600 392.600 M 164.195 396.500 C 164.215 398.150, 164.439 398.704, 164.693 397.731 C 164.947 396.758, 164.930 395.408, 164.656 394.731 C 164.382 394.054, 164.175 394.850, 164.195 396.500 M 107.195 397.500 C 107.215 399.150, 107.439 399.704, 107.693 398.731 C 107.947 397.758, 107.930 396.408, 107.656 395.731 C 107.382 395.054, 107.175 395.850, 107.195 397.500 M 225 398.500 C 225 399.325, 225.436 400, 225.969 400 C 226.501 400, 226.678 399.325, 226.362 398.500 C 226.045 397.675, 225.609 397, 225.393 397 C 225.177 397, 225 397.675, 225 398.500 M 211.564 402.707 C 211.022 404.132, 211.136 404.247, 212.124 403.267 C 212.808 402.588, 213.115 401.781, 212.807 401.474 C 212.499 401.166, 211.940 401.721, 211.564 402.707 M 224 402.059 C 224 402.641, 224.450 402.840, 225 402.500 C 225.550 402.160, 226 401.684, 226 401.441 C 226 401.198, 225.550 401, 225 401 C 224.450 401, 224 401.477, 224 402.059 M 163.232 407 C 163.232 408.925, 163.438 409.712, 163.689 408.750 C 163.941 407.788, 163.941 406.212, 163.689 405.250 C 163.438 404.288, 163.232 405.075, 163.232 407 M 105.626 415.805 C 105.159 421.473, 105.012 426.345, 105.300 426.634 C 106.088 427.421, 107.208 415.143, 106.818 410 C 106.579 406.857, 106.220 408.609, 105.626 415.805 M 133.909 413.752 C 133.656 418.855, 133.882 422.010, 134.500 422.018 C 135.072 422.025, 135.025 422.345, 134.392 422.765 C 133.759 423.185, 132.969 428.643, 132.548 435.500 C 131.747 448.571, 131.598 450.287, 130.680 457 C 129.700 464.169, 128.871 475.626, 128.472 487.500 C 128.269 493.550, 127.818 504.575, 127.471 512 C 127.043 521.144, 127.327 530.340, 128.350 540.500 C 130.021 557.100, 130.943 575.276, 131.191 596.500 C 131.281 604.200, 131.633 609.375, 131.973 608 C 132.312 606.625, 132.445 599.987, 132.268 593.250 C 132.074 585.885, 132.327 581, 132.903 581 C 133.430 581, 134.068 579.987, 134.322 578.750 C 134.575 577.513, 134.776 578.300, 134.767 580.500 C 134.759 582.700, 135.145 585.484, 135.626 586.687 C 136.153 588.006, 136.520 575.900, 136.550 556.187 C 136.578 538.209, 136.712 506.579, 136.849 485.898 C 137.054 454.990, 135.878 413.651, 134.605 407 C 134.447 406.175, 134.134 409.214, 133.909 413.752 M 224 407 C 224 407.550, 224.450 408, 225 408 C 225.550 408, 226 407.550, 226 407 C 226 406.450, 225.550 406, 225 406 C 224.450 406, 224 406.450, 224 407 M 162 419 C 162 421.200, 162.178 423, 162.395 423 C 162.612 423, 162.962 421.200, 163.171 419 C 163.381 416.800, 163.203 415, 162.776 415 C 162.349 415, 162 416.800, 162 419 M 233.212 420.753 C 233.258 422.380, 233.024 424.152, 232.692 424.690 C 232.359 425.228, 231.830 427.205, 231.517 429.084 C 231.203 430.963, 230.508 434.945, 229.973 437.934 C 228.783 444.581, 228.777 445, 229.875 445 C 230.356 445, 230.750 443.988, 230.750 442.750 C 230.750 441.512, 231.467 438.389, 232.343 435.810 C 233.923 431.157, 234.840 419.506, 233.714 418.381 C 233.392 418.058, 233.166 419.126, 233.212 420.753 M 94.669 425.250 C 95.536 429.807, 96 429.952, 96 425.667 C 96 423.650, 95.561 422, 95.025 422 C 94.465 422, 94.313 423.383, 94.669 425.250 M 238.034 444.250 C 230.790 461.162, 225.717 473.219, 223.913 477.807 C 223.362 479.209, 223.368 479.891, 223.927 479.545 C 224.434 479.232, 225.015 479.769, 225.218 480.738 C 225.445 481.822, 227.013 479.485, 229.294 474.661 C 231.332 470.349, 233 466.593, 233 466.313 C 233 466.034, 235.652 460.336, 238.893 453.653 C 243.977 443.171, 244.857 440.503, 245.296 434.250 C 245.576 430.262, 245.719 427, 245.614 427 C 245.508 427, 242.097 434.762, 238.034 444.250 M 207.197 442.744 C 206.578 444.810, 205.852 451, 205.581 456.500 C 205.114 466.021, 205.136 466.165, 206.039 459.500 C 206.560 455.650, 207.423 449.596, 207.957 446.046 C 209.077 438.587, 208.800 437.384, 207.197 442.744 M 213.622 443.141 C 212.860 446.950, 212.830 448.504, 213.531 447.802 C 214.631 446.702, 215.819 441.006, 215.048 440.530 C 214.606 440.256, 213.964 441.431, 213.622 443.141 M 101.158 443 C 101.158 444.375, 101.385 444.938, 101.662 444.250 C 101.940 443.563, 101.940 442.438, 101.662 441.750 C 101.385 441.063, 101.158 441.625, 101.158 443 M 218.670 450.747 C 215.550 465.332, 213.855 475.065, 214.236 476.208 C 214.445 476.836, 216.091 469.809, 217.892 460.592 C 221.180 443.772, 221.776 436.229, 218.670 450.747 M 305.624 444.539 C 304.659 447.053, 304.943 447.702, 306.122 445.675 C 306.706 444.671, 306.973 443.639, 306.715 443.382 C 306.458 443.124, 305.966 443.645, 305.624 444.539 M 93.158 447 C 93.158 448.375, 93.385 448.938, 93.662 448.250 C 93.940 447.563, 93.940 446.438, 93.662 445.750 C 93.385 445.063, 93.158 445.625, 93.158 447 M 102.079 447.583 C 102.127 448.748, 102.364 448.985, 102.683 448.188 C 102.972 447.466, 102.936 446.603, 102.604 446.271 C 102.272 445.939, 102.036 446.529, 102.079 447.583 M 107.337 448.640 C 106.461 451.019, 106.462 452.085, 107.340 453.037 C 108.228 453.998, 108.206 454.128, 107.250 453.588 C 106.483 453.155, 106 453.484, 106 454.441 C 106 455.298, 106.450 456, 107 456 C 107.550 456, 108 456.477, 108 457.059 C 108 457.641, 107.479 457.796, 106.842 457.403 C 106.044 456.909, 105.866 457.380, 106.270 458.923 C 106.707 460.597, 106.493 461.019, 105.415 460.606 C 104.353 460.198, 104.105 460.637, 104.468 462.277 C 104.739 463.499, 105.451 468.100, 106.049 472.500 C 106.648 476.900, 107.725 483.650, 108.443 487.500 L 109.748 494.500 109.782 479.500 C 109.801 471.250, 109.519 460.225, 109.155 455 C 108.549 446.298, 108.396 445.764, 107.337 448.640 M 244.168 447.909 C 244.076 448.683, 242.468 452.508, 240.596 456.409 C 238.723 460.309, 236.415 465.750, 235.465 468.500 C 234.516 471.250, 232.898 474.903, 231.870 476.618 C 230.841 478.333, 230 480.470, 230 481.368 C 230 482.266, 229.599 483, 229.108 483 C 228.618 483, 227.914 484.207, 227.544 485.683 C 227.173 487.158, 225.976 490.196, 224.884 492.433 C 222.545 497.221, 220.083 506.554, 219.384 513.279 C 218.962 517.334, 219.364 518.893, 222.034 523.560 C 224.329 527.570, 225.144 530.204, 225.043 533.280 C 224.803 540.583, 224.796 542.339, 224.981 548.749 C 225.081 552.185, 224.482 557.135, 223.652 559.749 C 222.531 563.277, 221.986 571.685, 221.534 592.406 C 221.199 607.754, 220.688 620.695, 220.398 621.165 C 220.108 621.635, 219.660 628.877, 219.403 637.259 C 218.952 651.967, 218.993 652.378, 220.577 649 C 221.793 646.407, 222.442 640.578, 223.085 626.500 C 226.171 558.931, 228.126 540.642, 236.503 501 C 242.762 471.381, 245.296 455.793, 244.735 450.363 C 244.516 448.238, 244.261 447.134, 244.168 447.909 M 114.498 457.500 C 114.698 462.450, 115.109 467.175, 115.412 468 C 115.715 468.825, 116.138 471.525, 116.352 474 C 116.916 480.524, 119.938 504.572, 121.001 511 C 121.826 515.991, 121.865 515.760, 121.417 508.500 C 120.762 497.857, 118.269 475.963, 115.985 460.788 L 114.136 448.500 114.498 457.500 M 93 452.441 C 93 453.784, 93.369 455.110, 93.819 455.388 C 94.270 455.667, 94.443 454.568, 94.206 452.947 C 93.681 449.373, 93 449.087, 93 452.441 M 199.899 464.526 C 197.351 472.642, 197.326 472.994, 198.690 481.656 C 199.456 486.520, 200.121 491.521, 200.167 492.768 C 200.212 494.016, 200.596 495.250, 201.019 495.512 C 201.854 496.028, 203.402 465.789, 202.843 459.870 C 202.527 456.526, 202.294 456.895, 199.899 464.526 M 73.728 464 C 74.030 468.125, 74.439 471.688, 74.638 471.917 C 75.392 472.784, 74.821 460.409, 74.020 458.500 C 73.524 457.318, 73.405 459.568, 73.728 464 M 94.150 467.250 C 94.031 470.217, 94.365 470.997, 95.750 470.985 C 96.886 470.975, 97.093 470.710, 96.340 470.231 C 95.702 469.826, 94.982 468.145, 94.740 466.497 C 94.341 463.779, 94.286 463.849, 94.150 467.250 M 158.195 466.500 C 158.215 468.150, 158.439 468.704, 158.693 467.731 C 158.947 466.758, 158.930 465.408, 158.656 464.731 C 158.382 464.054, 158.175 464.850, 158.195 466.500 M 221.158 469 C 221.158 470.375, 221.385 470.938, 221.662 470.250 C 221.940 469.563, 221.940 468.438, 221.662 467.750 C 221.385 467.063, 221.158 467.625, 221.158 469 M 296.183 475.195 C 294.762 483.801, 293.665 494.610, 294.274 494 C 295.007 493.266, 298.249 469.916, 297.695 469.362 C 297.436 469.103, 296.756 471.728, 296.183 475.195 M 95.158 474 C 95.158 475.375, 95.385 475.938, 95.662 475.250 C 95.940 474.563, 95.940 473.438, 95.662 472.750 C 95.385 472.063, 95.158 472.625, 95.158 474 M 242.594 482.305 C 241.577 487.912, 239.231 499.250, 237.379 507.500 C 233.893 523.036, 230.565 544.227, 231.284 546.309 C 231.510 546.964, 232.263 543.546, 232.956 538.713 C 233.650 533.880, 234.841 529.302, 235.604 528.539 C 236.366 527.777, 237.149 525.386, 237.344 523.226 C 237.538 521.066, 238.030 518.760, 238.437 518.101 C 238.844 517.443, 238.918 516.227, 238.600 515.400 C 238.233 514.443, 238.435 514.151, 239.157 514.597 C 239.954 515.089, 240.087 514.484, 239.606 512.565 C 239.190 510.908, 239.297 510.066, 239.879 510.425 C 240.929 511.074, 242.558 505.225, 241.595 504.262 C 241.268 503.934, 241 504.615, 241 505.774 C 241 506.934, 240.550 508.160, 240 508.500 C 238.764 509.264, 238.737 509.578, 240.461 503.098 C 241.252 500.128, 241.868 497.428, 241.831 497.098 C 241.597 495.038, 242.157 493.979, 243.155 494.595 C 243.894 495.053, 244.037 494.868, 243.551 494.083 C 243.134 493.408, 243.363 488.386, 244.059 482.924 C 244.755 477.461, 245.126 472.793, 244.884 472.551 C 244.642 472.308, 243.611 476.698, 242.594 482.305 M 75.195 477.500 C 75.215 479.150, 75.439 479.704, 75.693 478.731 C 75.947 477.758, 75.930 476.408, 75.656 475.731 C 75.382 475.054, 75.175 475.850, 75.195 477.500 M 157.232 478 C 157.232 479.925, 157.438 480.712, 157.689 479.750 C 157.941 478.788, 157.941 477.212, 157.689 476.250 C 157.438 475.288, 157.232 476.075, 157.232 478 M 102.663 480.444 C 102.291 483.156, 102.383 485.627, 102.867 485.937 C 103.653 486.440, 104.411 490.188, 105.610 499.500 C 105.822 501.150, 106.624 506.775, 107.392 512 C 108.603 520.246, 108.802 520.811, 108.894 516.284 C 108.980 512.045, 104.773 480.167, 103.644 476.507 C 103.476 475.962, 103.034 477.733, 102.663 480.444 M 95.079 478.583 C 95.127 479.748, 95.364 479.985, 95.683 479.188 C 95.972 478.466, 95.936 477.603, 95.604 477.271 C 95.272 476.939, 95.036 477.529, 95.079 478.583 M 89.336 485 C 89.336 489.125, 89.513 490.813, 89.728 488.750 C 89.944 486.688, 89.944 483.313, 89.728 481.250 C 89.513 479.188, 89.336 480.875, 89.336 485 M 213.232 481 C 213.232 482.925, 213.438 483.712, 213.689 482.750 C 213.941 481.788, 213.941 480.212, 213.689 479.250 C 213.438 478.288, 213.232 479.075, 213.232 481 M 95.158 483 C 95.158 484.375, 95.385 484.938, 95.662 484.250 C 95.940 483.563, 95.940 482.438, 95.662 481.750 C 95.385 481.063, 95.158 481.625, 95.158 483 M 193.789 483 C 190.200 497.741, 189.006 507.068, 189.079 519.785 C 189.122 527.328, 189.297 533.050, 189.466 532.500 C 189.636 531.950, 190.351 528.800, 191.055 525.500 C 191.759 522.200, 192.765 518.938, 193.290 518.250 C 193.815 517.563, 193.985 517, 193.667 517 C 193.349 517, 193.727 515.192, 194.506 512.982 C 195.286 510.773, 195.639 508.224, 195.292 507.318 C 194.869 506.216, 195.046 505.911, 195.828 506.394 C 197.085 507.170, 196.625 492.370, 195.148 484.500 C 194.479 480.935, 194.332 480.772, 193.789 483 M 220.079 485.668 C 220.036 486.311, 219.741 487.661, 219.424 488.668 C 218.877 490.409, 218.906 490.412, 219.995 488.712 C 220.626 487.729, 220.920 486.379, 220.650 485.712 C 220.295 484.837, 220.136 484.825, 220.079 485.668 M 95.232 489 C 95.232 490.925, 95.438 491.712, 95.689 490.750 C 95.941 489.788, 95.941 488.212, 95.689 487.250 C 95.438 486.288, 95.232 487.075, 95.232 489 M 98.252 494.500 C 98.263 496.700, 98.468 497.482, 98.707 496.238 C 98.946 494.994, 98.937 493.194, 98.687 492.238 C 98.437 491.282, 98.241 492.300, 98.252 494.500 M 90.286 501.500 C 90.294 504.250, 90.488 505.256, 90.718 503.736 C 90.947 502.216, 90.941 499.966, 90.704 498.736 C 90.467 497.506, 90.279 498.750, 90.286 501.500 M 214.862 499.750 C 214.264 501.262, 213.582 504.525, 213.348 507 L 212.922 511.500 214.358 507.708 C 216.071 503.182, 217.320 497, 216.521 497 C 216.207 497, 215.461 498.238, 214.862 499.750 M 268.158 500 C 268.158 501.375, 268.385 501.938, 268.662 501.250 C 268.940 500.563, 268.940 499.438, 268.662 498.750 C 268.385 498.063, 268.158 498.625, 268.158 500 M 88.116 504.574 C 88.052 505.714, 87.509 514.939, 86.908 525.074 C 85.798 543.813, 86.415 561.533, 88.086 558.894 C 89.469 556.710, 89.208 549.003, 87.750 548.985 C 86.791 548.973, 86.780 548.792, 87.703 548.205 C 88.365 547.784, 89.095 545.654, 89.326 543.470 C 89.557 541.287, 89.547 540.288, 89.303 541.250 C 88.465 544.564, 87.167 542.994, 87.650 539.250 C 88.418 533.293, 89.234 506.390, 88.709 504.350 C 88.289 502.720, 88.218 502.746, 88.116 504.574 M 267.079 506.583 C 267.127 507.748, 267.364 507.985, 267.683 507.188 C 267.972 506.466, 267.936 505.603, 267.604 505.271 C 267.272 504.939, 267.036 505.529, 267.079 506.583 M 97.798 532.750 C 97.487 549.201, 98.345 571.006, 98.929 561.500 C 99.099 558.750, 99.154 556.074, 99.053 555.554 C 98.952 555.034, 98.908 546.147, 98.955 535.804 C 99.002 525.462, 98.828 517, 98.568 517 C 98.308 517, 97.962 524.087, 97.798 532.750 M 91.079 519.583 C 91.127 520.748, 91.364 520.985, 91.683 520.188 C 91.972 519.466, 91.936 518.603, 91.604 518.271 C 91.272 517.939, 91.036 518.529, 91.079 519.583 M 142.079 522.583 C 142.127 523.748, 142.364 523.985, 142.683 523.188 C 142.972 522.466, 142.936 521.603, 142.604 521.271 C 142.272 520.939, 142.036 521.529, 142.079 522.583 M 196 522.500 C 196 523.325, 195.523 524, 194.941 524 C 194.359 524, 194.141 524.419, 194.457 524.931 C 194.774 525.443, 194.590 526.135, 194.049 526.470 C 193.508 526.804, 193.314 528.523, 193.617 530.289 C 193.993 532.481, 193.866 533.072, 193.214 532.151 C 191.984 530.413, 190.592 537.138, 191.554 540.169 C 191.996 541.563, 191.849 542.025, 191.107 541.566 C 189.901 540.821, 189.528 552.636, 190.628 556.740 C 191.553 560.194, 200 534.140, 200 527.831 C 200 524.786, 199.615 523.120, 199 523.500 C 198.450 523.840, 198 523.416, 198 522.559 C 198 521.702, 197.550 521, 197 521 C 196.450 521, 196 521.675, 196 522.500 M 284.084 536.582 C 279.682 552.862, 268.816 585.052, 260.483 606.500 C 257.918 613.100, 255.423 620.419, 254.938 622.764 C 254.452 625.110, 253.570 627.936, 252.976 629.044 C 252.383 630.153, 251.717 632.284, 251.497 633.780 C 251.277 635.276, 250.903 637.400, 250.666 638.500 C 250.429 639.600, 249.918 642.525, 249.530 645 C 248.072 654.292, 245.806 662.998, 244.978 662.487 C 244.507 662.195, 244.133 662.754, 244.147 663.728 C 244.161 664.703, 243.842 666.625, 243.439 668 C 242.049 672.733, 243.833 669.484, 247.006 661.500 C 251.624 649.882, 271.207 590.869, 275.876 574.500 C 281.392 555.163, 289.218 523.153, 288.763 521.790 C 288.557 521.171, 286.451 527.828, 284.084 536.582 M 219.047 526 C 219.028 526.825, 219.480 529.188, 220.053 531.250 C 221.117 535.083, 223.034 536.403, 222.958 533.250 C 222.905 531.035, 219.097 523.974, 219.047 526 M 234.992 531.583 C 234.987 532.087, 234.482 536.550, 233.868 541.500 C 233.255 546.450, 232.641 551.625, 232.505 553 C 232.008 558.027, 231.747 558.441, 230.929 555.500 C 230.422 553.674, 230.271 557.331, 230.544 564.840 C 230.792 571.628, 231.286 577.703, 231.644 578.340 C 232.084 579.127, 231.951 579.178, 231.231 578.500 C 230.647 577.950, 229.968 576.375, 229.721 575 C 229.474 573.625, 229.211 575.736, 229.136 579.691 C 229.061 583.646, 229.410 587.135, 229.911 587.445 C 230.412 587.755, 230.659 591.269, 230.461 595.254 C 229.220 620.154, 228.733 625.549, 227.663 626.230 C 226.960 626.676, 226.915 626.975, 227.549 626.985 C 228.157 626.994, 228.427 628.468, 228.191 630.492 C 227.925 632.770, 227.386 633.746, 226.642 633.300 C 225.967 632.896, 226.023 633.262, 226.779 634.196 C 227.767 635.415, 227.815 636.863, 226.990 640.545 C 226.402 643.167, 226.015 648.505, 226.129 652.407 C 226.242 656.308, 225.994 660.625, 225.575 662 L 224.815 664.500 226.509 662.186 C 227.590 660.710, 228.058 658.626, 227.803 656.436 C 227.582 654.546, 227.695 653, 228.054 653 C 228.413 653, 229.018 647.938, 229.398 641.750 C 229.779 635.563, 230.281 628.025, 230.513 625 C 230.979 618.936, 232.603 587.083, 233.521 566 C 233.844 558.575, 234.530 547.809, 235.045 542.075 C 235.561 536.341, 235.761 531.428, 235.491 531.158 C 235.221 530.888, 234.996 531.079, 234.992 531.583 M 189.195 536.500 C 189.215 538.150, 189.439 538.704, 189.693 537.731 C 189.947 536.758, 189.930 535.408, 189.656 534.731 C 189.382 534.054, 189.175 534.850, 189.195 536.500 M 118.079 539.583 C 118.127 540.748, 118.364 540.985, 118.683 540.188 C 118.972 539.466, 118.936 538.603, 118.604 538.271 C 118.272 537.939, 118.036 538.529, 118.079 539.583 M 206.841 540.250 C 206.635 540.938, 206.739 543.975, 207.071 547 L 207.674 552.500 207.837 545.750 C 207.992 539.326, 207.662 537.502, 206.841 540.250 M 81.079 542.583 C 81.127 543.748, 81.364 543.985, 81.683 543.188 C 81.972 542.466, 81.936 541.603, 81.604 541.271 C 81.272 540.939, 81.036 541.529, 81.079 542.583 M 106 546.059 C 106 546.641, 106.450 546.840, 107 546.500 C 107.550 546.160, 108 545.684, 108 545.441 C 108 545.198, 107.550 545, 107 545 C 106.450 545, 106 545.477, 106 546.059 M 199 545.479 C 199 545.743, 197.650 550.630, 196 556.341 C 192.232 569.382, 192.269 571.122, 196.078 560 C 199.097 551.185, 200.533 545, 199.562 545 C 199.253 545, 199 545.216, 199 545.479 M 220.827 547.761 C 220.607 548.718, 220.694 551.075, 221.021 553 C 221.601 556.421, 221.625 556.390, 222.071 551.663 C 222.514 546.979, 221.639 544.234, 220.827 547.761 M 106.046 550.086 C 106.660 551.233, 107.361 551.972, 107.605 551.729 C 108.304 551.029, 106.886 548, 105.858 548 C 105.347 548, 105.432 548.938, 106.046 550.086 M 125.232 552 C 125.232 553.925, 125.438 554.712, 125.689 553.750 C 125.941 552.788, 125.941 551.212, 125.689 550.250 C 125.438 549.288, 125.232 550.075, 125.232 552 M 102.158 554 C 102.158 555.375, 102.385 555.938, 102.662 555.250 C 102.940 554.563, 102.940 553.438, 102.662 552.750 C 102.385 552.063, 102.158 552.625, 102.158 554 M 213.724 553 C 213.392 553.825, 213.206 557.725, 213.310 561.666 C 213.459 567.300, 213.233 568.610, 212.250 567.793 C 210.549 566.380, 210.727 568.055, 212.532 570.441 C 214.516 573.064, 214.412 574.888, 212.418 572.441 C 210.971 570.665, 210.886 570.656, 211.418 572.332 C 211.738 573.339, 212.007 574.914, 212.015 575.832 C 212.029 577.274, 212.162 577.297, 213 576 C 213.582 575.099, 213.975 574.975, 213.985 575.691 C 213.993 576.346, 213.550 577.160, 213 577.500 C 212.450 577.840, 212.007 578.879, 212.015 579.809 C 212.029 581.266, 212.165 581.293, 213 580 C 213.593 579.082, 213.975 578.966, 213.985 579.700 C 213.993 580.360, 213.213 581.365, 212.250 581.932 C 210.974 582.684, 210.824 583.179, 211.697 583.758 C 212.436 584.248, 212.565 585.086, 212.035 585.943 C 211.553 586.723, 211.566 588.358, 212.063 589.667 C 212.630 591.157, 212.585 592, 211.940 592 C 211.267 592, 211.274 592.643, 211.961 593.928 C 212.529 594.988, 212.807 596.450, 212.580 597.178 C 211.874 599.439, 210.919 613.414, 211.511 612.823 C 212.315 612.018, 215.063 581.283, 215.365 569.700 C 215.635 559.365, 214.758 550.434, 213.724 553 M 131.195 555.500 C 131.215 557.150, 131.439 557.704, 131.693 556.731 C 131.947 555.758, 131.930 554.408, 131.656 553.731 C 131.382 553.054, 131.175 553.850, 131.195 555.500 M 207.079 554.583 C 207.127 555.748, 207.364 555.985, 207.683 555.188 C 207.972 554.466, 207.936 553.603, 207.604 553.271 C 207.272 552.939, 207.036 553.529, 207.079 554.583 M 79 555.441 C 79 556.234, 79.408 557.134, 79.907 557.442 C 80.405 557.751, 80.578 557.102, 80.290 556.001 C 79.679 553.666, 79 553.371, 79 555.441 M 107 558.500 C 107 560.975, 106.564 563, 106.031 563 C 105.499 563, 105.350 562.251, 105.701 561.336 C 106.131 560.217, 105.957 559.909, 105.170 560.395 C 103.288 561.558, 103.824 564.721, 106 565.290 C 107.833 565.769, 108 565.320, 108 559.906 C 108 556.658, 107.775 554, 107.500 554 C 107.225 554, 107 556.025, 107 558.500 M 118.079 555.583 C 118.127 556.748, 118.364 556.985, 118.683 556.188 C 118.972 555.466, 118.936 554.603, 118.604 554.271 C 118.272 553.939, 118.036 554.529, 118.079 555.583 M 298.533 562.533 C 297.625 565.658, 297.092 568.425, 297.348 568.682 C 297.605 568.938, 298.558 566.592, 299.467 563.467 C 300.375 560.342, 300.908 557.575, 300.652 557.318 C 300.395 557.062, 299.442 559.408, 298.533 562.533 M 102.158 563 C 102.158 564.375, 102.385 564.938, 102.662 564.250 C 102.940 563.563, 102.940 562.438, 102.662 561.750 C 102.385 561.063, 102.158 561.625, 102.158 563 M 80.591 565.500 C 80.921 567.700, 81.373 569.688, 81.595 569.917 C 82.477 570.824, 81.906 564.404, 80.981 563 C 80.285 561.945, 80.170 562.688, 80.591 565.500 M 198 568.774 C 198 571.034, 197.550 573.160, 197 573.500 C 196.450 573.840, 196 574.811, 196 575.658 C 196 576.505, 195.239 578.802, 194.308 580.763 C 192.705 584.141, 192.735 585.670, 194.883 609.914 C 197.379 638.089, 197.931 641.503, 199.102 636.010 C 199.527 634.014, 199.427 632.014, 198.868 631.340 C 198.329 630.692, 197.903 627.988, 197.919 625.331 C 197.975 616.354, 197.364 606.398, 196.691 605.310 C 196.318 604.706, 196.934 603.989, 198.086 603.688 C 199.765 603.249, 199.960 602.794, 199.132 601.247 C 197.895 598.934, 196.425 588.217, 197.480 589.199 C 197.894 589.584, 198.598 591.384, 199.045 593.199 C 199.501 595.050, 199.611 589.693, 199.295 581 C 198.985 572.475, 198.567 565.313, 198.366 565.083 C 198.165 564.854, 198 566.515, 198 568.774 M 102.195 568.500 C 102.215 570.150, 102.439 570.704, 102.693 569.731 C 102.947 568.758, 102.930 567.408, 102.656 566.731 C 102.382 566.054, 102.175 566.850, 102.195 568.500 M 105.070 569.243 C 106.198 573.176, 106.200 573.242, 105.210 572.630 C 104.290 572.061, 104.234 578.019, 105.144 579.500 C 105.483 580.050, 105.619 581.737, 105.448 583.250 C 105.277 584.763, 105.523 586, 105.995 586 C 106.467 586, 107.051 586.788, 107.293 587.750 C 107.535 588.712, 107.750 584.325, 107.772 578 C 107.796 570.950, 107.488 567.274, 106.976 568.500 C 106.181 570.404, 106.137 570.392, 106.070 568.250 C 106.032 567.013, 105.581 566, 105.070 566 C 104.496 566, 104.496 567.243, 105.070 569.243 M 152.195 570.500 C 152.215 572.150, 152.439 572.704, 152.693 571.731 C 152.947 570.758, 152.930 569.408, 152.656 568.731 C 152.382 568.054, 152.175 568.850, 152.195 570.500 M 263 569.500 C 263 570.325, 263.177 571, 263.393 571 C 263.609 571, 264.045 570.325, 264.362 569.500 C 264.678 568.675, 264.501 568, 263.969 568 C 263.436 568, 263 568.675, 263 569.500 M 134.232 573 C 134.232 574.925, 134.438 575.712, 134.689 574.750 C 134.941 573.788, 134.941 572.212, 134.689 571.250 C 134.438 570.288, 134.232 571.075, 134.232 573 M 192.079 571.583 C 192.127 572.748, 192.364 572.985, 192.683 572.188 C 192.972 571.466, 192.936 570.603, 192.604 570.271 C 192.272 569.939, 192.036 570.529, 192.079 571.583 M 296.079 571.583 C 296.127 572.748, 296.364 572.985, 296.683 572.188 C 296.972 571.466, 296.936 570.603, 296.604 570.271 C 296.272 569.939, 296.036 570.529, 296.079 571.583 M 80.933 575.250 C 80.896 577.587, 80.710 582.425, 80.520 586 C 79.619 602.900, 79.310 622.067, 80.019 617 C 81.092 609.340, 82.456 571, 81.655 571 C 81.295 571, 80.970 572.913, 80.933 575.250 M 142.345 573.543 C 142.019 574.392, 141.976 575.310, 142.249 575.583 C 142.523 575.856, 142.986 575.161, 143.279 574.040 C 143.903 571.657, 143.210 571.289, 142.345 573.543 M 78 576.441 C 78 577.234, 78.408 578.134, 78.907 578.442 C 79.405 578.751, 79.578 578.102, 79.290 577.001 C 78.679 574.666, 78 574.371, 78 576.441 M 102.232 583 C 102.232 584.925, 102.438 585.712, 102.689 584.750 C 102.941 583.788, 102.941 582.212, 102.689 581.250 C 102.438 580.288, 102.232 581.075, 102.232 583 M 104.630 590.522 C 104.308 591.360, 104.581 594.365, 105.236 597.201 C 106.181 601.295, 106.167 602.444, 105.171 602.776 C 104.173 603.109, 104.181 603.520, 105.208 604.789 C 106.284 606.117, 106.265 606.242, 105.094 605.536 C 103.943 604.843, 103.805 605.398, 104.333 608.595 C 104.688 610.743, 104.990 614.075, 105.004 616 C 105.022 618.414, 105.304 619.068, 105.913 618.107 C 106.398 617.341, 106.856 611.732, 106.932 605.644 C 107.007 599.555, 107.289 593.432, 107.557 592.037 C 108.027 589.598, 108.008 589.587, 107.055 591.750 C 105.722 594.778, 104.630 594.612, 105.411 591.500 C 106.098 588.762, 105.562 588.092, 104.630 590.522 M 94.336 604 C 94.336 608.125, 94.513 609.813, 94.728 607.750 C 94.944 605.688, 94.944 602.313, 94.728 600.250 C 94.513 598.188, 94.336 599.875, 94.336 604 M 84.624 604.539 C 84.281 605.432, 84.046 607.139, 84.102 608.332 C 84.167 609.702, 84.507 609.215, 85.026 607.007 C 85.899 603.290, 85.662 601.833, 84.624 604.539 M 112 605 C 112 605.550, 112.477 606, 113.059 606 C 113.641 606, 113.840 605.550, 113.500 605 C 113.160 604.450, 112.684 604, 112.441 604 C 112.198 604, 112 604.450, 112 605 M 114.500 608 C 114.160 608.550, 114.359 609, 114.941 609 C 115.523 609, 116 608.550, 116 608 C 116 607.450, 115.802 607, 115.559 607 C 115.316 607, 114.840 607.450, 114.500 608 M 196.079 608.583 C 196.127 609.748, 196.364 609.985, 196.683 609.188 C 196.972 608.466, 196.936 607.603, 196.604 607.271 C 196.272 606.939, 196.036 607.529, 196.079 608.583 M 113.500 611 C 113.160 611.550, 113.359 612, 113.941 612 C 114.523 612, 115 611.550, 115 611 C 115 610.450, 114.802 610, 114.559 610 C 114.316 610, 113.840 610.450, 113.500 611 M 84.079 612.583 C 84.127 613.748, 84.364 613.985, 84.683 613.188 C 84.972 612.466, 84.936 611.603, 84.604 611.271 C 84.272 610.939, 84.036 611.529, 84.079 612.583 M 94.195 614.500 C 94.215 616.150, 94.439 616.704, 94.693 615.731 C 94.947 614.758, 94.930 613.408, 94.656 612.731 C 94.382 612.054, 94.175 612.850, 94.195 614.500 M 227.079 613.583 C 227.127 614.748, 227.364 614.985, 227.683 614.188 C 227.972 613.466, 227.936 612.603, 227.604 612.271 C 227.272 611.939, 227.036 612.529, 227.079 613.583 M 112.632 618.090 C 112.284 619.828, 112.072 624.906, 112.160 629.375 C 112.318 637.460, 112.323 637.446, 113.006 626.500 C 113.735 614.826, 113.653 612.986, 112.632 618.090 M 135 616.378 C 135 616.585, 135.787 617.373, 136.750 618.128 C 138.336 619.371, 138.371 619.336, 137.128 617.750 C 135.821 616.084, 135 615.555, 135 616.378 M 115.843 620.750 C 115.757 622.813, 115.631 625.625, 115.562 627 C 115.493 628.375, 115.725 631.300, 116.077 633.500 C 116.508 636.201, 116.762 634.171, 116.858 627.250 C 116.936 621.612, 116.775 617, 116.500 617 C 116.225 617, 115.930 618.688, 115.843 620.750 M 186.564 623.707 C 186.022 625.132, 186.136 625.247, 187.124 624.267 C 187.808 623.588, 188.115 622.781, 187.807 622.474 C 187.499 622.166, 186.940 622.721, 186.564 623.707 M 210.300 627 C 210.300 630.025, 210.487 631.263, 210.716 629.750 C 210.945 628.237, 210.945 625.763, 210.716 624.250 C 210.487 622.737, 210.300 623.975, 210.300 627 M 106.158 625 C 106.158 626.375, 106.385 626.938, 106.662 626.250 C 106.940 625.563, 106.940 624.438, 106.662 623.750 C 106.385 623.063, 106.158 623.625, 106.158 625 M 94.666 630.840 C 94.971 634.877, 95.583 639.377, 96.025 640.840 C 96.787 643.364, 96.830 643.321, 96.867 640 C 96.889 638.075, 96.278 633.575, 95.509 630 L 94.112 623.500 94.666 630.840 M 249.123 625 C 249.040 625.825, 248.723 627.625, 248.418 629 C 247.938 631.161, 248.016 631.259, 248.997 629.721 C 249.621 628.743, 249.938 626.943, 249.702 625.721 C 249.466 624.500, 249.205 624.175, 249.123 625 M 243.398 629.250 C 242.298 633.945, 242.405 633.556, 239.065 644.998 C 237.379 650.772, 236.052 657.072, 236.115 658.998 L 236.230 662.500 236.978 659 C 237.389 657.075, 239.111 650.550, 240.805 644.500 C 244.150 632.555, 245.527 626, 244.691 626 C 244.398 626, 243.816 627.462, 243.398 629.250 M 187 628 C 187 628.550, 187.477 629, 188.059 629 C 188.641 629, 188.840 628.550, 188.500 628 C 188.160 627.450, 187.684 627, 187.441 627 C 187.198 627, 187 627.450, 187 628 M 187.579 632 C 187.944 633.375, 188.624 635.175, 189.091 636 C 189.845 637.333, 189.939 637.333, 189.934 636 C 189.931 635.175, 189.251 633.375, 188.423 632 L 186.917 629.500 187.579 632 M 246.500 634 C 246.125 635.183, 246.042 636.376, 246.317 636.651 C 246.592 636.926, 247.125 636.183, 247.500 635 C 247.875 633.817, 247.958 632.624, 247.683 632.349 C 247.408 632.074, 246.875 632.817, 246.500 634 M 233.079 637.583 C 233.127 638.748, 233.364 638.985, 233.683 638.188 C 233.972 637.466, 233.936 636.603, 233.604 636.271 C 233.272 635.939, 233.036 636.529, 233.079 637.583 M 111.195 642.500 C 111.215 644.150, 111.439 644.704, 111.693 643.731 C 111.947 642.758, 111.930 641.408, 111.656 640.731 C 111.382 640.054, 111.175 640.850, 111.195 642.500 M 227.158 645 C 227.158 646.375, 227.385 646.938, 227.662 646.250 C 227.940 645.563, 227.940 644.438, 227.662 643.750 C 227.385 643.063, 227.158 643.625, 227.158 645 M 95.336 652 C 95.336 656.125, 95.513 657.813, 95.728 655.750 C 95.944 653.688, 95.944 650.313, 95.728 648.250 C 95.513 646.188, 95.336 647.875, 95.336 652 M 227.079 650.583 C 227.127 651.748, 227.364 651.985, 227.683 651.188 C 227.972 650.466, 227.936 649.603, 227.604 649.271 C 227.272 648.939, 227.036 649.529, 227.079 650.583 M 221.188 656.500 C 221.073 658.150, 220.399 661.525, 219.691 664 C 218.338 668.728, 218.509 673, 220.050 673 C 221.544 673, 222.119 668.935, 221.747 660.988 C 221.555 656.870, 221.303 654.850, 221.188 656.500 M 254.079 656.583 C 254.127 657.748, 254.364 657.985, 254.683 657.188 C 254.972 656.466, 254.936 655.603, 254.604 655.271 C 254.272 654.939, 254.036 655.529, 254.079 656.583 M 83.079 659.583 C 83.127 660.748, 83.364 660.985, 83.683 660.188 C 83.972 659.466, 83.936 658.603, 83.604 658.271 C 83.272 657.939, 83.036 658.529, 83.079 659.583 M 240.649 662.233 C 240.328 663.461, 240.501 664.901, 241.033 665.433 C 241.656 666.056, 242 665.261, 242 663.200 C 242 659.460, 241.473 659.083, 240.649 662.233 M 252.303 660.792 C 251.606 661.235, 251.443 662.099, 251.914 662.861 C 252.513 663.831, 252.864 663.630, 253.268 662.085 C 253.567 660.938, 253.742 660.007, 253.656 660.015 C 253.570 660.024, 252.961 660.373, 252.303 660.792 M 95.079 663.583 C 95.127 664.748, 95.364 664.985, 95.683 664.188 C 95.972 663.466, 95.936 662.603, 95.604 662.271 C 95.272 661.939, 95.036 662.529, 95.079 663.583 M 83.195 665.500 C 83.215 667.150, 83.439 667.704, 83.693 666.731 C 83.947 665.758, 83.930 664.408, 83.656 663.731 C 83.382 663.054, 83.175 663.850, 83.195 665.500 M 237.734 672.029 C 236.780 675.265, 236 678.634, 236 679.516 C 236 680.397, 235.613 680.879, 235.141 680.587 C 234.668 680.295, 234.390 681.056, 234.523 682.278 C 234.748 684.349, 234.187 688.525, 232.545 697 C 231.502 702.385, 233.390 698.787, 237.317 687.911 C 240.992 677.731, 242.425 668.598, 240.587 667.073 C 239.806 666.424, 238.945 667.921, 237.734 672.029 M 83.158 671 C 83.158 672.375, 83.385 672.938, 83.662 672.250 C 83.940 671.563, 83.940 670.438, 83.662 669.750 C 83.385 669.063, 83.158 669.625, 83.158 671 M 226.465 671.632 C 226.117 673.209, 225.665 675.048, 225.460 675.718 C 225.255 676.388, 225.471 677.173, 225.939 677.462 C 226.408 677.752, 226.991 676.079, 227.235 673.744 C 227.761 668.712, 227.355 667.597, 226.465 671.632 M 83.355 683.500 C 83.352 688.450, 83.521 690.601, 83.731 688.280 C 83.940 685.959, 83.943 681.909, 83.736 679.280 C 83.530 676.651, 83.358 678.550, 83.355 683.500 M 225.673 680.856 C 225.981 682.035, 225.823 683, 225.322 683 C 224.821 683, 224.300 686.019, 224.164 689.709 C 224.027 693.398, 224.113 696.211, 224.353 695.959 C 225.486 694.770, 226.999 680.599, 226.091 679.691 C 225.452 679.052, 225.307 679.458, 225.673 680.856 M 238.571 692.071 C 237.711 694.969, 237.200 697.533, 237.435 697.769 C 237.671 698.004, 238.568 695.826, 239.429 692.929 C 240.289 690.031, 240.800 687.467, 240.565 687.231 C 240.329 686.996, 239.432 689.174, 238.571 692.071 M 77.079 699.583 C 77.127 700.748, 77.364 700.985, 77.683 700.188 C 77.972 699.466, 77.936 698.603, 77.604 698.271 C 77.272 697.939, 77.036 698.529, 77.079 699.583 M 236.079 699.668 C 236.036 700.311, 235.741 701.661, 235.424 702.668 C 234.877 704.409, 234.906 704.412, 235.995 702.712 C 236.626 701.729, 236.920 700.379, 236.650 699.712 C 236.295 698.837, 236.136 698.825, 236.079 699.668 M 87 701.941 C 87 702.459, 87.450 703.160, 88 703.500 C 88.550 703.840, 89 703.416, 89 702.559 C 89 701.702, 88.550 701, 88 701 C 87.450 701, 87 701.423, 87 701.941 M 227.079 703.583 C 227.127 704.748, 227.364 704.985, 227.683 704.188 C 227.972 703.466, 227.936 702.603, 227.604 702.271 C 227.272 701.939, 227.036 702.529, 227.079 703.583 M 239 705.118 C 239 705.798, 237.167 710.140, 234.928 714.767 C 232.688 719.395, 231.099 723.815, 231.396 724.590 C 232.578 727.671, 233.681 726.282, 238.613 715.500 C 240.761 710.806, 241.449 705.396, 240.012 704.507 C 239.455 704.163, 239 704.438, 239 705.118 M 87.648 709.607 C 88.005 712.852, 87.824 714.010, 87.037 713.523 C 85.718 712.707, 86.311 715.502, 89.411 724.698 L 91.500 730.896 91.660 717.698 C 91.758 709.676, 91.498 705.480, 90.999 707 L 90.178 709.500 89.472 707.250 C 88.249 703.350, 87.121 704.808, 87.648 709.607 M 89.954 710.250 C 89.454 712.087, 89.293 712.588, 88.748 714 C 88.429 714.825, 88.205 716.280, 88.251 717.234 C 88.314 718.563, 88.645 718.710, 89.667 717.862 C 91.222 716.571, 91.461 715.597, 90 716.500 C 88.708 717.299, 88.731 716.372, 90.065 713.879 C 90.651 712.784, 90.911 711.352, 90.644 710.695 C 90.377 710.038, 90.066 709.837, 89.954 710.250 M 94.195 720.500 C 94.215 722.150, 94.439 722.704, 94.693 721.731 C 94.947 720.758, 94.930 719.408, 94.656 718.731 C 94.382 718.054, 94.175 718.850, 94.195 720.500 M 78.272 728 C 78.272 730.475, 78.467 731.487, 78.706 730.250 C 78.944 729.013, 78.944 726.987, 78.706 725.750 C 78.467 724.513, 78.272 725.525, 78.272 728 M 240.079 729.583 C 240.127 730.748, 240.364 730.985, 240.683 730.188 C 240.972 729.466, 240.936 728.603, 240.604 728.271 C 240.272 727.939, 240.036 728.529, 240.079 729.583 M 87.112 730.500 C 87.097 731.600, 87.661 734.968, 88.364 737.984 C 89.316 742.061, 89.789 742.916, 90.207 741.315 C 90.517 740.130, 89.954 736.762, 88.956 733.830 C 87.957 730.899, 87.128 729.400, 87.112 730.500 M 235.600 743.600 C 235.244 744.527, 235.178 745.511, 235.453 745.786 C 235.728 746.061, 236.244 745.527, 236.600 744.600 C 236.956 743.673, 237.022 742.689, 236.747 742.414 C 236.472 742.139, 235.956 742.673, 235.600 743.600 M 80.252 747.500 C 80.263 749.700, 80.468 750.482, 80.707 749.238 C 80.946 747.994, 80.937 746.194, 80.687 745.238 C 80.437 744.282, 80.241 745.300, 80.252 747.500 M 90.656 747.500 C 90.991 749.700, 91.431 751.688, 91.633 751.917 C 92.390 752.776, 91.823 747.420, 90.953 745.500 C 90.322 744.106, 90.232 744.712, 90.656 747.500 M 227.564 762.707 C 227.022 764.132, 227.136 764.247, 228.124 763.267 C 228.808 762.588, 229.115 761.781, 228.807 761.474 C 228.499 761.166, 227.940 761.721, 227.564 762.707 M 224 769 C 223.272 771.205, 222.945 773.278, 223.273 773.606 C 223.600 773.934, 224.378 772.311, 225 770 C 226.468 764.548, 225.717 763.797, 224 769 M 81.071 772.500 C 80.996 775.014, 82.993 782.341, 83.591 781.743 C 83.835 781.498, 83.382 778.868, 82.583 775.899 C 81.785 772.930, 81.105 771.400, 81.071 772.500 M 88.400 782.456 C 89.591 787.204, 90.962 790, 92.098 790 C 92.909 790, 92.875 789.554, 91.980 788.476 C 91.284 787.638, 90.983 786.684, 91.310 786.357 C 91.637 786.030, 91.225 785.082, 90.395 784.252 C 89.564 783.422, 89.122 782.125, 89.411 781.371 C 89.700 780.617, 89.453 780, 88.860 780 C 88.216 780, 88.031 780.987, 88.400 782.456 M 92.116 792.128 C 92.052 793.023, 92.675 794.315, 93.500 795 C 94.536 795.860, 95 795.898, 95 795.122 C 95 794.505, 94.583 794, 94.073 794 C 93.564 794, 92.941 793.212, 92.689 792.250 C 92.303 790.774, 92.214 790.754, 92.116 792.128 M 217.624 793.539 C 216.659 796.053, 216.943 796.702, 218.122 794.675 C 218.706 793.671, 218.973 792.639, 218.715 792.382 C 218.458 792.124, 217.966 792.645, 217.624 793.539 M 100 822.941 C 100 823.459, 100.445 824.157, 100.989 824.493 C 101.555 824.843, 101.723 824.442, 101.382 823.552 C 100.717 821.820, 100 821.503, 100 822.941" stroke="none" fill="black" fill-rule="evenodd"/>
</svg>