<svg xmlns="http://www.w3.org/2000/svg" width="4000" height="4000" viewBox="0 0 4000 4000" version="1.1">
	<path d="M 2359.127 824.347 C 2358.253 825.400, 2360.080 828.182, 2367.498 837.097 C 2377.039 848.563, 2385.128 860.930, 2395.278 879.566 C 2400.065 888.356, 2403.064 896, 2401.726 896 C 2401.488 896, 2399.133 892.737, 2396.492 888.750 C 2385.533 872.205, 2374.900 860.010, 2368.652 856.823 C 2364.147 854.524, 2364.400 855.126, 2371.465 863.500 C 2383.189 877.398, 2402 906.524, 2402 910.779 C 2402 915.065, 2400.005 913.793, 2393.340 905.258 C 2384.605 894.072, 2372.322 881.979, 2366.625 878.957 C 2362.879 876.970, 2361.936 876.808, 2360.592 877.923 C 2359.717 878.650, 2359 880.192, 2359 881.350 C 2359 882.997, 2357.126 881.607, 2350.408 874.978 L 2341.816 866.500 2345.989 872.500 C 2352.678 882.116, 2357.630 891.023, 2363.507 904.015 C 2366.528 910.694, 2369 916.409, 2369 916.717 C 2369 917.024, 2365.284 913.708, 2360.743 909.348 C 2351.974 900.930, 2343.704 896, 2338.351 896 C 2330.749 896, 2327.326 900.323, 2328.536 908.394 C 2328.916 910.927, 2328.838 913, 2328.364 912.999 C 2327.889 912.999, 2324.350 912.368, 2320.500 911.598 C 2316.650 910.828, 2311.700 909.901, 2309.500 909.540 L 2305.500 908.882 2309.500 911.657 C 2311.700 913.183, 2315.680 915.627, 2318.344 917.089 L 2323.189 919.746 2315.844 919.260 C 2309.953 918.870, 2308.138 918.351, 2306.671 916.637 L 2304.842 914.500 2305.406 917.114 C 2305.951 919.639, 2305.774 919.752, 2300.235 920.423 L 2294.500 921.119 2290.446 916.559 C 2287.527 913.277, 2285.637 912, 2283.696 912 C 2281.272 912, 2281 912.360, 2281 915.567 C 2281 918.483, 2280.680 919.046, 2279.250 918.649 C 2275.184 917.521, 2266.082 917.118, 2260.500 917.818 L 2254.500 918.571 2261 920.767 C 2266.296 922.556, 2266.759 922.865, 2263.500 922.436 C 2250.654 920.744, 2243.957 920.745, 2239.526 922.437 C 2237.048 923.383, 2234.793 924.526, 2234.515 924.976 C 2234.237 925.426, 2237.944 926.310, 2242.754 926.940 C 2254.972 928.540, 2267.582 931.588, 2280.689 936.107 C 2294.453 940.853, 2312.484 948.673, 2314.070 950.584 C 2315.843 952.720, 2314.241 952.339, 2304.970 948.418 C 2281.226 938.378, 2245.541 928.276, 2230.392 927.306 C 2221.905 926.763, 2220.883 926.911, 2215.392 929.477 C 2212.152 930.991, 2209.950 932.376, 2210.500 932.555 C 2211.050 932.733, 2216.338 933.376, 2222.251 933.982 C 2236.659 935.460, 2276.026 946.949, 2285.794 952.527 C 2288.696 954.185, 2288.852 954.206, 2278.237 951.522 C 2254.645 945.557, 2215.562 942.507, 2195.273 945.048 C 2182.673 946.625, 2183.209 946.819, 2207.500 949.478 C 2229.308 951.865, 2243.855 953.934, 2250.054 955.531 C 2254.035 956.557, 2254.424 956.782, 2251.500 956.367 C 2240.266 954.775, 2161.155 956.550, 2158.059 958.464 C 2157.614 958.739, 2152.807 959.449, 2147.375 960.044 C 2134.183 961.487, 2110.673 965.805, 2075 973.339 C 2068.675 974.675, 2058.325 977.361, 2052 979.310 C 2045.675 981.258, 2028.350 985.642, 2013.500 989.051 C 1984.234 995.771, 1981.677 996.592, 1959.969 1006.235 C 1951.977 1009.785, 1941.627 1013.943, 1936.969 1015.475 C 1932.311 1017.006, 1918.696 1022.014, 1906.713 1026.603 C 1879.684 1036.953, 1867.334 1043.877, 1820.519 1074.924 C 1801.796 1087.341, 1781.307 1100.292, 1774.989 1103.703 C 1761.209 1111.144, 1736.813 1121.094, 1716.594 1127.521 C 1708.474 1130.102, 1694.963 1134.806, 1686.570 1137.974 C 1676.202 1141.887, 1669.095 1143.957, 1664.405 1144.428 C 1660.607 1144.810, 1653.015 1145.773, 1647.533 1146.567 C 1642.051 1147.362, 1632.376 1148.486, 1626.033 1149.065 C 1619.690 1149.644, 1610.450 1150.750, 1605.500 1151.522 C 1594.546 1153.230, 1574.347 1155.637, 1563.500 1156.527 C 1559.100 1156.888, 1545.709 1158.499, 1533.743 1160.107 C 1518.084 1162.212, 1506.313 1163.159, 1491.743 1163.487 C 1480.609 1163.737, 1465.650 1164.405, 1458.500 1164.971 C 1451.350 1165.538, 1437.903 1166.462, 1428.617 1167.025 C 1419.331 1167.588, 1406.506 1168.727, 1400.117 1169.555 C 1386.828 1171.279, 1346.840 1177.591, 1340.644 1178.943 C 1334.219 1180.345, 1300.700 1184.637, 1278 1186.965 C 1266.725 1188.121, 1250.075 1190.191, 1241 1191.565 C 1215.970 1195.354, 1199.747 1198.221, 1159.809 1205.917 C 1150.616 1207.688, 1147.672 1207.847, 1138.809 1207.049 C 1103.182 1203.841, 1070.574 1203.691, 1036.500 1206.578 C 1019.570 1208.013, 992.129 1216.004, 954.946 1230.327 C 940.281 1235.976, 930.486 1240.910, 923.005 1246.417 C 919.757 1248.808, 913.787 1252.583, 909.737 1254.805 C 905.687 1257.028, 900.129 1260.621, 897.387 1262.789 C 889.139 1269.308, 873.572 1278.302, 846.328 1292.289 C 832.123 1299.582, 815.100 1309.008, 808.500 1313.236 C 780.293 1331.305, 775.979 1334.222, 766 1341.974 C 760.225 1346.461, 750.325 1355.196, 744 1361.385 C 737.675 1367.574, 727.876 1376.963, 722.225 1382.249 C 704.123 1399.183, 686.050 1420.580, 671.151 1442.722 C 665.975 1450.412, 655 1471.384, 655 1473.582 C 655 1474.473, 649.402 1480.950, 642.561 1487.977 C 631.054 1499.794, 626.013 1506.037, 626.004 1508.480 C 626.002 1509.019, 630.275 1505.203, 635.500 1500 C 640.725 1494.797, 645 1490.893, 645 1491.325 C 645 1492.760, 636.777 1504.384, 629.668 1513 C 625.810 1517.675, 623.969 1520.352, 625.577 1518.950 C 627.185 1517.547, 629.357 1515.747, 630.405 1514.950 C 632.246 1513.548, 632.258 1513.599, 630.759 1516.500 C 629.907 1518.150, 628.271 1522.362, 627.123 1525.860 C 625.975 1529.358, 623.617 1534.526, 621.883 1537.344 C 619.922 1540.531, 619.419 1541.908, 620.552 1540.985 C 622.190 1539.650, 622.310 1539.671, 621.743 1541.187 C 620.431 1544.691, 618.884 1551.218, 619.274 1551.607 C 619.497 1551.830, 620.220 1550.210, 620.880 1548.006 C 621.540 1545.803, 622.539 1544, 623.099 1544 C 623.660 1544, 623.896 1543.641, 623.625 1543.202 C 623.354 1542.763, 623.571 1541.751, 624.108 1540.952 C 624.952 1539.696, 625.056 1539.702, 624.879 1541 C 624.766 1541.825, 625.023 1543.743, 625.449 1545.262 C 626.004 1547.245, 625.511 1549.925, 623.701 1554.762 C 622.314 1558.468, 620.879 1562.400, 620.513 1563.500 C 619.816 1565.591, 624.746 1557.259, 629.537 1548.248 C 633.624 1540.560, 633.728 1542.605, 629.660 1550.682 C 625.027 1559.882, 616.825 1579.158, 617.329 1579.663 C 617.701 1580.034, 620.928 1574.873, 628.998 1561 C 630.758 1557.975, 631.919 1556.348, 631.578 1557.384 C 624.330 1579.456, 618.985 1600.730, 619.072 1607.167 C 619.141 1612.322, 619.277 1612.048, 623.127 1599 C 628.903 1579.425, 637.128 1554.795, 637.699 1555.366 C 637.969 1555.636, 636.536 1561.810, 634.514 1569.085 C 628.213 1591.756, 621.977 1616.310, 622.410 1616.743 C 623.511 1617.844, 628.227 1607.263, 631.366 1596.648 C 633.294 1590.129, 635.013 1584.654, 635.186 1584.481 C 635.359 1584.308, 635.500 1593.917, 635.500 1605.833 C 635.500 1621.418, 636.124 1633.254, 637.724 1648 C 638.948 1659.275, 640.412 1676.375, 640.978 1686 C 641.544 1695.625, 642.467 1708.225, 643.027 1714 C 645.657 1741.079, 646.144 1754.539, 646.517 1810.500 C 646.738 1843.500, 647.179 1872.652, 647.498 1875.282 C 648.239 1881.395, 646.389 1907.798, 644.400 1919.500 C 641.847 1934.519, 631.424 1967.712, 624.775 1982 C 622.599 1986.675, 619.321 1994.325, 617.490 1999 C 613.591 2008.953, 587.520 2061.550, 582.678 2069.230 C 580.850 2072.129, 576.738 2079.450, 573.538 2085.500 C 570.339 2091.550, 563.690 2103.399, 558.762 2111.830 C 550.533 2125.909, 544.566 2138.650, 523.470 2187.182 C 519.482 2196.357, 512.868 2209.407, 508.771 2216.182 C 494.714 2239.430, 467.071 2290.397, 451.921 2321 C 444.856 2335.271, 439.833 2350.898, 439.061 2361 L 438.413 2369.500 430.187 2382.500 C 425.662 2389.650, 423.207 2393.982, 424.730 2392.127 C 431.268 2384.166, 460.856 2343.483, 468.271 2332.262 C 476.253 2320.182, 479.004 2317.152, 475.174 2324.659 C 474.093 2326.778, 469.761 2336.610, 465.548 2346.506 C 458.582 2362.869, 454.249 2371.698, 447.271 2383.750 C 442.303 2392.329, 445.986 2387.669, 453 2376.500 C 456.972 2370.175, 460.391 2365, 460.598 2365 C 460.805 2365, 459.802 2367.588, 458.369 2370.750 C 456.936 2373.912, 452.059 2384.825, 447.531 2395 C 443.003 2405.175, 438.099 2415.863, 436.633 2418.750 C 431.303 2429.244, 435.061 2423.611, 444.471 2407 C 449.768 2397.650, 454.294 2390, 454.528 2390 C 455.207 2390, 441.198 2416.530, 434.785 2427.389 C 431.573 2432.828, 429.117 2437.450, 429.326 2437.660 C 429.536 2437.869, 432.839 2434.744, 436.666 2430.715 C 443.992 2423.003, 446.682 2419.084, 458.250 2399.278 C 462.176 2392.555, 465.525 2387.192, 465.693 2387.359 C 465.860 2387.527, 463.481 2393.252, 460.406 2400.082 C 447.402 2428.965, 444.057 2439.911, 446.986 2444 C 449.209 2447.104, 454.357 2438.535, 469.292 2406.866 C 477.427 2389.615, 484.955 2374.375, 486.020 2373 L 487.956 2370.500 487.962 2376.500 C 487.968 2381.382, 487.212 2384.177, 483.905 2391.500 C 471.991 2417.880, 464.859 2434.590, 461.496 2444 C 459.433 2449.775, 455.536 2459, 452.837 2464.500 C 447.520 2475.335, 448.161 2474.990, 458.404 2461.500 C 466.399 2450.971, 470.675 2443.997, 479.251 2427.500 C 486.625 2413.314, 487.014 2412.771, 486.418 2417.500 C 486.052 2420.403, 482.651 2429.628, 478.309 2439.500 C 474.196 2448.850, 469.317 2461.019, 467.467 2466.541 C 465.617 2472.064, 462.749 2479.601, 461.094 2483.291 C 459.438 2486.981, 458.259 2490, 458.473 2490 C 459.708 2490, 471.348 2471.817, 476.687 2461.547 C 481.669 2451.962, 482.953 2450.113, 482.967 2452.500 C 483.009 2459.496, 480.765 2468.662, 477.831 2473.487 L 474.782 2478.500 478.410 2475.035 L 482.038 2471.571 481.459 2482.035 C 481.140 2487.791, 480.474 2495.425, 479.980 2499 C 478.201 2511.858, 477.896 2515.903, 476.605 2543.642 C 475 2578.145, 475.910 2608.197, 479.154 2627.847 C 481.140 2639.877, 481.232 2641.948, 480.085 2648.847 C 479.385 2653.056, 477.942 2658.975, 476.878 2662 C 473.544 2671.477, 463.333 2723.365, 460.937 2743 C 460.433 2747.125, 459.994 2763.325, 459.959 2779 C 459.898 2807.254, 459.876 2807.536, 457.488 2811.610 C 452.781 2819.642, 450 2830.091, 450 2839.745 C 450 2850.754, 451.873 2857.323, 456.578 2862.820 C 461.158 2868.171, 464.700 2870, 470.482 2870 C 476.892 2870, 480.583 2868.167, 487.500 2861.548 C 493.849 2855.472, 498.666 2852.010, 500.778 2852.004 C 502.155 2852, 508.604 2858.697, 516.951 2868.800 C 524.085 2877.435, 527.144 2884.506, 528.051 2894.461 C 528.929 2904.094, 530.564 2908.390, 534.996 2912.705 C 539.290 2916.886, 545.231 2918.829, 557.500 2920.064 C 563 2920.618, 573.176 2921.730, 580.112 2922.536 C 618.680 2927.013, 668.631 2920.212, 675.101 2909.602 C 680.406 2900.903, 674.664 2893.932, 656.407 2886.901 C 652.189 2885.277, 643.734 2881.408, 637.619 2878.303 C 628.423 2873.634, 625.203 2871.348, 619 2865.079 C 611.523 2857.524, 609.127 2854.229, 594.573 2831.500 C 585.972 2818.067, 574.385 2795.123, 570.838 2784.500 C 568.095 2776.288, 567.762 2765.041, 569.741 2747.500 C 570.424 2741.450, 571.458 2731.325, 572.041 2725 C 573.995 2703.770, 575.088 2694.564, 576.967 2683.500 C 577.994 2677.450, 579.127 2670.025, 579.485 2667 C 579.842 2663.975, 581.419 2654.750, 582.989 2646.500 C 584.559 2638.250, 586.811 2625.425, 587.994 2618 C 594.111 2579.605, 601.721 2545.335, 609.534 2521 C 611.388 2515.225, 613.638 2507.575, 614.535 2504 C 615.431 2500.425, 619.052 2489.782, 622.582 2480.348 C 626.112 2470.915, 629 2462.890, 629 2462.514 C 629 2462.139, 631.700 2456.057, 635 2449 C 638.300 2441.943, 641 2434.847, 641 2433.232 C 641 2430.104, 648.502 2413.401, 655.477 2401 C 657.797 2396.875, 662.322 2388.775, 665.533 2383 C 668.744 2377.225, 673.680 2370.025, 676.503 2367 C 681.400 2361.750, 693.473 2344.144, 699.474 2333.500 C 701.025 2330.750, 703.858 2326.339, 705.770 2323.698 C 710.889 2316.627, 739.749 2286.784, 753 2274.858 C 767.930 2261.421, 816.652 2212.489, 839 2188.487 C 848.625 2178.150, 863.025 2162.879, 871 2154.553 C 878.975 2146.227, 890.450 2133.819, 896.500 2126.981 C 915.533 2105.468, 927.130 2094.077, 939 2085.232 C 945.325 2080.519, 954.325 2073.643, 959 2069.953 C 963.675 2066.262, 971.100 2061.076, 975.500 2058.427 C 979.900 2055.779, 985.857 2051.849, 988.738 2049.695 C 991.620 2047.540, 994.545 2045.998, 995.238 2046.268 C 996.673 2046.826, 1008.306 2066.065, 1010.646 2071.751 C 1011.495 2073.813, 1014.475 2080.225, 1017.269 2086 C 1023.280 2098.424, 1033.182 2123.235, 1036.625 2134.500 C 1040.408 2146.878, 1049.698 2185.632, 1050.888 2194 C 1054.568 2219.879, 1054.999 2226.466, 1054.981 2256.556 C 1054.969 2277.383, 1054.318 2296.328, 1052.991 2314.500 C 1051.906 2329.350, 1051.015 2348.308, 1051.009 2356.628 C 1051.002 2368.238, 1050.627 2372.649, 1049.394 2375.599 C 1047.008 2381.311, 1048.209 2386.905, 1054.586 2399.764 C 1058.544 2407.748, 1061.967 2412.994, 1066.336 2417.774 C 1069.726 2421.484, 1077.900 2430.574, 1084.500 2437.974 C 1091.100 2445.374, 1101.770 2456.940, 1108.210 2463.676 C 1114.651 2470.411, 1121.171 2477.852, 1122.700 2480.211 C 1126.375 2485.882, 1136.761 2499.897, 1147.369 2513.500 C 1152.087 2519.550, 1159.058 2528.553, 1162.860 2533.506 C 1166.663 2538.459, 1172.659 2545.659, 1176.186 2549.506 C 1179.713 2553.353, 1185.879 2560.459, 1189.888 2565.297 C 1193.898 2570.136, 1198.065 2574.636, 1199.149 2575.297 C 1200.232 2575.959, 1205.226 2582.125, 1210.245 2589 C 1215.265 2595.875, 1222.130 2604.875, 1225.502 2609 C 1228.873 2613.125, 1234.919 2621.450, 1238.938 2627.500 C 1242.957 2633.550, 1248.406 2640.750, 1251.046 2643.500 C 1253.687 2646.250, 1259.415 2653.922, 1263.775 2660.548 C 1270.926 2671.416, 1299.426 2709.804, 1328.546 2747.789 C 1334.571 2755.648, 1341.874 2765.773, 1344.775 2770.289 C 1347.677 2774.805, 1353.752 2783.891, 1358.275 2790.479 C 1368.639 2805.574, 1374.251 2815.313, 1378.501 2825.575 C 1380.340 2830.016, 1383.406 2836.541, 1385.313 2840.075 C 1391.383 2851.319, 1392.416 2855.900, 1390.972 2865.178 C 1389.403 2875.267, 1390.177 2887.350, 1392.767 2893.207 C 1394.799 2897.799, 1397.513 2900.379, 1409.367 2908.985 C 1419.402 2916.271, 1425.846 2917.615, 1433.684 2914.057 C 1438.866 2911.704, 1441.516 2907.783, 1447.581 2893.500 C 1450.150 2887.450, 1452.603 2882.114, 1453.033 2881.643 C 1453.463 2881.171, 1454.285 2881.664, 1454.860 2882.738 C 1456.494 2885.791, 1461.803 2905.761, 1462.989 2913.312 C 1463.577 2917.059, 1465.232 2923.056, 1466.666 2926.639 C 1469.752 2934.347, 1473.153 2937.049, 1483 2939.618 C 1502.737 2944.767, 1561.428 2937.562, 1594.643 2925.913 C 1606.995 2921.581, 1612.713 2918.256, 1616.629 2913.127 C 1619.407 2909.489, 1620 2907.843, 1620 2903.771 C 1620 2898.221, 1619.261 2897.314, 1606.881 2887.661 C 1596.240 2879.364, 1574.743 2860.368, 1557.500 2844.024 C 1542.927 2830.212, 1535.964 2824.298, 1523.008 2814.729 C 1520.538 2812.904, 1517.307 2809.610, 1515.828 2807.408 C 1514.349 2805.206, 1510.296 2801.192, 1506.820 2798.488 C 1489.984 2785.389, 1427.037 2723.227, 1403.038 2696 C 1397.948 2690.225, 1390.574 2681.927, 1386.652 2677.561 C 1374.365 2663.881, 1349.168 2631.567, 1330.853 2606 C 1321.258 2592.605, 1300.627 2560.051, 1294.730 2549 C 1288.122 2536.616, 1274.476 2503.808, 1271.622 2493.440 C 1270.268 2488.523, 1266.246 2474.141, 1262.684 2461.480 C 1259.122 2448.818, 1254.547 2431.043, 1252.518 2421.980 C 1250.489 2412.916, 1247.328 2400.100, 1245.494 2393.500 C 1243.659 2386.900, 1240.544 2372.950, 1238.570 2362.500 C 1236.597 2352.050, 1233.904 2340.350, 1232.586 2336.500 C 1230.131 2329.325, 1226.657 2306.226, 1224.975 2285.889 C 1223.751 2271.097, 1223.744 2239.113, 1224.960 2220.330 C 1225.488 2212.173, 1226.624 2192, 1227.483 2175.500 C 1228.343 2159, 1229.695 2137.625, 1230.487 2128 C 1231.280 2118.375, 1232.204 2106.675, 1232.541 2102 C 1232.878 2097.325, 1233.993 2085.400, 1235.019 2075.500 C 1236.045 2065.600, 1237.175 2053.450, 1237.529 2048.500 C 1237.883 2043.550, 1239.259 2030.771, 1240.587 2020.102 C 1241.914 2009.434, 1243 1997.396, 1243 1993.352 C 1243 1989.309, 1243.291 1986, 1243.647 1986 C 1244.003 1986, 1246.140 1987.501, 1248.397 1989.335 C 1256.777 1996.146, 1289.200 2019.071, 1306.059 2030.103 C 1315.638 2036.371, 1329.780 2044.687, 1337.487 2048.582 C 1360.826 2060.378, 1388.030 2074.897, 1396.528 2080.091 C 1411.166 2089.038, 1422.366 2093.058, 1445.500 2097.666 C 1457.066 2099.970, 1462.195 2100.464, 1475 2100.506 C 1483.525 2100.534, 1496.125 2101.168, 1503 2101.914 C 1512.758 2102.974, 1527.565 2103.137, 1570.500 2102.658 C 1625.702 2102.042, 1658.597 2100.450, 1676.500 2097.528 C 1681.450 2096.721, 1690.112 2095.371, 1695.749 2094.529 C 1701.386 2093.687, 1718.711 2089.812, 1734.249 2085.917 C 1749.787 2082.022, 1767.736 2077.577, 1774.134 2076.038 C 1788.755 2072.522, 1796.974 2069.792, 1809 2064.456 C 1814.225 2062.138, 1821.650 2058.842, 1825.500 2057.132 C 1829.350 2055.423, 1840.336 2051.063, 1849.913 2047.444 C 1859.490 2043.825, 1869.993 2039.518, 1873.253 2037.872 C 1876.513 2036.226, 1882.937 2033.554, 1887.528 2031.934 C 1903.061 2026.451, 1919.937 2017.633, 1927.500 2011.048 C 1931.350 2007.696, 1935.625 2004.678, 1937 2004.343 C 1939.815 2003.656, 1958.152 1998.326, 1971 1994.459 L 1979.500 1991.901 2025 1992.417 C 2050.025 1992.700, 2071.737 1993.224, 2073.249 1993.582 C 2074.943 1993.983, 2078.766 1997.303, 2083.208 2002.230 C 2092.053 2012.043, 2103.311 2020.736, 2115.443 2027.123 C 2127.701 2033.576, 2130.702 2034.537, 2144.621 2036.469 C 2151.154 2037.376, 2159.762 2038.812, 2163.750 2039.659 L 2171 2041.201 2171 2061.163 C 2171 2072.142, 2170.575 2087.510, 2170.054 2095.313 C 2169.534 2103.116, 2168.604 2118.050, 2167.987 2128.500 C 2166.019 2161.855, 2164.029 2181.901, 2161.547 2193.380 C 2160.218 2199.526, 2158.396 2209.943, 2157.498 2216.528 C 2155.739 2229.425, 2152.665 2247.360, 2147.992 2272 C 2144.539 2290.204, 2143.674 2298.415, 2140.999 2338.360 C 2138.168 2380.652, 2138.490 2395.314, 2142.942 2426.612 C 2145.026 2441.260, 2145.194 2459.332, 2143.593 2496.500 C 2142.693 2517.400, 2141.516 2540.912, 2140.978 2548.750 C 2140.440 2556.588, 2139.551 2569.637, 2139.001 2577.750 C 2137.007 2607.193, 2133.388 2629.920, 2126.460 2656.500 C 2124.023 2665.850, 2121.150 2677.775, 2120.076 2683 C 2119.001 2688.225, 2116.569 2698.800, 2114.671 2706.500 C 2108.205 2732.737, 2106.504 2746.586, 2106.502 2773 C 2106.500 2795.625, 2106.607 2796.910, 2109.359 2807.500 C 2110.931 2813.550, 2112.579 2822.325, 2113.019 2827 C 2114.168 2839.181, 2122.326 2858.464, 2129.154 2865.135 C 2138.204 2873.978, 2149.578 2877.292, 2158.329 2873.636 C 2162.333 2871.963, 2166.611 2867.046, 2167.472 2863.128 C 2167.825 2861.522, 2168.940 2859.460, 2169.950 2858.546 C 2171.585 2857.065, 2172.153 2857.039, 2175.143 2858.304 C 2182.481 2861.408, 2184.296 2865.890, 2182.319 2876.023 C 2179.905 2888.395, 2182.268 2899.448, 2188.804 2906.346 C 2192.183 2909.913, 2205.216 2916.561, 2212.602 2918.485 C 2220.526 2920.548, 2246.845 2922.323, 2257.500 2921.512 C 2269.106 2920.628, 2282.363 2917.506, 2287.733 2914.391 C 2298.132 2908.359, 2301.630 2901.160, 2300.853 2887.396 C 2300.204 2875.911, 2297.176 2871.109, 2278.533 2852 C 2260.886 2833.912, 2253.727 2825.814, 2244.038 2812.980 C 2240.517 2808.316, 2235.081 2801.739, 2231.959 2798.364 C 2218.007 2783.285, 2211.749 2752.365, 2210.529 2692.500 C 2210.011 2667.041, 2210.062 2666.125, 2212.997 2648.500 C 2215.824 2631.528, 2216.607 2625.130, 2220.527 2587 C 2221.403 2578.475, 2223.631 2560.025, 2225.478 2546 C 2227.325 2531.975, 2229.125 2516.450, 2229.477 2511.500 C 2230.786 2493.091, 2232.185 2482.541, 2233.713 2479.564 C 2235.459 2476.160, 2248.499 2456.355, 2250.545 2454 C 2253.283 2450.849, 2271.343 2418.219, 2273.515 2412.500 C 2274.769 2409.200, 2276.053 2404.025, 2276.369 2401 C 2281.617 2350.837, 2282.990 2335.677, 2283.995 2316.763 C 2284.923 2299.310, 2285.681 2294.733, 2291.986 2268.500 C 2294.233 2259.150, 2297.404 2244.525, 2299.033 2236 C 2302.048 2220.213, 2304.964 2206.945, 2310.132 2185.500 C 2311.722 2178.900, 2314.314 2164.577, 2315.891 2153.671 C 2317.468 2142.765, 2319.205 2133.395, 2319.750 2132.850 C 2320.707 2131.893, 2325.214 2135.552, 2344.143 2152.659 C 2347.892 2156.046, 2356.930 2163.354, 2364.229 2168.898 C 2386.073 2185.491, 2399.603 2196.319, 2405.720 2202.106 C 2413.524 2209.489, 2420.433 2214.637, 2440.500 2228.020 C 2474.114 2250.439, 2490.790 2263.690, 2511.519 2284.451 C 2533.672 2306.639, 2546.916 2322.063, 2551.060 2330.500 C 2554.177 2336.847, 2559 2354.262, 2559 2359.173 C 2559 2365.304, 2555.402 2375.964, 2549.286 2387.949 C 2545.792 2394.796, 2541.894 2401.771, 2540.623 2403.449 C 2533.691 2412.599, 2518.082 2435.458, 2511.436 2446.189 C 2507.244 2452.960, 2501.661 2461.650, 2499.029 2465.500 C 2496.398 2469.350, 2491.116 2477.675, 2487.292 2484 C 2483.468 2490.325, 2476.192 2501.125, 2471.123 2508 C 2466.055 2514.875, 2458.809 2524.775, 2455.022 2530 C 2450.606 2536.094, 2440.491 2547.095, 2426.813 2560.680 C 2415.085 2572.329, 2404.172 2583.610, 2402.563 2585.750 C 2400.953 2587.890, 2397.806 2590.949, 2395.568 2592.549 C 2393.331 2594.149, 2389.588 2597.212, 2387.251 2599.355 C 2384.914 2601.499, 2381.249 2604.433, 2379.106 2605.876 C 2365.870 2614.788, 2357.500 2621.457, 2350.124 2628.969 C 2334.114 2645.275, 2330.607 2651.406, 2332.904 2659.075 C 2334.711 2665.107, 2337.447 2667.517, 2348.732 2673.022 C 2359.365 2678.209, 2363 2680.530, 2363 2682.129 C 2363 2685.335, 2341.519 2689, 2322.726 2689 C 2316.754 2689, 2311.037 2689.445, 2310.021 2689.989 C 2306.468 2691.890, 2290.944 2710.315, 2286.106 2718.372 C 2275.198 2736.538, 2271.067 2759.205, 2276.042 2773.593 C 2277.166 2776.842, 2278.519 2781.525, 2279.051 2784 C 2279.583 2786.475, 2284.105 2796.611, 2289.101 2806.524 L 2298.184 2824.549 2299.055 2839.310 C 2299.534 2847.428, 2300.138 2854.414, 2300.397 2854.833 C 2300.656 2855.252, 2301.150 2860.524, 2301.495 2866.547 C 2302.491 2883.952, 2305.218 2893.937, 2310.272 2898.680 C 2314.609 2902.751, 2324.789 2908.820, 2328.518 2909.559 C 2331.680 2910.186, 2342.468 2906.705, 2347.421 2903.460 C 2351.426 2900.836, 2356.553 2893.177, 2359.835 2884.916 C 2361.479 2880.776, 2366.301 2866.854, 2370.550 2853.979 C 2377.651 2832.460, 2379.464 2828.225, 2393.007 2801.535 C 2401.110 2785.566, 2409.458 2769.575, 2411.559 2766 C 2413.659 2762.425, 2417.461 2755.446, 2420.007 2750.492 C 2422.553 2745.538, 2428.268 2736.063, 2432.708 2729.436 C 2441.316 2716.587, 2446.988 2706.116, 2449.025 2699.313 C 2449.715 2697.010, 2452.053 2692.979, 2454.221 2690.355 C 2456.390 2687.731, 2458.813 2684.329, 2459.606 2682.794 C 2460.400 2681.260, 2468.997 2667.966, 2478.710 2653.252 C 2491.539 2633.821, 2499.554 2620.343, 2508.001 2604 C 2520.447 2579.920, 2549.482 2529.304, 2559.341 2514.500 C 2569.988 2498.513, 2585.283 2476.996, 2594.134 2465.553 C 2598.883 2459.414, 2603.917 2452.125, 2605.320 2449.354 C 2607.267 2445.513, 2611.306 2441.313, 2622.341 2431.656 C 2654.905 2403.159, 2668.770 2384.867, 2677.593 2358.760 C 2682.048 2345.579, 2682.661 2339.547, 2680.681 2328.384 C 2679.815 2323.498, 2678.800 2315.900, 2678.427 2311.500 C 2677.472 2300.253, 2674.879 2292.674, 2666.834 2277.618 C 2657.833 2260.776, 2652.898 2253.945, 2643.174 2244.868 C 2638.833 2240.816, 2632.234 2234.004, 2628.509 2229.730 C 2624.784 2225.457, 2619.433 2220.147, 2616.618 2217.931 C 2611.186 2213.656, 2600.727 2202.303, 2588.583 2187.500 C 2584.522 2182.550, 2578.410 2175.800, 2575 2172.500 C 2571.590 2169.200, 2565.487 2162.156, 2561.437 2156.846 C 2557.387 2151.537, 2551.683 2144.562, 2548.761 2141.346 C 2542.975 2134.977, 2532.144 2122.062, 2523.067 2110.709 C 2519.898 2106.744, 2516.275 2102.600, 2515.017 2101.500 C 2513.759 2100.400, 2506.886 2090.764, 2499.743 2080.086 C 2492.601 2069.409, 2484.899 2058.374, 2482.628 2055.564 C 2480.358 2052.755, 2472.942 2042.032, 2466.148 2031.736 L 2453.796 2013.017 2462.322 2003.960 C 2467.011 1998.978, 2473.607 1990.875, 2476.979 1985.952 C 2480.350 1981.029, 2486.123 1973.738, 2489.807 1969.751 C 2493.491 1965.763, 2498.529 1960.085, 2501.003 1957.133 C 2514.318 1941.244, 2543.406 1926.112, 2571.527 1920.445 C 2586.424 1917.443, 2622.447 1915.186, 2640.500 1916.123 C 2647.100 1916.465, 2666.225 1917.327, 2683 1918.038 C 2699.775 1918.749, 2713.653 1919.446, 2713.839 1919.588 C 2714.238 1919.890, 2707.416 1931.543, 2703.087 1937.956 C 2701.433 1940.407, 2700.273 1942.606, 2700.510 1942.844 C 2701.449 1943.782, 2715.193 1931.482, 2720.383 1925.059 C 2724.560 1919.889, 2726.628 1918.135, 2728.945 1917.795 C 2730.758 1917.529, 2731.974 1917.784, 2731.936 1918.423 C 2731.901 1919.015, 2730.393 1923.325, 2728.585 1928 C 2725.335 1936.406, 2725.196 1936.580, 2716.053 1943.750 C 2710.968 1947.737, 2707.088 1951, 2707.429 1951 C 2707.771 1951, 2711.178 1949.425, 2715 1947.500 L 2721.951 1944 2720.947 1946.639 C 2720.396 1948.090, 2720.096 1949.429, 2720.281 1949.614 C 2720.466 1949.799, 2723.050 1947.487, 2726.024 1944.475 C 2731.869 1938.557, 2733.523 1937.727, 2732.449 1941.250 C 2731.265 1945.136, 2728.968 1947.021, 2710.500 1959.267 C 2700.600 1965.832, 2693.625 1970.869, 2695 1970.461 C 2696.375 1970.053, 2703.943 1967.038, 2711.817 1963.760 C 2719.691 1960.482, 2726.370 1958.036, 2726.658 1958.325 C 2728.011 1959.677, 2725.308 1963.503, 2719.709 1968.162 C 2713.488 1973.339, 2714.306 1973.860, 2722.314 1969.819 L 2726.129 1967.894 2728.137 1970.447 C 2730.261 1973.147, 2733.813 1973.787, 2735.776 1971.824 C 2736.678 1970.922, 2737.437 1971.085, 2739.026 1972.524 C 2740.737 1974.072, 2741.592 1974.215, 2743.910 1973.340 C 2746.171 1972.486, 2747.165 1972.616, 2749.004 1974.003 L 2751.288 1975.726 2745.940 1979.953 C 2742.999 1982.278, 2737.488 1985.743, 2733.694 1987.654 C 2729.900 1989.565, 2726.994 1991.327, 2727.237 1991.570 C 2727.933 1992.266, 2743.508 1989.334, 2745.893 1988.057 C 2748.457 1986.685, 2750 1987.418, 2750 1990.009 C 2750 1991.050, 2750.774 1992.333, 2751.719 1992.863 C 2753.237 1993.712, 2752.916 1994.413, 2748.969 1998.866 C 2746.511 2001.639, 2743.218 2005.504, 2741.652 2007.454 L 2738.803 2011 2742.836 2011 C 2748.715 2011, 2750.255 2010.189, 2764.486 1999.607 C 2771.592 1994.323, 2777.959 1990, 2778.636 1990 C 2780.739 1990, 2781.280 1993.924, 2779.541 1996.577 C 2778.648 1997.941, 2778.170 1999.466, 2778.479 1999.967 C 2778.789 2000.467, 2778.288 2001.299, 2777.367 2001.815 C 2775.094 2003.087, 2776.338 2006, 2779.154 2006 C 2780.373 2006, 2782.422 2005.013, 2783.706 2003.806 C 2785.840 2001.802, 2786.178 2001.750, 2787.630 2003.201 C 2789.081 2004.653, 2788.851 2005.295, 2784.968 2010.645 C 2782.631 2013.865, 2779.319 2018.019, 2777.609 2019.875 C 2774.719 2023.013, 2774.676 2023.161, 2777 2021.975 C 2784.469 2018.165, 2791.455 2012.869, 2799.530 2004.895 L 2808.560 1995.978 2813.280 1996.625 C 2815.876 1996.981, 2817.997 1997.548, 2817.994 1997.886 C 2817.991 1998.224, 2815.526 2002.523, 2812.517 2007.440 C 2809.508 2012.357, 2807.273 2016.607, 2807.551 2016.884 C 2807.828 2017.161, 2811.036 2014.488, 2814.681 2010.944 C 2818.634 2007.099, 2820.438 2005.772, 2819.153 2007.654 C 2817.969 2009.389, 2817 2011.132, 2817 2011.528 C 2817 2011.923, 2822.126 2007.466, 2828.391 2001.624 C 2834.655 1995.781, 2839.943 1991, 2840.141 1990.999 C 2840.338 1990.999, 2840.345 1995.249, 2840.155 2000.444 C 2839.966 2005.639, 2840.312 2012.277, 2840.925 2015.195 C 2842.052 2020.558, 2851.546 2041, 2852.910 2041 C 2853.317 2041, 2853.101 2036.612, 2852.431 2031.250 C 2851.761 2025.888, 2850.908 2018.912, 2850.535 2015.750 L 2849.856 2010 2853.273 2010 C 2857.227 2010, 2859.373 2008.025, 2860.879 2003 C 2861.724 2000.180, 2861.789 2000.861, 2861.214 2006.500 C 2859.515 2023.157, 2860.546 2028.136, 2867.508 2036.891 L 2871 2041.281 2871 2036.389 C 2871 2031.792, 2874.459 2011.207, 2875.388 2010.279 C 2875.622 2010.044, 2877.171 2010.554, 2878.829 2011.411 C 2880.487 2012.269, 2881.991 2012.639, 2882.172 2012.235 C 2882.352 2011.831, 2883.693 2010.825, 2885.151 2010 C 2887.577 2008.628, 2906.117 1991.001, 2911.963 1984.511 C 2913.317 1983.007, 2914.580 1982.239, 2914.769 1982.806 C 2915.162 1983.985, 2909.493 1995.684, 2907.346 1998.125 C 2906.560 1999.019, 2906.031 2000.144, 2906.170 2000.625 C 2906.310 2001.106, 2904.942 2004.567, 2903.130 2008.315 C 2901.318 2012.063, 2900.096 2015.809, 2900.415 2016.639 C 2901.653 2019.864, 2904.441 2017.097, 2909.818 2007.308 C 2914.533 1998.724, 2916.010 1996.848, 2919.179 1995.419 C 2921.248 1994.486, 2923.699 1992.885, 2924.625 1991.861 C 2927.435 1988.757, 2928.306 1989.635, 2927.611 1994.873 C 2926.893 2000.291, 2927.539 2003, 2929.549 2003 C 2930.406 2003, 2930.995 2004.525, 2931.193 2007.250 C 2931.569 2012.453, 2934.002 2013.041, 2935.535 2008.298 C 2937.141 2003.329, 2938.002 2003.253, 2937.984 2008.083 C 2937.973 2011.141, 2936.607 2015.508, 2933.546 2022.274 L 2929.125 2032.047 2932.032 2029.977 C 2933.631 2028.838, 2935.205 2027.478, 2935.529 2026.953 C 2936.859 2024.801, 2938 2026.249, 2938 2030.088 C 2938 2032.853, 2936.905 2036.168, 2934.613 2040.338 C 2932.750 2043.727, 2930.439 2048.975, 2929.478 2052 C 2928.516 2055.025, 2927.103 2058.738, 2926.339 2060.250 C 2923.748 2065.375, 2925.850 2063.034, 2931.725 2054.250 C 2934.944 2049.438, 2937.961 2045.371, 2938.430 2045.214 C 2938.898 2045.056, 2940.505 2049.556, 2942.001 2055.214 C 2943.497 2060.871, 2945.246 2066.625, 2945.888 2068 L 2947.056 2070.500 2946.480 2068 C 2946.163 2066.625, 2945.652 2061, 2945.345 2055.500 C 2944.859 2046.788, 2945.131 2044.157, 2947.457 2035.067 C 2952.648 2014.787, 2952.968 2015.785, 2952.721 2051.500 C 2952.529 2079.300, 2952.724 2084.222, 2954.210 2089 C 2956.038 2094.877, 2962.699 2103.936, 2961.564 2099 C 2959.341 2089.337, 2960.084 2061.196, 2963.130 2039.750 C 2964.832 2027.764, 2966.197 2030.290, 2965.291 2043.750 C 2963.818 2065.639, 2964.544 2085.274, 2967.261 2097 L 2969.694 2107.500 2970.304 2101 C 2970.640 2097.425, 2971.415 2087.075, 2972.025 2078 C 2973.690 2053.264, 2973.682 2053.300, 2976.919 2053.775 C 2978.965 2054.075, 2979.912 2053.606, 2980.833 2051.835 C 2981.965 2049.659, 2982.017 2049.739, 2981.601 2053 C 2981.356 2054.925, 2979.972 2062.800, 2978.525 2070.500 C 2976.498 2081.288, 2975.799 2088.630, 2975.478 2102.500 L 2975.062 2120.500 2977.676 2105.750 C 2979.885 2093.284, 2980.564 2091, 2982.062 2091 C 2983.036 2091, 2983.991 2091.472, 2984.183 2092.048 C 2984.671 2093.512, 2997.546 2069.657, 3002.369 2058.353 C 3006.172 2049.438, 3008 2046.959, 3008 2050.717 C 3008 2051.661, 3007.363 2054.248, 3006.584 2056.467 C 3004.671 2061.918, 2995.680 2101.013, 2996.216 2101.549 C 2996.450 2101.784, 2997.710 2099.393, 2999.015 2096.238 C 3000.320 2093.082, 3003.663 2087.750, 3006.444 2084.390 C 3009.225 2081.029, 3012.717 2076.754, 3014.204 2074.890 L 3016.907 2071.500 3013.595 2081.526 C 3011.774 2087.040, 3009.523 2093.115, 3008.593 2095.026 C 3007.411 2097.457, 3007.340 2097.955, 3008.360 2096.685 C 3010.654 2093.825, 3023.236 2068.628, 3028.503 2056.345 C 3031.961 2048.281, 3033.939 2044.893, 3035.643 2044.117 C 3036.939 2043.526, 3038 2043.405, 3038 2043.849 C 3038 2045.275, 3031.813 2063.399, 3030.267 2066.500 C 3029.444 2068.150, 3029.236 2069.050, 3029.803 2068.500 C 3031.314 2067.035, 3042.839 2046.051, 3044.221 2042.250 C 3044.870 2040.463, 3045.992 2039, 3046.714 2039 C 3047.741 2039, 3047.672 2039.816, 3046.397 2042.750 C 3042.091 2052.656, 3035.121 2070.052, 3033.554 2074.802 C 3032.592 2077.718, 3030.836 2081.036, 3029.652 2082.175 L 3027.500 2084.247 3029.648 2083.143 C 3034.916 2080.435, 3040.511 2071.824, 3052.787 2047.530 C 3060.759 2031.753, 3065.555 2023.258, 3065.761 2024.550 C 3065.940 2025.678, 3064.558 2030.628, 3062.690 2035.550 C 3054.442 2057.284, 3052.525 2065.699, 3055.591 2066.703 C 3056.191 2066.900, 3058.540 2062.884, 3060.812 2057.780 C 3063.083 2052.676, 3064.953 2048.725, 3064.966 2049 C 3064.980 2049.275, 3064.101 2055.546, 3063.014 2062.935 C 3061.927 2070.325, 3061.242 2076.575, 3061.491 2076.825 C 3062.094 2077.427, 3072.161 2055.936, 3075.701 2046.491 C 3077.240 2042.383, 3078.838 2039.017, 3079.250 2039.011 C 3080.344 2038.995, 3080.175 2040.513, 3077.978 2050.449 C 3076.890 2055.371, 3076.022 2059.646, 3076.050 2059.949 C 3076.077 2060.252, 3077.639 2056.261, 3079.519 2051.081 C 3083.325 2040.597, 3084.107 2039.401, 3086.342 2040.652 C 3087.678 2041.399, 3087.520 2042.358, 3085.124 2048.038 C 3083.610 2051.627, 3080.459 2057.475, 3078.122 2061.032 L 3073.873 2067.500 3080.864 2060.233 C 3086.898 2053.962, 3093.196 2046.192, 3097.764 2039.384 C 3099.584 2036.673, 3098.328 2052.284, 3095.985 2061.500 C 3095.007 2065.350, 3094.305 2068.608, 3094.427 2068.740 C 3094.548 2068.872, 3096.135 2065.594, 3097.955 2061.455 C 3099.774 2057.315, 3101.432 2054.099, 3101.641 2054.307 C 3102.148 2054.815, 3098.462 2072.671, 3095.948 2081.883 C 3093.932 2089.270, 3093.848 2092.577, 3095.811 2087.301 C 3099.479 2077.442, 3114.001 2044.044, 3113.553 2046.500 C 3106.838 2083.280, 3103.734 2097.884, 3099.112 2114.445 C 3097.432 2120.465, 3096.202 2125.535, 3096.378 2125.711 C 3096.978 2126.311, 3105.865 2106.287, 3109.063 2097.130 C 3110.816 2092.108, 3112.612 2088, 3113.054 2088 C 3115.083 2088, 3116.914 2084.533, 3117.543 2079.501 C 3118.251 2073.833, 3119.361 2072.450, 3120.305 2076.058 C 3120.628 2077.292, 3118.899 2082.645, 3115.985 2089.437 C 3109.894 2103.633, 3107.441 2111.080, 3105.517 2121.224 C 3103.711 2130.745, 3103.664 2135.338, 3105.438 2129 C 3106.884 2123.835, 3122.237 2093.210, 3121.481 2097 C 3121.206 2098.375, 3120.136 2103.702, 3119.102 2108.839 C 3118.068 2113.975, 3117.568 2117.800, 3117.990 2117.339 C 3118.413 2116.877, 3120.426 2112, 3122.463 2106.500 C 3124.501 2101, 3126.399 2096.275, 3126.681 2096 C 3126.963 2095.725, 3126.867 2098.134, 3126.468 2101.354 C 3126.031 2104.885, 3123.861 2111.432, 3120.999 2117.854 C 3111.701 2138.715, 3108.538 2152.118, 3112.548 2153.657 C 3114.775 2154.511, 3116.029 2152.429, 3124.088 2134.500 C 3138.876 2101.596, 3144.541 2092.404, 3140.558 2107.775 C 3139.706 2111.063, 3138.583 2117.873, 3138.062 2122.908 C 3137.541 2127.944, 3136.477 2133.287, 3135.698 2134.782 C 3134.918 2136.277, 3132.868 2140.133, 3131.140 2143.352 C 3129.413 2146.570, 3128 2150.087, 3128 2151.167 C 3128 2152.248, 3127.558 2153.957, 3127.018 2154.966 C 3125.510 2157.784, 3128.461 2158.332, 3133.393 2156.150 C 3138.188 2154.029, 3142.707 2148.987, 3155.820 2131.127 C 3164.381 2119.468, 3169 2114.499, 3169 2116.949 C 3169 2118.366, 3148.053 2157.415, 3143.827 2163.877 C 3141.997 2166.675, 3139.938 2168.972, 3139.250 2168.982 C 3137.634 2169.005, 3137.595 2175.195, 3139.200 2176.800 C 3140.831 2178.431, 3145.498 2178.311, 3148.904 2176.550 C 3152.487 2174.697, 3160.883 2165.516, 3167.132 2156.618 C 3169.809 2152.806, 3171.994 2150.319, 3171.987 2151.093 C 3171.980 2151.867, 3170.872 2155.950, 3169.525 2160.168 C 3168.178 2164.385, 3166.659 2171.810, 3166.149 2176.668 C 3165.640 2181.525, 3164.881 2186.400, 3164.464 2187.500 C 3162.250 2193.338, 3175.851 2174.540, 3179.296 2167 C 3182.493 2160.004, 3202.287 2110.541, 3206.008 2100.250 C 3207.251 2096.813, 3208.658 2094, 3209.134 2094 C 3211.022 2094, 3209.795 2100.569, 3205.635 2112.736 C 3199.969 2129.307, 3197.253 2141.110, 3196.129 2154.057 C 3194.606 2171.599, 3196.953 2185, 3201.548 2185 C 3203.465 2185, 3204.557 2182.034, 3205.416 2174.500 C 3207.503 2156.190, 3210.675 2141.368, 3216.609 2122.185 C 3218.847 2114.950, 3220.540 2111.020, 3221.305 2111.286 C 3222.764 2111.794, 3222.697 2112.983, 3220.533 2124.950 C 3218.196 2137.878, 3218.723 2161.442, 3221.497 2167.974 L 3223.396 2172.448 3225.223 2166.474 C 3226.228 2163.188, 3227.504 2155.100, 3228.059 2148.500 C 3229.402 2132.520, 3231.049 2122.199, 3234.083 2110.750 L 3235.077 2106.999 3239.039 2110.921 L 3243 2114.843 3243.001 2123.172 C 3243.001 2127.752, 3243.704 2134.865, 3244.562 2138.977 C 3246.201 2146.836, 3247 2148.838, 3247 2145.088 C 3247 2143.853, 3248.805 2138.941, 3251.011 2134.171 C 3253.261 2129.308, 3256.094 2120.728, 3257.463 2114.632 C 3258.805 2108.654, 3260.089 2103.578, 3260.316 2103.351 C 3260.542 2103.124, 3261.282 2105.765, 3261.959 2109.219 C 3263.764 2118.433, 3267.275 2125.002, 3274.495 2132.677 L 3280.914 2139.500 3278.035 2132.500 C 3272.259 2118.455, 3270.619 2090.576, 3274.475 2072 C 3276.690 2061.329, 3281.148 2048, 3282.502 2048 C 3285.561 2048, 3287.743 2052.555, 3288.354 2060.217 C 3289.723 2077.398, 3295.268 2097.270, 3301.806 2108.428 C 3304.388 2112.833, 3310.044 2120.158, 3314.375 2124.705 C 3323.009 2133.770, 3328.412 2136.965, 3339.429 2139.520 C 3347.016 2141.279, 3364.072 2141.554, 3371.886 2140.042 C 3379.335 2138.601, 3386.455 2138.738, 3395.659 2140.499 C 3405.806 2142.441, 3405.882 2142.426, 3439.641 2131.950 C 3452.877 2127.842, 3466.699 2120.662, 3476.403 2112.852 C 3485.648 2105.412, 3488.318 2102.313, 3492.640 2094 C 3495.479 2088.540, 3495.498 2088.386, 3495.183 2073 C 3494.909 2059.634, 3495.214 2055.733, 3497.392 2044.668 C 3498.782 2037.611, 3500.631 2024.336, 3501.502 2015.168 C 3504.257 1986.167, 3504.634 1984.105, 3509.442 1971.811 C 3511.940 1965.422, 3514.670 1957.235, 3515.509 1953.617 C 3516.348 1949.999, 3517.440 1945.972, 3517.936 1944.668 C 3520.058 1939.086, 3525.122 1913.271, 3526.993 1898.500 C 3531.936 1859.456, 3531.850 1843.271, 3526.529 1811.500 C 3525.239 1803.800, 3523.882 1794.800, 3523.513 1791.500 C 3520.868 1767.828, 3515.040 1741.473, 3502.947 1698.500 C 3494.352 1667.954, 3489.941 1641.525, 3488.027 1609.107 C 3487.430 1598.991, 3486.649 1590.242, 3486.293 1589.665 C 3485.936 1589.088, 3485.543 1580.265, 3485.419 1570.058 C 3485.045 1539.287, 3483.559 1521.788, 3480.489 1512 C 3477.659 1502.981, 3465.916 1480.335, 3457.789 1468.227 C 3450.633 1457.564, 3438.403 1433.557, 3434.934 1423.364 C 3431.455 1413.142, 3428.608 1397.083, 3428.796 1388.750 C 3429.530 1356.297, 3429.683 1358.379, 3425.690 1346.391 C 3420.077 1329.534, 3411.554 1316.875, 3388.996 1291.890 L 3383.932 1286.280 3388.019 1278.703 C 3391.816 1271.663, 3403.050 1240.141, 3406.597 1226.572 C 3407.450 1223.311, 3408.566 1214.761, 3409.079 1207.572 C 3409.591 1200.382, 3410.449 1191.125, 3410.985 1187 C 3413.047 1171.135, 3414.413 1153.059, 3414.349 1142.500 C 3413.960 1079.004, 3413.999 1080.019, 3411.441 1067.244 C 3410.091 1060.503, 3408.283 1053.078, 3407.424 1050.744 C 3406.564 1048.410, 3405.062 1044.025, 3404.085 1041 C 3401.132 1031.852, 3396.218 1023, 3394.093 1023 C 3392.030 1023, 3391 1024.860, 3391 1028.587 C 3391 1031.743, 3383.755 1064.054, 3380.593 1075 C 3376.503 1089.157, 3370.518 1111.308, 3364.565 1134.324 C 3360.569 1149.773, 3356.933 1161.021, 3352.118 1172.824 C 3348.377 1181.996, 3344.497 1191.732, 3343.496 1194.460 C 3342.494 1197.187, 3338.890 1203.497, 3335.487 1208.481 C 3332.084 1213.466, 3326.541 1222.413, 3323.170 1228.363 C 3316.559 1240.030, 3303.440 1258.471, 3301 1259.525 C 3300.175 1259.882, 3297.925 1260.373, 3296 1260.616 C 3294.075 1260.860, 3287.414 1261.721, 3281.199 1262.530 C 3274.983 1263.338, 3267.558 1264.014, 3264.699 1264.031 C 3261.839 1264.048, 3254.325 1264.692, 3248 1265.462 C 3241.675 1266.232, 3233.800 1267.172, 3230.500 1267.551 L 3224.500 1268.240 3226.607 1266.041 C 3227.868 1264.724, 3233.979 1262.107, 3241.843 1259.515 C 3254.154 1255.457, 3263.845 1250.836, 3280.484 1241.091 C 3284.325 1238.841, 3287.004 1237, 3286.437 1237 C 3285.870 1237, 3280.027 1238.813, 3273.453 1241.029 C 3262.035 1244.878, 3247.372 1249, 3245.096 1249 C 3244.508 1249, 3246.205 1245.737, 3248.869 1241.750 C 3251.532 1237.763, 3254.293 1233.392, 3255.005 1232.037 C 3256.285 1229.600, 3256.273 1229.591, 3253.899 1231.144 C 3252.580 1232.007, 3246.550 1235.516, 3240.500 1238.940 C 3234.450 1242.365, 3225.832 1247.824, 3221.349 1251.071 C 3213.263 1256.927, 3211.096 1258.078, 3205.699 1259.385 L 3202.898 1260.064 3203.199 1254.286 L 3203.500 1248.509 3217 1243.780 C 3230.594 1239.019, 3267.260 1223.927, 3266.669 1223.336 C 3266.494 1223.161, 3262.560 1224.112, 3257.926 1225.448 C 3253.292 1226.785, 3246.125 1228.796, 3242 1229.917 L 3234.500 1231.955 3238.517 1228.227 C 3240.726 1226.177, 3245.676 1221.648, 3249.517 1218.161 C 3254.532 1213.609, 3255.513 1212.374, 3253 1213.779 C 3240.142 1220.966, 3235.328 1223.321, 3226 1226.988 C 3220.225 1229.258, 3214.877 1231.386, 3214.116 1231.716 C 3213.355 1232.046, 3216.440 1227.663, 3220.971 1221.975 C 3225.502 1216.288, 3229.678 1210.607, 3230.250 1209.351 C 3230.988 1207.731, 3234.007 1205.992, 3240.644 1203.366 C 3245.788 1201.330, 3249.868 1199.535, 3249.710 1199.377 C 3249.553 1199.219, 3246.083 1199.950, 3242 1201 C 3237.917 1202.050, 3234.419 1202.752, 3234.227 1202.560 C 3234.035 1202.368, 3236.397 1197.101, 3239.476 1190.855 C 3244.447 1180.773, 3244.711 1179.948, 3241.824 1183.500 C 3240.036 1185.700, 3234.526 1191.673, 3229.579 1196.774 C 3221.411 1205.196, 3219.992 1206.231, 3214.140 1208.038 C 3210.596 1209.133, 3207.475 1209.809, 3207.206 1209.540 C 3206.937 1209.270, 3207.919 1206.278, 3209.389 1202.889 C 3210.859 1199.500, 3211.902 1196.568, 3211.707 1196.374 C 3211.512 1196.179, 3209.059 1199.306, 3206.254 1203.323 C 3203.449 1207.340, 3200.551 1211.128, 3199.812 1211.741 C 3198.105 1213.158, 3177.089 1221.412, 3174.728 1221.593 C 3173.754 1221.668, 3172.064 1222.537, 3170.972 1223.525 C 3166.838 1227.266, 3168.347 1224.115, 3175.054 1214.999 C 3178.874 1209.805, 3182 1205.330, 3182 1205.053 C 3182 1204.777, 3178.656 1207.872, 3174.568 1211.933 L 3167.136 1219.315 3164.318 1215.966 C 3162.768 1214.124, 3161.575 1212.422, 3161.667 1212.183 C 3161.760 1211.944, 3163.110 1210.908, 3164.667 1209.881 C 3169.623 1206.613, 3165.765 1207.884, 3158.188 1212.014 C 3154.166 1214.206, 3150.531 1216, 3150.111 1216 C 3148.686 1216, 3157.983 1171.581, 3161.935 1159.500 C 3164.095 1152.900, 3167.062 1143.464, 3168.530 1138.532 C 3169.997 1133.599, 3173.124 1124.374, 3175.478 1118.032 C 3180.451 1104.634, 3181.617 1099.022, 3180.040 1096.075 C 3177.465 1091.264, 3174.880 1093.579, 3158.426 1115.433 C 3155.086 1119.870, 3148.920 1127.545, 3144.725 1132.489 C 3140.530 1137.432, 3134.987 1145.082, 3132.407 1149.489 C 3129.828 1153.895, 3124.562 1162.437, 3120.706 1168.471 C 3116.849 1174.506, 3110.790 1184.827, 3107.240 1191.407 C 3095.006 1214.085, 3094.554 1214.672, 3082.012 1224.197 C 3075.713 1228.980, 3070.382 1232.715, 3070.164 1232.498 C 3068.918 1231.252, 3072.734 1225.066, 3077.774 1220.160 C 3081.595 1216.441, 3085 1211.756, 3087.702 1206.500 C 3092.343 1197.469, 3100.225 1178.891, 3099.656 1178.322 C 3099.450 1178.117, 3095.610 1183.762, 3091.122 1190.867 C 3082.739 1204.139, 3075.110 1213.693, 3075.047 1211 C 3074.932 1206.162, 3077.549 1201.113, 3083.103 1195.455 C 3090.132 1188.293, 3092.101 1183.711, 3094.472 1169 C 3095.403 1163.225, 3096.531 1156.805, 3096.980 1154.734 L 3097.795 1150.969 3087.800 1160.234 C 3079.161 1168.242, 3070.824 1175.315, 3053.575 1189.270 C 3049.713 1192.394, 3049.661 1192.405, 3050.340 1189.972 C 3050.720 1188.613, 3051.474 1184.147, 3052.016 1180.049 C 3052.558 1175.951, 3053.339 1172.306, 3053.751 1171.948 C 3054.163 1171.591, 3058.851 1168.298, 3064.169 1164.631 C 3077.586 1155.379, 3081.759 1150.803, 3088.359 1138.100 C 3091.462 1132.128, 3094 1126.991, 3094 1126.683 C 3094 1126.375, 3089.837 1130.297, 3084.750 1135.398 C 3078.371 1141.795, 3072.707 1146.331, 3066.500 1150.017 C 3061.550 1152.956, 3056.488 1156.006, 3055.250 1156.795 C 3054.012 1157.584, 3053 1158.011, 3053 1157.742 C 3053 1157.474, 3055.300 1154.385, 3058.111 1150.877 C 3062.208 1145.766, 3074.534 1127.742, 3078.437 1121.157 C 3078.875 1120.419, 3068.132 1130.800, 3054.563 1144.226 C 3040.995 1157.653, 3029.660 1168.258, 3029.373 1167.795 C 3027.885 1165.388, 3030.953 1159.929, 3039.089 1150.505 C 3046.784 1141.591, 3050.295 1138.286, 3061.500 1129.403 C 3064.541 1126.993, 3054.260 1132.811, 3047.871 1137.117 C 3040.428 1142.133, 3024.115 1154.839, 3016 1161.942 C 3006.956 1169.858, 3006.763 1169.874, 3009.799 1162.473 C 3012.416 1156.092, 3012.887 1155.597, 3025 1146.520 C 3031.875 1141.368, 3042 1132.558, 3047.500 1126.942 C 3053 1121.326, 3057.050 1116.955, 3056.500 1117.229 C 3051.746 1119.591, 3023.387 1136.754, 3015.250 1142.193 C 3009.613 1145.962, 3005 1148.757, 3005 1148.406 C 3005 1148.055, 3006.527 1145.683, 3008.394 1143.134 C 3010.261 1140.585, 3013.287 1135.575, 3015.118 1132 C 3018.378 1125.635, 3018.455 1125.188, 3018.828 1110.500 C 3019.038 1102.250, 3018.996 1095.725, 3018.736 1096 C 3018.476 1096.275, 3016.775 1101.636, 3014.955 1107.913 C 3011.169 1120.971, 3009.638 1123.519, 2993.761 1143.199 C 2983.322 1156.137, 2980 1159.422, 2980 1156.805 C 2980 1154.486, 2991.377 1134.254, 2996.478 1127.500 C 2999.387 1123.650, 3002.273 1119.510, 3002.892 1118.299 C 3004.179 1115.782, 3011.011 1092.441, 3010.979 1090.670 C 3010.967 1090.027, 3008.582 1094.013, 3005.679 1099.528 C 2998.692 1112.805, 2995.611 1117.074, 2986.632 1125.926 L 2979.099 1133.352 2980.514 1127.426 C 2981.292 1124.167, 2981.945 1121.180, 2981.964 1120.788 C 2981.984 1120.396, 2985.453 1115.896, 2989.673 1110.788 C 3007.538 1089.164, 3007.544 1089.149, 2992.615 1102.835 C 2988.278 1106.810, 2984.523 1109.856, 2984.271 1109.604 C 2983.094 1108.427, 2986.497 1089.131, 2990.051 1076.830 C 2992.223 1069.312, 2993.977 1062.787, 2993.949 1062.330 C 2993.921 1061.874, 2991.694 1065.775, 2989 1071 L 2984.102 1080.500 2983.985 1071.500 L 2983.869 1062.500 2981.565 1073.591 C 2977.751 1091.945, 2979.242 1089.735, 2952.367 1116.866 C 2938.946 1130.415, 2928.458 1140.346, 2929.059 1138.936 C 2929.660 1137.525, 2931.355 1135.589, 2932.826 1134.632 C 2935.109 1133.148, 2935.177 1132.982, 2933.290 1133.502 C 2931.184 1134.081, 2931.249 1133.742, 2934.685 1126.305 C 2939.811 1115.208, 2946.884 1102.656, 2965.032 1072.446 C 2973.771 1057.901, 2980.755 1046, 2980.553 1046 C 2980.351 1046, 2974.237 1053.443, 2966.967 1062.541 C 2959.697 1071.639, 2953.568 1078.901, 2953.346 1078.680 C 2953.125 1078.458, 2953.447 1076.977, 2954.061 1075.389 C 2956.851 1068.175, 2965.763 1042, 2965.429 1042 C 2965.224 1042, 2961.901 1048.412, 2958.045 1056.250 C 2954.188 1064.088, 2946.824 1077.397, 2941.681 1085.828 L 2932.329 1101.155 2925.215 1105.084 C 2921.302 1107.244, 2915.299 1111.597, 2911.874 1114.756 L 2905.648 1120.500 2909.519 1114.500 C 2915.827 1104.722, 2921.620 1094.399, 2929.506 1078.878 C 2933.592 1070.835, 2939.454 1060.935, 2942.532 1056.878 C 2945.610 1052.820, 2949.422 1047.242, 2951.004 1044.483 C 2952.966 1041.060, 2956.831 1037.103, 2963.168 1032.030 C 2973.574 1023.697, 2994.794 1005.163, 2997.038 1002.446 C 2998.462 1000.721, 2990.524 1005.632, 2972.740 1017.478 C 2967.922 1020.688, 2963.799 1023.130, 2963.577 1022.907 C 2963.355 1022.683, 2964.035 1020.732, 2965.087 1018.571 C 2967.947 1012.699, 2967.495 1013.015, 2961.832 1020.851 C 2957.853 1026.358, 2954.995 1029.043, 2949.408 1032.525 C 2929.257 1045.084, 2904.984 1065.879, 2887.856 1085.256 C 2884.085 1089.522, 2881 1092.772, 2881 1092.478 C 2881 1091.076, 2888.138 1077.991, 2896.621 1063.843 C 2906.029 1048.151, 2912.636 1039.012, 2929.402 1018.500 C 2940.871 1004.468, 2938.504 1006.413, 2921.656 1024.864 C 2902.539 1045.801, 2901.267 1047.127, 2906.134 1041.046 C 2908.536 1038.046, 2917.475 1027.985, 2926 1018.689 C 2945.842 997.052, 2947.653 994.551, 2935.979 1004.913 C 2898.307 1038.347, 2890.719 1046.360, 2873.655 1070.724 C 2868.734 1077.751, 2864.946 1082.825, 2865.237 1082 C 2865.528 1081.175, 2868.535 1073.569, 2871.918 1065.098 C 2879.144 1047.003, 2885.657 1034.032, 2893.936 1021.250 C 2897.231 1016.163, 2899.755 1012, 2899.546 1012 C 2898.788 1012, 2882.778 1034.230, 2874.900 1046.220 C 2870.463 1052.974, 2863.158 1066.012, 2858.666 1075.194 C 2852.826 1087.132, 2850.001 1091.904, 2848.750 1091.944 C 2847.787 1091.975, 2847 1091.862, 2847 1091.694 C 2847 1091.526, 2848.604 1087.411, 2850.564 1082.550 C 2860.711 1057.387, 2883.521 1018.235, 2906.961 985.750 C 2909.243 982.587, 2910.897 980, 2910.637 980 C 2910.376 980, 2905.999 984.950, 2900.910 991 C 2895.821 997.050, 2891.488 1002, 2891.281 1002 C 2890.742 1002, 2896.384 993.816, 2903.347 984.500 C 2906.635 980.100, 2909.790 975.825, 2910.358 975 C 2912.589 971.759, 2908.028 976.686, 2896.470 990 C 2881.797 1006.904, 2867.471 1025.910, 2854.285 1045.964 C 2840.731 1066.580, 2840.923 1066.323, 2839.870 1065.270 C 2839.331 1064.731, 2841.222 1059.583, 2844.553 1052.522 C 2847.626 1046.007, 2854.107 1030.737, 2858.957 1018.589 C 2863.807 1006.440, 2868.950 993.857, 2870.387 990.626 C 2874.122 982.229, 2873.581 982.358, 2868.819 991 C 2866.546 995.125, 2861.295 1004.350, 2857.152 1011.500 C 2853.008 1018.650, 2847.214 1028.775, 2844.275 1034 C 2837.647 1045.785, 2838.241 1042.792, 2847.251 1019 C 2854.875 998.868, 2856.718 994.804, 2861.311 988 C 2863.842 984.250, 2863.964 983.833, 2862.041 985.500 L 2859.734 987.500 2860.460 985 C 2860.859 983.625, 2858.816 986.325, 2855.920 991 C 2853.024 995.675, 2845.858 1005.800, 2839.996 1013.500 C 2834.134 1021.200, 2826.973 1031.024, 2824.083 1035.331 C 2821.194 1039.639, 2818.720 1043.014, 2818.586 1042.831 C 2818.452 1042.649, 2818.738 1038, 2819.221 1032.500 C 2821.189 1010.112, 2820.534 1012.331, 2827.316 1005.064 C 2839.321 992.201, 2840.368 990.643, 2831.051 999.509 C 2820.213 1009.821, 2820.395 1009.900, 2821.484 995.371 L 2822.180 986.083 2831.840 974.265 C 2841.351 962.629, 2867.855 927.928, 2869.467 925 C 2870.536 923.060, 2872.538 920.960, 2842.299 953.500 C 2827.988 968.900, 2815.251 982.400, 2813.994 983.500 L 2811.709 985.500 2812.390 978.680 C 2813.252 970.037, 2815.618 956.234, 2817.545 948.601 C 2818.365 945.356, 2818.894 942.561, 2818.723 942.389 C 2817.936 941.603, 2807.602 971.864, 2804.642 983.617 C 2801.640 995.542, 2800.941 997.198, 2796.957 1001.822 C 2794.547 1004.620, 2792.489 1006.817, 2792.383 1006.704 C 2792.276 1006.592, 2792.599 1002.675, 2793.100 998 C 2793.600 993.325, 2793.731 983.875, 2793.390 977 L 2792.770 964.500 2797.377 952.076 C 2799.912 945.243, 2801.831 939.498, 2801.643 939.309 C 2801.454 939.121, 2799.327 943.137, 2796.916 948.233 L 2792.531 957.500 2792.211 953.316 C 2791.995 950.481, 2792.595 947.754, 2794.075 944.853 C 2796.712 939.685, 2809.004 911.095, 2808.991 910.162 C 2808.985 909.798, 2807.596 911.975, 2805.904 915 C 2796.252 932.249, 2793.087 937.447, 2786.727 946.500 C 2777.893 959.075, 2777.606 959.366, 2778.368 955 C 2778.704 953.075, 2779.648 945.738, 2780.467 938.696 L 2781.955 925.893 2788.316 918.600 C 2797.023 908.617, 2820.547 876.971, 2824.443 870 C 2825.687 867.774, 2824.076 869.511, 2811.458 884 C 2796.359 901.337, 2783.873 915, 2783.127 915.001 C 2782.782 915.002, 2782.573 910.164, 2782.663 904.251 C 2782.844 892.339, 2782.647 892.751, 2780.923 907.893 L 2779.740 918.285 2770.846 927.829 C 2765.954 933.078, 2758.700 941.671, 2754.726 946.925 C 2746.639 957.615, 2738.267 966.273, 2736.601 965.667 C 2735.995 965.448, 2733.517 966.871, 2731.092 968.830 L 2726.685 972.392 2727.416 969.446 C 2727.818 967.826, 2729.083 964.475, 2730.228 962 C 2731.373 959.525, 2732.229 956.975, 2732.130 956.334 C 2731.781 954.064, 2743.098 918.548, 2744.786 916.617 C 2745.729 915.539, 2745.938 914.985, 2745.250 915.387 C 2744.518 915.815, 2744 915.583, 2744 914.825 C 2744 914.113, 2743.213 914.915, 2742.250 916.607 C 2739.996 920.569, 2725.876 933.578, 2710 946.318 C 2689.884 962.460, 2659.516 989.672, 2636.250 1012.401 C 2628.963 1019.521, 2623 1024.796, 2623 1024.123 C 2623 1022.373, 2664.515 981.055, 2677 970.378 C 2682.775 965.440, 2694.923 955.347, 2703.995 947.950 C 2731.600 925.441, 2739.231 917.189, 2758.503 889 L 2764.315 880.500 2755.407 889.051 C 2735.492 908.169, 2729.581 913.202, 2708.747 928.781 C 2688.122 944.203, 2677.490 952.495, 2665 962.901 C 2661.975 965.421, 2672.638 954.102, 2688.695 937.749 C 2721.325 904.516, 2734.048 890.727, 2744.287 877.500 C 2750.947 868.896, 2768 843.728, 2768 842.502 C 2768 842.180, 2764.241 846.323, 2759.646 851.708 C 2751.905 860.780, 2719.024 892.635, 2682 926.930 C 2673.475 934.827, 2655.569 952.278, 2642.209 965.711 C 2623.266 984.757, 2618.259 989.316, 2619.469 986.419 C 2621.122 982.464, 2636.486 959.024, 2656.778 929.500 C 2664.826 917.790, 2671.606 906.499, 2676.180 897.189 C 2680.047 889.318, 2683.027 882.693, 2682.802 882.468 C 2682.577 882.243, 2679.428 886.208, 2675.806 891.279 C 2672.183 896.351, 2664.557 905.960, 2658.860 912.633 C 2653.162 919.307, 2644 931.097, 2638.500 938.833 C 2633 946.570, 2628.235 952.922, 2627.912 952.950 C 2627.589 952.977, 2627.963 948.837, 2628.745 943.750 C 2630.167 934.490, 2629.855 911.833, 2628.087 896 C 2627.157 887.666, 2626.713 889.456, 2623.996 912.500 C 2619.875 947.447, 2613.165 973.101, 2604.922 985.425 C 2602.135 989.591, 2599.694 993, 2599.498 993 C 2599.301 993, 2600.427 989.472, 2602.001 985.160 C 2607.439 970.259, 2609.196 952.778, 2607.092 934.500 L 2606.402 928.500 2605.710 935.500 C 2603.923 953.586, 2603.193 957.061, 2599.573 964.727 C 2594.998 974.415, 2584.738 993, 2583.965 993 C 2583.648 993, 2582.884 987.487, 2582.266 980.750 L 2581.142 968.500 2586.490 957 C 2601.952 923.749, 2603.152 917.856, 2607.303 854.776 C 2607.812 847.045, 2606.163 853.157, 2602.522 872.500 C 2596.250 905.823, 2592.666 918.809, 2585.752 933.273 C 2582.393 940.298, 2579.352 945.698, 2578.994 945.273 C 2578.636 944.848, 2577.562 939.325, 2576.608 933 C 2575.653 926.675, 2573.769 916.550, 2572.421 910.500 C 2569.672 898.164, 2560.125 868.264, 2560.049 871.753 C 2559.978 874.995, 2563.783 907.800, 2565.529 919 C 2567.686 932.841, 2570 953.737, 2570 959.373 C 2570 963.488, 2569.016 966.044, 2563.750 975.601 C 2560.313 981.840, 2557.162 986.957, 2556.750 986.972 C 2555.241 987.028, 2556.057 978.269, 2558.102 972.465 C 2559.858 967.481, 2567.088 936.201, 2566.960 934.143 C 2566.938 933.789, 2566.206 934.850, 2565.333 936.500 C 2561.322 944.083, 2552.794 958.127, 2552.424 957.758 C 2552.198 957.532, 2550.639 949.736, 2548.958 940.433 C 2541.495 899.112, 2529.968 854, 2526.874 854 C 2526.366 854, 2525.468 855.237, 2524.879 856.750 C 2524.045 858.892, 2524.284 861.712, 2525.959 869.500 C 2531.907 897.152, 2536.330 919.723, 2538.569 933.847 L 2541.051 949.500 2536.775 953.247 C 2534.424 955.308, 2532.194 956.996, 2531.820 956.997 C 2531.446 956.999, 2531.558 955.540, 2532.070 953.757 C 2533.609 948.390, 2533.147 947.804, 2530.082 951.234 L 2527.164 954.500 2526.634 952 C 2526.342 950.625, 2524.012 939.600, 2521.455 927.500 C 2518.898 915.400, 2515.059 899.200, 2512.922 891.500 C 2508.551 875.745, 2498.053 847.166, 2498.045 851 C 2498.034 856.288, 2500.168 868.371, 2505.131 891.117 C 2510.212 914.403, 2510.484 917.590, 2507.715 921.376 C 2506.487 923.055, 2505.525 920.739, 2498.578 899.376 C 2489.566 871.665, 2477.990 839.983, 2473.895 831.825 C 2470.691 825.440, 2467.545 823.545, 2465.270 826.627 C 2463.333 829.253, 2464.070 832.259, 2471.947 853.855 C 2484.247 887.574, 2498 931.980, 2498 937.971 C 2498 943.948, 2496.359 941.345, 2490.941 926.773 C 2487.818 918.373, 2482.701 905.650, 2479.570 898.500 C 2473.469 884.567, 2452.208 842.505, 2448.962 837.947 C 2447.883 836.431, 2447 834.682, 2447 834.060 C 2447 832.147, 2443.004 834.847, 2442.968 836.785 C 2442.945 838.033, 2442.336 837.684, 2440.728 835.500 C 2435.186 827.972, 2430.746 824, 2427.873 824 C 2423.598 824, 2424.154 826.947, 2429.810 834.271 C 2440.647 848.302, 2458.134 877.434, 2466.618 895.589 C 2470.272 903.409, 2470.819 905.346, 2469.990 907.527 C 2469.445 908.959, 2468.974 915.838, 2468.941 922.815 C 2468.902 931.338, 2468.566 935.008, 2467.919 934 C 2467.390 933.175, 2463.763 926.875, 2459.860 920 C 2455.958 913.125, 2449.026 902.325, 2444.457 896 C 2439.888 889.675, 2432.745 878.285, 2428.584 870.689 C 2420.251 855.478, 2413.197 844.200, 2410.768 842.208 C 2409.902 841.497, 2407.835 840.526, 2406.175 840.050 L 2403.156 839.184 2403.722 842.842 C 2404.034 844.854, 2405.604 849.133, 2407.210 852.351 C 2408.817 855.569, 2409.989 858.321, 2409.815 858.466 C 2409.642 858.611, 2408.463 859.269, 2407.196 859.928 C 2405.930 860.588, 2404.077 862.469, 2403.080 864.108 L 2401.268 867.089 2394.711 858.295 C 2391.105 853.458, 2386.712 848.150, 2384.950 846.500 C 2383.188 844.850, 2379.949 841.250, 2377.752 838.500 C 2373.848 833.613, 2362.341 823, 2360.947 823 C 2360.561 823, 2359.742 823.606, 2359.127 824.347 M 2414.017 869.250 C 2414.027 870.487, 2414.693 875.514, 2415.497 880.421 C 2416.807 888.415, 2417.625 890.440, 2423.372 899.921 C 2426.899 905.739, 2431.936 914.505, 2434.565 919.401 C 2438.915 927.501, 2439.423 928.088, 2440.224 925.924 C 2441.505 922.460, 2440.744 920.485, 2433.578 908.666 C 2430.020 902.800, 2427.297 898, 2427.525 898 C 2427.753 898, 2430.216 901.375, 2433 905.500 C 2435.784 909.625, 2438.267 913, 2438.518 913 C 2439.487 913, 2433.635 900.974, 2427.083 889.500 C 2423.314 882.900, 2419.046 875.138, 2417.598 872.250 C 2414.701 866.470, 2413.991 865.876, 2414.017 869.250 M 2334.555 911.225 C 2333.700 912.446, 2333 913.789, 2333 914.209 C 2333 915.008, 2338.771 917.653, 2342.622 918.620 C 2344.562 919.107, 2344.784 918.869, 2344.286 916.841 C 2343.519 913.718, 2342.199 912.154, 2338.878 910.437 C 2336.314 909.111, 2335.995 909.169, 2334.555 911.225 M 2387.210 919.750 C 2395.573 934.653, 2394.975 933.808, 2394.988 930.735 C 2394.996 928.981, 2393.142 925.415, 2389.920 920.985 C 2387.126 917.143, 2384.647 914, 2384.411 914 C 2384.176 914, 2385.435 916.587, 2387.210 919.750 M 2299 923.831 C 2299.825 924.341, 2301.625 925.059, 2303 925.427 C 2304.737 925.892, 2305.042 925.813, 2304 925.169 C 2303.175 924.659, 2301.375 923.941, 2300 923.573 C 2298.263 923.108, 2297.958 923.187, 2299 923.831 M 2723.550 940.911 C 2714.815 950.987, 2698.093 968.375, 2685.325 980.661 C 2672.841 992.672, 2658.998 1006.040, 2654.563 1010.367 L 2646.500 1018.234 2655 1011.737 C 2659.675 1008.164, 2672.725 999.024, 2684 991.426 C 2711.131 973.141, 2722.700 964.484, 2724.388 961.201 C 2727.724 954.711, 2740.263 923, 2739.494 923 C 2739.264 923, 2732.090 931.060, 2723.550 940.911 M 2511.839 927.500 C 2509.592 931.223, 2509.943 935.879, 2513.581 950.635 C 2516.205 961.277, 2517.696 965.704, 2518.414 964.986 C 2519.133 964.267, 2518.757 959.867, 2517.198 950.724 C 2514.267 933.542, 2512.587 926.260, 2511.839 927.500 M 2317.514 931.022 C 2318.405 932.464, 2330 938.206, 2330 937.206 C 2330 935.263, 2327.195 932.946, 2323.124 931.526 C 2317.999 929.738, 2316.645 929.617, 2317.514 931.022 M 2772.261 936.556 C 2768.431 941.037, 2768.261 941.541, 2767.642 950.258 C 2766.230 970.155, 2767.237 977.909, 2769.975 968.214 C 2771.539 962.671, 2777.084 932.751, 2776.630 932.297 C 2776.414 932.081, 2774.448 933.998, 2772.261 936.556 M 2448.619 942 C 2448.949 945.025, 2450.770 951.325, 2452.666 956 C 2454.562 960.675, 2457.922 969.225, 2460.133 975 C 2464.389 986.118, 2466.766 990.128, 2465.473 984.009 C 2464.139 977.698, 2453.115 946.146, 2450.540 941.272 L 2448.019 936.500 2448.619 942 M 2349 943.550 C 2349 945.865, 2354.580 954, 2356.168 954 C 2357.288 954, 2354.393 947.092, 2352.307 944.787 C 2350.749 943.065, 2349 942.411, 2349 943.550 M 2761.737 949.750 C 2752.059 962.456, 2751.052 964.463, 2748.454 976.219 C 2744.764 992.911, 2742.210 1001.429, 2738.350 1009.904 C 2736.448 1014.082, 2735.308 1017.050, 2735.817 1016.500 C 2739.053 1013.007, 2760.293 982.431, 2761.026 980.213 C 2763.161 973.748, 2767.800 944, 2766.674 944 C 2766.367 944, 2764.146 946.587, 2761.737 949.750 M 2488.031 956 C 2488.031 959.916, 2488.310 961.068, 2489 960 C 2489.533 959.175, 2489.969 957.375, 2489.969 956 C 2489.969 954.625, 2489.533 952.825, 2489 952 C 2488.310 950.932, 2488.031 952.084, 2488.031 956 M 2410.423 957.605 C 2410.807 959.747, 2411.622 963.300, 2412.233 965.500 C 2413.812 971.182, 2414.413 967.305, 2413.005 960.524 C 2411.674 954.111, 2409.317 951.448, 2410.423 957.605 M 2535.626 963.726 C 2530.933 972.123, 2530.773 972.668, 2531.318 978.473 C 2532.335 989.307, 2534.260 1003.073, 2534.698 1002.635 C 2534.934 1002.400, 2536.982 997.098, 2539.249 990.853 C 2542.451 982.036, 2543.381 978.048, 2543.411 973 C 2543.455 965.436, 2542.160 954.999, 2541.178 955.003 C 2540.805 955.005, 2538.307 958.930, 2535.626 963.726 M 2786.659 960.302 C 2785.097 963.161, 2781.588 968.934, 2778.862 973.130 C 2774.916 979.205, 2773.304 983.054, 2770.953 992.014 C 2769.329 998.204, 2768.010 1003.546, 2768.022 1003.884 C 2768.065 1005.104, 2778.173 987.247, 2784.092 975.494 C 2789.126 965.499, 2790.085 962.786, 2789.819 959.296 L 2789.500 955.103 2786.659 960.302 M 2372.427 959.750 C 2376.048 966.486, 2382.265 973.069, 2383.674 971.659 C 2384.709 970.624, 2379.161 962.360, 2375.616 959.656 C 2371.210 956.296, 2370.580 956.314, 2372.427 959.750 M 2503.237 963.036 C 2503.801 965.256, 2504.414 966.920, 2504.600 966.733 C 2505.233 966.100, 2503.742 959, 2502.975 959 C 2502.556 959, 2502.674 960.816, 2503.237 963.036 M 2732.269 972.750 C 2723.718 980.883, 2722.817 982.123, 2719.504 990.336 C 2717.543 995.196, 2714.340 1002.346, 2712.386 1006.226 C 2709.880 1011.203, 2709.178 1013.492, 2710.001 1014.001 C 2710.828 1014.512, 2710.718 1014.894, 2709.625 1015.314 C 2707.453 1016.147, 2703.420 1024.510, 2701.028 1033.141 C 2699.913 1037.166, 2699 1040.542, 2699 1040.643 C 2699 1040.744, 2700.238 1040.518, 2701.750 1040.139 C 2703.880 1039.607, 2705.218 1037.990, 2707.682 1032.976 C 2711.322 1025.569, 2719.294 1003.854, 2722.175 993.500 C 2724.951 983.523, 2725.218 983.020, 2725.912 986.470 L 2726.509 989.440 2729.612 984.470 C 2734.601 976.478, 2741.978 964, 2741.714 964 C 2741.580 964, 2737.330 967.938, 2732.269 972.750 M 2716.028 976.426 C 2714.542 980.335, 2714.836 980.950, 2716.618 977.662 C 2717.464 976.100, 2717.909 974.576, 2717.606 974.273 C 2717.304 973.970, 2716.593 974.939, 2716.028 976.426 M 2741.274 981.250 C 2737.226 988.776, 2729.995 1005.049, 2730.007 1006.608 C 2730.017 1008.017, 2733.797 1002.105, 2737.427 995 C 2740.665 988.664, 2746.348 974, 2745.565 974 C 2745.350 974, 2743.419 977.263, 2741.274 981.250 M 2787.876 976.926 C 2787.253 978.714, 2780.517 992.829, 2772.909 1008.293 C 2765.300 1023.756, 2759.272 1036.606, 2759.513 1036.847 C 2759.755 1037.088, 2763.357 1036.044, 2767.518 1034.526 C 2774.675 1031.916, 2775.221 1031.497, 2777.603 1026.797 C 2778.988 1024.064, 2781.891 1014.889, 2784.055 1006.407 C 2788.880 987.494, 2791.655 966.086, 2787.876 976.926 M 2493.054 983.844 L 2490.688 990.668 2492.503 997.373 C 2493.501 1001.061, 2494.646 1004.281, 2495.047 1004.529 C 2495.448 1004.777, 2496.790 1002.482, 2498.029 999.429 C 2500.256 993.941, 2500.263 993.791, 2498.593 986.191 C 2497.663 981.963, 2496.570 978.170, 2496.162 977.762 C 2495.754 977.354, 2494.356 980.091, 2493.054 983.844 M 2708.924 983.750 L 2706.500 986.500 2709.250 984.076 C 2710.762 982.742, 2712 981.505, 2712 981.326 C 2712 980.541, 2711.190 981.180, 2708.924 983.750 M 2567.122 994.139 L 2562.743 1002.500 2568.037 997.323 C 2573.013 992.456, 2573.276 991.954, 2572.415 988.962 L 2571.500 985.779 2567.122 994.139 M 2522.195 989.500 C 2522.215 991.150, 2522.439 991.704, 2522.693 990.731 C 2522.947 989.758, 2522.930 988.408, 2522.656 987.731 C 2522.382 987.054, 2522.175 987.850, 2522.195 989.500 M 2814.479 994.235 C 2811.890 997.114, 2809.435 1000.377, 2809.024 1001.485 C 2808.089 1004.005, 2805.690 1023.023, 2806.238 1023.571 C 2806.459 1023.793, 2808.786 1021.490, 2811.407 1018.453 C 2815.692 1013.490, 2816.305 1012.152, 2817.471 1005.216 C 2819.076 995.667, 2819.909 989, 2819.498 989 C 2819.326 989, 2817.067 991.356, 2814.479 994.235 M 2570.133 1007 C 2566.549 1018.591, 2566.526 1018.855, 2569.440 1015 C 2572.606 1010.811, 2573.251 1008.581, 2572.795 1003.405 C 2572.460 999.599, 2572.393 999.690, 2570.133 1007 M 2748.696 1016.807 C 2742.608 1025.495, 2742.112 1026.555, 2744.572 1025.611 C 2745.437 1025.279, 2746.993 1025.461, 2748.030 1026.016 C 2749.495 1026.800, 2750.130 1026.626, 2750.872 1025.239 C 2752.251 1022.662, 2755.168 1011.003, 2754.748 1009.744 C 2754.553 1009.158, 2751.829 1012.336, 2748.696 1016.807 M 2794.304 1019.220 C 2792.546 1021.671, 2790.971 1024.297, 2790.804 1025.054 C 2790.637 1025.811, 2789.724 1027.121, 2788.775 1027.965 C 2787.814 1028.820, 2785.244 1035.921, 2782.973 1044 C 2780.730 1051.975, 2778.642 1059.400, 2778.332 1060.500 C 2778.023 1061.600, 2781.450 1056.964, 2785.949 1050.199 C 2793.835 1038.340, 2794.200 1037.532, 2796.098 1027.741 C 2797.181 1022.155, 2797.939 1016.950, 2797.783 1016.174 C 2797.619 1015.356, 2796.157 1016.637, 2794.304 1019.220 M 2676.108 1020.593 C 2673.299 1023.119, 2671 1025.819, 2671 1026.593 C 2671 1029.224, 2672.697 1028.010, 2677.419 1022 C 2680.011 1018.700, 2681.927 1016, 2681.675 1016 C 2681.422 1016, 2678.918 1018.067, 2676.108 1020.593 M 2808.760 1032.214 C 2805.734 1038.971, 2802.766 1046.075, 2802.164 1048 C 2801.030 1051.624, 2795.964 1080.726, 2796.047 1083.136 C 2796.107 1084.869, 2801.298 1075.115, 2803.894 1068.392 C 2805.962 1063.033, 2815.379 1021.046, 2814.671 1020.338 C 2814.446 1020.112, 2811.786 1025.457, 2808.760 1032.214 M 2615.877 1032.226 C 2613.452 1035.127, 2610.825 1038.400, 2610.039 1039.500 C 2608.756 1041.295, 2608.767 1041.346, 2610.146 1040 C 2614.883 1035.375, 2621.232 1027.899, 2620.794 1027.460 C 2620.514 1027.180, 2618.301 1029.325, 2615.877 1032.226 M 2543.500 1038 C 2542.503 1040.211, 2541.926 1042.259, 2542.218 1042.552 C 2542.511 1042.844, 2543.500 1041.208, 2544.417 1038.917 C 2546.583 1033.503, 2545.856 1032.776, 2543.500 1038 M 2738 1036.507 C 2734.935 1038.078, 2732.314 1040.586, 2729.780 1044.374 L 2726.059 1049.936 2733.280 1047.340 C 2737.251 1045.912, 2741.287 1043.852, 2742.250 1042.761 C 2744.006 1040.772, 2744.654 1035.518, 2743.250 1034.660 C 2742.838 1034.407, 2740.475 1035.239, 2738 1036.507 M 2653.417 1040.458 C 2651.262 1042.360, 2649.950 1043.934, 2650.500 1043.955 C 2652.453 1044.029, 2658 1040.005, 2658 1038.515 C 2658 1036.462, 2657.888 1036.510, 2653.417 1040.458 M 2764.217 1041.644 C 2759.709 1044.210, 2758.065 1045.682, 2758.395 1046.860 C 2758.648 1047.762, 2759.159 1050.891, 2759.530 1053.814 C 2759.902 1056.737, 2760.446 1058.887, 2760.741 1058.592 C 2761.315 1058.019, 2771.018 1037.976, 2770.694 1038.035 C 2770.587 1038.054, 2767.673 1039.678, 2764.217 1041.644 M 2820.775 1056.266 C 2813.376 1070.141, 2811.226 1075, 2812.482 1075 C 2813.705 1075, 2818.671 1072.101, 2819.820 1070.717 C 2820.952 1069.353, 2829.173 1042.839, 2828.631 1042.298 C 2828.485 1042.151, 2824.949 1048.437, 2820.775 1056.266 M 2696.622 1049.214 C 2695.782 1052.081, 2695.258 1054.591, 2695.458 1054.791 C 2695.658 1054.992, 2696.965 1053.474, 2698.361 1051.419 C 2700.302 1048.563, 2700.668 1047.249, 2699.915 1045.841 C 2699.373 1044.829, 2698.754 1044, 2698.540 1044 C 2698.326 1044, 2697.463 1046.346, 2696.622 1049.214 M 2917.394 1069.250 C 2902.368 1083.667, 2887.994 1100.314, 2888.020 1103.269 C 2888.036 1105.182, 2888.571 1104.861, 2891.770 1101.016 C 2897.332 1094.330, 2912.384 1077.348, 2921.858 1067.068 C 2926.455 1062.081, 2929.970 1058, 2929.668 1058 C 2929.366 1058, 2923.843 1063.063, 2917.394 1069.250 M 2729.750 1060.572 C 2727.428 1061.831, 2727 1062.713, 2727 1066.232 C 2727 1070.880, 2727.465 1070.616, 2731.378 1063.750 C 2734.274 1058.667, 2734.054 1058.237, 2729.750 1060.572 M 2784.294 1067.993 C 2781.981 1072.397, 2780.432 1076, 2780.853 1076 C 2782.631 1076, 2784.825 1073.161, 2786.901 1068.177 C 2790.523 1059.481, 2788.828 1059.361, 2784.294 1067.993 M 2874.922 1085.186 C 2866.538 1098.681, 2859.039 1111.911, 2859.014 1113.250 C 2859.006 1113.662, 2859.787 1113.993, 2860.750 1113.986 C 2862.013 1113.975, 2864.631 1109.593, 2870.158 1098.236 C 2874.370 1089.581, 2879.217 1080.138, 2880.929 1077.250 C 2882.640 1074.362, 2883.832 1072, 2883.577 1072 C 2883.322 1072, 2879.428 1077.934, 2874.922 1085.186 M 2779.561 1078.348 C 2778.152 1079.757, 2777 1081.390, 2777 1081.978 C 2777 1083.446, 2781.678 1080.281, 2782.440 1078.297 C 2783.461 1075.634, 2782.253 1075.656, 2779.561 1078.348 M 2732.114 1081.011 C 2730.881 1083.205, 2730.089 1085, 2730.354 1085 C 2731.122 1085, 2735.275 1077.942, 2734.792 1077.459 C 2734.552 1077.219, 2733.347 1078.817, 2732.114 1081.011 M 2919.187 1084.750 C 2905.277 1100.493, 2893.017 1115.605, 2893.024 1117 C 2893.027 1117.825, 2893.409 1119.097, 2893.872 1119.828 C 2894.479 1120.784, 2896.064 1119.249, 2899.549 1114.328 C 2902.208 1110.572, 2907.577 1103.225, 2911.480 1098 C 2922.409 1083.371, 2926.217 1078, 2925.661 1078 C 2925.381 1078, 2922.467 1081.037, 2919.187 1084.750 M 2646.640 1082.032 C 2645.631 1083.741, 2645.013 1085.346, 2645.267 1085.600 C 2645.943 1086.277, 2649.184 1081.051, 2648.801 1079.902 C 2648.622 1079.365, 2647.649 1080.323, 2646.640 1082.032 M 2741.213 1089.411 C 2739.772 1092.596, 2739.938 1093.274, 2741.866 1092.083 C 2742.586 1091.638, 2743.023 1090.214, 2742.837 1088.919 C 2742.507 1086.611, 2742.474 1086.621, 2741.213 1089.411 M 2812.985 1093.518 C 2812.070 1094.620, 2811.999 1095.399, 2812.743 1096.143 C 2813.487 1096.887, 2814.006 1096.556, 2814.492 1095.025 C 2815.377 1092.236, 2814.652 1091.510, 2812.985 1093.518 M 2844.593 1100.897 C 2842.630 1103.066, 2835.702 1121.036, 2836.516 1121.849 C 2837.714 1123.047, 2840.066 1118.965, 2843.528 1109.678 C 2845.541 1104.276, 2846.994 1099.661, 2846.755 1099.422 C 2846.516 1099.183, 2845.544 1099.847, 2844.593 1100.897 M 2736.270 1104.250 C 2734.308 1106.374, 2732.013 1112.702, 2732.009 1116 C 2732.008 1117.478, 2732.943 1116.128, 2738.417 1106.750 C 2741.446 1101.561, 2740.149 1100.051, 2736.270 1104.250 M 2884.543 1105.931 C 2884.226 1106.443, 2884.425 1107.144, 2884.984 1107.490 C 2885.543 1107.835, 2886 1107.416, 2886 1106.559 C 2886 1104.802, 2885.400 1104.544, 2884.543 1105.931 M 2827.684 1112.120 C 2825.604 1113.934, 2824.695 1115.999, 2823.862 1120.801 C 2822.791 1126.971, 2823.159 1129.296, 2824.911 1127.433 C 2826.174 1126.091, 2831.128 1111.884, 2830.740 1110.719 C 2830.560 1110.181, 2829.185 1110.811, 2827.684 1112.120 M 2792.730 1114.750 C 2792.453 1115.713, 2791.903 1117.287, 2791.506 1118.250 C 2790.363 1121.027, 2792.552 1120.280, 2793.839 1117.453 C 2794.478 1116.052, 2795 1114.477, 2795 1113.953 C 2795 1112.306, 2793.257 1112.918, 2792.730 1114.750 M 2605.573 1116.521 C 2604.513 1117.323, 2603.917 1118.250, 2604.248 1118.581 C 2605.283 1119.617, 2609 1117.936, 2609 1116.433 C 2609 1114.635, 2608.034 1114.660, 2605.573 1116.521 M 2873.306 1122.468 C 2871.471 1124.082, 2871.019 1124.937, 2872 1124.937 C 2872.825 1124.937, 2874.309 1123.826, 2875.297 1122.469 C 2877.583 1119.328, 2876.876 1119.327, 2873.306 1122.468 M 2760.970 1125.055 C 2759.160 1128.438, 2760.377 1129.324, 2762.319 1126.037 C 2763.306 1124.367, 2763.653 1123, 2763.092 1123 C 2762.530 1123, 2761.575 1123.925, 2760.970 1125.055 M 2948.761 1134.250 C 2935.216 1149.181, 2931.785 1153.448, 2929.797 1157.833 C 2928.717 1160.216, 2928.021 1162.355, 2928.252 1162.585 C 2928.606 1162.940, 2944.872 1142.498, 2954.337 1129.804 C 2958.860 1123.737, 2956.830 1125.356, 2948.761 1134.250 M 2962.271 1141.750 C 2954.515 1150.572, 2946 1161.526, 2946 1162.683 C 2946 1163.186, 2947.548 1163.418, 2949.439 1163.197 C 2954.713 1162.581, 2962.568 1153.030, 2966.169 1142.855 C 2967.698 1138.535, 2968.782 1135, 2968.577 1135 C 2968.373 1135, 2965.535 1138.037, 2962.271 1141.750 M 2905.667 1139.667 C 2905.300 1140.033, 2905 1140.798, 2905 1141.367 C 2905 1141.993, 2905.466 1141.934, 2906.183 1141.217 C 2906.834 1140.566, 2907.134 1139.801, 2906.850 1139.517 C 2906.566 1139.233, 2906.033 1139.300, 2905.667 1139.667 M 2786.174 1144.314 C 2783.624 1147.029, 2783.462 1148.309, 2785.459 1149.966 C 2786.667 1150.968, 2787.027 1150.688, 2787.552 1148.338 C 2787.901 1146.777, 2788.399 1144.713, 2788.660 1143.750 C 2789.290 1141.426, 2788.778 1141.542, 2786.174 1144.314 M 2843.872 1144.750 C 2842.629 1146.336, 2842.664 1146.371, 2844.250 1145.128 C 2845.213 1144.373, 2846 1143.585, 2846 1143.378 C 2846 1142.555, 2845.179 1143.084, 2843.872 1144.750 M 2635.175 1148.516 C 2634.487 1150.024, 2634.131 1151.464, 2634.382 1151.715 C 2635.060 1152.394, 2637.186 1148.059, 2636.777 1146.831 C 2636.583 1146.249, 2635.862 1147.007, 2635.175 1148.516 M 2910.660 1151.250 C 2905.674 1157.886, 2900 1166.358, 2900 1167.166 C 2900 1168.550, 2905.671 1168.102, 2906.900 1166.620 C 2908.088 1165.189, 2914.169 1148, 2913.487 1148 C 2913.275 1148, 2912.003 1149.463, 2910.660 1151.250 M 2826.759 1153.434 C 2824.806 1154.862, 2821.983 1161.003, 2822.032 1163.718 C 2822.061 1165.339, 2822.206 1165.319, 2823.644 1163.500 C 2825.465 1161.197, 2829.331 1152.998, 2828.832 1152.499 C 2828.648 1152.314, 2827.715 1152.735, 2826.759 1153.434 M 3082.019 1171.057 C 3074.112 1180.747, 3064.164 1191.322, 3054.116 1200.723 C 3039.181 1214.693, 3035.966 1218.300, 3037.278 1219.612 C 3038.063 1220.396, 3038.463 1220.095, 3061.909 1201.049 L 3082.161 1184.598 3086.967 1174.549 C 3091.754 1164.542, 3095.289 1156, 3094.645 1156 C 3094.459 1156, 3088.777 1162.776, 3082.019 1171.057 M 3019.535 1172.028 C 3015.238 1176.443, 3011.903 1180.236, 3012.124 1180.457 C 3012.345 1180.678, 3014.663 1180.403, 3017.276 1179.846 C 3022.977 1178.630, 3026.563 1174.583, 3027.581 1168.216 C 3027.952 1165.897, 3028.051 1164, 3027.801 1164 C 3027.551 1164, 3023.831 1167.613, 3019.535 1172.028 M 2761.714 1173.214 C 2760.862 1175.021, 2759.875 1178.300, 2759.521 1180.500 C 2758.929 1184.172, 2758.999 1184.347, 2760.379 1182.640 C 2761.844 1180.827, 2764.429 1171.095, 2763.652 1170.318 C 2763.437 1170.104, 2762.565 1171.407, 2761.714 1173.214 M 2840.141 1173.637 C 2838.940 1176.317, 2838.966 1176.394, 2840.545 1174.848 C 2841.473 1173.940, 2842.050 1172.651, 2841.828 1171.985 C 2841.606 1171.318, 2840.847 1172.062, 2840.141 1173.637 M 2980.742 1181.288 C 2975.623 1185.820, 2974.636 1187.627, 2978.250 1185.852 C 2980.707 1184.646, 2987.769 1176.976, 2986.366 1177.038 C 2985.890 1177.060, 2983.359 1178.972, 2980.742 1181.288 M 3037.391 1183.460 C 3030.607 1188.567, 3030.253 1189.038, 3029.623 1193.784 C 3029.260 1196.520, 3027.847 1202.041, 3026.482 1206.054 C 3023.300 1215.408, 3023.356 1215.986, 3027.092 1212.437 C 3031.319 1208.421, 3033.971 1202.918, 3034.150 1197.790 C 3034.254 1194.809, 3034.427 1194.339, 3034.716 1196.250 C 3034.945 1197.763, 3035.455 1199, 3035.850 1199 C 3036.755 1199, 3046.064 1180.936, 3046.027 1179.250 C 3045.984 1177.268, 3044.944 1177.775, 3037.391 1183.460 M 2946.981 1188.255 C 2942.591 1192.304, 2937.541 1198.874, 2938.264 1199.597 C 2938.966 1200.299, 2946.280 1196.573, 2947.804 1194.737 C 2949.355 1192.868, 2952.105 1184.999, 2951.206 1185.005 C 2950.818 1185.007, 2948.917 1186.470, 2946.981 1188.255 M 3007 1188.474 C 3002.249 1190.941, 2997.419 1194.955, 2989.050 1203.391 C 2982.752 1209.739, 2977.901 1215.234, 2978.269 1215.602 C 2979.279 1216.613, 2982.574 1214.053, 2992.806 1204.309 C 2997.925 1199.434, 3002.203 1195.537, 3002.315 1195.648 C 3002.426 1195.759, 3005.213 1193.426, 3008.508 1190.464 C 3011.804 1187.502, 3014.275 1185.083, 3014 1185.088 C 3013.725 1185.094, 3010.575 1186.617, 3007 1188.474 M 2752.079 1190.583 C 2752.127 1191.748, 2752.364 1191.985, 2752.683 1191.188 C 2752.972 1190.466, 2752.936 1189.603, 2752.604 1189.271 C 2752.272 1188.939, 2752.036 1189.529, 2752.079 1190.583 M 3016.580 1200.912 C 3015.552 1202.047, 3014.985 1203.975, 3015.182 1205.662 C 3015.488 1208.277, 3015.646 1208.126, 3017.196 1203.750 C 3018.121 1201.138, 3018.751 1199, 3018.594 1199 C 3018.438 1199, 3017.532 1199.860, 3016.580 1200.912 M 3065.500 1211.211 C 3061.100 1215.099, 3052.898 1221.843, 3047.273 1226.198 C 3033.239 1237.065, 3032.783 1238.004, 3043.170 1234.652 C 3048.205 1233.027, 3052.359 1230.539, 3060.119 1224.500 C 3069.583 1217.134, 3070.580 1216.027, 3072.699 1210.536 C 3073.964 1207.256, 3075 1204.444, 3075 1204.286 C 3075 1203.207, 3072.487 1205.039, 3065.500 1211.211 M 3002.680 1217.765 C 2997.904 1223.668, 2994.407 1228.636, 2994.909 1228.803 C 2995.411 1228.970, 2998.309 1228.385, 3001.349 1227.501 C 3006.425 1226.025, 3007.001 1225.553, 3008.425 1221.697 C 3010.171 1216.971, 3012.252 1207.919, 3011.716 1207.383 C 3011.523 1207.189, 3007.456 1211.861, 3002.680 1217.765 M 2959 1211 C 2958.411 1212.100, 2958.287 1213, 2958.724 1213 C 2959.161 1213, 2960.081 1212.100, 2960.768 1211 C 2961.460 1209.892, 2961.583 1209, 2961.044 1209 C 2960.508 1209, 2959.589 1209.900, 2959 1211 M 3204.457 1218.863 C 3201.178 1220.863, 3197.451 1225.785, 3198.456 1226.789 C 3198.794 1227.128, 3201.412 1225.064, 3204.274 1222.202 C 3209.658 1216.818, 3209.722 1215.653, 3204.457 1218.863 M 3149.713 1220.765 C 3147.142 1223.606, 3144.706 1237, 3146.760 1237 C 3147.178 1237, 3148.753 1235.857, 3150.260 1234.460 C 3152.702 1232.196, 3153 1231.216, 3153 1225.460 C 3153 1218.713, 3152.376 1217.822, 3149.713 1220.765 M 2932.306 1224.468 C 2930.168 1226.349, 2929.900 1226.944, 2931.179 1226.968 C 2932.973 1227.002, 2936 1224.466, 2936 1222.929 C 2936 1221.514, 2935.361 1221.781, 2932.306 1224.468 M 3078.679 1235.184 C 3066.707 1247.186, 3066.273 1249.931, 3076.735 1247.491 C 3078.418 1247.098, 3080.209 1244.343, 3083.991 1236.324 C 3086.753 1230.469, 3088.897 1225.603, 3088.756 1225.510 C 3088.615 1225.416, 3084.081 1229.770, 3078.679 1235.184 M 2964.991 1229.511 C 2963.986 1230.722, 2964.047 1231, 2965.319 1231 C 2967.185 1231, 2968.406 1229.369, 2967.130 1228.580 C 2966.633 1228.273, 2965.671 1228.692, 2964.991 1229.511 M 3052.341 1240.855 C 3045.763 1245.806, 3041.797 1249.526, 3041.087 1251.412 C 3040.484 1253.014, 3040.136 1254.470, 3040.314 1254.647 C 3040.492 1254.825, 3045.106 1251.681, 3050.569 1247.661 C 3057.518 1242.546, 3061.021 1239.248, 3062.234 1236.676 C 3063.187 1234.654, 3063.637 1233.047, 3063.234 1233.105 C 3062.830 1233.162, 3057.929 1236.650, 3052.341 1240.855 M 3146.055 1253.444 C 3144.175 1255.383, 3142.958 1257.291, 3143.350 1257.684 C 3144.315 1258.648, 3150.341 1252.522, 3149.856 1251.069 C 3149.643 1250.430, 3147.952 1251.486, 3146.055 1253.444 M 3034.552 1254.202 C 3032.772 1255.732, 3032.090 1257.071, 3032.519 1258.190 C 3033.442 1260.595, 3035.678 1259.363, 3036.935 1255.758 C 3038.337 1251.736, 3037.815 1251.395, 3034.552 1254.202 M 3187.500 1257.202 C 3180.968 1260.735, 3172 1267.378, 3172 1268.684 C 3172 1269.525, 3172.563 1270.007, 3173.250 1269.753 C 3173.938 1269.500, 3177.542 1268.289, 3181.260 1267.061 C 3188.346 1264.723, 3190.359 1262.710, 3189.812 1258.511 C 3189.543 1256.451, 3189.223 1256.270, 3187.500 1257.202 M 2983.590 1263.250 C 2981.487 1265.925, 2981.313 1266.560, 2982.607 1266.841 C 2984.423 1267.234, 2989 1263.286, 2989 1261.326 C 2989 1258.937, 2986.196 1259.935, 2983.590 1263.250 M 3273.500 1267.606 C 3270.750 1268.391, 3256.680 1271.043, 3242.233 1273.500 C 3227.597 1275.988, 3214.535 1278.726, 3212.733 1279.683 C 3208.055 1282.167, 3210.815 1282.383, 3223.901 1280.558 C 3230.011 1279.705, 3240.277 1278.707, 3246.716 1278.340 C 3257.166 1277.743, 3259.016 1277.347, 3263.961 1274.649 C 3267.007 1272.987, 3271.975 1270.371, 3275 1268.836 C 3281.116 1265.732, 3280.845 1265.510, 3273.500 1267.606 M 3066 1274.712 C 3066 1275.286, 3063.033 1278.961, 3059.406 1282.878 C 3052.982 1289.817, 3052.775 1291.177, 3058.472 1289.011 C 3060.343 1288.299, 3061.913 1286.152, 3064.060 1281.367 C 3065.702 1277.707, 3066.810 1274.477, 3066.523 1274.189 C 3066.235 1273.902, 3066 1274.137, 3066 1274.712 M 3021.655 1282.829 C 3019.824 1284.852, 3019.398 1288.367, 3021.051 1287.816 C 3021.629 1287.624, 3023.024 1286.011, 3024.149 1284.233 C 3025.757 1281.695, 3025.886 1281, 3024.753 1281 C 3023.959 1281, 3022.565 1281.823, 3021.655 1282.829 M 636.603 1512.454 C 635.154 1514.354, 633.075 1518.066, 631.982 1520.704 L 629.996 1525.500 632.530 1522.500 C 635.877 1518.537, 641 1510.873, 641 1509.829 C 641 1508.037, 639.112 1509.164, 636.603 1512.454 M 631.582 1529.665 C 627.737 1534.563, 625.974 1538, 627.307 1538 C 628.100 1538, 637.167 1524.834, 636.698 1524.365 C 636.404 1524.070, 634.102 1526.455, 631.582 1529.665 M 628.575 1538.918 C 627.620 1539.972, 626.988 1541.761, 627.170 1542.892 C 627.429 1544.505, 627.862 1544.090, 629.176 1540.975 C 631.077 1536.465, 631.008 1536.229, 628.575 1538.918 M 732.512 1697 C 734.126 1713.813, 734.210 1742.490, 732.685 1755.723 C 731.812 1763.300, 730.837 1772.544, 730.519 1776.265 C 730.201 1779.985, 728.135 1793.672, 725.928 1806.681 C 723.720 1819.689, 722.151 1831.494, 722.441 1832.916 C 728.196 1861.127, 733.764 1885.264, 736.587 1894.232 C 740.514 1906.710, 745.242 1925.774, 744.764 1927.207 C 744.162 1929.014, 734.585 1911.469, 730.502 1901.077 C 728.216 1895.260, 724.830 1885.100, 722.978 1878.500 C 721.126 1871.900, 719.280 1866.104, 718.875 1865.620 C 717.785 1864.316, 716.682 1871.489, 717.228 1876.331 C 717.909 1882.375, 731.281 1923.445, 736.981 1937 C 743.162 1951.699, 743.541 1953, 741.644 1953 C 736.466 1953, 729.315 1940.906, 721.538 1919 C 719.098 1912.125, 717.078 1907.099, 717.050 1907.831 C 717.023 1908.563, 719.658 1922.288, 722.907 1938.331 C 731.546 1980.988, 732.379 1990, 727.686 1990 C 726.077 1990, 724.321 1983.815, 717.469 1954 C 714.371 1940.525, 711.575 1928.825, 711.255 1928 C 710.375 1925.735, 709.157 1934.431, 709.084 1943.500 C 709.006 1953.174, 710.876 1970.421, 715.517 2002.819 C 717.433 2016.195, 719 2029.892, 719 2033.256 L 719 2039.374 722.009 2036.491 C 723.665 2034.905, 727.456 2029.984, 730.434 2025.554 C 733.412 2021.124, 737.796 2014.925, 740.175 2011.777 C 744.601 2005.920, 746.325 2002.747, 756.895 1981 C 768.972 1956.154, 773.787 1934.048, 774.101 1902 C 774.271 1884.778, 773.264 1873.065, 770.501 1860.083 C 768.865 1852.400, 762.617 1825.972, 760.552 1818 C 759.768 1814.975, 758.629 1808.900, 758.020 1804.500 C 755.346 1785.170, 753.652 1775.993, 751.427 1768.770 C 750.117 1764.519, 747.890 1754.169, 746.477 1745.770 C 744.223 1732.368, 742.657 1724.561, 738.983 1708.413 C 738.472 1706.166, 736.688 1701.441, 735.019 1697.913 L 731.985 1691.500 732.512 1697 M 2761.005 1983.237 C 2759.968 1985.555, 2759.321 1987.655, 2759.570 1987.903 C 2760.256 1988.589, 2766 1982.798, 2766 1981.420 C 2766 1980.757, 2765.301 1979.946, 2764.446 1979.618 C 2763.328 1979.188, 2762.364 1980.202, 2761.005 1983.237 M 2882.589 1984.196 C 2879.460 1990.476, 2879.168 1993.327, 2882.027 1989.693 C 2883.833 1987.396, 2887 1980.927, 2887 1979.532 C 2887 1979.239, 2886.590 1979, 2886.089 1979 C 2885.589 1979, 2884.014 1981.338, 2882.589 1984.196 M 2819.575 1984.878 C 2818.807 1986.122, 2820.625 1990, 2821.976 1990 C 2823.979 1990, 2824.126 1987.682, 2822.243 1985.798 C 2820.944 1984.500, 2820.008 1984.177, 2819.575 1984.878 M 2796 1994.500 C 2794.150 1996.409, 2792.862 1998.195, 2793.137 1998.470 C 2793.412 1998.745, 2795.150 1997.409, 2797 1995.500 C 2798.850 1993.591, 2800.138 1991.805, 2799.863 1991.530 C 2799.588 1991.255, 2797.850 1992.591, 2796 1994.500 M 706.325 2011.250 C 706.551 2018.537, 706.387 2028.325, 705.960 2033 C 705.533 2037.675, 705.480 2044.650, 705.842 2048.500 L 706.500 2055.500 710.750 2049.909 C 713.822 2045.868, 715.001 2043.373, 715.003 2040.909 C 715.008 2035.850, 707.733 1998, 706.755 1998 C 706.293 1998, 706.099 2003.963, 706.325 2011.250 M 3017.971 2049.123 C 3017.326 2051.530, 3016.591 2053.838, 3016.340 2054.250 C 3016.088 2054.662, 3016.124 2055, 3016.421 2055 C 3016.717 2055, 3017.905 2053.146, 3019.061 2050.881 C 3020.473 2048.113, 3020.831 2046.431, 3020.154 2045.754 C 3019.476 2045.076, 3018.761 2046.181, 3017.971 2049.123 M 2990.021 2050.078 C 2989.389 2052.510, 2988.453 2056.075, 2987.942 2058 C 2986.248 2064.372, 2987.132 2064.583, 2990.037 2058.500 C 2993.057 2052.174, 2993.548 2049.415, 2992.069 2047.078 C 2991.409 2046.035, 2990.864 2046.834, 2990.021 2050.078 M 2985.053 2070.804 C 2984.489 2072.897, 2983.776 2076.159, 2983.467 2078.054 C 2983.012 2080.846, 2983.484 2080.288, 2985.953 2075.114 C 2989.412 2067.864, 2989.581 2067, 2987.539 2067 C 2986.692 2067, 2985.646 2068.601, 2985.053 2070.804 M 493.965 2258.720 C 487.745 2270.149, 478.755 2286.925, 473.986 2296 C 469.218 2305.075, 462.794 2317.225, 459.712 2323 C 454.146 2333.428, 444.582 2355.915, 445.375 2356.708 C 445.603 2356.936, 451.203 2348.208, 457.820 2337.311 C 464.437 2326.415, 473.780 2311.200, 478.582 2303.500 C 495.223 2276.817, 495.934 2275.320, 501.080 2256.125 C 503.679 2246.431, 505.686 2238.374, 505.539 2238.220 C 505.393 2238.066, 500.184 2247.291, 493.965 2258.720 M 485.237 2333.191 C 481.069 2340.624, 466.688 2368.824, 467.995 2367 C 470.495 2363.513, 484.448 2339.069, 486.726 2334.186 C 490.009 2327.149, 489.003 2326.476, 485.237 2333.191 M 456 2387 C 455.411 2388.100, 455.155 2389, 455.430 2389 C 455.705 2389, 456.411 2388.100, 457 2387 C 457.589 2385.900, 457.845 2385, 457.570 2385 C 457.295 2385, 456.589 2385.900, 456 2387" stroke="none" fill="black" fill-rule="evenodd"/>
</svg>